G75*
G70*
%OFA0B0*%
%FSLAX24Y24*%
%IPPOS*%
%LPD*%
%AMOC8*
5,1,8,0,0,1.08239X$1,22.5*
%
%ADD10C,0.0270*%
%ADD11C,0.0060*%
%ADD12C,0.0120*%
D10*
X001730Y002005D03*
X001780Y002380D03*
X001755Y002805D03*
X001755Y003830D03*
X002030Y004380D03*
X002680Y004880D03*
X002680Y005880D03*
X001930Y006380D03*
X001930Y006880D03*
X002430Y007880D03*
X002780Y007880D03*
X002980Y007330D03*
X003455Y006805D03*
X003730Y007255D03*
X003655Y007580D03*
X003780Y007905D03*
X003880Y008230D03*
X004180Y008480D03*
X004255Y007630D03*
X004080Y007430D03*
X004080Y007155D03*
X004080Y006880D03*
X004080Y006605D03*
X004080Y006330D03*
X004080Y006055D03*
X004255Y005830D03*
X004530Y005830D03*
X004805Y005830D03*
X005080Y005830D03*
X005355Y005830D03*
X005630Y005830D03*
X005880Y005930D03*
X005880Y006205D03*
X005880Y006480D03*
X005880Y006755D03*
X005955Y007005D03*
X006230Y007005D03*
X006505Y007005D03*
X006780Y007005D03*
X007055Y007080D03*
X007055Y007355D03*
X007055Y007630D03*
X007055Y007905D03*
X007055Y008180D03*
X006780Y007830D03*
X006505Y007830D03*
X006230Y007830D03*
X005955Y007830D03*
X005930Y008605D03*
X006455Y008605D03*
X006980Y009230D03*
X007280Y009455D03*
X007130Y010030D03*
X006903Y010282D03*
X007080Y010580D03*
X007055Y010930D03*
X007280Y011180D03*
X006680Y012005D03*
X006330Y012630D03*
X006305Y013155D03*
X006430Y014380D03*
X007430Y015380D03*
X007880Y014980D03*
X007430Y016880D03*
X006259Y017209D03*
X006180Y016630D03*
X005430Y018380D03*
X004930Y017130D03*
X004680Y016630D03*
X004180Y016130D03*
X004180Y015380D03*
X004093Y016880D03*
X004430Y018380D03*
X005230Y015255D03*
X005330Y013230D03*
X005130Y012605D03*
X005105Y012180D03*
X004955Y013155D03*
X004605Y013205D03*
X004430Y012880D03*
X004180Y012630D03*
X003880Y013080D03*
X003830Y012230D03*
X003755Y011780D03*
X003455Y011955D03*
X003405Y010930D03*
X002930Y011880D03*
X002430Y011880D03*
X001930Y011880D03*
X001730Y009805D03*
X001930Y008380D03*
X003080Y009105D03*
X004680Y008630D03*
X003830Y005330D03*
X005955Y004980D03*
X006555Y005080D03*
X006930Y006380D03*
X008330Y005905D03*
X009130Y004680D03*
X007930Y001880D03*
X007430Y001380D03*
X006630Y003255D03*
X006430Y002880D03*
X005930Y002880D03*
X008580Y007880D03*
X008630Y008880D03*
X008655Y009805D03*
X008580Y010720D03*
X008715Y011040D03*
X008930Y013880D03*
X008930Y014380D03*
D11*
X001610Y001768D02*
X001610Y001060D01*
X009250Y001060D01*
X009250Y005431D01*
X008709Y004890D01*
X006740Y004890D01*
X006705Y004855D01*
X006608Y004815D01*
X006502Y004815D01*
X006405Y004855D01*
X006330Y004930D01*
X006306Y004988D01*
X006202Y004883D01*
X006180Y004830D01*
X006105Y004755D01*
X006008Y004715D01*
X005902Y004715D01*
X005805Y004755D01*
X005730Y004830D01*
X005690Y004927D01*
X005690Y004970D01*
X004339Y004970D01*
X003389Y005920D01*
X003295Y006014D01*
X003295Y006590D01*
X003230Y006655D01*
X003190Y006752D01*
X003190Y006858D01*
X003230Y006955D01*
X003305Y007030D01*
X003402Y007070D01*
X003508Y007070D01*
X003563Y007047D01*
X003505Y007105D01*
X003465Y007202D01*
X003465Y007308D01*
X003491Y007370D01*
X003430Y007430D01*
X003390Y007527D01*
X003390Y007633D01*
X003430Y007730D01*
X003505Y007805D01*
X003530Y007815D01*
X003515Y007852D01*
X003515Y007958D01*
X003555Y008055D01*
X003630Y008130D01*
X003634Y008131D01*
X003615Y008177D01*
X003615Y008283D01*
X003655Y008380D01*
X003730Y008455D01*
X003827Y008495D01*
X003915Y008495D01*
X003915Y008533D01*
X003955Y008630D01*
X004020Y008695D01*
X004020Y008696D01*
X004270Y008946D01*
X004364Y009040D01*
X005614Y009040D01*
X005689Y009115D01*
X006741Y009115D01*
X006715Y009177D01*
X006715Y009283D01*
X006755Y009380D01*
X006830Y009455D01*
X006927Y009495D01*
X007033Y009495D01*
X007130Y009455D01*
X007205Y009380D01*
X007245Y009283D01*
X007245Y009177D01*
X007223Y009124D01*
X008420Y010321D01*
X008420Y010505D01*
X008355Y010570D01*
X008315Y010667D01*
X008315Y010773D01*
X008355Y010870D01*
X008430Y010945D01*
X008462Y010958D01*
X008450Y010987D01*
X008450Y011093D01*
X008490Y011190D01*
X008565Y011265D01*
X008662Y011305D01*
X008768Y011305D01*
X008790Y011296D01*
X008790Y013326D01*
X008401Y013715D01*
X008290Y013826D01*
X008290Y015751D01*
X007426Y016615D01*
X007377Y016615D01*
X007280Y016655D01*
X007205Y016730D01*
X007165Y016827D01*
X007165Y016933D01*
X007205Y017030D01*
X007280Y017105D01*
X007377Y017145D01*
X007483Y017145D01*
X007580Y017105D01*
X007655Y017030D01*
X007695Y016933D01*
X007695Y016884D01*
X008670Y015909D01*
X008670Y014445D01*
X008705Y014530D01*
X008780Y014605D01*
X008877Y014645D01*
X008983Y014645D01*
X009080Y014605D01*
X009155Y014530D01*
X009195Y014433D01*
X009195Y014327D01*
X009155Y014230D01*
X009080Y014155D01*
X009019Y014130D01*
X009080Y014105D01*
X009155Y014030D01*
X009195Y013933D01*
X009195Y013884D01*
X009250Y013829D01*
X009250Y019700D01*
X001610Y019700D01*
X001610Y010042D01*
X001677Y010070D01*
X001783Y010070D01*
X001880Y010030D01*
X001955Y009955D01*
X001995Y009858D01*
X001995Y009752D01*
X001955Y009655D01*
X007754Y009655D01*
X007812Y009714D02*
X001979Y009714D01*
X001995Y009772D02*
X007060Y009772D01*
X007077Y009765D02*
X007183Y009765D01*
X007280Y009805D01*
X007355Y009880D01*
X007395Y009977D01*
X007395Y010083D01*
X007355Y010180D01*
X007280Y010255D01*
X007183Y010295D01*
X007168Y010295D01*
X007168Y010330D01*
X007230Y010355D01*
X007305Y010430D01*
X007345Y010527D01*
X007345Y010633D01*
X007305Y010730D01*
X007267Y010767D01*
X007280Y010780D01*
X007320Y010877D01*
X007320Y010915D01*
X007333Y010915D01*
X007430Y010955D01*
X007505Y011030D01*
X007545Y011127D01*
X007545Y011233D01*
X007505Y011330D01*
X007430Y011405D01*
X007333Y011445D01*
X007227Y011445D01*
X007130Y011405D01*
X007055Y011330D01*
X007015Y011233D01*
X007015Y011195D01*
X007002Y011195D01*
X006905Y011155D01*
X006830Y011080D01*
X006790Y010983D01*
X006790Y010877D01*
X006830Y010780D01*
X006868Y010742D01*
X006855Y010730D01*
X006815Y010633D01*
X006815Y010532D01*
X006753Y010506D01*
X006689Y010442D01*
X005594Y010442D01*
X004368Y011644D01*
X004321Y011690D01*
X004320Y011690D01*
X004320Y011691D01*
X004254Y011690D01*
X004004Y011690D01*
X004020Y011727D01*
X004020Y011833D01*
X003980Y011930D01*
X003927Y011983D01*
X003980Y012005D01*
X004055Y012080D01*
X004095Y012177D01*
X004095Y012283D01*
X004055Y012380D01*
X003980Y012455D01*
X003883Y012495D01*
X003777Y012495D01*
X003680Y012455D01*
X003605Y012380D01*
X003565Y012283D01*
X003565Y012196D01*
X003508Y012220D01*
X003402Y012220D01*
X003305Y012180D01*
X003230Y012105D01*
X003190Y012008D01*
X003190Y011945D01*
X003155Y012030D01*
X003080Y012105D01*
X002983Y012145D01*
X002877Y012145D01*
X002780Y012105D01*
X002705Y012030D01*
X002680Y011969D01*
X002655Y012030D01*
X002580Y012105D01*
X002483Y012145D01*
X002377Y012145D01*
X002280Y012105D01*
X002205Y012030D01*
X002180Y011969D01*
X002155Y012030D01*
X002080Y012105D01*
X001983Y012145D01*
X001877Y012145D01*
X001780Y012105D01*
X001705Y012030D01*
X001665Y011933D01*
X001665Y011827D01*
X001705Y011730D01*
X001780Y011655D01*
X001877Y011615D01*
X001969Y011615D01*
X002364Y011220D01*
X004114Y011220D01*
X005364Y009970D01*
X006614Y009970D01*
X006714Y009870D01*
X006915Y009870D01*
X006980Y009805D01*
X007077Y009765D01*
X007200Y009772D02*
X007871Y009772D01*
X007929Y009831D02*
X007305Y009831D01*
X007358Y009889D02*
X007988Y009889D01*
X008046Y009948D02*
X007383Y009948D01*
X007395Y010006D02*
X008105Y010006D01*
X008163Y010065D02*
X007395Y010065D01*
X007378Y010123D02*
X008222Y010123D01*
X008280Y010182D02*
X007353Y010182D01*
X007295Y010240D02*
X008339Y010240D01*
X008397Y010299D02*
X007168Y010299D01*
X007232Y010357D02*
X008420Y010357D01*
X008420Y010416D02*
X007290Y010416D01*
X007323Y010474D02*
X008420Y010474D01*
X008393Y010533D02*
X007345Y010533D01*
X007345Y010591D02*
X008347Y010591D01*
X008322Y010650D02*
X007338Y010650D01*
X007314Y010708D02*
X008315Y010708D01*
X008315Y010767D02*
X007268Y010767D01*
X007298Y010825D02*
X008337Y010825D01*
X008369Y010884D02*
X007320Y010884D01*
X007398Y010942D02*
X008427Y010942D01*
X008450Y011001D02*
X007475Y011001D01*
X007517Y011059D02*
X008450Y011059D01*
X008460Y011118D02*
X007541Y011118D01*
X007545Y011176D02*
X008484Y011176D01*
X008535Y011235D02*
X007544Y011235D01*
X007520Y011293D02*
X008633Y011293D01*
X008790Y011352D02*
X007483Y011352D01*
X007417Y011410D02*
X008790Y011410D01*
X008790Y011469D02*
X004546Y011469D01*
X004487Y011527D02*
X008790Y011527D01*
X008790Y011586D02*
X004427Y011586D01*
X004367Y011644D02*
X008790Y011644D01*
X008790Y011703D02*
X004010Y011703D01*
X004020Y011761D02*
X006576Y011761D01*
X006530Y011780D02*
X006627Y011740D01*
X006733Y011740D01*
X006830Y011780D01*
X006905Y011855D01*
X006945Y011952D01*
X006945Y012058D01*
X006905Y012155D01*
X006830Y012230D01*
X006733Y012270D01*
X006627Y012270D01*
X006530Y012230D01*
X006455Y012155D01*
X006415Y012058D01*
X006415Y011952D01*
X006455Y011855D01*
X006530Y011780D01*
X006491Y011820D02*
X004020Y011820D01*
X004001Y011878D02*
X006446Y011878D01*
X006421Y011937D02*
X005210Y011937D01*
X005255Y011955D02*
X005330Y012030D01*
X005370Y012127D01*
X005370Y012233D01*
X005330Y012330D01*
X005280Y012380D01*
X005355Y012455D01*
X005395Y012552D01*
X005395Y012658D01*
X005355Y012755D01*
X005280Y012830D01*
X005183Y012870D01*
X005077Y012870D01*
X004980Y012830D01*
X004905Y012755D01*
X004865Y012658D01*
X004865Y012552D01*
X004905Y012455D01*
X004955Y012405D01*
X004955Y012405D01*
X004880Y012330D01*
X004840Y012233D01*
X004840Y012127D01*
X004880Y012030D01*
X004955Y011955D01*
X005052Y011915D01*
X005158Y011915D01*
X005255Y011955D01*
X005295Y011995D02*
X006415Y011995D01*
X006415Y012054D02*
X005339Y012054D01*
X005364Y012112D02*
X006437Y012112D01*
X006471Y012171D02*
X005370Y012171D01*
X005370Y012229D02*
X006529Y012229D01*
X006478Y012405D02*
X008790Y012405D01*
X008790Y012463D02*
X006538Y012463D01*
X006555Y012480D02*
X006595Y012577D01*
X006595Y012683D01*
X006555Y012780D01*
X006480Y012855D01*
X006383Y012895D01*
X006370Y012895D01*
X006455Y012930D01*
X006530Y013005D01*
X006570Y013102D01*
X006570Y013208D01*
X006530Y013305D01*
X006455Y013380D01*
X006358Y013420D01*
X006252Y013420D01*
X006155Y013380D01*
X006080Y013305D01*
X006040Y013208D01*
X006040Y013102D01*
X006080Y013005D01*
X006155Y012930D01*
X006252Y012890D01*
X006265Y012890D01*
X006180Y012855D01*
X006105Y012780D01*
X006065Y012683D01*
X006065Y012577D01*
X006105Y012480D01*
X006180Y012405D01*
X006277Y012365D01*
X006383Y012365D01*
X006480Y012405D01*
X006555Y012480D01*
X006572Y012522D02*
X008790Y012522D01*
X008790Y012580D02*
X006595Y012580D01*
X006595Y012639D02*
X008790Y012639D01*
X008790Y012697D02*
X006589Y012697D01*
X006565Y012756D02*
X008790Y012756D01*
X008790Y012814D02*
X006521Y012814D01*
X006437Y012873D02*
X008790Y012873D01*
X008790Y012931D02*
X006456Y012931D01*
X006514Y012990D02*
X008790Y012990D01*
X008790Y013048D02*
X006547Y013048D01*
X006570Y013107D02*
X008790Y013107D01*
X008790Y013165D02*
X006570Y013165D01*
X006563Y013224D02*
X008790Y013224D01*
X008790Y013282D02*
X006539Y013282D01*
X006494Y013341D02*
X008776Y013341D01*
X008717Y013399D02*
X006408Y013399D01*
X006202Y013399D02*
X005536Y013399D01*
X005555Y013380D02*
X005480Y013455D01*
X005383Y013495D01*
X005277Y013495D01*
X005180Y013455D01*
X005105Y013380D01*
X005105Y013380D01*
X005105Y013380D01*
X005008Y013420D01*
X004902Y013420D01*
X004805Y013380D01*
X004755Y013430D01*
X004658Y013470D01*
X004552Y013470D01*
X004455Y013430D01*
X004380Y013355D01*
X004340Y013258D01*
X004340Y013152D01*
X004348Y013133D01*
X004340Y013130D01*
X004340Y015165D01*
X004405Y015230D01*
X004445Y015327D01*
X004445Y015433D01*
X004405Y015530D01*
X004330Y015605D01*
X004233Y015645D01*
X004127Y015645D01*
X004040Y015609D01*
X004040Y015764D01*
X004141Y015865D01*
X004233Y015865D01*
X004330Y015905D01*
X004405Y015980D01*
X004445Y016077D01*
X004445Y016183D01*
X004405Y016280D01*
X004330Y016355D01*
X004233Y016395D01*
X004127Y016395D01*
X004030Y016355D01*
X003955Y016280D01*
X003915Y016183D01*
X003915Y016091D01*
X003720Y015896D01*
X003720Y013295D01*
X003655Y013230D01*
X003615Y013133D01*
X003615Y013027D01*
X003655Y012930D01*
X003730Y012855D01*
X003827Y012815D01*
X003933Y012815D01*
X004020Y012851D01*
X004020Y012845D01*
X003955Y012780D01*
X003915Y012683D01*
X003915Y012577D01*
X003955Y012480D01*
X004030Y012405D01*
X004127Y012365D01*
X004233Y012365D01*
X004330Y012405D01*
X004405Y012480D01*
X004445Y012577D01*
X004445Y012615D01*
X004483Y012615D01*
X004580Y012655D01*
X004655Y012730D01*
X004695Y012827D01*
X004695Y012933D01*
X004687Y012952D01*
X004755Y012980D01*
X004805Y012930D01*
X004902Y012890D01*
X005008Y012890D01*
X005105Y012930D01*
X005180Y013005D01*
X005277Y012965D01*
X005383Y012965D01*
X005480Y013005D01*
X005555Y013080D01*
X005595Y013177D01*
X005595Y013283D01*
X005555Y013380D01*
X005571Y013341D02*
X006116Y013341D01*
X006071Y013282D02*
X005595Y013282D01*
X005595Y013224D02*
X006047Y013224D01*
X006040Y013165D02*
X005590Y013165D01*
X005566Y013107D02*
X006040Y013107D01*
X006062Y013048D02*
X005523Y013048D01*
X005442Y012990D02*
X006096Y012990D01*
X006154Y012931D02*
X005106Y012931D01*
X005164Y012990D02*
X005218Y012990D01*
X005180Y013005D02*
X005180Y013005D01*
X005180Y013005D01*
X005296Y012814D02*
X006139Y012814D01*
X006095Y012756D02*
X005354Y012756D01*
X005379Y012697D02*
X006071Y012697D01*
X006065Y012639D02*
X005395Y012639D01*
X005395Y012580D02*
X006065Y012580D01*
X006088Y012522D02*
X005382Y012522D01*
X005358Y012463D02*
X006122Y012463D01*
X006182Y012405D02*
X005304Y012405D01*
X005280Y012380D02*
X005280Y012380D01*
X005314Y012346D02*
X008790Y012346D01*
X008790Y012288D02*
X005347Y012288D01*
X005000Y011937D02*
X003973Y011937D01*
X003955Y011995D02*
X004915Y011995D01*
X004870Y012054D02*
X004028Y012054D01*
X004068Y012112D02*
X004846Y012112D01*
X004840Y012171D02*
X004092Y012171D01*
X004095Y012229D02*
X004840Y012229D01*
X004863Y012288D02*
X004093Y012288D01*
X004069Y012346D02*
X004896Y012346D01*
X004955Y012405D02*
X004328Y012405D01*
X004388Y012463D02*
X004902Y012463D01*
X004878Y012522D02*
X004422Y012522D01*
X004445Y012580D02*
X004865Y012580D01*
X004865Y012639D02*
X004540Y012639D01*
X004622Y012697D02*
X004881Y012697D01*
X004906Y012756D02*
X004665Y012756D01*
X004689Y012814D02*
X004964Y012814D01*
X004804Y012931D02*
X004695Y012931D01*
X004695Y012873D02*
X006223Y012873D01*
X006831Y012229D02*
X008790Y012229D01*
X008790Y012171D02*
X006889Y012171D01*
X006922Y012112D02*
X008790Y012112D01*
X008790Y012054D02*
X006945Y012054D01*
X006945Y011995D02*
X008790Y011995D01*
X008790Y011937D02*
X006938Y011937D01*
X006914Y011878D02*
X008790Y011878D01*
X008790Y011820D02*
X006869Y011820D01*
X006783Y011761D02*
X008790Y011761D01*
X008715Y011040D02*
X008830Y010905D01*
X008830Y010305D01*
X008405Y009880D01*
X008405Y009730D01*
X007505Y008830D01*
X005805Y008830D01*
X005330Y008355D01*
X004855Y008355D01*
X004680Y008530D01*
X004680Y008630D01*
X004430Y008880D02*
X005680Y008880D01*
X005755Y008955D01*
X007280Y008955D01*
X008580Y010255D01*
X008580Y010720D01*
X008655Y009805D02*
X007555Y008705D01*
X006880Y008705D01*
X006505Y008330D01*
X005730Y008330D01*
X005630Y008230D01*
X003880Y008230D01*
X003803Y008485D02*
X002173Y008485D01*
X002155Y008530D02*
X002080Y008605D01*
X001983Y008645D01*
X001877Y008645D01*
X001780Y008605D01*
X001705Y008530D01*
X001665Y008433D01*
X001665Y008327D01*
X001705Y008230D01*
X001780Y008155D01*
X001877Y008115D01*
X001983Y008115D01*
X002080Y008155D01*
X002155Y008230D01*
X002195Y008327D01*
X002195Y008433D01*
X002155Y008530D01*
X002141Y008544D02*
X003919Y008544D01*
X003944Y008602D02*
X002083Y008602D01*
X002195Y008427D02*
X003702Y008427D01*
X003650Y008368D02*
X002195Y008368D01*
X002188Y008310D02*
X003626Y008310D01*
X003615Y008251D02*
X002163Y008251D01*
X002117Y008193D02*
X003615Y008193D01*
X003633Y008134D02*
X002859Y008134D01*
X002833Y008145D02*
X002727Y008145D01*
X002630Y008105D01*
X002605Y008080D01*
X002580Y008105D01*
X002483Y008145D01*
X002377Y008145D01*
X002280Y008105D01*
X002205Y008030D01*
X002165Y007933D01*
X002165Y007827D01*
X002205Y007730D01*
X002280Y007655D01*
X002377Y007615D01*
X002483Y007615D01*
X002580Y007655D01*
X002605Y007680D01*
X002630Y007655D01*
X002727Y007615D01*
X002833Y007615D01*
X002930Y007655D01*
X003005Y007730D01*
X003045Y007827D01*
X003045Y007933D01*
X003005Y008030D01*
X002930Y008105D01*
X002833Y008145D01*
X002701Y008134D02*
X002509Y008134D01*
X002351Y008134D02*
X002029Y008134D01*
X002165Y007900D02*
X001610Y007900D01*
X001610Y007842D02*
X002165Y007842D01*
X002183Y007783D02*
X001610Y007783D01*
X001610Y007725D02*
X002211Y007725D01*
X002269Y007666D02*
X001610Y007666D01*
X001610Y007608D02*
X003390Y007608D01*
X003390Y007549D02*
X003136Y007549D01*
X003130Y007555D02*
X003033Y007595D01*
X002927Y007595D01*
X002830Y007555D01*
X002755Y007480D01*
X002715Y007383D01*
X002715Y007277D01*
X002755Y007180D01*
X002830Y007105D01*
X002927Y007065D01*
X003033Y007065D01*
X003130Y007105D01*
X003205Y007180D01*
X003245Y007277D01*
X003245Y007383D01*
X003205Y007480D01*
X003130Y007555D01*
X003194Y007491D02*
X003405Y007491D01*
X003429Y007432D02*
X003225Y007432D01*
X003245Y007374D02*
X003487Y007374D01*
X003468Y007315D02*
X003245Y007315D01*
X003236Y007257D02*
X003465Y007257D01*
X003467Y007198D02*
X003212Y007198D01*
X003164Y007140D02*
X003491Y007140D01*
X003529Y007081D02*
X003071Y007081D01*
X003210Y006906D02*
X002195Y006906D01*
X002195Y006933D02*
X002155Y007030D01*
X002080Y007105D01*
X001983Y007145D01*
X001877Y007145D01*
X001780Y007105D01*
X001705Y007030D01*
X001665Y006933D01*
X001665Y006827D01*
X001705Y006730D01*
X001610Y006730D01*
X001610Y006672D02*
X001764Y006672D01*
X001780Y006655D02*
X001841Y006630D01*
X001780Y006605D01*
X001705Y006530D01*
X001665Y006433D01*
X001665Y006327D01*
X001705Y006230D01*
X001780Y006155D01*
X001877Y006115D01*
X001983Y006115D01*
X002080Y006155D01*
X002155Y006230D01*
X002195Y006327D01*
X002195Y006433D01*
X002155Y006530D01*
X002080Y006605D01*
X002019Y006630D01*
X002080Y006655D01*
X002155Y006730D01*
X003199Y006730D01*
X003190Y006789D02*
X002179Y006789D01*
X002195Y006827D02*
X002195Y006933D01*
X002182Y006964D02*
X003239Y006964D01*
X003298Y007023D02*
X002158Y007023D01*
X002104Y007081D02*
X002889Y007081D01*
X002796Y007140D02*
X001996Y007140D01*
X001864Y007140D02*
X001610Y007140D01*
X001610Y007198D02*
X002748Y007198D01*
X002724Y007257D02*
X001610Y007257D01*
X001610Y007315D02*
X002715Y007315D01*
X002715Y007374D02*
X001610Y007374D01*
X001610Y007432D02*
X002735Y007432D01*
X002766Y007491D02*
X001610Y007491D01*
X001610Y007549D02*
X002824Y007549D01*
X002941Y007666D02*
X003404Y007666D01*
X003428Y007725D02*
X002999Y007725D01*
X003027Y007783D02*
X003483Y007783D01*
X003519Y007842D02*
X003045Y007842D01*
X003045Y007900D02*
X003515Y007900D01*
X003515Y007959D02*
X003034Y007959D01*
X003010Y008017D02*
X003540Y008017D01*
X003576Y008076D02*
X002959Y008076D01*
X002619Y007666D02*
X002591Y007666D01*
X002176Y007959D02*
X001610Y007959D01*
X001610Y008017D02*
X002200Y008017D01*
X002251Y008076D02*
X001610Y008076D01*
X001610Y008134D02*
X001831Y008134D01*
X001743Y008193D02*
X001610Y008193D01*
X001610Y008251D02*
X001697Y008251D01*
X001672Y008310D02*
X001610Y008310D01*
X001610Y008368D02*
X001665Y008368D01*
X001665Y008427D02*
X001610Y008427D01*
X001610Y008485D02*
X001687Y008485D01*
X001719Y008544D02*
X001610Y008544D01*
X001610Y008602D02*
X001777Y008602D01*
X001610Y008661D02*
X003986Y008661D01*
X004043Y008719D02*
X001610Y008719D01*
X001610Y008778D02*
X004101Y008778D01*
X004160Y008836D02*
X001610Y008836D01*
X001610Y008895D02*
X004218Y008895D01*
X004277Y008953D02*
X001610Y008953D01*
X001610Y009012D02*
X004335Y009012D01*
X004430Y008880D02*
X004180Y008630D01*
X004180Y008480D01*
X004080Y008005D02*
X003980Y007905D01*
X003780Y007905D01*
X003880Y007580D02*
X003655Y007580D01*
X003730Y007255D02*
X003730Y006680D01*
X003680Y006630D01*
X003680Y006055D01*
X004480Y005255D01*
X005630Y005255D01*
X006080Y005705D01*
X006630Y005705D01*
X006930Y006005D01*
X006930Y006380D01*
X006312Y004975D02*
X006294Y004975D01*
X006344Y004917D02*
X006235Y004917D01*
X006191Y004858D02*
X006402Y004858D01*
X006149Y004800D02*
X009250Y004800D01*
X009250Y004858D02*
X006708Y004858D01*
X006070Y004741D02*
X009250Y004741D01*
X009250Y004683D02*
X002857Y004683D01*
X002830Y004655D02*
X002905Y004730D01*
X002945Y004827D01*
X002945Y004933D01*
X002905Y005030D01*
X002830Y005105D01*
X002733Y005145D01*
X002627Y005145D01*
X002530Y005105D01*
X002455Y005030D01*
X002415Y004933D01*
X002415Y004827D01*
X002455Y004730D01*
X002530Y004655D01*
X002627Y004615D01*
X002733Y004615D01*
X002830Y004655D01*
X002754Y004624D02*
X009250Y004624D01*
X009250Y004566D02*
X001610Y004566D01*
X001610Y004624D02*
X002605Y004624D01*
X002503Y004683D02*
X001610Y004683D01*
X001610Y004741D02*
X002451Y004741D01*
X002426Y004800D02*
X001610Y004800D01*
X001610Y004858D02*
X002415Y004858D01*
X002415Y004917D02*
X001610Y004917D01*
X001610Y004975D02*
X002432Y004975D01*
X002459Y005034D02*
X001610Y005034D01*
X001610Y005092D02*
X002517Y005092D01*
X002627Y005615D02*
X002530Y005655D01*
X002455Y005730D01*
X002415Y005827D01*
X002415Y005933D01*
X002455Y006030D01*
X002530Y006105D01*
X002627Y006145D01*
X002733Y006145D01*
X002830Y006105D01*
X002905Y006030D01*
X002945Y005933D01*
X002945Y005827D01*
X002905Y005730D01*
X002830Y005655D01*
X002733Y005615D01*
X002627Y005615D01*
X002619Y005619D02*
X001610Y005619D01*
X001610Y005677D02*
X002508Y005677D01*
X002453Y005736D02*
X001610Y005736D01*
X001610Y005794D02*
X002429Y005794D01*
X002415Y005853D02*
X001610Y005853D01*
X001610Y005911D02*
X002415Y005911D01*
X002430Y005970D02*
X001610Y005970D01*
X001610Y006028D02*
X002454Y006028D01*
X002512Y006087D02*
X001610Y006087D01*
X001610Y006145D02*
X001805Y006145D01*
X001732Y006204D02*
X001610Y006204D01*
X001610Y006262D02*
X001692Y006262D01*
X001668Y006321D02*
X001610Y006321D01*
X001610Y006379D02*
X001665Y006379D01*
X001667Y006438D02*
X001610Y006438D01*
X001610Y006496D02*
X001691Y006496D01*
X001730Y006555D02*
X001610Y006555D01*
X001610Y006613D02*
X001800Y006613D01*
X001780Y006655D02*
X001705Y006730D01*
X001681Y006789D02*
X001610Y006789D01*
X001610Y006847D02*
X001665Y006847D01*
X001665Y006906D02*
X001610Y006906D01*
X001610Y006964D02*
X001678Y006964D01*
X001702Y007023D02*
X001610Y007023D01*
X001610Y007081D02*
X001756Y007081D01*
X002060Y006613D02*
X003272Y006613D01*
X003295Y006555D02*
X002130Y006555D01*
X002169Y006496D02*
X003295Y006496D01*
X003295Y006438D02*
X002193Y006438D01*
X002195Y006379D02*
X003295Y006379D01*
X003295Y006321D02*
X002192Y006321D01*
X002168Y006262D02*
X003295Y006262D01*
X003295Y006204D02*
X002128Y006204D01*
X002055Y006145D02*
X003295Y006145D01*
X003295Y006087D02*
X002848Y006087D01*
X002905Y006028D02*
X003295Y006028D01*
X003339Y005970D02*
X002930Y005970D01*
X002945Y005911D02*
X003398Y005911D01*
X003456Y005853D02*
X002945Y005853D01*
X002931Y005794D02*
X003515Y005794D01*
X003573Y005736D02*
X002907Y005736D01*
X002852Y005677D02*
X003632Y005677D01*
X003690Y005619D02*
X002741Y005619D01*
X002843Y005092D02*
X004217Y005092D01*
X004275Y005034D02*
X002901Y005034D01*
X002927Y004975D02*
X004334Y004975D01*
X004405Y005130D02*
X003455Y006080D01*
X003455Y006805D01*
X003223Y006672D02*
X002096Y006672D01*
X002155Y006730D02*
X002195Y006827D01*
X002195Y006847D02*
X003190Y006847D01*
X003749Y005560D02*
X001610Y005560D01*
X001610Y005502D02*
X003807Y005502D01*
X003866Y005443D02*
X001610Y005443D01*
X001610Y005385D02*
X003924Y005385D01*
X003983Y005326D02*
X001610Y005326D01*
X001610Y005268D02*
X004041Y005268D01*
X004100Y005209D02*
X001610Y005209D01*
X001610Y005151D02*
X004158Y005151D01*
X004405Y005130D02*
X005680Y005130D01*
X006105Y005555D01*
X007980Y005555D01*
X008330Y005905D01*
X008852Y005034D02*
X009250Y005034D01*
X009250Y005092D02*
X008911Y005092D01*
X008969Y005151D02*
X009250Y005151D01*
X009250Y005209D02*
X009028Y005209D01*
X009086Y005268D02*
X009250Y005268D01*
X009250Y005326D02*
X009145Y005326D01*
X009203Y005385D02*
X009250Y005385D01*
X009250Y004975D02*
X008794Y004975D01*
X008735Y004917D02*
X009250Y004917D01*
X009250Y004507D02*
X001610Y004507D01*
X001610Y004449D02*
X009250Y004449D01*
X009250Y004390D02*
X001610Y004390D01*
X001610Y004332D02*
X009250Y004332D01*
X009250Y004273D02*
X001610Y004273D01*
X001610Y004215D02*
X009250Y004215D01*
X009250Y004156D02*
X001610Y004156D01*
X001610Y004098D02*
X009250Y004098D01*
X009250Y004039D02*
X001921Y004039D01*
X001905Y004055D02*
X001808Y004095D01*
X001702Y004095D01*
X001610Y004057D01*
X001610Y009568D01*
X001677Y009540D01*
X001783Y009540D01*
X001880Y009580D01*
X001955Y009655D01*
X001896Y009597D02*
X007695Y009597D01*
X007637Y009538D02*
X001610Y009538D01*
X001610Y009480D02*
X006890Y009480D01*
X006796Y009421D02*
X001610Y009421D01*
X001610Y009363D02*
X006748Y009363D01*
X006724Y009304D02*
X001610Y009304D01*
X001610Y009246D02*
X006715Y009246D01*
X006715Y009187D02*
X001610Y009187D01*
X001610Y009129D02*
X006735Y009129D01*
X006955Y008580D02*
X008330Y008580D01*
X008630Y008880D01*
X008005Y008455D02*
X008580Y007880D01*
X008005Y008455D02*
X007005Y008455D01*
X006630Y008080D01*
X005855Y008080D01*
X005655Y007880D01*
X004180Y007880D01*
X003880Y007580D01*
X004080Y008005D02*
X005605Y008005D01*
X005805Y008205D01*
X006580Y008205D01*
X006955Y008580D01*
X007225Y009129D02*
X007227Y009129D01*
X007245Y009187D02*
X007286Y009187D01*
X007245Y009246D02*
X007344Y009246D01*
X007403Y009304D02*
X007236Y009304D01*
X007212Y009363D02*
X007461Y009363D01*
X007520Y009421D02*
X007164Y009421D01*
X007070Y009480D02*
X007578Y009480D01*
X007130Y010030D02*
X006780Y010030D01*
X006680Y010130D01*
X005430Y010130D01*
X004180Y011380D01*
X002430Y011380D01*
X001930Y011880D01*
X001807Y011644D02*
X001610Y011644D01*
X001610Y011586D02*
X001998Y011586D01*
X002057Y011527D02*
X001610Y011527D01*
X001610Y011469D02*
X002115Y011469D01*
X002174Y011410D02*
X001610Y011410D01*
X001610Y011352D02*
X002232Y011352D01*
X002291Y011293D02*
X001610Y011293D01*
X001610Y011235D02*
X002349Y011235D01*
X002755Y011530D02*
X002430Y011855D01*
X002430Y011880D01*
X002562Y012112D02*
X002798Y012112D01*
X002729Y012054D02*
X002631Y012054D01*
X002669Y011995D02*
X002691Y011995D01*
X002755Y011530D02*
X004255Y011530D01*
X005528Y010282D01*
X006903Y010282D01*
X006815Y010533D02*
X005501Y010533D01*
X005441Y010591D02*
X006815Y010591D01*
X006822Y010650D02*
X005382Y010650D01*
X005322Y010708D02*
X006846Y010708D01*
X006844Y010767D02*
X005262Y010767D01*
X005203Y010825D02*
X006812Y010825D01*
X006790Y010884D02*
X005143Y010884D01*
X005083Y010942D02*
X006790Y010942D01*
X006797Y011001D02*
X005024Y011001D01*
X004964Y011059D02*
X006822Y011059D01*
X006868Y011118D02*
X004904Y011118D01*
X004845Y011176D02*
X006956Y011176D01*
X007016Y011235D02*
X004785Y011235D01*
X004725Y011293D02*
X007040Y011293D01*
X007077Y011352D02*
X004666Y011352D01*
X004606Y011410D02*
X007143Y011410D01*
X006721Y010474D02*
X005561Y010474D01*
X005211Y010123D02*
X001610Y010123D01*
X001610Y010065D02*
X001664Y010065D01*
X001610Y010182D02*
X005152Y010182D01*
X005094Y010240D02*
X001610Y010240D01*
X001610Y010299D02*
X005035Y010299D01*
X004977Y010357D02*
X001610Y010357D01*
X001610Y010416D02*
X004918Y010416D01*
X004860Y010474D02*
X001610Y010474D01*
X001610Y010533D02*
X004801Y010533D01*
X004743Y010591D02*
X001610Y010591D01*
X001610Y010650D02*
X004684Y010650D01*
X004626Y010708D02*
X003558Y010708D01*
X003555Y010705D02*
X003630Y010780D01*
X003670Y010877D01*
X003670Y010983D01*
X003630Y011080D01*
X003555Y011155D01*
X003458Y011195D01*
X003352Y011195D01*
X003255Y011155D01*
X003180Y011080D01*
X003140Y010983D01*
X003140Y010877D01*
X003180Y010780D01*
X003255Y010705D01*
X003352Y010665D01*
X003458Y010665D01*
X003555Y010705D01*
X003616Y010767D02*
X004567Y010767D01*
X004509Y010825D02*
X003648Y010825D01*
X003670Y010884D02*
X004450Y010884D01*
X004392Y010942D02*
X003670Y010942D01*
X003663Y011001D02*
X004333Y011001D01*
X004275Y011059D02*
X003638Y011059D01*
X003592Y011118D02*
X004216Y011118D01*
X004158Y011176D02*
X003503Y011176D01*
X003306Y011176D02*
X001610Y011176D01*
X001610Y011118D02*
X003218Y011118D01*
X003172Y011059D02*
X001610Y011059D01*
X001610Y011001D02*
X003147Y011001D01*
X003140Y010942D02*
X001610Y010942D01*
X001610Y010884D02*
X003140Y010884D01*
X003162Y010825D02*
X001610Y010825D01*
X001610Y010767D02*
X003194Y010767D01*
X003252Y010708D02*
X001610Y010708D01*
X001796Y010065D02*
X005269Y010065D01*
X005328Y010006D02*
X001904Y010006D01*
X001958Y009948D02*
X006636Y009948D01*
X006695Y009889D02*
X001982Y009889D01*
X001995Y009831D02*
X006955Y009831D01*
X005644Y009070D02*
X001610Y009070D01*
X001610Y011703D02*
X001733Y011703D01*
X001692Y011761D02*
X001610Y011761D01*
X001610Y011820D02*
X001668Y011820D01*
X001665Y011878D02*
X001610Y011878D01*
X001610Y011937D02*
X001667Y011937D01*
X001691Y011995D02*
X001610Y011995D01*
X001610Y012054D02*
X001729Y012054D01*
X001798Y012112D02*
X001610Y012112D01*
X001610Y012171D02*
X003296Y012171D01*
X003237Y012112D02*
X003062Y012112D01*
X003131Y012054D02*
X003209Y012054D01*
X003190Y011995D02*
X003169Y011995D01*
X003565Y012229D02*
X001610Y012229D01*
X001610Y012288D02*
X003567Y012288D01*
X003591Y012346D02*
X001610Y012346D01*
X001610Y012405D02*
X003630Y012405D01*
X003700Y012463D02*
X001610Y012463D01*
X001610Y012522D02*
X003938Y012522D01*
X003915Y012580D02*
X001610Y012580D01*
X001610Y012639D02*
X003915Y012639D01*
X003921Y012697D02*
X001610Y012697D01*
X001610Y012756D02*
X003945Y012756D01*
X003989Y012814D02*
X001610Y012814D01*
X001610Y012873D02*
X003713Y012873D01*
X003655Y012931D02*
X001610Y012931D01*
X001610Y012990D02*
X003631Y012990D01*
X003615Y013048D02*
X001610Y013048D01*
X001610Y013107D02*
X003615Y013107D01*
X003628Y013165D02*
X001610Y013165D01*
X001610Y013224D02*
X003653Y013224D01*
X003707Y013282D02*
X001610Y013282D01*
X001610Y013341D02*
X003720Y013341D01*
X003720Y013399D02*
X001610Y013399D01*
X001610Y013458D02*
X003720Y013458D01*
X003720Y013516D02*
X001610Y013516D01*
X001610Y013575D02*
X003720Y013575D01*
X003720Y013633D02*
X001610Y013633D01*
X001610Y013692D02*
X003720Y013692D01*
X003720Y013750D02*
X001610Y013750D01*
X001610Y013809D02*
X003720Y013809D01*
X003720Y013867D02*
X001610Y013867D01*
X001610Y013926D02*
X003720Y013926D01*
X003720Y013984D02*
X001610Y013984D01*
X001610Y014043D02*
X003720Y014043D01*
X003720Y014101D02*
X001610Y014101D01*
X001610Y014160D02*
X003720Y014160D01*
X003720Y014218D02*
X001610Y014218D01*
X001610Y014277D02*
X003720Y014277D01*
X003720Y014335D02*
X001610Y014335D01*
X001610Y014394D02*
X003720Y014394D01*
X003720Y014452D02*
X001610Y014452D01*
X001610Y014511D02*
X003720Y014511D01*
X003720Y014569D02*
X001610Y014569D01*
X001610Y014628D02*
X003720Y014628D01*
X003720Y014686D02*
X001610Y014686D01*
X001610Y014745D02*
X003720Y014745D01*
X003720Y014803D02*
X001610Y014803D01*
X001610Y014862D02*
X003720Y014862D01*
X003720Y014920D02*
X001610Y014920D01*
X001610Y014979D02*
X003720Y014979D01*
X003720Y015037D02*
X001610Y015037D01*
X001610Y015096D02*
X003720Y015096D01*
X003720Y015154D02*
X001610Y015154D01*
X001610Y015213D02*
X003720Y015213D01*
X003720Y015271D02*
X001610Y015271D01*
X001610Y015330D02*
X003720Y015330D01*
X003720Y015388D02*
X001610Y015388D01*
X001610Y015447D02*
X003720Y015447D01*
X003720Y015505D02*
X001610Y015505D01*
X001610Y015564D02*
X003720Y015564D01*
X003720Y015622D02*
X001610Y015622D01*
X001610Y015681D02*
X003720Y015681D01*
X003720Y015739D02*
X001610Y015739D01*
X001610Y015798D02*
X003720Y015798D01*
X003720Y015856D02*
X001610Y015856D01*
X001610Y015915D02*
X003738Y015915D01*
X003797Y015973D02*
X001610Y015973D01*
X001610Y016032D02*
X003855Y016032D01*
X003914Y016090D02*
X001610Y016090D01*
X001610Y016149D02*
X003915Y016149D01*
X003925Y016207D02*
X001610Y016207D01*
X001610Y016266D02*
X003949Y016266D01*
X003999Y016324D02*
X001610Y016324D01*
X001610Y016383D02*
X004097Y016383D01*
X004146Y016615D02*
X004041Y016615D01*
X003943Y016655D01*
X003869Y016730D01*
X003828Y016827D01*
X003828Y016933D01*
X003869Y017030D01*
X003943Y017105D01*
X004041Y017145D01*
X004146Y017145D01*
X004243Y017105D01*
X004318Y017030D01*
X004358Y016933D01*
X004358Y016827D01*
X004318Y016730D01*
X004243Y016655D01*
X004146Y016615D01*
X004150Y016617D02*
X004415Y016617D01*
X004415Y016577D02*
X004415Y016683D01*
X004455Y016780D01*
X004530Y016855D01*
X004627Y016895D01*
X004733Y016895D01*
X004830Y016855D01*
X004905Y016780D01*
X004945Y016683D01*
X004945Y016577D01*
X004905Y016480D01*
X004830Y016405D01*
X004733Y016365D01*
X004627Y016365D01*
X004530Y016405D01*
X004455Y016480D01*
X004415Y016577D01*
X004423Y016558D02*
X001610Y016558D01*
X001610Y016500D02*
X004447Y016500D01*
X004494Y016441D02*
X001610Y016441D01*
X001610Y016617D02*
X004037Y016617D01*
X003923Y016675D02*
X001610Y016675D01*
X001610Y016734D02*
X003867Y016734D01*
X003843Y016792D02*
X001610Y016792D01*
X001610Y016851D02*
X003828Y016851D01*
X003828Y016909D02*
X001610Y016909D01*
X001610Y016968D02*
X003843Y016968D01*
X003867Y017026D02*
X001610Y017026D01*
X001610Y017085D02*
X003923Y017085D01*
X004036Y017143D02*
X001610Y017143D01*
X001610Y017202D02*
X005994Y017202D01*
X005994Y017156D02*
X006034Y017059D01*
X006109Y016984D01*
X006206Y016944D01*
X006311Y016944D01*
X006409Y016984D01*
X006483Y017059D01*
X006524Y017156D01*
X006524Y017261D01*
X006483Y017359D01*
X006409Y017433D01*
X006311Y017474D01*
X006206Y017474D01*
X006109Y017433D01*
X006034Y017359D01*
X005994Y017261D01*
X005994Y017156D01*
X005999Y017143D02*
X004151Y017143D01*
X004264Y017085D02*
X006023Y017085D01*
X006067Y017026D02*
X004320Y017026D01*
X004344Y016968D02*
X006148Y016968D01*
X006127Y016895D02*
X006030Y016855D01*
X005955Y016780D01*
X005915Y016683D01*
X005915Y016577D01*
X005955Y016480D01*
X006030Y016405D01*
X006127Y016365D01*
X006233Y016365D01*
X006330Y016405D01*
X006405Y016480D01*
X006445Y016577D01*
X006445Y016683D01*
X006405Y016780D01*
X006330Y016855D01*
X006233Y016895D01*
X006127Y016895D01*
X006026Y016851D02*
X004834Y016851D01*
X004893Y016792D02*
X005967Y016792D01*
X005936Y016734D02*
X004924Y016734D01*
X004945Y016675D02*
X005915Y016675D01*
X005915Y016617D02*
X004945Y016617D01*
X004937Y016558D02*
X005923Y016558D01*
X005947Y016500D02*
X004913Y016500D01*
X004866Y016441D02*
X005994Y016441D01*
X006085Y016383D02*
X004775Y016383D01*
X004585Y016383D02*
X004263Y016383D01*
X004361Y016324D02*
X007717Y016324D01*
X007659Y016383D02*
X006275Y016383D01*
X006366Y016441D02*
X007600Y016441D01*
X007542Y016500D02*
X006413Y016500D01*
X006437Y016558D02*
X007483Y016558D01*
X007373Y016617D02*
X006445Y016617D01*
X006445Y016675D02*
X007260Y016675D01*
X007204Y016734D02*
X006424Y016734D01*
X006393Y016792D02*
X007180Y016792D01*
X007165Y016851D02*
X006334Y016851D01*
X006369Y016968D02*
X007179Y016968D01*
X007165Y016909D02*
X004358Y016909D01*
X004358Y016851D02*
X004526Y016851D01*
X004467Y016792D02*
X004344Y016792D01*
X004320Y016734D02*
X004436Y016734D01*
X004415Y016675D02*
X004263Y016675D01*
X004411Y016266D02*
X007776Y016266D01*
X007834Y016207D02*
X004435Y016207D01*
X004445Y016149D02*
X007893Y016149D01*
X007951Y016090D02*
X004445Y016090D01*
X004426Y016032D02*
X008010Y016032D01*
X008068Y015973D02*
X004398Y015973D01*
X004339Y015915D02*
X008127Y015915D01*
X008185Y015856D02*
X004132Y015856D01*
X004074Y015798D02*
X008244Y015798D01*
X008290Y015739D02*
X004040Y015739D01*
X004040Y015681D02*
X008290Y015681D01*
X008290Y015622D02*
X004288Y015622D01*
X004371Y015564D02*
X008290Y015564D01*
X008290Y015505D02*
X005319Y015505D01*
X005283Y015520D02*
X005380Y015480D01*
X005455Y015405D01*
X005495Y015308D01*
X005495Y015202D01*
X005455Y015105D01*
X005380Y015030D01*
X005283Y014990D01*
X005177Y014990D01*
X005080Y015030D01*
X005005Y015105D01*
X004965Y015202D01*
X004965Y015308D01*
X005005Y015405D01*
X005080Y015480D01*
X005177Y015520D01*
X005283Y015520D01*
X005141Y015505D02*
X004415Y015505D01*
X004439Y015447D02*
X005047Y015447D01*
X004998Y015388D02*
X004445Y015388D01*
X004445Y015330D02*
X004974Y015330D01*
X004965Y015271D02*
X004422Y015271D01*
X004387Y015213D02*
X004965Y015213D01*
X004985Y015154D02*
X004340Y015154D01*
X004340Y015096D02*
X005015Y015096D01*
X005073Y015037D02*
X004340Y015037D01*
X004340Y014979D02*
X007615Y014979D01*
X007615Y014927D02*
X007655Y014830D01*
X007730Y014755D01*
X007827Y014715D01*
X007933Y014715D01*
X008030Y014755D01*
X008105Y014830D01*
X008145Y014927D01*
X008145Y015033D01*
X008105Y015130D01*
X008030Y015205D01*
X007933Y015245D01*
X007827Y015245D01*
X007730Y015205D01*
X007655Y015130D01*
X007615Y015033D01*
X007615Y014927D01*
X007618Y014920D02*
X004340Y014920D01*
X004340Y014862D02*
X007642Y014862D01*
X007682Y014803D02*
X004340Y014803D01*
X004340Y014745D02*
X007756Y014745D01*
X007617Y015037D02*
X005387Y015037D01*
X005445Y015096D02*
X007641Y015096D01*
X007679Y015154D02*
X005475Y015154D01*
X005495Y015213D02*
X007749Y015213D01*
X008011Y015213D02*
X008290Y015213D01*
X008290Y015271D02*
X005495Y015271D01*
X005486Y015330D02*
X008290Y015330D01*
X008290Y015388D02*
X005462Y015388D01*
X005413Y015447D02*
X008290Y015447D01*
X008290Y015154D02*
X008081Y015154D01*
X008119Y015096D02*
X008290Y015096D01*
X008290Y015037D02*
X008143Y015037D01*
X008145Y014979D02*
X008290Y014979D01*
X008290Y014920D02*
X008142Y014920D01*
X008118Y014862D02*
X008290Y014862D01*
X008290Y014803D02*
X008078Y014803D01*
X008004Y014745D02*
X008290Y014745D01*
X008290Y014686D02*
X004340Y014686D01*
X004340Y014628D02*
X006335Y014628D01*
X006377Y014645D02*
X006280Y014605D01*
X006205Y014530D01*
X006165Y014433D01*
X006165Y014327D01*
X006205Y014230D01*
X006280Y014155D01*
X006377Y014115D01*
X006483Y014115D01*
X006580Y014155D01*
X006655Y014230D01*
X006695Y014327D01*
X006695Y014433D01*
X006655Y014530D01*
X006580Y014605D01*
X006483Y014645D01*
X006377Y014645D01*
X006525Y014628D02*
X008290Y014628D01*
X008290Y014569D02*
X006616Y014569D01*
X006663Y014511D02*
X008290Y014511D01*
X008290Y014452D02*
X006687Y014452D01*
X006695Y014394D02*
X008290Y014394D01*
X008290Y014335D02*
X006695Y014335D01*
X006674Y014277D02*
X008290Y014277D01*
X008290Y014218D02*
X006643Y014218D01*
X006584Y014160D02*
X008290Y014160D01*
X008290Y014101D02*
X004340Y014101D01*
X004340Y014043D02*
X008290Y014043D01*
X008290Y013984D02*
X004340Y013984D01*
X004340Y013926D02*
X008290Y013926D01*
X008290Y013867D02*
X004340Y013867D01*
X004340Y013809D02*
X008308Y013809D01*
X008366Y013750D02*
X004340Y013750D01*
X004340Y013692D02*
X008425Y013692D01*
X008483Y013633D02*
X004340Y013633D01*
X004340Y013575D02*
X008542Y013575D01*
X008600Y013516D02*
X004340Y013516D01*
X004340Y013458D02*
X004522Y013458D01*
X004424Y013399D02*
X004340Y013399D01*
X004340Y013341D02*
X004374Y013341D01*
X004350Y013282D02*
X004340Y013282D01*
X004340Y013224D02*
X004340Y013224D01*
X004340Y013165D02*
X004340Y013165D01*
X004180Y012630D02*
X004180Y015380D01*
X004072Y015622D02*
X004040Y015622D01*
X003880Y015830D02*
X004180Y016130D01*
X003880Y015830D02*
X003880Y013080D01*
X003960Y012463D02*
X003972Y012463D01*
X004030Y012405D02*
X004032Y012405D01*
X004688Y013458D02*
X005187Y013458D01*
X005124Y013399D02*
X005058Y013399D01*
X004852Y013399D02*
X004786Y013399D01*
X004340Y014160D02*
X006276Y014160D01*
X006217Y014218D02*
X004340Y014218D01*
X004340Y014277D02*
X006186Y014277D01*
X006165Y014335D02*
X004340Y014335D01*
X004340Y014394D02*
X006165Y014394D01*
X006173Y014452D02*
X004340Y014452D01*
X004340Y014511D02*
X006197Y014511D01*
X006244Y014569D02*
X004340Y014569D01*
X005473Y013458D02*
X008659Y013458D01*
X009084Y014101D02*
X009250Y014101D01*
X009250Y014043D02*
X009142Y014043D01*
X009174Y013984D02*
X009250Y013984D01*
X009250Y013926D02*
X009195Y013926D01*
X009212Y013867D02*
X009250Y013867D01*
X009250Y014160D02*
X009084Y014160D01*
X009143Y014218D02*
X009250Y014218D01*
X009250Y014277D02*
X009174Y014277D01*
X009195Y014335D02*
X009250Y014335D01*
X009250Y014394D02*
X009195Y014394D01*
X009187Y014452D02*
X009250Y014452D01*
X009250Y014511D02*
X009163Y014511D01*
X009116Y014569D02*
X009250Y014569D01*
X009250Y014628D02*
X009025Y014628D01*
X008835Y014628D02*
X008670Y014628D01*
X008670Y014686D02*
X009250Y014686D01*
X009250Y014745D02*
X008670Y014745D01*
X008670Y014803D02*
X009250Y014803D01*
X009250Y014862D02*
X008670Y014862D01*
X008670Y014920D02*
X009250Y014920D01*
X009250Y014979D02*
X008670Y014979D01*
X008670Y015037D02*
X009250Y015037D01*
X009250Y015096D02*
X008670Y015096D01*
X008670Y015154D02*
X009250Y015154D01*
X009250Y015213D02*
X008670Y015213D01*
X008670Y015271D02*
X009250Y015271D01*
X009250Y015330D02*
X008670Y015330D01*
X008670Y015388D02*
X009250Y015388D01*
X009250Y015447D02*
X008670Y015447D01*
X008670Y015505D02*
X009250Y015505D01*
X009250Y015564D02*
X008670Y015564D01*
X008670Y015622D02*
X009250Y015622D01*
X009250Y015681D02*
X008670Y015681D01*
X008670Y015739D02*
X009250Y015739D01*
X009250Y015798D02*
X008670Y015798D01*
X008670Y015856D02*
X009250Y015856D01*
X009250Y015915D02*
X008664Y015915D01*
X008606Y015973D02*
X009250Y015973D01*
X009250Y016032D02*
X008547Y016032D01*
X008489Y016090D02*
X009250Y016090D01*
X009250Y016149D02*
X008430Y016149D01*
X008372Y016207D02*
X009250Y016207D01*
X009250Y016266D02*
X008313Y016266D01*
X008255Y016324D02*
X009250Y016324D01*
X009250Y016383D02*
X008196Y016383D01*
X008138Y016441D02*
X009250Y016441D01*
X009250Y016500D02*
X008079Y016500D01*
X008021Y016558D02*
X009250Y016558D01*
X009250Y016617D02*
X007962Y016617D01*
X007904Y016675D02*
X009250Y016675D01*
X009250Y016734D02*
X007845Y016734D01*
X007787Y016792D02*
X009250Y016792D01*
X009250Y016851D02*
X007728Y016851D01*
X007695Y016909D02*
X009250Y016909D01*
X009250Y016968D02*
X007681Y016968D01*
X007656Y017026D02*
X009250Y017026D01*
X009250Y017085D02*
X007600Y017085D01*
X007487Y017143D02*
X009250Y017143D01*
X009250Y017202D02*
X006524Y017202D01*
X006524Y017260D02*
X009250Y017260D01*
X009250Y017319D02*
X006500Y017319D01*
X006465Y017377D02*
X009250Y017377D01*
X009250Y017436D02*
X006404Y017436D01*
X006518Y017143D02*
X007373Y017143D01*
X007260Y017085D02*
X006494Y017085D01*
X006451Y017026D02*
X007204Y017026D01*
X006114Y017436D02*
X001610Y017436D01*
X001610Y017494D02*
X009250Y017494D01*
X009250Y017553D02*
X001610Y017553D01*
X001610Y017611D02*
X009250Y017611D01*
X009250Y017670D02*
X001610Y017670D01*
X001610Y017728D02*
X009250Y017728D01*
X009250Y017787D02*
X001610Y017787D01*
X001610Y017845D02*
X009250Y017845D01*
X009250Y017904D02*
X001610Y017904D01*
X001610Y017962D02*
X009250Y017962D01*
X009250Y018021D02*
X001610Y018021D01*
X001610Y018079D02*
X009250Y018079D01*
X009250Y018138D02*
X005537Y018138D01*
X005580Y018155D02*
X005655Y018230D01*
X005695Y018327D01*
X005695Y018433D01*
X005655Y018530D01*
X005580Y018605D01*
X005483Y018645D01*
X005377Y018645D01*
X005280Y018605D01*
X005205Y018530D01*
X005165Y018433D01*
X005165Y018327D01*
X005205Y018230D01*
X005280Y018155D01*
X005377Y018115D01*
X005483Y018115D01*
X005580Y018155D01*
X005621Y018196D02*
X009250Y018196D01*
X009250Y018255D02*
X005665Y018255D01*
X005689Y018313D02*
X009250Y018313D01*
X009250Y018372D02*
X005695Y018372D01*
X005695Y018430D02*
X009250Y018430D01*
X009250Y018489D02*
X005672Y018489D01*
X005638Y018547D02*
X009250Y018547D01*
X009250Y018606D02*
X005578Y018606D01*
X005323Y018138D02*
X004537Y018138D01*
X004580Y018155D02*
X004483Y018115D01*
X004377Y018115D01*
X004280Y018155D01*
X004205Y018230D01*
X004165Y018327D01*
X004165Y018433D01*
X004205Y018530D01*
X004280Y018605D01*
X004377Y018645D01*
X004483Y018645D01*
X004580Y018605D01*
X004655Y018530D01*
X004695Y018433D01*
X004695Y018327D01*
X004655Y018230D01*
X004580Y018155D01*
X004621Y018196D02*
X005239Y018196D01*
X005195Y018255D02*
X004665Y018255D01*
X004689Y018313D02*
X005171Y018313D01*
X005165Y018372D02*
X004695Y018372D01*
X004695Y018430D02*
X005165Y018430D01*
X005188Y018489D02*
X004672Y018489D01*
X004638Y018547D02*
X005222Y018547D01*
X005282Y018606D02*
X004578Y018606D01*
X004282Y018606D02*
X001610Y018606D01*
X001610Y018664D02*
X009250Y018664D01*
X009250Y018723D02*
X001610Y018723D01*
X001610Y018781D02*
X009250Y018781D01*
X009250Y018840D02*
X001610Y018840D01*
X001610Y018898D02*
X009250Y018898D01*
X009250Y018957D02*
X001610Y018957D01*
X001610Y019015D02*
X009250Y019015D01*
X009250Y019074D02*
X001610Y019074D01*
X001610Y019132D02*
X009250Y019132D01*
X009250Y019191D02*
X001610Y019191D01*
X001610Y019249D02*
X009250Y019249D01*
X009250Y019308D02*
X001610Y019308D01*
X001610Y019366D02*
X009250Y019366D01*
X009250Y019425D02*
X001610Y019425D01*
X001610Y019483D02*
X009250Y019483D01*
X009250Y019542D02*
X001610Y019542D01*
X001610Y019600D02*
X009250Y019600D01*
X009250Y019659D02*
X001610Y019659D01*
X001610Y018547D02*
X004222Y018547D01*
X004188Y018489D02*
X001610Y018489D01*
X001610Y018430D02*
X004165Y018430D01*
X004165Y018372D02*
X001610Y018372D01*
X001610Y018313D02*
X004171Y018313D01*
X004195Y018255D02*
X001610Y018255D01*
X001610Y018196D02*
X004239Y018196D01*
X004323Y018138D02*
X001610Y018138D01*
X001610Y017377D02*
X006052Y017377D01*
X006017Y017319D02*
X001610Y017319D01*
X001610Y017260D02*
X005994Y017260D01*
X005180Y017130D02*
X004930Y017130D01*
X002298Y012112D02*
X002062Y012112D01*
X002131Y012054D02*
X002229Y012054D01*
X002191Y011995D02*
X002169Y011995D01*
X002945Y004917D02*
X005694Y004917D01*
X005719Y004858D02*
X002945Y004858D01*
X002933Y004800D02*
X005761Y004800D01*
X005839Y004741D02*
X002909Y004741D01*
X001980Y003980D02*
X002020Y003883D01*
X002020Y003777D01*
X001980Y003680D01*
X001905Y003605D01*
X001808Y003565D01*
X001702Y003565D01*
X001610Y003603D01*
X001610Y003032D01*
X001702Y003070D01*
X001808Y003070D01*
X001905Y003030D01*
X001980Y002955D01*
X002020Y002858D01*
X002020Y002752D01*
X005696Y002752D01*
X005705Y002730D02*
X005665Y002827D01*
X005665Y002933D01*
X005705Y003030D01*
X005780Y003105D01*
X005877Y003145D01*
X005983Y003145D01*
X006080Y003105D01*
X006155Y003030D01*
X006180Y002969D01*
X006205Y003030D01*
X006280Y003105D01*
X006377Y003145D01*
X006389Y003145D01*
X006365Y003202D01*
X006365Y003308D01*
X006405Y003405D01*
X006480Y003480D01*
X006577Y003520D01*
X006683Y003520D01*
X006780Y003480D01*
X006815Y003445D01*
X006884Y003445D01*
X007009Y003320D01*
X007120Y003209D01*
X007120Y001959D01*
X007434Y001645D01*
X007483Y001645D01*
X007580Y001605D01*
X007655Y001530D01*
X007695Y001433D01*
X007695Y001327D01*
X007655Y001230D01*
X007580Y001155D01*
X007483Y001115D01*
X007377Y001115D01*
X007280Y001155D01*
X007205Y001230D01*
X007165Y001327D01*
X007165Y001376D01*
X006740Y001801D01*
X006740Y003014D01*
X006683Y002990D01*
X006671Y002990D01*
X006695Y002933D01*
X006695Y002827D01*
X006655Y002730D01*
X006580Y002655D01*
X006483Y002615D01*
X006377Y002615D01*
X006280Y002655D01*
X006205Y002730D01*
X006180Y002791D01*
X006155Y002730D01*
X006080Y002655D01*
X005983Y002615D01*
X005877Y002615D01*
X005780Y002655D01*
X005705Y002730D01*
X005742Y002694D02*
X001996Y002694D01*
X001980Y002655D02*
X002020Y002752D01*
X002020Y002811D02*
X005672Y002811D01*
X005665Y002869D02*
X002015Y002869D01*
X001991Y002928D02*
X005665Y002928D01*
X005687Y002986D02*
X001949Y002986D01*
X001869Y003045D02*
X005720Y003045D01*
X005778Y003103D02*
X001610Y003103D01*
X001610Y003045D02*
X001641Y003045D01*
X001610Y003162D02*
X006382Y003162D01*
X006365Y003220D02*
X001610Y003220D01*
X001610Y003279D02*
X006365Y003279D01*
X006377Y003337D02*
X001610Y003337D01*
X001610Y003396D02*
X006401Y003396D01*
X006454Y003454D02*
X001610Y003454D01*
X001610Y003513D02*
X006559Y003513D01*
X006701Y003513D02*
X009250Y003513D01*
X009250Y003571D02*
X001822Y003571D01*
X001929Y003630D02*
X009250Y003630D01*
X009250Y003688D02*
X001983Y003688D01*
X002007Y003747D02*
X009250Y003747D01*
X009250Y003805D02*
X002020Y003805D01*
X002020Y003864D02*
X009250Y003864D01*
X009250Y003922D02*
X002004Y003922D01*
X001980Y003980D02*
X001905Y004055D01*
X001979Y003981D02*
X009250Y003981D01*
X009250Y003454D02*
X006806Y003454D01*
X006933Y003396D02*
X009250Y003396D01*
X009250Y003337D02*
X006992Y003337D01*
X007050Y003279D02*
X009250Y003279D01*
X009250Y003220D02*
X007109Y003220D01*
X007120Y003162D02*
X009250Y003162D01*
X009250Y003103D02*
X007120Y003103D01*
X007120Y003045D02*
X009250Y003045D01*
X009250Y002986D02*
X007120Y002986D01*
X007120Y002928D02*
X009250Y002928D01*
X009250Y002869D02*
X007120Y002869D01*
X007120Y002811D02*
X009250Y002811D01*
X009250Y002752D02*
X007120Y002752D01*
X007120Y002694D02*
X009250Y002694D01*
X009250Y002635D02*
X007120Y002635D01*
X007120Y002577D02*
X009250Y002577D01*
X009250Y002518D02*
X007120Y002518D01*
X007120Y002460D02*
X009250Y002460D01*
X009250Y002401D02*
X007120Y002401D01*
X007120Y002343D02*
X009250Y002343D01*
X009250Y002284D02*
X007120Y002284D01*
X007120Y002226D02*
X009250Y002226D01*
X009250Y002167D02*
X007120Y002167D01*
X007120Y002109D02*
X007789Y002109D01*
X007780Y002105D02*
X007705Y002030D01*
X007665Y001933D01*
X007146Y001933D01*
X007120Y001992D02*
X007689Y001992D01*
X007665Y001933D02*
X007665Y001827D01*
X007705Y001730D01*
X007780Y001655D01*
X007877Y001615D01*
X007983Y001615D01*
X008080Y001655D01*
X008155Y001730D01*
X008195Y001827D01*
X008195Y001933D01*
X009250Y001933D01*
X009250Y001875D02*
X008195Y001875D01*
X008195Y001933D02*
X008155Y002030D01*
X008080Y002105D01*
X007983Y002145D01*
X007877Y002145D01*
X007780Y002105D01*
X007725Y002050D02*
X007120Y002050D01*
X007204Y001875D02*
X007665Y001875D01*
X007670Y001816D02*
X007263Y001816D01*
X007321Y001758D02*
X007694Y001758D01*
X007736Y001699D02*
X007380Y001699D01*
X007494Y001641D02*
X007816Y001641D01*
X007682Y001465D02*
X009250Y001465D01*
X009250Y001407D02*
X007695Y001407D01*
X007695Y001348D02*
X009250Y001348D01*
X009250Y001290D02*
X007679Y001290D01*
X007655Y001231D02*
X009250Y001231D01*
X009250Y001173D02*
X007597Y001173D01*
X007657Y001524D02*
X009250Y001524D01*
X009250Y001582D02*
X007603Y001582D01*
X007263Y001173D02*
X001610Y001173D01*
X001610Y001231D02*
X007205Y001231D01*
X007181Y001290D02*
X001610Y001290D01*
X001610Y001348D02*
X007165Y001348D01*
X007135Y001407D02*
X001610Y001407D01*
X001610Y001465D02*
X007076Y001465D01*
X007018Y001524D02*
X001610Y001524D01*
X001610Y001582D02*
X006959Y001582D01*
X006901Y001641D02*
X001610Y001641D01*
X001610Y001699D02*
X006842Y001699D01*
X006784Y001758D02*
X001825Y001758D01*
X001783Y001740D02*
X001677Y001740D01*
X001610Y001768D01*
X001610Y001758D02*
X001635Y001758D01*
X001783Y001740D02*
X001880Y001780D01*
X001955Y001855D01*
X001995Y001952D01*
X001995Y002058D01*
X001955Y002155D01*
X001942Y002168D01*
X002005Y002230D01*
X002045Y002327D01*
X002045Y002433D01*
X002005Y002530D01*
X001930Y002605D01*
X001930Y002605D01*
X001980Y002655D01*
X001960Y002635D02*
X005829Y002635D01*
X006031Y002635D02*
X006329Y002635D01*
X006242Y002694D02*
X006118Y002694D01*
X006164Y002752D02*
X006196Y002752D01*
X006187Y002986D02*
X006173Y002986D01*
X006140Y003045D02*
X006220Y003045D01*
X006278Y003103D02*
X006082Y003103D01*
X006531Y002635D02*
X006740Y002635D01*
X006740Y002577D02*
X001958Y002577D01*
X002010Y002518D02*
X006740Y002518D01*
X006740Y002460D02*
X002034Y002460D01*
X002045Y002401D02*
X006740Y002401D01*
X006740Y002343D02*
X002045Y002343D01*
X002027Y002284D02*
X006740Y002284D01*
X006740Y002226D02*
X002000Y002226D01*
X001943Y002167D02*
X006740Y002167D01*
X006740Y002109D02*
X001974Y002109D01*
X001995Y002050D02*
X006740Y002050D01*
X006740Y001992D02*
X001995Y001992D01*
X001987Y001933D02*
X006740Y001933D01*
X006740Y001875D02*
X001963Y001875D01*
X001916Y001816D02*
X006740Y001816D01*
X006740Y002694D02*
X006618Y002694D01*
X006664Y002752D02*
X006740Y002752D01*
X006740Y002811D02*
X006688Y002811D01*
X006695Y002869D02*
X006740Y002869D01*
X006740Y002928D02*
X006695Y002928D01*
X006673Y002986D02*
X006740Y002986D01*
X008071Y002109D02*
X009250Y002109D01*
X009250Y002050D02*
X008135Y002050D01*
X008171Y001992D02*
X009250Y001992D01*
X009250Y001816D02*
X008190Y001816D01*
X008166Y001758D02*
X009250Y001758D01*
X009250Y001699D02*
X008124Y001699D01*
X008044Y001641D02*
X009250Y001641D01*
X009250Y001114D02*
X001610Y001114D01*
X001610Y003571D02*
X001688Y003571D01*
X008670Y014452D02*
X008673Y014452D01*
X008670Y014511D02*
X008697Y014511D01*
X008670Y014569D02*
X008744Y014569D01*
D12*
X008930Y013880D02*
X009180Y013630D01*
X009180Y005630D01*
X008630Y005080D01*
X006555Y005080D01*
X006430Y005380D02*
X008505Y005380D01*
X008980Y005855D01*
X008980Y013405D01*
X008480Y013905D01*
X008480Y015830D01*
X007430Y016880D01*
X006430Y005380D02*
X006030Y004980D01*
X005955Y004980D01*
X006630Y003255D02*
X006805Y003255D01*
X006930Y003130D01*
X006930Y001880D01*
X007430Y001380D01*
M02*
