G75*
G70*
%OFA0B0*%
%FSLAX24Y24*%
%IPPOS*%
%LPD*%
%AMOC8*
5,1,8,0,0,1.08239X$1,22.5*
%
%ADD10R,0.2165X0.2165*%
%ADD11C,0.0118*%
%ADD12R,0.0394X0.0138*%
%ADD13R,0.0394X0.1811*%
%ADD14R,0.0630X0.1339*%
%ADD15R,0.0709X0.0551*%
%ADD16R,0.0551X0.0748*%
%ADD17R,0.0315X0.0591*%
%ADD18C,0.0016*%
%ADD19R,0.0748X0.0748*%
%ADD20R,0.0827X0.0630*%
%ADD21R,0.0606X0.0606*%
%ADD22R,0.0276X0.0354*%
%ADD23R,0.0551X0.0472*%
%ADD24R,0.0866X0.0512*%
%ADD25R,0.0669X0.0315*%
%ADD26R,0.0315X0.0315*%
%ADD27R,0.0197X0.0354*%
%ADD28R,0.0472X0.0217*%
%ADD29R,0.0354X0.0276*%
%ADD30C,0.0080*%
%ADD31R,0.0250X0.0500*%
%ADD32C,0.0120*%
%ADD33C,0.0060*%
%ADD34C,0.0100*%
%ADD35C,0.0270*%
D10*
X005180Y010380D03*
D11*
X005278Y009150D02*
X005278Y008894D01*
X005082Y008894D02*
X005082Y009150D01*
X004885Y009150D02*
X004885Y008894D01*
X004688Y008894D02*
X004688Y009150D01*
X004491Y009150D02*
X004491Y008894D01*
X004294Y008894D02*
X004294Y009150D01*
X004097Y009150D02*
X004097Y008894D01*
X003950Y009297D02*
X003694Y009297D01*
X003694Y009494D02*
X003950Y009494D01*
X003950Y009691D02*
X003694Y009691D01*
X003694Y009888D02*
X003950Y009888D01*
X003950Y010085D02*
X003694Y010085D01*
X003694Y010282D02*
X003950Y010282D01*
X003950Y010478D02*
X003694Y010478D01*
X003694Y010675D02*
X003950Y010675D01*
X003950Y010872D02*
X003694Y010872D01*
X003694Y011069D02*
X003950Y011069D01*
X003950Y011266D02*
X003694Y011266D01*
X003694Y011463D02*
X003950Y011463D01*
X004097Y011610D02*
X004097Y011866D01*
X004294Y011866D02*
X004294Y011610D01*
X004491Y011610D02*
X004491Y011866D01*
X004688Y011866D02*
X004688Y011610D01*
X004885Y011610D02*
X004885Y011866D01*
X005082Y011866D02*
X005082Y011610D01*
X005278Y011610D02*
X005278Y011866D01*
X005475Y011866D02*
X005475Y011610D01*
X005672Y011610D02*
X005672Y011866D01*
X005869Y011866D02*
X005869Y011610D01*
X006066Y011610D02*
X006066Y011866D01*
X006263Y011866D02*
X006263Y011610D01*
X006410Y011463D02*
X006666Y011463D01*
X006666Y011266D02*
X006410Y011266D01*
X006410Y011069D02*
X006666Y011069D01*
X006666Y010872D02*
X006410Y010872D01*
X006410Y010675D02*
X006666Y010675D01*
X006666Y010478D02*
X006410Y010478D01*
X006410Y010282D02*
X006666Y010282D01*
X006666Y010085D02*
X006410Y010085D01*
X006410Y009888D02*
X006666Y009888D01*
X006666Y009691D02*
X006410Y009691D01*
X006410Y009494D02*
X006666Y009494D01*
X006666Y009297D02*
X006410Y009297D01*
X006263Y009150D02*
X006263Y008894D01*
X006066Y008894D02*
X006066Y009150D01*
X005869Y009150D02*
X005869Y008894D01*
X005672Y008894D02*
X005672Y009150D01*
X005475Y009150D02*
X005475Y008894D01*
D12*
X005534Y008361D03*
X005534Y008105D03*
X005534Y007849D03*
X004826Y007849D03*
X004826Y008105D03*
X004826Y008361D03*
D13*
X007336Y003637D03*
X008124Y003637D03*
D14*
X009069Y001589D03*
X006391Y001589D03*
D15*
X006373Y013687D03*
X004129Y013687D03*
D16*
X001826Y019258D03*
X007003Y018865D03*
D17*
X006692Y017743D03*
X006259Y017743D03*
X005826Y017821D03*
X005393Y017743D03*
X004959Y017821D03*
X004526Y017743D03*
X004093Y017585D03*
X003660Y017743D03*
D18*
X003750Y002226D02*
X003610Y002226D01*
X003610Y002740D01*
X003750Y002740D01*
X003750Y002226D01*
X003750Y002241D02*
X003610Y002241D01*
X003610Y002256D02*
X003750Y002256D01*
X003750Y002271D02*
X003610Y002271D01*
X003610Y002286D02*
X003750Y002286D01*
X003750Y002301D02*
X003610Y002301D01*
X003610Y002316D02*
X003750Y002316D01*
X003750Y002331D02*
X003610Y002331D01*
X003610Y002346D02*
X003750Y002346D01*
X003750Y002361D02*
X003610Y002361D01*
X003610Y002376D02*
X003750Y002376D01*
X003750Y002391D02*
X003610Y002391D01*
X003610Y002406D02*
X003750Y002406D01*
X003750Y002421D02*
X003610Y002421D01*
X003610Y002436D02*
X003750Y002436D01*
X003750Y002451D02*
X003610Y002451D01*
X003610Y002466D02*
X003750Y002466D01*
X003750Y002481D02*
X003610Y002481D01*
X003610Y002496D02*
X003750Y002496D01*
X003750Y002511D02*
X003610Y002511D01*
X003610Y002526D02*
X003750Y002526D01*
X003750Y002541D02*
X003610Y002541D01*
X003610Y002556D02*
X003750Y002556D01*
X003750Y002571D02*
X003610Y002571D01*
X003610Y002586D02*
X003750Y002586D01*
X003750Y002601D02*
X003610Y002601D01*
X003610Y002616D02*
X003750Y002616D01*
X003750Y002631D02*
X003610Y002631D01*
X003610Y002646D02*
X003750Y002646D01*
X003750Y002661D02*
X003610Y002661D01*
X003610Y002676D02*
X003750Y002676D01*
X003750Y002691D02*
X003610Y002691D01*
X003610Y002706D02*
X003750Y002706D01*
X003750Y002721D02*
X003610Y002721D01*
X003610Y002736D02*
X003750Y002736D01*
X003866Y002226D02*
X004006Y002226D01*
X003866Y002226D02*
X003866Y002740D01*
X004006Y002740D01*
X004006Y002226D01*
X004006Y002241D02*
X003866Y002241D01*
X003866Y002256D02*
X004006Y002256D01*
X004006Y002271D02*
X003866Y002271D01*
X003866Y002286D02*
X004006Y002286D01*
X004006Y002301D02*
X003866Y002301D01*
X003866Y002316D02*
X004006Y002316D01*
X004006Y002331D02*
X003866Y002331D01*
X003866Y002346D02*
X004006Y002346D01*
X004006Y002361D02*
X003866Y002361D01*
X003866Y002376D02*
X004006Y002376D01*
X004006Y002391D02*
X003866Y002391D01*
X003866Y002406D02*
X004006Y002406D01*
X004006Y002421D02*
X003866Y002421D01*
X003866Y002436D02*
X004006Y002436D01*
X004006Y002451D02*
X003866Y002451D01*
X003866Y002466D02*
X004006Y002466D01*
X004006Y002481D02*
X003866Y002481D01*
X003866Y002496D02*
X004006Y002496D01*
X004006Y002511D02*
X003866Y002511D01*
X003866Y002526D02*
X004006Y002526D01*
X004006Y002541D02*
X003866Y002541D01*
X003866Y002556D02*
X004006Y002556D01*
X004006Y002571D02*
X003866Y002571D01*
X003866Y002586D02*
X004006Y002586D01*
X004006Y002601D02*
X003866Y002601D01*
X003866Y002616D02*
X004006Y002616D01*
X004006Y002631D02*
X003866Y002631D01*
X003866Y002646D02*
X004006Y002646D01*
X004006Y002661D02*
X003866Y002661D01*
X003866Y002676D02*
X004006Y002676D01*
X004006Y002691D02*
X003866Y002691D01*
X003866Y002706D02*
X004006Y002706D01*
X004006Y002721D02*
X003866Y002721D01*
X003866Y002736D02*
X004006Y002736D01*
X004122Y002226D02*
X004262Y002226D01*
X004122Y002226D02*
X004122Y002740D01*
X004262Y002740D01*
X004262Y002226D01*
X004262Y002241D02*
X004122Y002241D01*
X004122Y002256D02*
X004262Y002256D01*
X004262Y002271D02*
X004122Y002271D01*
X004122Y002286D02*
X004262Y002286D01*
X004262Y002301D02*
X004122Y002301D01*
X004122Y002316D02*
X004262Y002316D01*
X004262Y002331D02*
X004122Y002331D01*
X004122Y002346D02*
X004262Y002346D01*
X004262Y002361D02*
X004122Y002361D01*
X004122Y002376D02*
X004262Y002376D01*
X004262Y002391D02*
X004122Y002391D01*
X004122Y002406D02*
X004262Y002406D01*
X004262Y002421D02*
X004122Y002421D01*
X004122Y002436D02*
X004262Y002436D01*
X004262Y002451D02*
X004122Y002451D01*
X004122Y002466D02*
X004262Y002466D01*
X004262Y002481D02*
X004122Y002481D01*
X004122Y002496D02*
X004262Y002496D01*
X004262Y002511D02*
X004122Y002511D01*
X004122Y002526D02*
X004262Y002526D01*
X004262Y002541D02*
X004122Y002541D01*
X004122Y002556D02*
X004262Y002556D01*
X004262Y002571D02*
X004122Y002571D01*
X004122Y002586D02*
X004262Y002586D01*
X004262Y002601D02*
X004122Y002601D01*
X004122Y002616D02*
X004262Y002616D01*
X004262Y002631D02*
X004122Y002631D01*
X004122Y002646D02*
X004262Y002646D01*
X004262Y002661D02*
X004122Y002661D01*
X004122Y002676D02*
X004262Y002676D01*
X004262Y002691D02*
X004122Y002691D01*
X004122Y002706D02*
X004262Y002706D01*
X004262Y002721D02*
X004122Y002721D01*
X004122Y002736D02*
X004262Y002736D01*
X003494Y002226D02*
X003354Y002226D01*
X003354Y002740D01*
X003494Y002740D01*
X003494Y002226D01*
X003494Y002241D02*
X003354Y002241D01*
X003354Y002256D02*
X003494Y002256D01*
X003494Y002271D02*
X003354Y002271D01*
X003354Y002286D02*
X003494Y002286D01*
X003494Y002301D02*
X003354Y002301D01*
X003354Y002316D02*
X003494Y002316D01*
X003494Y002331D02*
X003354Y002331D01*
X003354Y002346D02*
X003494Y002346D01*
X003494Y002361D02*
X003354Y002361D01*
X003354Y002376D02*
X003494Y002376D01*
X003494Y002391D02*
X003354Y002391D01*
X003354Y002406D02*
X003494Y002406D01*
X003494Y002421D02*
X003354Y002421D01*
X003354Y002436D02*
X003494Y002436D01*
X003494Y002451D02*
X003354Y002451D01*
X003354Y002466D02*
X003494Y002466D01*
X003494Y002481D02*
X003354Y002481D01*
X003354Y002496D02*
X003494Y002496D01*
X003494Y002511D02*
X003354Y002511D01*
X003354Y002526D02*
X003494Y002526D01*
X003494Y002541D02*
X003354Y002541D01*
X003354Y002556D02*
X003494Y002556D01*
X003494Y002571D02*
X003354Y002571D01*
X003354Y002586D02*
X003494Y002586D01*
X003494Y002601D02*
X003354Y002601D01*
X003354Y002616D02*
X003494Y002616D01*
X003494Y002631D02*
X003354Y002631D01*
X003354Y002646D02*
X003494Y002646D01*
X003494Y002661D02*
X003354Y002661D01*
X003354Y002676D02*
X003494Y002676D01*
X003494Y002691D02*
X003354Y002691D01*
X003354Y002706D02*
X003494Y002706D01*
X003494Y002721D02*
X003354Y002721D01*
X003354Y002736D02*
X003494Y002736D01*
X003238Y002226D02*
X003098Y002226D01*
X003098Y002740D01*
X003238Y002740D01*
X003238Y002226D01*
X003238Y002241D02*
X003098Y002241D01*
X003098Y002256D02*
X003238Y002256D01*
X003238Y002271D02*
X003098Y002271D01*
X003098Y002286D02*
X003238Y002286D01*
X003238Y002301D02*
X003098Y002301D01*
X003098Y002316D02*
X003238Y002316D01*
X003238Y002331D02*
X003098Y002331D01*
X003098Y002346D02*
X003238Y002346D01*
X003238Y002361D02*
X003098Y002361D01*
X003098Y002376D02*
X003238Y002376D01*
X003238Y002391D02*
X003098Y002391D01*
X003098Y002406D02*
X003238Y002406D01*
X003238Y002421D02*
X003098Y002421D01*
X003098Y002436D02*
X003238Y002436D01*
X003238Y002451D02*
X003098Y002451D01*
X003098Y002466D02*
X003238Y002466D01*
X003238Y002481D02*
X003098Y002481D01*
X003098Y002496D02*
X003238Y002496D01*
X003238Y002511D02*
X003098Y002511D01*
X003098Y002526D02*
X003238Y002526D01*
X003238Y002541D02*
X003098Y002541D01*
X003098Y002556D02*
X003238Y002556D01*
X003238Y002571D02*
X003098Y002571D01*
X003098Y002586D02*
X003238Y002586D01*
X003238Y002601D02*
X003098Y002601D01*
X003098Y002616D02*
X003238Y002616D01*
X003238Y002631D02*
X003098Y002631D01*
X003098Y002646D02*
X003238Y002646D01*
X003238Y002661D02*
X003098Y002661D01*
X003098Y002676D02*
X003238Y002676D01*
X003238Y002691D02*
X003098Y002691D01*
X003098Y002706D02*
X003238Y002706D01*
X003238Y002721D02*
X003098Y002721D01*
X003098Y002736D02*
X003238Y002736D01*
D19*
X003208Y001430D03*
X002184Y001430D03*
X004152Y001430D03*
X005176Y001430D03*
D20*
X004900Y002434D03*
X002459Y002434D03*
D21*
X004598Y006348D03*
X004598Y007112D03*
X005362Y007112D03*
X005362Y006348D03*
D22*
X005161Y005455D03*
X004649Y005455D03*
X004649Y004555D03*
X005161Y004555D03*
X006024Y004555D03*
X006536Y004555D03*
X007174Y005130D03*
X007686Y005130D03*
X007649Y006880D03*
X008161Y006880D03*
X008186Y009380D03*
X008186Y009805D03*
X008186Y010230D03*
X007674Y010230D03*
X007674Y009805D03*
X007674Y009380D03*
X006686Y008230D03*
X006686Y007430D03*
X006174Y007430D03*
X006174Y008230D03*
X002736Y008905D03*
X002736Y009330D03*
X002736Y009755D03*
X002224Y009755D03*
X002224Y009330D03*
X002224Y008905D03*
X002224Y011405D03*
X002736Y011405D03*
X008174Y015380D03*
X008174Y016130D03*
X008686Y016130D03*
X008686Y015380D03*
D23*
X002913Y010915D03*
X002913Y010245D03*
X002047Y010245D03*
X002047Y010915D03*
D24*
X007930Y008829D03*
X007930Y007431D03*
D25*
X008430Y016961D03*
X008430Y018299D03*
D26*
X008225Y012130D03*
X008225Y011630D03*
X008225Y011130D03*
X008225Y010630D03*
X007635Y010630D03*
X007635Y011130D03*
X007635Y011630D03*
X007635Y012130D03*
X007725Y005630D03*
X007135Y005630D03*
X005200Y005005D03*
X004610Y005005D03*
D27*
X003652Y003945D03*
X003337Y003945D03*
X003022Y003945D03*
X002708Y003945D03*
X002708Y003315D03*
X003022Y003315D03*
X003337Y003315D03*
X003652Y003315D03*
X007458Y012815D03*
X007458Y013445D03*
X007772Y013445D03*
X008087Y013445D03*
X008402Y013445D03*
X008402Y012815D03*
X008087Y012815D03*
X007772Y012815D03*
D28*
X005442Y004004D03*
X005442Y003256D03*
X004418Y003256D03*
X004418Y003630D03*
X004418Y004004D03*
D29*
X002180Y003886D03*
X002180Y003374D03*
D30*
X008280Y005130D02*
X008580Y005130D01*
D31*
X008630Y005130D03*
X008230Y005130D03*
D32*
X007336Y003637D02*
X007080Y003630D01*
X005930Y003630D01*
X005180Y003630D01*
X004806Y003256D01*
X004806Y003254D01*
X005180Y002880D01*
X005930Y002880D01*
X006054Y003256D02*
X005442Y003256D01*
X006054Y003256D02*
X006430Y002880D01*
X004806Y003256D02*
X004418Y003256D01*
X003168Y002717D02*
X003168Y002483D01*
X003168Y002717D02*
X002930Y002955D01*
X001905Y002955D01*
X001755Y002805D01*
X002224Y008905D02*
X002224Y009330D01*
X002736Y009755D02*
X002736Y010068D01*
X002913Y010245D01*
X002949Y010282D01*
X003822Y010282D01*
X005082Y010282D01*
X005180Y010380D01*
X005680Y010880D01*
X005680Y010980D01*
X005180Y010380D02*
X005475Y010085D01*
X005475Y009022D01*
X005278Y009022D02*
X005278Y008492D01*
X005534Y008361D01*
X005534Y008105D02*
X006155Y008105D01*
X006180Y008130D01*
X006174Y008230D01*
X006174Y007430D02*
X005584Y007430D01*
X005534Y007380D01*
X005534Y007284D01*
X005362Y007112D01*
X005534Y007380D02*
X005534Y007849D01*
X005082Y008492D02*
X004826Y008361D01*
X005082Y008492D02*
X005082Y009022D01*
X004885Y009022D02*
X004885Y010085D01*
X005180Y010380D01*
X005672Y009888D01*
X005672Y009022D01*
X006066Y009494D02*
X005180Y010380D01*
X006066Y009494D02*
X006538Y009494D01*
X006744Y009494D01*
X006980Y009230D01*
X007005Y009505D02*
X007230Y009505D01*
X007280Y009455D01*
X007280Y009530D01*
X007530Y009780D01*
X007630Y009780D01*
X007674Y009805D01*
X007405Y010130D02*
X007505Y010230D01*
X007674Y010230D01*
X007405Y010130D02*
X007405Y009930D01*
X007180Y009705D01*
X007080Y009705D01*
X006897Y009888D01*
X006538Y009888D01*
X006538Y009691D02*
X006819Y009691D01*
X007005Y009505D01*
X008186Y009380D02*
X008186Y009805D01*
X008186Y010230D01*
X002224Y011092D02*
X002047Y010915D01*
X002224Y011092D02*
X002224Y011405D01*
D33*
X001610Y002175D02*
X001610Y001060D01*
X001680Y001060D01*
X001680Y001400D01*
X002154Y001400D01*
X002154Y001460D01*
X002154Y001934D01*
X001793Y001934D01*
X001760Y001925D01*
X001730Y001908D01*
X001706Y001884D01*
X001689Y001854D01*
X001680Y001821D01*
X001680Y001460D01*
X002154Y001460D01*
X002214Y001460D01*
X002688Y001460D01*
X002688Y001821D01*
X002679Y001854D01*
X002662Y001884D01*
X002638Y001908D01*
X002608Y001925D01*
X002575Y001934D01*
X002214Y001934D01*
X002214Y001460D01*
X002214Y001400D01*
X002688Y001400D01*
X002688Y001060D01*
X002703Y001060D01*
X002703Y001400D01*
X003177Y001400D01*
X003177Y001460D01*
X002703Y001460D01*
X002703Y001821D01*
X002712Y001854D01*
X002729Y001884D01*
X002754Y001908D01*
X002783Y001925D01*
X002816Y001934D01*
X003178Y001934D01*
X003178Y001460D01*
X003237Y001460D01*
X003237Y001934D01*
X003599Y001934D01*
X003632Y001925D01*
X003661Y001908D01*
X003680Y001889D01*
X003699Y001908D01*
X003728Y001925D01*
X003761Y001934D01*
X004122Y001934D01*
X004122Y001460D01*
X004122Y001400D01*
X003648Y001400D01*
X003238Y001400D01*
X003238Y001460D01*
X004122Y001460D01*
X004182Y001460D01*
X004182Y001934D01*
X004544Y001934D01*
X004577Y001925D01*
X004606Y001908D01*
X004630Y001884D01*
X004648Y001854D01*
X004656Y001821D01*
X004656Y001460D01*
X004182Y001460D01*
X004182Y001400D01*
X004656Y001400D01*
X004656Y001060D01*
X004672Y001060D01*
X004672Y001400D01*
X005146Y001400D01*
X005146Y001460D01*
X004672Y001460D01*
X004672Y001821D01*
X004681Y001854D01*
X004698Y001884D01*
X004722Y001908D01*
X004752Y001925D01*
X004785Y001934D01*
X005146Y001934D01*
X005146Y001460D01*
X005206Y001460D01*
X005206Y001934D01*
X005567Y001934D01*
X005600Y001925D01*
X005630Y001908D01*
X005654Y001884D01*
X005671Y001854D01*
X005680Y001821D01*
X005680Y001460D01*
X005206Y001460D01*
X005206Y001400D01*
X005680Y001400D01*
X005680Y001060D01*
X005946Y001060D01*
X005946Y002313D01*
X006023Y002389D01*
X006760Y002389D01*
X006836Y002313D01*
X006836Y001060D01*
X008624Y001060D01*
X008624Y002313D01*
X008700Y002389D01*
X009250Y002389D01*
X009250Y004443D01*
X009183Y004415D01*
X009077Y004415D01*
X008980Y004455D01*
X008905Y004530D01*
X008865Y004627D01*
X008865Y004719D01*
X008821Y004762D01*
X008809Y004750D01*
X008451Y004750D01*
X008430Y004771D01*
X008409Y004750D01*
X008051Y004750D01*
X007975Y004826D01*
X007975Y004970D01*
X007954Y004970D01*
X007954Y004899D01*
X007877Y004823D01*
X007494Y004823D01*
X007430Y004887D01*
X007366Y004823D01*
X006982Y004823D01*
X006906Y004899D01*
X006906Y005360D01*
X006847Y005419D01*
X006847Y005841D01*
X006923Y005917D01*
X007346Y005917D01*
X007422Y005841D01*
X007422Y005419D01*
X007403Y005400D01*
X007430Y005373D01*
X007459Y005402D01*
X007447Y005422D01*
X007438Y005455D01*
X007438Y005600D01*
X007695Y005600D01*
X007695Y005660D01*
X007438Y005660D01*
X007438Y005805D01*
X007447Y005838D01*
X007464Y005867D01*
X007488Y005892D01*
X007518Y005909D01*
X007551Y005917D01*
X007695Y005917D01*
X007695Y005660D01*
X007755Y005660D01*
X007755Y005917D01*
X007900Y005917D01*
X007933Y005909D01*
X007963Y005892D01*
X007987Y005867D01*
X008004Y005838D01*
X008013Y005805D01*
X008013Y005660D01*
X007755Y005660D01*
X007755Y005600D01*
X008013Y005600D01*
X008013Y005472D01*
X008051Y005510D01*
X008409Y005510D01*
X008430Y005489D01*
X008451Y005510D01*
X008809Y005510D01*
X008885Y005434D01*
X008885Y005151D01*
X009091Y004945D01*
X009183Y004945D01*
X009250Y004917D01*
X009250Y019700D01*
X002212Y019700D01*
X002222Y019683D01*
X002231Y019649D01*
X002231Y019288D01*
X001856Y019288D01*
X001856Y019228D01*
X002231Y019228D01*
X002231Y018867D01*
X002222Y018834D01*
X002205Y018805D01*
X002181Y018780D01*
X002151Y018763D01*
X002118Y018754D01*
X001856Y018754D01*
X001856Y019228D01*
X001796Y019228D01*
X001796Y018754D01*
X001610Y018754D01*
X001610Y010042D01*
X001641Y010055D01*
X001641Y010535D01*
X001686Y010580D01*
X001667Y010599D01*
X001650Y010628D01*
X001641Y010661D01*
X001641Y010885D01*
X002017Y010885D01*
X002017Y010945D01*
X002017Y011118D01*
X002036Y011107D01*
X002069Y011098D01*
X002077Y011098D01*
X002077Y010945D01*
X002017Y010945D01*
X001641Y010945D01*
X001641Y011168D01*
X001650Y011201D01*
X001667Y011231D01*
X001691Y011255D01*
X001721Y011272D01*
X001754Y011281D01*
X001956Y011281D01*
X001956Y011375D01*
X002194Y011375D01*
X002194Y011435D01*
X001956Y011435D01*
X001956Y011599D01*
X001960Y011615D01*
X001877Y011615D01*
X001780Y011655D01*
X001705Y011730D01*
X001665Y011827D01*
X001665Y011933D01*
X001705Y012030D01*
X001780Y012105D01*
X001877Y012145D01*
X001983Y012145D01*
X002080Y012105D01*
X002155Y012030D01*
X002180Y011969D01*
X002205Y012030D01*
X002280Y012105D01*
X002377Y012145D01*
X002483Y012145D01*
X002580Y012105D01*
X002655Y012030D01*
X002680Y011969D01*
X002705Y012030D01*
X002780Y012105D01*
X002877Y012145D01*
X002983Y012145D01*
X003080Y012105D01*
X003155Y012030D01*
X003190Y011945D01*
X003190Y012008D01*
X003230Y012105D01*
X003305Y012180D01*
X003402Y012220D01*
X003508Y012220D01*
X003565Y012196D01*
X003565Y012283D01*
X003605Y012380D01*
X003680Y012455D01*
X003720Y012471D01*
X003720Y012865D01*
X003655Y012930D01*
X003615Y013027D01*
X003615Y013133D01*
X003655Y013230D01*
X003719Y013294D01*
X003695Y013308D01*
X003670Y013332D01*
X003653Y013362D01*
X003644Y013395D01*
X003644Y013657D01*
X004099Y013657D01*
X004159Y013657D01*
X004159Y013282D01*
X004099Y013282D01*
X004053Y013282D01*
X004105Y013230D01*
X004145Y013133D01*
X004145Y013027D01*
X004105Y012930D01*
X004040Y012865D01*
X004040Y012859D01*
X004127Y012895D01*
X004165Y012895D01*
X004165Y012933D01*
X004205Y013030D01*
X004280Y013105D01*
X004348Y013133D01*
X004340Y013152D01*
X004340Y013258D01*
X004350Y013282D01*
X004159Y013282D01*
X004159Y013341D02*
X004099Y013341D01*
X004099Y013399D02*
X004159Y013399D01*
X004159Y013458D02*
X004099Y013458D01*
X004099Y013516D02*
X004159Y013516D01*
X004159Y013575D02*
X004099Y013575D01*
X004099Y013633D02*
X004159Y013633D01*
X004159Y013657D02*
X004159Y013717D01*
X004613Y013717D01*
X004613Y013980D01*
X004604Y014013D01*
X004587Y014043D01*
X004563Y014067D01*
X004533Y014084D01*
X004500Y014093D01*
X004159Y014093D01*
X004159Y013717D01*
X004099Y013717D01*
X004099Y013657D01*
X004099Y013282D01*
X004107Y013224D02*
X004340Y013224D01*
X004340Y013165D02*
X004132Y013165D01*
X004145Y013107D02*
X004284Y013107D01*
X004223Y013048D02*
X004145Y013048D01*
X004129Y012990D02*
X004188Y012990D01*
X004165Y012931D02*
X004105Y012931D01*
X004073Y012873D02*
X004047Y012873D01*
X004180Y012630D02*
X004491Y012319D01*
X004491Y011738D01*
X004688Y011738D02*
X004688Y012622D01*
X004430Y012880D01*
X004605Y013080D02*
X004830Y012855D01*
X004830Y011930D01*
X004885Y011875D01*
X004885Y011738D01*
X005082Y011738D02*
X005082Y012132D01*
X005105Y012180D01*
X005330Y011930D02*
X005278Y011878D01*
X005278Y011738D01*
X005330Y011930D02*
X005330Y012405D01*
X005130Y012605D01*
X005475Y012250D02*
X005730Y012505D01*
X005730Y016671D01*
X005725Y016675D01*
X006259Y017209D01*
X006259Y017743D01*
X006104Y018168D02*
X006087Y018196D01*
X007965Y018196D01*
X007965Y018138D02*
X006933Y018138D01*
X006903Y018168D02*
X006480Y018168D01*
X006475Y018163D01*
X006470Y018168D01*
X006104Y018168D01*
X006087Y018196D02*
X006063Y018221D01*
X006033Y018238D01*
X006000Y018247D01*
X005856Y018247D01*
X005856Y017851D01*
X005796Y017851D01*
X005796Y018247D01*
X005662Y018247D01*
X005695Y018327D01*
X005695Y018433D01*
X005655Y018530D01*
X005580Y018605D01*
X005483Y018645D01*
X005377Y018645D01*
X005280Y018605D01*
X005205Y018530D01*
X005165Y018433D01*
X005165Y018327D01*
X005205Y018230D01*
X005233Y018203D01*
X005233Y018185D01*
X005171Y018247D01*
X004748Y018247D01*
X004686Y018185D01*
X004686Y018307D01*
X004695Y018327D01*
X004695Y018433D01*
X004655Y018530D01*
X004580Y018605D01*
X004483Y018645D01*
X004377Y018645D01*
X004280Y018605D01*
X004205Y018530D01*
X004165Y018433D01*
X004165Y018327D01*
X004205Y018230D01*
X004280Y018155D01*
X004296Y018149D01*
X004239Y018092D01*
X004239Y018010D01*
X003948Y018010D01*
X003948Y018092D01*
X003872Y018168D01*
X003449Y018168D01*
X003373Y018092D01*
X003373Y017393D01*
X003449Y017317D01*
X003806Y017317D01*
X003806Y017236D01*
X003882Y017160D01*
X003933Y017160D01*
X003933Y017095D01*
X003869Y017030D01*
X003828Y016933D01*
X003828Y016827D01*
X003869Y016730D01*
X003933Y016665D01*
X003933Y016650D01*
X004027Y016557D01*
X004189Y016395D01*
X004127Y016395D01*
X004030Y016355D01*
X003955Y016280D01*
X003915Y016183D01*
X003915Y016077D01*
X003955Y015980D01*
X004030Y015905D01*
X004127Y015865D01*
X004233Y015865D01*
X004330Y015905D01*
X004405Y015980D01*
X004445Y016077D01*
X004445Y016139D01*
X004795Y015789D01*
X004795Y013390D01*
X004755Y013430D01*
X004658Y013470D01*
X004613Y013470D01*
X004613Y013657D01*
X004159Y013657D01*
X004159Y013692D02*
X004795Y013692D01*
X004795Y013750D02*
X004613Y013750D01*
X004613Y013809D02*
X004795Y013809D01*
X004795Y013867D02*
X004613Y013867D01*
X004613Y013926D02*
X004795Y013926D01*
X004795Y013984D02*
X004612Y013984D01*
X004587Y014043D02*
X004795Y014043D01*
X004795Y014101D02*
X001610Y014101D01*
X001610Y014043D02*
X003670Y014043D01*
X003653Y014013D01*
X003644Y013980D01*
X003644Y013717D01*
X004099Y013717D01*
X004099Y014093D01*
X003757Y014093D01*
X003724Y014084D01*
X003695Y014067D01*
X003670Y014043D01*
X003645Y013984D02*
X001610Y013984D01*
X001610Y013926D02*
X003644Y013926D01*
X003644Y013867D02*
X001610Y013867D01*
X001610Y013809D02*
X003644Y013809D01*
X003644Y013750D02*
X001610Y013750D01*
X001610Y013692D02*
X004099Y013692D01*
X004099Y013750D02*
X004159Y013750D01*
X004159Y013809D02*
X004099Y013809D01*
X004099Y013867D02*
X004159Y013867D01*
X004159Y013926D02*
X004099Y013926D01*
X004099Y013984D02*
X004159Y013984D01*
X004159Y014043D02*
X004099Y014043D01*
X003644Y013633D02*
X001610Y013633D01*
X001610Y013575D02*
X003644Y013575D01*
X003644Y013516D02*
X001610Y013516D01*
X001610Y013458D02*
X003644Y013458D01*
X003644Y013399D02*
X001610Y013399D01*
X001610Y013341D02*
X003666Y013341D01*
X003707Y013282D02*
X001610Y013282D01*
X001610Y013224D02*
X003653Y013224D01*
X003628Y013165D02*
X001610Y013165D01*
X001610Y013107D02*
X003615Y013107D01*
X003615Y013048D02*
X001610Y013048D01*
X001610Y012990D02*
X003631Y012990D01*
X003655Y012931D02*
X001610Y012931D01*
X001610Y012873D02*
X003713Y012873D01*
X003720Y012814D02*
X001610Y012814D01*
X001610Y012756D02*
X003720Y012756D01*
X003720Y012697D02*
X001610Y012697D01*
X001610Y012639D02*
X003720Y012639D01*
X003720Y012580D02*
X001610Y012580D01*
X001610Y012522D02*
X003720Y012522D01*
X003700Y012463D02*
X001610Y012463D01*
X001610Y012405D02*
X003630Y012405D01*
X003591Y012346D02*
X001610Y012346D01*
X001610Y012288D02*
X003567Y012288D01*
X003565Y012229D02*
X001610Y012229D01*
X001610Y012171D02*
X003296Y012171D01*
X003237Y012112D02*
X003062Y012112D01*
X003131Y012054D02*
X003209Y012054D01*
X003190Y011995D02*
X003169Y011995D01*
X002930Y011880D02*
X002930Y011755D01*
X003616Y011069D01*
X003822Y011069D01*
X003822Y011266D02*
X003619Y011266D01*
X003455Y011430D01*
X003455Y011955D01*
X003755Y011780D02*
X003822Y011713D01*
X003822Y011463D01*
X004097Y011738D02*
X004097Y011963D01*
X003830Y012230D01*
X003930Y012130D01*
X004294Y012116D02*
X003880Y012530D01*
X003880Y013080D01*
X004294Y012116D02*
X004294Y011738D01*
X003822Y010872D02*
X003463Y010872D01*
X003405Y010930D01*
X003280Y010705D02*
X003123Y010705D01*
X002913Y010915D01*
X002736Y011092D01*
X002736Y011405D01*
X002476Y011166D02*
X002507Y011135D01*
X002507Y010740D01*
X002452Y010740D01*
X002452Y010885D01*
X002077Y010885D01*
X002077Y010945D01*
X002452Y010945D01*
X002452Y011135D01*
X002466Y011148D01*
X002476Y011166D01*
X002452Y011118D02*
X002507Y011118D01*
X002507Y011059D02*
X002452Y011059D01*
X002452Y011001D02*
X002507Y011001D01*
X002507Y010942D02*
X002077Y010942D01*
X002077Y010885D02*
X002017Y010885D01*
X002017Y010612D01*
X002077Y010612D01*
X002077Y010885D01*
X002077Y010884D02*
X002017Y010884D01*
X002017Y010942D02*
X001610Y010942D01*
X001610Y010884D02*
X001641Y010884D01*
X001641Y010825D02*
X001610Y010825D01*
X001610Y010767D02*
X001641Y010767D01*
X001641Y010708D02*
X001610Y010708D01*
X001610Y010650D02*
X001644Y010650D01*
X001675Y010591D02*
X001610Y010591D01*
X001610Y010533D02*
X001641Y010533D01*
X001641Y010474D02*
X001610Y010474D01*
X001610Y010416D02*
X001641Y010416D01*
X001641Y010357D02*
X001610Y010357D01*
X001610Y010299D02*
X001641Y010299D01*
X001641Y010240D02*
X001610Y010240D01*
X001610Y010182D02*
X001641Y010182D01*
X001641Y010123D02*
X001610Y010123D01*
X001610Y010065D02*
X001641Y010065D01*
X001730Y009805D02*
X001680Y009755D01*
X001680Y007880D01*
X003022Y006537D01*
X003022Y003945D01*
X002930Y003630D02*
X002436Y003630D01*
X002180Y003374D01*
X002180Y003886D02*
X002180Y004230D01*
X002030Y004380D01*
X002930Y003630D02*
X003022Y003537D01*
X003022Y003315D01*
X003022Y003187D01*
X003305Y002905D01*
X003355Y002905D01*
X003424Y002836D01*
X003424Y002483D01*
X003680Y002483D02*
X003680Y002830D01*
X003580Y002930D01*
X003530Y002930D01*
X003337Y003123D01*
X003337Y003315D01*
X003495Y003617D02*
X003490Y003622D01*
X003185Y003622D01*
X003180Y003617D01*
X003175Y003622D01*
X003164Y003622D01*
X003148Y003638D01*
X003175Y003638D01*
X003180Y003643D01*
X003185Y003638D01*
X003490Y003638D01*
X003495Y003643D01*
X003500Y003638D01*
X003805Y003638D01*
X003881Y003714D01*
X003881Y004176D01*
X003805Y004252D01*
X003500Y004252D01*
X003497Y004249D01*
X003497Y006539D01*
X003496Y006540D01*
X003508Y006540D01*
X003605Y006580D01*
X003680Y006655D01*
X003720Y006752D01*
X003720Y006858D01*
X003680Y006955D01*
X003622Y007013D01*
X003677Y006990D01*
X003783Y006990D01*
X003880Y007030D01*
X003955Y007105D01*
X003995Y007202D01*
X003995Y007308D01*
X003955Y007405D01*
X003894Y007465D01*
X003920Y007527D01*
X003920Y007633D01*
X003905Y007670D01*
X003930Y007680D01*
X004005Y007755D01*
X004045Y007852D01*
X004045Y007958D01*
X004026Y008004D01*
X004030Y008005D01*
X004105Y008080D01*
X004145Y008177D01*
X004145Y008215D01*
X004233Y008215D01*
X004330Y008255D01*
X004405Y008330D01*
X004445Y008427D01*
X004445Y008505D01*
X004455Y008480D01*
X004499Y008436D01*
X004499Y008238D01*
X004510Y008227D01*
X004508Y008224D01*
X004499Y008191D01*
X004499Y008109D01*
X004821Y008109D01*
X004821Y008101D01*
X004499Y008101D01*
X004499Y008019D01*
X004508Y007986D01*
X004510Y007983D01*
X004499Y007972D01*
X004499Y007726D01*
X004575Y007650D01*
X005076Y007650D01*
X005152Y007726D01*
X005152Y007972D01*
X005142Y007983D01*
X005144Y007986D01*
X005152Y008019D01*
X005152Y008101D01*
X004830Y008101D01*
X004830Y008109D01*
X005152Y008109D01*
X005152Y008191D01*
X005144Y008224D01*
X005142Y008227D01*
X005152Y008238D01*
X005152Y008302D01*
X005160Y008302D01*
X005180Y008322D01*
X005200Y008302D01*
X005207Y008302D01*
X005207Y008238D01*
X005213Y008233D01*
X005207Y008228D01*
X005207Y007982D01*
X005213Y007977D01*
X005207Y007972D01*
X005207Y007726D01*
X005284Y007650D01*
X005344Y007650D01*
X005344Y007545D01*
X005005Y007545D01*
X004980Y007520D01*
X004955Y007545D01*
X004241Y007545D01*
X004165Y007469D01*
X004165Y006755D01*
X004190Y006730D01*
X004165Y006705D01*
X004165Y005991D01*
X004241Y005915D01*
X004955Y005915D01*
X004980Y005940D01*
X005005Y005915D01*
X005719Y005915D01*
X005795Y005991D01*
X005795Y006705D01*
X005770Y006730D01*
X005795Y006755D01*
X005795Y007240D01*
X005906Y007240D01*
X005906Y007199D01*
X005982Y007123D01*
X006366Y007123D01*
X006434Y007191D01*
X006444Y007173D01*
X006468Y007149D01*
X006498Y007132D01*
X006531Y007123D01*
X006656Y007123D01*
X006656Y007400D01*
X006716Y007400D01*
X006716Y007460D01*
X006954Y007460D01*
X006954Y007624D01*
X006945Y007657D01*
X006928Y007687D01*
X006903Y007711D01*
X006874Y007728D01*
X006841Y007737D01*
X006716Y007737D01*
X006716Y007460D01*
X006656Y007460D01*
X006656Y007737D01*
X006531Y007737D01*
X006498Y007728D01*
X006468Y007711D01*
X006444Y007687D01*
X006434Y007669D01*
X006366Y007737D01*
X005982Y007737D01*
X005906Y007661D01*
X005906Y007620D01*
X005724Y007620D01*
X005724Y007650D01*
X005785Y007650D01*
X005861Y007726D01*
X005861Y007915D01*
X006234Y007915D01*
X006241Y007923D01*
X006366Y007923D01*
X006434Y007991D01*
X006444Y007973D01*
X006468Y007949D01*
X006498Y007932D01*
X006531Y007923D01*
X006656Y007923D01*
X006656Y008200D01*
X006716Y008200D01*
X006716Y008260D01*
X006954Y008260D01*
X006954Y008424D01*
X006945Y008457D01*
X006928Y008487D01*
X006903Y008511D01*
X006874Y008528D01*
X006841Y008537D01*
X006716Y008537D01*
X006716Y008260D01*
X006656Y008260D01*
X006656Y008431D01*
X006680Y008455D01*
X006720Y008552D01*
X006720Y008658D01*
X006694Y008720D01*
X006864Y008720D01*
X007270Y008314D01*
X007270Y007719D01*
X007257Y007693D01*
X007270Y007655D01*
X007270Y007615D01*
X007290Y007595D01*
X007299Y007568D01*
X007335Y007550D01*
X007364Y007521D01*
X007367Y007521D01*
X007367Y007121D01*
X007388Y007100D01*
X007381Y007074D01*
X007381Y006910D01*
X007619Y006910D01*
X007619Y006850D01*
X007381Y006850D01*
X007381Y006686D01*
X007390Y006653D01*
X007407Y006623D01*
X007431Y006599D01*
X007461Y006582D01*
X007494Y006573D01*
X007619Y006573D01*
X007619Y006850D01*
X007679Y006850D01*
X007679Y006573D01*
X007804Y006573D01*
X007837Y006582D01*
X007867Y006599D01*
X007891Y006623D01*
X007901Y006641D01*
X007969Y006573D01*
X008352Y006573D01*
X008429Y006649D01*
X008429Y007057D01*
X008493Y007121D01*
X008493Y007629D01*
X008527Y007615D01*
X008633Y007615D01*
X008730Y007655D01*
X008805Y007730D01*
X008845Y007827D01*
X008845Y007933D01*
X008805Y008030D01*
X008730Y008105D01*
X008633Y008145D01*
X008527Y008145D01*
X008430Y008105D01*
X008355Y008030D01*
X008315Y007933D01*
X008315Y007827D01*
X008319Y007817D01*
X007590Y007817D01*
X007590Y008443D01*
X008417Y008443D01*
X008493Y008519D01*
X008493Y008650D01*
X008577Y008615D01*
X008683Y008615D01*
X008780Y008655D01*
X008855Y008730D01*
X008895Y008827D01*
X008895Y008933D01*
X008855Y009030D01*
X008780Y009105D01*
X008683Y009145D01*
X008577Y009145D01*
X008493Y009110D01*
X008493Y009139D01*
X008452Y009180D01*
X008454Y009186D01*
X008454Y009350D01*
X008216Y009350D01*
X008216Y009410D01*
X008454Y009410D01*
X008454Y009574D01*
X008449Y009593D01*
X008454Y009611D01*
X008454Y009632D01*
X008505Y009580D01*
X008602Y009540D01*
X008708Y009540D01*
X008805Y009580D01*
X008880Y009655D01*
X009250Y009655D01*
X009250Y009597D02*
X008821Y009597D01*
X008880Y009655D02*
X008920Y009752D01*
X008920Y009858D01*
X008880Y009955D01*
X008805Y010030D01*
X008708Y010070D01*
X008602Y010070D01*
X008505Y010030D01*
X008454Y009978D01*
X008454Y009999D01*
X008449Y010018D01*
X008454Y010036D01*
X008454Y010200D01*
X008216Y010200D01*
X008216Y010260D01*
X008454Y010260D01*
X008454Y010360D01*
X008513Y010419D01*
X008513Y010461D01*
X008527Y010455D01*
X008633Y010455D01*
X008730Y010495D01*
X008805Y010570D01*
X008845Y010667D01*
X008845Y010773D01*
X008833Y010802D01*
X008865Y010815D01*
X008940Y010890D01*
X008980Y010987D01*
X008980Y011093D01*
X008940Y011190D01*
X008865Y011265D01*
X008813Y011286D01*
X008840Y011314D01*
X008840Y012604D01*
X008631Y012813D01*
X008631Y013046D01*
X008555Y013122D01*
X008250Y013122D01*
X008245Y013117D01*
X008240Y013122D01*
X007935Y013122D01*
X007930Y013117D01*
X007925Y013122D01*
X007620Y013122D01*
X007615Y013117D01*
X007610Y013122D01*
X007305Y013122D01*
X007229Y013046D01*
X007229Y012584D01*
X007298Y012516D01*
X007298Y012511D01*
X007391Y012417D01*
X007407Y012401D01*
X007347Y012341D01*
X007347Y012149D01*
X006840Y011641D01*
X006840Y011790D01*
X006905Y011855D01*
X006945Y011952D01*
X006945Y012058D01*
X006905Y012155D01*
X006830Y012230D01*
X006733Y012270D01*
X006627Y012270D01*
X006530Y012230D01*
X006455Y012155D01*
X006415Y012058D01*
X006415Y011980D01*
X006414Y011982D01*
X006379Y012018D01*
X006336Y012042D01*
X006288Y012055D01*
X006263Y012055D01*
X006263Y011738D01*
X006263Y011738D01*
X006452Y011738D01*
X006452Y011652D01*
X006501Y011652D01*
X006520Y011671D01*
X006520Y011790D01*
X006455Y011855D01*
X006452Y011864D01*
X006452Y011738D01*
X006263Y011738D01*
X006263Y011738D01*
X006263Y012055D01*
X006238Y012055D01*
X006226Y012052D01*
X006226Y012175D01*
X006396Y012345D01*
X006440Y012389D01*
X006480Y012405D01*
X006555Y012480D01*
X006595Y012577D01*
X006595Y012683D01*
X006555Y012780D01*
X006480Y012855D01*
X006383Y012895D01*
X006370Y012895D01*
X006455Y012930D01*
X006530Y013005D01*
X006570Y013102D01*
X006570Y013208D01*
X006539Y013282D01*
X006744Y013282D01*
X006777Y013291D01*
X006807Y013308D01*
X006831Y013332D01*
X006848Y013362D01*
X006857Y013395D01*
X006857Y013657D01*
X006403Y013657D01*
X006403Y013717D01*
X006857Y013717D01*
X006857Y013980D01*
X006848Y014013D01*
X006831Y014043D01*
X006807Y014067D01*
X006777Y014084D01*
X006744Y014093D01*
X006403Y014093D01*
X006403Y013717D01*
X006343Y013717D01*
X006343Y014093D01*
X006015Y014093D01*
X006015Y016239D01*
X006141Y016365D01*
X006233Y016365D01*
X006330Y016405D01*
X006405Y016480D01*
X006445Y016577D01*
X006445Y016683D01*
X006405Y016780D01*
X006330Y016855D01*
X006233Y016895D01*
X006171Y016895D01*
X006220Y016944D01*
X006311Y016944D01*
X006409Y016984D01*
X006483Y017059D01*
X006524Y017156D01*
X006524Y017261D01*
X006501Y017317D01*
X006903Y017317D01*
X006979Y017393D01*
X006979Y018092D01*
X006903Y018168D01*
X006979Y018079D02*
X007981Y018079D01*
X007974Y018092D02*
X007991Y018062D01*
X008015Y018038D01*
X008045Y018021D01*
X008078Y018012D01*
X008400Y018012D01*
X008400Y018269D01*
X008460Y018269D01*
X008460Y018012D01*
X008782Y018012D01*
X008815Y018021D01*
X008844Y018038D01*
X008869Y018062D01*
X008886Y018092D01*
X008895Y018125D01*
X008895Y018269D01*
X008460Y018269D01*
X008460Y018329D01*
X008895Y018329D01*
X008895Y018474D01*
X008886Y018507D01*
X008869Y018537D01*
X008844Y018561D01*
X008815Y018578D01*
X008782Y018587D01*
X008460Y018587D01*
X008460Y018329D01*
X008400Y018329D01*
X008400Y018269D01*
X007965Y018269D01*
X007965Y018125D01*
X007974Y018092D01*
X008045Y018021D02*
X006979Y018021D01*
X006979Y017962D02*
X009250Y017962D01*
X009250Y017904D02*
X006979Y017904D01*
X006979Y017845D02*
X009250Y017845D01*
X009250Y017787D02*
X006979Y017787D01*
X006979Y017728D02*
X009250Y017728D01*
X009250Y017670D02*
X006979Y017670D01*
X006979Y017611D02*
X009250Y017611D01*
X009250Y017553D02*
X006979Y017553D01*
X006979Y017494D02*
X009250Y017494D01*
X009250Y017436D02*
X006979Y017436D01*
X006963Y017377D02*
X009250Y017377D01*
X009250Y017319D02*
X006904Y017319D01*
X007205Y017030D02*
X007165Y016933D01*
X007165Y016827D01*
X007205Y016730D01*
X007280Y016655D01*
X007377Y016615D01*
X007483Y016615D01*
X007580Y016655D01*
X007655Y016730D01*
X007695Y016827D01*
X007695Y016933D01*
X007655Y017030D01*
X007580Y017105D01*
X007483Y017145D01*
X007377Y017145D01*
X007280Y017105D01*
X007205Y017030D01*
X007204Y017026D02*
X006451Y017026D01*
X006494Y017085D02*
X007260Y017085D01*
X007373Y017143D02*
X006518Y017143D01*
X006524Y017202D02*
X007995Y017202D01*
X007965Y017172D02*
X008041Y017248D01*
X008818Y017248D01*
X008895Y017172D01*
X008895Y016749D01*
X008818Y016673D01*
X008590Y016673D01*
X008590Y016452D01*
X008605Y016437D01*
X008877Y016437D01*
X008954Y016361D01*
X008954Y015899D01*
X008877Y015823D01*
X008846Y015823D01*
X008846Y015687D01*
X008877Y015687D01*
X008954Y015611D01*
X008954Y015149D01*
X008877Y015073D01*
X008846Y015073D01*
X008846Y014690D01*
X008891Y014645D01*
X008983Y014645D01*
X009080Y014605D01*
X009155Y014530D01*
X009195Y014433D01*
X009195Y014327D01*
X009155Y014230D01*
X009080Y014155D01*
X009019Y014130D01*
X009080Y014105D01*
X009155Y014030D01*
X009195Y013933D01*
X009195Y013827D01*
X009155Y013730D01*
X009080Y013655D01*
X008983Y013615D01*
X008877Y013615D01*
X008780Y013655D01*
X008705Y013730D01*
X008665Y013827D01*
X008665Y013933D01*
X008705Y014030D01*
X008780Y014105D01*
X008841Y014130D01*
X008780Y014155D01*
X008705Y014230D01*
X008665Y014327D01*
X008665Y014419D01*
X008526Y014558D01*
X008526Y015073D01*
X008494Y015073D01*
X008426Y015141D01*
X008416Y015123D01*
X008392Y015099D01*
X008362Y015082D01*
X008329Y015073D01*
X008204Y015073D01*
X008204Y015350D01*
X008144Y015350D01*
X007906Y015350D01*
X007906Y015186D01*
X007915Y015153D01*
X007932Y015123D01*
X007956Y015099D01*
X007986Y015082D01*
X008019Y015073D01*
X008144Y015073D01*
X008144Y015350D01*
X008144Y015410D01*
X007906Y015410D01*
X007906Y015574D01*
X007915Y015607D01*
X007932Y015637D01*
X007956Y015661D01*
X007986Y015678D01*
X008019Y015687D01*
X008144Y015687D01*
X008144Y015410D01*
X008204Y015410D01*
X008204Y015687D01*
X008329Y015687D01*
X008362Y015678D01*
X008392Y015661D01*
X008416Y015637D01*
X008426Y015619D01*
X008494Y015687D01*
X008526Y015687D01*
X008526Y015823D01*
X008494Y015823D01*
X008430Y015887D01*
X008366Y015823D01*
X007982Y015823D01*
X007906Y015899D01*
X007906Y015970D01*
X007746Y015970D01*
X007590Y015814D01*
X007590Y015595D01*
X007655Y015530D01*
X007695Y015433D01*
X007695Y015327D01*
X007655Y015230D01*
X007580Y015155D01*
X007483Y015115D01*
X007377Y015115D01*
X007280Y015155D01*
X007205Y015230D01*
X007165Y015327D01*
X007165Y015433D01*
X007205Y015530D01*
X007270Y015595D01*
X007270Y015946D01*
X007364Y016040D01*
X007614Y016290D01*
X007906Y016290D01*
X007906Y016361D01*
X007982Y016437D01*
X008270Y016437D01*
X008270Y016673D01*
X008041Y016673D01*
X007965Y016749D01*
X007965Y017172D01*
X007965Y017143D02*
X007487Y017143D01*
X007600Y017085D02*
X007965Y017085D01*
X007965Y017026D02*
X007656Y017026D01*
X007681Y016968D02*
X007965Y016968D01*
X007965Y016909D02*
X007695Y016909D01*
X007695Y016851D02*
X007965Y016851D01*
X007965Y016792D02*
X007680Y016792D01*
X007656Y016734D02*
X007981Y016734D01*
X008040Y016675D02*
X007600Y016675D01*
X007486Y016617D02*
X008270Y016617D01*
X008270Y016558D02*
X006437Y016558D01*
X006445Y016617D02*
X007373Y016617D01*
X007260Y016675D02*
X006445Y016675D01*
X006424Y016734D02*
X007204Y016734D01*
X007180Y016792D02*
X006393Y016792D01*
X006334Y016851D02*
X007165Y016851D01*
X007165Y016909D02*
X006185Y016909D01*
X006180Y016630D02*
X005855Y016305D01*
X005855Y012430D01*
X005672Y012247D01*
X005672Y011738D01*
X005475Y011738D02*
X005475Y012250D01*
X005869Y012244D02*
X005869Y011738D01*
X006066Y011738D02*
X006066Y012241D01*
X006330Y012505D01*
X006330Y012605D01*
X006319Y012616D01*
X006316Y012616D01*
X006330Y012630D01*
X006521Y012814D02*
X007229Y012814D01*
X007229Y012756D02*
X006565Y012756D01*
X006589Y012697D02*
X007229Y012697D01*
X007229Y012639D02*
X006595Y012639D01*
X006595Y012580D02*
X007233Y012580D01*
X007292Y012522D02*
X006572Y012522D01*
X006538Y012463D02*
X007346Y012463D01*
X007404Y012405D02*
X006478Y012405D01*
X006397Y012346D02*
X007352Y012346D01*
X007347Y012288D02*
X006339Y012288D01*
X006280Y012229D02*
X006529Y012229D01*
X006471Y012171D02*
X006226Y012171D01*
X006226Y012112D02*
X006437Y012112D01*
X006415Y012054D02*
X006294Y012054D01*
X006263Y012054D02*
X006263Y012054D01*
X006231Y012054D02*
X006226Y012054D01*
X006263Y011995D02*
X006263Y011995D01*
X006263Y011937D02*
X006263Y011937D01*
X006263Y011878D02*
X006263Y011878D01*
X006263Y011820D02*
X006263Y011820D01*
X006263Y011761D02*
X006263Y011761D01*
X006401Y011995D02*
X006415Y011995D01*
X006452Y011820D02*
X006491Y011820D01*
X006520Y011761D02*
X006452Y011761D01*
X006452Y011703D02*
X006520Y011703D01*
X006680Y011604D02*
X006538Y011463D01*
X006546Y011455D01*
X006630Y011455D01*
X006680Y011604D02*
X006680Y012005D01*
X006831Y012229D02*
X007347Y012229D01*
X007347Y012171D02*
X006889Y012171D01*
X006922Y012112D02*
X007311Y012112D01*
X007252Y012054D02*
X006945Y012054D01*
X006945Y011995D02*
X007194Y011995D01*
X007135Y011937D02*
X006938Y011937D01*
X006914Y011878D02*
X007077Y011878D01*
X007018Y011820D02*
X006869Y011820D01*
X006840Y011761D02*
X006960Y011761D01*
X006901Y011703D02*
X006840Y011703D01*
X006840Y011644D02*
X006843Y011644D01*
X006805Y011380D02*
X007555Y012130D01*
X007635Y012130D01*
X007905Y012305D02*
X007755Y012455D01*
X007580Y012455D01*
X007458Y012577D01*
X007458Y012815D01*
X007229Y012873D02*
X006437Y012873D01*
X006456Y012931D02*
X007229Y012931D01*
X007229Y012990D02*
X006514Y012990D01*
X006547Y013048D02*
X007231Y013048D01*
X007290Y013107D02*
X006570Y013107D01*
X006570Y013165D02*
X007278Y013165D01*
X007279Y013164D02*
X007309Y013147D01*
X007342Y013138D01*
X007438Y013138D01*
X007438Y013426D01*
X007229Y013426D01*
X007229Y013251D01*
X007238Y013218D01*
X007255Y013188D01*
X007279Y013164D01*
X007236Y013224D02*
X006563Y013224D01*
X006745Y013282D02*
X007229Y013282D01*
X007229Y013341D02*
X006836Y013341D01*
X006857Y013399D02*
X007229Y013399D01*
X007229Y013464D02*
X007438Y013464D01*
X007438Y013426D01*
X007477Y013426D01*
X007477Y013464D01*
X007753Y013464D01*
X007753Y013426D01*
X007544Y013426D01*
X007477Y013426D01*
X007477Y013138D01*
X007573Y013138D01*
X007606Y013147D01*
X007615Y013152D01*
X007624Y013147D01*
X007657Y013138D01*
X007753Y013138D01*
X007753Y013426D01*
X007792Y013426D01*
X007792Y013464D01*
X008068Y013464D01*
X008068Y013426D01*
X007859Y013426D01*
X007792Y013426D01*
X007792Y013138D01*
X007888Y013138D01*
X007921Y013147D01*
X007930Y013152D01*
X007939Y013147D01*
X007972Y013138D01*
X008068Y013138D01*
X008068Y013426D01*
X008107Y013426D01*
X008107Y013464D01*
X008383Y013464D01*
X008383Y013426D01*
X008174Y013426D01*
X008107Y013426D01*
X008107Y013138D01*
X008203Y013138D01*
X008236Y013147D01*
X008245Y013152D01*
X008254Y013147D01*
X008287Y013138D01*
X008383Y013138D01*
X008383Y013426D01*
X008422Y013426D01*
X008422Y013464D01*
X008631Y013464D01*
X008631Y013639D01*
X008622Y013672D01*
X008605Y013702D01*
X008581Y013726D01*
X008551Y013743D01*
X008518Y013752D01*
X008422Y013752D01*
X008422Y013464D01*
X008383Y013464D01*
X008383Y013752D01*
X008287Y013752D01*
X008254Y013743D01*
X008245Y013738D01*
X008236Y013743D01*
X008203Y013752D01*
X008107Y013752D01*
X008107Y013464D01*
X008068Y013464D01*
X008068Y013752D01*
X007972Y013752D01*
X007939Y013743D01*
X007930Y013738D01*
X007921Y013743D01*
X007888Y013752D01*
X007792Y013752D01*
X007792Y013464D01*
X007753Y013464D01*
X007753Y013752D01*
X007657Y013752D01*
X007624Y013743D01*
X007615Y013738D01*
X007606Y013743D01*
X007573Y013752D01*
X007477Y013752D01*
X007477Y013464D01*
X007438Y013464D01*
X007438Y013752D01*
X007342Y013752D01*
X007309Y013743D01*
X007279Y013726D01*
X007255Y013702D01*
X007238Y013672D01*
X007229Y013639D01*
X007229Y013464D01*
X007229Y013516D02*
X006857Y013516D01*
X006857Y013458D02*
X007438Y013458D01*
X007477Y013458D02*
X007753Y013458D01*
X007792Y013458D02*
X008068Y013458D01*
X008107Y013458D02*
X008383Y013458D01*
X008422Y013458D02*
X009250Y013458D01*
X009250Y013516D02*
X008631Y013516D01*
X008631Y013575D02*
X009250Y013575D01*
X009250Y013633D02*
X009026Y013633D01*
X009116Y013692D02*
X009250Y013692D01*
X009250Y013750D02*
X009163Y013750D01*
X009187Y013809D02*
X009250Y013809D01*
X009250Y013867D02*
X009195Y013867D01*
X009195Y013926D02*
X009250Y013926D01*
X009250Y013984D02*
X009174Y013984D01*
X009142Y014043D02*
X009250Y014043D01*
X009250Y014101D02*
X009084Y014101D01*
X009084Y014160D02*
X009250Y014160D01*
X009250Y014218D02*
X009143Y014218D01*
X009174Y014277D02*
X009250Y014277D01*
X009250Y014335D02*
X009195Y014335D01*
X009195Y014394D02*
X009250Y014394D01*
X009250Y014452D02*
X009187Y014452D01*
X009163Y014511D02*
X009250Y014511D01*
X009250Y014569D02*
X009116Y014569D01*
X009025Y014628D02*
X009250Y014628D01*
X009250Y014686D02*
X008850Y014686D01*
X008846Y014745D02*
X009250Y014745D01*
X009250Y014803D02*
X008846Y014803D01*
X008846Y014862D02*
X009250Y014862D01*
X009250Y014920D02*
X008846Y014920D01*
X008846Y014979D02*
X009250Y014979D01*
X009250Y015037D02*
X008846Y015037D01*
X008900Y015096D02*
X009250Y015096D01*
X009250Y015154D02*
X008954Y015154D01*
X008954Y015213D02*
X009250Y015213D01*
X009250Y015271D02*
X008954Y015271D01*
X008954Y015330D02*
X009250Y015330D01*
X009250Y015388D02*
X008954Y015388D01*
X008954Y015447D02*
X009250Y015447D01*
X009250Y015505D02*
X008954Y015505D01*
X008954Y015564D02*
X009250Y015564D01*
X009250Y015622D02*
X008943Y015622D01*
X008884Y015681D02*
X009250Y015681D01*
X009250Y015739D02*
X008846Y015739D01*
X008846Y015798D02*
X009250Y015798D01*
X009250Y015856D02*
X008911Y015856D01*
X008954Y015915D02*
X009250Y015915D01*
X009250Y015973D02*
X008954Y015973D01*
X008954Y016032D02*
X009250Y016032D01*
X009250Y016090D02*
X008954Y016090D01*
X008954Y016149D02*
X009250Y016149D01*
X009250Y016207D02*
X008954Y016207D01*
X008954Y016266D02*
X009250Y016266D01*
X009250Y016324D02*
X008954Y016324D01*
X008932Y016383D02*
X009250Y016383D01*
X009250Y016441D02*
X008601Y016441D01*
X008590Y016500D02*
X009250Y016500D01*
X009250Y016558D02*
X008590Y016558D01*
X008590Y016617D02*
X009250Y016617D01*
X009250Y016675D02*
X008820Y016675D01*
X008879Y016734D02*
X009250Y016734D01*
X009250Y016792D02*
X008895Y016792D01*
X008895Y016851D02*
X009250Y016851D01*
X009250Y016909D02*
X008895Y016909D01*
X008895Y016968D02*
X009250Y016968D01*
X009250Y017026D02*
X008895Y017026D01*
X008895Y017085D02*
X009250Y017085D01*
X009250Y017143D02*
X008895Y017143D01*
X008865Y017202D02*
X009250Y017202D01*
X009250Y017260D02*
X006524Y017260D01*
X006369Y016968D02*
X007179Y016968D01*
X007531Y016207D02*
X006015Y016207D01*
X006015Y016149D02*
X007472Y016149D01*
X007414Y016090D02*
X006015Y016090D01*
X006015Y016032D02*
X007355Y016032D01*
X007297Y015973D02*
X006015Y015973D01*
X006015Y015915D02*
X007270Y015915D01*
X007270Y015856D02*
X006015Y015856D01*
X006015Y015798D02*
X007270Y015798D01*
X007270Y015739D02*
X006015Y015739D01*
X006015Y015681D02*
X007270Y015681D01*
X007270Y015622D02*
X006015Y015622D01*
X006015Y015564D02*
X007239Y015564D01*
X007195Y015505D02*
X006015Y015505D01*
X006015Y015447D02*
X007171Y015447D01*
X007165Y015388D02*
X006015Y015388D01*
X006015Y015330D02*
X007165Y015330D01*
X007188Y015271D02*
X006015Y015271D01*
X006015Y015213D02*
X007223Y015213D01*
X007283Y015154D02*
X006015Y015154D01*
X006015Y015096D02*
X007962Y015096D01*
X007915Y015154D02*
X007577Y015154D01*
X007637Y015213D02*
X007906Y015213D01*
X007906Y015271D02*
X007672Y015271D01*
X007695Y015330D02*
X007906Y015330D01*
X007906Y015447D02*
X007689Y015447D01*
X007695Y015388D02*
X008144Y015388D01*
X008144Y015330D02*
X008204Y015330D01*
X008204Y015271D02*
X008144Y015271D01*
X008144Y015213D02*
X008204Y015213D01*
X008204Y015154D02*
X008144Y015154D01*
X008144Y015096D02*
X008204Y015096D01*
X008386Y015096D02*
X008471Y015096D01*
X008526Y015037D02*
X006015Y015037D01*
X006015Y014979D02*
X008526Y014979D01*
X008526Y014920D02*
X006015Y014920D01*
X006015Y014862D02*
X008526Y014862D01*
X008526Y014803D02*
X006015Y014803D01*
X006015Y014745D02*
X008526Y014745D01*
X008526Y014686D02*
X006015Y014686D01*
X006015Y014628D02*
X006335Y014628D01*
X006377Y014645D02*
X006280Y014605D01*
X006205Y014530D01*
X006165Y014433D01*
X006165Y014327D01*
X006205Y014230D01*
X006280Y014155D01*
X006377Y014115D01*
X006483Y014115D01*
X006580Y014155D01*
X006655Y014230D01*
X006695Y014327D01*
X006695Y014433D01*
X006655Y014530D01*
X006580Y014605D01*
X006483Y014645D01*
X006377Y014645D01*
X006525Y014628D02*
X008526Y014628D01*
X008526Y014569D02*
X006616Y014569D01*
X006663Y014511D02*
X008573Y014511D01*
X008632Y014452D02*
X006687Y014452D01*
X006695Y014394D02*
X008665Y014394D01*
X008665Y014335D02*
X006695Y014335D01*
X006674Y014277D02*
X008686Y014277D01*
X008717Y014218D02*
X006643Y014218D01*
X006584Y014160D02*
X008776Y014160D01*
X008776Y014101D02*
X006015Y014101D01*
X006015Y014160D02*
X006276Y014160D01*
X006217Y014218D02*
X006015Y014218D01*
X006015Y014277D02*
X006186Y014277D01*
X006165Y014335D02*
X006015Y014335D01*
X006015Y014394D02*
X006165Y014394D01*
X006173Y014452D02*
X006015Y014452D01*
X006015Y014511D02*
X006197Y014511D01*
X006244Y014569D02*
X006015Y014569D01*
X006343Y014043D02*
X006403Y014043D01*
X006403Y013984D02*
X006343Y013984D01*
X006343Y013926D02*
X006403Y013926D01*
X006403Y013867D02*
X006343Y013867D01*
X006343Y013809D02*
X006403Y013809D01*
X006403Y013750D02*
X006343Y013750D01*
X006403Y013692D02*
X007249Y013692D01*
X007229Y013633D02*
X006857Y013633D01*
X006857Y013575D02*
X007229Y013575D01*
X007334Y013750D02*
X006857Y013750D01*
X006857Y013809D02*
X008673Y013809D01*
X008665Y013867D02*
X006857Y013867D01*
X006857Y013926D02*
X008665Y013926D01*
X008686Y013984D02*
X006856Y013984D01*
X006831Y014043D02*
X008718Y014043D01*
X008697Y013750D02*
X008526Y013750D01*
X008611Y013692D02*
X008744Y013692D01*
X008834Y013633D02*
X008631Y013633D01*
X008631Y013426D02*
X008422Y013426D01*
X008422Y013138D01*
X008518Y013138D01*
X008551Y013147D01*
X008581Y013164D01*
X008605Y013188D01*
X008622Y013218D01*
X008631Y013251D01*
X008631Y013426D01*
X008631Y013399D02*
X009250Y013399D01*
X009250Y013341D02*
X008631Y013341D01*
X008631Y013282D02*
X009250Y013282D01*
X009250Y013224D02*
X008624Y013224D01*
X008582Y013165D02*
X009250Y013165D01*
X009250Y013107D02*
X008570Y013107D01*
X008629Y013048D02*
X009250Y013048D01*
X009250Y012990D02*
X008631Y012990D01*
X008631Y012931D02*
X009250Y012931D01*
X009250Y012873D02*
X008631Y012873D01*
X008631Y012814D02*
X009250Y012814D01*
X009250Y012756D02*
X008688Y012756D01*
X008747Y012697D02*
X009250Y012697D01*
X009250Y012639D02*
X008805Y012639D01*
X008840Y012580D02*
X009250Y012580D01*
X009250Y012522D02*
X008840Y012522D01*
X008840Y012463D02*
X009250Y012463D01*
X009250Y012405D02*
X008840Y012405D01*
X008840Y012346D02*
X009250Y012346D01*
X009250Y012288D02*
X008840Y012288D01*
X008840Y012229D02*
X009250Y012229D01*
X009250Y012171D02*
X008840Y012171D01*
X008840Y012112D02*
X009250Y012112D01*
X009250Y012054D02*
X008840Y012054D01*
X008840Y011995D02*
X009250Y011995D01*
X009250Y011937D02*
X008840Y011937D01*
X008840Y011878D02*
X009250Y011878D01*
X009250Y011820D02*
X008840Y011820D01*
X008840Y011761D02*
X009250Y011761D01*
X009250Y011703D02*
X008840Y011703D01*
X008840Y011644D02*
X009250Y011644D01*
X009250Y011586D02*
X008840Y011586D01*
X008840Y011527D02*
X009250Y011527D01*
X009250Y011469D02*
X008840Y011469D01*
X008840Y011410D02*
X009250Y011410D01*
X009250Y011352D02*
X008840Y011352D01*
X008819Y011293D02*
X009250Y011293D01*
X009250Y011235D02*
X008895Y011235D01*
X008945Y011176D02*
X009250Y011176D01*
X009250Y011118D02*
X008970Y011118D01*
X008980Y011059D02*
X009250Y011059D01*
X009250Y011001D02*
X008980Y011001D01*
X008961Y010942D02*
X009250Y010942D01*
X009250Y010884D02*
X008933Y010884D01*
X008875Y010825D02*
X009250Y010825D01*
X009250Y010767D02*
X008845Y010767D01*
X008845Y010708D02*
X009250Y010708D01*
X009250Y010650D02*
X008838Y010650D01*
X008813Y010591D02*
X009250Y010591D01*
X009250Y010533D02*
X008767Y010533D01*
X008679Y010474D02*
X009250Y010474D01*
X009250Y010416D02*
X008510Y010416D01*
X008454Y010357D02*
X009250Y010357D01*
X009250Y010299D02*
X008454Y010299D01*
X008454Y010182D02*
X009250Y010182D01*
X009250Y010240D02*
X008216Y010240D01*
X008216Y010200D02*
X008216Y010112D01*
X008216Y009835D01*
X008156Y009835D01*
X008156Y010200D01*
X008216Y010200D01*
X008216Y010182D02*
X008156Y010182D01*
X008156Y010123D02*
X008216Y010123D01*
X008216Y010065D02*
X008156Y010065D01*
X008156Y010006D02*
X008216Y010006D01*
X008216Y009948D02*
X008156Y009948D01*
X008156Y009889D02*
X008216Y009889D01*
X008216Y009775D02*
X008156Y009775D01*
X008156Y009687D01*
X008156Y009410D01*
X008216Y009410D01*
X008216Y009775D01*
X008216Y009772D02*
X008156Y009772D01*
X008156Y009714D02*
X008216Y009714D01*
X008216Y009655D02*
X008156Y009655D01*
X008156Y009597D02*
X008216Y009597D01*
X008216Y009538D02*
X008156Y009538D01*
X008156Y009480D02*
X008216Y009480D01*
X008216Y009421D02*
X008156Y009421D01*
X008216Y009363D02*
X009250Y009363D01*
X009250Y009421D02*
X008454Y009421D01*
X008454Y009480D02*
X009250Y009480D01*
X009250Y009538D02*
X008454Y009538D01*
X008450Y009597D02*
X008489Y009597D01*
X008454Y009304D02*
X009250Y009304D01*
X009250Y009246D02*
X008454Y009246D01*
X008454Y009187D02*
X009250Y009187D01*
X009250Y009129D02*
X008722Y009129D01*
X008815Y009070D02*
X009250Y009070D01*
X009250Y009012D02*
X008862Y009012D01*
X008887Y008953D02*
X009250Y008953D01*
X009250Y008895D02*
X008895Y008895D01*
X008895Y008836D02*
X009250Y008836D01*
X009250Y008778D02*
X008874Y008778D01*
X008844Y008719D02*
X009250Y008719D01*
X009250Y008661D02*
X008785Y008661D01*
X008537Y009129D02*
X008493Y009129D01*
X008493Y008602D02*
X009250Y008602D01*
X009250Y008544D02*
X008493Y008544D01*
X008459Y008485D02*
X009250Y008485D01*
X009250Y008427D02*
X007590Y008427D01*
X007590Y008368D02*
X009250Y008368D01*
X009250Y008310D02*
X007590Y008310D01*
X007590Y008251D02*
X009250Y008251D01*
X009250Y008193D02*
X007590Y008193D01*
X007590Y008134D02*
X008501Y008134D01*
X008401Y008076D02*
X007590Y008076D01*
X007590Y008017D02*
X008350Y008017D01*
X008326Y007959D02*
X007590Y007959D01*
X007590Y007900D02*
X008315Y007900D01*
X008315Y007842D02*
X007590Y007842D01*
X007430Y007681D02*
X007930Y007431D01*
X008161Y007200D01*
X008161Y006880D01*
X007929Y006613D02*
X007881Y006613D01*
X007679Y006613D02*
X007619Y006613D01*
X007619Y006672D02*
X007679Y006672D01*
X007679Y006730D02*
X007619Y006730D01*
X007619Y006789D02*
X007679Y006789D01*
X007679Y006847D02*
X007619Y006847D01*
X007619Y006906D02*
X005795Y006906D01*
X005795Y006964D02*
X007381Y006964D01*
X007381Y007023D02*
X005795Y007023D01*
X005795Y007081D02*
X007383Y007081D01*
X007367Y007140D02*
X006887Y007140D01*
X006874Y007132D02*
X006903Y007149D01*
X006928Y007173D01*
X006945Y007203D01*
X006954Y007236D01*
X006954Y007400D01*
X006716Y007400D01*
X006716Y007123D01*
X006841Y007123D01*
X006874Y007132D01*
X006942Y007198D02*
X007367Y007198D01*
X007367Y007257D02*
X006954Y007257D01*
X006954Y007315D02*
X007367Y007315D01*
X007367Y007374D02*
X006954Y007374D01*
X006954Y007491D02*
X007367Y007491D01*
X007367Y007432D02*
X006716Y007432D01*
X006716Y007374D02*
X006656Y007374D01*
X006656Y007315D02*
X006716Y007315D01*
X006716Y007257D02*
X006656Y007257D01*
X006656Y007198D02*
X006716Y007198D01*
X006716Y007140D02*
X006656Y007140D01*
X006484Y007140D02*
X006382Y007140D01*
X006656Y007491D02*
X006716Y007491D01*
X006716Y007549D02*
X006656Y007549D01*
X006656Y007608D02*
X006716Y007608D01*
X006716Y007666D02*
X006656Y007666D01*
X006656Y007725D02*
X006716Y007725D01*
X006716Y007923D02*
X006841Y007923D01*
X006874Y007932D01*
X006903Y007949D01*
X006928Y007973D01*
X006945Y008003D01*
X006954Y008036D01*
X006954Y008200D01*
X006716Y008200D01*
X006716Y007923D01*
X006716Y007959D02*
X006656Y007959D01*
X006656Y008017D02*
X006716Y008017D01*
X006716Y008076D02*
X006656Y008076D01*
X006656Y008134D02*
X006716Y008134D01*
X006716Y008193D02*
X006656Y008193D01*
X006716Y008251D02*
X007270Y008251D01*
X007270Y008193D02*
X006954Y008193D01*
X006954Y008134D02*
X007270Y008134D01*
X007270Y008076D02*
X006954Y008076D01*
X006949Y008017D02*
X007270Y008017D01*
X007270Y007959D02*
X006913Y007959D01*
X006880Y007725D02*
X007270Y007725D01*
X007270Y007783D02*
X005861Y007783D01*
X005859Y007725D02*
X005970Y007725D01*
X005911Y007666D02*
X005801Y007666D01*
X005861Y007842D02*
X007270Y007842D01*
X007270Y007900D02*
X005861Y007900D01*
X005665Y008560D02*
X005563Y008560D01*
X005468Y008608D01*
X005468Y008705D01*
X005475Y008705D01*
X005475Y009022D01*
X005672Y009022D01*
X005672Y009022D01*
X005483Y009022D01*
X005475Y009022D01*
X005475Y009022D01*
X005475Y009022D01*
X005475Y008705D01*
X005500Y008705D01*
X005548Y008718D01*
X005574Y008732D01*
X005599Y008718D01*
X005647Y008705D01*
X005672Y008705D01*
X005672Y009022D01*
X005672Y009022D01*
X005672Y008705D01*
X005684Y008705D01*
X005665Y008658D01*
X005665Y008560D01*
X005665Y008602D02*
X005480Y008602D01*
X005468Y008661D02*
X005666Y008661D01*
X005672Y008719D02*
X005672Y008719D01*
X005672Y008778D02*
X005672Y008778D01*
X005672Y008836D02*
X005672Y008836D01*
X005672Y008895D02*
X005672Y008895D01*
X005672Y008953D02*
X005672Y008953D01*
X005672Y009012D02*
X005672Y009012D01*
X005475Y009012D02*
X005475Y009012D01*
X005475Y008953D02*
X005475Y008953D01*
X005475Y008895D02*
X005475Y008895D01*
X005475Y008836D02*
X005475Y008836D01*
X005475Y008778D02*
X005475Y008778D01*
X005475Y008719D02*
X005475Y008719D01*
X005551Y008719D02*
X005597Y008719D01*
X005869Y008666D02*
X005869Y009022D01*
X006066Y009022D02*
X006066Y008819D01*
X006280Y008605D01*
X006455Y008605D01*
X006430Y008880D02*
X006930Y008880D01*
X007430Y008380D01*
X007430Y007681D01*
X007336Y007549D02*
X006954Y007549D01*
X006954Y007608D02*
X007277Y007608D01*
X007266Y007666D02*
X006940Y007666D01*
X006954Y008310D02*
X007270Y008310D01*
X007216Y008368D02*
X006954Y008368D01*
X006953Y008427D02*
X007157Y008427D01*
X007099Y008485D02*
X006929Y008485D01*
X007040Y008544D02*
X006716Y008544D01*
X006720Y008602D02*
X006982Y008602D01*
X006923Y008661D02*
X006719Y008661D01*
X006695Y008719D02*
X006865Y008719D01*
X006716Y008485D02*
X006692Y008485D01*
X006716Y008427D02*
X006656Y008427D01*
X006656Y008368D02*
X006716Y008368D01*
X006716Y008310D02*
X006656Y008310D01*
X006459Y007959D02*
X006401Y007959D01*
X006378Y007725D02*
X006491Y007725D01*
X005907Y007198D02*
X005795Y007198D01*
X005795Y007140D02*
X005966Y007140D01*
X005795Y006847D02*
X007381Y006847D01*
X007381Y006789D02*
X005795Y006789D01*
X005770Y006730D02*
X007381Y006730D01*
X007385Y006672D02*
X005795Y006672D01*
X005795Y006613D02*
X006800Y006613D01*
X006780Y006605D02*
X006705Y006530D01*
X006665Y006433D01*
X006665Y006327D01*
X006705Y006230D01*
X006780Y006155D01*
X006877Y006115D01*
X006983Y006115D01*
X007080Y006155D01*
X007155Y006230D01*
X007195Y006327D01*
X007195Y006433D01*
X007155Y006530D01*
X007080Y006605D01*
X006983Y006645D01*
X006877Y006645D01*
X006780Y006605D01*
X006730Y006555D02*
X005795Y006555D01*
X005795Y006496D02*
X006691Y006496D01*
X006667Y006438D02*
X005795Y006438D01*
X005795Y006379D02*
X006665Y006379D01*
X006668Y006321D02*
X005795Y006321D01*
X005795Y006262D02*
X006692Y006262D01*
X006732Y006204D02*
X005795Y006204D01*
X005795Y006145D02*
X006805Y006145D01*
X006917Y005911D02*
X003497Y005911D01*
X003497Y005853D02*
X006858Y005853D01*
X006847Y005794D02*
X003497Y005794D01*
X003497Y005736D02*
X004431Y005736D01*
X004457Y005762D02*
X004381Y005686D01*
X004381Y005615D01*
X004189Y005615D01*
X004114Y005540D01*
X004054Y005481D01*
X003980Y005555D01*
X003883Y005595D01*
X003777Y005595D01*
X003680Y005555D01*
X003605Y005480D01*
X003565Y005383D01*
X003565Y005277D01*
X003605Y005180D01*
X003680Y005105D01*
X003777Y005065D01*
X003883Y005065D01*
X003980Y005105D01*
X004020Y005145D01*
X004020Y004176D01*
X004052Y004144D01*
X004052Y003842D01*
X004077Y003817D01*
X004061Y003788D01*
X004052Y003755D01*
X004052Y003654D01*
X004394Y003654D01*
X004394Y003606D01*
X004052Y003606D01*
X004052Y003505D01*
X004061Y003472D01*
X004077Y003443D01*
X004052Y003418D01*
X004052Y003094D01*
X004128Y003018D01*
X004708Y003018D01*
X004741Y003050D01*
X004930Y002861D01*
X004930Y002464D01*
X004870Y002464D01*
X004870Y002879D01*
X004470Y002879D01*
X004437Y002870D01*
X004407Y002853D01*
X004383Y002829D01*
X004377Y002818D01*
X004373Y002826D01*
X004347Y002851D01*
X004316Y002870D01*
X004281Y002879D01*
X004201Y002879D01*
X004201Y002493D01*
X004182Y002493D01*
X004182Y002879D01*
X004103Y002879D01*
X004072Y002871D01*
X004064Y002879D01*
X003840Y002879D01*
X003840Y002896D01*
X003746Y002990D01*
X003728Y003008D01*
X003805Y003008D01*
X003881Y003084D01*
X003881Y003546D01*
X003805Y003622D01*
X003500Y003622D01*
X003495Y003617D01*
X003337Y003945D02*
X003337Y006473D01*
X001930Y007880D01*
X001930Y008380D01*
X001840Y008630D02*
X001840Y009564D01*
X001880Y009580D01*
X001955Y009655D01*
X001956Y009655D01*
X001955Y009655D02*
X001956Y009659D01*
X001956Y009524D01*
X001956Y009360D01*
X002194Y009360D01*
X002194Y009300D01*
X001956Y009300D01*
X001956Y009136D01*
X001961Y009118D01*
X001956Y009099D01*
X001956Y008935D01*
X002194Y008935D01*
X002194Y008875D01*
X001956Y008875D01*
X001956Y008711D01*
X001965Y008678D01*
X001982Y008648D01*
X001987Y008643D01*
X001983Y008645D01*
X001877Y008645D01*
X001840Y008630D01*
X001840Y008661D02*
X001975Y008661D01*
X001956Y008719D02*
X001840Y008719D01*
X001840Y008778D02*
X001956Y008778D01*
X001956Y008836D02*
X001840Y008836D01*
X001840Y008895D02*
X002194Y008895D01*
X002194Y008875D02*
X002254Y008875D01*
X002254Y008598D01*
X002379Y008598D01*
X002412Y008607D01*
X002442Y008624D01*
X002466Y008648D01*
X002476Y008666D01*
X002544Y008598D01*
X002927Y008598D01*
X003004Y008674D01*
X003004Y008802D01*
X003041Y008840D01*
X003120Y008840D01*
X003120Y007559D01*
X003033Y007595D01*
X002927Y007595D01*
X002830Y007555D01*
X002755Y007480D01*
X002715Y007383D01*
X002715Y007321D01*
X002421Y007615D01*
X002483Y007615D01*
X002580Y007655D01*
X002605Y007680D01*
X002630Y007655D01*
X002727Y007615D01*
X002833Y007615D01*
X002930Y007655D01*
X003005Y007730D01*
X003045Y007827D01*
X003045Y007933D01*
X003005Y008030D01*
X002930Y008105D01*
X002833Y008145D01*
X002727Y008145D01*
X002630Y008105D01*
X002605Y008080D01*
X002580Y008105D01*
X002483Y008145D01*
X002377Y008145D01*
X002280Y008105D01*
X002205Y008030D01*
X002165Y007933D01*
X002165Y007871D01*
X002090Y007946D01*
X002090Y008165D01*
X002155Y008230D01*
X002195Y008327D01*
X002195Y008433D01*
X002155Y008530D01*
X002087Y008598D01*
X002194Y008598D01*
X002194Y008875D01*
X002194Y008836D02*
X002254Y008836D01*
X002254Y008778D02*
X002194Y008778D01*
X002194Y008719D02*
X002254Y008719D01*
X002254Y008661D02*
X002194Y008661D01*
X002194Y008602D02*
X002254Y008602D01*
X002141Y008544D02*
X003120Y008544D01*
X003120Y008602D02*
X002932Y008602D01*
X002990Y008661D02*
X003120Y008661D01*
X003120Y008719D02*
X003004Y008719D01*
X003004Y008778D02*
X003120Y008778D01*
X003120Y008836D02*
X003037Y008836D01*
X002880Y008905D02*
X003080Y009105D01*
X003155Y009180D01*
X003155Y009655D01*
X003388Y009888D01*
X003822Y009888D01*
X003822Y010085D02*
X003410Y010085D01*
X003005Y009680D01*
X003005Y009455D01*
X002880Y009330D01*
X002736Y009330D01*
X002706Y009725D02*
X002492Y009725D01*
X002492Y009785D01*
X002706Y009785D01*
X002706Y009725D01*
X002706Y009772D02*
X002492Y009772D01*
X002484Y009994D02*
X002452Y010025D01*
X002452Y010420D01*
X002507Y010420D01*
X002507Y010275D01*
X002883Y010275D01*
X002883Y010215D01*
X002943Y010215D01*
X002943Y010042D01*
X002924Y010053D01*
X002891Y010062D01*
X002883Y010062D01*
X002883Y010215D01*
X002507Y010215D01*
X002507Y010025D01*
X002494Y010012D01*
X002484Y009994D01*
X002491Y010006D02*
X002472Y010006D01*
X002452Y010065D02*
X002507Y010065D01*
X002507Y010123D02*
X002452Y010123D01*
X002452Y010182D02*
X002507Y010182D01*
X002452Y010240D02*
X002883Y010240D01*
X002883Y010275D02*
X002883Y010420D01*
X002943Y010420D01*
X002943Y010275D01*
X003319Y010275D01*
X003319Y010318D01*
X003508Y010318D01*
X003505Y010306D01*
X003505Y010282D01*
X003822Y010282D01*
X003822Y010282D01*
X003505Y010282D01*
X003505Y010257D01*
X003508Y010245D01*
X003343Y010245D01*
X003314Y010215D01*
X002943Y010215D01*
X002943Y010275D01*
X002883Y010275D01*
X002883Y010299D02*
X002943Y010299D01*
X002943Y010357D02*
X002883Y010357D01*
X002883Y010416D02*
X002943Y010416D01*
X002943Y010240D02*
X003339Y010240D01*
X003319Y010299D02*
X003505Y010299D01*
X003332Y010478D02*
X003230Y010580D01*
X002382Y010580D01*
X002047Y010245D01*
X002224Y010068D01*
X002224Y009755D01*
X002254Y009360D02*
X002468Y009360D01*
X002468Y009300D01*
X002254Y009300D01*
X002254Y008935D01*
X002194Y008935D01*
X002194Y009212D01*
X002194Y009300D01*
X002254Y009300D01*
X002254Y009360D01*
X002254Y009304D02*
X002468Y009304D01*
X002254Y009246D02*
X002194Y009246D01*
X002194Y009304D02*
X001840Y009304D01*
X001840Y009246D02*
X001956Y009246D01*
X001956Y009187D02*
X001840Y009187D01*
X001840Y009129D02*
X001958Y009129D01*
X001956Y009070D02*
X001840Y009070D01*
X001840Y009012D02*
X001956Y009012D01*
X001956Y008953D02*
X001840Y008953D01*
X001840Y009363D02*
X001956Y009363D01*
X001956Y009421D02*
X001840Y009421D01*
X001840Y009480D02*
X001956Y009480D01*
X001956Y009538D02*
X001840Y009538D01*
X001896Y009597D02*
X001956Y009597D01*
X002194Y009187D02*
X002254Y009187D01*
X002254Y009129D02*
X002194Y009129D01*
X002194Y009070D02*
X002254Y009070D01*
X002254Y009012D02*
X002194Y009012D01*
X002194Y008953D02*
X002254Y008953D01*
X002473Y008661D02*
X002482Y008661D01*
X002540Y008602D02*
X002395Y008602D01*
X002195Y008427D02*
X003120Y008427D01*
X003120Y008485D02*
X002173Y008485D01*
X002195Y008368D02*
X003120Y008368D01*
X003120Y008310D02*
X002188Y008310D01*
X002163Y008251D02*
X003120Y008251D01*
X003120Y008193D02*
X002117Y008193D01*
X002090Y008134D02*
X002351Y008134D01*
X002251Y008076D02*
X002090Y008076D01*
X002090Y008017D02*
X002200Y008017D01*
X002176Y007959D02*
X002090Y007959D01*
X002136Y007900D02*
X002165Y007900D01*
X002429Y007608D02*
X003120Y007608D01*
X003120Y007666D02*
X002941Y007666D01*
X002999Y007725D02*
X003120Y007725D01*
X003120Y007783D02*
X003027Y007783D01*
X003045Y007842D02*
X003120Y007842D01*
X003120Y007900D02*
X003045Y007900D01*
X003034Y007959D02*
X003120Y007959D01*
X003120Y008017D02*
X003010Y008017D01*
X002959Y008076D02*
X003120Y008076D01*
X003120Y008134D02*
X002859Y008134D01*
X002701Y008134D02*
X002509Y008134D01*
X002591Y007666D02*
X002619Y007666D01*
X002487Y007549D02*
X002824Y007549D01*
X002766Y007491D02*
X002546Y007491D01*
X002604Y007432D02*
X002735Y007432D01*
X002715Y007374D02*
X002663Y007374D01*
X003280Y006980D02*
X003455Y006805D01*
X003543Y006555D02*
X004165Y006555D01*
X004165Y006613D02*
X003638Y006613D01*
X003686Y006672D02*
X004165Y006672D01*
X004190Y006730D02*
X003711Y006730D01*
X003720Y006789D02*
X004165Y006789D01*
X004165Y006847D02*
X003720Y006847D01*
X003700Y006906D02*
X004165Y006906D01*
X004165Y006964D02*
X003671Y006964D01*
X003861Y007023D02*
X004165Y007023D01*
X004165Y007081D02*
X003931Y007081D01*
X003969Y007140D02*
X004165Y007140D01*
X004165Y007198D02*
X003993Y007198D01*
X003995Y007257D02*
X004165Y007257D01*
X004165Y007315D02*
X003992Y007315D01*
X003968Y007374D02*
X004165Y007374D01*
X004165Y007432D02*
X003928Y007432D01*
X003905Y007491D02*
X004187Y007491D01*
X004040Y007842D02*
X004499Y007842D01*
X004499Y007900D02*
X004045Y007900D01*
X004045Y007959D02*
X004499Y007959D01*
X004499Y008017D02*
X004042Y008017D01*
X004100Y008076D02*
X004499Y008076D01*
X004499Y008134D02*
X004127Y008134D01*
X004145Y008193D02*
X004499Y008193D01*
X004499Y008251D02*
X004320Y008251D01*
X004384Y008310D02*
X004499Y008310D01*
X004499Y008368D02*
X004420Y008368D01*
X004445Y008427D02*
X004499Y008427D01*
X004453Y008485D02*
X004445Y008485D01*
X004180Y008480D02*
X004491Y008791D01*
X004491Y009022D01*
X004688Y009022D02*
X004688Y008863D01*
X004680Y008630D01*
X004294Y008869D02*
X004155Y008730D01*
X004030Y008730D01*
X003880Y008580D01*
X003880Y008230D01*
X003655Y008030D02*
X003780Y007905D01*
X003655Y008030D02*
X003655Y008730D01*
X003947Y009022D01*
X004097Y009022D01*
X004294Y009022D02*
X004294Y008869D01*
X003822Y009297D02*
X003672Y009297D01*
X003555Y009180D01*
X003555Y008830D01*
X003530Y008805D01*
X003530Y007705D01*
X003655Y007580D01*
X003730Y007255D02*
X003480Y007255D01*
X003405Y007330D01*
X003405Y008855D01*
X003430Y008880D01*
X003430Y009380D01*
X003544Y009494D01*
X003822Y009494D01*
X003822Y009691D02*
X003566Y009691D01*
X003305Y009430D01*
X003305Y008930D01*
X003280Y008905D01*
X003280Y006980D01*
X003497Y006496D02*
X004165Y006496D01*
X004165Y006438D02*
X003497Y006438D01*
X003497Y006379D02*
X004165Y006379D01*
X004165Y006321D02*
X003497Y006321D01*
X003497Y006262D02*
X004165Y006262D01*
X004165Y006204D02*
X003497Y006204D01*
X003497Y006145D02*
X004165Y006145D01*
X004165Y006087D02*
X003497Y006087D01*
X003497Y006028D02*
X004165Y006028D01*
X004186Y005970D02*
X003497Y005970D01*
X003497Y005677D02*
X004381Y005677D01*
X004381Y005619D02*
X003497Y005619D01*
X003497Y005560D02*
X003693Y005560D01*
X003627Y005502D02*
X003497Y005502D01*
X003497Y005443D02*
X003590Y005443D01*
X003566Y005385D02*
X003497Y005385D01*
X003497Y005326D02*
X003565Y005326D01*
X003569Y005268D02*
X003497Y005268D01*
X003497Y005209D02*
X003593Y005209D01*
X003635Y005151D02*
X003497Y005151D01*
X003497Y005092D02*
X003712Y005092D01*
X003497Y005034D02*
X004020Y005034D01*
X004020Y005092D02*
X003948Y005092D01*
X004020Y004975D02*
X003497Y004975D01*
X003497Y004917D02*
X004020Y004917D01*
X004020Y004858D02*
X003497Y004858D01*
X003497Y004800D02*
X004020Y004800D01*
X004020Y004741D02*
X003497Y004741D01*
X003497Y004683D02*
X004020Y004683D01*
X004020Y004624D02*
X003497Y004624D01*
X003497Y004566D02*
X004020Y004566D01*
X004020Y004507D02*
X003497Y004507D01*
X003497Y004449D02*
X004020Y004449D01*
X004020Y004390D02*
X003497Y004390D01*
X003497Y004332D02*
X004020Y004332D01*
X004020Y004273D02*
X003497Y004273D01*
X003157Y003630D02*
X004394Y003630D01*
X004442Y003630D02*
X004911Y003630D01*
X004969Y003688D02*
X004784Y003688D01*
X004784Y003654D02*
X004784Y003755D01*
X004775Y003788D01*
X004759Y003817D01*
X004784Y003842D01*
X004784Y004166D01*
X004708Y004242D01*
X004406Y004242D01*
X004340Y004308D01*
X004340Y004776D01*
X004381Y004735D01*
X004381Y004585D01*
X004619Y004585D01*
X004619Y004525D01*
X004381Y004525D01*
X004381Y004361D01*
X004390Y004328D01*
X004407Y004298D01*
X004431Y004274D01*
X004461Y004257D01*
X004494Y004248D01*
X004619Y004248D01*
X004619Y004525D01*
X004679Y004525D01*
X004679Y004248D01*
X004804Y004248D01*
X004837Y004257D01*
X004867Y004274D01*
X004891Y004298D01*
X004901Y004316D01*
X004969Y004248D01*
X005001Y004248D01*
X005001Y004219D01*
X005076Y004144D01*
X005076Y003842D01*
X005099Y003818D01*
X004990Y003709D01*
X004784Y003503D01*
X004784Y003505D01*
X004784Y003606D01*
X004442Y003606D01*
X004442Y003654D01*
X004784Y003654D01*
X004784Y003571D02*
X004852Y003571D01*
X004794Y003513D02*
X004784Y003513D01*
X004784Y003747D02*
X005028Y003747D01*
X005086Y003805D02*
X004766Y003805D01*
X004784Y003864D02*
X005076Y003864D01*
X005076Y003922D02*
X004784Y003922D01*
X004784Y003981D02*
X005076Y003981D01*
X005076Y004039D02*
X004784Y004039D01*
X004784Y004098D02*
X005076Y004098D01*
X005064Y004156D02*
X004784Y004156D01*
X004736Y004215D02*
X005005Y004215D01*
X004944Y004273D02*
X004865Y004273D01*
X004679Y004273D02*
X004619Y004273D01*
X004619Y004332D02*
X004679Y004332D01*
X004679Y004390D02*
X004619Y004390D01*
X004619Y004449D02*
X004679Y004449D01*
X004679Y004507D02*
X004619Y004507D01*
X004619Y004566D02*
X004340Y004566D01*
X004340Y004624D02*
X004381Y004624D01*
X004381Y004683D02*
X004340Y004683D01*
X004340Y004741D02*
X004375Y004741D01*
X004381Y004507D02*
X004340Y004507D01*
X004340Y004449D02*
X004381Y004449D01*
X004381Y004390D02*
X004340Y004390D01*
X004340Y004332D02*
X004389Y004332D01*
X004375Y004273D02*
X004433Y004273D01*
X004180Y004242D02*
X004418Y004004D01*
X004180Y004242D02*
X004180Y005380D01*
X004255Y005455D01*
X004649Y005455D01*
X004841Y005762D02*
X004457Y005762D01*
X004841Y005762D02*
X004905Y005698D01*
X004969Y005762D01*
X005352Y005762D01*
X005429Y005686D01*
X005429Y005275D01*
X005488Y005216D01*
X005488Y005165D01*
X005621Y005165D01*
X005709Y005078D01*
X005730Y005130D01*
X005805Y005205D01*
X005902Y005245D01*
X006008Y005245D01*
X006105Y005205D01*
X006180Y005130D01*
X006220Y005033D01*
X006220Y004927D01*
X006193Y004862D01*
X006216Y004862D01*
X006284Y004794D01*
X006294Y004812D01*
X006318Y004836D01*
X006348Y004853D01*
X006381Y004862D01*
X006398Y004862D01*
X006330Y004930D01*
X006290Y005027D01*
X006290Y005133D01*
X006330Y005230D01*
X006405Y005305D01*
X006502Y005345D01*
X006608Y005345D01*
X006705Y005305D01*
X006780Y005230D01*
X006820Y005133D01*
X006820Y005027D01*
X006780Y004930D01*
X006707Y004858D01*
X006724Y004853D01*
X006753Y004836D01*
X006778Y004812D01*
X006795Y004782D01*
X006804Y004749D01*
X006804Y004585D01*
X006566Y004585D01*
X006566Y004525D01*
X006804Y004525D01*
X006804Y004361D01*
X006795Y004328D01*
X006778Y004298D01*
X006753Y004274D01*
X006724Y004257D01*
X006691Y004248D01*
X006566Y004248D01*
X006566Y004525D01*
X006506Y004525D01*
X006506Y004248D01*
X006381Y004248D01*
X006348Y004257D01*
X006318Y004274D01*
X006294Y004298D01*
X006284Y004316D01*
X006216Y004248D01*
X006090Y004248D01*
X006090Y003820D01*
X007009Y003820D01*
X007009Y004596D01*
X007086Y004672D01*
X007587Y004672D01*
X007663Y004596D01*
X007663Y002677D01*
X007587Y002601D01*
X007086Y002601D01*
X007009Y002677D01*
X007009Y003438D01*
X007006Y003438D01*
X007004Y003440D01*
X006820Y003440D01*
X006855Y003405D01*
X006895Y003308D01*
X006895Y003202D01*
X006855Y003105D01*
X006780Y003030D01*
X006683Y002990D01*
X006671Y002990D01*
X006695Y002933D01*
X006695Y002827D01*
X006655Y002730D01*
X006580Y002655D01*
X006483Y002615D01*
X006377Y002615D01*
X006280Y002655D01*
X006205Y002730D01*
X006180Y002791D01*
X006155Y002730D01*
X006080Y002655D01*
X005983Y002615D01*
X005877Y002615D01*
X005780Y002655D01*
X005745Y002690D01*
X005444Y002690D01*
X005444Y002464D01*
X004930Y002464D01*
X004930Y002404D01*
X004930Y001989D01*
X005331Y001989D01*
X005364Y001998D01*
X005394Y002015D01*
X005418Y002039D01*
X005435Y002069D01*
X005444Y002102D01*
X005444Y002404D01*
X004930Y002404D01*
X004870Y002404D01*
X004870Y001989D01*
X004470Y001989D01*
X004437Y001998D01*
X004407Y002015D01*
X004383Y002039D01*
X004366Y002069D01*
X004357Y002102D01*
X004357Y002125D01*
X004347Y002115D01*
X004316Y002097D01*
X004281Y002087D01*
X004201Y002087D01*
X004201Y002474D01*
X004182Y002474D01*
X004182Y002087D01*
X004103Y002087D01*
X004072Y002096D01*
X004064Y002087D01*
X003040Y002087D01*
X003003Y002125D01*
X003003Y002102D01*
X002994Y002069D01*
X002977Y002039D01*
X002953Y002015D01*
X002923Y001998D01*
X002890Y001989D01*
X002489Y001989D01*
X002489Y002404D01*
X002429Y002404D01*
X002429Y001989D01*
X002029Y001989D01*
X001996Y001998D01*
X001966Y002015D01*
X001942Y002039D01*
X001925Y002069D01*
X001916Y002102D01*
X001916Y002150D01*
X001833Y002115D01*
X001727Y002115D01*
X001630Y002155D01*
X001610Y002175D01*
X001610Y002167D02*
X001618Y002167D01*
X001610Y002109D02*
X001916Y002109D01*
X001936Y002050D02*
X001610Y002050D01*
X001610Y001992D02*
X002020Y001992D01*
X002154Y001933D02*
X002214Y001933D01*
X002214Y001875D02*
X002154Y001875D01*
X002154Y001816D02*
X002214Y001816D01*
X002214Y001758D02*
X002154Y001758D01*
X002154Y001699D02*
X002214Y001699D01*
X002214Y001641D02*
X002154Y001641D01*
X002154Y001582D02*
X002214Y001582D01*
X002214Y001524D02*
X002154Y001524D01*
X002154Y001465D02*
X002214Y001465D01*
X002214Y001407D02*
X003177Y001407D01*
X003178Y001465D02*
X003237Y001465D01*
X003238Y001407D02*
X004122Y001407D01*
X004122Y001465D02*
X004182Y001465D01*
X004182Y001407D02*
X005146Y001407D01*
X005146Y001465D02*
X005206Y001465D01*
X005206Y001407D02*
X005946Y001407D01*
X005946Y001465D02*
X005680Y001465D01*
X005680Y001524D02*
X005946Y001524D01*
X005946Y001582D02*
X005680Y001582D01*
X005680Y001641D02*
X005946Y001641D01*
X005946Y001699D02*
X005680Y001699D01*
X005680Y001758D02*
X005946Y001758D01*
X005946Y001816D02*
X005680Y001816D01*
X005659Y001875D02*
X005946Y001875D01*
X005946Y001933D02*
X005571Y001933D01*
X005424Y002050D02*
X005946Y002050D01*
X005946Y001992D02*
X005340Y001992D01*
X005206Y001933D02*
X005146Y001933D01*
X005146Y001875D02*
X005206Y001875D01*
X005206Y001816D02*
X005146Y001816D01*
X005146Y001758D02*
X005206Y001758D01*
X005206Y001699D02*
X005146Y001699D01*
X005146Y001641D02*
X005206Y001641D01*
X005206Y001582D02*
X005146Y001582D01*
X005146Y001524D02*
X005206Y001524D01*
X004930Y001992D02*
X004870Y001992D01*
X004870Y002050D02*
X004930Y002050D01*
X004930Y002109D02*
X004870Y002109D01*
X004870Y002167D02*
X004930Y002167D01*
X004930Y002226D02*
X004870Y002226D01*
X004870Y002284D02*
X004930Y002284D01*
X004930Y002343D02*
X004870Y002343D01*
X004870Y002401D02*
X004930Y002401D01*
X004930Y002460D02*
X009250Y002460D01*
X009250Y002518D02*
X005444Y002518D01*
X005444Y002577D02*
X009250Y002577D01*
X009250Y002635D02*
X008408Y002635D01*
X008400Y002627D02*
X008425Y002651D01*
X008442Y002681D01*
X008450Y002714D01*
X008450Y003607D01*
X008154Y003607D01*
X008154Y003667D01*
X008450Y003667D01*
X008450Y004559D01*
X008442Y004592D01*
X008425Y004622D01*
X008400Y004646D01*
X008371Y004663D01*
X008338Y004672D01*
X008154Y004672D01*
X008154Y003667D01*
X008094Y003667D01*
X008094Y004672D01*
X007910Y004672D01*
X007877Y004663D01*
X007847Y004646D01*
X007823Y004622D01*
X007806Y004592D01*
X007797Y004559D01*
X007797Y003667D01*
X008094Y003667D01*
X008094Y003607D01*
X008154Y003607D01*
X008154Y002601D01*
X008338Y002601D01*
X008371Y002610D01*
X008400Y002627D01*
X008445Y002694D02*
X009250Y002694D01*
X009250Y002752D02*
X008450Y002752D01*
X008450Y002811D02*
X009250Y002811D01*
X009250Y002869D02*
X008450Y002869D01*
X008450Y002928D02*
X009250Y002928D01*
X009250Y002986D02*
X008450Y002986D01*
X008450Y003045D02*
X009250Y003045D01*
X009250Y003103D02*
X008450Y003103D01*
X008450Y003162D02*
X009250Y003162D01*
X009250Y003220D02*
X008450Y003220D01*
X008450Y003279D02*
X009250Y003279D01*
X009250Y003337D02*
X008450Y003337D01*
X008450Y003396D02*
X009250Y003396D01*
X009250Y003454D02*
X008450Y003454D01*
X008450Y003513D02*
X009250Y003513D01*
X009250Y003571D02*
X008450Y003571D01*
X008450Y003688D02*
X009250Y003688D01*
X009250Y003630D02*
X008154Y003630D01*
X008154Y003688D02*
X008094Y003688D01*
X008094Y003630D02*
X007663Y003630D01*
X007663Y003688D02*
X007797Y003688D01*
X007797Y003747D02*
X007663Y003747D01*
X007663Y003805D02*
X007797Y003805D01*
X007797Y003864D02*
X007663Y003864D01*
X007663Y003922D02*
X007797Y003922D01*
X007797Y003981D02*
X007663Y003981D01*
X007663Y004039D02*
X007797Y004039D01*
X007797Y004098D02*
X007663Y004098D01*
X007663Y004156D02*
X007797Y004156D01*
X007797Y004215D02*
X007663Y004215D01*
X007663Y004273D02*
X007797Y004273D01*
X007797Y004332D02*
X007663Y004332D01*
X007663Y004390D02*
X007797Y004390D01*
X007797Y004449D02*
X007663Y004449D01*
X007663Y004507D02*
X007797Y004507D01*
X007798Y004566D02*
X007663Y004566D01*
X007635Y004624D02*
X007825Y004624D01*
X007913Y004858D02*
X007975Y004858D01*
X007975Y004917D02*
X007954Y004917D01*
X008002Y004800D02*
X006785Y004800D01*
X006804Y004741D02*
X008843Y004741D01*
X008865Y004683D02*
X006804Y004683D01*
X006804Y004624D02*
X007037Y004624D01*
X007009Y004566D02*
X006566Y004566D01*
X006566Y004507D02*
X006506Y004507D01*
X006506Y004449D02*
X006566Y004449D01*
X006566Y004390D02*
X006506Y004390D01*
X006506Y004332D02*
X006566Y004332D01*
X006566Y004273D02*
X006506Y004273D01*
X006320Y004273D02*
X006241Y004273D01*
X006090Y004215D02*
X007009Y004215D01*
X007009Y004273D02*
X006752Y004273D01*
X006796Y004332D02*
X007009Y004332D01*
X007009Y004390D02*
X006804Y004390D01*
X006804Y004449D02*
X007009Y004449D01*
X007009Y004507D02*
X006804Y004507D01*
X006708Y004858D02*
X006947Y004858D01*
X006906Y004917D02*
X006766Y004917D01*
X006798Y004975D02*
X006906Y004975D01*
X006906Y005034D02*
X006820Y005034D01*
X006820Y005092D02*
X006906Y005092D01*
X006906Y005151D02*
X006813Y005151D01*
X006788Y005209D02*
X006906Y005209D01*
X006906Y005268D02*
X006742Y005268D01*
X006653Y005326D02*
X006906Y005326D01*
X006881Y005385D02*
X005429Y005385D01*
X005429Y005443D02*
X006847Y005443D01*
X006847Y005502D02*
X005429Y005502D01*
X005429Y005560D02*
X006847Y005560D01*
X006847Y005619D02*
X005429Y005619D01*
X005429Y005677D02*
X006847Y005677D01*
X006847Y005736D02*
X005379Y005736D01*
X005161Y005455D02*
X004955Y005455D01*
X004905Y005405D01*
X004905Y005055D01*
X004855Y005005D01*
X004610Y005005D01*
X004867Y005736D02*
X004943Y005736D01*
X005200Y005005D02*
X005555Y005005D01*
X006005Y004555D01*
X005930Y004380D01*
X005930Y003630D01*
X006090Y003864D02*
X007009Y003864D01*
X007009Y003922D02*
X006090Y003922D01*
X006090Y003981D02*
X007009Y003981D01*
X007009Y004039D02*
X006090Y004039D01*
X006090Y004098D02*
X007009Y004098D01*
X007009Y004156D02*
X006090Y004156D01*
X006024Y004555D02*
X006005Y004555D01*
X006215Y004917D02*
X006344Y004917D01*
X006365Y004858D02*
X006220Y004858D01*
X006278Y004800D02*
X006287Y004800D01*
X006312Y004975D02*
X006220Y004975D01*
X006220Y005034D02*
X006290Y005034D01*
X006290Y005092D02*
X006195Y005092D01*
X006159Y005151D02*
X006297Y005151D01*
X006322Y005209D02*
X006095Y005209D01*
X005815Y005209D02*
X005488Y005209D01*
X005437Y005268D02*
X006368Y005268D01*
X006456Y005326D02*
X005429Y005326D01*
X005636Y005151D02*
X005751Y005151D01*
X005715Y005092D02*
X005694Y005092D01*
X005773Y005970D02*
X008070Y005970D01*
X008065Y005958D02*
X008065Y005852D01*
X008105Y005755D01*
X008180Y005680D01*
X008277Y005640D01*
X008383Y005640D01*
X008480Y005680D01*
X008555Y005755D01*
X008595Y005852D01*
X008595Y005958D01*
X008555Y006055D01*
X008480Y006130D01*
X008383Y006170D01*
X008277Y006170D01*
X008180Y006130D01*
X008105Y006055D01*
X008065Y005958D01*
X008065Y005911D02*
X007924Y005911D01*
X007995Y005853D02*
X008065Y005853D01*
X008089Y005794D02*
X008013Y005794D01*
X008013Y005736D02*
X008125Y005736D01*
X008188Y005677D02*
X008013Y005677D01*
X008013Y005560D02*
X009250Y005560D01*
X009250Y005502D02*
X008817Y005502D01*
X008876Y005443D02*
X009250Y005443D01*
X009250Y005385D02*
X008885Y005385D01*
X008885Y005326D02*
X009250Y005326D01*
X009250Y005268D02*
X008885Y005268D01*
X008885Y005209D02*
X009250Y005209D01*
X009250Y005151D02*
X008886Y005151D01*
X008944Y005092D02*
X009250Y005092D01*
X009250Y005034D02*
X009003Y005034D01*
X009061Y004975D02*
X009250Y004975D01*
X009130Y004680D02*
X008680Y005130D01*
X008630Y005130D01*
X008443Y005502D02*
X008417Y005502D01*
X008472Y005677D02*
X009250Y005677D01*
X009250Y005619D02*
X007755Y005619D01*
X007755Y005677D02*
X007695Y005677D01*
X007695Y005619D02*
X007422Y005619D01*
X007422Y005677D02*
X007438Y005677D01*
X007438Y005736D02*
X007422Y005736D01*
X007422Y005794D02*
X007438Y005794D01*
X007455Y005853D02*
X007411Y005853D01*
X007352Y005911D02*
X007527Y005911D01*
X007695Y005911D02*
X007755Y005911D01*
X007755Y005853D02*
X007695Y005853D01*
X007695Y005794D02*
X007755Y005794D01*
X007755Y005736D02*
X007695Y005736D01*
X007438Y005560D02*
X007422Y005560D01*
X007422Y005502D02*
X007438Y005502D01*
X007441Y005443D02*
X007422Y005443D01*
X007418Y005385D02*
X007442Y005385D01*
X007174Y005130D02*
X007135Y005169D01*
X007135Y005630D01*
X007055Y006145D02*
X008217Y006145D01*
X008137Y006087D02*
X005795Y006087D01*
X005795Y006028D02*
X008094Y006028D01*
X008043Y005502D02*
X008013Y005502D01*
X008230Y005130D02*
X007686Y005130D01*
X007459Y004858D02*
X007401Y004858D01*
X007797Y003607D02*
X007797Y002714D01*
X007806Y002681D01*
X007823Y002651D01*
X007847Y002627D01*
X007877Y002610D01*
X007910Y002601D01*
X008094Y002601D01*
X008094Y003607D01*
X007797Y003607D01*
X007797Y003571D02*
X007663Y003571D01*
X007663Y003513D02*
X007797Y003513D01*
X007797Y003454D02*
X007663Y003454D01*
X007663Y003396D02*
X007797Y003396D01*
X007797Y003337D02*
X007663Y003337D01*
X007663Y003279D02*
X007797Y003279D01*
X007797Y003220D02*
X007663Y003220D01*
X007663Y003162D02*
X007797Y003162D01*
X007797Y003103D02*
X007663Y003103D01*
X007663Y003045D02*
X007797Y003045D01*
X007797Y002986D02*
X007663Y002986D01*
X007663Y002928D02*
X007797Y002928D01*
X007797Y002869D02*
X007663Y002869D01*
X007663Y002811D02*
X007797Y002811D01*
X007797Y002752D02*
X007663Y002752D01*
X007663Y002694D02*
X007802Y002694D01*
X007839Y002635D02*
X007621Y002635D01*
X007789Y002109D02*
X006836Y002109D01*
X006836Y002167D02*
X008624Y002167D01*
X008624Y002109D02*
X008071Y002109D01*
X008080Y002105D02*
X007983Y002145D01*
X007877Y002145D01*
X007780Y002105D01*
X007705Y002030D01*
X007665Y001933D01*
X006836Y001933D01*
X006836Y001875D02*
X007665Y001875D01*
X007665Y001827D02*
X007705Y001730D01*
X007780Y001655D01*
X007877Y001615D01*
X007983Y001615D01*
X008080Y001655D01*
X008155Y001730D01*
X008195Y001827D01*
X008195Y001933D01*
X008624Y001933D01*
X008624Y001875D02*
X008195Y001875D01*
X008195Y001933D02*
X008155Y002030D01*
X008080Y002105D01*
X008135Y002050D02*
X008624Y002050D01*
X008624Y001992D02*
X008171Y001992D01*
X008190Y001816D02*
X008624Y001816D01*
X008624Y001758D02*
X008166Y001758D01*
X008124Y001699D02*
X008624Y001699D01*
X008624Y001641D02*
X008044Y001641D01*
X007816Y001641D02*
X007494Y001641D01*
X007483Y001645D02*
X007377Y001645D01*
X007280Y001605D01*
X007205Y001530D01*
X007165Y001433D01*
X007165Y001327D01*
X007205Y001230D01*
X007280Y001155D01*
X007377Y001115D01*
X007483Y001115D01*
X007580Y001155D01*
X007655Y001230D01*
X007695Y001327D01*
X007695Y001433D01*
X007655Y001530D01*
X007580Y001605D01*
X007483Y001645D01*
X007366Y001641D02*
X006836Y001641D01*
X006836Y001699D02*
X007736Y001699D01*
X007694Y001758D02*
X006836Y001758D01*
X006836Y001816D02*
X007670Y001816D01*
X007665Y001827D02*
X007665Y001933D01*
X007689Y001992D02*
X006836Y001992D01*
X006836Y002050D02*
X007725Y002050D01*
X007603Y001582D02*
X008624Y001582D01*
X008624Y001524D02*
X007657Y001524D01*
X007682Y001465D02*
X008624Y001465D01*
X008624Y001407D02*
X007695Y001407D01*
X007695Y001348D02*
X008624Y001348D01*
X008624Y001290D02*
X007679Y001290D01*
X007655Y001231D02*
X008624Y001231D01*
X008624Y001173D02*
X007597Y001173D01*
X007263Y001173D02*
X006836Y001173D01*
X006836Y001231D02*
X007205Y001231D01*
X007181Y001290D02*
X006836Y001290D01*
X006836Y001348D02*
X007165Y001348D01*
X007165Y001407D02*
X006836Y001407D01*
X006836Y001465D02*
X007178Y001465D01*
X007203Y001524D02*
X006836Y001524D01*
X006836Y001582D02*
X007257Y001582D01*
X006836Y001114D02*
X008624Y001114D01*
X008624Y002226D02*
X006836Y002226D01*
X006836Y002284D02*
X008624Y002284D01*
X008653Y002343D02*
X006806Y002343D01*
X007052Y002635D02*
X006531Y002635D01*
X006618Y002694D02*
X007009Y002694D01*
X007009Y002752D02*
X006664Y002752D01*
X006688Y002811D02*
X007009Y002811D01*
X007009Y002869D02*
X006695Y002869D01*
X006695Y002928D02*
X007009Y002928D01*
X007009Y002986D02*
X006673Y002986D01*
X006794Y003045D02*
X007009Y003045D01*
X007009Y003103D02*
X006853Y003103D01*
X006878Y003162D02*
X007009Y003162D01*
X007009Y003220D02*
X006895Y003220D01*
X006895Y003279D02*
X007009Y003279D01*
X007009Y003337D02*
X006883Y003337D01*
X006859Y003396D02*
X007009Y003396D01*
X006329Y002635D02*
X006031Y002635D01*
X006118Y002694D02*
X006242Y002694D01*
X006196Y002752D02*
X006164Y002752D01*
X005976Y002343D02*
X005444Y002343D01*
X005444Y002401D02*
X009250Y002401D01*
X009250Y003747D02*
X008450Y003747D01*
X008450Y003805D02*
X009250Y003805D01*
X009250Y003864D02*
X008450Y003864D01*
X008450Y003922D02*
X009250Y003922D01*
X009250Y003981D02*
X008450Y003981D01*
X008450Y004039D02*
X009250Y004039D01*
X009250Y004098D02*
X008450Y004098D01*
X008450Y004156D02*
X009250Y004156D01*
X009250Y004215D02*
X008450Y004215D01*
X008450Y004273D02*
X009250Y004273D01*
X009250Y004332D02*
X008450Y004332D01*
X008450Y004390D02*
X009250Y004390D01*
X008996Y004449D02*
X008450Y004449D01*
X008450Y004507D02*
X008928Y004507D01*
X008891Y004566D02*
X008449Y004566D01*
X008423Y004624D02*
X008866Y004624D01*
X008535Y005736D02*
X009250Y005736D01*
X009250Y005794D02*
X008571Y005794D01*
X008595Y005853D02*
X009250Y005853D01*
X009250Y005911D02*
X008595Y005911D01*
X008590Y005970D02*
X009250Y005970D01*
X009250Y006028D02*
X008566Y006028D01*
X008523Y006087D02*
X009250Y006087D01*
X009250Y006145D02*
X008443Y006145D01*
X008393Y006613D02*
X009250Y006613D01*
X009250Y006555D02*
X007130Y006555D01*
X007169Y006496D02*
X009250Y006496D01*
X009250Y006438D02*
X007193Y006438D01*
X007195Y006379D02*
X009250Y006379D01*
X009250Y006321D02*
X007192Y006321D01*
X007168Y006262D02*
X009250Y006262D01*
X009250Y006204D02*
X007128Y006204D01*
X007060Y006613D02*
X007417Y006613D01*
X008094Y004624D02*
X008154Y004624D01*
X008154Y004566D02*
X008094Y004566D01*
X008094Y004507D02*
X008154Y004507D01*
X008154Y004449D02*
X008094Y004449D01*
X008094Y004390D02*
X008154Y004390D01*
X008154Y004332D02*
X008094Y004332D01*
X008094Y004273D02*
X008154Y004273D01*
X008154Y004215D02*
X008094Y004215D01*
X008094Y004156D02*
X008154Y004156D01*
X008154Y004098D02*
X008094Y004098D01*
X008094Y004039D02*
X008154Y004039D01*
X008154Y003981D02*
X008094Y003981D01*
X008094Y003922D02*
X008154Y003922D01*
X008154Y003864D02*
X008094Y003864D01*
X008094Y003805D02*
X008154Y003805D01*
X008154Y003747D02*
X008094Y003747D01*
X008094Y003571D02*
X008154Y003571D01*
X008154Y003513D02*
X008094Y003513D01*
X008094Y003454D02*
X008154Y003454D01*
X008154Y003396D02*
X008094Y003396D01*
X008094Y003337D02*
X008154Y003337D01*
X008154Y003279D02*
X008094Y003279D01*
X008094Y003220D02*
X008154Y003220D01*
X008154Y003162D02*
X008094Y003162D01*
X008094Y003103D02*
X008154Y003103D01*
X008154Y003045D02*
X008094Y003045D01*
X008094Y002986D02*
X008154Y002986D01*
X008154Y002928D02*
X008094Y002928D01*
X008094Y002869D02*
X008154Y002869D01*
X008154Y002811D02*
X008094Y002811D01*
X008094Y002752D02*
X008154Y002752D01*
X008154Y002694D02*
X008094Y002694D01*
X008094Y002635D02*
X008154Y002635D01*
X008429Y006672D02*
X009250Y006672D01*
X009250Y006730D02*
X008429Y006730D01*
X008429Y006789D02*
X009250Y006789D01*
X009250Y006847D02*
X008429Y006847D01*
X008429Y006906D02*
X009250Y006906D01*
X009250Y006964D02*
X008429Y006964D01*
X008429Y007023D02*
X009250Y007023D01*
X009250Y007081D02*
X008453Y007081D01*
X008493Y007140D02*
X009250Y007140D01*
X009250Y007198D02*
X008493Y007198D01*
X008493Y007257D02*
X009250Y007257D01*
X009250Y007315D02*
X008493Y007315D01*
X008493Y007374D02*
X009250Y007374D01*
X009250Y007432D02*
X008493Y007432D01*
X008493Y007491D02*
X009250Y007491D01*
X009250Y007549D02*
X008493Y007549D01*
X008493Y007608D02*
X009250Y007608D01*
X009250Y007666D02*
X008741Y007666D01*
X008799Y007725D02*
X009250Y007725D01*
X009250Y007783D02*
X008827Y007783D01*
X008845Y007842D02*
X009250Y007842D01*
X009250Y007900D02*
X008845Y007900D01*
X008834Y007959D02*
X009250Y007959D01*
X009250Y008017D02*
X008810Y008017D01*
X008759Y008076D02*
X009250Y008076D01*
X009250Y008134D02*
X008659Y008134D01*
X007930Y008829D02*
X007629Y009005D01*
X007629Y009360D01*
X007674Y009380D01*
X007629Y009005D02*
X006805Y009005D01*
X006538Y009272D01*
X006538Y009297D01*
X006538Y009494D02*
X006747Y009494D01*
X006747Y009494D01*
X006538Y009494D01*
X006538Y009494D01*
X006830Y009400D02*
X006834Y009407D01*
X006926Y009315D01*
X007051Y009315D01*
X007055Y009305D01*
X007130Y009230D01*
X007227Y009190D01*
X007333Y009190D01*
X007406Y009220D01*
X007406Y009178D01*
X007393Y009165D01*
X006871Y009165D01*
X006836Y009200D01*
X006855Y009219D01*
X006855Y009376D01*
X006830Y009400D01*
X006855Y009363D02*
X006879Y009363D01*
X006855Y009304D02*
X007056Y009304D01*
X007115Y009246D02*
X006855Y009246D01*
X006849Y009187D02*
X007406Y009187D01*
X007130Y010030D02*
X007005Y010030D01*
X006980Y010055D01*
X006568Y010055D01*
X006538Y010085D01*
X006538Y010282D02*
X006430Y010282D01*
X006538Y010282D02*
X006903Y010282D01*
X006783Y010478D02*
X006879Y010575D01*
X007074Y010575D01*
X007080Y010580D01*
X007280Y010780D02*
X007280Y011180D01*
X007180Y011405D02*
X007380Y011405D01*
X007635Y011150D01*
X007635Y011130D01*
X007635Y011630D02*
X007230Y011630D01*
X006930Y011330D01*
X006930Y011305D01*
X006694Y011069D01*
X006538Y011069D01*
X006538Y011266D02*
X006716Y011266D01*
X006805Y011355D01*
X006805Y011380D01*
X007055Y011255D02*
X006830Y011030D01*
X006830Y010930D01*
X006772Y010872D01*
X006538Y010872D01*
X006538Y010675D02*
X006800Y010675D01*
X007055Y010930D01*
X007055Y011255D02*
X007055Y011280D01*
X007180Y011405D01*
X007280Y010780D02*
X007430Y010630D01*
X007635Y010630D01*
X007905Y010705D02*
X007905Y012305D01*
X008225Y012185D02*
X007772Y012637D01*
X007772Y012815D01*
X007753Y013165D02*
X007792Y013165D01*
X007792Y013224D02*
X007753Y013224D01*
X007753Y013282D02*
X007792Y013282D01*
X007792Y013341D02*
X007753Y013341D01*
X007753Y013399D02*
X007792Y013399D01*
X007792Y013516D02*
X007753Y013516D01*
X007753Y013575D02*
X007792Y013575D01*
X007792Y013633D02*
X007753Y013633D01*
X007753Y013692D02*
X007792Y013692D01*
X007792Y013750D02*
X007753Y013750D01*
X007649Y013750D02*
X007581Y013750D01*
X007477Y013750D02*
X007438Y013750D01*
X007438Y013692D02*
X007477Y013692D01*
X007477Y013633D02*
X007438Y013633D01*
X007438Y013575D02*
X007477Y013575D01*
X007477Y013516D02*
X007438Y013516D01*
X007438Y013399D02*
X007477Y013399D01*
X007477Y013341D02*
X007438Y013341D01*
X007438Y013282D02*
X007477Y013282D01*
X007477Y013224D02*
X007438Y013224D01*
X007438Y013165D02*
X007477Y013165D01*
X007896Y013750D02*
X007964Y013750D01*
X008068Y013750D02*
X008107Y013750D01*
X008107Y013692D02*
X008068Y013692D01*
X008068Y013633D02*
X008107Y013633D01*
X008107Y013575D02*
X008068Y013575D01*
X008068Y013516D02*
X008107Y013516D01*
X008107Y013399D02*
X008068Y013399D01*
X008068Y013341D02*
X008107Y013341D01*
X008107Y013282D02*
X008068Y013282D01*
X008068Y013224D02*
X008107Y013224D01*
X008107Y013165D02*
X008068Y013165D01*
X008087Y012815D02*
X008087Y012623D01*
X008230Y012480D01*
X008430Y012480D01*
X008530Y012380D01*
X008530Y011705D01*
X008455Y011630D01*
X008225Y011630D01*
X008225Y011130D02*
X008430Y011130D01*
X008680Y011380D01*
X008680Y012537D01*
X008402Y012815D01*
X008383Y013165D02*
X008422Y013165D01*
X008422Y013224D02*
X008383Y013224D01*
X008383Y013282D02*
X008422Y013282D01*
X008422Y013341D02*
X008383Y013341D01*
X008383Y013399D02*
X008422Y013399D01*
X008422Y013516D02*
X008383Y013516D01*
X008383Y013575D02*
X008422Y013575D01*
X008422Y013633D02*
X008383Y013633D01*
X008383Y013692D02*
X008422Y013692D01*
X008422Y013750D02*
X008383Y013750D01*
X008279Y013750D02*
X008211Y013750D01*
X008930Y014380D02*
X008686Y014624D01*
X008686Y015380D01*
X008686Y016130D01*
X008430Y016386D01*
X008430Y016961D01*
X008270Y016500D02*
X006413Y016500D01*
X006366Y016441D02*
X008270Y016441D01*
X008174Y016130D02*
X007680Y016130D01*
X007430Y015880D01*
X007430Y015380D01*
X007621Y015564D02*
X007906Y015564D01*
X007906Y015505D02*
X007665Y015505D01*
X007590Y015622D02*
X007924Y015622D01*
X007994Y015681D02*
X007590Y015681D01*
X007590Y015739D02*
X008526Y015739D01*
X008526Y015798D02*
X007590Y015798D01*
X007632Y015856D02*
X007949Y015856D01*
X007906Y015915D02*
X007691Y015915D01*
X007589Y016266D02*
X006042Y016266D01*
X006100Y016324D02*
X007906Y016324D01*
X007928Y016383D02*
X006275Y016383D01*
X005765Y016941D02*
X005994Y017170D01*
X005994Y017261D01*
X006026Y017339D01*
X005971Y017393D01*
X005971Y017396D01*
X005856Y017396D01*
X005856Y017791D01*
X005796Y017791D01*
X005796Y017396D01*
X005680Y017396D01*
X005680Y017393D01*
X005604Y017317D01*
X005553Y017317D01*
X005553Y017234D01*
X005671Y017115D01*
X005671Y017115D01*
X005765Y017021D01*
X005765Y016941D01*
X005765Y016968D02*
X005791Y016968D01*
X005760Y017026D02*
X005850Y017026D01*
X005908Y017085D02*
X005702Y017085D01*
X005643Y017143D02*
X005967Y017143D01*
X005994Y017202D02*
X005585Y017202D01*
X005553Y017260D02*
X005994Y017260D01*
X006017Y017319D02*
X005605Y017319D01*
X005664Y017377D02*
X005988Y017377D01*
X005856Y017436D02*
X005796Y017436D01*
X005796Y017494D02*
X005856Y017494D01*
X005856Y017553D02*
X005796Y017553D01*
X005796Y017611D02*
X005856Y017611D01*
X005856Y017670D02*
X005796Y017670D01*
X005796Y017728D02*
X005856Y017728D01*
X005856Y017787D02*
X005796Y017787D01*
X005796Y017904D02*
X005856Y017904D01*
X005856Y017962D02*
X005796Y017962D01*
X005796Y018021D02*
X005856Y018021D01*
X005856Y018079D02*
X005796Y018079D01*
X005796Y018138D02*
X005856Y018138D01*
X005856Y018196D02*
X005796Y018196D01*
X005665Y018255D02*
X007965Y018255D01*
X007965Y018329D02*
X008400Y018329D01*
X008400Y018587D01*
X008078Y018587D01*
X008045Y018578D01*
X008015Y018561D01*
X007991Y018537D01*
X007974Y018507D01*
X007965Y018474D01*
X007965Y018329D01*
X007965Y018372D02*
X007332Y018372D01*
X007329Y018369D02*
X007358Y018387D01*
X007382Y018411D01*
X007400Y018440D01*
X007408Y018474D01*
X007408Y018835D01*
X007033Y018835D01*
X007033Y018895D01*
X006973Y018895D01*
X006973Y019369D01*
X006710Y019369D01*
X006677Y019360D01*
X006647Y019343D01*
X006623Y019318D01*
X006606Y019289D01*
X006597Y019256D01*
X006597Y018895D01*
X006973Y018895D01*
X006973Y018835D01*
X006597Y018835D01*
X006597Y018474D01*
X006606Y018440D01*
X006623Y018411D01*
X006647Y018387D01*
X006677Y018369D01*
X006710Y018361D01*
X006973Y018361D01*
X006973Y018835D01*
X007033Y018835D01*
X007033Y018361D01*
X007295Y018361D01*
X007329Y018369D01*
X007394Y018430D02*
X007965Y018430D01*
X007969Y018489D02*
X007408Y018489D01*
X007408Y018547D02*
X008002Y018547D01*
X008400Y018547D02*
X008460Y018547D01*
X008460Y018489D02*
X008400Y018489D01*
X008400Y018430D02*
X008460Y018430D01*
X008460Y018372D02*
X008400Y018372D01*
X008400Y018313D02*
X005689Y018313D01*
X005695Y018372D02*
X006673Y018372D01*
X006612Y018430D02*
X005695Y018430D01*
X005672Y018489D02*
X006597Y018489D01*
X006597Y018547D02*
X005638Y018547D01*
X005578Y018606D02*
X006597Y018606D01*
X006597Y018664D02*
X001610Y018664D01*
X001610Y018606D02*
X004282Y018606D01*
X004222Y018547D02*
X001610Y018547D01*
X001610Y018489D02*
X004188Y018489D01*
X004165Y018430D02*
X001610Y018430D01*
X001610Y018372D02*
X004165Y018372D01*
X004171Y018313D02*
X001610Y018313D01*
X001610Y018255D02*
X004195Y018255D01*
X004239Y018196D02*
X001610Y018196D01*
X001610Y018138D02*
X003419Y018138D01*
X003373Y018079D02*
X001610Y018079D01*
X001610Y018021D02*
X003373Y018021D01*
X003373Y017962D02*
X001610Y017962D01*
X001610Y017904D02*
X003373Y017904D01*
X003373Y017845D02*
X001610Y017845D01*
X001610Y017787D02*
X003373Y017787D01*
X003373Y017728D02*
X001610Y017728D01*
X001610Y017670D02*
X003373Y017670D01*
X003373Y017611D02*
X001610Y017611D01*
X001610Y017553D02*
X003373Y017553D01*
X003373Y017494D02*
X001610Y017494D01*
X001610Y017436D02*
X003373Y017436D01*
X003389Y017377D02*
X001610Y017377D01*
X001610Y017319D02*
X003448Y017319D01*
X003806Y017260D02*
X001610Y017260D01*
X001610Y017202D02*
X003840Y017202D01*
X003933Y017143D02*
X001610Y017143D01*
X001610Y017085D02*
X003923Y017085D01*
X003867Y017026D02*
X001610Y017026D01*
X001610Y016968D02*
X003843Y016968D01*
X003828Y016909D02*
X001610Y016909D01*
X001610Y016851D02*
X003828Y016851D01*
X003843Y016792D02*
X001610Y016792D01*
X001610Y016734D02*
X003867Y016734D01*
X003923Y016675D02*
X001610Y016675D01*
X001610Y016617D02*
X003967Y016617D01*
X004026Y016558D02*
X001610Y016558D01*
X001610Y016500D02*
X004084Y016500D01*
X004143Y016441D02*
X001610Y016441D01*
X001610Y016383D02*
X004097Y016383D01*
X003999Y016324D02*
X001610Y016324D01*
X001610Y016266D02*
X003949Y016266D01*
X003925Y016207D02*
X001610Y016207D01*
X001610Y016149D02*
X003915Y016149D01*
X003915Y016090D02*
X001610Y016090D01*
X001610Y016032D02*
X003934Y016032D01*
X003962Y015973D02*
X001610Y015973D01*
X001610Y015915D02*
X004021Y015915D01*
X004127Y015645D02*
X004030Y015605D01*
X003955Y015530D01*
X003915Y015433D01*
X003915Y015327D01*
X003955Y015230D01*
X004030Y015155D01*
X004127Y015115D01*
X004233Y015115D01*
X004330Y015155D01*
X004405Y015230D01*
X004445Y015327D01*
X004445Y015433D01*
X004405Y015530D01*
X004330Y015605D01*
X004233Y015645D01*
X004127Y015645D01*
X004072Y015622D02*
X001610Y015622D01*
X001610Y015564D02*
X003989Y015564D01*
X003945Y015505D02*
X001610Y015505D01*
X001610Y015447D02*
X003921Y015447D01*
X003915Y015388D02*
X001610Y015388D01*
X001610Y015330D02*
X003915Y015330D01*
X003938Y015271D02*
X001610Y015271D01*
X001610Y015213D02*
X003973Y015213D01*
X004033Y015154D02*
X001610Y015154D01*
X001610Y015096D02*
X004795Y015096D01*
X004795Y015154D02*
X004327Y015154D01*
X004387Y015213D02*
X004795Y015213D01*
X004795Y015271D02*
X004422Y015271D01*
X004445Y015330D02*
X004795Y015330D01*
X004795Y015388D02*
X004445Y015388D01*
X004439Y015447D02*
X004795Y015447D01*
X004795Y015505D02*
X004415Y015505D01*
X004371Y015564D02*
X004795Y015564D01*
X004795Y015622D02*
X004288Y015622D01*
X004339Y015915D02*
X004669Y015915D01*
X004611Y015973D02*
X004398Y015973D01*
X004426Y016032D02*
X004552Y016032D01*
X004494Y016090D02*
X004445Y016090D01*
X004712Y016324D02*
X005445Y016324D01*
X005445Y016266D02*
X004771Y016266D01*
X004829Y016207D02*
X005445Y016207D01*
X005445Y016149D02*
X004888Y016149D01*
X004946Y016090D02*
X005445Y016090D01*
X005445Y016032D02*
X005005Y016032D01*
X005063Y015973D02*
X005445Y015973D01*
X005445Y015915D02*
X005115Y015915D01*
X005115Y015921D02*
X004671Y016365D01*
X004733Y016365D01*
X004830Y016405D01*
X004905Y016480D01*
X004945Y016577D01*
X004945Y016683D01*
X004905Y016780D01*
X004830Y016855D01*
X004733Y016895D01*
X004686Y016895D01*
X004686Y017025D01*
X004705Y016980D01*
X004780Y016905D01*
X004877Y016865D01*
X004983Y016865D01*
X005080Y016905D01*
X005155Y016980D01*
X005195Y017077D01*
X005195Y017183D01*
X005155Y017280D01*
X005119Y017315D01*
X005119Y017379D01*
X005181Y017317D01*
X005233Y017317D01*
X005233Y017101D01*
X005326Y017007D01*
X005445Y016889D01*
X005445Y013471D01*
X005443Y013470D01*
X005383Y013495D01*
X005277Y013495D01*
X005180Y013455D01*
X005115Y013390D01*
X005115Y015921D01*
X005115Y015856D02*
X005445Y015856D01*
X005445Y015798D02*
X005115Y015798D01*
X005115Y015739D02*
X005445Y015739D01*
X005445Y015681D02*
X005115Y015681D01*
X005115Y015622D02*
X005445Y015622D01*
X005445Y015564D02*
X005115Y015564D01*
X005115Y015505D02*
X005445Y015505D01*
X005445Y015447D02*
X005115Y015447D01*
X005115Y015388D02*
X005445Y015388D01*
X005445Y015330D02*
X005115Y015330D01*
X005115Y015271D02*
X005445Y015271D01*
X005445Y015213D02*
X005115Y015213D01*
X005115Y015154D02*
X005445Y015154D01*
X005445Y015096D02*
X005115Y015096D01*
X005115Y015037D02*
X005445Y015037D01*
X005445Y014979D02*
X005115Y014979D01*
X005115Y014920D02*
X005445Y014920D01*
X005445Y014862D02*
X005115Y014862D01*
X005115Y014803D02*
X005445Y014803D01*
X005445Y014745D02*
X005115Y014745D01*
X005115Y014686D02*
X005445Y014686D01*
X005445Y014628D02*
X005115Y014628D01*
X005115Y014569D02*
X005445Y014569D01*
X005445Y014511D02*
X005115Y014511D01*
X005115Y014452D02*
X005445Y014452D01*
X005445Y014394D02*
X005115Y014394D01*
X005115Y014335D02*
X005445Y014335D01*
X005445Y014277D02*
X005115Y014277D01*
X005115Y014218D02*
X005445Y014218D01*
X005445Y014160D02*
X005115Y014160D01*
X005115Y014101D02*
X005445Y014101D01*
X005445Y014043D02*
X005115Y014043D01*
X005115Y013984D02*
X005445Y013984D01*
X005445Y013926D02*
X005115Y013926D01*
X005115Y013867D02*
X005445Y013867D01*
X005445Y013809D02*
X005115Y013809D01*
X005115Y013750D02*
X005445Y013750D01*
X005445Y013692D02*
X005115Y013692D01*
X005115Y013633D02*
X005445Y013633D01*
X005445Y013575D02*
X005115Y013575D01*
X005115Y013516D02*
X005445Y013516D01*
X005605Y013405D02*
X005430Y013230D01*
X005330Y013230D01*
X005187Y013458D02*
X005115Y013458D01*
X005115Y013399D02*
X005124Y013399D01*
X004955Y013155D02*
X004955Y015855D01*
X004093Y016717D01*
X004093Y016880D01*
X004093Y017585D01*
X003948Y018021D02*
X004239Y018021D01*
X004239Y018079D02*
X003948Y018079D01*
X003902Y018138D02*
X004285Y018138D01*
X004526Y018284D02*
X004430Y018380D01*
X004526Y018284D02*
X004526Y017743D01*
X004526Y016784D01*
X004680Y016630D01*
X004866Y016441D02*
X005445Y016441D01*
X005445Y016383D02*
X004775Y016383D01*
X004913Y016500D02*
X005445Y016500D01*
X005445Y016558D02*
X004937Y016558D01*
X004945Y016617D02*
X005445Y016617D01*
X005445Y016675D02*
X004945Y016675D01*
X004924Y016734D02*
X005445Y016734D01*
X005445Y016792D02*
X004893Y016792D01*
X004834Y016851D02*
X005445Y016851D01*
X005425Y016909D02*
X005084Y016909D01*
X005142Y016968D02*
X005366Y016968D01*
X005326Y017007D02*
X005326Y017007D01*
X005308Y017026D02*
X005174Y017026D01*
X005195Y017085D02*
X005249Y017085D01*
X005233Y017143D02*
X005195Y017143D01*
X005187Y017202D02*
X005233Y017202D01*
X005233Y017260D02*
X005163Y017260D01*
X005180Y017319D02*
X005119Y017319D01*
X005119Y017377D02*
X005121Y017377D01*
X004959Y017160D02*
X004959Y017821D01*
X004698Y018196D02*
X004686Y018196D01*
X004686Y018255D02*
X005195Y018255D01*
X005171Y018313D02*
X004689Y018313D01*
X004695Y018372D02*
X005165Y018372D01*
X005165Y018430D02*
X004695Y018430D01*
X004672Y018489D02*
X005188Y018489D01*
X005222Y018547D02*
X004638Y018547D01*
X004578Y018606D02*
X005282Y018606D01*
X005430Y018380D02*
X005393Y018343D01*
X005393Y017743D01*
X005393Y017167D01*
X005605Y016955D01*
X005605Y013405D01*
X006105Y012955D02*
X006105Y012480D01*
X005869Y012244D01*
X006105Y012955D02*
X006305Y013155D01*
X006538Y010478D02*
X006783Y010478D01*
X006288Y009022D02*
X006430Y008880D01*
X006288Y009022D02*
X006263Y009022D01*
X005869Y008666D02*
X005930Y008605D01*
X005344Y007608D02*
X003920Y007608D01*
X003920Y007549D02*
X005344Y007549D01*
X005268Y007666D02*
X005092Y007666D01*
X005151Y007725D02*
X005209Y007725D01*
X005207Y007783D02*
X005152Y007783D01*
X005152Y007842D02*
X005207Y007842D01*
X005207Y007900D02*
X005152Y007900D01*
X005152Y007959D02*
X005207Y007959D01*
X005207Y008017D02*
X005152Y008017D01*
X005152Y008076D02*
X005207Y008076D01*
X005207Y008134D02*
X005152Y008134D01*
X005152Y008193D02*
X005207Y008193D01*
X005207Y008251D02*
X005152Y008251D01*
X005168Y008310D02*
X005192Y008310D01*
X004559Y007666D02*
X003906Y007666D01*
X003974Y007725D02*
X004501Y007725D01*
X004499Y007783D02*
X004016Y007783D01*
X003967Y005560D02*
X004134Y005560D01*
X004075Y005502D02*
X004033Y005502D01*
X004020Y004215D02*
X003842Y004215D01*
X003881Y004156D02*
X004040Y004156D01*
X004052Y004098D02*
X003881Y004098D01*
X003881Y004039D02*
X004052Y004039D01*
X004052Y003981D02*
X003881Y003981D01*
X003881Y003922D02*
X004052Y003922D01*
X004052Y003864D02*
X003881Y003864D01*
X003881Y003805D02*
X004070Y003805D01*
X004052Y003747D02*
X003881Y003747D01*
X003855Y003688D02*
X004052Y003688D01*
X004052Y003571D02*
X003856Y003571D01*
X003881Y003513D02*
X004052Y003513D01*
X004071Y003454D02*
X003881Y003454D01*
X003881Y003396D02*
X004052Y003396D01*
X004052Y003337D02*
X003881Y003337D01*
X003881Y003279D02*
X004052Y003279D01*
X004052Y003220D02*
X003881Y003220D01*
X003881Y003162D02*
X004052Y003162D01*
X004052Y003103D02*
X003881Y003103D01*
X003841Y003045D02*
X004101Y003045D01*
X004182Y002869D02*
X004201Y002869D01*
X004201Y002811D02*
X004182Y002811D01*
X004182Y002752D02*
X004201Y002752D01*
X004201Y002694D02*
X004182Y002694D01*
X004182Y002635D02*
X004201Y002635D01*
X004201Y002577D02*
X004182Y002577D01*
X004182Y002518D02*
X004201Y002518D01*
X004201Y002460D02*
X004182Y002460D01*
X004182Y002401D02*
X004201Y002401D01*
X004201Y002343D02*
X004182Y002343D01*
X004182Y002284D02*
X004201Y002284D01*
X004201Y002226D02*
X004182Y002226D01*
X004182Y002167D02*
X004201Y002167D01*
X004201Y002109D02*
X004182Y002109D01*
X004336Y002109D02*
X004357Y002109D01*
X004377Y002050D02*
X002983Y002050D01*
X003003Y002109D02*
X003019Y002109D01*
X003178Y001933D02*
X003237Y001933D01*
X003237Y001875D02*
X003178Y001875D01*
X003178Y001816D02*
X003237Y001816D01*
X003237Y001758D02*
X003178Y001758D01*
X003178Y001699D02*
X003237Y001699D01*
X003237Y001641D02*
X003178Y001641D01*
X003178Y001582D02*
X003237Y001582D01*
X003237Y001524D02*
X003178Y001524D01*
X002899Y001992D02*
X004460Y001992D01*
X004547Y001933D02*
X004781Y001933D01*
X004693Y001875D02*
X004636Y001875D01*
X004656Y001816D02*
X004672Y001816D01*
X004672Y001758D02*
X004656Y001758D01*
X004656Y001699D02*
X004672Y001699D01*
X004672Y001641D02*
X004656Y001641D01*
X004656Y001582D02*
X004672Y001582D01*
X004672Y001524D02*
X004656Y001524D01*
X004656Y001465D02*
X004672Y001465D01*
X004672Y001348D02*
X004656Y001348D01*
X004656Y001290D02*
X004672Y001290D01*
X004672Y001231D02*
X004656Y001231D01*
X004656Y001173D02*
X004672Y001173D01*
X004672Y001114D02*
X004656Y001114D01*
X004182Y001524D02*
X004122Y001524D01*
X004122Y001582D02*
X004182Y001582D01*
X004182Y001641D02*
X004122Y001641D01*
X004122Y001699D02*
X004182Y001699D01*
X004182Y001758D02*
X004122Y001758D01*
X004122Y001816D02*
X004182Y001816D01*
X004182Y001875D02*
X004122Y001875D01*
X004122Y001933D02*
X004182Y001933D01*
X003757Y001933D02*
X003602Y001933D01*
X003809Y002928D02*
X004864Y002928D01*
X004870Y002869D02*
X004922Y002869D01*
X004930Y002811D02*
X004870Y002811D01*
X004870Y002752D02*
X004930Y002752D01*
X004930Y002694D02*
X004870Y002694D01*
X004870Y002635D02*
X004930Y002635D01*
X004930Y002577D02*
X004870Y002577D01*
X004870Y002518D02*
X004930Y002518D01*
X004805Y002986D02*
X003750Y002986D01*
X004317Y002869D02*
X004435Y002869D01*
X004735Y003045D02*
X004747Y003045D01*
X005442Y004004D02*
X005161Y004285D01*
X005161Y004555D01*
X005444Y002635D02*
X005829Y002635D01*
X005946Y002284D02*
X005444Y002284D01*
X005444Y002226D02*
X005946Y002226D01*
X005946Y002167D02*
X005444Y002167D01*
X005444Y002109D02*
X005946Y002109D01*
X005946Y001348D02*
X005680Y001348D01*
X005680Y001290D02*
X005946Y001290D01*
X005946Y001231D02*
X005680Y001231D01*
X005680Y001173D02*
X005946Y001173D01*
X005946Y001114D02*
X005680Y001114D01*
X002813Y001933D02*
X002579Y001933D01*
X002667Y001875D02*
X002724Y001875D01*
X002703Y001816D02*
X002688Y001816D01*
X002688Y001758D02*
X002703Y001758D01*
X002703Y001699D02*
X002688Y001699D01*
X002688Y001641D02*
X002703Y001641D01*
X002703Y001582D02*
X002688Y001582D01*
X002688Y001524D02*
X002703Y001524D01*
X002703Y001465D02*
X002688Y001465D01*
X002688Y001348D02*
X002703Y001348D01*
X002703Y001290D02*
X002688Y001290D01*
X002688Y001231D02*
X002703Y001231D01*
X002703Y001173D02*
X002688Y001173D01*
X002688Y001114D02*
X002703Y001114D01*
X002489Y001992D02*
X002429Y001992D01*
X002429Y002050D02*
X002489Y002050D01*
X002489Y002109D02*
X002429Y002109D01*
X002429Y002167D02*
X002489Y002167D01*
X002489Y002226D02*
X002429Y002226D01*
X002429Y002284D02*
X002489Y002284D01*
X002489Y002343D02*
X002429Y002343D01*
X002429Y002401D02*
X002489Y002401D01*
X002154Y001407D02*
X001610Y001407D01*
X001610Y001465D02*
X001680Y001465D01*
X001680Y001524D02*
X001610Y001524D01*
X001610Y001582D02*
X001680Y001582D01*
X001680Y001641D02*
X001610Y001641D01*
X001610Y001699D02*
X001680Y001699D01*
X001680Y001758D02*
X001610Y001758D01*
X001610Y001816D02*
X001680Y001816D01*
X001700Y001875D02*
X001610Y001875D01*
X001610Y001933D02*
X001789Y001933D01*
X001680Y001348D02*
X001610Y001348D01*
X001610Y001290D02*
X001680Y001290D01*
X001680Y001231D02*
X001610Y001231D01*
X001610Y001173D02*
X001680Y001173D01*
X001680Y001114D02*
X001610Y001114D01*
X002736Y008905D02*
X002880Y008905D01*
X002883Y010065D02*
X002943Y010065D01*
X002943Y010123D02*
X002883Y010123D01*
X002883Y010182D02*
X002943Y010182D01*
X003310Y010675D02*
X003280Y010705D01*
X003310Y010675D02*
X003822Y010675D01*
X003822Y010478D02*
X003332Y010478D01*
X002691Y011995D02*
X002669Y011995D01*
X002631Y012054D02*
X002729Y012054D01*
X002798Y012112D02*
X002562Y012112D01*
X002298Y012112D02*
X002062Y012112D01*
X002131Y012054D02*
X002229Y012054D01*
X002191Y011995D02*
X002169Y011995D01*
X002180Y011791D02*
X002155Y011730D01*
X002137Y011712D01*
X002194Y011712D01*
X002194Y011435D01*
X002254Y011435D01*
X002254Y011681D01*
X002205Y011730D01*
X002180Y011791D01*
X002168Y011761D02*
X002192Y011761D01*
X002194Y011703D02*
X002233Y011703D01*
X002254Y011644D02*
X002194Y011644D01*
X002194Y011586D02*
X002254Y011586D01*
X002254Y011527D02*
X002194Y011527D01*
X002194Y011469D02*
X002254Y011469D01*
X002194Y011410D02*
X001610Y011410D01*
X001610Y011352D02*
X001956Y011352D01*
X001956Y011293D02*
X001610Y011293D01*
X001610Y011235D02*
X001671Y011235D01*
X001643Y011176D02*
X001610Y011176D01*
X001610Y011118D02*
X001641Y011118D01*
X001641Y011059D02*
X001610Y011059D01*
X001610Y011001D02*
X001641Y011001D01*
X001610Y011469D02*
X001956Y011469D01*
X001956Y011527D02*
X001610Y011527D01*
X001610Y011586D02*
X001956Y011586D01*
X001807Y011644D02*
X001610Y011644D01*
X001610Y011703D02*
X001733Y011703D01*
X001692Y011761D02*
X001610Y011761D01*
X001610Y011820D02*
X001668Y011820D01*
X001665Y011878D02*
X001610Y011878D01*
X001610Y011937D02*
X001667Y011937D01*
X001691Y011995D02*
X001610Y011995D01*
X001610Y012054D02*
X001729Y012054D01*
X001798Y012112D02*
X001610Y012112D01*
X002017Y011118D02*
X002017Y011118D01*
X002017Y011059D02*
X002077Y011059D01*
X002077Y011001D02*
X002017Y011001D01*
X002017Y010825D02*
X002077Y010825D01*
X002077Y010767D02*
X002017Y010767D01*
X002017Y010708D02*
X002077Y010708D01*
X002077Y010650D02*
X002017Y010650D01*
X002452Y010767D02*
X002507Y010767D01*
X002507Y010825D02*
X002452Y010825D01*
X002452Y010884D02*
X002507Y010884D01*
X002507Y010416D02*
X002452Y010416D01*
X002452Y010357D02*
X002507Y010357D01*
X002507Y010299D02*
X002452Y010299D01*
X001610Y014160D02*
X004795Y014160D01*
X004795Y014218D02*
X001610Y014218D01*
X001610Y014277D02*
X004795Y014277D01*
X004795Y014335D02*
X001610Y014335D01*
X001610Y014394D02*
X004795Y014394D01*
X004795Y014452D02*
X001610Y014452D01*
X001610Y014511D02*
X004795Y014511D01*
X004795Y014569D02*
X001610Y014569D01*
X001610Y014628D02*
X004795Y014628D01*
X004795Y014686D02*
X001610Y014686D01*
X001610Y014745D02*
X004795Y014745D01*
X004795Y014803D02*
X001610Y014803D01*
X001610Y014862D02*
X004795Y014862D01*
X004795Y014920D02*
X001610Y014920D01*
X001610Y014979D02*
X004795Y014979D01*
X004795Y015037D02*
X001610Y015037D01*
X001610Y015681D02*
X004795Y015681D01*
X004795Y015739D02*
X001610Y015739D01*
X001610Y015798D02*
X004786Y015798D01*
X004728Y015856D02*
X001610Y015856D01*
X001610Y018723D02*
X006597Y018723D01*
X006597Y018781D02*
X002182Y018781D01*
X002224Y018840D02*
X006973Y018840D01*
X006973Y018898D02*
X007033Y018898D01*
X007033Y018895D02*
X007033Y019369D01*
X007295Y019369D01*
X007329Y019360D01*
X007358Y019343D01*
X007382Y019318D01*
X007400Y019289D01*
X007408Y019256D01*
X007408Y018895D01*
X007033Y018895D01*
X007033Y018840D02*
X009250Y018840D01*
X009250Y018898D02*
X007408Y018898D01*
X007408Y018957D02*
X009250Y018957D01*
X009250Y019015D02*
X007408Y019015D01*
X007408Y019074D02*
X009250Y019074D01*
X009250Y019132D02*
X007408Y019132D01*
X007408Y019191D02*
X009250Y019191D01*
X009250Y019249D02*
X007408Y019249D01*
X007389Y019308D02*
X009250Y019308D01*
X009250Y019366D02*
X007305Y019366D01*
X007408Y018781D02*
X009250Y018781D01*
X009250Y018723D02*
X007408Y018723D01*
X007408Y018664D02*
X009250Y018664D01*
X009250Y018606D02*
X007408Y018606D01*
X007033Y018606D02*
X006973Y018606D01*
X006973Y018664D02*
X007033Y018664D01*
X007033Y018723D02*
X006973Y018723D01*
X006973Y018781D02*
X007033Y018781D01*
X007033Y018957D02*
X006973Y018957D01*
X006973Y019015D02*
X007033Y019015D01*
X007033Y019074D02*
X006973Y019074D01*
X006973Y019132D02*
X007033Y019132D01*
X007033Y019191D02*
X006973Y019191D01*
X006973Y019249D02*
X007033Y019249D01*
X007033Y019308D02*
X006973Y019308D01*
X006973Y019366D02*
X007033Y019366D01*
X006700Y019366D02*
X002231Y019366D01*
X002231Y019308D02*
X006617Y019308D01*
X006597Y019249D02*
X001856Y019249D01*
X001856Y019191D02*
X001796Y019191D01*
X001796Y019132D02*
X001856Y019132D01*
X001856Y019074D02*
X001796Y019074D01*
X001796Y019015D02*
X001856Y019015D01*
X001856Y018957D02*
X001796Y018957D01*
X001796Y018898D02*
X001856Y018898D01*
X001856Y018840D02*
X001796Y018840D01*
X001796Y018781D02*
X001856Y018781D01*
X002231Y018898D02*
X006597Y018898D01*
X006597Y018957D02*
X002231Y018957D01*
X002231Y019015D02*
X006597Y019015D01*
X006597Y019074D02*
X002231Y019074D01*
X002231Y019132D02*
X006597Y019132D01*
X006597Y019191D02*
X002231Y019191D01*
X002231Y019425D02*
X009250Y019425D01*
X009250Y019483D02*
X002231Y019483D01*
X002231Y019542D02*
X009250Y019542D01*
X009250Y019600D02*
X002231Y019600D01*
X002229Y019659D02*
X009250Y019659D01*
X009250Y018547D02*
X008858Y018547D01*
X008891Y018489D02*
X009250Y018489D01*
X009250Y018430D02*
X008895Y018430D01*
X008895Y018372D02*
X009250Y018372D01*
X009250Y018313D02*
X008460Y018313D01*
X008460Y018255D02*
X008400Y018255D01*
X008400Y018196D02*
X008460Y018196D01*
X008460Y018138D02*
X008400Y018138D01*
X008400Y018079D02*
X008460Y018079D01*
X008460Y018021D02*
X008400Y018021D01*
X008814Y018021D02*
X009250Y018021D01*
X009250Y018079D02*
X008878Y018079D01*
X008895Y018138D02*
X009250Y018138D01*
X009250Y018196D02*
X008895Y018196D01*
X008895Y018255D02*
X009250Y018255D01*
X008461Y015856D02*
X008399Y015856D01*
X008354Y015681D02*
X008488Y015681D01*
X008429Y015622D02*
X008424Y015622D01*
X008204Y015622D02*
X008144Y015622D01*
X008144Y015564D02*
X008204Y015564D01*
X008204Y015505D02*
X008144Y015505D01*
X008144Y015447D02*
X008204Y015447D01*
X008204Y015681D02*
X008144Y015681D01*
X007033Y018372D02*
X006973Y018372D01*
X006973Y018430D02*
X007033Y018430D01*
X007033Y018489D02*
X006973Y018489D01*
X006973Y018547D02*
X007033Y018547D01*
X005233Y018196D02*
X005221Y018196D01*
X004959Y017160D02*
X004930Y017130D01*
X004776Y016909D02*
X004686Y016909D01*
X004686Y016968D02*
X004718Y016968D01*
X004795Y013633D02*
X004613Y013633D01*
X004613Y013575D02*
X004795Y013575D01*
X004795Y013516D02*
X004613Y013516D01*
X004688Y013458D02*
X004795Y013458D01*
X004786Y013399D02*
X004795Y013399D01*
X004605Y013205D02*
X004605Y013080D01*
X007905Y010705D02*
X007980Y010630D01*
X008225Y010630D01*
X008454Y010123D02*
X009250Y010123D01*
X009250Y010065D02*
X008721Y010065D01*
X008829Y010006D02*
X009250Y010006D01*
X009250Y009948D02*
X008883Y009948D01*
X008907Y009889D02*
X009250Y009889D01*
X009250Y009831D02*
X008920Y009831D01*
X008920Y009772D02*
X009250Y009772D01*
X009250Y009714D02*
X008904Y009714D01*
X008589Y010065D02*
X008454Y010065D01*
X008452Y010006D02*
X008481Y010006D01*
X008225Y012130D02*
X008225Y012185D01*
D34*
X006263Y011738D02*
X006263Y011563D01*
X005680Y010980D01*
X002736Y009755D02*
X002555Y009755D01*
X002480Y009680D01*
X002480Y009405D01*
X002405Y009330D01*
X002224Y009330D01*
D35*
X001930Y008380D03*
X002430Y007880D03*
X002780Y007880D03*
X002980Y007330D03*
X003455Y006805D03*
X003730Y007255D03*
X003655Y007580D03*
X003780Y007905D03*
X003880Y008230D03*
X004180Y008480D03*
X004255Y007630D03*
X004080Y007430D03*
X004080Y007155D03*
X004080Y006880D03*
X004080Y006605D03*
X004080Y006330D03*
X004080Y006055D03*
X004255Y005830D03*
X004530Y005830D03*
X004805Y005830D03*
X005080Y005830D03*
X005355Y005830D03*
X005630Y005830D03*
X005880Y005930D03*
X005880Y006205D03*
X005880Y006480D03*
X005880Y006755D03*
X005955Y007005D03*
X006230Y007005D03*
X006505Y007005D03*
X006780Y007005D03*
X007055Y007080D03*
X007055Y007355D03*
X007055Y007630D03*
X007055Y007905D03*
X007055Y008180D03*
X006780Y007830D03*
X006505Y007830D03*
X006230Y007830D03*
X005955Y007830D03*
X005930Y008605D03*
X006455Y008605D03*
X006980Y009230D03*
X007280Y009455D03*
X007130Y010030D03*
X006903Y010282D03*
X007080Y010580D03*
X007055Y010930D03*
X007280Y011180D03*
X006680Y012005D03*
X006330Y012630D03*
X006305Y013155D03*
X006430Y014380D03*
X007430Y015380D03*
X007880Y014980D03*
X007430Y016880D03*
X006259Y017209D03*
X006180Y016630D03*
X005430Y018380D03*
X004930Y017130D03*
X004680Y016630D03*
X004180Y016130D03*
X004180Y015380D03*
X004093Y016880D03*
X004430Y018380D03*
X005230Y015255D03*
X005330Y013230D03*
X005130Y012605D03*
X005105Y012180D03*
X004955Y013155D03*
X004605Y013205D03*
X004430Y012880D03*
X004180Y012630D03*
X003880Y013080D03*
X003830Y012230D03*
X003755Y011780D03*
X003455Y011955D03*
X003405Y010930D03*
X002930Y011880D03*
X002430Y011880D03*
X001930Y011880D03*
X001730Y009805D03*
X003080Y009105D03*
X001930Y006880D03*
X001930Y006380D03*
X002680Y005880D03*
X002680Y004880D03*
X002030Y004380D03*
X001755Y003830D03*
X001755Y002805D03*
X001780Y002380D03*
X001730Y002005D03*
X003830Y005330D03*
X004680Y008630D03*
X005955Y004980D03*
X006555Y005080D03*
X006930Y006380D03*
X008330Y005905D03*
X009130Y004680D03*
X007930Y001880D03*
X007430Y001380D03*
X006630Y003255D03*
X006430Y002880D03*
X005930Y002880D03*
X008580Y007880D03*
X008630Y008880D03*
X008655Y009805D03*
X008580Y010720D03*
X008715Y011040D03*
X008930Y013880D03*
X008930Y014380D03*
M02*
