G75*
G70*
%OFA0B0*%
%FSLAX24Y24*%
%IPPOS*%
%LPD*%
%AMOC8*
5,1,8,0,0,1.08239X$1,22.5*
%
%ADD10R,0.1380X0.0480*%
%ADD11R,0.0474X0.0789*%
%ADD12R,0.0592X0.0671*%
%ADD13R,0.0631X0.0474*%
%ADD14R,0.0552X0.0356*%
%ADD15R,0.0356X0.0434*%
%ADD16R,0.0297X0.0552*%
%ADD17R,0.0434X0.0356*%
%ADD18C,0.0350*%
D10*
X001930Y003380D03*
X001930Y005380D03*
X001930Y007380D03*
X001930Y009380D03*
X002930Y008380D03*
X002930Y006380D03*
X002930Y004380D03*
X002930Y002380D03*
X002930Y010380D03*
X002930Y012380D03*
X002930Y014380D03*
X001930Y013380D03*
X001930Y011380D03*
X001930Y015380D03*
X001930Y017380D03*
X002930Y016380D03*
X002930Y018380D03*
X007930Y018380D03*
X007930Y016380D03*
X008930Y015380D03*
X008930Y013380D03*
X008930Y011380D03*
X007930Y010380D03*
X007930Y008380D03*
X007930Y006380D03*
X007930Y004380D03*
X008930Y003380D03*
X008930Y005380D03*
X008930Y007380D03*
X008930Y009380D03*
X007930Y012380D03*
X007930Y014380D03*
X008930Y017380D03*
X007930Y002380D03*
D11*
X004981Y002130D03*
X003879Y002130D03*
D12*
X004095Y003130D03*
X004765Y003130D03*
D13*
X005997Y002004D03*
X005997Y001256D03*
X006863Y001630D03*
D14*
X006908Y002880D03*
X005452Y002880D03*
D15*
X004686Y001380D03*
X004174Y001380D03*
X005674Y005380D03*
X006186Y005380D03*
D16*
X006304Y004642D03*
X006304Y003618D03*
X005930Y003618D03*
X005556Y003618D03*
X005556Y004642D03*
X004804Y004892D03*
X004430Y004892D03*
X004056Y004892D03*
X004056Y003868D03*
X004804Y003868D03*
D17*
X003430Y005124D03*
X003430Y005636D03*
X006930Y005636D03*
X006930Y005124D03*
X006930Y004386D03*
X006930Y003874D03*
D18*
X001730Y002005D03*
X001780Y002380D03*
X001755Y002805D03*
X001755Y003830D03*
X002030Y004380D03*
X002680Y004880D03*
X002680Y005880D03*
X001930Y006380D03*
X001930Y006880D03*
X002430Y007880D03*
X002780Y007880D03*
X002980Y007330D03*
X003455Y006805D03*
X003730Y007255D03*
X003655Y007580D03*
X003780Y007905D03*
X003880Y008230D03*
X004180Y008480D03*
X004255Y007630D03*
X004080Y007430D03*
X004080Y007155D03*
X004080Y006880D03*
X004080Y006605D03*
X004080Y006330D03*
X004080Y006055D03*
X004255Y005830D03*
X004530Y005830D03*
X004805Y005830D03*
X005080Y005830D03*
X005355Y005830D03*
X005630Y005830D03*
X005880Y005930D03*
X005880Y006205D03*
X005880Y006480D03*
X005880Y006755D03*
X005955Y007005D03*
X006230Y007005D03*
X006505Y007005D03*
X006780Y007005D03*
X007055Y007080D03*
X007055Y007355D03*
X007055Y007630D03*
X007055Y007905D03*
X007055Y008180D03*
X006780Y007830D03*
X006505Y007830D03*
X006230Y007830D03*
X005955Y007830D03*
X005930Y008605D03*
X006455Y008605D03*
X006980Y009230D03*
X007280Y009455D03*
X007130Y010030D03*
X006903Y010282D03*
X007080Y010580D03*
X007055Y010930D03*
X007280Y011180D03*
X006680Y012005D03*
X006330Y012630D03*
X006305Y013155D03*
X006430Y014380D03*
X007430Y015380D03*
X007880Y014980D03*
X007430Y016880D03*
X006259Y017209D03*
X006180Y016630D03*
X005430Y018380D03*
X004930Y017130D03*
X004680Y016630D03*
X004180Y016130D03*
X004180Y015380D03*
X004093Y016880D03*
X004430Y018380D03*
X005230Y015255D03*
X005330Y013230D03*
X005130Y012605D03*
X005105Y012180D03*
X004955Y013155D03*
X004605Y013205D03*
X004430Y012880D03*
X004180Y012630D03*
X003880Y013080D03*
X003830Y012230D03*
X003755Y011780D03*
X003455Y011955D03*
X003405Y010930D03*
X002930Y011880D03*
X002430Y011880D03*
X001930Y011880D03*
X001730Y009805D03*
X001930Y008380D03*
X003080Y009105D03*
X004680Y008630D03*
X003830Y005330D03*
X005955Y004980D03*
X006555Y005080D03*
X006930Y006380D03*
X008330Y005905D03*
X009130Y004680D03*
X007930Y001880D03*
X007430Y001380D03*
X006630Y003255D03*
X006430Y002880D03*
X005930Y002880D03*
X008580Y007880D03*
X008630Y008880D03*
X008655Y009805D03*
X008580Y010720D03*
X008715Y011040D03*
X008930Y013880D03*
X008930Y014380D03*
M02*
