G75*
G70*
%OFA0B0*%
%FSLAX24Y24*%
%IPPOS*%
%LPD*%
%AMOC8*
5,1,8,0,0,1.08239X$1,22.5*
%
%ADD10C,0.0050*%
%ADD11R,0.0197X0.0197*%
%ADD12C,0.0040*%
%ADD13C,0.0020*%
%ADD14C,0.0080*%
%ADD15C,0.0010*%
%ADD16C,0.0030*%
%ADD17C,0.0100*%
%ADD18R,0.0098X0.0098*%
%ADD19R,0.0150X0.0350*%
%ADD20R,0.0200X0.0350*%
D10*
X002530Y003295D02*
X002530Y003965D01*
X003830Y003965D01*
X003830Y003295D01*
X002530Y003295D01*
X004216Y005966D02*
X004216Y007494D01*
X005744Y007494D01*
X005744Y005966D01*
X004216Y005966D01*
X004934Y007711D02*
X004934Y008499D01*
X005426Y008499D01*
X005426Y007711D01*
X004934Y007711D01*
X003900Y008904D02*
X003900Y009100D01*
X003704Y009100D01*
X003704Y009002D01*
X003802Y009002D01*
X003802Y008904D01*
X003900Y008904D01*
X003802Y008904D02*
X003704Y008904D01*
X003704Y009002D01*
X003802Y009002D02*
X003802Y011758D01*
X006558Y011758D01*
X006558Y009002D01*
X003802Y009002D01*
X003110Y010088D02*
X001850Y010088D01*
X001850Y011072D01*
X003110Y011072D01*
X003110Y010088D01*
X007280Y012795D02*
X008580Y012795D01*
X008580Y013465D01*
X007280Y013465D01*
X007280Y012795D01*
X007576Y009114D02*
X008284Y009114D01*
X008284Y007146D01*
X007576Y007146D01*
X007576Y009114D01*
D11*
X003802Y009002D03*
D12*
X001400Y002672D02*
X001553Y002519D01*
X001400Y002672D02*
X001860Y002672D01*
X001860Y002519D02*
X001860Y002826D01*
X001860Y002979D02*
X001400Y002979D01*
X001630Y003056D02*
X001860Y003286D01*
X001783Y003440D02*
X001860Y003516D01*
X001860Y003670D01*
X001783Y003747D01*
X001630Y003747D01*
X001553Y003670D01*
X001553Y003593D01*
X001630Y003440D01*
X001400Y003440D01*
X001400Y003747D01*
X001400Y003286D02*
X001706Y002979D01*
X002500Y002979D02*
X002500Y003209D01*
X002576Y003286D01*
X002730Y003286D01*
X002806Y003209D01*
X002806Y002979D01*
X002806Y003133D02*
X002960Y003286D01*
X002960Y003440D02*
X002883Y003440D01*
X002576Y003747D01*
X002500Y003747D01*
X002500Y003440D01*
X002500Y002979D02*
X002960Y002979D01*
X004044Y004102D02*
X004120Y004025D01*
X004274Y004025D01*
X004351Y004102D01*
X004254Y004235D02*
X004254Y003775D01*
X004254Y003928D02*
X004484Y003928D01*
X004561Y004005D01*
X004561Y004159D01*
X004484Y004235D01*
X004254Y004235D01*
X004351Y004409D02*
X004274Y004485D01*
X004120Y004485D01*
X004044Y004409D01*
X004044Y004102D01*
X004408Y003928D02*
X004561Y003775D01*
X004504Y004025D02*
X004504Y004485D01*
X004561Y004675D02*
X004408Y004828D01*
X004484Y004828D02*
X004254Y004828D01*
X004254Y004675D02*
X004254Y005135D01*
X004484Y005135D01*
X004561Y005059D01*
X004561Y004905D01*
X004484Y004828D01*
X004715Y004752D02*
X004791Y004675D01*
X004945Y004675D01*
X005021Y004752D01*
X005021Y004828D01*
X004945Y004905D01*
X004868Y004905D01*
X004945Y004905D02*
X005021Y004982D01*
X005021Y005059D01*
X004945Y005135D01*
X004791Y005135D01*
X004715Y005059D01*
X004811Y005525D02*
X004658Y005678D01*
X004734Y005678D02*
X004504Y005678D01*
X004504Y005525D02*
X004504Y005985D01*
X004734Y005985D01*
X004811Y005909D01*
X004811Y005755D01*
X004734Y005678D01*
X004965Y005525D02*
X004965Y005985D01*
X005271Y005525D01*
X005271Y005985D01*
X005195Y004485D02*
X005041Y004485D01*
X004965Y004409D01*
X004965Y004102D01*
X005041Y004025D01*
X005195Y004025D01*
X005271Y004102D01*
X005271Y004255D01*
X005118Y004255D01*
X005271Y004409D02*
X005195Y004485D01*
X005021Y004005D02*
X004715Y004005D01*
X004945Y004235D01*
X004945Y003775D01*
X004811Y004025D02*
X004811Y004485D01*
X004811Y004255D02*
X004504Y004255D01*
X004274Y005525D02*
X004120Y005525D01*
X004044Y005602D01*
X004044Y005909D01*
X004120Y005985D01*
X004274Y005985D01*
X004351Y005909D01*
X004351Y005755D02*
X004197Y005755D01*
X004351Y005755D02*
X004351Y005602D01*
X004274Y005525D01*
X003017Y008175D02*
X003017Y008482D01*
X003017Y008600D02*
X003017Y008907D01*
X003017Y008600D02*
X002787Y008600D01*
X002710Y008677D01*
X002710Y008907D01*
X002520Y008975D02*
X002520Y009435D01*
X002290Y009205D01*
X002596Y009205D01*
X002557Y009302D02*
X002480Y009225D01*
X002327Y009225D01*
X002250Y009302D01*
X002250Y009609D01*
X002327Y009685D01*
X002480Y009685D01*
X002557Y009609D01*
X002480Y009650D02*
X002557Y009727D01*
X002480Y009650D02*
X002327Y009650D01*
X002250Y009727D01*
X002250Y010034D01*
X002327Y010110D01*
X002480Y010110D01*
X002557Y010034D01*
X002710Y009880D02*
X002710Y009727D01*
X002787Y009650D01*
X002941Y009650D01*
X003017Y009727D01*
X003017Y009803D01*
X002941Y009880D01*
X002710Y009880D01*
X002864Y010034D01*
X003017Y010110D01*
X003017Y009685D02*
X003017Y009609D01*
X002710Y009302D01*
X002710Y009225D01*
X002710Y009685D02*
X003017Y009685D01*
X002557Y008600D02*
X002250Y008600D01*
X002250Y008482D02*
X002403Y008635D01*
X002403Y008175D01*
X002250Y008175D02*
X002557Y008175D01*
X002710Y008252D02*
X002787Y008175D01*
X003017Y008175D01*
X002710Y008252D02*
X002710Y008482D01*
X002403Y008600D02*
X002403Y009060D01*
X002250Y008907D01*
X002136Y009052D02*
X002059Y008975D01*
X001906Y008975D01*
X001829Y009052D01*
X001829Y009359D01*
X001906Y009435D01*
X002059Y009435D01*
X002136Y009359D01*
X002327Y011725D02*
X002480Y011725D01*
X002557Y011802D01*
X002557Y012109D02*
X002480Y012185D01*
X002327Y012185D01*
X002250Y012109D01*
X002250Y011802D01*
X002327Y011725D01*
X002710Y011802D02*
X002787Y011725D01*
X002941Y011725D01*
X003017Y011802D01*
X003017Y011878D01*
X002941Y011955D01*
X002864Y011955D01*
X002941Y011955D02*
X003017Y012032D01*
X003017Y012109D01*
X002941Y012185D01*
X002787Y012185D01*
X002710Y012109D01*
X006127Y005335D02*
X006050Y005259D01*
X006050Y004952D01*
X006127Y004875D01*
X006280Y004875D01*
X006357Y004952D01*
X006510Y004875D02*
X006817Y004875D01*
X006779Y004810D02*
X007009Y004810D01*
X007086Y004734D01*
X007086Y004580D01*
X007009Y004503D01*
X006779Y004503D01*
X006779Y004350D02*
X006779Y004810D01*
X006664Y004875D02*
X006664Y005335D01*
X006510Y005182D01*
X006357Y005259D02*
X006280Y005335D01*
X006127Y005335D01*
X006280Y004285D02*
X006050Y004055D01*
X006357Y004055D01*
X006510Y004132D02*
X006510Y003902D01*
X006587Y003825D01*
X006817Y003825D01*
X006817Y004132D01*
X006971Y004285D02*
X007278Y004285D01*
X007278Y004209D01*
X006971Y003902D01*
X006971Y003825D01*
X007086Y004350D02*
X006933Y004503D01*
X007027Y004650D02*
X007180Y004650D01*
X007257Y004727D01*
X007257Y004880D01*
X007103Y004880D01*
X007124Y004875D02*
X007124Y005335D01*
X006971Y005182D01*
X007027Y005110D02*
X006950Y005034D01*
X006950Y004727D01*
X007027Y004650D01*
X006971Y004875D02*
X007278Y004875D01*
X007410Y004803D02*
X007641Y004803D01*
X007717Y004880D01*
X007717Y005034D01*
X007641Y005110D01*
X007410Y005110D01*
X007410Y004650D01*
X007393Y004734D02*
X007240Y004580D01*
X007470Y004580D01*
X007546Y004503D01*
X007546Y004427D01*
X007470Y004350D01*
X007316Y004350D01*
X007240Y004427D01*
X007240Y004580D01*
X007393Y004734D02*
X007546Y004810D01*
X007564Y004803D02*
X007717Y004650D01*
X007871Y004650D02*
X007871Y005110D01*
X008178Y004650D01*
X008178Y005110D01*
X007945Y006100D02*
X007791Y006100D01*
X007715Y006177D01*
X008021Y006484D01*
X008021Y006177D01*
X007945Y006100D01*
X007871Y006150D02*
X007871Y006610D01*
X008101Y006610D01*
X008178Y006534D01*
X008178Y006380D01*
X008101Y006303D01*
X007871Y006303D01*
X007715Y006177D02*
X007715Y006484D01*
X007791Y006560D01*
X007945Y006560D01*
X008021Y006484D01*
X008024Y006303D02*
X008178Y006150D01*
X007717Y006150D02*
X007717Y006610D01*
X007564Y006303D02*
X007717Y006150D01*
X007564Y006303D02*
X007410Y006150D01*
X007410Y006610D01*
X007408Y006560D02*
X007408Y006100D01*
X007561Y006100D02*
X007254Y006100D01*
X007180Y006303D02*
X006950Y006303D01*
X006950Y006150D02*
X006950Y006610D01*
X007180Y006610D01*
X007257Y006534D01*
X007257Y006380D01*
X007180Y006303D01*
X007254Y006407D02*
X007408Y006560D01*
X007101Y006484D02*
X007024Y006560D01*
X006870Y006560D01*
X006794Y006484D01*
X006794Y006177D01*
X006870Y006100D01*
X007024Y006100D01*
X007101Y006177D01*
X007180Y005110D02*
X007027Y005110D01*
X007180Y005110D02*
X007257Y005034D01*
X006280Y004285D02*
X006280Y003825D01*
X006277Y007750D02*
X006200Y007827D01*
X006200Y008134D01*
X006277Y008210D01*
X006430Y008210D01*
X006507Y008134D01*
X006660Y008057D02*
X006814Y008210D01*
X006814Y007750D01*
X006967Y007750D02*
X006660Y007750D01*
X006507Y007827D02*
X006430Y007750D01*
X006277Y007750D01*
X006277Y008550D02*
X006200Y008627D01*
X006200Y008934D01*
X006277Y009010D01*
X006430Y009010D01*
X006507Y008934D01*
X006507Y008627D02*
X006430Y008550D01*
X006277Y008550D01*
X006660Y008550D02*
X006967Y008857D01*
X006967Y008934D01*
X006891Y009010D01*
X006737Y009010D01*
X006660Y008934D01*
X006660Y008550D02*
X006967Y008550D01*
X006865Y009120D02*
X007249Y009120D01*
X007325Y009197D01*
X007325Y009351D01*
X007249Y009427D01*
X006865Y009427D01*
X007018Y009581D02*
X006865Y009734D01*
X007325Y009734D01*
X007279Y009834D02*
X007279Y009527D01*
X007356Y009450D01*
X007509Y009450D01*
X007586Y009527D01*
X007509Y009485D02*
X007586Y009409D01*
X007509Y009485D02*
X007356Y009485D01*
X007279Y009409D01*
X007279Y009102D01*
X007356Y009025D01*
X007509Y009025D01*
X007586Y009102D01*
X007740Y009102D02*
X007816Y009025D01*
X007970Y009025D01*
X008046Y009102D01*
X008046Y009255D01*
X007970Y009332D01*
X007893Y009332D01*
X007740Y009255D01*
X007740Y009485D01*
X008046Y009485D01*
X008046Y009527D02*
X007970Y009450D01*
X007816Y009450D01*
X007740Y009527D01*
X007740Y009603D01*
X007816Y009680D01*
X007970Y009680D01*
X008046Y009603D01*
X008046Y009527D01*
X007970Y009680D02*
X008046Y009757D01*
X008046Y009834D01*
X007970Y009910D01*
X007816Y009910D01*
X007740Y009834D01*
X007740Y009757D01*
X007816Y009680D01*
X007777Y009700D02*
X007930Y009700D01*
X008007Y009777D01*
X008160Y009777D02*
X008237Y009700D01*
X008391Y009700D01*
X008467Y009777D01*
X008467Y010084D01*
X008391Y010160D01*
X008237Y010160D01*
X008160Y010084D01*
X008160Y010007D01*
X008237Y009930D01*
X008467Y009930D01*
X008371Y009880D02*
X008601Y009880D01*
X008678Y009803D01*
X008678Y009727D01*
X008601Y009650D01*
X008371Y009650D01*
X008371Y010110D01*
X008601Y010110D01*
X008678Y010034D01*
X008678Y009957D01*
X008601Y009880D01*
X008601Y010150D02*
X008371Y010150D01*
X008371Y010610D01*
X008601Y010610D01*
X008678Y010534D01*
X008678Y010457D01*
X008601Y010380D01*
X008371Y010380D01*
X008371Y010650D02*
X008601Y010650D01*
X008678Y010727D01*
X008678Y011034D01*
X008601Y011110D01*
X008371Y011110D01*
X008371Y010650D01*
X008217Y010650D02*
X007910Y010650D01*
X007910Y011110D01*
X008217Y011110D01*
X008217Y011150D02*
X007910Y011610D01*
X007910Y011150D01*
X008217Y011610D01*
X007910Y011610D01*
X007910Y011650D02*
X008217Y012110D01*
X008371Y012150D02*
X008371Y012610D01*
X008601Y012610D01*
X008678Y012534D01*
X008678Y012380D01*
X008601Y012303D01*
X008371Y012303D01*
X008217Y012610D02*
X007910Y012610D01*
X007910Y012150D01*
X007910Y012110D02*
X008217Y011650D01*
X008371Y011610D02*
X008601Y011610D01*
X008678Y011534D01*
X008678Y011227D01*
X008601Y011150D01*
X008371Y011150D01*
X008371Y011610D01*
X008217Y011150D02*
X007910Y011150D01*
X007910Y011380D02*
X008064Y011380D01*
X007757Y011380D02*
X007680Y011303D01*
X007450Y011303D01*
X007680Y011303D01*
X007757Y011380D01*
X007757Y011534D01*
X007680Y011610D01*
X007450Y011610D01*
X007450Y011150D01*
X007450Y011610D01*
X007680Y011610D01*
X007757Y011534D01*
X007757Y011380D01*
X007603Y011303D02*
X007757Y011150D01*
X007603Y011303D01*
X007680Y011110D02*
X007757Y011034D01*
X007757Y010880D01*
X007680Y010803D01*
X007450Y010803D01*
X007450Y010650D02*
X007450Y011110D01*
X007680Y011110D01*
X007740Y010807D02*
X007740Y010577D01*
X007816Y010500D01*
X008046Y010500D01*
X008046Y010807D01*
X008064Y010880D02*
X007910Y010880D01*
X007910Y010610D02*
X008064Y010457D01*
X008217Y010610D01*
X008217Y010150D01*
X008217Y010110D02*
X008217Y009650D01*
X008064Y009957D02*
X008217Y010110D01*
X008046Y010075D02*
X008046Y010382D01*
X007930Y010160D02*
X007777Y010160D01*
X007700Y010084D01*
X007700Y009777D01*
X007777Y009700D01*
X007757Y009650D02*
X007757Y009957D01*
X007603Y010110D01*
X007450Y009957D01*
X007450Y009650D01*
X007325Y009581D02*
X007325Y009888D01*
X007356Y009910D02*
X007279Y009834D01*
X007356Y009910D02*
X007509Y009910D01*
X007586Y009834D01*
X007450Y009880D02*
X007757Y009880D01*
X007816Y010075D02*
X007740Y010152D01*
X007740Y010382D01*
X007757Y010380D02*
X007450Y010380D01*
X007450Y010457D02*
X007603Y010610D01*
X007757Y010457D01*
X007757Y010150D01*
X007816Y010075D02*
X008046Y010075D01*
X008007Y010084D02*
X007930Y010160D01*
X007910Y010150D02*
X007910Y010610D01*
X007757Y010650D02*
X007603Y010803D01*
X007586Y010500D02*
X007279Y010500D01*
X007279Y010382D02*
X007433Y010535D01*
X007433Y010075D01*
X007450Y010150D02*
X007450Y010457D01*
X007433Y010500D02*
X007433Y010960D01*
X007279Y010807D01*
X007279Y010075D02*
X007586Y010075D01*
X007910Y010110D02*
X007910Y009650D01*
X008064Y009957D02*
X007910Y010110D01*
X008601Y010150D02*
X008678Y010227D01*
X008678Y010303D01*
X008601Y010380D01*
X008678Y012150D02*
X008524Y012303D01*
X008524Y012650D02*
X008524Y013110D01*
X008371Y013110D02*
X008678Y013110D01*
X008831Y013110D02*
X009138Y012650D01*
X009138Y012610D02*
X008831Y012150D01*
X009138Y012150D02*
X008831Y012610D01*
X008831Y012650D02*
X009138Y013110D01*
X008217Y013110D02*
X007910Y013110D01*
X007910Y012650D01*
X007910Y012380D02*
X008064Y012380D01*
X007757Y012380D02*
X007680Y012303D01*
X007450Y012303D01*
X007450Y012150D02*
X007450Y012610D01*
X007680Y012610D01*
X007757Y012534D01*
X007757Y012380D01*
X007603Y012303D02*
X007757Y012150D01*
X007757Y012110D02*
X007450Y012110D01*
X007603Y012110D02*
X007603Y011650D01*
X007450Y012650D02*
X007450Y013110D01*
X007680Y013110D01*
X007757Y013034D01*
X007757Y012880D01*
X007680Y012803D01*
X007450Y012803D01*
X007603Y012803D02*
X007757Y012650D01*
X007910Y012880D02*
X008064Y012880D01*
X007410Y014967D02*
X007410Y015197D01*
X007333Y015274D01*
X007256Y015274D01*
X007180Y015197D01*
X007180Y014967D01*
X007180Y015197D02*
X007103Y015274D01*
X007026Y015274D01*
X006950Y015197D01*
X006950Y014967D01*
X007410Y014967D01*
X007333Y015427D02*
X007410Y015504D01*
X007410Y015657D01*
X007333Y015734D01*
X007256Y015734D01*
X007180Y015657D01*
X007180Y015581D01*
X007180Y015657D02*
X007103Y015734D01*
X007026Y015734D01*
X006950Y015657D01*
X006950Y015504D01*
X007026Y015427D01*
X006950Y015888D02*
X007333Y015888D01*
X007410Y015964D01*
X007410Y016118D01*
X007333Y016195D01*
X006950Y016195D01*
X007180Y016348D02*
X007180Y016655D01*
X007103Y016808D02*
X006950Y016962D01*
X007410Y016962D01*
X007472Y016910D02*
X007319Y016757D01*
X007410Y016808D02*
X007410Y017115D01*
X007333Y017269D02*
X007026Y017576D01*
X007333Y017576D01*
X007410Y017499D01*
X007410Y017346D01*
X007333Y017269D01*
X007026Y017269D01*
X006950Y017346D01*
X006950Y017499D01*
X007026Y017576D01*
X007026Y017729D02*
X006950Y017806D01*
X006950Y017959D01*
X007026Y018036D01*
X007333Y017729D01*
X007410Y017806D01*
X007410Y017959D01*
X007333Y018036D01*
X007026Y018036D01*
X007026Y018190D02*
X006950Y018266D01*
X006950Y018420D01*
X007026Y018497D01*
X007333Y018190D01*
X007410Y018266D01*
X007410Y018420D01*
X007333Y018497D01*
X007026Y018497D01*
X007026Y018190D02*
X007333Y018190D01*
X007333Y017729D02*
X007026Y017729D01*
X007472Y016910D02*
X007472Y016450D01*
X007319Y016450D02*
X007626Y016450D01*
X007779Y016527D02*
X007779Y016834D01*
X007856Y016910D01*
X008009Y016910D01*
X008086Y016834D01*
X007779Y016527D01*
X007856Y016450D01*
X008009Y016450D01*
X008086Y016527D01*
X008086Y016834D01*
X008240Y016910D02*
X008240Y016450D01*
X008240Y016603D02*
X008546Y016910D01*
X008316Y016680D02*
X008546Y016450D01*
X008430Y016160D02*
X008277Y016160D01*
X008200Y016084D01*
X008200Y015777D01*
X008277Y015700D01*
X008430Y015700D01*
X008507Y015777D01*
X008546Y015810D02*
X008240Y015810D01*
X008240Y015580D01*
X008393Y015657D01*
X008470Y015657D01*
X008546Y015580D01*
X008546Y015427D01*
X008470Y015350D01*
X008316Y015350D01*
X008240Y015427D01*
X008086Y015350D02*
X007933Y015503D01*
X008009Y015503D02*
X007779Y015503D01*
X007779Y015350D02*
X007779Y015810D01*
X008009Y015810D01*
X008086Y015734D01*
X008086Y015580D01*
X008009Y015503D01*
X008507Y016084D02*
X008430Y016160D01*
X008660Y016007D02*
X008814Y016160D01*
X008814Y015700D01*
X008967Y015700D02*
X008660Y015700D01*
X009121Y015700D02*
X009428Y016007D01*
X009428Y016084D01*
X009351Y016160D01*
X009197Y016160D01*
X009121Y016084D01*
X009121Y015700D02*
X009428Y015700D01*
X009526Y017729D02*
X009603Y017729D01*
X009680Y017806D01*
X009680Y017959D01*
X009756Y018036D01*
X009833Y018036D01*
X009910Y017959D01*
X009910Y017806D01*
X009833Y017729D01*
X009910Y018190D02*
X009910Y018497D01*
X009910Y018343D02*
X009450Y018343D01*
X009603Y018190D01*
X009526Y018036D02*
X009450Y017959D01*
X009450Y017806D01*
X009526Y017729D01*
D13*
X008904Y012917D02*
X008794Y012807D01*
X008831Y012770D02*
X008684Y012917D01*
X008684Y012770D02*
X008904Y012770D01*
X008904Y012696D02*
X008904Y012549D01*
X008904Y012623D02*
X008684Y012623D01*
X008757Y012549D01*
X007133Y012549D02*
X006912Y012549D01*
X006912Y012660D01*
X006949Y012696D01*
X007022Y012696D01*
X007059Y012660D01*
X007059Y012549D01*
X007059Y012623D02*
X007133Y012696D01*
X007133Y012770D02*
X007133Y012917D01*
X007133Y012844D02*
X006912Y012844D01*
X006986Y012770D01*
X006170Y007983D02*
X006170Y007836D01*
X006170Y007909D02*
X005950Y007909D01*
X006023Y007836D01*
X006023Y007762D02*
X006060Y007725D01*
X006060Y007615D01*
X006170Y007615D02*
X006170Y007725D01*
X006133Y007762D01*
X006097Y007762D01*
X006060Y007725D01*
X006023Y007762D02*
X005986Y007762D01*
X005950Y007725D01*
X005950Y007615D01*
X006170Y007615D01*
X004410Y007657D02*
X004410Y007510D01*
X004263Y007657D01*
X004226Y007657D01*
X004190Y007620D01*
X004190Y007547D01*
X004226Y007510D01*
X004300Y007436D02*
X004300Y007289D01*
X004190Y007399D01*
X004410Y007399D01*
X004373Y007215D02*
X004410Y007178D01*
X004410Y007105D01*
X004373Y007068D01*
X004337Y007068D01*
X004300Y007105D01*
X004300Y007178D01*
X004337Y007215D01*
X004373Y007215D01*
X004300Y007178D02*
X004263Y007215D01*
X004226Y007215D01*
X004190Y007178D01*
X004190Y007105D01*
X004226Y007068D01*
X004263Y007068D01*
X004300Y007105D01*
X004300Y006994D02*
X004300Y006847D01*
X004190Y006957D01*
X004410Y006957D01*
X004226Y006773D02*
X004373Y006626D01*
X004410Y006626D01*
X004300Y006552D02*
X004300Y006405D01*
X004300Y006331D02*
X004300Y006184D01*
X004410Y006184D02*
X004190Y006184D01*
X004190Y006110D02*
X004190Y005963D01*
X004190Y006037D02*
X004410Y006037D01*
X004410Y005889D02*
X004337Y005816D01*
X004337Y005852D02*
X004337Y005742D01*
X004410Y005742D02*
X004190Y005742D01*
X004190Y005852D01*
X004226Y005889D01*
X004300Y005889D01*
X004337Y005852D01*
X004410Y005668D02*
X004410Y005521D01*
X004190Y005521D01*
X004190Y005668D01*
X004300Y005595D02*
X004300Y005521D01*
X004373Y005447D02*
X004190Y005447D01*
X004190Y005300D02*
X004373Y005300D01*
X004410Y005337D01*
X004410Y005410D01*
X004373Y005447D01*
X004410Y005226D02*
X004337Y005153D01*
X004410Y005079D01*
X004190Y005079D01*
X004190Y005226D02*
X004410Y005226D01*
X004197Y004156D02*
X004197Y004010D01*
X004051Y004156D01*
X004014Y004156D01*
X003977Y004120D01*
X003977Y004046D01*
X004014Y004010D01*
X004014Y003935D02*
X004087Y003935D01*
X004124Y003899D01*
X004124Y003789D01*
X004124Y003862D02*
X004197Y003935D01*
X004197Y003789D02*
X003977Y003789D01*
X003977Y003899D01*
X004014Y003935D01*
X004190Y006331D02*
X004410Y006331D01*
X004190Y006626D02*
X004190Y006773D01*
X004226Y006773D01*
X004263Y007731D02*
X004190Y007804D01*
X004410Y007804D01*
X004410Y007731D02*
X004410Y007878D01*
X004410Y007952D02*
X004263Y008099D01*
X004226Y008099D01*
X004190Y008062D01*
X004190Y007989D01*
X004226Y007952D01*
X004300Y008173D02*
X004190Y008283D01*
X004410Y008283D01*
X004300Y008320D02*
X004300Y008173D01*
X004410Y008099D02*
X004410Y007952D01*
X004373Y008394D02*
X004410Y008431D01*
X004410Y008504D01*
X004373Y008541D01*
X004300Y008541D01*
X004263Y008504D01*
X004263Y008467D01*
X004300Y008394D01*
X004190Y008394D01*
X004190Y008541D01*
X003021Y009627D02*
X003021Y009700D01*
X002947Y009700D01*
X002874Y009627D02*
X002911Y009590D01*
X002984Y009590D01*
X003021Y009627D01*
X003021Y009773D02*
X002984Y009810D01*
X002911Y009810D01*
X002874Y009773D01*
X002874Y009627D01*
X002800Y009627D02*
X002763Y009590D01*
X002690Y009590D01*
X002653Y009627D01*
X002653Y009663D01*
X002690Y009700D01*
X002763Y009700D01*
X002800Y009663D01*
X002800Y009627D01*
X002763Y009700D02*
X002800Y009737D01*
X002800Y009773D01*
X002763Y009810D01*
X002690Y009810D01*
X002653Y009773D01*
X002653Y009737D01*
X002690Y009700D01*
X002579Y009663D02*
X002579Y009627D01*
X002542Y009590D01*
X002432Y009590D01*
X002432Y009810D01*
X002542Y009810D01*
X002579Y009773D01*
X002579Y009737D01*
X002542Y009700D01*
X002432Y009700D01*
X002542Y009700D02*
X002579Y009663D01*
X002358Y009590D02*
X002358Y009810D01*
X002284Y009737D01*
X002211Y009810D01*
X002211Y009590D01*
X002137Y009590D02*
X002137Y009737D01*
X002063Y009810D01*
X001990Y009737D01*
X001990Y009590D01*
X001990Y009700D02*
X002137Y009700D01*
X002585Y011350D02*
X002548Y011387D01*
X002548Y011533D01*
X002585Y011570D01*
X002658Y011570D01*
X002695Y011533D01*
X002695Y011387D01*
X002658Y011350D01*
X002585Y011350D01*
X002621Y011423D02*
X002695Y011350D01*
X002769Y011350D02*
X002916Y011350D01*
X002842Y011350D02*
X002842Y011570D01*
X002769Y011497D01*
X002080Y000859D02*
X006580Y000859D01*
D14*
X006943Y000999D02*
X008517Y000999D01*
X009305Y002574D02*
X009305Y003952D01*
X008990Y003952D01*
X008990Y002967D01*
X008517Y002967D01*
X008755Y004730D02*
X008105Y004730D01*
X008088Y004732D01*
X008071Y004736D01*
X008055Y004743D01*
X008041Y004753D01*
X008028Y004766D01*
X008018Y004780D01*
X008011Y004796D01*
X008007Y004813D01*
X008005Y004830D01*
X008005Y005430D02*
X008007Y005447D01*
X008011Y005464D01*
X008018Y005480D01*
X008028Y005494D01*
X008041Y005507D01*
X008055Y005517D01*
X008071Y005524D01*
X008088Y005528D01*
X008105Y005530D01*
X008755Y005530D01*
X008772Y005528D01*
X008789Y005524D01*
X008805Y005517D01*
X008819Y005507D01*
X008832Y005494D01*
X008842Y005480D01*
X008849Y005464D01*
X008853Y005447D01*
X008855Y005430D01*
X008855Y004830D02*
X008853Y004813D01*
X008849Y004796D01*
X008842Y004780D01*
X008832Y004766D01*
X008819Y004753D01*
X008805Y004743D01*
X008789Y004736D01*
X008772Y004732D01*
X008755Y004730D01*
X006943Y002967D02*
X006470Y002967D01*
X006470Y003952D01*
X006155Y003952D01*
X006155Y002574D01*
X005249Y003524D02*
X005249Y003736D01*
X005099Y004190D02*
X004761Y004190D01*
X004761Y003070D02*
X005099Y003070D01*
X004660Y013530D02*
X005841Y013530D01*
X006904Y013530D02*
X007180Y013530D01*
X007180Y018294D01*
X006550Y018884D02*
X003243Y018884D01*
X003205Y018887D01*
X003167Y018893D01*
X003130Y018903D01*
X003094Y018917D01*
X003059Y018933D01*
X003027Y018953D01*
X002996Y018976D01*
X002967Y019002D01*
X002941Y019031D01*
X002918Y019062D01*
X002898Y019094D01*
X002882Y019129D01*
X002868Y019165D01*
X002858Y019202D01*
X002852Y019240D01*
X002849Y019278D01*
X002850Y019310D01*
X002846Y019341D01*
X002839Y019372D01*
X002828Y019402D01*
X002814Y019430D01*
X002796Y019456D01*
X002775Y019480D01*
X002751Y019501D01*
X002725Y019519D01*
X002697Y019533D01*
X002667Y019544D01*
X002636Y019551D01*
X002605Y019555D01*
X002573Y019554D01*
X002574Y019554D02*
X002259Y019554D01*
X001668Y018727D02*
X001668Y013530D01*
X003597Y013530D01*
X007938Y017039D02*
X007938Y018221D01*
X008922Y018221D02*
X008922Y017039D01*
D15*
X008763Y005775D02*
X008663Y005775D01*
X008663Y005625D01*
X008763Y005625D01*
X008713Y005700D02*
X008663Y005700D01*
X008615Y005650D02*
X008590Y005625D01*
X008540Y005625D01*
X008515Y005650D01*
X008515Y005750D01*
X008540Y005775D01*
X008590Y005775D01*
X008615Y005750D01*
X008468Y005725D02*
X008468Y005625D01*
X008468Y005700D02*
X008368Y005700D01*
X008368Y005725D02*
X008418Y005775D01*
X008468Y005725D01*
X008368Y005725D02*
X008368Y005625D01*
X008321Y005625D02*
X008271Y005675D01*
X008296Y005675D02*
X008221Y005675D01*
X008221Y005625D02*
X008221Y005775D01*
X008296Y005775D01*
X008321Y005750D01*
X008321Y005700D01*
X008296Y005675D01*
X008173Y005775D02*
X008073Y005775D01*
X008123Y005775D02*
X008123Y005625D01*
X008026Y005625D02*
X007976Y005675D01*
X008001Y005675D02*
X007926Y005675D01*
X007926Y005625D02*
X007926Y005775D01*
X008001Y005775D01*
X008026Y005750D01*
X008026Y005700D01*
X008001Y005675D01*
X007879Y005625D02*
X007779Y005625D01*
X007779Y005775D01*
X007879Y005775D01*
X007829Y005700D02*
X007779Y005700D01*
X007731Y005700D02*
X007706Y005675D01*
X007631Y005675D01*
X007631Y005625D02*
X007631Y005775D01*
X007706Y005775D01*
X007731Y005750D01*
X007731Y005700D01*
X007584Y005775D02*
X007584Y005625D01*
X007484Y005625D02*
X007484Y005775D01*
X007534Y005725D01*
X007584Y005775D01*
X007437Y005775D02*
X007437Y005650D01*
X007412Y005625D01*
X007362Y005625D01*
X007337Y005650D01*
X007337Y005775D01*
X007289Y005775D02*
X007239Y005775D01*
X007264Y005775D02*
X007264Y005650D01*
X007239Y005625D01*
X007214Y005625D01*
X007189Y005650D01*
X007142Y005625D02*
X007092Y005675D01*
X007117Y005675D02*
X007042Y005675D01*
X007042Y005625D02*
X007042Y005775D01*
X007117Y005775D01*
X007142Y005750D01*
X007142Y005700D01*
X007117Y005675D01*
X006995Y005625D02*
X006895Y005625D01*
X006895Y005775D01*
X006995Y005775D01*
X006945Y005700D02*
X006895Y005700D01*
X006847Y005650D02*
X006847Y005750D01*
X006822Y005775D01*
X006747Y005775D01*
X006747Y005625D01*
X006822Y005625D01*
X006847Y005650D01*
X006700Y005625D02*
X006600Y005625D01*
X006600Y005775D01*
X006553Y005750D02*
X006528Y005775D01*
X006478Y005775D01*
X006453Y005750D01*
X006453Y005650D01*
X006478Y005625D01*
X006528Y005625D01*
X006553Y005650D01*
X006553Y005750D01*
X006405Y005750D02*
X006380Y005775D01*
X006330Y005775D01*
X006305Y005750D01*
X006305Y005725D01*
X006330Y005700D01*
X006380Y005700D01*
X006405Y005675D01*
X006405Y005650D01*
X006380Y005625D01*
X006330Y005625D01*
X006305Y005650D01*
X005910Y003938D02*
X005885Y003938D01*
X005860Y003913D01*
X005860Y003888D01*
X005860Y003913D02*
X005835Y003938D01*
X005810Y003938D01*
X005785Y003913D01*
X005785Y003863D01*
X005810Y003838D01*
X005785Y003790D02*
X005910Y003790D01*
X005935Y003765D01*
X005935Y003715D01*
X005910Y003690D01*
X005785Y003690D01*
X005910Y003838D02*
X005935Y003863D01*
X005935Y003913D01*
X005910Y003938D01*
X005010Y003963D02*
X005010Y003863D01*
X005010Y003913D02*
X004860Y003913D01*
X004910Y003863D01*
X004910Y003815D02*
X004935Y003790D01*
X004960Y003815D01*
X004985Y003815D01*
X005010Y003790D01*
X005010Y003740D01*
X004985Y003715D01*
X004985Y003668D02*
X004960Y003668D01*
X004935Y003643D01*
X004935Y003593D01*
X004910Y003568D01*
X004885Y003568D01*
X004860Y003593D01*
X004860Y003643D01*
X004885Y003668D01*
X004910Y003668D01*
X004935Y003643D01*
X004935Y003593D02*
X004960Y003568D01*
X004985Y003568D01*
X005010Y003593D01*
X005010Y003643D01*
X004985Y003668D01*
X004935Y003765D02*
X004935Y003790D01*
X004910Y003815D02*
X004885Y003815D01*
X004860Y003790D01*
X004860Y003740D01*
X004885Y003715D01*
X004885Y003521D02*
X004860Y003496D01*
X004860Y003446D01*
X004885Y003421D01*
X004885Y003373D02*
X004985Y003273D01*
X005010Y003273D01*
X004960Y003201D02*
X004960Y003126D01*
X005010Y003126D02*
X004860Y003126D01*
X004860Y003201D01*
X004885Y003226D01*
X004935Y003226D01*
X004960Y003201D01*
X004860Y003273D02*
X004860Y003373D01*
X004885Y003373D01*
X004935Y003471D02*
X004935Y003496D01*
X004960Y003521D01*
X004985Y003521D01*
X005010Y003496D01*
X005010Y003446D01*
X004985Y003421D01*
X004935Y003496D02*
X004910Y003521D01*
X004885Y003521D01*
X004885Y003079D02*
X004860Y003054D01*
X004860Y003004D01*
X004885Y002979D01*
X004985Y002979D01*
X005010Y003004D01*
X005010Y003054D01*
X004985Y003079D01*
X005010Y002931D02*
X004860Y002931D01*
X004910Y002881D01*
X004860Y002831D01*
X005010Y002831D01*
X007940Y001550D02*
X007965Y001525D01*
X007990Y001525D01*
X008015Y001550D01*
X008015Y001675D01*
X007990Y001675D02*
X008040Y001675D01*
X008088Y001625D02*
X008138Y001675D01*
X008138Y001525D01*
X008088Y001525D02*
X008188Y001525D01*
X008393Y004475D02*
X008368Y004500D01*
X008393Y004475D02*
X008443Y004475D01*
X008468Y004500D01*
X008468Y004525D01*
X008443Y004550D01*
X008393Y004550D01*
X008368Y004575D01*
X008368Y004600D01*
X008393Y004625D01*
X008443Y004625D01*
X008468Y004600D01*
X008565Y004625D02*
X008615Y004625D01*
X008590Y004625D02*
X008590Y004500D01*
X008565Y004475D01*
X008540Y004475D01*
X008515Y004500D01*
X008663Y004475D02*
X008763Y004475D01*
X008713Y004475D02*
X008713Y004625D01*
X008663Y004575D01*
D16*
X007187Y008556D02*
X006993Y008556D01*
X006945Y008604D01*
X006945Y008701D01*
X006993Y008749D01*
X007187Y008749D01*
X007235Y008701D01*
X007235Y008604D01*
X007187Y008556D01*
X007138Y008652D02*
X007235Y008749D01*
X007235Y008850D02*
X007041Y009044D01*
X006993Y009044D01*
X006945Y008995D01*
X006945Y008899D01*
X006993Y008850D01*
X007235Y008850D02*
X007235Y009044D01*
X006111Y007059D02*
X006111Y006865D01*
X006111Y006962D02*
X005820Y006962D01*
X005917Y006865D01*
X005820Y006764D02*
X005820Y006571D01*
X005820Y006667D02*
X006111Y006667D01*
X006111Y006469D02*
X005820Y006469D01*
X005820Y006276D02*
X006111Y006469D01*
X006111Y006276D02*
X005820Y006276D01*
X005917Y006175D02*
X005820Y006078D01*
X005917Y005981D01*
X006111Y005981D01*
X005965Y005981D02*
X005965Y006175D01*
X005917Y006175D02*
X006111Y006175D01*
X006148Y001315D02*
X006025Y001315D01*
X005963Y001254D01*
X005963Y001007D01*
X006025Y000945D01*
X006148Y000945D01*
X006210Y001007D01*
X006210Y001254D02*
X006148Y001315D01*
X006332Y001315D02*
X006332Y000945D01*
X006517Y000945D01*
X006578Y001007D01*
X006578Y001068D01*
X006517Y001130D01*
X006332Y001130D01*
X006517Y001130D02*
X006578Y001192D01*
X006578Y001254D01*
X006517Y001315D01*
X006332Y001315D01*
X005842Y001254D02*
X005842Y001130D01*
X005780Y001068D01*
X005595Y001068D01*
X005595Y000945D02*
X005595Y001315D01*
X005780Y001315D01*
X005842Y001254D01*
X005758Y015545D02*
X005758Y015835D01*
X005656Y015787D02*
X005608Y015835D01*
X005511Y015835D01*
X005463Y015787D01*
X005463Y015593D01*
X005511Y015545D01*
X005608Y015545D01*
X005656Y015593D01*
X005758Y015642D02*
X005951Y015835D01*
X006052Y015835D02*
X006052Y015545D01*
X006246Y015545D01*
X006149Y015690D02*
X006052Y015690D01*
X006052Y015835D02*
X006246Y015835D01*
X006347Y015835D02*
X006540Y015835D01*
X006444Y015835D02*
X006444Y015545D01*
X006641Y015545D02*
X006641Y015835D01*
X006835Y015545D01*
X006835Y015835D01*
X006936Y015835D02*
X006936Y015545D01*
X007130Y015545D01*
X007231Y015545D02*
X007231Y015835D01*
X007130Y015835D02*
X006936Y015835D01*
X006936Y015690D02*
X007033Y015690D01*
X007231Y015545D02*
X007328Y015642D01*
X007424Y015545D01*
X007424Y015835D01*
X005951Y015545D02*
X005806Y015690D01*
X005362Y015593D02*
X005362Y015787D01*
X005313Y015835D01*
X005217Y015835D01*
X005168Y015787D01*
X005168Y015593D01*
X005217Y015545D01*
X005313Y015545D01*
X005362Y015593D01*
X005067Y015593D02*
X005019Y015545D01*
X004922Y015545D01*
X004874Y015593D01*
X004922Y015690D02*
X005019Y015690D01*
X005067Y015642D01*
X005067Y015593D01*
X004922Y015690D02*
X004874Y015738D01*
X004874Y015787D01*
X004922Y015835D01*
X005019Y015835D01*
X005067Y015787D01*
X004772Y015690D02*
X004579Y015690D01*
X004478Y015593D02*
X004478Y015787D01*
X004429Y015835D01*
X004284Y015835D01*
X004284Y015545D01*
X004429Y015545D01*
X004478Y015593D01*
X004183Y015593D02*
X004135Y015545D01*
X004038Y015545D01*
X003990Y015593D01*
X003888Y015593D02*
X003888Y015835D01*
X003990Y015787D02*
X003990Y015738D01*
X004038Y015690D01*
X004135Y015690D01*
X004183Y015642D01*
X004183Y015593D01*
X004183Y015787D02*
X004135Y015835D01*
X004038Y015835D01*
X003990Y015787D01*
X003888Y015593D02*
X003840Y015545D01*
X003743Y015545D01*
X003695Y015593D01*
X003695Y015835D01*
X003743Y016045D02*
X003695Y016093D01*
X003695Y016335D01*
X003743Y016045D02*
X003840Y016045D01*
X003888Y016093D01*
X003888Y016335D01*
X003990Y016287D02*
X004038Y016335D01*
X004135Y016335D01*
X004183Y016287D01*
X004183Y016238D01*
X003990Y016045D01*
X004183Y016045D01*
D17*
X005080Y002530D02*
X002280Y002530D01*
X002280Y001830D01*
X001980Y001830D01*
X001980Y001030D01*
X002280Y001030D01*
X002280Y000530D01*
X005080Y000530D01*
X005080Y001030D01*
X005380Y001030D01*
X005380Y001830D01*
X005080Y001830D01*
X005080Y002530D01*
D18*
X004856Y005005D03*
X007479Y005630D03*
X007979Y010630D03*
X007979Y011130D03*
X007979Y011630D03*
X007979Y012130D03*
D19*
X008405Y012805D03*
X008405Y013455D03*
X007455Y013455D03*
X007455Y012805D03*
X003655Y003955D03*
X003655Y003305D03*
X002705Y003305D03*
X002705Y003955D03*
D20*
X003030Y003955D03*
X003330Y003955D03*
X003330Y003305D03*
X003030Y003305D03*
X007780Y012805D03*
X008080Y012805D03*
X008080Y013455D03*
X007780Y013455D03*
M02*
