%
M48
M72
T01C0.0130
%
T01
X1730Y2005
X1780Y2380
X1755Y2805
X1755Y3830
X2030Y4380
X2680Y4880
X2680Y5880
X1930Y6380
X1930Y6880
X2430Y7880
X2780Y7880
X2980Y7330
X3455Y6805
X3730Y7255
X3655Y7580
X3780Y7905
X3880Y8230
X4180Y8480
X4255Y7630
X4080Y7430
X4080Y7155
X4080Y6880
X4080Y6605
X4080Y6330
X4080Y6055
X4255Y5830
X4530Y5830
X4805Y5830
X5080Y5830
X5355Y5830
X5630Y5830
X5880Y5930
X5880Y6205
X5880Y6480
X5880Y6755
X5955Y7005
X6230Y7005
X6505Y7005
X6780Y7005
X7055Y7080
X7055Y7355
X7055Y7630
X7055Y7905
X7055Y8180
X6780Y7830
X6505Y7830
X6230Y7830
X5955Y7830
X5930Y8605
X6455Y8605
X6980Y9230
X7280Y9455
X7130Y10030
X6903Y10282
X7080Y10580
X7055Y10930
X7280Y11180
X6680Y12005
X6330Y12630
X6305Y13155
X6430Y14380
X7430Y15380
X7880Y14980
X7430Y16880
X6259Y17209
X6180Y16630
X5430Y18380
X4930Y17130
X4680Y16630
X4180Y16130
X4180Y15380
X4093Y16880
X4430Y18380
X5230Y15255
X5330Y13230
X5130Y12605
X5105Y12180
X4955Y13155
X4605Y13205
X4430Y12880
X4180Y12630
X3880Y13080
X3830Y12230
X3755Y11780
X3455Y11955
X3405Y10930
X2930Y11880
X2430Y11880
X1930Y11880
X1730Y9805
X1930Y8380
X3080Y9105
X4680Y8630
X3830Y5330
X5955Y4980
X6555Y5080
X6930Y6380
X8330Y5905
X9130Y4680
X7930Y1880
X7430Y1380
X6630Y3255
X6430Y2880
X5930Y2880
X8580Y7880
X8630Y8880
X8655Y9805
X8580Y10720
X8715Y11040
X8930Y13880
X8930Y14380
M30
