G75*
G70*
%OFA0B0*%
%FSLAX24Y24*%
%IPPOS*%
%LPD*%
%AMOC8*
5,1,8,0,0,1.08239X$1,22.5*
%
%ADD10C,0.1340*%
%ADD11OC8,0.0720*%
%ADD12R,0.0720X0.0720*%
%ADD13OC8,0.1980*%
%ADD14R,0.1680X0.0680*%
%ADD15R,0.0710X0.0540*%
%ADD16R,0.0540X0.0710*%
%ADD17C,0.0674*%
%ADD18R,0.0592X0.0592*%
D10*
X006847Y021340D03*
X026847Y015340D03*
X026847Y004340D03*
D11*
X025847Y002340D03*
X024847Y002340D03*
X023847Y002340D03*
X022847Y002340D03*
X021847Y002340D03*
X018847Y002340D03*
X017847Y002340D03*
X016847Y002340D03*
X015847Y002340D03*
X014847Y002340D03*
X024597Y006340D03*
X025902Y011321D03*
X026902Y011321D03*
X026902Y012321D03*
X025902Y012321D03*
X025902Y013321D03*
X026902Y013321D03*
X024847Y021340D03*
X023847Y021340D03*
X022847Y021340D03*
X021847Y021340D03*
X020847Y021340D03*
X019847Y021340D03*
X018847Y021340D03*
X016247Y021340D03*
X015247Y021340D03*
X014247Y021340D03*
X013247Y021340D03*
X012247Y021340D03*
X011247Y021340D03*
X010247Y021340D03*
X013247Y020090D03*
X014247Y020090D03*
D12*
X012247Y020090D03*
X017247Y021340D03*
X025847Y021340D03*
X025597Y006340D03*
X020847Y002340D03*
X013847Y002340D03*
D13*
X004267Y002640D03*
X005447Y004610D03*
X003087Y004610D03*
D14*
X027047Y007690D03*
X027047Y009690D03*
D15*
X024847Y004940D03*
X024847Y004340D03*
X024847Y003740D03*
X023597Y003740D03*
X023597Y004340D03*
X023597Y004940D03*
D16*
X014697Y018840D03*
X014097Y018840D03*
X013497Y018840D03*
D17*
X002847Y019457D03*
X002847Y017724D03*
D18*
X005097Y019840D03*
X009347Y019340D03*
X009347Y018090D03*
X026097Y008690D03*
M02*
