G75*
G70*
%OFA0B0*%
%FSLAX24Y24*%
%IPPOS*%
%LPD*%
%AMOC8*
5,1,8,0,0,1.08239X$1,22.5*
%
%ADD10C,0.0020*%
%ADD11C,0.0030*%
%ADD12C,0.0060*%
%ADD13C,0.0040*%
%ADD14R,0.0483X0.0017*%
%ADD15R,0.0700X0.0017*%
%ADD16R,0.0867X0.0017*%
%ADD17R,0.1000X0.0017*%
%ADD18R,0.1117X0.0017*%
%ADD19R,0.1217X0.0017*%
%ADD20R,0.1300X0.0017*%
%ADD21R,0.0517X0.0017*%
%ADD22R,0.0550X0.0017*%
%ADD23R,0.0450X0.0017*%
%ADD24R,0.0400X0.0017*%
%ADD25R,0.0417X0.0017*%
%ADD26R,0.0367X0.0017*%
%ADD27R,0.0383X0.0017*%
%ADD28R,0.0333X0.0017*%
%ADD29R,0.0350X0.0017*%
%ADD30R,0.0317X0.0017*%
%ADD31R,0.0283X0.0017*%
%ADD32R,0.0300X0.0017*%
%ADD33R,0.0283X0.0017*%
%ADD34R,0.0283X0.0017*%
%ADD35R,0.0250X0.0017*%
%ADD36R,0.0233X0.0017*%
%ADD37R,0.0267X0.0017*%
%ADD38R,0.0217X0.0017*%
%ADD39R,0.0267X0.0017*%
%ADD40R,0.0200X0.0017*%
%ADD41R,0.0250X0.0017*%
%ADD42R,0.0183X0.0017*%
%ADD43R,0.0233X0.0017*%
%ADD44R,0.0183X0.0017*%
%ADD45R,0.0183X0.0017*%
%ADD46R,0.0167X0.0017*%
%ADD47R,0.0167X0.0017*%
%ADD48R,0.0217X0.0017*%
%ADD49R,0.0067X0.0017*%
%ADD50R,0.0150X0.0017*%
%ADD51R,0.0200X0.0017*%
%ADD52R,0.0133X0.0017*%
%ADD53R,0.0217X0.0017*%
%ADD54R,0.0017X0.0017*%
%ADD55R,0.0133X0.0017*%
%ADD56R,0.0217X0.0017*%
%ADD57R,0.0050X0.0017*%
%ADD58R,0.0300X0.0017*%
%ADD59R,0.0083X0.0017*%
%ADD60R,0.0133X0.0017*%
%ADD61R,0.0433X0.0017*%
%ADD62R,0.0133X0.0017*%
%ADD63R,0.0117X0.0017*%
%ADD64R,0.0467X0.0017*%
%ADD65R,0.0117X0.0017*%
%ADD66R,0.0483X0.0017*%
%ADD67R,0.0467X0.0017*%
%ADD68R,0.0383X0.0017*%
%ADD69R,0.0350X0.0017*%
%ADD70R,0.0150X0.0017*%
%ADD71R,0.0317X0.0017*%
%ADD72R,0.0283X0.0017*%
%ADD73R,0.0167X0.0017*%
%ADD74R,0.0267X0.0017*%
%ADD75R,0.0167X0.0017*%
%ADD76R,0.0100X0.0017*%
%ADD77R,0.0100X0.0017*%
%ADD78R,0.0233X0.0017*%
%ADD79R,0.0117X0.0017*%
%ADD80R,0.0500X0.0017*%
%ADD81R,0.0083X0.0017*%
%ADD82R,0.0500X0.0017*%
%ADD83R,0.0483X0.0017*%
%ADD84R,0.0233X0.0017*%
%ADD85R,0.0450X0.0017*%
%ADD86R,0.0433X0.0017*%
%ADD87R,0.0417X0.0017*%
%ADD88R,0.0183X0.0017*%
%ADD89R,0.0433X0.0017*%
%ADD90R,0.0333X0.0017*%
%ADD91R,0.0400X0.0017*%
%ADD92R,0.0367X0.0017*%
%ADD93R,0.0017X0.0017*%
%ADD94R,0.0333X0.0017*%
%ADD95R,0.0383X0.0017*%
%ADD96R,0.0433X0.0017*%
%ADD97R,0.0717X0.0017*%
%ADD98R,0.0700X0.0017*%
%ADD99R,0.0717X0.0017*%
%ADD100R,0.0317X0.0017*%
%ADD101R,0.0333X0.0017*%
%ADD102R,0.0733X0.0017*%
%ADD103R,0.0717X0.0017*%
%ADD104R,0.0683X0.0017*%
%ADD105R,0.0650X0.0017*%
%ADD106R,0.0617X0.0017*%
%ADD107R,0.0600X0.0017*%
%ADD108R,0.0567X0.0017*%
%ADD109R,0.0367X0.0017*%
%ADD110R,0.0533X0.0017*%
%ADD111R,0.0367X0.0017*%
%ADD112R,0.0417X0.0017*%
%ADD113R,0.0550X0.0017*%
%ADD114R,0.0583X0.0017*%
%ADD115R,0.0733X0.0017*%
%ADD116R,0.0383X0.0017*%
%ADD117R,0.0767X0.0017*%
%ADD118R,0.0783X0.0017*%
%ADD119R,0.0033X0.0017*%
%ADD120R,0.0067X0.0017*%
%ADD121R,0.0533X0.0017*%
%ADD122R,0.0567X0.0017*%
%ADD123R,0.0517X0.0017*%
%ADD124R,0.0567X0.0017*%
%ADD125R,0.0517X0.0017*%
%ADD126R,0.0317X0.0017*%
%ADD127R,0.0067X0.0017*%
%ADD128R,0.0033X0.0017*%
%ADD129R,0.0467X0.0017*%
%ADD130R,0.0583X0.0017*%
%ADD131R,0.0600X0.0017*%
%ADD132R,0.0633X0.0017*%
%ADD133R,0.0683X0.0017*%
%ADD134R,0.0650X0.0017*%
%ADD135R,0.0717X0.0017*%
%ADD136R,0.0533X0.0017*%
%ADD137R,0.0883X0.0017*%
%ADD138R,0.0750X0.0017*%
%ADD139R,0.0883X0.0017*%
%ADD140R,0.0033X0.0017*%
%ADD141R,0.1717X0.0017*%
%ADD142R,0.1683X0.0017*%
%ADD143R,0.1650X0.0017*%
%ADD144R,0.1633X0.0017*%
%ADD145R,0.1333X0.0017*%
%ADD146R,0.1283X0.0017*%
%ADD147R,0.1233X0.0017*%
%ADD148R,0.1183X0.0017*%
%ADD149R,0.0867X0.0017*%
%ADD150R,0.0767X0.0017*%
%ADD151R,0.0050X0.0017*%
%ADD152C,0.0000*%
D10*
X004499Y007850D02*
X004499Y007961D01*
X004536Y007997D01*
X004572Y007961D01*
X004572Y007850D01*
X004646Y007850D02*
X004646Y007997D01*
X004609Y007997D01*
X004572Y007961D01*
X004720Y007961D02*
X004757Y007997D01*
X004830Y007997D01*
X004867Y007961D01*
X004867Y007887D01*
X004830Y007850D01*
X004757Y007850D01*
X004720Y007887D01*
X004720Y007961D01*
X004941Y007997D02*
X005051Y007997D01*
X005088Y007961D01*
X005088Y007887D01*
X005051Y007850D01*
X004941Y007850D01*
X005162Y007850D02*
X005162Y007887D01*
X005198Y007887D01*
X005198Y007850D01*
X005162Y007850D01*
X005272Y007887D02*
X005309Y007850D01*
X005383Y007850D01*
X005419Y007887D01*
X005419Y007961D01*
X005383Y007997D01*
X005309Y007997D01*
X005272Y007961D01*
X005272Y007887D01*
X005493Y007997D02*
X005530Y007997D01*
X005603Y007924D01*
X005603Y007997D02*
X005603Y007850D01*
X005677Y007850D02*
X005714Y007887D01*
X005714Y008034D01*
X005751Y007997D02*
X005677Y007997D01*
X005825Y007997D02*
X005935Y007997D01*
X005972Y007961D01*
X005972Y007887D01*
X005935Y007850D01*
X005825Y007850D01*
X006046Y007924D02*
X006193Y007924D01*
X006193Y007961D02*
X006156Y007997D01*
X006083Y007997D01*
X006046Y007961D01*
X006046Y007924D01*
X006083Y007850D02*
X006156Y007850D01*
X006193Y007887D01*
X006193Y007961D01*
X006267Y007850D02*
X006340Y007850D01*
X006303Y007850D02*
X006303Y008071D01*
X006340Y008071D01*
X006414Y007961D02*
X006414Y007924D01*
X006561Y007924D01*
X006561Y007961D02*
X006524Y007997D01*
X006451Y007997D01*
X006414Y007961D01*
X006451Y007850D02*
X006524Y007850D01*
X006561Y007887D01*
X006561Y007961D01*
X006635Y007961D02*
X006782Y007961D01*
X006856Y007997D02*
X006966Y007997D01*
X007003Y007961D01*
X006966Y007924D01*
X006893Y007924D01*
X006856Y007887D01*
X006893Y007850D01*
X007003Y007850D01*
X007077Y007887D02*
X007077Y007961D01*
X007114Y007997D01*
X007187Y007997D01*
X007224Y007961D01*
X007224Y007887D01*
X007187Y007850D01*
X007114Y007850D01*
X007077Y007887D01*
X007298Y007850D02*
X007408Y007850D01*
X007445Y007887D01*
X007445Y007961D01*
X007408Y007997D01*
X007298Y007997D01*
X007298Y007814D01*
X007335Y007777D01*
X007371Y007777D01*
X007519Y007887D02*
X007519Y007961D01*
X007556Y007997D01*
X007629Y007997D01*
X007666Y007961D01*
X007666Y007887D01*
X007629Y007850D01*
X007556Y007850D01*
X007519Y007887D01*
X007740Y007850D02*
X007813Y007850D01*
X007776Y007850D02*
X007776Y008071D01*
X007813Y008071D01*
X007887Y007887D02*
X007887Y007850D01*
X007924Y007850D01*
X007924Y007887D01*
X007887Y007887D01*
X007998Y007887D02*
X008035Y007850D01*
X008071Y007887D01*
X008108Y007850D01*
X008145Y007887D01*
X008145Y007997D01*
X008219Y007997D02*
X008219Y007887D01*
X008256Y007850D01*
X008292Y007887D01*
X008329Y007850D01*
X008366Y007887D01*
X008366Y007997D01*
X008440Y007997D02*
X008440Y007887D01*
X008477Y007850D01*
X008513Y007887D01*
X008550Y007850D01*
X008587Y007887D01*
X008587Y007997D01*
X008569Y008350D02*
X008532Y008387D01*
X008532Y008461D01*
X008569Y008497D01*
X008643Y008497D01*
X008679Y008461D01*
X008679Y008387D01*
X008643Y008350D01*
X008569Y008350D01*
X008422Y008350D02*
X008422Y008534D01*
X008385Y008571D01*
X008385Y008461D02*
X008458Y008461D01*
X008090Y008571D02*
X008090Y008350D01*
X007943Y008350D01*
X007869Y008387D02*
X007832Y008350D01*
X007759Y008350D01*
X007722Y008387D01*
X007722Y008461D01*
X007759Y008497D01*
X007832Y008497D01*
X007869Y008461D01*
X007869Y008387D01*
X007648Y008387D02*
X007611Y008350D01*
X007501Y008350D01*
X007501Y008314D02*
X007501Y008497D01*
X007611Y008497D01*
X007648Y008461D01*
X007648Y008387D01*
X007575Y008277D02*
X007538Y008277D01*
X007501Y008314D01*
X007427Y008387D02*
X007390Y008350D01*
X007317Y008350D01*
X007280Y008387D01*
X007280Y008461D01*
X007317Y008497D01*
X007390Y008497D01*
X007427Y008461D01*
X007427Y008387D01*
X007206Y008350D02*
X007096Y008350D01*
X007059Y008387D01*
X007096Y008424D01*
X007169Y008424D01*
X007206Y008461D01*
X007169Y008497D01*
X007059Y008497D01*
X006764Y008461D02*
X006691Y008461D01*
X006764Y008571D02*
X006764Y008350D01*
X006617Y008350D01*
X006543Y008350D02*
X006470Y008350D01*
X006506Y008350D02*
X006506Y008571D01*
X006543Y008571D01*
X006617Y008571D02*
X006764Y008571D01*
X006396Y008461D02*
X006359Y008497D01*
X006286Y008497D01*
X006249Y008461D01*
X006249Y008424D01*
X006396Y008424D01*
X006396Y008387D02*
X006396Y008461D01*
X006396Y008387D02*
X006359Y008350D01*
X006286Y008350D01*
X006175Y008387D02*
X006138Y008350D01*
X006028Y008350D01*
X005917Y008387D02*
X005880Y008350D01*
X005917Y008387D02*
X005917Y008534D01*
X005954Y008497D02*
X005880Y008497D01*
X005806Y008497D02*
X005806Y008350D01*
X005806Y008424D02*
X005733Y008497D01*
X005696Y008497D01*
X005622Y008461D02*
X005622Y008387D01*
X005586Y008350D01*
X005512Y008350D01*
X005476Y008387D01*
X005476Y008461D01*
X005512Y008497D01*
X005586Y008497D01*
X005622Y008461D01*
X005401Y008497D02*
X005365Y008497D01*
X005328Y008461D01*
X005291Y008497D01*
X005255Y008461D01*
X005255Y008350D01*
X005328Y008350D02*
X005328Y008461D01*
X005401Y008497D02*
X005401Y008350D01*
X005180Y008387D02*
X005180Y008461D01*
X005144Y008497D01*
X005070Y008497D01*
X005034Y008461D01*
X005034Y008424D01*
X005180Y008424D01*
X005180Y008387D02*
X005144Y008350D01*
X005070Y008350D01*
X004959Y008387D02*
X004923Y008350D01*
X004813Y008350D01*
X004738Y008350D02*
X004738Y008571D01*
X004702Y008497D02*
X004628Y008497D01*
X004592Y008461D01*
X004592Y008350D01*
X004517Y008387D02*
X004481Y008424D01*
X004371Y008424D01*
X004371Y008461D02*
X004371Y008350D01*
X004481Y008350D01*
X004517Y008387D01*
X004481Y008497D02*
X004407Y008497D01*
X004371Y008461D01*
X004296Y008497D02*
X004186Y008497D01*
X004150Y008461D01*
X004150Y008350D01*
X004075Y008350D02*
X004002Y008350D01*
X004039Y008350D02*
X004039Y008497D01*
X004075Y008497D01*
X004039Y008571D02*
X004039Y008607D01*
X003928Y008461D02*
X003928Y008387D01*
X003891Y008350D01*
X003781Y008350D01*
X003707Y008387D02*
X003670Y008424D01*
X003560Y008424D01*
X003560Y008461D02*
X003560Y008350D01*
X003670Y008350D01*
X003707Y008387D01*
X003670Y008497D02*
X003597Y008497D01*
X003560Y008461D01*
X003486Y008571D02*
X003449Y008571D01*
X003449Y008350D01*
X003413Y008350D02*
X003486Y008350D01*
X003781Y008497D02*
X003891Y008497D01*
X003928Y008461D01*
X004296Y008497D02*
X004296Y008350D01*
X004702Y008497D02*
X004738Y008461D01*
X004813Y008497D02*
X004923Y008497D01*
X004959Y008461D01*
X004959Y008387D01*
X006028Y008497D02*
X006138Y008497D01*
X006175Y008461D01*
X006175Y008387D01*
X007998Y007997D02*
X007998Y007887D01*
X008974Y008350D02*
X009011Y008387D01*
X009011Y008534D01*
X009048Y008497D02*
X008974Y008497D01*
X009122Y008497D02*
X009232Y008497D01*
X009269Y008461D01*
X009269Y008387D01*
X009232Y008350D01*
X009122Y008350D01*
X009343Y008350D02*
X009343Y008497D01*
X009343Y008350D02*
X009453Y008350D01*
X009490Y008387D01*
X009490Y008497D01*
X009564Y008497D02*
X009674Y008497D01*
X009711Y008461D01*
X009711Y008387D01*
X009674Y008350D01*
X009564Y008350D01*
X009564Y008571D01*
X009785Y008461D02*
X009821Y008497D01*
X009895Y008497D01*
X009931Y008461D01*
X009931Y008387D01*
X009895Y008350D01*
X009821Y008350D01*
X009785Y008387D01*
X009785Y008461D01*
X010006Y008497D02*
X010042Y008497D01*
X010116Y008424D01*
X010116Y008497D02*
X010116Y008350D01*
X010190Y008461D02*
X010227Y008424D01*
X010337Y008424D01*
X010337Y008350D02*
X010337Y008571D01*
X010227Y008571D01*
X010190Y008534D01*
X010190Y008461D01*
D11*
X009539Y018381D02*
X009442Y018381D01*
X009394Y018429D01*
X009394Y018671D01*
X009293Y018623D02*
X009293Y018575D01*
X009245Y018526D01*
X009148Y018526D01*
X009099Y018478D01*
X009099Y018429D01*
X009148Y018381D01*
X009245Y018381D01*
X009293Y018429D01*
X009293Y018623D02*
X009245Y018671D01*
X009148Y018671D01*
X009099Y018623D01*
X008998Y018671D02*
X008998Y018381D01*
X008853Y018381D01*
X008805Y018429D01*
X008805Y018478D01*
X008853Y018526D01*
X008998Y018526D01*
X008853Y018526D02*
X008805Y018575D01*
X008805Y018623D01*
X008853Y018671D01*
X008998Y018671D01*
X008704Y018526D02*
X008510Y018526D01*
X008607Y018623D02*
X008607Y018429D01*
X009539Y018381D02*
X009588Y018429D01*
X009588Y018671D01*
X009539Y019631D02*
X009442Y019631D01*
X009394Y019679D01*
X009394Y019921D01*
X009293Y019873D02*
X009293Y019825D01*
X009245Y019776D01*
X009148Y019776D01*
X009099Y019728D01*
X009099Y019679D01*
X009148Y019631D01*
X009245Y019631D01*
X009293Y019679D01*
X009293Y019873D02*
X009245Y019921D01*
X009148Y019921D01*
X009099Y019873D01*
X008998Y019921D02*
X008998Y019631D01*
X008853Y019631D01*
X008805Y019679D01*
X008805Y019728D01*
X008853Y019776D01*
X008998Y019776D01*
X008853Y019776D02*
X008805Y019825D01*
X008805Y019873D01*
X008853Y019921D01*
X008998Y019921D01*
X008704Y019776D02*
X008510Y019776D01*
X009539Y019631D02*
X009588Y019679D01*
X009588Y019921D01*
X011848Y018976D02*
X011848Y018605D01*
X012095Y018605D02*
X012095Y018976D01*
X011972Y018852D01*
X011848Y018976D01*
X012216Y018976D02*
X012216Y018605D01*
X012340Y018729D01*
X012463Y018605D01*
X012463Y018976D01*
X012585Y018914D02*
X012585Y018791D01*
X012646Y018729D01*
X012832Y018729D01*
X012832Y018605D02*
X012832Y018976D01*
X012646Y018976D01*
X012585Y018914D01*
X015353Y018976D02*
X015477Y018976D01*
X015415Y018976D02*
X015415Y018605D01*
X015477Y018605D02*
X015353Y018605D01*
X015598Y018667D02*
X015598Y018729D01*
X015660Y018791D01*
X015783Y018791D01*
X015845Y018852D01*
X015845Y018914D01*
X015783Y018976D01*
X015660Y018976D01*
X015598Y018914D01*
X015966Y018914D02*
X016028Y018976D01*
X016152Y018976D01*
X016213Y018914D01*
X016213Y018667D01*
X016152Y018605D01*
X016028Y018605D01*
X015966Y018667D01*
X015966Y018914D01*
X016335Y018976D02*
X016335Y018605D01*
X016582Y018605D02*
X016582Y018976D01*
X016458Y018852D01*
X016335Y018976D01*
X015845Y018667D02*
X015783Y018605D01*
X015660Y018605D01*
X015598Y018667D01*
X005338Y020179D02*
X005289Y020131D01*
X005192Y020131D01*
X005144Y020179D01*
X005144Y020421D01*
X005043Y020373D02*
X005043Y020325D01*
X004995Y020276D01*
X004898Y020276D01*
X004849Y020228D01*
X004849Y020179D01*
X004898Y020131D01*
X004995Y020131D01*
X005043Y020179D01*
X005043Y020373D02*
X004995Y020421D01*
X004898Y020421D01*
X004849Y020373D01*
X004748Y020421D02*
X004748Y020131D01*
X004603Y020131D01*
X004555Y020179D01*
X004555Y020228D01*
X004603Y020276D01*
X004748Y020276D01*
X004603Y020276D02*
X004555Y020325D01*
X004555Y020373D01*
X004603Y020421D01*
X004748Y020421D01*
X004454Y020276D02*
X004260Y020276D01*
X004159Y020276D02*
X004062Y020325D01*
X004014Y020325D01*
X003965Y020276D01*
X003965Y020179D01*
X004014Y020131D01*
X004111Y020131D01*
X004159Y020179D01*
X004159Y020276D02*
X004159Y020421D01*
X003965Y020421D01*
X003864Y020421D02*
X003864Y020228D01*
X003768Y020131D01*
X003671Y020228D01*
X003671Y020421D01*
X005338Y020421D02*
X005338Y020179D01*
X023721Y005664D02*
X023783Y005726D01*
X023906Y005726D01*
X023968Y005664D01*
X023968Y005417D01*
X023906Y005355D01*
X023783Y005355D01*
X023721Y005417D01*
X024089Y005355D02*
X024336Y005355D01*
X024089Y005602D01*
X024089Y005664D01*
X024151Y005726D01*
X024274Y005726D01*
X024336Y005664D01*
X024458Y005726D02*
X024582Y005726D01*
X024520Y005726D02*
X024520Y005355D01*
X024582Y005355D02*
X024458Y005355D01*
X025362Y004884D02*
X025423Y004946D01*
X025732Y004946D01*
X025732Y005007D02*
X025732Y004884D01*
X025547Y004639D02*
X025547Y004392D01*
X025485Y004271D02*
X025547Y004209D01*
X025547Y004024D01*
X025423Y004024D01*
X025362Y004085D01*
X025362Y004209D01*
X025423Y004271D01*
X025485Y004271D01*
X025670Y004147D02*
X025547Y004024D01*
X025547Y003902D02*
X025547Y003655D01*
X025608Y003655D02*
X025732Y003779D01*
X025608Y003902D01*
X025362Y003902D01*
X025362Y003655D02*
X025608Y003655D01*
X025670Y004147D02*
X025732Y004271D01*
X025423Y004760D02*
X025362Y004822D01*
X025362Y004884D01*
X025168Y003326D02*
X025045Y003202D01*
X025045Y002955D01*
X024923Y002955D02*
X024923Y003326D01*
X024676Y002955D01*
X024676Y003326D01*
X024555Y003202D02*
X024555Y002955D01*
X024555Y003141D02*
X024308Y003141D01*
X024308Y003202D02*
X024308Y002955D01*
X024187Y002955D02*
X023940Y002955D01*
X023818Y003017D02*
X023757Y002955D01*
X023633Y002955D01*
X023571Y003017D01*
X023571Y003264D01*
X023633Y003326D01*
X023757Y003326D01*
X023818Y003264D01*
X023818Y003017D01*
X024187Y002955D02*
X024187Y003326D01*
X024308Y003202D02*
X024431Y003326D01*
X024555Y003202D01*
X025045Y003141D02*
X025291Y003141D01*
X025291Y003202D02*
X025291Y002955D01*
X025291Y003202D02*
X025168Y003326D01*
X023450Y003264D02*
X023450Y003017D01*
X023388Y002955D01*
X023265Y002955D01*
X023203Y003017D01*
X023203Y003141D01*
X023327Y003141D01*
X023450Y003264D02*
X023388Y003326D01*
X023265Y003326D01*
X023203Y003264D01*
X022958Y003582D02*
X023082Y003706D01*
X022958Y003829D01*
X022712Y003829D01*
X022773Y003951D02*
X022712Y004012D01*
X022712Y004136D01*
X022773Y004197D01*
X022897Y004197D01*
X022958Y004136D01*
X022958Y004074D01*
X022897Y003951D01*
X023082Y003951D01*
X023082Y004197D01*
X022897Y004319D02*
X022897Y004566D01*
X022773Y004687D02*
X022712Y004749D01*
X022712Y004811D01*
X022773Y004872D01*
X023082Y004872D01*
X023082Y004811D02*
X023082Y004934D01*
X022897Y003829D02*
X022897Y003582D01*
X022958Y003582D02*
X022712Y003582D01*
X024473Y008981D02*
X024473Y009271D01*
X024570Y009271D02*
X024376Y009271D01*
X024671Y009223D02*
X024719Y009271D01*
X024816Y009271D01*
X024864Y009223D01*
X024864Y009175D01*
X024816Y009126D01*
X024719Y009126D01*
X024671Y009078D01*
X024671Y009029D01*
X024719Y008981D01*
X024816Y008981D01*
X024864Y009029D01*
X024965Y008981D02*
X025159Y008981D01*
X025159Y009271D01*
X024965Y009271D01*
X025062Y009126D02*
X025159Y009126D01*
X025260Y009271D02*
X025454Y009271D01*
X025357Y009271D02*
X025357Y008981D01*
X025555Y009126D02*
X025748Y009126D01*
X025849Y009271D02*
X026043Y009271D01*
X026043Y008981D01*
X026144Y008981D02*
X026241Y009078D01*
X026192Y009078D02*
X026338Y009078D01*
X026338Y008981D02*
X026338Y009271D01*
X026192Y009271D01*
X026144Y009223D01*
X026144Y009126D01*
X026192Y009078D01*
X026043Y009126D02*
X025946Y009126D01*
D12*
X009037Y007590D02*
X008847Y007780D01*
X009017Y008020D01*
X009040Y008014D02*
X009484Y008014D01*
X009454Y007956D02*
X009021Y007956D01*
X009047Y007990D02*
X008897Y007790D01*
X009047Y007640D01*
X009247Y007790D01*
X009347Y007740D01*
X009547Y008140D01*
X009347Y008340D01*
X009347Y008590D01*
X009497Y008840D01*
X009747Y008890D01*
X010047Y008790D01*
X009997Y008790D01*
X010147Y008540D01*
X010047Y008240D01*
X009947Y008140D01*
X010097Y007740D01*
X010197Y007790D01*
X010397Y007640D01*
X010547Y007790D01*
X010397Y008040D01*
X010497Y008290D01*
X010797Y008390D01*
X010797Y008340D01*
X010797Y008590D01*
X010497Y008640D01*
X010397Y008940D01*
X010597Y009140D01*
X010447Y009290D01*
X010147Y009140D01*
X009847Y009290D01*
X009897Y009290D01*
X009847Y009540D01*
X009597Y009540D01*
X009597Y009240D01*
X009297Y009140D01*
X009047Y009290D01*
X008897Y009190D01*
X009047Y008890D01*
X008947Y008640D01*
X008647Y008590D01*
X008647Y008340D01*
X008947Y008340D01*
X009047Y007990D01*
X009023Y008073D02*
X009513Y008073D01*
X009542Y008131D02*
X009006Y008131D01*
X008990Y008190D02*
X009497Y008190D01*
X009567Y008150D02*
X009377Y007700D01*
X009277Y007760D01*
X009037Y007590D01*
X009024Y007663D02*
X009077Y007663D01*
X009155Y007722D02*
X008965Y007722D01*
X008907Y007780D02*
X009233Y007780D01*
X009267Y007780D02*
X009366Y007780D01*
X009396Y007839D02*
X008933Y007839D01*
X008977Y007897D02*
X009425Y007897D01*
X009439Y008249D02*
X008973Y008249D01*
X008956Y008307D02*
X009380Y008307D01*
X009347Y008366D02*
X008647Y008366D01*
X008617Y008340D02*
X008917Y008290D01*
X008647Y008424D02*
X009347Y008424D01*
X009347Y008483D02*
X008647Y008483D01*
X008647Y008541D02*
X009347Y008541D01*
X009352Y008600D02*
X008703Y008600D01*
X008617Y008600D02*
X008617Y008340D01*
X008617Y008600D02*
X008917Y008660D01*
X008954Y008658D02*
X009387Y008658D01*
X009422Y008717D02*
X008977Y008717D01*
X009001Y008775D02*
X009458Y008775D01*
X009493Y008834D02*
X009024Y008834D01*
X009046Y008893D02*
X010413Y008893D01*
X010437Y008910D02*
X010617Y009170D01*
X010427Y009350D01*
X010167Y009170D01*
X010236Y009185D02*
X010552Y009185D01*
X010583Y009127D02*
X008928Y009127D01*
X008899Y009185D02*
X009222Y009185D01*
X009297Y009170D02*
X009037Y009350D01*
X008847Y009170D01*
X009027Y008910D01*
X009016Y008951D02*
X010407Y008951D01*
X010466Y009010D02*
X008987Y009010D01*
X008958Y009068D02*
X010524Y009068D01*
X010493Y009244D02*
X010353Y009244D01*
X010057Y009185D02*
X009431Y009185D01*
X009547Y009270D02*
X009597Y009590D01*
X009867Y009590D01*
X009917Y009270D01*
X009940Y009244D02*
X009597Y009244D01*
X009597Y009302D02*
X009894Y009302D01*
X009883Y009361D02*
X009597Y009361D01*
X009597Y009419D02*
X009871Y009419D01*
X009859Y009478D02*
X009597Y009478D01*
X009597Y009537D02*
X009847Y009537D01*
X009124Y009244D02*
X008977Y009244D01*
X009916Y008834D02*
X010432Y008834D01*
X010452Y008775D02*
X010006Y008775D01*
X010041Y008717D02*
X010471Y008717D01*
X010491Y008658D02*
X010076Y008658D01*
X010111Y008600D02*
X010740Y008600D01*
X010797Y008541D02*
X010146Y008541D01*
X010127Y008483D02*
X010797Y008483D01*
X010797Y008424D02*
X010108Y008424D01*
X010088Y008366D02*
X010722Y008366D01*
X010847Y008340D02*
X010547Y008290D01*
X010547Y008307D02*
X010069Y008307D01*
X010049Y008249D02*
X010480Y008249D01*
X010456Y008190D02*
X009996Y008190D01*
X009950Y008131D02*
X010433Y008131D01*
X010410Y008073D02*
X009972Y008073D01*
X009994Y008014D02*
X010412Y008014D01*
X010447Y008020D02*
X010607Y007780D01*
X010427Y007590D01*
X010187Y007760D01*
X010087Y007700D01*
X009887Y008150D01*
X010016Y007956D02*
X010447Y007956D01*
X010483Y007897D02*
X010038Y007897D01*
X010060Y007839D02*
X010518Y007839D01*
X010536Y007780D02*
X010210Y007780D01*
X010176Y007780D02*
X010082Y007780D01*
X010288Y007722D02*
X010478Y007722D01*
X010419Y007663D02*
X010366Y007663D01*
X010847Y008340D02*
X010847Y008600D01*
X010547Y008660D01*
X010163Y009174D02*
X010118Y009199D01*
X010071Y009222D01*
X010023Y009241D01*
X009974Y009258D01*
X009924Y009271D01*
X009887Y008160D02*
X009920Y008178D01*
X009950Y008199D01*
X009979Y008223D01*
X010005Y008250D01*
X010027Y008279D01*
X010047Y008311D01*
X010064Y008344D01*
X010077Y008379D01*
X010086Y008415D01*
X010092Y008452D01*
X010094Y008489D01*
X010092Y008526D01*
X010087Y008563D01*
X010077Y008599D01*
X010065Y008634D01*
X010048Y008668D01*
X010029Y008699D01*
X010006Y008729D01*
X009980Y008756D01*
X009952Y008780D01*
X009921Y008801D01*
X009889Y008819D01*
X009855Y008834D01*
X009819Y008845D01*
X009783Y008853D01*
X009746Y008857D01*
X009708Y008857D01*
X009671Y008853D01*
X009635Y008845D01*
X009599Y008834D01*
X009565Y008819D01*
X009533Y008801D01*
X009502Y008780D01*
X009474Y008756D01*
X009448Y008729D01*
X009425Y008699D01*
X009406Y008668D01*
X009389Y008634D01*
X009377Y008599D01*
X009367Y008563D01*
X009362Y008526D01*
X009360Y008489D01*
X009362Y008452D01*
X009368Y008415D01*
X009377Y008379D01*
X009390Y008344D01*
X009407Y008311D01*
X009427Y008279D01*
X009449Y008250D01*
X009475Y008223D01*
X009504Y008199D01*
X009534Y008178D01*
X009567Y008160D01*
X009016Y008020D02*
X008993Y008061D01*
X008972Y008104D01*
X008954Y008149D01*
X008939Y008194D01*
X008926Y008240D01*
X008916Y008287D01*
X008918Y008661D02*
X008933Y008713D01*
X008952Y008764D01*
X008974Y008814D01*
X008999Y008862D01*
X009028Y008909D01*
X009293Y009172D02*
X009340Y009199D01*
X009389Y009222D01*
X009439Y009242D01*
X009490Y009259D01*
X009542Y009273D01*
X010436Y008905D02*
X010463Y008859D01*
X010487Y008811D01*
X010508Y008762D01*
X010526Y008711D01*
X010540Y008660D01*
X010546Y008289D02*
X010533Y008233D01*
X010516Y008178D01*
X010495Y008125D01*
X010471Y008073D01*
X010443Y008023D01*
X023197Y005190D02*
X023197Y003490D01*
X023199Y003473D01*
X023203Y003456D01*
X023210Y003440D01*
X023220Y003426D01*
X023233Y003413D01*
X023247Y003403D01*
X023263Y003396D01*
X023280Y003392D01*
X023297Y003390D01*
X023897Y003390D01*
X023914Y003392D01*
X023931Y003396D01*
X023947Y003403D01*
X023961Y003413D01*
X023974Y003426D01*
X023984Y003440D01*
X023991Y003456D01*
X023995Y003473D01*
X023997Y003490D01*
X023997Y005190D01*
X023995Y005207D01*
X023991Y005224D01*
X023984Y005240D01*
X023974Y005254D01*
X023961Y005267D01*
X023947Y005277D01*
X023931Y005284D01*
X023914Y005288D01*
X023897Y005290D01*
X023297Y005290D01*
X023280Y005288D01*
X023263Y005284D01*
X023247Y005277D01*
X023233Y005267D01*
X023220Y005254D01*
X023210Y005240D01*
X023203Y005224D01*
X023199Y005207D01*
X023197Y005190D01*
X024447Y005190D02*
X024447Y003490D01*
X024449Y003473D01*
X024453Y003456D01*
X024460Y003440D01*
X024470Y003426D01*
X024483Y003413D01*
X024497Y003403D01*
X024513Y003396D01*
X024530Y003392D01*
X024547Y003390D01*
X025147Y003390D01*
X025164Y003392D01*
X025181Y003396D01*
X025197Y003403D01*
X025211Y003413D01*
X025224Y003426D01*
X025234Y003440D01*
X025241Y003456D01*
X025245Y003473D01*
X025247Y003490D01*
X025247Y005190D01*
X025245Y005207D01*
X025241Y005224D01*
X025234Y005240D01*
X025224Y005254D01*
X025211Y005267D01*
X025197Y005277D01*
X025181Y005284D01*
X025164Y005288D01*
X025147Y005290D01*
X024547Y005290D01*
X024530Y005288D01*
X024513Y005284D01*
X024497Y005277D01*
X024483Y005267D01*
X024470Y005254D01*
X024460Y005240D01*
X024453Y005224D01*
X024449Y005207D01*
X024447Y005190D01*
X014947Y018440D02*
X013247Y018440D01*
X013230Y018442D01*
X013213Y018446D01*
X013197Y018453D01*
X013183Y018463D01*
X013170Y018476D01*
X013160Y018490D01*
X013153Y018506D01*
X013149Y018523D01*
X013147Y018540D01*
X013147Y019140D01*
X013149Y019157D01*
X013153Y019174D01*
X013160Y019190D01*
X013170Y019204D01*
X013183Y019217D01*
X013197Y019227D01*
X013213Y019234D01*
X013230Y019238D01*
X013247Y019240D01*
X014947Y019240D01*
X014964Y019238D01*
X014981Y019234D01*
X014997Y019227D01*
X015011Y019217D01*
X015024Y019204D01*
X015034Y019190D01*
X015041Y019174D01*
X015045Y019157D01*
X015047Y019140D01*
X015047Y018540D01*
X015045Y018523D01*
X015041Y018506D01*
X015034Y018490D01*
X015024Y018476D01*
X015011Y018463D01*
X014997Y018453D01*
X014981Y018446D01*
X014964Y018442D01*
X014947Y018440D01*
D13*
X014898Y018241D02*
X014718Y018241D01*
X014658Y018181D01*
X014658Y017941D01*
X014718Y017880D01*
X014898Y017880D01*
X014898Y018241D01*
X014530Y018121D02*
X014410Y018241D01*
X014410Y017880D01*
X014530Y017880D02*
X014290Y017880D01*
X014162Y017880D02*
X013921Y017880D01*
X014041Y017880D02*
X014041Y018241D01*
X014162Y018121D01*
X013793Y018061D02*
X013553Y018061D01*
X013425Y017941D02*
X013365Y017880D01*
X013305Y017880D01*
X013245Y017941D01*
X013245Y018241D01*
X013305Y018241D02*
X013185Y018241D01*
D14*
X007713Y012524D03*
X006080Y012557D03*
X005380Y012124D03*
X008580Y010107D03*
X008563Y010074D03*
X008563Y010057D03*
X006830Y009124D03*
D15*
X006822Y009140D03*
X005672Y010590D03*
X005672Y010640D03*
X005672Y010690D03*
X005672Y011140D03*
X005672Y011190D03*
X005672Y011240D03*
X005672Y011290D03*
D16*
X006822Y009157D03*
D17*
X006822Y009174D03*
D18*
X006813Y009190D03*
D19*
X006813Y009207D03*
D20*
X006822Y009224D03*
D21*
X007247Y009240D03*
X006797Y011040D03*
X008447Y011990D03*
D22*
X007663Y011740D03*
X005763Y012440D03*
X006397Y009240D03*
D23*
X006313Y009257D03*
X005930Y010124D03*
X006797Y011007D03*
X006613Y011207D03*
X004947Y011307D03*
X004930Y011224D03*
X007330Y009257D03*
X008330Y009674D03*
X008347Y009657D03*
X008580Y010124D03*
X008730Y010524D03*
X008680Y011507D03*
X008680Y011524D03*
X008663Y011557D03*
X008663Y011574D03*
X008647Y011607D03*
X007730Y012507D03*
D24*
X008455Y011907D03*
X008672Y011474D03*
X008755Y010974D03*
X008572Y010157D03*
X008288Y009757D03*
X007388Y009274D03*
X006522Y011357D03*
X006522Y011374D03*
X007505Y011657D03*
X005372Y012074D03*
X005105Y011674D03*
X004988Y011374D03*
D25*
X004947Y011207D03*
X006247Y009274D03*
X008447Y011924D03*
D26*
X008655Y011440D03*
X007438Y009290D03*
X006088Y010240D03*
D27*
X006197Y009290D03*
X008447Y011890D03*
D28*
X008138Y012207D03*
X007838Y012424D03*
X007405Y011574D03*
X007388Y011557D03*
X007355Y011524D03*
X007338Y011507D03*
X007305Y011474D03*
X007288Y011457D03*
X007255Y011424D03*
X007238Y011407D03*
X007205Y011374D03*
X007188Y011357D03*
X007155Y011324D03*
X007138Y011307D03*
X007105Y011274D03*
X007088Y011257D03*
X007055Y011224D03*
X007038Y011207D03*
X006555Y010707D03*
X006505Y010657D03*
X006455Y010607D03*
X006405Y010557D03*
X006355Y010507D03*
X006305Y010457D03*
X006255Y010407D03*
X005855Y009874D03*
X006105Y009324D03*
X007488Y009307D03*
D29*
X008563Y010174D03*
X007430Y011607D03*
X006613Y011257D03*
X006597Y011274D03*
X006613Y010774D03*
X006597Y010757D03*
X006230Y010374D03*
X006213Y010357D03*
X006180Y010324D03*
X006163Y010307D03*
X006130Y010274D03*
X006113Y010257D03*
X006147Y009307D03*
X004980Y011174D03*
X008130Y012224D03*
X008447Y011874D03*
D30*
X007913Y012374D03*
X006580Y011307D03*
X007030Y010724D03*
X007080Y010674D03*
X007130Y010624D03*
X007530Y009324D03*
X005630Y012274D03*
X005680Y012307D03*
D31*
X007563Y009340D03*
D32*
X006072Y009340D03*
X005055Y011390D03*
X005605Y012240D03*
X005655Y012290D03*
X007738Y012140D03*
X008438Y011840D03*
D33*
X008697Y010924D03*
X008547Y010224D03*
X007597Y009357D03*
X005997Y009374D03*
X005597Y012524D03*
D34*
X005563Y012207D03*
X006030Y012724D03*
X005130Y011607D03*
X007630Y011924D03*
X008680Y011157D03*
X008680Y010674D03*
X006030Y009357D03*
D35*
X005913Y009424D03*
X007630Y009374D03*
X007663Y010107D03*
X007563Y010207D03*
X007530Y010274D03*
X007497Y010307D03*
X007480Y010324D03*
X008297Y009857D03*
X008313Y009874D03*
X008347Y009924D03*
X008380Y009974D03*
X008413Y009607D03*
X008430Y011807D03*
X008247Y012057D03*
X008213Y012107D03*
X008197Y012124D03*
X008163Y012157D03*
X008263Y012407D03*
X007863Y012674D03*
X007413Y012824D03*
X006947Y012874D03*
X006947Y012907D03*
X006480Y012874D03*
X006480Y012857D03*
X006013Y012757D03*
X005247Y012224D03*
X005363Y011974D03*
X005330Y011924D03*
X005313Y011907D03*
X005297Y011874D03*
X005280Y011857D03*
X007630Y011957D03*
X007663Y012074D03*
X007763Y012174D03*
D36*
X008438Y011790D03*
X008555Y012040D03*
X008105Y011090D03*
X008105Y011040D03*
X008105Y010990D03*
X008105Y010940D03*
X008105Y010890D03*
X008105Y010840D03*
X008105Y010790D03*
X008105Y010740D03*
X007555Y010240D03*
X007255Y010540D03*
X007205Y010590D03*
X006438Y011390D03*
X006405Y011440D03*
X006355Y011490D03*
X005838Y011090D03*
X005838Y011040D03*
X005838Y010840D03*
X005838Y010790D03*
X005838Y010740D03*
X005105Y011440D03*
X005138Y011540D03*
X005805Y009490D03*
X007655Y009390D03*
X008355Y009940D03*
X008388Y009990D03*
D37*
X007622Y010140D03*
X007572Y010190D03*
X008622Y011390D03*
X006022Y012740D03*
X005372Y011990D03*
X005022Y011140D03*
X005972Y009390D03*
D38*
X005763Y009524D03*
X005863Y009824D03*
X005030Y010907D03*
X005030Y010924D03*
X005030Y010957D03*
X005030Y010974D03*
X005030Y011007D03*
X005030Y011024D03*
X005030Y011057D03*
X005030Y011074D03*
X005030Y011107D03*
X005030Y011124D03*
X005113Y011474D03*
X005130Y011524D03*
X005563Y012574D03*
X006463Y012924D03*
X007430Y012874D03*
X007880Y012707D03*
X007630Y012024D03*
X007630Y012007D03*
X007630Y011974D03*
X008463Y011724D03*
X007263Y010524D03*
X007280Y010507D03*
X007313Y010474D03*
X007330Y010457D03*
X007363Y010424D03*
X007380Y010407D03*
X007413Y010374D03*
X007430Y010357D03*
X007730Y010024D03*
X007763Y009974D03*
X007713Y009424D03*
X007680Y009407D03*
X008530Y010257D03*
X008530Y010274D03*
X006413Y011424D03*
D39*
X005355Y011957D03*
X006488Y012824D03*
X006938Y012857D03*
X007405Y012807D03*
X007855Y012657D03*
X007755Y012157D03*
X007705Y012107D03*
X008155Y012174D03*
X008438Y011824D03*
X007588Y010174D03*
X007605Y010157D03*
X007638Y010124D03*
X005988Y010074D03*
X005938Y009407D03*
D40*
X005622Y009640D03*
X005572Y009690D03*
X005422Y010740D03*
X005055Y010690D03*
X005038Y010790D03*
X005038Y010840D03*
X006038Y011790D03*
X006088Y011740D03*
X006138Y011690D03*
X006188Y011640D03*
X006238Y011590D03*
X006288Y011540D03*
X007638Y012040D03*
X008455Y011740D03*
X008505Y011640D03*
X008572Y010390D03*
X008555Y010340D03*
X008538Y010290D03*
X007788Y009940D03*
X007755Y009990D03*
X007722Y009440D03*
D41*
X008330Y009890D03*
X008530Y010240D03*
X008613Y010440D03*
X008663Y010690D03*
X007513Y010290D03*
X005880Y009440D03*
X005280Y011840D03*
X005313Y011890D03*
X006947Y012890D03*
X007630Y011940D03*
X008180Y012140D03*
X008263Y012040D03*
D42*
X008647Y010874D03*
X008647Y010857D03*
X008647Y010824D03*
X008647Y010807D03*
X008647Y010774D03*
X008647Y010757D03*
X008647Y010724D03*
X007797Y009924D03*
X007797Y009507D03*
X007747Y009457D03*
X005547Y009724D03*
X005497Y009774D03*
X005347Y009974D03*
X005147Y010357D03*
X005097Y010507D03*
X005097Y010524D03*
X005047Y010757D03*
X006947Y013007D03*
D43*
X006005Y012774D03*
X005138Y011574D03*
X005138Y011557D03*
X005105Y011457D03*
X005838Y011124D03*
X005838Y011107D03*
X005838Y011074D03*
X005838Y011057D03*
X005838Y011024D03*
X005838Y010824D03*
X005838Y010807D03*
X005838Y010774D03*
X005838Y010757D03*
X006388Y011457D03*
X007188Y010607D03*
X007238Y010557D03*
X007538Y010257D03*
X007555Y010224D03*
X007688Y010074D03*
X007705Y010057D03*
X008338Y009907D03*
X008105Y010757D03*
X008105Y010774D03*
X008105Y010807D03*
X008105Y010824D03*
X008105Y010857D03*
X008105Y010874D03*
X008105Y010907D03*
X008105Y010924D03*
X008105Y010957D03*
X008105Y010974D03*
X008105Y011007D03*
X008105Y011024D03*
X008105Y011057D03*
X008105Y011074D03*
X008105Y011107D03*
X008105Y011124D03*
X008238Y012074D03*
X005838Y009474D03*
X005855Y009457D03*
X005788Y009507D03*
D44*
X005563Y009707D03*
X005513Y009757D03*
X005463Y009807D03*
X005430Y009857D03*
X005413Y009874D03*
X005380Y009924D03*
X005313Y010024D03*
X005280Y010074D03*
X005263Y010107D03*
X005230Y010174D03*
X005213Y010207D03*
X005180Y010274D03*
X005163Y010324D03*
X005130Y010407D03*
X005113Y010457D03*
X005113Y010474D03*
X005080Y010557D03*
X005080Y010574D03*
X005080Y010607D03*
X005063Y010624D03*
X005063Y010657D03*
X005063Y010674D03*
X005413Y010757D03*
X005413Y010774D03*
X005413Y010807D03*
X005413Y011057D03*
X005413Y011074D03*
X005413Y011107D03*
X006013Y011824D03*
X006413Y011407D03*
X007680Y010774D03*
X007680Y010757D03*
X007813Y009907D03*
X007763Y009474D03*
X008580Y010424D03*
X008630Y011174D03*
X008630Y011207D03*
X008630Y011224D03*
X008613Y011257D03*
X008613Y011274D03*
X008613Y011307D03*
X006013Y010057D03*
D45*
X005530Y009740D03*
X005480Y009790D03*
X005363Y009940D03*
X005080Y010590D03*
X005063Y010640D03*
X005413Y010790D03*
X005413Y011090D03*
X005230Y012240D03*
X005980Y012840D03*
X008613Y011290D03*
X008630Y011240D03*
X008630Y011190D03*
X007680Y010740D03*
X007813Y009890D03*
X007780Y009490D03*
X008430Y009590D03*
D46*
X007855Y009807D03*
X007838Y009857D03*
X007805Y009524D03*
X005455Y009824D03*
X005388Y009907D03*
X005355Y009957D03*
X005288Y010057D03*
X005255Y010124D03*
X005238Y010157D03*
X005205Y010224D03*
X005188Y010257D03*
X005138Y010374D03*
X005405Y010824D03*
X005405Y010857D03*
X005405Y011024D03*
X006005Y011857D03*
X005988Y011874D03*
X005955Y011907D03*
X006455Y012974D03*
X006955Y013024D03*
X007438Y012924D03*
X007938Y011874D03*
X008788Y011624D03*
D47*
X007672Y010840D03*
X007672Y010790D03*
X007822Y009540D03*
X005272Y010090D03*
X005222Y010190D03*
X005172Y010290D03*
X005122Y010440D03*
X004972Y011840D03*
X005972Y011890D03*
D48*
X005997Y012790D03*
X006947Y012940D03*
X007297Y010490D03*
X007347Y010440D03*
X007397Y010390D03*
X007447Y010340D03*
X005747Y009540D03*
D49*
X008472Y009557D03*
X005772Y012074D03*
D50*
X005213Y012257D03*
X006447Y013007D03*
X006947Y013057D03*
X007447Y012957D03*
X007663Y010857D03*
X007847Y009824D03*
X007863Y009774D03*
X007847Y009574D03*
X007830Y009557D03*
X006013Y010024D03*
X005980Y009924D03*
X005963Y009907D03*
X005863Y009807D03*
D51*
X005722Y009557D03*
X005655Y009607D03*
X005638Y009624D03*
X005605Y009657D03*
X005588Y009674D03*
X005055Y010707D03*
X005055Y010724D03*
X005038Y010774D03*
X005038Y010807D03*
X005038Y010824D03*
X005038Y010857D03*
X005038Y010874D03*
X005422Y011124D03*
X006155Y011674D03*
X006172Y011657D03*
X006205Y011624D03*
X006222Y011607D03*
X006255Y011574D03*
X006272Y011557D03*
X006305Y011524D03*
X006322Y011507D03*
X006122Y011707D03*
X006105Y011724D03*
X006072Y011757D03*
X006055Y011774D03*
X006022Y011807D03*
X005988Y012824D03*
X006455Y012957D03*
X006955Y012974D03*
X007438Y012907D03*
X007888Y012724D03*
X008272Y012424D03*
X008438Y011774D03*
X008472Y011707D03*
X008488Y011674D03*
X008488Y011657D03*
X008505Y011624D03*
X008605Y011357D03*
X008605Y011324D03*
X008638Y010707D03*
X008572Y010407D03*
X008572Y010374D03*
X008555Y010357D03*
X008555Y010324D03*
X008538Y010307D03*
X007772Y009957D03*
D52*
X007855Y009607D03*
X008455Y009574D03*
X006005Y009974D03*
X006005Y010007D03*
X005755Y010074D03*
X005738Y010057D03*
X005738Y009907D03*
X005555Y012607D03*
X006455Y013024D03*
D53*
X005997Y012807D03*
X006947Y012924D03*
X006947Y012957D03*
X007647Y012057D03*
X008447Y011757D03*
X007747Y010007D03*
X005697Y009574D03*
X005097Y011407D03*
X005097Y011424D03*
D54*
X006497Y013040D03*
X008197Y009590D03*
D55*
X007855Y009590D03*
X006005Y009990D03*
X005988Y009940D03*
X006638Y011390D03*
D56*
X007630Y011990D03*
X008480Y011690D03*
X007430Y012890D03*
X006463Y012940D03*
X005030Y011090D03*
X005030Y011040D03*
X005030Y010990D03*
X005030Y010940D03*
X005030Y010890D03*
X005680Y009590D03*
X007713Y010040D03*
D57*
X008197Y009607D03*
X007030Y010607D03*
X008013Y011957D03*
X005730Y012124D03*
D58*
X005622Y012257D03*
X005588Y012224D03*
X005372Y012007D03*
X005255Y012207D03*
X007638Y011907D03*
X007722Y012124D03*
X008238Y012374D03*
X008638Y011407D03*
X008555Y010207D03*
X008288Y009824D03*
X008405Y009624D03*
X005855Y009857D03*
D59*
X008197Y009624D03*
X005197Y012274D03*
D60*
X007972Y011907D03*
X007872Y009757D03*
X007872Y009724D03*
X007872Y009657D03*
X007872Y009624D03*
D61*
X008288Y009740D03*
X008355Y009640D03*
X008738Y010540D03*
X008738Y010590D03*
X006805Y010990D03*
X005738Y012390D03*
D62*
X007872Y009740D03*
X007872Y009640D03*
D63*
X007880Y009674D03*
X007880Y009707D03*
X005913Y011924D03*
D64*
X004955Y011340D03*
X004938Y011290D03*
X004938Y011240D03*
X006838Y010940D03*
X008305Y009690D03*
D65*
X007880Y009690D03*
X005730Y010040D03*
D66*
X006797Y011024D03*
X008447Y011957D03*
X005747Y012407D03*
X008297Y009707D03*
D67*
X008288Y009724D03*
X004938Y011257D03*
X004938Y011274D03*
X004955Y011324D03*
X004955Y011357D03*
X005088Y011707D03*
D68*
X006547Y011324D03*
X006047Y010207D03*
X008297Y009774D03*
X006897Y012824D03*
D69*
X007813Y012440D03*
X007413Y011590D03*
X008713Y010640D03*
X008297Y009790D03*
X006247Y010390D03*
X006197Y010340D03*
X006147Y010290D03*
X005863Y009890D03*
X005113Y011640D03*
X005713Y012340D03*
D70*
X006947Y013040D03*
X007897Y012740D03*
X008280Y012440D03*
X007963Y011890D03*
X008697Y009990D03*
X007863Y009790D03*
D71*
X008297Y009807D03*
X008697Y010657D03*
X008647Y011424D03*
X008447Y011857D03*
X007097Y010657D03*
X007047Y010707D03*
X004997Y011157D03*
X005697Y012324D03*
D72*
X006947Y012840D03*
X008147Y012190D03*
X008297Y009840D03*
D73*
X007838Y009840D03*
X006005Y010040D03*
X005438Y009840D03*
X005405Y009890D03*
X005338Y009990D03*
X005305Y010040D03*
X005155Y010340D03*
X005138Y010390D03*
X005105Y010490D03*
X005405Y010840D03*
X005405Y011040D03*
X006005Y011840D03*
X005555Y012590D03*
X006455Y012990D03*
X007438Y012940D03*
X007788Y012190D03*
D74*
X007688Y012090D03*
X008255Y012390D03*
X007838Y012640D03*
X007405Y012790D03*
X006488Y012840D03*
X005588Y012540D03*
X005338Y011940D03*
X005138Y011590D03*
X005855Y009840D03*
D75*
X005322Y010007D03*
X005172Y010307D03*
X005122Y010424D03*
X007672Y010807D03*
X007672Y010824D03*
X007822Y009874D03*
X008572Y012057D03*
X005972Y012857D03*
D76*
X005988Y012874D03*
X005838Y012007D03*
X005872Y011974D03*
X005888Y011957D03*
X006638Y011407D03*
X007988Y011924D03*
X008605Y012074D03*
X008288Y012457D03*
X005722Y010024D03*
X005722Y009974D03*
X005722Y009957D03*
X005722Y009924D03*
D77*
X005722Y009940D03*
X005705Y009990D03*
X005905Y011940D03*
X005855Y011990D03*
D78*
X005572Y012557D03*
X006472Y012907D03*
X007422Y012857D03*
X006372Y011474D03*
X007222Y010574D03*
X008372Y009957D03*
X008672Y010907D03*
X008622Y011374D03*
X005122Y011507D03*
D79*
X005997Y009957D03*
X007897Y012757D03*
D80*
X008105Y012307D03*
X008455Y011974D03*
X007572Y011674D03*
X006838Y010924D03*
X005105Y011757D03*
X005105Y011774D03*
X005122Y011807D03*
X005088Y011724D03*
X006122Y012574D03*
X008538Y010024D03*
X008538Y010007D03*
D81*
X005713Y010007D03*
X005830Y012024D03*
X007430Y012974D03*
D82*
X005088Y011740D03*
X008555Y010040D03*
D83*
X008580Y010090D03*
X008113Y012290D03*
D84*
X008222Y012090D03*
X007872Y012690D03*
X007422Y012840D03*
X006472Y012890D03*
X005122Y011490D03*
X007672Y010090D03*
D85*
X006613Y011190D03*
X005947Y010140D03*
X005913Y010090D03*
X005097Y011690D03*
X006047Y012540D03*
X008447Y011940D03*
X008647Y011590D03*
X008663Y011540D03*
X008680Y011490D03*
D86*
X008772Y011007D03*
X008722Y010507D03*
X008722Y010474D03*
X006822Y010974D03*
X005972Y010157D03*
X005922Y010107D03*
X008122Y012274D03*
D87*
X008763Y011090D03*
X008763Y011040D03*
X008580Y010140D03*
D88*
X008647Y010740D03*
X008647Y010790D03*
X008647Y010840D03*
X008647Y010890D03*
X008597Y011340D03*
X006947Y012990D03*
X005047Y010740D03*
X005097Y010540D03*
X005197Y010240D03*
X005247Y010140D03*
D89*
X005988Y010174D03*
X006838Y010957D03*
X008738Y010607D03*
X008738Y010574D03*
X008738Y010557D03*
X006005Y012524D03*
D90*
X006588Y011290D03*
X006588Y010740D03*
X006538Y010690D03*
X006488Y010640D03*
X006438Y010590D03*
X006388Y010540D03*
X006338Y010490D03*
X006288Y010440D03*
X008555Y010190D03*
D91*
X006538Y011340D03*
X006022Y010190D03*
X007738Y012490D03*
D92*
X005772Y011007D03*
X005772Y010974D03*
X005772Y010957D03*
X005772Y010924D03*
X005772Y010907D03*
X005772Y010874D03*
X005772Y010857D03*
X006072Y010224D03*
X007022Y010757D03*
D93*
X007580Y010340D03*
X007880Y012790D03*
D94*
X007872Y012407D03*
X006572Y010724D03*
X006522Y010674D03*
X006472Y010624D03*
X006422Y010574D03*
X006372Y010524D03*
X006322Y010474D03*
X006272Y010424D03*
X005122Y011624D03*
X005372Y012024D03*
D95*
X005363Y012057D03*
X005713Y012357D03*
X005113Y011657D03*
X007013Y010774D03*
X008113Y011157D03*
X008113Y011174D03*
X008113Y011207D03*
X008113Y011224D03*
X008113Y011257D03*
X008113Y011274D03*
X008663Y011457D03*
X008730Y010624D03*
X008680Y010457D03*
D96*
X008722Y010490D03*
X008772Y010990D03*
X005372Y012090D03*
D97*
X007947Y010724D03*
X007947Y010707D03*
X007947Y010674D03*
X007947Y010657D03*
X007947Y010624D03*
X007947Y010607D03*
X007947Y010574D03*
D98*
X005672Y010574D03*
X005672Y010607D03*
X005672Y010624D03*
X005672Y010657D03*
X005672Y010674D03*
X005672Y010707D03*
X005672Y010724D03*
X005672Y011157D03*
X005672Y011174D03*
X005672Y011207D03*
X005672Y011224D03*
X005672Y011257D03*
X005672Y011274D03*
X006255Y012624D03*
D99*
X007947Y010690D03*
X007947Y010640D03*
X007947Y010590D03*
D100*
X008713Y010940D03*
X007113Y010640D03*
X007063Y010690D03*
D101*
X007022Y010740D03*
X007022Y011190D03*
X007072Y011240D03*
X007122Y011290D03*
X007172Y011340D03*
X007222Y011390D03*
X007272Y011440D03*
X007322Y011490D03*
X007372Y011540D03*
X008722Y011140D03*
D102*
X006822Y010790D03*
D103*
X006830Y010807D03*
X005830Y012507D03*
D104*
X006780Y011107D03*
X006830Y010824D03*
D105*
X006830Y010840D03*
X006780Y011090D03*
D106*
X006830Y010857D03*
D107*
X006838Y010874D03*
D108*
X006838Y010890D03*
X007705Y011790D03*
X007738Y011840D03*
X008088Y012340D03*
D109*
X007472Y011640D03*
X005772Y010990D03*
X005772Y010940D03*
X005772Y010890D03*
X005372Y012040D03*
D110*
X006838Y010907D03*
X008105Y012324D03*
D111*
X007788Y012457D03*
X007755Y012474D03*
X007655Y011874D03*
X007455Y011624D03*
X008738Y010957D03*
D112*
X008763Y011024D03*
X008763Y011057D03*
X008763Y011074D03*
X008763Y011107D03*
X008763Y011124D03*
X008130Y012257D03*
X006613Y011224D03*
X005730Y012374D03*
D113*
X005380Y012157D03*
X006797Y011057D03*
X007630Y011707D03*
X007647Y011724D03*
X007680Y011757D03*
X007713Y011807D03*
X007747Y011857D03*
D114*
X006797Y011074D03*
D115*
X006772Y011124D03*
D116*
X006613Y011240D03*
X008113Y011240D03*
X008113Y011190D03*
X008113Y011140D03*
X008113Y011290D03*
X008130Y012240D03*
X004963Y011190D03*
D117*
X006772Y011140D03*
D118*
X006780Y011157D03*
X006780Y011174D03*
X007580Y012607D03*
D119*
X006388Y011307D03*
D120*
X006638Y011424D03*
X005788Y012057D03*
X005738Y012107D03*
X005555Y012624D03*
X007888Y012774D03*
X008288Y012474D03*
D121*
X007688Y012540D03*
X007605Y011690D03*
D122*
X007688Y011774D03*
D123*
X005380Y012140D03*
X005113Y011790D03*
D124*
X007722Y011824D03*
D125*
X008413Y012024D03*
X008430Y012007D03*
X005763Y012424D03*
X005130Y011824D03*
D126*
X007647Y011890D03*
X007897Y012390D03*
D127*
X008005Y011940D03*
X005805Y012040D03*
X005755Y012090D03*
D128*
X005722Y012140D03*
X008622Y012090D03*
D129*
X005372Y012107D03*
D130*
X005380Y012174D03*
X005780Y012457D03*
X006213Y012607D03*
X007663Y012557D03*
X008080Y012357D03*
D131*
X005388Y012190D03*
D132*
X005788Y012474D03*
D133*
X005813Y012490D03*
D134*
X007647Y012574D03*
D135*
X007613Y012590D03*
D136*
X006172Y012590D03*
D137*
X007530Y012624D03*
D138*
X007280Y012640D03*
D139*
X006347Y012640D03*
D140*
X005555Y012640D03*
D141*
X006763Y012657D03*
D142*
X006747Y012674D03*
D143*
X006730Y012690D03*
D144*
X006722Y012707D03*
D145*
X006872Y012724D03*
D146*
X006897Y012740D03*
D147*
X006922Y012757D03*
D148*
X006947Y012774D03*
D149*
X006788Y012790D03*
D150*
X006738Y012807D03*
D151*
X005997Y012890D03*
D152*
X009507Y017790D02*
X009511Y017794D01*
X009514Y017792D02*
X009512Y017790D01*
X009509Y017790D01*
X009507Y017792D01*
X009507Y017799D01*
X009509Y017800D01*
X009512Y017800D01*
X009514Y017799D01*
X009514Y017792D01*
X009517Y017792D02*
X009518Y017790D01*
X009522Y017790D01*
X009523Y017792D01*
X009526Y017792D02*
X009527Y017790D01*
X009531Y017790D01*
X009532Y017792D01*
X009535Y017790D02*
X009542Y017790D01*
X009538Y017790D02*
X009538Y017800D01*
X009542Y017797D01*
X009544Y017795D02*
X009546Y017794D01*
X009551Y017794D01*
X009551Y017790D02*
X009551Y017800D01*
X009546Y017800D01*
X009544Y017799D01*
X009544Y017795D01*
X009553Y017800D02*
X009560Y017800D01*
X009557Y017800D02*
X009557Y017790D01*
X009562Y017790D02*
X009569Y017790D01*
X009572Y017790D02*
X009575Y017794D01*
X009573Y017794D02*
X009578Y017794D01*
X009578Y017790D02*
X009578Y017800D01*
X009573Y017800D01*
X009572Y017799D01*
X009572Y017795D01*
X009573Y017794D01*
X009569Y017797D02*
X009566Y017800D01*
X009566Y017790D01*
X009581Y017800D02*
X009587Y017800D01*
X009584Y017800D02*
X009584Y017790D01*
X009590Y017795D02*
X009592Y017794D01*
X009597Y017794D01*
X009597Y017790D02*
X009597Y017800D01*
X009592Y017800D01*
X009590Y017799D01*
X009590Y017795D01*
X009532Y017799D02*
X009531Y017800D01*
X009527Y017800D01*
X009526Y017799D01*
X009526Y017797D01*
X009527Y017795D01*
X009526Y017794D01*
X009526Y017792D01*
X009527Y017795D02*
X009529Y017795D01*
X009523Y017797D02*
X009522Y017795D01*
X009518Y017795D01*
X009517Y017794D01*
X009517Y017792D01*
X009517Y017799D02*
X009518Y017800D01*
X009522Y017800D01*
X009523Y017799D01*
X009523Y017797D01*
X009522Y019040D02*
X009523Y019042D01*
X009522Y019040D02*
X009518Y019040D01*
X009517Y019042D01*
X009517Y019044D01*
X009518Y019045D01*
X009522Y019045D01*
X009523Y019047D01*
X009523Y019049D01*
X009522Y019050D01*
X009518Y019050D01*
X009517Y019049D01*
X009514Y019049D02*
X009512Y019050D01*
X009509Y019050D01*
X009507Y019049D01*
X009507Y019042D01*
X009509Y019040D01*
X009512Y019040D01*
X009514Y019042D01*
X009514Y019049D01*
X009511Y019044D02*
X009507Y019040D01*
X009526Y019042D02*
X009527Y019040D01*
X009531Y019040D01*
X009532Y019042D01*
X009535Y019040D02*
X009542Y019040D01*
X009538Y019040D02*
X009538Y019050D01*
X009542Y019047D01*
X009544Y019045D02*
X009546Y019044D01*
X009551Y019044D01*
X009551Y019040D02*
X009551Y019050D01*
X009546Y019050D01*
X009544Y019049D01*
X009544Y019045D01*
X009553Y019050D02*
X009560Y019050D01*
X009557Y019050D02*
X009557Y019040D01*
X009562Y019040D02*
X009569Y019040D01*
X009572Y019040D02*
X009575Y019044D01*
X009573Y019044D02*
X009578Y019044D01*
X009578Y019040D02*
X009578Y019050D01*
X009573Y019050D01*
X009572Y019049D01*
X009572Y019045D01*
X009573Y019044D01*
X009569Y019047D02*
X009566Y019050D01*
X009566Y019040D01*
X009581Y019050D02*
X009587Y019050D01*
X009584Y019050D02*
X009584Y019040D01*
X009590Y019045D02*
X009592Y019044D01*
X009597Y019044D01*
X009597Y019040D02*
X009597Y019050D01*
X009592Y019050D01*
X009590Y019049D01*
X009590Y019045D01*
X009532Y019049D02*
X009531Y019050D01*
X009527Y019050D01*
X009526Y019049D01*
X009526Y019047D01*
X009527Y019045D01*
X009526Y019044D01*
X009526Y019042D01*
X009527Y019045D02*
X009529Y019045D01*
X005347Y019540D02*
X005347Y019550D01*
X005342Y019550D01*
X005340Y019549D01*
X005340Y019545D01*
X005342Y019544D01*
X005347Y019544D01*
X005337Y019550D02*
X005331Y019550D01*
X005328Y019550D02*
X005323Y019550D01*
X005322Y019549D01*
X005322Y019545D01*
X005323Y019544D01*
X005328Y019544D01*
X005325Y019544D02*
X005322Y019540D01*
X005319Y019540D02*
X005312Y019540D01*
X005316Y019540D02*
X005316Y019550D01*
X005319Y019547D01*
X005310Y019550D02*
X005303Y019550D01*
X005301Y019550D02*
X005296Y019550D01*
X005294Y019549D01*
X005294Y019545D01*
X005296Y019544D01*
X005301Y019544D01*
X005301Y019540D02*
X005301Y019550D01*
X005307Y019550D02*
X005307Y019540D01*
X005292Y019540D02*
X005285Y019540D01*
X005288Y019540D02*
X005288Y019550D01*
X005292Y019547D01*
X005282Y019549D02*
X005281Y019550D01*
X005277Y019550D01*
X005276Y019549D01*
X005276Y019547D01*
X005277Y019545D01*
X005276Y019544D01*
X005276Y019542D01*
X005277Y019540D01*
X005281Y019540D01*
X005282Y019542D01*
X005279Y019545D02*
X005277Y019545D01*
X005273Y019547D02*
X005272Y019545D01*
X005268Y019545D01*
X005267Y019544D01*
X005267Y019542D01*
X005268Y019540D01*
X005272Y019540D01*
X005273Y019542D01*
X005273Y019547D02*
X005273Y019549D01*
X005272Y019550D01*
X005268Y019550D01*
X005267Y019549D01*
X005264Y019549D02*
X005262Y019550D01*
X005259Y019550D01*
X005257Y019549D01*
X005257Y019542D01*
X005259Y019540D01*
X005262Y019540D01*
X005264Y019542D01*
X005264Y019549D01*
X005261Y019544D02*
X005257Y019540D01*
X005328Y019540D02*
X005328Y019550D01*
X005334Y019550D02*
X005334Y019540D01*
X026257Y008399D02*
X026257Y008392D01*
X026259Y008390D01*
X026262Y008390D01*
X026264Y008392D01*
X026264Y008399D01*
X026262Y008400D01*
X026259Y008400D01*
X026257Y008399D01*
X026261Y008394D02*
X026257Y008390D01*
X026267Y008392D02*
X026268Y008390D01*
X026272Y008390D01*
X026273Y008392D01*
X026276Y008392D02*
X026277Y008390D01*
X026281Y008390D01*
X026282Y008392D01*
X026285Y008390D02*
X026292Y008390D01*
X026288Y008390D02*
X026288Y008400D01*
X026292Y008397D01*
X026294Y008395D02*
X026296Y008394D01*
X026301Y008394D01*
X026301Y008390D02*
X026301Y008400D01*
X026296Y008400D01*
X026294Y008399D01*
X026294Y008395D01*
X026303Y008400D02*
X026310Y008400D01*
X026307Y008400D02*
X026307Y008390D01*
X026312Y008390D02*
X026319Y008390D01*
X026322Y008390D02*
X026325Y008394D01*
X026323Y008394D02*
X026328Y008394D01*
X026328Y008390D02*
X026328Y008400D01*
X026323Y008400D01*
X026322Y008399D01*
X026322Y008395D01*
X026323Y008394D01*
X026319Y008397D02*
X026316Y008400D01*
X026316Y008390D01*
X026331Y008400D02*
X026337Y008400D01*
X026334Y008400D02*
X026334Y008390D01*
X026340Y008395D02*
X026342Y008394D01*
X026347Y008394D01*
X026347Y008390D02*
X026347Y008400D01*
X026342Y008400D01*
X026340Y008399D01*
X026340Y008395D01*
X026282Y008399D02*
X026281Y008400D01*
X026277Y008400D01*
X026276Y008399D01*
X026276Y008397D01*
X026277Y008395D01*
X026276Y008394D01*
X026276Y008392D01*
X026277Y008395D02*
X026279Y008395D01*
X026273Y008397D02*
X026272Y008395D01*
X026268Y008395D01*
X026267Y008394D01*
X026267Y008392D01*
X026267Y008399D02*
X026268Y008400D01*
X026272Y008400D01*
X026273Y008399D01*
X026273Y008397D01*
M02*
