G75*
G70*
%OFA0B0*%
%FSLAX25Y25*%
%IPPOS*%
%LPD*%
%AMOC8*
5,1,8,0,0,1.08239X$1,22.5*
%
%ADD158C,0.00000*%
X0010000Y0010000D02*
G75*
%LPD*%
X0010000Y0060000D02*
G75*
%LPD*%
X0060000Y0060000D02*
G75*
%LPD*%
D158*
X0060000Y0060000D02*
X0060000Y0270000D01*
X0314000Y0270000D02*
X0320000Y0264000D01*
X0320000Y0219000D01*
X0330000Y0209000D01*
X0330000Y0080000D01*
X0320000Y0070000D01*
X0320000Y0060000D01*
X0060000Y0270000D02*
G75*
%LPD*%
X0060000Y0290000D02*
G75*
%LPD*%
D158*
X0060000Y0290000D02*
X0060000Y0500000D01*
X0314000Y0500000D02*
X0320000Y0494000D01*
X0320000Y0449000D01*
X0330000Y0439000D01*
X0330000Y0310000D01*
X0320000Y0300000D01*
X0320000Y0290000D01*
X0350000Y0060000D02*
G75*
%LPD*%
D158*
X0350000Y0060000D02*
X0350000Y0270000D01*
X0604000Y0270000D02*
X0610000Y0264000D01*
X0610000Y0219000D01*
X0620000Y0209000D01*
X0620000Y0080000D01*
X0610000Y0070000D01*
X0610000Y0060000D01*
X0350000Y0270000D02*
G75*
%LPD*%
X0350000Y0290000D02*
G75*
%LPD*%
D158*
X0350000Y0290000D02*
X0350000Y0500000D01*
X0604000Y0500000D02*
X0610000Y0494000D01*
X0610000Y0449000D01*
X0620000Y0439000D01*
X0620000Y0310000D01*
X0610000Y0300000D01*
X0610000Y0290000D01*
X0640000Y0060000D02*
G75*
%LPD*%
D158*
X0640000Y0060000D02*
X0640000Y0270000D01*
X0894000Y0270000D02*
X0900000Y0264000D01*
X0900000Y0219000D01*
X0910000Y0209000D01*
X0910000Y0080000D01*
X0900000Y0070000D01*
X0900000Y0060000D01*
X0640000Y0270000D02*
G75*
%LPD*%
X0640000Y0290000D02*
G75*
%LPD*%
D158*
X0640000Y0290000D02*
X0640000Y0500000D01*
X0894000Y0500000D02*
X0900000Y0494000D01*
X0900000Y0449000D01*
X0910000Y0439000D01*
X0910000Y0310000D01*
X0900000Y0300000D01*
X0900000Y0290000D01*
X0010000Y0500000D02*
G75*
%LPD*%
M02*
