G75*
G70*
%OFA0B0*%
%FSLAX24Y24*%
%IPPOS*%
%LPD*%
%AMOC8*
5,1,8,0,0,1.08239X$1,22.5*
%
%ADD10C,0.0120*%
%ADD11C,0.0050*%
%ADD12C,0.0040*%
%ADD13C,0.0060*%
%ADD14C,0.0080*%
%ADD15C,0.0110*%
%ADD16C,0.0030*%
%ADD17C,0.0010*%
%ADD18C,0.0100*%
%ADD19R,0.0118X0.0059*%
%ADD20R,0.0118X0.0118*%
%ADD21R,0.0059X0.0118*%
%ADD22C,0.0020*%
%ADD23C,0.0004*%
%ADD24C,0.0030*%
%ADD25R,0.0150X0.0350*%
%ADD26R,0.0200X0.0350*%
%ADD27C,0.0039*%
%ADD28C,0.0028*%
%ADD29R,0.0276X0.0118*%
%ADD30C,0.0160*%
%ADD31R,0.0160X0.0230*%
D10*
X025400Y018636D02*
X025750Y019036D01*
X026100Y018636D01*
X025400Y018636D01*
X025550Y018786D02*
X025750Y018986D01*
X025900Y018736D01*
X025600Y018736D01*
X025800Y018886D01*
X026450Y019036D02*
X026800Y018636D01*
X027150Y019036D01*
X026450Y019036D01*
X026600Y018936D02*
X027000Y018936D01*
X026800Y018736D01*
X026650Y019036D01*
X026850Y019036D01*
X026800Y018936D02*
X026800Y018886D01*
D11*
X026604Y018216D02*
X025896Y018216D01*
X025896Y016956D01*
X026604Y016956D01*
X026604Y018216D01*
X025900Y019501D02*
X024600Y019501D01*
X024600Y020170D01*
X025900Y020170D01*
X025900Y019501D01*
X024604Y018966D02*
X024604Y017706D01*
X023896Y017706D01*
X023896Y018966D01*
X024604Y018966D01*
X024437Y019196D02*
X024204Y019196D01*
X024204Y019547D01*
X024069Y019430D02*
X024069Y019196D01*
X024069Y019372D02*
X023835Y019372D01*
X023835Y019430D02*
X023952Y019547D01*
X024069Y019430D01*
X023835Y019430D02*
X023835Y019196D01*
X023584Y019196D02*
X023584Y019547D01*
X023467Y019547D02*
X023701Y019547D01*
X023338Y019547D02*
X023222Y019547D01*
X023280Y019547D02*
X023280Y019196D01*
X023222Y019196D02*
X023338Y019196D01*
X023087Y019255D02*
X023087Y019372D01*
X022970Y019372D01*
X023087Y019488D02*
X023028Y019547D01*
X022912Y019547D01*
X022853Y019488D01*
X022853Y019255D01*
X022912Y019196D01*
X023028Y019196D01*
X023087Y019255D01*
X022724Y019196D02*
X022608Y019196D01*
X022666Y019196D02*
X022666Y019547D01*
X022608Y019547D02*
X022724Y019547D01*
X022473Y019488D02*
X022473Y019255D01*
X022414Y019196D01*
X022239Y019196D01*
X022239Y019547D01*
X022414Y019547D01*
X022473Y019488D01*
X022604Y018966D02*
X021896Y018966D01*
X021896Y017706D01*
X022604Y017706D01*
X022604Y018966D01*
X021900Y019501D02*
X020600Y019501D01*
X020600Y020170D01*
X021900Y020170D01*
X021900Y019501D01*
X020604Y018966D02*
X019896Y018966D01*
X019896Y017706D01*
X020604Y017706D01*
X020604Y018966D01*
X018604Y018966D02*
X018604Y017706D01*
X017896Y017706D01*
X017896Y018966D01*
X018604Y018966D01*
X017900Y019501D02*
X016600Y019501D01*
X016600Y020170D01*
X017900Y020170D01*
X017900Y019501D01*
X016604Y018966D02*
X016604Y017706D01*
X015896Y017706D01*
X015896Y018966D01*
X016604Y018966D01*
X014400Y018420D02*
X014400Y017751D01*
X013100Y017751D01*
X013100Y018420D01*
X014400Y018420D01*
X014396Y017216D02*
X015104Y017216D01*
X015104Y015956D01*
X014396Y015956D01*
X014396Y017216D01*
X013354Y017216D02*
X012646Y017216D01*
X012646Y015956D01*
X013354Y015956D01*
X013354Y017216D01*
X011900Y018001D02*
X010600Y018001D01*
X010600Y018670D01*
X011900Y018670D01*
X011900Y018001D01*
X011363Y019005D02*
X011063Y019005D01*
X010913Y019156D01*
X011063Y019306D01*
X011363Y019306D01*
X011363Y019466D02*
X010913Y019466D01*
X010913Y019691D01*
X010988Y019766D01*
X011138Y019766D01*
X011213Y019691D01*
X011213Y019466D01*
X011213Y019616D02*
X011363Y019766D01*
X011363Y019926D02*
X011363Y020226D01*
X011363Y020387D02*
X010913Y020387D01*
X010913Y020687D01*
X011138Y020537D02*
X011138Y020387D01*
X010913Y020226D02*
X010913Y019926D01*
X011363Y019926D01*
X011138Y019926D02*
X011138Y020076D01*
X011867Y020026D02*
X012318Y020026D01*
X011867Y019726D01*
X012318Y019726D01*
X012242Y019566D02*
X012092Y019566D01*
X012092Y019416D01*
X011942Y019566D02*
X011867Y019491D01*
X011867Y019340D01*
X011942Y019265D01*
X012242Y019265D01*
X012318Y019340D01*
X012318Y019491D01*
X012242Y019566D01*
X012318Y020186D02*
X011867Y020186D01*
X011867Y020411D01*
X011942Y020486D01*
X012242Y020486D01*
X012318Y020411D01*
X012318Y020186D01*
X011138Y019306D02*
X011138Y019005D01*
X010337Y019410D02*
X010262Y019335D01*
X010337Y019410D02*
X010337Y019560D01*
X010262Y019635D01*
X010187Y019635D01*
X010112Y019560D01*
X010112Y019410D01*
X010036Y019335D01*
X009961Y019335D01*
X009886Y019410D01*
X009886Y019560D01*
X009961Y019635D01*
X009886Y019795D02*
X009886Y020020D01*
X009961Y020095D01*
X010262Y020095D01*
X010337Y020020D01*
X010337Y019795D01*
X009886Y019795D01*
X009587Y019870D02*
X009587Y020020D01*
X009512Y020095D01*
X009587Y020255D02*
X009136Y020255D01*
X009211Y020095D02*
X009136Y020020D01*
X009136Y019870D01*
X009211Y019795D01*
X009512Y019795D01*
X009587Y019870D01*
X009512Y019635D02*
X009587Y019560D01*
X009587Y019410D01*
X009512Y019335D01*
X009362Y019410D02*
X009286Y019335D01*
X009211Y019335D01*
X009136Y019410D01*
X009136Y019560D01*
X009211Y019635D01*
X009362Y019560D02*
X009437Y019635D01*
X009512Y019635D01*
X009362Y019560D02*
X009362Y019410D01*
X009587Y020255D02*
X009587Y020556D01*
X009886Y020406D02*
X010036Y020556D01*
X010337Y020556D01*
X010112Y020556D02*
X010112Y020255D01*
X010036Y020255D02*
X009886Y020406D01*
X010036Y020255D02*
X010337Y020255D01*
X005049Y020101D02*
X005049Y017070D01*
X001407Y017070D01*
X001407Y020101D01*
X005049Y020101D01*
X003183Y018836D02*
X003183Y018336D01*
X001933Y018086D01*
X001933Y017711D02*
X002933Y017836D01*
X002933Y017336D02*
X001933Y017461D01*
X001933Y017711D01*
X001933Y019086D02*
X003183Y018836D01*
X002933Y019336D02*
X001933Y019461D01*
X001933Y019711D01*
X002933Y019836D01*
X005488Y015586D02*
X006472Y015586D01*
X014941Y009901D02*
X014941Y009271D01*
X016059Y009271D02*
X016059Y009901D01*
X017978Y011412D02*
X018077Y011314D01*
X018375Y011836D02*
X018377Y011858D01*
X018383Y011879D01*
X018392Y011898D01*
X018404Y011916D01*
X018420Y011932D01*
X018437Y011944D01*
X018457Y011953D01*
X018478Y011959D01*
X018500Y011961D01*
X018522Y011959D01*
X018543Y011953D01*
X018562Y011944D01*
X018580Y011932D01*
X018596Y011916D01*
X018608Y011898D01*
X018617Y011879D01*
X018623Y011858D01*
X018625Y011836D01*
X018623Y011814D01*
X018617Y011793D01*
X018608Y011774D01*
X018596Y011756D01*
X018580Y011740D01*
X018563Y011728D01*
X018543Y011719D01*
X018522Y011713D01*
X018500Y011711D01*
X018478Y011713D01*
X018457Y011719D01*
X018437Y011728D01*
X018420Y011740D01*
X018404Y011756D01*
X018392Y011773D01*
X018383Y011793D01*
X018377Y011814D01*
X018375Y011836D01*
X020736Y010599D02*
X022264Y010599D01*
X022264Y009072D01*
X020736Y009072D01*
X020736Y010599D01*
X021423Y011314D02*
X021522Y011314D01*
X021522Y011412D01*
X019996Y009479D02*
X019504Y009479D01*
X019504Y008692D01*
X019996Y008692D01*
X019996Y009479D01*
X019354Y006466D02*
X018646Y006466D01*
X018646Y005206D01*
X019354Y005206D01*
X019354Y006466D01*
X020646Y006466D02*
X020646Y005206D01*
X021354Y005206D01*
X021354Y006466D01*
X020646Y006466D01*
X022396Y006466D02*
X022396Y005206D01*
X023104Y005206D01*
X023104Y006466D01*
X022396Y006466D01*
X024850Y005420D02*
X024850Y004751D01*
X026150Y004751D01*
X026150Y005420D01*
X024850Y005420D01*
X024683Y004304D02*
X024533Y004304D01*
X024458Y004229D01*
X024458Y003928D01*
X024533Y003853D01*
X024683Y003853D01*
X024758Y003928D01*
X024758Y004079D01*
X024608Y004079D01*
X024758Y004229D02*
X024683Y004304D01*
X024297Y004229D02*
X024297Y003928D01*
X024222Y003853D01*
X024072Y003853D01*
X023997Y003928D01*
X023997Y004229D01*
X024072Y004304D01*
X024222Y004304D01*
X024297Y004229D01*
X023837Y003853D02*
X023537Y003853D01*
X023537Y004304D01*
X023377Y004154D02*
X023377Y003853D01*
X023377Y004079D02*
X023076Y004079D01*
X023076Y004154D02*
X023226Y004304D01*
X023377Y004154D01*
X023076Y004154D02*
X023076Y003853D01*
X022916Y003853D02*
X022916Y004304D01*
X022616Y004304D02*
X022916Y003853D01*
X022616Y003853D02*
X022616Y004304D01*
X022456Y004154D02*
X022456Y003853D01*
X022456Y004079D02*
X022156Y004079D01*
X022156Y004154D02*
X022306Y004304D01*
X022456Y004154D01*
X022156Y004154D02*
X022156Y003853D01*
X021400Y003751D02*
X020100Y003751D01*
X020100Y004420D01*
X021400Y004420D01*
X021400Y003751D01*
X020519Y003331D02*
X020519Y003105D01*
X020519Y003331D02*
X020444Y003406D01*
X020218Y003406D01*
X020218Y003105D01*
X020062Y003105D02*
X019911Y003105D01*
X019987Y003105D02*
X019987Y003406D01*
X019911Y003406D01*
X019987Y003556D02*
X019987Y003631D01*
X019751Y003556D02*
X019751Y003256D01*
X019601Y003105D01*
X019451Y003256D01*
X019451Y003556D01*
X019387Y003831D02*
X019237Y003981D01*
X019312Y003981D02*
X019087Y003981D01*
X019087Y003831D02*
X019087Y004281D01*
X019312Y004281D01*
X019387Y004206D01*
X019387Y004056D01*
X019312Y003981D01*
X018926Y003831D02*
X018626Y003831D01*
X018626Y004281D01*
X018926Y004281D01*
X018776Y004056D02*
X018626Y004056D01*
X018466Y003831D02*
X018466Y004281D01*
X018166Y004281D02*
X018166Y003831D01*
X018316Y003981D01*
X018466Y003831D01*
X018006Y003906D02*
X018006Y004206D01*
X017931Y004281D01*
X017780Y004281D01*
X017705Y004206D01*
X017705Y003906D01*
X017780Y003831D01*
X017931Y003831D01*
X018006Y003906D01*
X017835Y003556D02*
X017685Y003556D01*
X017609Y003481D01*
X017609Y003180D01*
X017685Y003105D01*
X017835Y003105D01*
X017910Y003180D01*
X017910Y003331D01*
X017760Y003331D01*
X017910Y003481D02*
X017835Y003556D01*
X018070Y003406D02*
X018295Y003406D01*
X018370Y003331D01*
X018370Y003105D01*
X018530Y003180D02*
X018530Y003331D01*
X018605Y003406D01*
X018831Y003406D01*
X018831Y003556D02*
X018831Y003105D01*
X018605Y003105D01*
X018530Y003180D01*
X018070Y003105D02*
X018070Y003406D01*
X017470Y003981D02*
X017245Y003981D01*
X017245Y003831D02*
X017245Y004281D01*
X017470Y004281D01*
X017545Y004206D01*
X017545Y004056D01*
X017470Y003981D01*
X016989Y003556D02*
X016989Y003256D01*
X016839Y003105D01*
X016689Y003256D01*
X016689Y003556D01*
X016529Y003556D02*
X016228Y003556D01*
X016228Y003331D01*
X016378Y003406D01*
X016453Y003406D01*
X016529Y003331D01*
X016529Y003180D01*
X016453Y003105D01*
X016303Y003105D01*
X016228Y003180D01*
X015913Y003180D02*
X015838Y003105D01*
X015913Y003180D02*
X015913Y003331D01*
X015838Y003406D01*
X015763Y003406D01*
X015688Y003331D01*
X015688Y003256D01*
X015688Y003331D02*
X015613Y003406D01*
X015538Y003406D01*
X015463Y003331D01*
X015463Y003180D01*
X015538Y003105D01*
X015463Y003566D02*
X015763Y003566D01*
X015913Y003716D01*
X015763Y003866D01*
X015463Y003866D01*
X015538Y004026D02*
X015463Y004101D01*
X015463Y004251D01*
X015538Y004326D01*
X015613Y004326D01*
X015688Y004251D01*
X015763Y004326D01*
X015838Y004326D01*
X015913Y004251D01*
X015913Y004101D01*
X015838Y004026D01*
X015688Y004176D02*
X015688Y004251D01*
X014963Y004251D02*
X014963Y004101D01*
X014888Y004026D01*
X014738Y004101D02*
X014738Y004251D01*
X014813Y004326D01*
X014888Y004326D01*
X014963Y004251D01*
X014963Y004487D02*
X014513Y004487D01*
X014513Y004787D01*
X014513Y004947D02*
X014513Y005247D01*
X014513Y005097D02*
X014963Y005097D01*
X014963Y004787D02*
X014963Y004487D01*
X014738Y004487D02*
X014738Y004637D01*
X014588Y004326D02*
X014513Y004251D01*
X014513Y004101D01*
X014588Y004026D01*
X014663Y004026D01*
X014738Y004101D01*
X014513Y003866D02*
X014513Y003566D01*
X014963Y003566D01*
X014963Y003866D01*
X014738Y003716D02*
X014738Y003566D01*
X014738Y003406D02*
X014813Y003331D01*
X014813Y003105D01*
X014963Y003105D02*
X014513Y003105D01*
X014513Y003331D01*
X014588Y003406D01*
X014738Y003406D01*
X014813Y003256D02*
X014963Y003406D01*
X013963Y003487D02*
X013963Y003638D01*
X013888Y003713D01*
X013588Y003713D01*
X013513Y003638D01*
X013513Y003487D01*
X013588Y003412D01*
X013888Y003412D01*
X013963Y003487D01*
X013963Y003256D02*
X013963Y003105D01*
X013963Y003180D02*
X013513Y003180D01*
X013513Y003105D02*
X013513Y003256D01*
X013513Y003873D02*
X013513Y004098D01*
X013588Y004173D01*
X013738Y004173D01*
X013813Y004098D01*
X013813Y003873D01*
X013813Y004023D02*
X013963Y004173D01*
X013963Y004333D02*
X013963Y004633D01*
X013963Y004793D02*
X013513Y004793D01*
X013513Y005094D01*
X013738Y004944D02*
X013738Y004793D01*
X013513Y004633D02*
X013513Y004333D01*
X013963Y004333D01*
X013738Y004333D02*
X013738Y004483D01*
X013963Y003873D02*
X013513Y003873D01*
X011356Y004306D02*
X009544Y004306D01*
X009544Y001865D01*
X009978Y001865D01*
X009978Y001550D01*
X010174Y001353D01*
X010726Y001353D01*
X010922Y001550D01*
X010922Y001865D01*
X009978Y001865D01*
X010922Y001865D02*
X011356Y001865D01*
X011356Y004306D01*
X016646Y005206D02*
X016646Y006466D01*
X017354Y006466D01*
X017354Y005206D01*
X016646Y005206D01*
X025378Y004304D02*
X025528Y004304D01*
X025453Y004304D02*
X025453Y003853D01*
X025378Y003853D02*
X025528Y003853D01*
X025685Y003853D02*
X025685Y004304D01*
X025985Y003853D01*
X025985Y004304D01*
X021522Y014759D02*
X021522Y014857D01*
X021423Y014857D01*
X018077Y014857D02*
X017978Y014857D01*
X017978Y014759D01*
D12*
X015230Y018856D02*
X015230Y019096D01*
X015230Y018976D02*
X014870Y018976D01*
X014990Y018856D01*
X014990Y019224D02*
X014870Y019344D01*
X015230Y019344D01*
X015230Y019224D02*
X015230Y019464D01*
X014230Y019464D02*
X014230Y019224D01*
X013990Y019464D01*
X013930Y019464D01*
X013870Y019404D01*
X013870Y019284D01*
X013930Y019224D01*
X013870Y018976D02*
X014230Y018976D01*
X014230Y018856D02*
X014230Y019096D01*
X013990Y018856D02*
X013870Y018976D01*
X013230Y018976D02*
X012870Y018976D01*
X012990Y018856D01*
X013230Y018856D02*
X013230Y019096D01*
X013170Y019224D02*
X013230Y019284D01*
X013230Y019404D01*
X013170Y019464D01*
X013110Y019464D01*
X013050Y019404D01*
X013050Y019344D01*
X013050Y019404D02*
X012990Y019464D01*
X012930Y019464D01*
X012870Y019404D01*
X012870Y019284D01*
X012930Y019224D01*
X015880Y020356D02*
X016120Y020356D01*
X016000Y020356D02*
X016000Y020716D01*
X015880Y020596D01*
X016248Y020656D02*
X016248Y020416D01*
X016489Y020656D01*
X016489Y020416D01*
X016428Y020356D01*
X016308Y020356D01*
X016248Y020416D01*
X016248Y020656D02*
X016308Y020716D01*
X016428Y020716D01*
X016489Y020656D01*
X017020Y020656D02*
X017020Y020596D01*
X017080Y020536D01*
X017260Y020536D01*
X017260Y020656D02*
X017200Y020716D01*
X017080Y020716D01*
X017020Y020656D01*
X017260Y020656D02*
X017260Y020416D01*
X017200Y020356D01*
X017080Y020356D01*
X017020Y020416D01*
X018020Y020416D02*
X018020Y020476D01*
X018080Y020536D01*
X018200Y020536D01*
X018260Y020476D01*
X018260Y020416D01*
X018200Y020356D01*
X018080Y020356D01*
X018020Y020416D01*
X018080Y020536D02*
X018020Y020596D01*
X018020Y020656D01*
X018080Y020716D01*
X018200Y020716D01*
X018260Y020656D01*
X018260Y020596D01*
X018200Y020536D01*
X019620Y020416D02*
X019620Y020356D01*
X019620Y020416D02*
X019860Y020656D01*
X019860Y020716D01*
X019620Y020716D01*
X020645Y020561D02*
X020645Y020441D01*
X020705Y020381D01*
X020825Y020381D01*
X020885Y020441D01*
X020885Y020501D01*
X020825Y020561D01*
X020645Y020561D01*
X020765Y020681D01*
X020885Y020741D01*
X021645Y020741D02*
X021645Y020561D01*
X021765Y020621D01*
X021825Y020621D01*
X021885Y020561D01*
X021885Y020441D01*
X021825Y020381D01*
X021705Y020381D01*
X021645Y020441D01*
X021645Y020741D02*
X021885Y020741D01*
X022645Y020536D02*
X022885Y020536D01*
X022825Y020356D02*
X022825Y020716D01*
X022645Y020536D01*
X023645Y020441D02*
X023705Y020381D01*
X023825Y020381D01*
X023885Y020441D01*
X023885Y020501D01*
X023825Y020561D01*
X023765Y020561D01*
X023825Y020561D02*
X023885Y020621D01*
X023885Y020681D01*
X023825Y020741D01*
X023705Y020741D01*
X023645Y020681D01*
X024645Y020681D02*
X024705Y020741D01*
X024825Y020741D01*
X024885Y020681D01*
X024885Y020621D01*
X024645Y020381D01*
X024885Y020381D01*
X025645Y020381D02*
X025885Y020381D01*
X025765Y020381D02*
X025765Y020741D01*
X025645Y020621D01*
X026645Y020681D02*
X026645Y020441D01*
X026885Y020681D01*
X026885Y020441D01*
X026825Y020381D01*
X026705Y020381D01*
X026645Y020441D01*
X026645Y020681D02*
X026705Y020741D01*
X026825Y020741D01*
X026885Y020681D01*
X027020Y018402D02*
X027380Y018162D01*
X027380Y018034D02*
X027260Y017914D01*
X027260Y017974D02*
X027260Y017794D01*
X027380Y017794D02*
X027020Y017794D01*
X027020Y017974D01*
X027080Y018034D01*
X027200Y018034D01*
X027260Y017974D01*
X027020Y018162D02*
X027380Y018402D01*
X025507Y018423D02*
X025146Y018182D01*
X025146Y018054D02*
X025146Y017814D01*
X025146Y017934D02*
X025507Y017934D01*
X025507Y018182D02*
X025146Y018423D01*
X026379Y014189D02*
X026891Y014189D01*
X026891Y014359D02*
X026891Y014018D01*
X026550Y014018D02*
X026379Y014189D01*
X027580Y006716D02*
X027700Y006716D01*
X027760Y006656D01*
X027760Y006416D01*
X027700Y006356D01*
X027580Y006356D01*
X027520Y006416D01*
X027520Y006656D01*
X027580Y006716D01*
X027640Y006476D02*
X027760Y006356D01*
X027888Y006356D02*
X028129Y006596D01*
X028129Y006656D01*
X028068Y006716D01*
X027948Y006716D01*
X027888Y006656D01*
X027888Y006356D02*
X028129Y006356D01*
X015047Y006406D02*
X015047Y006286D01*
X014987Y006226D01*
X014807Y006226D01*
X014927Y006226D02*
X015047Y006106D01*
X014807Y006106D02*
X014807Y006466D01*
X014987Y006466D01*
X015047Y006406D01*
X014679Y006466D02*
X014679Y006106D01*
X014558Y006226D01*
X014438Y006106D01*
X014438Y006466D01*
X014310Y006406D02*
X014310Y006286D01*
X014250Y006226D01*
X014070Y006226D01*
X014070Y006106D02*
X014070Y006466D01*
X014250Y006466D01*
X014310Y006406D01*
X008250Y005976D02*
X008250Y004196D01*
X006750Y004196D02*
X006750Y005976D01*
X006110Y007336D02*
X007890Y007336D01*
X007890Y008836D02*
X006110Y008836D01*
X011000Y012196D02*
X011000Y013976D01*
X009672Y014036D02*
X009672Y013796D01*
X009612Y013736D01*
X009492Y013736D01*
X009432Y013796D01*
X009672Y014036D01*
X009612Y014096D01*
X009492Y014096D01*
X009432Y014036D01*
X009432Y013796D01*
X009183Y013736D02*
X009183Y014096D01*
X009063Y014096D02*
X009304Y014096D01*
X008935Y014036D02*
X008935Y013916D01*
X008875Y013856D01*
X008695Y013856D01*
X008815Y013856D02*
X008935Y013736D01*
X008695Y013736D02*
X008695Y014096D01*
X008875Y014096D01*
X008935Y014036D01*
X008567Y013976D02*
X008567Y013736D01*
X008567Y013916D02*
X008327Y013916D01*
X008327Y013976D02*
X008327Y013736D01*
X008199Y013796D02*
X008199Y014096D01*
X008327Y013976D02*
X008447Y014096D01*
X008567Y013976D01*
X008199Y013796D02*
X008139Y013736D01*
X008018Y013736D01*
X007958Y013796D01*
X007958Y014096D01*
X010770Y015619D02*
X010770Y015799D01*
X010830Y015859D01*
X010950Y015859D01*
X011010Y015799D01*
X011010Y015619D01*
X011130Y015619D02*
X010770Y015619D01*
X011010Y015739D02*
X011130Y015859D01*
X011130Y015987D02*
X010770Y016227D01*
X010770Y015987D02*
X011130Y016227D01*
X011270Y016227D02*
X011630Y015987D01*
X011770Y015987D02*
X012130Y015987D01*
X012130Y016227D01*
X011630Y016227D02*
X011270Y015987D01*
X011270Y015859D02*
X011270Y015619D01*
X011270Y015739D02*
X011630Y015739D01*
X012500Y013976D02*
X012500Y012196D01*
D13*
X014443Y011806D02*
X014443Y014365D01*
X014444Y014382D01*
X014449Y014399D01*
X014456Y014414D01*
X014466Y014428D01*
X014478Y014440D01*
X014492Y014450D01*
X014507Y014457D01*
X014524Y014462D01*
X014541Y014463D01*
X014541Y014464D02*
X014800Y014464D01*
X015700Y014464D02*
X015959Y014464D01*
X015959Y014463D02*
X015976Y014462D01*
X015993Y014457D01*
X016008Y014450D01*
X016022Y014440D01*
X016034Y014428D01*
X016044Y014414D01*
X016051Y014399D01*
X016056Y014382D01*
X016057Y014365D01*
X016057Y011806D01*
X016056Y011789D01*
X016051Y011772D01*
X016044Y011757D01*
X016034Y011743D01*
X016022Y011731D01*
X016008Y011721D01*
X015993Y011714D01*
X015976Y011709D01*
X015959Y011708D01*
X015700Y011708D01*
X014800Y011708D02*
X014541Y011708D01*
X014524Y011709D01*
X014507Y011714D01*
X014492Y011721D01*
X014478Y011731D01*
X014466Y011743D01*
X014456Y011757D01*
X014449Y011772D01*
X014444Y011789D01*
X014443Y011806D01*
X015000Y012836D02*
X015250Y012836D01*
X015500Y012836D01*
X015500Y012986D02*
X015500Y013186D01*
X015000Y013186D01*
X015000Y012986D01*
X015500Y012986D01*
X015500Y013336D02*
X015250Y013336D01*
X015000Y013336D01*
X009020Y015836D02*
X007480Y015836D01*
X007480Y019336D01*
X009020Y019336D01*
X009020Y015836D01*
X008600Y016086D02*
X008602Y016110D01*
X008608Y016134D01*
X008617Y016156D01*
X008630Y016176D01*
X008646Y016194D01*
X008665Y016209D01*
X008686Y016222D01*
X008708Y016230D01*
X008732Y016235D01*
X008756Y016236D01*
X008780Y016233D01*
X008803Y016226D01*
X008825Y016216D01*
X008845Y016202D01*
X008862Y016185D01*
X008877Y016166D01*
X008888Y016145D01*
X008896Y016122D01*
X008900Y016098D01*
X008900Y016074D01*
X008896Y016050D01*
X008888Y016027D01*
X008877Y016006D01*
X008862Y015987D01*
X008845Y015970D01*
X008825Y015956D01*
X008803Y015946D01*
X008780Y015939D01*
X008756Y015936D01*
X008732Y015937D01*
X008708Y015942D01*
X008686Y015950D01*
X008665Y015963D01*
X008646Y015978D01*
X008630Y015996D01*
X008617Y016016D01*
X008608Y016038D01*
X008602Y016062D01*
X008600Y016086D01*
X014281Y008113D02*
X014281Y008006D01*
X014281Y007793D02*
X014175Y007793D01*
X014281Y007793D02*
X014281Y007366D01*
X014175Y007366D02*
X014388Y007366D01*
X014604Y007472D02*
X014711Y007366D01*
X015031Y007366D01*
X015031Y007259D02*
X015031Y007793D01*
X014711Y007793D01*
X014604Y007686D01*
X014604Y007472D01*
X014925Y007152D02*
X015031Y007259D01*
X014925Y007152D02*
X014818Y007152D01*
X015249Y007472D02*
X015249Y007686D01*
X015356Y007793D01*
X015676Y007793D01*
X015676Y008006D02*
X015676Y007366D01*
X015356Y007366D01*
X015249Y007472D01*
X015893Y007472D02*
X016000Y007366D01*
X016320Y007366D01*
X016320Y007793D01*
X016538Y007793D02*
X016645Y007793D01*
X016645Y007366D01*
X016751Y007366D02*
X016538Y007366D01*
X016968Y007366D02*
X016968Y007793D01*
X017288Y007793D01*
X017395Y007686D01*
X017395Y007366D01*
X017612Y007472D02*
X017719Y007366D01*
X017932Y007366D01*
X018039Y007472D01*
X018039Y007686D01*
X017932Y007793D01*
X017719Y007793D01*
X017612Y007686D01*
X017612Y007472D01*
X016645Y008006D02*
X016645Y008113D01*
X015893Y007793D02*
X015893Y007472D01*
X013957Y007366D02*
X013530Y007366D01*
X013530Y007472D01*
X013957Y007899D01*
X013957Y008006D01*
X013530Y008006D01*
X018901Y007793D02*
X018901Y007366D01*
X018901Y007579D02*
X019115Y007793D01*
X019222Y007793D01*
X019438Y007899D02*
X019545Y008006D01*
X019759Y008006D01*
X019865Y007899D01*
X019865Y007793D01*
X019438Y007366D01*
X019865Y007366D01*
X021594Y003621D02*
X021761Y003621D01*
X021844Y003537D01*
X021511Y003204D01*
X021594Y003120D01*
X021761Y003120D01*
X021844Y003204D01*
X021844Y003537D01*
X021594Y003621D02*
X021511Y003537D01*
X021511Y003204D01*
X022542Y003120D02*
X022875Y003120D01*
X022709Y003120D02*
X022709Y003621D01*
X022542Y003454D01*
X023573Y003537D02*
X023657Y003621D01*
X023823Y003621D01*
X023907Y003537D01*
X023907Y003454D01*
X023573Y003120D01*
X023907Y003120D01*
X024604Y003204D02*
X024688Y003120D01*
X024855Y003120D01*
X024938Y003204D01*
X024938Y003287D01*
X024855Y003371D01*
X024771Y003371D01*
X024855Y003371D02*
X024938Y003454D01*
X024938Y003537D01*
X024855Y003621D01*
X024688Y003621D01*
X024604Y003537D01*
X025636Y003371D02*
X025969Y003371D01*
X025886Y003621D02*
X025886Y003120D01*
X025636Y003371D02*
X025886Y003621D01*
X026667Y003621D02*
X026667Y003371D01*
X026834Y003454D01*
X026917Y003454D01*
X027001Y003371D01*
X027001Y003204D01*
X026917Y003120D01*
X026750Y003120D01*
X026667Y003204D01*
X026667Y003621D02*
X027001Y003621D01*
X027450Y007036D02*
X028050Y007036D01*
X028067Y007038D01*
X028084Y007042D01*
X028100Y007049D01*
X028114Y007059D01*
X028127Y007072D01*
X028137Y007086D01*
X028144Y007102D01*
X028148Y007119D01*
X028150Y007136D01*
X028150Y009286D01*
X028100Y009286D01*
X027400Y009286D01*
X027350Y009286D01*
X027350Y007136D01*
X027352Y007119D01*
X027356Y007102D01*
X027363Y007086D01*
X027373Y007072D01*
X027386Y007059D01*
X027400Y007049D01*
X027416Y007042D01*
X027433Y007038D01*
X027450Y007036D01*
X027750Y007786D02*
X027750Y007986D01*
X027550Y007986D01*
X027550Y008136D02*
X027950Y008136D01*
X027950Y008286D01*
X027550Y008286D01*
X027550Y008136D01*
X027750Y007986D02*
X027950Y007986D01*
X027950Y008436D02*
X027750Y008436D01*
X027550Y008436D01*
X027750Y008436D02*
X027750Y008636D01*
X027400Y009286D02*
X027400Y009436D01*
X028100Y009436D01*
X028100Y009286D01*
X028055Y010816D02*
X026555Y010816D01*
X026305Y011066D01*
X026305Y011566D01*
X026555Y011816D01*
X028055Y011816D01*
X028305Y011566D01*
X028305Y011066D01*
X028055Y010816D01*
X028055Y011816D02*
X028305Y012066D01*
X028305Y012566D01*
X028055Y012816D01*
X026555Y012816D01*
X026305Y012566D01*
X026305Y012066D01*
X026555Y011816D01*
X026235Y011748D02*
X026152Y011665D01*
X026235Y011748D02*
X026235Y011915D01*
X026152Y011998D01*
X026068Y011998D01*
X025985Y011915D01*
X025985Y011748D01*
X025901Y011665D01*
X025818Y011665D01*
X025735Y011748D01*
X025735Y011915D01*
X025818Y011998D01*
X025735Y012180D02*
X025735Y012430D01*
X025818Y012514D01*
X025985Y012514D01*
X026068Y012430D01*
X026068Y012180D01*
X026235Y012180D02*
X025735Y012180D01*
X026555Y012816D02*
X026305Y013066D01*
X026305Y013566D01*
X026555Y013816D01*
X028055Y013816D01*
X028305Y013566D01*
X028305Y013066D01*
X028055Y012816D01*
X026235Y011399D02*
X026152Y011483D01*
X026235Y011399D02*
X026235Y011232D01*
X026152Y011149D01*
X025818Y011149D01*
X025735Y011232D01*
X025735Y011399D01*
X025818Y011483D01*
X025735Y010972D02*
X025735Y010805D01*
X025735Y010889D02*
X026235Y010889D01*
X026235Y010972D02*
X026235Y010805D01*
X024706Y013265D02*
X024479Y013605D01*
X024338Y013605D02*
X024338Y013322D01*
X024281Y013265D01*
X024168Y013265D01*
X024111Y013322D01*
X024111Y013605D01*
X023969Y013492D02*
X023969Y013265D01*
X023969Y013435D02*
X023743Y013435D01*
X023743Y013492D02*
X023856Y013605D01*
X023969Y013492D01*
X023743Y013492D02*
X023743Y013265D01*
X024479Y013265D02*
X024706Y013605D01*
D14*
X002319Y000340D02*
X002249Y000410D01*
X002249Y000620D01*
X002389Y000410D02*
X002459Y000340D01*
X002529Y000410D01*
X002529Y000620D01*
X002709Y000620D02*
X002709Y000410D01*
X002779Y000340D01*
X002849Y000410D01*
X002919Y000340D01*
X002989Y000410D01*
X002989Y000620D01*
X003169Y000620D02*
X003169Y000410D01*
X003239Y000340D01*
X003309Y000410D01*
X003380Y000340D01*
X003450Y000410D01*
X003450Y000620D01*
X003630Y000410D02*
X003700Y000410D01*
X003700Y000340D01*
X003630Y000340D01*
X003630Y000410D01*
X003860Y000340D02*
X004000Y000340D01*
X003930Y000340D02*
X003930Y000760D01*
X003860Y000760D01*
X004167Y000550D02*
X004167Y000410D01*
X004237Y000340D01*
X004377Y000340D01*
X004447Y000410D01*
X004447Y000550D01*
X004377Y000620D01*
X004237Y000620D01*
X004167Y000550D01*
X004627Y000550D02*
X004627Y000410D01*
X004697Y000340D01*
X004908Y000340D01*
X004908Y000270D02*
X004908Y000620D01*
X004697Y000620D01*
X004627Y000550D01*
X004908Y000270D02*
X004837Y000200D01*
X004767Y000200D01*
X005088Y000410D02*
X005158Y000340D01*
X005298Y000340D01*
X005368Y000410D01*
X005368Y000550D01*
X005298Y000620D01*
X005158Y000620D01*
X005088Y000550D01*
X005088Y000410D01*
X005548Y000340D02*
X005758Y000340D01*
X005828Y000410D01*
X005758Y000480D01*
X005618Y000480D01*
X005548Y000550D01*
X005618Y000620D01*
X005828Y000620D01*
X006008Y000550D02*
X006289Y000550D01*
X006469Y000550D02*
X006469Y000410D01*
X006539Y000340D01*
X006679Y000340D01*
X006749Y000480D02*
X006469Y000480D01*
X006469Y000550D02*
X006539Y000620D01*
X006679Y000620D01*
X006749Y000550D01*
X006749Y000480D01*
X006929Y000340D02*
X007069Y000340D01*
X006999Y000340D02*
X006999Y000760D01*
X006929Y000760D01*
X007236Y000550D02*
X007236Y000410D01*
X007306Y000340D01*
X007446Y000340D01*
X007516Y000480D02*
X007236Y000480D01*
X007236Y000550D02*
X007306Y000620D01*
X007446Y000620D01*
X007516Y000550D01*
X007516Y000480D01*
X007697Y000410D02*
X007767Y000340D01*
X007977Y000340D01*
X008227Y000410D02*
X008297Y000340D01*
X008227Y000410D02*
X008227Y000690D01*
X008157Y000620D02*
X008297Y000620D01*
X008464Y000620D02*
X008464Y000340D01*
X008464Y000480D02*
X008604Y000620D01*
X008674Y000620D01*
X008848Y000550D02*
X008848Y000410D01*
X008918Y000340D01*
X009058Y000340D01*
X009128Y000410D01*
X009128Y000550D01*
X009058Y000620D01*
X008918Y000620D01*
X008848Y000550D01*
X009308Y000410D02*
X009378Y000410D01*
X009378Y000340D01*
X009308Y000340D01*
X009308Y000410D01*
X009538Y000410D02*
X009608Y000340D01*
X009818Y000340D01*
X009999Y000410D02*
X009999Y000550D01*
X010069Y000620D01*
X010209Y000620D01*
X010279Y000550D01*
X010279Y000410D01*
X010209Y000340D01*
X010069Y000340D01*
X009999Y000410D01*
X009818Y000620D02*
X009608Y000620D01*
X009538Y000550D01*
X009538Y000410D01*
X010459Y000340D02*
X010459Y000620D01*
X010529Y000620D01*
X010599Y000550D01*
X010669Y000620D01*
X010739Y000550D01*
X010739Y000340D01*
X010599Y000340D02*
X010599Y000550D01*
X010919Y000340D02*
X011200Y000760D01*
X011380Y000620D02*
X011660Y000620D01*
X011380Y000340D01*
X011660Y000340D01*
X011840Y000340D02*
X011980Y000340D01*
X011910Y000340D02*
X011910Y000620D01*
X011840Y000620D01*
X011910Y000760D02*
X011910Y000830D01*
X012147Y000550D02*
X012147Y000410D01*
X012217Y000340D01*
X012427Y000340D01*
X012427Y000270D02*
X012427Y000620D01*
X012217Y000620D01*
X012147Y000550D01*
X012427Y000270D02*
X012357Y000200D01*
X012287Y000200D01*
X012607Y000410D02*
X012607Y000550D01*
X012677Y000620D01*
X012888Y000620D01*
X012888Y000760D02*
X012888Y000340D01*
X012677Y000340D01*
X012607Y000410D01*
X013068Y000410D02*
X013138Y000340D01*
X013348Y000340D01*
X013348Y000620D01*
X013528Y000620D02*
X013598Y000620D01*
X013598Y000340D01*
X013528Y000340D02*
X013668Y000340D01*
X013835Y000340D02*
X013835Y000620D01*
X014045Y000620D01*
X014115Y000550D01*
X014115Y000340D01*
X014296Y000410D02*
X014296Y000550D01*
X014366Y000620D01*
X014506Y000620D01*
X014576Y000550D01*
X014576Y000410D01*
X014506Y000340D01*
X014366Y000340D01*
X014296Y000410D01*
X013598Y000760D02*
X013598Y000830D01*
X013068Y000620D02*
X013068Y000410D01*
X007977Y000620D02*
X007767Y000620D01*
X007697Y000550D01*
X007697Y000410D01*
X002389Y000410D02*
X002319Y000340D01*
X007106Y005162D02*
X007500Y004759D01*
X007894Y005162D01*
X007106Y005162D01*
X010300Y006045D02*
X010300Y008626D01*
X011700Y008626D01*
X011700Y006045D01*
X010300Y006045D01*
X011925Y005986D02*
X012575Y005986D01*
X012592Y005984D01*
X012609Y005980D01*
X012625Y005973D01*
X012639Y005963D01*
X012652Y005950D01*
X012662Y005936D01*
X012669Y005920D01*
X012673Y005903D01*
X012675Y005886D01*
X011925Y005986D02*
X011908Y005984D01*
X011891Y005980D01*
X011875Y005973D01*
X011861Y005963D01*
X011848Y005950D01*
X011838Y005936D01*
X011831Y005920D01*
X011827Y005903D01*
X011825Y005886D01*
X011825Y005286D02*
X011827Y005269D01*
X011831Y005252D01*
X011838Y005236D01*
X011848Y005222D01*
X011861Y005209D01*
X011875Y005199D01*
X011891Y005192D01*
X011908Y005188D01*
X011925Y005186D01*
X012575Y005186D01*
X012592Y005188D01*
X012609Y005192D01*
X012625Y005199D01*
X012639Y005209D01*
X012652Y005222D01*
X012662Y005236D01*
X012669Y005252D01*
X012673Y005269D01*
X012675Y005286D01*
X007327Y008086D02*
X006924Y008479D01*
X006924Y007692D01*
X007327Y008086D01*
X007950Y010045D02*
X006550Y010045D01*
X006550Y012626D01*
X007950Y012626D01*
X007950Y010045D01*
X004560Y012167D02*
X004560Y012505D01*
X004106Y012655D02*
X003894Y012655D01*
X003440Y012505D02*
X003440Y012167D01*
X011356Y013162D02*
X012144Y013162D01*
X011750Y012759D01*
X011356Y013162D01*
X022175Y014686D02*
X022825Y014686D01*
X022842Y014688D01*
X022859Y014692D01*
X022875Y014699D01*
X022889Y014709D01*
X022902Y014722D01*
X022912Y014736D01*
X022919Y014752D01*
X022923Y014769D01*
X022925Y014786D01*
X022925Y015386D02*
X022923Y015403D01*
X022919Y015420D01*
X022912Y015436D01*
X022902Y015450D01*
X022889Y015463D01*
X022875Y015473D01*
X022859Y015480D01*
X022842Y015484D01*
X022825Y015486D01*
X022175Y015486D01*
X022158Y015484D01*
X022141Y015480D01*
X022125Y015473D01*
X022111Y015463D01*
X022098Y015450D01*
X022088Y015436D01*
X022081Y015420D01*
X022077Y015403D01*
X022075Y015386D01*
X022075Y014786D02*
X022077Y014769D01*
X022081Y014752D01*
X022088Y014736D01*
X022098Y014722D01*
X022111Y014709D01*
X022125Y014699D01*
X022141Y014692D01*
X022158Y014688D01*
X022175Y014686D01*
X023614Y012940D02*
X025386Y012940D01*
X025386Y007231D01*
X023614Y007231D01*
X023614Y012940D01*
D15*
X023446Y001026D02*
X023249Y001026D01*
X023151Y000927D01*
X023151Y000829D01*
X023249Y000730D01*
X023446Y000730D01*
X023545Y000632D01*
X023545Y000533D01*
X023446Y000435D01*
X023249Y000435D01*
X023151Y000533D01*
X022900Y000730D02*
X022506Y000730D01*
X022255Y000927D02*
X022255Y001026D01*
X022255Y000927D02*
X022059Y000730D01*
X022059Y000435D01*
X022059Y000730D02*
X021862Y000927D01*
X021862Y001026D01*
X021611Y000927D02*
X021611Y000829D01*
X021512Y000730D01*
X021217Y000730D01*
X021217Y000435D02*
X021217Y001026D01*
X021512Y001026D01*
X021611Y000927D01*
X021512Y000730D02*
X021611Y000632D01*
X021611Y000533D01*
X021512Y000435D01*
X021217Y000435D01*
X020322Y000533D02*
X020223Y000435D01*
X020027Y000435D01*
X019928Y000533D01*
X019928Y000927D01*
X020027Y001026D01*
X020223Y001026D01*
X020322Y000927D01*
X019677Y000927D02*
X019579Y001026D01*
X019382Y001026D01*
X019284Y000927D01*
X019284Y000533D01*
X019382Y000435D01*
X019579Y000435D01*
X019677Y000533D01*
X023446Y001026D02*
X023545Y000927D01*
X023795Y000829D02*
X023992Y001026D01*
X024189Y000829D01*
X024189Y000435D01*
X023795Y000435D02*
X023795Y000829D01*
X023795Y000730D02*
X024189Y000730D01*
X025085Y000533D02*
X025183Y000435D01*
X025380Y000435D01*
X025478Y000533D01*
X025478Y000632D01*
X025380Y000730D01*
X025281Y000730D01*
X025380Y000730D02*
X025478Y000829D01*
X025478Y000927D01*
X025380Y001026D01*
X025183Y001026D01*
X025085Y000927D01*
X025729Y000533D02*
X025827Y000533D01*
X025827Y000435D01*
X025729Y000435D01*
X025729Y000533D01*
X026051Y000533D02*
X026051Y000927D01*
X026150Y001026D01*
X026347Y001026D01*
X026445Y000927D01*
X026051Y000533D01*
X026150Y000435D01*
X026347Y000435D01*
X026445Y000533D01*
X026445Y000927D01*
D16*
X020659Y009436D02*
X020466Y009436D01*
X020369Y009533D01*
X020466Y009629D01*
X020659Y009629D01*
X020659Y009730D02*
X020369Y009730D01*
X020659Y009924D01*
X020369Y009924D01*
X020369Y010025D02*
X020369Y010219D01*
X020369Y010122D02*
X020659Y010122D01*
X020659Y010320D02*
X020659Y010513D01*
X020659Y010416D02*
X020369Y010416D01*
X020466Y010320D01*
X020514Y009629D02*
X020514Y009436D01*
X010530Y014601D02*
X010283Y014971D01*
X010162Y014909D02*
X010162Y014786D01*
X010100Y014724D01*
X009915Y014724D01*
X009915Y014601D02*
X009915Y014971D01*
X010100Y014971D01*
X010162Y014909D01*
X010038Y014724D02*
X010162Y014601D01*
X010283Y014601D02*
X010530Y014971D01*
X007580Y014971D02*
X007333Y014601D01*
X007088Y014601D02*
X007088Y014971D01*
X006965Y014971D02*
X007212Y014971D01*
X007333Y014971D02*
X007580Y014601D01*
D17*
X007452Y013011D02*
X007452Y012861D01*
X007402Y012861D02*
X007502Y012861D01*
X007402Y012961D02*
X007452Y013011D01*
X007355Y013011D02*
X007355Y012886D01*
X007330Y012861D01*
X007280Y012861D01*
X007255Y012886D01*
X007255Y013011D01*
X005350Y014766D02*
X005325Y014741D01*
X005275Y014741D01*
X005250Y014766D01*
X005350Y014866D01*
X005350Y014766D01*
X005350Y014866D02*
X005325Y014891D01*
X005275Y014891D01*
X005250Y014866D01*
X005250Y014766D01*
X005202Y014741D02*
X005102Y014741D01*
X005202Y014841D01*
X005202Y014866D01*
X005177Y014891D01*
X005127Y014891D01*
X005102Y014866D01*
X005055Y014866D02*
X005030Y014891D01*
X004980Y014891D01*
X004955Y014866D01*
X004955Y014766D01*
X004980Y014741D01*
X005030Y014741D01*
X005055Y014766D01*
X005005Y015516D02*
X005105Y015516D01*
X005152Y015516D02*
X005252Y015516D01*
X005202Y015516D02*
X005202Y015666D01*
X005152Y015616D01*
X005005Y015666D02*
X005005Y015516D01*
X005555Y016066D02*
X005580Y016041D01*
X005630Y016041D01*
X005655Y016066D01*
X005702Y016041D02*
X005802Y016041D01*
X005752Y016041D02*
X005752Y016191D01*
X005702Y016141D01*
X005655Y016166D02*
X005630Y016191D01*
X005580Y016191D01*
X005555Y016166D01*
X005555Y016066D01*
X005850Y016066D02*
X005875Y016041D01*
X005925Y016041D01*
X005950Y016066D01*
X005950Y016166D01*
X005925Y016191D01*
X005875Y016191D01*
X005850Y016166D01*
X005850Y016141D01*
X005875Y016116D01*
X005950Y016116D01*
X006088Y017481D02*
X006063Y017506D01*
X006063Y017606D01*
X006088Y017631D01*
X006138Y017631D01*
X006163Y017606D01*
X006210Y017581D02*
X006260Y017631D01*
X006260Y017481D01*
X006210Y017481D02*
X006310Y017481D01*
X006358Y017481D02*
X006358Y017506D01*
X006458Y017606D01*
X006458Y017631D01*
X006358Y017631D01*
X006163Y017506D02*
X006138Y017481D01*
X006088Y017481D01*
X006083Y017881D02*
X006083Y018031D01*
X006008Y017956D01*
X006108Y017956D01*
X005960Y017956D02*
X005935Y017931D01*
X005860Y017931D01*
X005910Y017931D02*
X005960Y017881D01*
X005960Y017956D02*
X005960Y018006D01*
X005935Y018031D01*
X005860Y018031D01*
X005860Y017881D01*
X006605Y018841D02*
X006605Y018991D01*
X006680Y018991D01*
X006705Y018966D01*
X006705Y018916D01*
X006680Y018891D01*
X006605Y018891D01*
X006655Y018891D02*
X006705Y018841D01*
X006752Y018866D02*
X006777Y018841D01*
X006827Y018841D01*
X006852Y018866D01*
X006852Y018916D01*
X006827Y018941D01*
X006802Y018941D01*
X006752Y018916D01*
X006752Y018991D01*
X006852Y018991D01*
X006852Y019241D02*
X006852Y019391D01*
X006802Y019341D01*
X006755Y019366D02*
X006730Y019391D01*
X006680Y019391D01*
X006655Y019366D01*
X006655Y019266D01*
X006680Y019241D01*
X006730Y019241D01*
X006755Y019266D01*
X006802Y019241D02*
X006902Y019241D01*
X006950Y019266D02*
X006950Y019291D01*
X006975Y019316D01*
X007025Y019316D01*
X007050Y019291D01*
X007050Y019266D01*
X007025Y019241D01*
X006975Y019241D01*
X006950Y019266D01*
X006975Y019316D02*
X006950Y019341D01*
X006950Y019366D01*
X006975Y019391D01*
X007025Y019391D01*
X007050Y019366D01*
X007050Y019341D01*
X007025Y019316D01*
X012414Y018028D02*
X012414Y017878D01*
X012414Y017928D02*
X012490Y017928D01*
X012515Y017953D01*
X012515Y018003D01*
X012490Y018028D01*
X012414Y018028D01*
X012464Y017928D02*
X012515Y017878D01*
X012562Y017878D02*
X012662Y017878D01*
X012612Y017878D02*
X012612Y018028D01*
X012562Y017978D01*
X012709Y017953D02*
X012784Y017953D01*
X012809Y017928D01*
X012809Y017903D01*
X012784Y017878D01*
X012734Y017878D01*
X012709Y017903D01*
X012709Y017953D01*
X012759Y018003D01*
X012809Y018028D01*
X013792Y017109D02*
X013817Y017134D01*
X013842Y017134D01*
X013867Y017109D01*
X013892Y017134D01*
X013917Y017134D01*
X013942Y017109D01*
X013942Y017059D01*
X013917Y017034D01*
X013942Y016987D02*
X013942Y016886D01*
X013942Y016937D02*
X013792Y016937D01*
X013842Y016886D01*
X013817Y016839D02*
X013792Y016814D01*
X013792Y016739D01*
X013942Y016739D01*
X013942Y016814D01*
X013917Y016839D01*
X013817Y016839D01*
X013817Y017034D02*
X013792Y017059D01*
X013792Y017109D01*
X013867Y017109D02*
X013867Y017084D01*
X015307Y017750D02*
X015307Y017825D01*
X015332Y017850D01*
X015433Y017850D01*
X015458Y017825D01*
X015458Y017750D01*
X015307Y017750D01*
X015358Y017897D02*
X015307Y017947D01*
X015458Y017947D01*
X015458Y017897D02*
X015458Y017997D01*
X015433Y018045D02*
X015332Y018145D01*
X015433Y018145D01*
X015458Y018120D01*
X015458Y018070D01*
X015433Y018045D01*
X015332Y018045D01*
X015307Y018070D01*
X015307Y018120D01*
X015332Y018145D01*
X015567Y017134D02*
X015542Y017109D01*
X015542Y017059D01*
X015567Y017034D01*
X015567Y017134D02*
X015592Y017134D01*
X015692Y017034D01*
X015692Y017134D01*
X015692Y016987D02*
X015692Y016886D01*
X015692Y016937D02*
X015542Y016937D01*
X015592Y016886D01*
X015567Y016839D02*
X015542Y016814D01*
X015542Y016739D01*
X015692Y016739D01*
X015692Y016814D01*
X015667Y016839D01*
X015567Y016839D01*
X017307Y017750D02*
X017307Y017825D01*
X017332Y017850D01*
X017433Y017850D01*
X017458Y017825D01*
X017458Y017750D01*
X017307Y017750D01*
X017358Y017897D02*
X017307Y017947D01*
X017458Y017947D01*
X017458Y017897D02*
X017458Y017997D01*
X017458Y018045D02*
X017458Y018145D01*
X017458Y018095D02*
X017307Y018095D01*
X017358Y018045D01*
X018445Y017110D02*
X018470Y017135D01*
X018495Y017135D01*
X018520Y017110D01*
X018545Y017135D01*
X018570Y017135D01*
X018595Y017110D01*
X018595Y017060D01*
X018570Y017035D01*
X018595Y016988D02*
X018595Y016888D01*
X018595Y016938D02*
X018445Y016938D01*
X018495Y016888D01*
X018470Y016841D02*
X018445Y016816D01*
X018445Y016766D01*
X018470Y016741D01*
X018570Y016741D01*
X018595Y016766D01*
X018595Y016816D01*
X018570Y016841D01*
X018470Y017035D02*
X018445Y017060D01*
X018445Y017110D01*
X018520Y017110D02*
X018520Y017085D01*
X021042Y018636D02*
X021042Y018712D01*
X021067Y018737D01*
X021167Y018737D01*
X021192Y018712D01*
X021192Y018636D01*
X021042Y018636D01*
X021117Y018784D02*
X021117Y018859D01*
X021142Y018884D01*
X021167Y018884D01*
X021192Y018859D01*
X021192Y018809D01*
X021167Y018784D01*
X021117Y018784D01*
X021067Y018834D01*
X021042Y018884D01*
X021307Y017997D02*
X021307Y017897D01*
X021383Y017897D01*
X021358Y017947D01*
X021358Y017972D01*
X021383Y017997D01*
X021433Y017997D01*
X021458Y017972D01*
X021458Y017922D01*
X021433Y017897D01*
X021433Y017850D02*
X021332Y017850D01*
X021307Y017825D01*
X021307Y017750D01*
X021458Y017750D01*
X021458Y017825D01*
X021433Y017850D01*
X023307Y017825D02*
X023307Y017750D01*
X023458Y017750D01*
X023458Y017825D01*
X023433Y017850D01*
X023332Y017850D01*
X023307Y017825D01*
X023332Y017897D02*
X023307Y017922D01*
X023307Y017972D01*
X023332Y017997D01*
X023358Y017997D01*
X023458Y017897D01*
X023458Y017997D01*
X023810Y017318D02*
X023835Y017318D01*
X023860Y017293D01*
X023860Y017243D01*
X023835Y017218D01*
X023810Y017218D01*
X023785Y017243D01*
X023785Y017293D01*
X023810Y017318D01*
X023860Y017293D02*
X023885Y017318D01*
X023910Y017318D01*
X023935Y017293D01*
X023935Y017243D01*
X023910Y017218D01*
X023885Y017218D01*
X023860Y017243D01*
X023860Y017171D02*
X023885Y017146D01*
X023885Y017071D01*
X023885Y017121D02*
X023935Y017171D01*
X023860Y017171D02*
X023810Y017171D01*
X023785Y017146D01*
X023785Y017071D01*
X023935Y017071D01*
X024745Y017081D02*
X024745Y017156D01*
X024770Y017181D01*
X024820Y017181D01*
X024845Y017156D01*
X024845Y017081D01*
X024845Y017131D02*
X024895Y017181D01*
X024870Y017228D02*
X024895Y017253D01*
X024895Y017303D01*
X024870Y017328D01*
X024770Y017328D01*
X024745Y017303D01*
X024745Y017253D01*
X024770Y017228D01*
X024795Y017228D01*
X024820Y017253D01*
X024820Y017328D01*
X024895Y017081D02*
X024745Y017081D01*
X026171Y016853D02*
X026246Y016853D01*
X026271Y016828D01*
X026271Y016728D01*
X026246Y016703D01*
X026171Y016703D01*
X026171Y016853D01*
X026318Y016778D02*
X026418Y016778D01*
X026393Y016703D02*
X026393Y016853D01*
X026318Y016778D01*
X024745Y014383D02*
X024595Y014283D01*
X024595Y014235D02*
X024595Y014135D01*
X024595Y014088D02*
X024595Y013988D01*
X024745Y013988D01*
X024745Y013941D02*
X024695Y013891D01*
X024695Y013916D02*
X024695Y013841D01*
X024745Y013841D02*
X024595Y013841D01*
X024595Y013916D01*
X024620Y013941D01*
X024670Y013941D01*
X024695Y013916D01*
X024670Y013988D02*
X024670Y014038D01*
X024745Y014185D02*
X024595Y014185D01*
X024745Y014283D02*
X024595Y014383D01*
X023995Y014383D02*
X023845Y014283D01*
X023870Y014235D02*
X023920Y014235D01*
X023945Y014210D01*
X023945Y014135D01*
X023995Y014135D02*
X023845Y014135D01*
X023845Y014210D01*
X023870Y014235D01*
X023945Y014185D02*
X023995Y014235D01*
X023995Y014283D02*
X023845Y014383D01*
X023845Y014088D02*
X023845Y013988D01*
X023995Y013988D01*
X023995Y013941D02*
X023945Y013891D01*
X023945Y013916D02*
X023945Y013841D01*
X023995Y013841D02*
X023845Y013841D01*
X023845Y013916D01*
X023870Y013941D01*
X023920Y013941D01*
X023945Y013916D01*
X023920Y013988D02*
X023920Y014038D01*
X022622Y015591D02*
X022572Y015591D01*
X022597Y015591D02*
X022597Y015741D01*
X022572Y015741D02*
X022622Y015741D01*
X022525Y015741D02*
X022425Y015641D01*
X022450Y015666D02*
X022525Y015591D01*
X022425Y015591D02*
X022425Y015741D01*
X022277Y015741D02*
X022277Y015591D01*
X022377Y015591D01*
X022230Y015616D02*
X022205Y015591D01*
X022155Y015591D01*
X022130Y015616D01*
X022130Y015716D01*
X022155Y015741D01*
X022205Y015741D01*
X022230Y015716D01*
X022230Y012141D02*
X022205Y012116D01*
X022205Y012016D01*
X022230Y011991D01*
X022280Y011991D01*
X022305Y012016D01*
X022352Y011991D02*
X022452Y011991D01*
X022402Y011991D02*
X022402Y012141D01*
X022352Y012091D01*
X022305Y012116D02*
X022280Y012141D01*
X022230Y012141D01*
X022500Y012066D02*
X022600Y012066D01*
X022575Y012141D02*
X022500Y012066D01*
X022575Y011991D02*
X022575Y012141D01*
X020095Y011335D02*
X020095Y011235D01*
X020095Y011188D02*
X020095Y011088D01*
X020095Y011138D02*
X019945Y011138D01*
X019995Y011088D01*
X019970Y011041D02*
X019945Y011016D01*
X019945Y010966D01*
X019970Y010941D01*
X020070Y010941D01*
X020095Y010966D01*
X020095Y011016D01*
X020070Y011041D01*
X019995Y011235D02*
X019945Y011285D01*
X020095Y011285D01*
X019595Y011260D02*
X019570Y011235D01*
X019470Y011335D01*
X019570Y011335D01*
X019595Y011310D01*
X019595Y011260D01*
X019570Y011235D02*
X019470Y011235D01*
X019445Y011260D01*
X019445Y011310D01*
X019470Y011335D01*
X019595Y011188D02*
X019595Y011088D01*
X019595Y011138D02*
X019445Y011138D01*
X019495Y011088D01*
X019470Y011041D02*
X019445Y011016D01*
X019445Y010966D01*
X019470Y010941D01*
X019570Y010941D01*
X019595Y010966D01*
X019595Y011016D01*
X019570Y011041D01*
X017158Y011656D02*
X017133Y011631D01*
X017083Y011631D01*
X017058Y011656D01*
X017058Y011706D02*
X017108Y011731D01*
X017133Y011731D01*
X017158Y011706D01*
X017158Y011656D01*
X017058Y011706D02*
X017058Y011781D01*
X017158Y011781D01*
X016960Y011781D02*
X016960Y011631D01*
X016910Y011631D02*
X017010Y011631D01*
X016910Y011731D02*
X016960Y011781D01*
X016863Y011756D02*
X016838Y011781D01*
X016788Y011781D01*
X016763Y011756D01*
X016763Y011656D01*
X016788Y011631D01*
X016838Y011631D01*
X016863Y011656D01*
X016880Y011143D02*
X016880Y011068D01*
X016855Y011043D01*
X016830Y011043D01*
X016805Y011068D01*
X016805Y011118D01*
X016830Y011143D01*
X016930Y011143D01*
X016955Y011118D01*
X016955Y011068D01*
X016930Y011043D01*
X016930Y010996D02*
X016955Y010971D01*
X016955Y010921D01*
X016930Y010896D01*
X016830Y010896D01*
X016805Y010921D01*
X016805Y010971D01*
X016830Y010996D01*
X014708Y009581D02*
X014658Y009556D01*
X014608Y009506D01*
X014683Y009506D01*
X014708Y009481D01*
X014708Y009456D01*
X014683Y009431D01*
X014633Y009431D01*
X014608Y009456D01*
X014608Y009506D01*
X014560Y009456D02*
X014560Y009581D01*
X014460Y009581D02*
X014460Y009456D01*
X014485Y009431D01*
X014535Y009431D01*
X014560Y009456D01*
X016405Y008843D02*
X016555Y008843D01*
X016555Y008793D02*
X016555Y008893D01*
X016455Y008793D02*
X016405Y008843D01*
X016430Y008746D02*
X016480Y008746D01*
X016505Y008721D01*
X016505Y008646D01*
X016505Y008696D02*
X016555Y008746D01*
X016555Y008646D02*
X016405Y008646D01*
X016405Y008721D01*
X016430Y008746D01*
X013452Y006441D02*
X013402Y006416D01*
X013352Y006366D01*
X013427Y006366D01*
X013452Y006341D01*
X013452Y006316D01*
X013427Y006291D01*
X013377Y006291D01*
X013352Y006316D01*
X013352Y006366D01*
X013305Y006366D02*
X013280Y006341D01*
X013205Y006341D01*
X013255Y006341D02*
X013305Y006291D01*
X013305Y006366D02*
X013305Y006416D01*
X013280Y006441D01*
X013205Y006441D01*
X013205Y006291D01*
X012808Y005081D02*
X012733Y005081D01*
X012733Y004931D01*
X012808Y004931D01*
X012833Y004956D01*
X012833Y005056D01*
X012808Y005081D01*
X012685Y005081D02*
X012585Y005081D01*
X012585Y004931D01*
X012685Y004931D01*
X012635Y005006D02*
X012585Y005006D01*
X012538Y004931D02*
X012438Y004931D01*
X012438Y005081D01*
X012391Y005006D02*
X012291Y005006D01*
X012243Y005006D02*
X012218Y004981D01*
X012143Y004981D01*
X012143Y004931D02*
X012143Y005081D01*
X012218Y005081D01*
X012243Y005056D01*
X012243Y005006D01*
X012193Y004981D02*
X012243Y004931D01*
X012096Y004931D02*
X012096Y005081D01*
X011996Y005081D02*
X011996Y004931D01*
X012046Y004981D01*
X012096Y004931D01*
X011949Y005006D02*
X011924Y004981D01*
X011849Y004981D01*
X011849Y004931D02*
X011849Y005081D01*
X011924Y005081D01*
X011949Y005056D01*
X011949Y005006D01*
X011552Y005016D02*
X011552Y005041D01*
X011527Y005066D01*
X011452Y005066D01*
X011452Y005016D01*
X011477Y004991D01*
X011527Y004991D01*
X011552Y005016D01*
X011502Y005116D02*
X011452Y005066D01*
X011405Y005116D02*
X011380Y005141D01*
X011330Y005141D01*
X011305Y005116D01*
X011305Y005016D01*
X011330Y004991D01*
X011380Y004991D01*
X011405Y005016D01*
X011502Y005116D02*
X011552Y005141D01*
X007783Y007081D02*
X007783Y007231D01*
X007708Y007156D01*
X007808Y007156D01*
X007660Y007081D02*
X007560Y007081D01*
X007610Y007081D02*
X007610Y007231D01*
X007560Y007181D01*
X007513Y007206D02*
X007488Y007231D01*
X007413Y007231D01*
X007413Y007081D01*
X007488Y007081D01*
X007513Y007106D01*
X007513Y007206D01*
X006645Y004488D02*
X006645Y004388D01*
X006645Y004438D02*
X006495Y004438D01*
X006545Y004388D01*
X006520Y004341D02*
X006495Y004316D01*
X006495Y004241D01*
X006645Y004241D01*
X006645Y004316D01*
X006620Y004341D01*
X006520Y004341D01*
X003752Y006591D02*
X003652Y006591D01*
X003605Y006591D02*
X003505Y006741D01*
X003605Y006741D02*
X003505Y006591D01*
X003652Y006691D02*
X003702Y006741D01*
X003702Y006591D01*
X002470Y008841D02*
X002495Y008866D01*
X002495Y008891D01*
X002470Y008916D01*
X002345Y008916D01*
X002345Y008891D02*
X002345Y008941D01*
X002345Y008988D02*
X002345Y009063D01*
X002370Y009088D01*
X002420Y009088D01*
X002445Y009063D01*
X002445Y008988D01*
X002495Y008988D02*
X002345Y008988D01*
X002395Y009135D02*
X002345Y009185D01*
X002495Y009185D01*
X002495Y009135D02*
X002495Y009235D01*
X002810Y011581D02*
X002810Y011731D01*
X002885Y011731D01*
X002910Y011706D01*
X002910Y011656D01*
X002885Y011631D01*
X002810Y011631D01*
X002860Y011631D02*
X002910Y011581D01*
X002958Y011606D02*
X002983Y011581D01*
X003033Y011581D01*
X003058Y011606D01*
X003058Y011631D01*
X003033Y011656D01*
X003008Y011656D01*
X003033Y011656D02*
X003058Y011681D01*
X003058Y011706D01*
X003033Y011731D01*
X002983Y011731D01*
X002958Y011706D01*
X002933Y012431D02*
X002883Y012431D01*
X002858Y012456D01*
X002858Y012556D01*
X002883Y012581D01*
X002933Y012581D01*
X002958Y012556D01*
X002958Y012506D02*
X002908Y012506D01*
X002958Y012506D02*
X002958Y012456D01*
X002933Y012431D01*
X002810Y012431D02*
X002810Y012581D01*
X002810Y012506D02*
X002710Y012506D01*
X002663Y012556D02*
X002638Y012581D01*
X002588Y012581D01*
X002563Y012556D01*
X002563Y012456D01*
X002588Y012431D01*
X002638Y012431D01*
X002663Y012456D01*
X002710Y012431D02*
X002710Y012581D01*
X003655Y013216D02*
X003680Y013191D01*
X003730Y013191D01*
X003755Y013216D01*
X003755Y013341D01*
X003802Y013341D02*
X003902Y013341D01*
X003902Y013316D01*
X003802Y013216D01*
X003802Y013191D01*
X003655Y013216D02*
X003655Y013341D01*
X003960Y014181D02*
X003960Y014331D01*
X004060Y014331D01*
X004108Y014306D02*
X004133Y014331D01*
X004183Y014331D01*
X004208Y014306D01*
X004208Y014281D01*
X004108Y014181D01*
X004208Y014181D01*
X004010Y014256D02*
X003960Y014256D01*
X002652Y014066D02*
X002627Y014091D01*
X002577Y014091D01*
X002552Y014066D01*
X002505Y014066D02*
X002505Y014016D01*
X002480Y013991D01*
X002405Y013991D01*
X002455Y013991D02*
X002505Y013941D01*
X002552Y013941D02*
X002652Y014041D01*
X002652Y014066D01*
X002652Y013941D02*
X002552Y013941D01*
X002505Y014066D02*
X002480Y014091D01*
X002405Y014091D01*
X002405Y013941D01*
X004645Y013063D02*
X004645Y013013D01*
X004670Y012988D01*
X004670Y012941D02*
X004645Y012916D01*
X004645Y012866D01*
X004670Y012841D01*
X004770Y012841D01*
X004795Y012866D01*
X004795Y012916D01*
X004770Y012941D01*
X004770Y012988D02*
X004795Y013013D01*
X004795Y013063D01*
X004770Y013088D01*
X004745Y013088D01*
X004720Y013063D01*
X004720Y013038D01*
X004720Y013063D02*
X004695Y013088D01*
X004670Y013088D01*
X004645Y013063D01*
X010255Y012466D02*
X010255Y012366D01*
X010280Y012341D01*
X010330Y012341D01*
X010355Y012366D01*
X010402Y012366D02*
X010427Y012341D01*
X010477Y012341D01*
X010502Y012366D01*
X010502Y012416D01*
X010477Y012441D01*
X010452Y012441D01*
X010402Y012416D01*
X010402Y012491D01*
X010502Y012491D01*
X010355Y012466D02*
X010330Y012491D01*
X010280Y012491D01*
X010255Y012466D01*
X010745Y012438D02*
X010895Y012438D01*
X010895Y012388D02*
X010895Y012488D01*
X010870Y012535D02*
X010895Y012560D01*
X010895Y012610D01*
X010870Y012635D01*
X010820Y012635D01*
X010795Y012610D01*
X010795Y012585D01*
X010820Y012535D01*
X010745Y012535D01*
X010745Y012635D01*
X010745Y012438D02*
X010795Y012388D01*
X010770Y012341D02*
X010745Y012316D01*
X010745Y012241D01*
X010895Y012241D01*
X010895Y012316D01*
X010870Y012341D01*
X010770Y012341D01*
X011405Y011591D02*
X011480Y011591D01*
X011505Y011566D01*
X011505Y011516D01*
X011480Y011491D01*
X011405Y011491D01*
X011455Y011491D02*
X011505Y011441D01*
X011552Y011441D02*
X011652Y011441D01*
X011602Y011441D02*
X011602Y011591D01*
X011552Y011541D01*
X011700Y011566D02*
X011700Y011466D01*
X011800Y011566D01*
X011800Y011466D01*
X011775Y011441D01*
X011725Y011441D01*
X011700Y011466D01*
X011700Y011566D02*
X011725Y011591D01*
X011775Y011591D01*
X011800Y011566D01*
X011405Y011591D02*
X011405Y011441D01*
X010477Y010491D02*
X010402Y010416D01*
X010502Y010416D01*
X010477Y010341D02*
X010477Y010491D01*
X010355Y010466D02*
X010330Y010491D01*
X010280Y010491D01*
X010255Y010466D01*
X010255Y010366D01*
X010280Y010341D01*
X010330Y010341D01*
X010355Y010366D01*
X011663Y009981D02*
X011663Y009831D01*
X011663Y009881D02*
X011738Y009881D01*
X011763Y009906D01*
X011763Y009956D01*
X011738Y009981D01*
X011663Y009981D01*
X011713Y009881D02*
X011763Y009831D01*
X011810Y009831D02*
X011910Y009831D01*
X011958Y009831D02*
X012058Y009831D01*
X012008Y009831D02*
X012008Y009981D01*
X011958Y009931D01*
X011860Y009981D02*
X011860Y009831D01*
X011810Y009931D02*
X011860Y009981D01*
X011227Y009011D02*
X011177Y009011D01*
X011152Y008986D01*
X011105Y009011D02*
X011105Y008886D01*
X011080Y008861D01*
X011030Y008861D01*
X011005Y008886D01*
X011005Y009011D01*
X011152Y008861D02*
X011252Y008961D01*
X011252Y008986D01*
X011227Y009011D01*
X011252Y008861D02*
X011152Y008861D01*
X013570Y012241D02*
X013670Y012241D01*
X013695Y012266D01*
X013695Y012316D01*
X013670Y012341D01*
X013695Y012388D02*
X013695Y012488D01*
X013695Y012438D02*
X013545Y012438D01*
X013595Y012388D01*
X013570Y012341D02*
X013545Y012316D01*
X013545Y012266D01*
X013570Y012241D01*
X013580Y013746D02*
X013680Y013746D01*
X013705Y013771D01*
X013705Y013821D01*
X013680Y013846D01*
X013705Y013893D02*
X013605Y013993D01*
X013580Y013993D01*
X013555Y013968D01*
X013555Y013918D01*
X013580Y013893D01*
X013580Y013846D02*
X013555Y013821D01*
X013555Y013771D01*
X013580Y013746D01*
X013705Y013893D02*
X013705Y013993D01*
X016763Y014006D02*
X016763Y013906D01*
X016788Y013881D01*
X016838Y013881D01*
X016863Y013906D01*
X016910Y013881D02*
X017010Y013881D01*
X017058Y013881D02*
X017158Y013981D01*
X017158Y014006D01*
X017133Y014031D01*
X017083Y014031D01*
X017058Y014006D01*
X016960Y014031D02*
X016960Y013881D01*
X017058Y013881D02*
X017158Y013881D01*
X016960Y014031D02*
X016910Y013981D01*
X016863Y014006D02*
X016838Y014031D01*
X016788Y014031D01*
X016763Y014006D01*
X016788Y013031D02*
X016763Y013006D01*
X016763Y012906D01*
X016788Y012881D01*
X016838Y012881D01*
X016863Y012906D01*
X016910Y012881D02*
X017010Y012881D01*
X016960Y012881D02*
X016960Y013031D01*
X016910Y012981D01*
X016863Y013006D02*
X016838Y013031D01*
X016788Y013031D01*
X017058Y012956D02*
X017133Y012956D01*
X017158Y012931D01*
X017158Y012906D01*
X017133Y012881D01*
X017083Y012881D01*
X017058Y012906D01*
X017058Y012956D01*
X017108Y013006D01*
X017158Y013031D01*
X025545Y007988D02*
X025570Y007988D01*
X025670Y007888D01*
X025695Y007888D01*
X025670Y007841D02*
X025695Y007816D01*
X025695Y007766D01*
X025670Y007741D01*
X025570Y007741D01*
X025545Y007766D01*
X025545Y007816D01*
X025570Y007841D01*
X025545Y007888D02*
X025545Y007988D01*
X026295Y007963D02*
X026320Y007988D01*
X026345Y007988D01*
X026370Y007963D01*
X026370Y007913D01*
X026345Y007888D01*
X026320Y007888D01*
X026295Y007913D01*
X026295Y007963D01*
X026370Y007963D02*
X026395Y007988D01*
X026420Y007988D01*
X026445Y007963D01*
X026445Y007913D01*
X026420Y007888D01*
X026395Y007888D01*
X026370Y007913D01*
X026420Y007841D02*
X026445Y007816D01*
X026445Y007766D01*
X026420Y007741D01*
X026320Y007741D01*
X026295Y007766D01*
X026295Y007816D01*
X026320Y007841D01*
X024284Y019628D02*
X024234Y019628D01*
X024209Y019653D01*
X024209Y019703D02*
X024259Y019728D01*
X024284Y019728D01*
X024309Y019703D01*
X024309Y019653D01*
X024284Y019628D01*
X024209Y019703D02*
X024209Y019778D01*
X024309Y019778D01*
X024112Y019778D02*
X024112Y019628D01*
X024062Y019628D02*
X024162Y019628D01*
X024062Y019728D02*
X024112Y019778D01*
X024015Y019753D02*
X024015Y019703D01*
X023990Y019678D01*
X023914Y019678D01*
X023914Y019628D02*
X023914Y019778D01*
X023990Y019778D01*
X024015Y019753D01*
X023964Y019678D02*
X024015Y019628D01*
X020309Y019703D02*
X020209Y019703D01*
X020284Y019778D01*
X020284Y019628D01*
X020162Y019628D02*
X020062Y019628D01*
X020015Y019628D02*
X019964Y019678D01*
X019990Y019678D02*
X019914Y019678D01*
X019914Y019628D02*
X019914Y019778D01*
X019990Y019778D01*
X020015Y019753D01*
X020015Y019703D01*
X019990Y019678D01*
X020062Y019728D02*
X020112Y019778D01*
X020112Y019628D01*
X016309Y019653D02*
X016284Y019628D01*
X016234Y019628D01*
X016209Y019653D01*
X016162Y019628D02*
X016062Y019628D01*
X016015Y019628D02*
X015964Y019678D01*
X015990Y019678D02*
X015914Y019678D01*
X015914Y019628D02*
X015914Y019778D01*
X015990Y019778D01*
X016015Y019753D01*
X016015Y019703D01*
X015990Y019678D01*
X016062Y019728D02*
X016112Y019778D01*
X016112Y019628D01*
X016209Y019753D02*
X016234Y019778D01*
X016284Y019778D01*
X016309Y019753D01*
X016309Y019728D01*
X016284Y019703D01*
X016309Y019678D01*
X016309Y019653D01*
X016284Y019703D02*
X016259Y019703D01*
D18*
X015650Y019586D02*
X012650Y019586D01*
X012650Y020586D01*
X013650Y020586D01*
X013650Y019586D01*
X013650Y020586D02*
X015650Y020586D01*
X015650Y019586D01*
X017650Y020836D02*
X017650Y021836D01*
X018650Y021836D02*
X018650Y020836D01*
X017650Y020836D01*
X008650Y020836D01*
X008650Y021836D01*
X018650Y021836D01*
X019250Y021836D02*
X027250Y021836D01*
X027250Y020836D01*
X026250Y020836D01*
X026250Y021836D01*
X026250Y020836D02*
X019250Y020836D01*
X019250Y021836D01*
X009750Y015336D02*
X009750Y014336D01*
X008750Y014336D01*
X008750Y015336D01*
X007750Y015336D02*
X009750Y015336D01*
X008750Y014336D02*
X007750Y014336D01*
X007750Y015336D01*
X012250Y002836D02*
X013250Y002836D01*
X013250Y001836D01*
X012250Y001836D02*
X020250Y001836D01*
X020250Y002836D01*
X013250Y002836D01*
X012250Y002836D02*
X012250Y001836D01*
X021250Y001836D02*
X027250Y001836D01*
X027250Y002836D01*
X022250Y002836D01*
X022250Y001836D01*
X021250Y001836D02*
X021250Y002836D01*
X022250Y002836D01*
D19*
X014559Y005688D03*
X014559Y005983D03*
X002691Y012688D03*
X002691Y012983D03*
D20*
X002691Y012836D03*
X010750Y017145D03*
X011250Y017145D03*
X011750Y017027D03*
X024000Y015145D03*
X024750Y015145D03*
X014559Y005836D03*
D21*
X023852Y015145D03*
X024148Y015145D03*
X024602Y015145D03*
X024898Y015145D03*
X011898Y017027D03*
X011602Y017027D03*
X011398Y017145D03*
X011102Y017145D03*
X010898Y017145D03*
X010602Y017145D03*
D22*
X009150Y016261D02*
X007350Y016261D01*
X007350Y018911D01*
X009150Y018911D01*
X009150Y016261D01*
X012047Y018494D02*
X012047Y018604D01*
X012084Y018641D01*
X012157Y018641D01*
X012194Y018604D01*
X012194Y018494D01*
X012267Y018494D02*
X012047Y018494D01*
X012194Y018568D02*
X012267Y018641D01*
X012267Y018715D02*
X012231Y018715D01*
X012084Y018862D01*
X012047Y018862D01*
X012047Y018715D01*
X008416Y019516D02*
X008323Y019516D01*
X008393Y019586D01*
X008393Y019446D01*
X008269Y019469D02*
X008269Y019586D01*
X008175Y019586D02*
X008175Y019469D01*
X008199Y019446D01*
X008245Y019446D01*
X008269Y019469D01*
X014450Y014436D02*
X014450Y011736D01*
X015250Y012686D02*
X015250Y012836D01*
X015250Y013336D02*
X015250Y013486D01*
X015750Y013290D02*
X015797Y013243D01*
X015773Y013189D02*
X015867Y013189D01*
X015890Y013166D01*
X015890Y013119D01*
X015867Y013096D01*
X015773Y013096D01*
X015750Y013119D01*
X015750Y013166D01*
X015773Y013189D01*
X015843Y013142D02*
X015890Y013189D01*
X015890Y013243D02*
X015890Y013336D01*
X015890Y013290D02*
X015750Y013290D01*
X016050Y014436D02*
X016050Y011736D01*
X019510Y008566D02*
X019620Y008566D01*
X019657Y008529D01*
X019657Y008492D01*
X019620Y008456D01*
X019510Y008456D01*
X019510Y008346D02*
X019510Y008566D01*
X019620Y008456D02*
X019657Y008419D01*
X019657Y008382D01*
X019620Y008346D01*
X019510Y008346D01*
X019731Y008346D02*
X019878Y008346D01*
X019804Y008346D02*
X019804Y008566D01*
X019731Y008492D01*
X017834Y006362D02*
X017981Y006215D01*
X018017Y006215D01*
X017981Y006141D02*
X017834Y006141D01*
X017797Y006104D01*
X017797Y005994D01*
X018017Y005994D01*
X018017Y006104D01*
X017981Y006141D01*
X017797Y006215D02*
X017797Y006362D01*
X017834Y006362D01*
X018019Y005373D02*
X018056Y005373D01*
X018093Y005336D01*
X018093Y005263D01*
X018056Y005226D01*
X018019Y005226D01*
X017982Y005263D01*
X017982Y005336D01*
X018019Y005373D01*
X018093Y005336D02*
X018129Y005373D01*
X018166Y005373D01*
X018203Y005336D01*
X018203Y005263D01*
X018166Y005226D01*
X018129Y005226D01*
X018093Y005263D01*
X018166Y005152D02*
X018019Y005152D01*
X017982Y005115D01*
X017982Y005005D01*
X018203Y005005D01*
X018203Y005115D01*
X018166Y005152D01*
X019982Y005115D02*
X019982Y005005D01*
X020203Y005005D01*
X020203Y005115D01*
X020166Y005152D01*
X020019Y005152D01*
X019982Y005115D01*
X020019Y005226D02*
X020056Y005226D01*
X020093Y005263D01*
X020093Y005373D01*
X020166Y005373D02*
X020019Y005373D01*
X019982Y005336D01*
X019982Y005263D01*
X020019Y005226D01*
X020166Y005226D02*
X020203Y005263D01*
X020203Y005336D01*
X020166Y005373D01*
X021482Y004307D02*
X021482Y004234D01*
X021519Y004197D01*
X021482Y004307D02*
X021519Y004344D01*
X021556Y004344D01*
X021703Y004197D01*
X021703Y004344D01*
X021703Y004123D02*
X021703Y003976D01*
X021703Y004049D02*
X021482Y004049D01*
X021556Y003976D01*
X021593Y003902D02*
X021629Y003865D01*
X021629Y003755D01*
X021629Y003828D02*
X021703Y003902D01*
X021593Y003902D02*
X021519Y003902D01*
X021482Y003865D01*
X021482Y003755D01*
X021703Y003755D01*
X024482Y004505D02*
X024482Y004615D01*
X024519Y004652D01*
X024593Y004652D01*
X024629Y004615D01*
X024629Y004505D01*
X024629Y004578D02*
X024703Y004652D01*
X024703Y004726D02*
X024703Y004873D01*
X024703Y004799D02*
X024482Y004799D01*
X024556Y004726D01*
X024482Y004505D02*
X024703Y004505D01*
X024703Y004947D02*
X024666Y004947D01*
X024519Y005094D01*
X024482Y005094D01*
X024482Y004947D01*
X023767Y005994D02*
X023547Y005994D01*
X023547Y006104D01*
X023584Y006141D01*
X023731Y006141D01*
X023767Y006104D01*
X023767Y005994D01*
X023731Y006215D02*
X023767Y006252D01*
X023767Y006325D01*
X023731Y006362D01*
X023694Y006362D01*
X023657Y006325D01*
X023657Y006289D01*
X023657Y006325D02*
X023621Y006362D01*
X023584Y006362D01*
X023547Y006325D01*
X023547Y006252D01*
X023584Y006215D01*
D23*
X015500Y010093D02*
X015500Y010097D01*
D24*
X016000Y009845D02*
X014996Y009845D01*
X014996Y009330D01*
X016000Y009330D01*
X016000Y009845D01*
D25*
X020275Y004411D03*
X020275Y003761D03*
X021225Y003761D03*
X021225Y004411D03*
X025025Y004761D03*
X025025Y005411D03*
X025975Y005411D03*
X025975Y004761D03*
X014225Y017761D03*
X014225Y018411D03*
X013275Y018411D03*
X013275Y017761D03*
X011725Y018011D03*
X011725Y018661D03*
X010775Y018661D03*
X010775Y018011D03*
X016775Y019511D03*
X016775Y020161D03*
X017725Y020161D03*
X017725Y019511D03*
X020775Y019511D03*
X020775Y020161D03*
X021725Y020161D03*
X021725Y019511D03*
X024775Y019511D03*
X024775Y020161D03*
X025725Y020161D03*
X025725Y019511D03*
D26*
X025400Y019511D03*
X025100Y019511D03*
X025100Y020161D03*
X025400Y020161D03*
X021400Y020161D03*
X021100Y020161D03*
X021100Y019511D03*
X021400Y019511D03*
X017400Y019511D03*
X017100Y019511D03*
X017100Y020161D03*
X017400Y020161D03*
X013900Y018411D03*
X013600Y018411D03*
X013600Y017761D03*
X013900Y017761D03*
X011400Y018011D03*
X011100Y018011D03*
X011100Y018661D03*
X011400Y018661D03*
X025350Y005411D03*
X025650Y005411D03*
X025650Y004761D03*
X025350Y004761D03*
X020900Y004411D03*
X020600Y004411D03*
X020600Y003761D03*
X020900Y003761D03*
D27*
X006030Y003410D02*
X006030Y002761D01*
X005833Y002761D01*
X005833Y003410D01*
X005242Y003261D02*
X005242Y005910D01*
X005833Y005910D01*
X005833Y005261D01*
X006030Y005261D02*
X006030Y005910D01*
X005833Y005910D01*
X005242Y005910D02*
X005242Y006107D01*
X000518Y006107D01*
X000518Y005595D01*
X000911Y005595D01*
X001305Y005595D02*
X001699Y005595D01*
X001896Y005910D02*
X005242Y005910D01*
X004061Y005595D02*
X004061Y005018D01*
X004061Y004624D02*
X004061Y004047D01*
X004061Y003653D02*
X004061Y003076D01*
X003667Y003076D01*
X003274Y003076D02*
X002880Y003076D01*
X002486Y003076D02*
X002093Y003076D01*
X001699Y003076D02*
X001305Y003076D01*
X000911Y003076D02*
X000518Y003076D01*
X000518Y005595D01*
X001896Y005910D02*
X001896Y006107D01*
X001896Y005910D02*
X001896Y002564D01*
X000518Y002564D02*
X003742Y002564D01*
X001305Y003942D02*
X001266Y003944D01*
X001228Y003950D01*
X001191Y003959D01*
X001154Y003972D01*
X001119Y003989D01*
X001086Y004008D01*
X001055Y004031D01*
X001026Y004057D01*
X001000Y004086D01*
X000977Y004117D01*
X000958Y004150D01*
X000941Y004185D01*
X000928Y004222D01*
X000919Y004259D01*
X000913Y004297D01*
X000911Y004336D01*
X000913Y004375D01*
X000919Y004413D01*
X000928Y004450D01*
X000941Y004487D01*
X000958Y004522D01*
X000977Y004555D01*
X001000Y004586D01*
X001026Y004615D01*
X001055Y004641D01*
X001086Y004664D01*
X001119Y004683D01*
X001154Y004700D01*
X001191Y004713D01*
X001228Y004722D01*
X001266Y004728D01*
X001305Y004730D01*
X002093Y005595D02*
X002486Y005595D01*
X002880Y005595D02*
X003274Y005595D01*
X003667Y005595D02*
X004061Y005595D01*
X000518Y003076D02*
X000518Y002564D01*
D28*
X005606Y015340D02*
X006394Y015340D01*
X006394Y015832D02*
X005606Y015832D01*
D29*
X006000Y015586D03*
D30*
X027550Y009786D02*
X027550Y009636D01*
X027950Y009586D02*
X027950Y009786D01*
D31*
X027950Y009571D03*
X027550Y009571D03*
M02*
