G75*
G70*
%OFA0B0*%
%FSLAX24Y24*%
%IPPOS*%
%LPD*%
%AMOC8*
5,1,8,0,0,1.08239X$1,22.5*
%
%ADD10OC8,0.0640*%
%ADD11R,0.0640X0.0640*%
%ADD12R,0.0460X0.0630*%
%ADD13C,0.0594*%
%ADD14R,0.0512X0.0512*%
%ADD15R,0.0600X0.0600*%
%ADD16C,0.0600*%
%ADD17C,0.0560*%
%ADD18C,0.0440*%
%ADD19C,0.0240*%
%ADD20C,0.0360*%
%ADD21C,0.0160*%
%ADD22C,0.0330*%
%ADD23C,0.0100*%
%ADD24C,0.0120*%
%ADD25C,0.0070*%
%ADD26C,0.0350*%
D10*
X013750Y002336D03*
X014750Y002336D03*
X015750Y002336D03*
X016750Y002336D03*
X017750Y002336D03*
X018750Y002336D03*
X019750Y002336D03*
X022750Y002336D03*
X023750Y002336D03*
X024750Y002336D03*
X025750Y002336D03*
X026750Y002336D03*
X026805Y011316D03*
X026805Y012316D03*
X027805Y012316D03*
X027805Y011316D03*
X027805Y013316D03*
X026805Y013316D03*
X025750Y021336D03*
X024750Y021336D03*
X023750Y021336D03*
X022750Y021336D03*
X021750Y021336D03*
X020750Y021336D03*
X019750Y021336D03*
X017150Y021336D03*
X016150Y021336D03*
X015150Y021336D03*
X014150Y021336D03*
X013150Y021336D03*
X012150Y021336D03*
X011150Y021336D03*
X010150Y021336D03*
X009150Y021336D03*
X014150Y020086D03*
X015150Y020086D03*
X008250Y014836D03*
D11*
X009250Y014836D03*
X013150Y020086D03*
X018150Y021336D03*
X026750Y021336D03*
X021750Y002336D03*
X012750Y002336D03*
D12*
X013400Y018836D03*
X014000Y018836D03*
X014600Y018836D03*
D13*
X003750Y019452D03*
X003750Y017719D03*
X021250Y008336D03*
X021750Y007836D03*
X021250Y007336D03*
X022250Y007336D03*
X022250Y008336D03*
D14*
X012000Y019336D03*
X004750Y019336D03*
X004750Y018336D03*
X004750Y017336D03*
X003750Y010836D03*
D15*
X024106Y012448D03*
D16*
X024894Y012448D03*
X024894Y011660D03*
X024894Y010873D03*
X024106Y010873D03*
X024106Y011660D03*
X024106Y010086D03*
X024894Y010086D03*
X024894Y009298D03*
X024106Y009298D03*
X024106Y008511D03*
X024106Y007723D03*
X024894Y007723D03*
X024894Y008511D03*
D17*
X027250Y010086D03*
X028250Y010086D03*
D18*
X011000Y006836D03*
X009750Y005836D03*
X008000Y007086D03*
D19*
X010750Y007086D01*
X011000Y006836D01*
X010250Y005836D02*
X009750Y005836D01*
D20*
X016750Y004561D03*
D21*
X016750Y002336D01*
D22*
X017000Y005336D03*
X017000Y005836D03*
X017000Y006336D03*
X015750Y006336D03*
X015900Y008436D03*
X017000Y008636D03*
X015500Y009586D03*
X017000Y011586D03*
X016100Y012336D03*
X014500Y012586D03*
X014500Y013086D03*
X014500Y013586D03*
X013500Y013586D03*
X013500Y013086D03*
X013500Y012586D03*
X012750Y012336D03*
X012750Y010836D03*
X009150Y010836D03*
X009150Y011336D03*
X009150Y010336D03*
X013000Y007836D03*
X013000Y007336D03*
X013000Y006836D03*
X010750Y005836D03*
X010250Y005336D03*
X010250Y004836D03*
X011500Y005086D03*
X018750Y009986D03*
X019050Y010336D03*
X019000Y009536D03*
X018950Y009236D03*
X018950Y008936D03*
X019000Y008636D03*
X019300Y008536D03*
X019600Y008536D03*
X019900Y008536D03*
X020200Y008536D03*
X020500Y008536D03*
X020800Y008636D03*
X020750Y008336D03*
X020800Y008036D03*
X021050Y007886D03*
X020850Y007636D03*
X020750Y007336D03*
X020800Y007036D03*
X021050Y006886D03*
X021350Y006836D03*
X021600Y006986D03*
X021900Y006986D03*
X022200Y006836D03*
X022500Y006886D03*
X022700Y007136D03*
X022750Y007436D03*
X022600Y007736D03*
X022700Y008036D03*
X022300Y007836D03*
X021700Y007286D03*
X021000Y006336D03*
X021000Y005836D03*
X021000Y005386D03*
X022750Y005386D03*
X022750Y005836D03*
X022750Y006336D03*
X023750Y005836D03*
X024250Y006210D03*
X025250Y005836D03*
X025650Y005836D03*
X026500Y005086D03*
X025250Y006586D03*
X024000Y005086D03*
X022750Y008336D03*
X022700Y008636D03*
X022700Y008936D03*
X022400Y008886D03*
X022400Y009186D03*
X022100Y008886D03*
X021800Y008936D03*
X021000Y008886D03*
X020550Y009286D03*
X020550Y009586D03*
X020550Y009886D03*
X020550Y010186D03*
X020550Y010486D03*
X020900Y010736D03*
X020525Y011736D03*
X021050Y012086D03*
X021050Y012586D03*
X021050Y013286D03*
X022000Y013086D03*
X022500Y013086D03*
X023000Y013086D03*
X023000Y013486D03*
X023400Y013836D03*
X023750Y014086D03*
X023350Y014636D03*
X023200Y015136D03*
X022750Y015836D03*
X021800Y015236D03*
X021000Y014386D03*
X019750Y014436D03*
X019150Y014436D03*
X018750Y014436D03*
X017750Y014836D03*
X017250Y014836D03*
X016700Y014836D03*
X016250Y014836D03*
X015850Y014836D03*
X016100Y013886D03*
X017150Y015486D03*
X016650Y016336D03*
X016000Y016586D03*
X015750Y017336D03*
X016250Y017586D03*
X016700Y017586D03*
X017100Y017586D03*
X017500Y017586D03*
X018250Y017936D03*
X018250Y018336D03*
X018250Y018836D03*
X019500Y019236D03*
X020250Y018836D03*
X020250Y018336D03*
X020250Y017936D03*
X019750Y017336D03*
X019700Y016636D03*
X019300Y016186D03*
X019100Y016536D03*
X020500Y016586D03*
X020600Y016036D03*
X019100Y015536D03*
X018450Y013686D03*
X018500Y013036D03*
X018450Y012536D03*
X019750Y011736D03*
X022400Y010686D03*
X022400Y010386D03*
X022400Y010086D03*
X022400Y009786D03*
X022400Y009486D03*
X023150Y012036D03*
X024894Y014086D03*
X024400Y015636D03*
X023500Y016686D03*
X024250Y017936D03*
X024250Y018336D03*
X024250Y018836D03*
X023500Y019086D03*
X022625Y019211D03*
X022250Y018836D03*
X022250Y018336D03*
X022250Y017936D03*
X021407Y018178D03*
X021049Y019036D03*
X025100Y018936D03*
X026250Y018086D03*
X026250Y017586D03*
X025407Y017428D03*
X026375Y019461D03*
X016250Y018836D03*
X016250Y018336D03*
X014750Y018086D03*
X014750Y017086D03*
X014750Y016586D03*
X014750Y016086D03*
X014350Y015586D03*
X013850Y015836D03*
X013000Y016086D03*
X013000Y016586D03*
X013000Y017086D03*
X012750Y017771D03*
X012750Y018836D03*
X010750Y020586D03*
X009950Y018336D03*
X008250Y016836D03*
X007750Y017586D03*
X005500Y017836D03*
X003900Y018236D03*
X003750Y018636D03*
X005650Y020136D03*
X007250Y015586D03*
X010700Y015486D03*
X011750Y016336D03*
X019000Y006336D03*
X019000Y005836D03*
X019000Y005336D03*
D23*
X012000Y019336D02*
X012000Y021186D01*
X012150Y021336D01*
D24*
X001910Y022176D02*
X001910Y001496D01*
X027590Y001496D01*
X027590Y002402D01*
X027684Y002496D01*
X028590Y003402D01*
X028590Y009887D01*
X028581Y009865D01*
X028471Y009755D01*
X028328Y009696D01*
X028172Y009696D01*
X028029Y009755D01*
X027919Y009865D01*
X027860Y010008D01*
X027860Y010163D01*
X027891Y010239D01*
X027790Y010341D01*
X027547Y010341D01*
X027581Y010307D01*
X027640Y010163D01*
X027640Y010008D01*
X027581Y009865D01*
X027471Y009755D01*
X027328Y009696D01*
X027172Y009696D01*
X027029Y009755D01*
X026919Y009865D01*
X026888Y009941D01*
X025277Y009941D01*
X025241Y009853D01*
X025126Y009738D01*
X025015Y009692D01*
X025126Y009646D01*
X025241Y009530D01*
X025304Y009380D01*
X025304Y009217D01*
X025241Y009066D01*
X025126Y008951D01*
X025015Y008904D01*
X025126Y008858D01*
X025241Y008743D01*
X025304Y008592D01*
X025304Y008429D01*
X025241Y008279D01*
X025126Y008163D01*
X025081Y008144D01*
X025135Y008117D01*
X025193Y008074D01*
X025245Y008023D01*
X025287Y007964D01*
X025320Y007900D01*
X025342Y007831D01*
X025354Y007760D01*
X025354Y007753D01*
X024924Y007753D01*
X024924Y007693D01*
X025354Y007693D01*
X025354Y007687D01*
X025342Y007616D01*
X028590Y007616D01*
X028590Y007498D02*
X025295Y007498D01*
X025287Y007482D02*
X025320Y007547D01*
X025342Y007616D01*
X025287Y007482D02*
X025245Y007424D01*
X025193Y007373D01*
X025135Y007330D01*
X025070Y007297D01*
X025001Y007275D01*
X024930Y007263D01*
X024924Y007263D01*
X024924Y007693D01*
X024864Y007693D01*
X024864Y007263D01*
X024857Y007263D01*
X024786Y007275D01*
X024717Y007297D01*
X024653Y007330D01*
X024594Y007373D01*
X024543Y007424D01*
X024500Y007482D01*
X024473Y007536D01*
X024454Y007491D01*
X024339Y007376D01*
X024188Y007313D01*
X024025Y007313D01*
X023874Y007376D01*
X023759Y007491D01*
X023696Y007642D01*
X023696Y007805D01*
X023732Y007892D01*
X023305Y008320D01*
X023305Y010076D01*
X022540Y010841D01*
X020135Y010841D01*
X019135Y009841D01*
X018988Y009841D01*
X018983Y009830D01*
X018906Y009752D01*
X018805Y009711D01*
X018695Y009711D01*
X018594Y009752D01*
X018517Y009830D01*
X018475Y009931D01*
X018475Y010040D01*
X018517Y010141D01*
X018594Y010219D01*
X018695Y010261D01*
X018783Y010261D01*
X018775Y010281D01*
X018775Y010390D01*
X018817Y010491D01*
X018894Y010569D01*
X018995Y010611D01*
X019105Y010611D01*
X019115Y010606D01*
X019625Y011116D01*
X018985Y011116D01*
X017145Y009276D01*
X017145Y008873D01*
X017156Y008869D01*
X017233Y008791D01*
X017275Y008690D01*
X017275Y008581D01*
X017233Y008480D01*
X017156Y008402D01*
X017055Y008361D01*
X016945Y008361D01*
X016844Y008402D01*
X016767Y008480D01*
X016725Y008581D01*
X016725Y008690D01*
X016767Y008791D01*
X016844Y008869D01*
X016855Y008873D01*
X016855Y009396D01*
X016940Y009481D01*
X016940Y009481D01*
X018650Y011191D01*
X016560Y011191D01*
X015645Y010276D01*
X015645Y009823D01*
X015656Y009819D01*
X015733Y009741D01*
X015775Y009640D01*
X015775Y009531D01*
X015733Y009430D01*
X015656Y009352D01*
X015555Y009311D01*
X015445Y009311D01*
X015344Y009352D01*
X015267Y009430D01*
X015225Y009531D01*
X015225Y009640D01*
X015267Y009741D01*
X015344Y009819D01*
X015355Y009823D01*
X015355Y010396D01*
X015440Y010481D01*
X016325Y011366D01*
X011480Y011366D01*
X011080Y011766D01*
X010980Y011865D01*
X010980Y020427D01*
X010906Y020352D01*
X010805Y020311D01*
X010695Y020311D01*
X010685Y020315D01*
X010445Y020076D01*
X010445Y018746D01*
X010595Y018596D01*
X010595Y018026D01*
X010510Y017941D01*
X010445Y017876D01*
X010445Y015589D01*
X010467Y015641D01*
X010544Y015719D01*
X010645Y015761D01*
X010755Y015761D01*
X010856Y015719D01*
X010933Y015641D01*
X010975Y015540D01*
X010975Y015431D01*
X010933Y015330D01*
X010856Y015252D01*
X010755Y015211D01*
X010645Y015211D01*
X010544Y015252D01*
X010467Y015330D01*
X010445Y015383D01*
X010445Y008596D01*
X013910Y005131D01*
X023340Y005131D01*
X023690Y005481D01*
X024650Y005481D01*
X024605Y005526D01*
X024440Y005691D01*
X023988Y005691D01*
X023983Y005680D01*
X023906Y005602D01*
X023805Y005561D01*
X023695Y005561D01*
X023594Y005602D01*
X023517Y005680D01*
X023475Y005781D01*
X023475Y005890D01*
X023517Y005991D01*
X023594Y006069D01*
X023695Y006111D01*
X023805Y006111D01*
X023906Y006069D01*
X023983Y005991D01*
X023988Y005981D01*
X024090Y005981D01*
X024017Y006054D01*
X023975Y006155D01*
X023975Y006264D01*
X024017Y006365D01*
X024094Y006443D01*
X024195Y006485D01*
X024305Y006485D01*
X024406Y006443D01*
X024483Y006365D01*
X024525Y006264D01*
X024525Y006155D01*
X024483Y006054D01*
X024410Y005981D01*
X024560Y005981D01*
X024810Y005731D01*
X024996Y005731D01*
X024975Y005781D01*
X024975Y005890D01*
X025017Y005991D01*
X025094Y006069D01*
X025105Y006073D01*
X025105Y006348D01*
X025094Y006352D01*
X025017Y006430D01*
X024975Y006531D01*
X024975Y006640D01*
X025017Y006741D01*
X025094Y006819D01*
X025195Y006861D01*
X025305Y006861D01*
X025406Y006819D01*
X025483Y006741D01*
X025525Y006640D01*
X025525Y006531D01*
X025483Y006430D01*
X025406Y006352D01*
X025395Y006348D01*
X025395Y006073D01*
X025406Y006069D01*
X025450Y006024D01*
X025494Y006069D01*
X025595Y006111D01*
X025705Y006111D01*
X025806Y006069D01*
X025883Y005991D01*
X025925Y005890D01*
X025925Y005781D01*
X025883Y005680D01*
X025806Y005602D01*
X025705Y005561D01*
X025595Y005561D01*
X025585Y005565D01*
X025500Y005481D01*
X026310Y005481D01*
X026395Y005396D01*
X026395Y005396D01*
X026435Y005356D01*
X026445Y005361D01*
X026555Y005361D01*
X026656Y005319D01*
X026733Y005241D01*
X026775Y005140D01*
X026775Y005031D01*
X026733Y004930D01*
X026656Y004852D01*
X026555Y004811D01*
X026445Y004811D01*
X026435Y004815D01*
X026410Y004791D01*
X026290Y004791D01*
X026205Y004876D01*
X026205Y004996D01*
X026229Y005020D01*
X026225Y005031D01*
X026225Y005140D01*
X026229Y005151D01*
X026190Y005191D01*
X024450Y005191D01*
X024495Y005146D01*
X024495Y005026D01*
X024410Y004941D01*
X024238Y004941D01*
X024233Y004930D01*
X024156Y004852D01*
X024055Y004811D01*
X023945Y004811D01*
X023844Y004852D01*
X023783Y004914D01*
X023645Y004776D01*
X023560Y004691D01*
X017010Y004691D01*
X017040Y004618D01*
X017040Y004503D01*
X016996Y004396D01*
X016940Y004340D01*
X016940Y002754D01*
X017180Y002514D01*
X017180Y002157D01*
X016928Y001906D01*
X016572Y001906D01*
X016320Y002157D01*
X016320Y002514D01*
X016560Y002754D01*
X016560Y004340D01*
X016504Y004396D01*
X016460Y004503D01*
X016460Y004618D01*
X016490Y004691D01*
X013690Y004691D01*
X010090Y008291D01*
X010005Y008376D01*
X010005Y018046D01*
X010031Y018071D01*
X010005Y018061D01*
X009895Y018061D01*
X009794Y018102D01*
X009717Y018180D01*
X009712Y018191D01*
X008560Y018191D01*
X008395Y018026D01*
X008395Y017073D01*
X008406Y017069D01*
X008483Y016991D01*
X008525Y016890D01*
X008525Y016781D01*
X008483Y016680D01*
X008406Y016602D01*
X008378Y016591D01*
X008411Y016577D01*
X008492Y016497D01*
X008535Y016392D01*
X008535Y016279D01*
X008492Y016174D01*
X008411Y016094D01*
X008395Y016087D01*
X008395Y015896D01*
X009025Y015266D01*
X009616Y015266D01*
X009680Y015201D01*
X009680Y014470D01*
X009616Y014406D01*
X008884Y014406D01*
X008820Y014470D01*
X008820Y015061D01*
X008105Y015776D01*
X008105Y016087D01*
X008089Y016094D01*
X008008Y016174D01*
X007965Y016279D01*
X007965Y016392D01*
X008008Y016497D01*
X008089Y016577D01*
X008122Y016591D01*
X008094Y016602D01*
X008017Y016680D01*
X007975Y016781D01*
X007975Y016890D01*
X008017Y016991D01*
X008094Y017069D01*
X008105Y017073D01*
X008105Y018146D01*
X008355Y018396D01*
X008440Y018481D01*
X009712Y018481D01*
X009717Y018491D01*
X009794Y018569D01*
X009895Y018611D01*
X010005Y018611D01*
X010005Y018610D01*
X010005Y020906D01*
X009972Y020906D01*
X009720Y021157D01*
X009720Y021514D01*
X009972Y021766D01*
X010328Y021766D01*
X010580Y021514D01*
X010580Y021157D01*
X010328Y020906D01*
X010295Y020906D01*
X010295Y020336D01*
X010479Y020520D01*
X010475Y020531D01*
X010475Y020640D01*
X010517Y020741D01*
X010594Y020819D01*
X010695Y020861D01*
X010805Y020861D01*
X010906Y020819D01*
X010980Y020744D01*
X010980Y020906D01*
X010972Y020906D01*
X010720Y021157D01*
X010720Y021514D01*
X010972Y021766D01*
X011328Y021766D01*
X011580Y021514D01*
X011580Y021157D01*
X011328Y020906D01*
X011320Y020906D01*
X011320Y012006D01*
X011620Y011706D01*
X016752Y011706D01*
X016767Y011741D01*
X016844Y011819D01*
X016945Y011861D01*
X017055Y011861D01*
X017156Y011819D01*
X017233Y011741D01*
X017275Y011640D01*
X017275Y011531D01*
X017254Y011481D01*
X018565Y011481D01*
X018715Y011631D01*
X020271Y011631D01*
X020250Y011681D01*
X020250Y011790D01*
X020292Y011891D01*
X020369Y011969D01*
X020470Y012011D01*
X020580Y012011D01*
X020681Y011969D01*
X020758Y011891D01*
X020800Y011790D01*
X020800Y011681D01*
X020758Y011580D01*
X020681Y011502D01*
X020580Y011461D01*
X020545Y011426D01*
X020525Y011406D01*
X023781Y011406D01*
X023759Y011428D01*
X023696Y011579D01*
X023696Y011742D01*
X023759Y011893D01*
X023874Y012008D01*
X023946Y012038D01*
X023761Y012038D01*
X023696Y012102D01*
X023696Y012793D01*
X023761Y012858D01*
X024452Y012858D01*
X024516Y012793D01*
X024516Y012608D01*
X024546Y012680D01*
X024661Y012795D01*
X024812Y012858D01*
X024975Y012858D01*
X025126Y012795D01*
X025241Y012680D01*
X025304Y012529D01*
X025304Y012366D01*
X025241Y012216D01*
X025126Y012100D01*
X025015Y012054D01*
X025126Y012008D01*
X025241Y011893D01*
X025304Y011742D01*
X025304Y011579D01*
X025255Y011461D01*
X026375Y011461D01*
X026375Y011494D01*
X026627Y011746D01*
X026983Y011746D01*
X027235Y011494D01*
X027235Y011138D01*
X026983Y010886D01*
X026627Y010886D01*
X026375Y011138D01*
X026375Y011171D01*
X025176Y011171D01*
X025241Y011105D01*
X025304Y010955D01*
X025304Y010791D01*
X025241Y010641D01*
X025231Y010631D01*
X027910Y010631D01*
X028097Y010444D01*
X028172Y010476D01*
X028328Y010476D01*
X028471Y010416D01*
X028581Y010307D01*
X028590Y010284D01*
X028590Y016169D01*
X027684Y017076D01*
X027684Y017076D01*
X027590Y017169D01*
X027590Y021669D01*
X027084Y022176D01*
X001910Y022176D01*
X001910Y022073D02*
X007466Y022073D01*
X007593Y022126D02*
X007303Y022005D01*
X007080Y021783D01*
X006960Y021493D01*
X006960Y021178D01*
X007080Y020888D01*
X007303Y020666D01*
X007593Y020546D01*
X007907Y020546D01*
X008197Y020666D01*
X008420Y020888D01*
X008540Y021178D01*
X008540Y021493D01*
X008420Y021783D01*
X008197Y022005D01*
X007907Y022126D01*
X007593Y022126D01*
X007252Y021955D02*
X001910Y021955D01*
X001910Y021836D02*
X007133Y021836D01*
X007053Y021718D02*
X001910Y021718D01*
X001910Y021599D02*
X007004Y021599D01*
X006960Y021481D02*
X001910Y021481D01*
X001910Y021362D02*
X006960Y021362D01*
X006960Y021244D02*
X001910Y021244D01*
X001910Y021125D02*
X006982Y021125D01*
X007031Y021007D02*
X001910Y021007D01*
X001910Y020888D02*
X007080Y020888D01*
X007199Y020770D02*
X001910Y020770D01*
X001910Y020651D02*
X007338Y020651D01*
X008162Y020651D02*
X010005Y020651D01*
X010005Y020533D02*
X001910Y020533D01*
X001910Y020414D02*
X010005Y020414D01*
X010005Y020296D02*
X005879Y020296D01*
X005883Y020291D02*
X005806Y020369D01*
X005705Y020411D01*
X005595Y020411D01*
X005494Y020369D01*
X005417Y020291D01*
X005383Y020209D01*
X004875Y019701D01*
X004449Y019701D01*
X004384Y019637D01*
X004384Y019034D01*
X004449Y018970D01*
X005051Y018970D01*
X005116Y019034D01*
X005116Y019461D01*
X005539Y019884D01*
X005595Y019861D01*
X005705Y019861D01*
X005806Y019902D01*
X005883Y019980D01*
X005925Y020081D01*
X005925Y020190D01*
X005883Y020291D01*
X005925Y020177D02*
X010005Y020177D01*
X010005Y020059D02*
X005916Y020059D01*
X005843Y019940D02*
X010005Y019940D01*
X010005Y019822D02*
X005476Y019822D01*
X005358Y019703D02*
X010005Y019703D01*
X010005Y019585D02*
X005239Y019585D01*
X005121Y019466D02*
X010005Y019466D01*
X010005Y019348D02*
X005116Y019348D01*
X005116Y019229D02*
X010005Y019229D01*
X010005Y019111D02*
X005116Y019111D01*
X005074Y018992D02*
X010005Y018992D01*
X010005Y018874D02*
X003894Y018874D01*
X003906Y018869D02*
X003805Y018911D01*
X003695Y018911D01*
X003594Y018869D01*
X003517Y018791D01*
X003475Y018690D01*
X003475Y018581D01*
X003517Y018480D01*
X003594Y018402D01*
X003660Y018375D01*
X003625Y018290D01*
X003625Y018181D01*
X003651Y018119D01*
X003519Y018065D01*
X003405Y017950D01*
X003343Y017800D01*
X003343Y017638D01*
X003405Y017489D01*
X003519Y017374D01*
X003669Y017312D01*
X003831Y017312D01*
X003981Y017374D01*
X004095Y017489D01*
X004157Y017638D01*
X004157Y017773D01*
X004384Y017546D01*
X004384Y017034D01*
X004449Y016970D01*
X005051Y016970D01*
X005116Y017034D01*
X005116Y017637D01*
X005051Y017701D01*
X004639Y017701D01*
X004171Y018170D01*
X004175Y018181D01*
X004175Y018290D01*
X004133Y018391D01*
X004056Y018469D01*
X004003Y018491D01*
X004384Y018491D01*
X004384Y018034D01*
X004449Y017970D01*
X005051Y017970D01*
X005106Y018024D01*
X005229Y017901D01*
X005225Y017890D01*
X005225Y017781D01*
X005267Y017680D01*
X005344Y017602D01*
X005445Y017561D01*
X005555Y017561D01*
X005656Y017602D01*
X005733Y017680D01*
X005775Y017781D01*
X005775Y017890D01*
X005733Y017991D01*
X005656Y018069D01*
X005555Y018111D01*
X005445Y018111D01*
X005435Y018106D01*
X005116Y018425D01*
X005116Y018637D01*
X005051Y018701D01*
X004839Y018701D01*
X004760Y018781D01*
X003988Y018781D01*
X003983Y018791D01*
X003906Y018869D01*
X003831Y019045D02*
X003669Y019045D01*
X003519Y019107D01*
X003405Y019221D01*
X003343Y019371D01*
X003343Y019533D01*
X003405Y019682D01*
X003519Y019797D01*
X003669Y019859D01*
X003831Y019859D01*
X003981Y019797D01*
X004095Y019682D01*
X004157Y019533D01*
X004157Y019371D01*
X004095Y019221D01*
X003981Y019107D01*
X003831Y019045D01*
X003985Y019111D02*
X004384Y019111D01*
X004384Y019229D02*
X004099Y019229D01*
X004148Y019348D02*
X004384Y019348D01*
X004384Y019466D02*
X004157Y019466D01*
X004136Y019585D02*
X004384Y019585D01*
X004074Y019703D02*
X004877Y019703D01*
X004996Y019822D02*
X003921Y019822D01*
X003579Y019822D02*
X001910Y019822D01*
X001910Y019940D02*
X005114Y019940D01*
X005233Y020059D02*
X001910Y020059D01*
X001910Y020177D02*
X005351Y020177D01*
X005421Y020296D02*
X001910Y020296D01*
X001910Y019703D02*
X003426Y019703D01*
X003364Y019585D02*
X001910Y019585D01*
X001910Y019466D02*
X003343Y019466D01*
X003352Y019348D02*
X001910Y019348D01*
X001910Y019229D02*
X003401Y019229D01*
X003515Y019111D02*
X001910Y019111D01*
X001910Y018992D02*
X004426Y018992D01*
X004786Y018755D02*
X010005Y018755D01*
X010005Y018637D02*
X005116Y018637D01*
X005116Y018518D02*
X009744Y018518D01*
X009734Y018163D02*
X008532Y018163D01*
X008414Y018044D02*
X010005Y018044D01*
X010005Y017926D02*
X008395Y017926D01*
X008395Y017807D02*
X008568Y017807D01*
X008589Y017827D02*
X008508Y017747D01*
X008465Y017642D01*
X008465Y017529D01*
X008508Y017424D01*
X008589Y017344D01*
X008693Y017301D01*
X008807Y017301D01*
X008911Y017344D01*
X008992Y017424D01*
X009035Y017529D01*
X009035Y017642D01*
X008992Y017747D01*
X008911Y017827D01*
X008807Y017871D01*
X008693Y017871D01*
X008589Y017827D01*
X008484Y017689D02*
X008395Y017689D01*
X008395Y017570D02*
X008465Y017570D01*
X008497Y017452D02*
X008395Y017452D01*
X008395Y017333D02*
X008615Y017333D01*
X008395Y017215D02*
X010005Y017215D01*
X010005Y017333D02*
X008885Y017333D01*
X009003Y017452D02*
X010005Y017452D01*
X010005Y017570D02*
X009035Y017570D01*
X009016Y017689D02*
X010005Y017689D01*
X010005Y017807D02*
X008932Y017807D01*
X008359Y018400D02*
X005141Y018400D01*
X005260Y018281D02*
X008240Y018281D01*
X008122Y018163D02*
X005378Y018163D01*
X005205Y017926D02*
X004415Y017926D01*
X004384Y018044D02*
X004297Y018044D01*
X004384Y018163D02*
X004178Y018163D01*
X004175Y018281D02*
X004384Y018281D01*
X004384Y018400D02*
X004125Y018400D01*
X003625Y018281D02*
X001910Y018281D01*
X001910Y018163D02*
X003633Y018163D01*
X003499Y018044D02*
X001910Y018044D01*
X001910Y017926D02*
X003395Y017926D01*
X003346Y017807D02*
X001910Y017807D01*
X001910Y017689D02*
X003343Y017689D01*
X003371Y017570D02*
X001910Y017570D01*
X001910Y017452D02*
X003442Y017452D01*
X003619Y017333D02*
X001910Y017333D01*
X001910Y017215D02*
X004384Y017215D01*
X004384Y017333D02*
X003881Y017333D01*
X004058Y017452D02*
X004384Y017452D01*
X004360Y017570D02*
X004129Y017570D01*
X004157Y017689D02*
X004242Y017689D01*
X004534Y017807D02*
X005225Y017807D01*
X005263Y017689D02*
X005064Y017689D01*
X005116Y017570D02*
X005422Y017570D01*
X005578Y017570D02*
X007475Y017570D01*
X007475Y017531D02*
X007475Y017640D01*
X007517Y017741D01*
X007594Y017819D01*
X007695Y017861D01*
X007805Y017861D01*
X007906Y017819D01*
X007983Y017741D01*
X008025Y017640D01*
X008025Y017531D01*
X007983Y017430D01*
X007920Y017367D01*
X007920Y017265D01*
X007420Y016765D01*
X007420Y015804D01*
X007483Y015741D01*
X007525Y015640D01*
X007525Y015531D01*
X007483Y015430D01*
X007406Y015352D01*
X007305Y015311D01*
X007195Y015311D01*
X007094Y015352D01*
X007017Y015430D01*
X006975Y015531D01*
X006975Y015640D01*
X007017Y015741D01*
X007080Y015804D01*
X007080Y016906D01*
X007180Y017006D01*
X007560Y017386D01*
X007517Y017430D01*
X007475Y017531D01*
X007508Y017452D02*
X005116Y017452D01*
X005116Y017333D02*
X007507Y017333D01*
X007389Y017215D02*
X005116Y017215D01*
X005116Y017096D02*
X007270Y017096D01*
X007152Y016978D02*
X005059Y016978D01*
X004441Y016978D02*
X001910Y016978D01*
X001910Y017096D02*
X004384Y017096D01*
X005737Y017689D02*
X007495Y017689D01*
X007583Y017807D02*
X005775Y017807D01*
X005760Y017926D02*
X008105Y017926D01*
X008105Y018044D02*
X005680Y018044D01*
X004750Y019336D02*
X005550Y020136D01*
X005650Y020136D01*
X003606Y018874D02*
X001910Y018874D01*
X001910Y018755D02*
X003502Y018755D01*
X003475Y018637D02*
X001910Y018637D01*
X001910Y018518D02*
X003501Y018518D01*
X003601Y018400D02*
X001910Y018400D01*
X001910Y016859D02*
X007080Y016859D01*
X007080Y016741D02*
X001910Y016741D01*
X001910Y016622D02*
X007080Y016622D01*
X007080Y016504D02*
X001910Y016504D01*
X001910Y016385D02*
X007080Y016385D01*
X007080Y016267D02*
X001910Y016267D01*
X001910Y016148D02*
X007080Y016148D01*
X007080Y016030D02*
X001910Y016030D01*
X001910Y015911D02*
X007080Y015911D01*
X007068Y015793D02*
X001910Y015793D01*
X001910Y015674D02*
X006989Y015674D01*
X006975Y015556D02*
X001910Y015556D01*
X001910Y015437D02*
X007014Y015437D01*
X007176Y015319D02*
X001910Y015319D01*
X001910Y015200D02*
X008006Y015200D01*
X008072Y015266D02*
X007820Y015014D01*
X007820Y014657D01*
X008072Y014406D01*
X008428Y014406D01*
X008680Y014657D01*
X008680Y015014D01*
X008428Y015266D01*
X008072Y015266D01*
X007888Y015082D02*
X001910Y015082D01*
X001910Y014963D02*
X007820Y014963D01*
X007820Y014845D02*
X001910Y014845D01*
X001910Y014726D02*
X007820Y014726D01*
X007870Y014608D02*
X001910Y014608D01*
X001910Y014489D02*
X007988Y014489D01*
X008512Y014489D02*
X008820Y014489D01*
X008820Y014608D02*
X008630Y014608D01*
X008680Y014726D02*
X008820Y014726D01*
X008820Y014845D02*
X008680Y014845D01*
X008680Y014963D02*
X008820Y014963D01*
X008799Y015082D02*
X008612Y015082D01*
X008680Y015200D02*
X008494Y015200D01*
X008562Y015319D02*
X007324Y015319D01*
X007486Y015437D02*
X008443Y015437D01*
X008325Y015556D02*
X007525Y015556D01*
X007511Y015674D02*
X008206Y015674D01*
X008105Y015793D02*
X007432Y015793D01*
X007420Y015911D02*
X008105Y015911D01*
X008105Y016030D02*
X007420Y016030D01*
X007420Y016148D02*
X008034Y016148D01*
X007970Y016267D02*
X007420Y016267D01*
X007420Y016385D02*
X007965Y016385D01*
X008015Y016504D02*
X007420Y016504D01*
X007420Y016622D02*
X008075Y016622D01*
X007992Y016741D02*
X007420Y016741D01*
X007514Y016859D02*
X007975Y016859D01*
X008011Y016978D02*
X007632Y016978D01*
X007751Y017096D02*
X008105Y017096D01*
X008105Y017215D02*
X007869Y017215D01*
X007920Y017333D02*
X008105Y017333D01*
X008105Y017452D02*
X007992Y017452D01*
X008025Y017570D02*
X008105Y017570D01*
X008105Y017689D02*
X008005Y017689D01*
X007917Y017807D02*
X008105Y017807D01*
X007750Y017586D02*
X007750Y017336D01*
X007250Y016836D01*
X007250Y015586D01*
X008395Y015911D02*
X010005Y015911D01*
X010005Y015793D02*
X008498Y015793D01*
X008617Y015674D02*
X010005Y015674D01*
X010005Y015556D02*
X008735Y015556D01*
X008854Y015437D02*
X010005Y015437D01*
X010005Y015319D02*
X008972Y015319D01*
X009680Y015200D02*
X010005Y015200D01*
X010005Y015082D02*
X009680Y015082D01*
X009680Y014963D02*
X010005Y014963D01*
X010005Y014845D02*
X009680Y014845D01*
X009680Y014726D02*
X010005Y014726D01*
X010005Y014608D02*
X009680Y014608D01*
X009680Y014489D02*
X010005Y014489D01*
X010005Y014371D02*
X001910Y014371D01*
X001910Y014252D02*
X010005Y014252D01*
X010005Y014134D02*
X001910Y014134D01*
X001910Y014015D02*
X010005Y014015D01*
X010005Y013897D02*
X001910Y013897D01*
X001910Y013778D02*
X010005Y013778D01*
X010005Y013660D02*
X001910Y013660D01*
X001910Y013541D02*
X010005Y013541D01*
X010005Y013423D02*
X001910Y013423D01*
X001910Y013304D02*
X010005Y013304D01*
X010005Y013186D02*
X001910Y013186D01*
X001910Y013067D02*
X010005Y013067D01*
X010005Y012949D02*
X001910Y012949D01*
X001910Y012830D02*
X010005Y012830D01*
X010005Y012712D02*
X001910Y012712D01*
X001910Y012593D02*
X010005Y012593D01*
X010005Y012475D02*
X001910Y012475D01*
X001910Y012356D02*
X010005Y012356D01*
X010005Y012238D02*
X001910Y012238D01*
X001910Y012119D02*
X010005Y012119D01*
X010005Y012001D02*
X001910Y012001D01*
X001910Y011882D02*
X010005Y011882D01*
X010005Y011764D02*
X001910Y011764D01*
X001910Y011645D02*
X010005Y011645D01*
X010005Y011527D02*
X001910Y011527D01*
X001910Y011408D02*
X010005Y011408D01*
X010005Y011290D02*
X001910Y011290D01*
X001910Y011171D02*
X003418Y011171D01*
X003449Y011201D02*
X003384Y011137D01*
X003384Y010534D01*
X003449Y010470D01*
X004051Y010470D01*
X004116Y010534D01*
X004116Y010691D01*
X004126Y010691D01*
X004132Y010674D01*
X004213Y010594D01*
X004317Y010551D01*
X004431Y010551D01*
X004535Y010594D01*
X004616Y010674D01*
X004659Y010779D01*
X004659Y010892D01*
X004616Y010997D01*
X004535Y011077D01*
X004431Y011121D01*
X004317Y011121D01*
X004213Y011077D01*
X004132Y010997D01*
X004126Y010981D01*
X004116Y010981D01*
X004116Y011137D01*
X004051Y011201D01*
X003449Y011201D01*
X003384Y011053D02*
X001910Y011053D01*
X001910Y010934D02*
X003384Y010934D01*
X003384Y010816D02*
X001910Y010816D01*
X001910Y010697D02*
X003384Y010697D01*
X003384Y010579D02*
X001910Y010579D01*
X001910Y010460D02*
X010005Y010460D01*
X010005Y010342D02*
X001910Y010342D01*
X001910Y010223D02*
X010005Y010223D01*
X010005Y010105D02*
X001910Y010105D01*
X001910Y009986D02*
X010005Y009986D01*
X010005Y009868D02*
X001910Y009868D01*
X001910Y009749D02*
X010005Y009749D01*
X010005Y009631D02*
X001910Y009631D01*
X001910Y009512D02*
X010005Y009512D01*
X010005Y009394D02*
X001910Y009394D01*
X001910Y009275D02*
X010005Y009275D01*
X010005Y009157D02*
X001910Y009157D01*
X001910Y009038D02*
X010005Y009038D01*
X010005Y008920D02*
X001910Y008920D01*
X001910Y008801D02*
X010005Y008801D01*
X010005Y008683D02*
X001910Y008683D01*
X001910Y008564D02*
X010005Y008564D01*
X010005Y008446D02*
X001910Y008446D01*
X001910Y008327D02*
X010053Y008327D01*
X010172Y008209D02*
X001910Y008209D01*
X001910Y008090D02*
X010290Y008090D01*
X010409Y007972D02*
X001910Y007972D01*
X001910Y007853D02*
X010527Y007853D01*
X010646Y007735D02*
X001910Y007735D01*
X001910Y007616D02*
X010764Y007616D01*
X010883Y007498D02*
X001910Y007498D01*
X001910Y007379D02*
X007846Y007379D01*
X007813Y007365D02*
X007720Y007273D01*
X007670Y007151D01*
X007670Y007020D01*
X007720Y006899D01*
X007813Y006806D01*
X007934Y006756D01*
X008066Y006756D01*
X008187Y006806D01*
X008237Y006856D01*
X010655Y006856D01*
X010670Y006840D01*
X010670Y006770D01*
X010720Y006649D01*
X010813Y006556D01*
X010934Y006506D01*
X011066Y006506D01*
X011187Y006556D01*
X011280Y006649D01*
X011330Y006770D01*
X011330Y006901D01*
X011280Y007023D01*
X011187Y007115D01*
X011066Y007166D01*
X010995Y007166D01*
X010845Y007316D01*
X008237Y007316D01*
X008187Y007365D01*
X008066Y007416D01*
X007934Y007416D01*
X007813Y007365D01*
X007715Y007261D02*
X001910Y007261D01*
X001910Y007142D02*
X007670Y007142D01*
X007670Y007024D02*
X001910Y007024D01*
X001910Y006905D02*
X007718Y006905D01*
X007859Y006787D02*
X001910Y006787D01*
X001910Y006668D02*
X010712Y006668D01*
X010670Y006787D02*
X008141Y006787D01*
X008154Y007379D02*
X011001Y007379D01*
X010900Y007261D02*
X011120Y007261D01*
X011122Y007142D02*
X011238Y007142D01*
X011279Y007024D02*
X011357Y007024D01*
X011328Y006905D02*
X011475Y006905D01*
X011594Y006787D02*
X011330Y006787D01*
X011288Y006668D02*
X011712Y006668D01*
X011831Y006550D02*
X011172Y006550D01*
X010828Y006550D02*
X001910Y006550D01*
X001910Y006431D02*
X011949Y006431D01*
X012068Y006313D02*
X001910Y006313D01*
X001910Y006194D02*
X012186Y006194D01*
X012305Y006076D02*
X009977Y006076D01*
X009987Y006066D02*
X009937Y006115D01*
X009816Y006166D01*
X009684Y006166D01*
X009563Y006115D01*
X009470Y006023D01*
X009420Y005901D01*
X009420Y005770D01*
X009470Y005649D01*
X009563Y005556D01*
X009684Y005506D01*
X009816Y005506D01*
X009937Y005556D01*
X009987Y005606D01*
X010345Y005606D01*
X010480Y005740D01*
X010480Y005931D01*
X010345Y006066D01*
X009987Y006066D01*
X009523Y006076D02*
X001910Y006076D01*
X001910Y005957D02*
X009443Y005957D01*
X009420Y005839D02*
X001910Y005839D01*
X001910Y005720D02*
X009441Y005720D01*
X009517Y005602D02*
X001910Y005602D01*
X001910Y005483D02*
X012897Y005483D01*
X012779Y005602D02*
X009983Y005602D01*
X010460Y005720D02*
X012660Y005720D01*
X012542Y005839D02*
X010480Y005839D01*
X010454Y005957D02*
X012423Y005957D01*
X012728Y006313D02*
X015475Y006313D01*
X015475Y006281D02*
X015475Y006390D01*
X015517Y006491D01*
X015594Y006569D01*
X015695Y006611D01*
X015805Y006611D01*
X015906Y006569D01*
X015983Y006491D01*
X016025Y006390D01*
X016025Y006281D01*
X015983Y006180D01*
X015906Y006102D01*
X015805Y006061D01*
X015695Y006061D01*
X015594Y006102D01*
X015517Y006180D01*
X015475Y006281D01*
X015511Y006194D02*
X012847Y006194D01*
X012965Y006076D02*
X015659Y006076D01*
X015841Y006076D02*
X016861Y006076D01*
X016844Y006069D02*
X016767Y005991D01*
X016725Y005890D01*
X016725Y005781D01*
X016767Y005680D01*
X016844Y005602D01*
X016945Y005561D01*
X017055Y005561D01*
X017156Y005602D01*
X017233Y005680D01*
X017275Y005781D01*
X017275Y005890D01*
X017233Y005991D01*
X017156Y006069D01*
X017055Y006111D01*
X016945Y006111D01*
X016844Y006069D01*
X016753Y005957D02*
X013084Y005957D01*
X013202Y005839D02*
X016725Y005839D01*
X016750Y005720D02*
X013321Y005720D01*
X013439Y005602D02*
X016846Y005602D01*
X017154Y005602D02*
X018846Y005602D01*
X018844Y005602D02*
X018945Y005561D01*
X019055Y005561D01*
X019156Y005602D01*
X019233Y005680D01*
X019275Y005781D01*
X019275Y005890D01*
X019233Y005991D01*
X019156Y006069D01*
X019055Y006111D01*
X018945Y006111D01*
X018844Y006069D01*
X018767Y005991D01*
X018725Y005890D01*
X018725Y005781D01*
X018767Y005680D01*
X018844Y005602D01*
X018750Y005720D02*
X017250Y005720D01*
X017275Y005839D02*
X018725Y005839D01*
X018753Y005957D02*
X017247Y005957D01*
X017139Y006076D02*
X018861Y006076D01*
X019139Y006076D02*
X020861Y006076D01*
X020844Y006069D02*
X020767Y005991D01*
X020725Y005890D01*
X020725Y005781D01*
X020767Y005680D01*
X020844Y005602D01*
X020945Y005561D01*
X021055Y005561D01*
X021156Y005602D01*
X021233Y005680D01*
X021275Y005781D01*
X021275Y005890D01*
X021233Y005991D01*
X021156Y006069D01*
X021055Y006111D01*
X020945Y006111D01*
X020844Y006069D01*
X020753Y005957D02*
X019247Y005957D01*
X019275Y005839D02*
X020725Y005839D01*
X020750Y005720D02*
X019250Y005720D01*
X019154Y005602D02*
X020846Y005602D01*
X021154Y005602D02*
X022596Y005602D01*
X022594Y005602D02*
X022695Y005561D01*
X022805Y005561D01*
X022906Y005602D01*
X022983Y005680D01*
X023025Y005781D01*
X023025Y005890D01*
X022983Y005991D01*
X022906Y006069D01*
X022805Y006111D01*
X022695Y006111D01*
X022594Y006069D01*
X022517Y005991D01*
X022475Y005890D01*
X022475Y005781D01*
X022517Y005680D01*
X022594Y005602D01*
X022500Y005720D02*
X021250Y005720D01*
X021275Y005839D02*
X022475Y005839D01*
X022503Y005957D02*
X021247Y005957D01*
X021139Y006076D02*
X022611Y006076D01*
X022889Y006076D02*
X023611Y006076D01*
X023503Y005957D02*
X022997Y005957D01*
X023025Y005839D02*
X023475Y005839D01*
X023500Y005720D02*
X023000Y005720D01*
X022904Y005602D02*
X023596Y005602D01*
X023574Y005365D02*
X013676Y005365D01*
X013558Y005483D02*
X024647Y005483D01*
X024529Y005602D02*
X023904Y005602D01*
X023455Y005246D02*
X013795Y005246D01*
X013371Y005009D02*
X001910Y005009D01*
X001910Y004891D02*
X013490Y004891D01*
X013608Y004772D02*
X004530Y004772D01*
X004532Y004772D02*
X004342Y004850D01*
X004138Y004850D01*
X003949Y004772D01*
X003804Y004627D01*
X003726Y004438D01*
X003726Y004233D01*
X003804Y004044D01*
X003949Y003900D01*
X004138Y003821D01*
X004342Y003821D01*
X004532Y003900D01*
X004676Y004044D01*
X004754Y004233D01*
X004754Y004438D01*
X004676Y004627D01*
X004532Y004772D01*
X004650Y004654D02*
X016475Y004654D01*
X016460Y004535D02*
X004714Y004535D01*
X004754Y004417D02*
X016496Y004417D01*
X016560Y004298D02*
X004754Y004298D01*
X004732Y004180D02*
X016560Y004180D01*
X016560Y004061D02*
X004683Y004061D01*
X004575Y003943D02*
X010240Y003943D01*
X010259Y003962D02*
X010164Y003867D01*
X010113Y003743D01*
X010113Y003609D01*
X010164Y003485D01*
X010259Y003390D01*
X010383Y003339D01*
X010517Y003339D01*
X010641Y003390D01*
X010736Y003485D01*
X010787Y003609D01*
X010787Y003743D01*
X010736Y003867D01*
X010641Y003962D01*
X010517Y004013D01*
X010383Y004013D01*
X010259Y003962D01*
X010146Y003824D02*
X004349Y003824D01*
X004131Y003824D02*
X001910Y003824D01*
X001910Y003706D02*
X010113Y003706D01*
X010122Y003587D02*
X001910Y003587D01*
X001910Y003469D02*
X010181Y003469D01*
X010356Y003350D02*
X001910Y003350D01*
X001910Y003232D02*
X016560Y003232D01*
X016560Y003350D02*
X010544Y003350D01*
X010719Y003469D02*
X016560Y003469D01*
X016560Y003587D02*
X010778Y003587D01*
X010787Y003706D02*
X016560Y003706D01*
X016560Y003824D02*
X010754Y003824D01*
X010660Y003943D02*
X016560Y003943D01*
X016940Y003943D02*
X027058Y003943D01*
X027080Y003888D02*
X027303Y003666D01*
X027593Y003546D01*
X027907Y003546D01*
X028197Y003666D01*
X028420Y003888D01*
X028540Y004178D01*
X028540Y004493D01*
X028420Y004783D01*
X028197Y005005D01*
X027907Y005126D01*
X027593Y005126D01*
X027303Y005005D01*
X027080Y004783D01*
X026960Y004493D01*
X026960Y004178D01*
X027080Y003888D01*
X027144Y003824D02*
X016940Y003824D01*
X016940Y003706D02*
X027263Y003706D01*
X027493Y003587D02*
X016940Y003587D01*
X016940Y003469D02*
X028590Y003469D01*
X028590Y003587D02*
X028007Y003587D01*
X028237Y003706D02*
X028590Y003706D01*
X028590Y003824D02*
X028356Y003824D01*
X028442Y003943D02*
X028590Y003943D01*
X028590Y004061D02*
X028491Y004061D01*
X028540Y004180D02*
X028590Y004180D01*
X028590Y004298D02*
X028540Y004298D01*
X028540Y004417D02*
X028590Y004417D01*
X028590Y004535D02*
X028522Y004535D01*
X028473Y004654D02*
X028590Y004654D01*
X028590Y004772D02*
X028424Y004772D01*
X028312Y004891D02*
X028590Y004891D01*
X028590Y005009D02*
X028188Y005009D01*
X028590Y005128D02*
X026775Y005128D01*
X026766Y005009D02*
X027312Y005009D01*
X027188Y004891D02*
X026694Y004891D01*
X027076Y004772D02*
X023642Y004772D01*
X023760Y004891D02*
X023806Y004891D01*
X024194Y004891D02*
X026205Y004891D01*
X026218Y005009D02*
X024479Y005009D01*
X024495Y005128D02*
X026225Y005128D01*
X026426Y005365D02*
X028590Y005365D01*
X028590Y005483D02*
X025503Y005483D01*
X025804Y005602D02*
X028590Y005602D01*
X028590Y005720D02*
X025900Y005720D01*
X025925Y005839D02*
X028590Y005839D01*
X028590Y005957D02*
X025897Y005957D01*
X025789Y006076D02*
X028590Y006076D01*
X028590Y006194D02*
X025395Y006194D01*
X025395Y006076D02*
X025511Y006076D01*
X025395Y006313D02*
X028590Y006313D01*
X028590Y006431D02*
X025484Y006431D01*
X025525Y006550D02*
X028590Y006550D01*
X028590Y006668D02*
X025513Y006668D01*
X025438Y006787D02*
X028590Y006787D01*
X028590Y006905D02*
X022405Y006905D01*
X022425Y006912D02*
X022490Y006945D01*
X022548Y006987D01*
X022599Y007038D01*
X022641Y007096D01*
X022674Y007160D01*
X022696Y007229D01*
X022707Y007300D01*
X022707Y007307D01*
X022279Y007307D01*
X022279Y007364D01*
X022707Y007364D01*
X022707Y007372D01*
X022696Y007443D01*
X022674Y007511D01*
X022641Y007575D01*
X022599Y007633D01*
X022548Y007684D01*
X022490Y007727D01*
X022425Y007759D01*
X022357Y007781D01*
X022286Y007793D01*
X022279Y007793D01*
X022279Y007364D01*
X022221Y007364D01*
X022221Y007307D01*
X021793Y007307D01*
X021793Y007300D01*
X021804Y007229D01*
X021826Y007160D01*
X021859Y007096D01*
X021901Y007038D01*
X021952Y006987D01*
X022010Y006945D01*
X022075Y006912D01*
X022143Y006890D01*
X022214Y006878D01*
X022221Y006878D01*
X022221Y007307D01*
X022279Y007307D01*
X022279Y006878D01*
X022286Y006878D01*
X022357Y006890D01*
X022425Y006912D01*
X022279Y006905D02*
X022221Y006905D01*
X022221Y007024D02*
X022279Y007024D01*
X022279Y007142D02*
X022221Y007142D01*
X022221Y007261D02*
X022279Y007261D01*
X022279Y007379D02*
X022221Y007379D01*
X022221Y007364D02*
X022221Y007793D01*
X022214Y007793D01*
X022157Y007784D01*
X022157Y007887D01*
X022214Y007878D01*
X022221Y007878D01*
X022221Y008307D01*
X021793Y008307D01*
X021793Y008300D01*
X021802Y008243D01*
X021698Y008243D01*
X021707Y008300D01*
X021707Y008307D01*
X021279Y008307D01*
X021279Y008364D01*
X021707Y008364D01*
X021707Y008372D01*
X021696Y008443D01*
X021674Y008511D01*
X021641Y008575D01*
X021599Y008633D01*
X021548Y008684D01*
X021490Y008727D01*
X021425Y008759D01*
X021357Y008781D01*
X021286Y008793D01*
X021279Y008793D01*
X021279Y008364D01*
X021221Y008364D01*
X021221Y008307D01*
X020793Y008307D01*
X020793Y008300D01*
X020804Y008229D01*
X020826Y008160D01*
X020859Y008096D01*
X020901Y008038D01*
X020952Y007987D01*
X021010Y007945D01*
X021075Y007912D01*
X021143Y007890D01*
X021214Y007878D01*
X021221Y007878D01*
X021221Y008307D01*
X021279Y008307D01*
X021279Y007878D01*
X021286Y007878D01*
X021343Y007887D01*
X021343Y007784D01*
X021286Y007793D01*
X021279Y007793D01*
X021279Y007364D01*
X021707Y007364D01*
X021707Y007372D01*
X021698Y007428D01*
X021802Y007428D01*
X021793Y007372D01*
X021793Y007364D01*
X022221Y007364D01*
X022221Y007498D02*
X022279Y007498D01*
X022279Y007616D02*
X022221Y007616D01*
X022221Y007735D02*
X022279Y007735D01*
X022279Y007878D02*
X022286Y007878D01*
X022357Y007890D01*
X022425Y007912D01*
X022490Y007945D01*
X022548Y007987D01*
X022599Y008038D01*
X022641Y008096D01*
X022674Y008160D01*
X022696Y008229D01*
X022707Y008300D01*
X022707Y008307D01*
X022279Y008307D01*
X022279Y008364D01*
X022707Y008364D01*
X022707Y008372D01*
X022696Y008443D01*
X022674Y008511D01*
X022641Y008575D01*
X022599Y008633D01*
X022548Y008684D01*
X022490Y008727D01*
X022425Y008759D01*
X022357Y008781D01*
X022286Y008793D01*
X022279Y008793D01*
X022279Y008364D01*
X022221Y008364D01*
X022221Y008307D01*
X022279Y008307D01*
X022279Y007878D01*
X022279Y007972D02*
X022221Y007972D01*
X022221Y008090D02*
X022279Y008090D01*
X022279Y008209D02*
X022221Y008209D01*
X022221Y008327D02*
X021279Y008327D01*
X021221Y008327D02*
X016153Y008327D01*
X016133Y008280D02*
X016175Y008381D01*
X016175Y008490D01*
X016133Y008591D01*
X016056Y008669D01*
X015955Y008711D01*
X015845Y008711D01*
X015744Y008669D01*
X015667Y008591D01*
X015625Y008490D01*
X015625Y008381D01*
X015667Y008280D01*
X015744Y008202D01*
X015845Y008161D01*
X015955Y008161D01*
X016056Y008202D01*
X016133Y008280D01*
X016062Y008209D02*
X020811Y008209D01*
X020863Y008090D02*
X010951Y008090D01*
X011069Y007972D02*
X020973Y007972D01*
X021075Y007759D02*
X021010Y007727D01*
X020952Y007684D01*
X020901Y007633D01*
X020859Y007575D01*
X020826Y007511D01*
X020804Y007443D01*
X020793Y007372D01*
X020793Y007364D01*
X021221Y007364D01*
X021221Y007307D01*
X020793Y007307D01*
X020793Y007300D01*
X020804Y007229D01*
X020826Y007160D01*
X020859Y007096D01*
X020901Y007038D01*
X020952Y006987D01*
X021010Y006945D01*
X021075Y006912D01*
X021143Y006890D01*
X021214Y006878D01*
X021221Y006878D01*
X021221Y007307D01*
X021279Y007307D01*
X021279Y007364D01*
X021221Y007364D01*
X021221Y007793D01*
X021214Y007793D01*
X021143Y007781D01*
X021075Y007759D01*
X021026Y007735D02*
X011306Y007735D01*
X011188Y007853D02*
X021343Y007853D01*
X021279Y007735D02*
X021221Y007735D01*
X021221Y007616D02*
X021279Y007616D01*
X021279Y007498D02*
X021221Y007498D01*
X021221Y007379D02*
X021279Y007379D01*
X021279Y007307D02*
X021707Y007307D01*
X021707Y007300D01*
X021696Y007229D01*
X021674Y007160D01*
X021641Y007096D01*
X021599Y007038D01*
X021548Y006987D01*
X021490Y006945D01*
X021425Y006912D01*
X021357Y006890D01*
X021286Y006878D01*
X021279Y006878D01*
X021279Y007307D01*
X021279Y007261D02*
X021221Y007261D01*
X021221Y007142D02*
X021279Y007142D01*
X021279Y007024D02*
X021221Y007024D01*
X021221Y006905D02*
X021279Y006905D01*
X021405Y006905D02*
X022095Y006905D01*
X021915Y007024D02*
X021585Y007024D01*
X021664Y007142D02*
X021835Y007142D01*
X021799Y007261D02*
X021701Y007261D01*
X021706Y007379D02*
X021794Y007379D01*
X022157Y007853D02*
X023716Y007853D01*
X023696Y007735D02*
X022474Y007735D01*
X022611Y007616D02*
X023707Y007616D01*
X023756Y007498D02*
X022678Y007498D01*
X022706Y007379D02*
X023871Y007379D01*
X024342Y007379D02*
X024587Y007379D01*
X024492Y007498D02*
X024457Y007498D01*
X024864Y007498D02*
X024924Y007498D01*
X024924Y007616D02*
X024864Y007616D01*
X024924Y007735D02*
X028590Y007735D01*
X028590Y007853D02*
X025335Y007853D01*
X025282Y007972D02*
X028590Y007972D01*
X028590Y008090D02*
X025172Y008090D01*
X025171Y008209D02*
X028590Y008209D01*
X028590Y008327D02*
X025261Y008327D01*
X025304Y008446D02*
X028590Y008446D01*
X028590Y008564D02*
X025304Y008564D01*
X025266Y008683D02*
X028590Y008683D01*
X028590Y008801D02*
X025183Y008801D01*
X025051Y008920D02*
X028590Y008920D01*
X028590Y009038D02*
X025213Y009038D01*
X025279Y009157D02*
X028590Y009157D01*
X028590Y009275D02*
X025304Y009275D01*
X025298Y009394D02*
X028590Y009394D01*
X028590Y009512D02*
X025249Y009512D01*
X025141Y009631D02*
X028590Y009631D01*
X028590Y009749D02*
X028457Y009749D01*
X028582Y009868D02*
X028590Y009868D01*
X028590Y010342D02*
X028546Y010342D01*
X028590Y010460D02*
X028365Y010460D01*
X028135Y010460D02*
X028081Y010460D01*
X027962Y010579D02*
X028590Y010579D01*
X028590Y010697D02*
X025265Y010697D01*
X025304Y010816D02*
X028590Y010816D01*
X028590Y010934D02*
X028102Y010934D01*
X028004Y010836D02*
X028285Y011117D01*
X028285Y011276D01*
X027845Y011276D01*
X027845Y010836D01*
X028004Y010836D01*
X027845Y010934D02*
X027765Y010934D01*
X027765Y010836D02*
X027765Y011276D01*
X027325Y011276D01*
X027325Y011117D01*
X027606Y010836D01*
X027765Y010836D01*
X027765Y011053D02*
X027845Y011053D01*
X027845Y011171D02*
X027765Y011171D01*
X027765Y011276D02*
X027845Y011276D01*
X027845Y011356D01*
X027765Y011356D01*
X027765Y011276D01*
X027765Y011290D02*
X027235Y011290D01*
X027325Y011356D02*
X027765Y011356D01*
X027765Y011796D01*
X027606Y011796D01*
X027325Y011515D01*
X027325Y011356D01*
X027325Y011408D02*
X027235Y011408D01*
X027203Y011527D02*
X027337Y011527D01*
X027456Y011645D02*
X027084Y011645D01*
X026983Y011886D02*
X026627Y011886D01*
X026375Y012138D01*
X026375Y012494D01*
X026627Y012746D01*
X026983Y012746D01*
X027235Y012494D01*
X027235Y012138D01*
X026983Y011886D01*
X027098Y012001D02*
X027512Y012001D01*
X027627Y011886D02*
X027983Y011886D01*
X028235Y012138D01*
X028235Y012494D01*
X027983Y012746D01*
X027627Y012746D01*
X027375Y012494D01*
X027375Y012138D01*
X027627Y011886D01*
X027574Y011764D02*
X025295Y011764D01*
X025304Y011645D02*
X026526Y011645D01*
X026408Y011527D02*
X025282Y011527D01*
X025246Y011882D02*
X028590Y011882D01*
X028590Y011764D02*
X028036Y011764D01*
X028004Y011796D02*
X027845Y011796D01*
X027845Y011356D01*
X028285Y011356D01*
X028285Y011515D01*
X028004Y011796D01*
X027845Y011764D02*
X027765Y011764D01*
X027765Y011645D02*
X027845Y011645D01*
X027845Y011527D02*
X027765Y011527D01*
X027765Y011408D02*
X027845Y011408D01*
X027845Y011290D02*
X028590Y011290D01*
X028590Y011408D02*
X028285Y011408D01*
X028273Y011527D02*
X028590Y011527D01*
X028590Y011645D02*
X028155Y011645D01*
X028098Y012001D02*
X028590Y012001D01*
X028590Y012119D02*
X028216Y012119D01*
X028235Y012238D02*
X028590Y012238D01*
X028590Y012356D02*
X028235Y012356D01*
X028235Y012475D02*
X028590Y012475D01*
X028590Y012593D02*
X028136Y012593D01*
X028018Y012712D02*
X028590Y012712D01*
X028590Y012830D02*
X025042Y012830D01*
X025210Y012712D02*
X026593Y012712D01*
X026474Y012593D02*
X025277Y012593D01*
X025304Y012475D02*
X026375Y012475D01*
X026375Y012356D02*
X025300Y012356D01*
X025250Y012238D02*
X026375Y012238D01*
X026394Y012119D02*
X025145Y012119D01*
X025133Y012001D02*
X026512Y012001D01*
X027136Y012593D02*
X027474Y012593D01*
X027375Y012475D02*
X027235Y012475D01*
X027235Y012356D02*
X027375Y012356D01*
X027375Y012238D02*
X027235Y012238D01*
X027216Y012119D02*
X027394Y012119D01*
X027593Y012712D02*
X027018Y012712D01*
X026983Y012886D02*
X026627Y012886D01*
X026375Y013138D01*
X026375Y013494D01*
X026627Y013746D01*
X026983Y013746D01*
X027235Y013494D01*
X027235Y013138D01*
X026983Y012886D01*
X027046Y012949D02*
X027564Y012949D01*
X027627Y012886D02*
X027983Y012886D01*
X028235Y013138D01*
X028235Y013494D01*
X027983Y013746D01*
X027627Y013746D01*
X027375Y013494D01*
X027375Y013138D01*
X027627Y012886D01*
X027446Y013067D02*
X027164Y013067D01*
X027235Y013186D02*
X027375Y013186D01*
X027375Y013304D02*
X027235Y013304D01*
X027235Y013423D02*
X027375Y013423D01*
X027422Y013541D02*
X027188Y013541D01*
X027070Y013660D02*
X027541Y013660D01*
X028070Y013660D02*
X028590Y013660D01*
X028590Y013778D02*
X026145Y013778D01*
X026145Y013776D02*
X026145Y017331D01*
X026195Y017311D01*
X026305Y017311D01*
X026406Y017352D01*
X026483Y017430D01*
X026525Y017531D01*
X026525Y017640D01*
X026483Y017741D01*
X026406Y017819D01*
X026305Y017861D01*
X026195Y017861D01*
X026145Y017840D01*
X026145Y019026D01*
X026310Y019190D01*
X026320Y019186D01*
X026430Y019186D01*
X026531Y019227D01*
X026608Y019305D01*
X026650Y019406D01*
X026650Y019515D01*
X026608Y019616D01*
X026531Y019694D01*
X026430Y019736D01*
X026320Y019736D01*
X026219Y019694D01*
X026142Y019616D01*
X026100Y019515D01*
X026100Y019406D01*
X026104Y019395D01*
X025855Y019146D01*
X025855Y013896D01*
X025190Y013231D01*
X023238Y013231D01*
X023233Y013241D01*
X023189Y013286D01*
X023233Y013330D01*
X023238Y013341D01*
X024960Y013341D01*
X025310Y013691D01*
X025395Y013776D01*
X025395Y017153D01*
X025462Y017153D01*
X025563Y017195D01*
X025641Y017272D01*
X025682Y017373D01*
X025682Y017483D01*
X025641Y017584D01*
X025563Y017661D01*
X025462Y017703D01*
X025353Y017703D01*
X025252Y017661D01*
X025174Y017584D01*
X025132Y017483D01*
X025132Y017373D01*
X025137Y017363D01*
X025105Y017331D01*
X025105Y014263D01*
X025049Y014319D01*
X024948Y014361D01*
X024839Y014361D01*
X024738Y014319D01*
X024661Y014241D01*
X024656Y014231D01*
X023988Y014231D01*
X023983Y014241D01*
X023906Y014319D01*
X023805Y014361D01*
X023695Y014361D01*
X023594Y014319D01*
X023545Y014269D01*
X023545Y014442D01*
X023583Y014480D01*
X023625Y014581D01*
X023625Y014690D01*
X023583Y014791D01*
X023506Y014869D01*
X023405Y014911D01*
X023295Y014911D01*
X023194Y014869D01*
X023117Y014791D01*
X023075Y014690D01*
X023075Y014581D01*
X023117Y014480D01*
X023194Y014402D01*
X023255Y014377D01*
X023255Y014073D01*
X023244Y014069D01*
X023167Y013991D01*
X023125Y013890D01*
X023125Y013781D01*
X023150Y013721D01*
X023055Y013761D01*
X022945Y013761D01*
X022844Y013719D01*
X022767Y013641D01*
X022725Y013540D01*
X022725Y013431D01*
X022767Y013330D01*
X022811Y013286D01*
X022767Y013241D01*
X022750Y013201D01*
X022733Y013241D01*
X022656Y013319D01*
X022555Y013361D01*
X022445Y013361D01*
X022344Y013319D01*
X022267Y013241D01*
X022250Y013201D01*
X022233Y013241D01*
X022156Y013319D01*
X022055Y013361D01*
X021945Y013361D01*
X021844Y013319D01*
X021767Y013241D01*
X021725Y013140D01*
X021725Y013031D01*
X021767Y012930D01*
X021844Y012852D01*
X021945Y012811D01*
X022055Y012811D01*
X022156Y012852D01*
X022233Y012930D01*
X022250Y012971D01*
X022267Y012930D01*
X022344Y012852D01*
X022445Y012811D01*
X022555Y012811D01*
X022656Y012852D01*
X022733Y012930D01*
X022750Y012971D01*
X022767Y012930D01*
X022844Y012852D01*
X022945Y012811D01*
X023055Y012811D01*
X023156Y012852D01*
X023233Y012930D01*
X023238Y012941D01*
X025310Y012941D01*
X026060Y013691D01*
X026145Y013776D01*
X026145Y013897D02*
X028590Y013897D01*
X028590Y014015D02*
X026145Y014015D01*
X026145Y014134D02*
X028590Y014134D01*
X028590Y014252D02*
X026145Y014252D01*
X026145Y014371D02*
X028590Y014371D01*
X028590Y014489D02*
X026145Y014489D01*
X026145Y014608D02*
X027443Y014608D01*
X027303Y014666D02*
X027593Y014546D01*
X027907Y014546D01*
X028197Y014666D01*
X028420Y014888D01*
X028540Y015178D01*
X028540Y015493D01*
X028420Y015783D01*
X028197Y016005D01*
X027907Y016126D01*
X027593Y016126D01*
X027303Y016005D01*
X027080Y015783D01*
X026960Y015493D01*
X026960Y015178D01*
X027080Y014888D01*
X027303Y014666D01*
X027242Y014726D02*
X026145Y014726D01*
X026145Y014845D02*
X027124Y014845D01*
X027049Y014963D02*
X026145Y014963D01*
X026145Y015082D02*
X027000Y015082D01*
X026960Y015200D02*
X026145Y015200D01*
X026145Y015319D02*
X026960Y015319D01*
X026960Y015437D02*
X026145Y015437D01*
X026145Y015556D02*
X026986Y015556D01*
X027035Y015674D02*
X026145Y015674D01*
X026145Y015793D02*
X027090Y015793D01*
X027208Y015911D02*
X026145Y015911D01*
X026145Y016030D02*
X027361Y016030D01*
X028139Y016030D02*
X028590Y016030D01*
X028590Y016148D02*
X026145Y016148D01*
X026145Y016267D02*
X028493Y016267D01*
X028374Y016385D02*
X026145Y016385D01*
X026145Y016504D02*
X028256Y016504D01*
X028137Y016622D02*
X026145Y016622D01*
X026145Y016741D02*
X028019Y016741D01*
X027900Y016859D02*
X026145Y016859D01*
X026145Y016978D02*
X027782Y016978D01*
X027663Y017096D02*
X026145Y017096D01*
X026145Y017215D02*
X027590Y017215D01*
X027590Y017333D02*
X026359Y017333D01*
X026492Y017452D02*
X027590Y017452D01*
X027590Y017570D02*
X026525Y017570D01*
X026505Y017689D02*
X027590Y017689D01*
X027590Y017807D02*
X026417Y017807D01*
X026145Y017926D02*
X027590Y017926D01*
X027590Y018044D02*
X026145Y018044D01*
X026145Y018163D02*
X027590Y018163D01*
X027590Y018281D02*
X026145Y018281D01*
X026145Y018400D02*
X027590Y018400D01*
X027590Y018518D02*
X026145Y018518D01*
X026145Y018637D02*
X027590Y018637D01*
X027590Y018755D02*
X026145Y018755D01*
X026145Y018874D02*
X027590Y018874D01*
X027590Y018992D02*
X026145Y018992D01*
X026230Y019111D02*
X027590Y019111D01*
X027590Y019229D02*
X026532Y019229D01*
X026626Y019348D02*
X027590Y019348D01*
X027590Y019466D02*
X026650Y019466D01*
X026621Y019585D02*
X027590Y019585D01*
X027590Y019703D02*
X026508Y019703D01*
X026242Y019703D02*
X015376Y019703D01*
X015328Y019656D02*
X015580Y019907D01*
X015580Y020264D01*
X015328Y020516D01*
X014972Y020516D01*
X014795Y020339D01*
X014795Y020776D01*
X014948Y020929D01*
X014972Y020906D01*
X015328Y020906D01*
X015580Y021157D01*
X015580Y021514D01*
X015328Y021766D01*
X014972Y021766D01*
X014720Y021514D01*
X014720Y021157D01*
X014743Y021134D01*
X014505Y020896D01*
X014505Y020339D01*
X014328Y020516D01*
X013972Y020516D01*
X013720Y020264D01*
X013720Y019907D01*
X013972Y019656D01*
X014328Y019656D01*
X014505Y019832D01*
X014505Y019796D01*
X013970Y019261D01*
X013724Y019261D01*
X013700Y019236D01*
X013676Y019261D01*
X013124Y019261D01*
X013060Y019196D01*
X013060Y018981D01*
X012988Y018981D01*
X012983Y018991D01*
X012906Y019069D01*
X012805Y019111D01*
X012695Y019111D01*
X012594Y019069D01*
X012517Y018991D01*
X012475Y018890D01*
X012475Y018781D01*
X012517Y018680D01*
X012594Y018602D01*
X012695Y018561D01*
X012805Y018561D01*
X012906Y018602D01*
X012983Y018680D01*
X012988Y018691D01*
X013060Y018691D01*
X013060Y018475D01*
X013124Y018411D01*
X013676Y018411D01*
X013700Y018435D01*
X013724Y018411D01*
X014276Y018411D01*
X014300Y018435D01*
X014324Y018411D01*
X014605Y018411D01*
X014605Y018323D01*
X014594Y018319D01*
X014517Y018241D01*
X014475Y018140D01*
X014475Y018031D01*
X014517Y017930D01*
X014594Y017852D01*
X014695Y017811D01*
X014805Y017811D01*
X014906Y017852D01*
X014983Y017930D01*
X015025Y018031D01*
X015025Y018140D01*
X014983Y018241D01*
X014906Y018319D01*
X014895Y018323D01*
X014895Y018430D01*
X014940Y018475D01*
X014940Y019196D01*
X014876Y019261D01*
X014380Y019261D01*
X014710Y019591D01*
X014795Y019676D01*
X014795Y019832D01*
X014972Y019656D01*
X015328Y019656D01*
X015494Y019822D02*
X027590Y019822D01*
X027590Y019940D02*
X015580Y019940D01*
X015580Y020059D02*
X027590Y020059D01*
X027590Y020177D02*
X015580Y020177D01*
X015548Y020296D02*
X027590Y020296D01*
X027590Y020414D02*
X015430Y020414D01*
X014870Y020414D02*
X014795Y020414D01*
X014795Y020533D02*
X027590Y020533D01*
X027590Y020651D02*
X014795Y020651D01*
X014795Y020770D02*
X027590Y020770D01*
X027590Y020888D02*
X014908Y020888D01*
X014734Y021125D02*
X014548Y021125D01*
X014580Y021157D02*
X014328Y020906D01*
X013972Y020906D01*
X013720Y021157D01*
X013720Y021514D01*
X013972Y021766D01*
X014328Y021766D01*
X014580Y021514D01*
X014580Y021157D01*
X014580Y021244D02*
X014720Y021244D01*
X014720Y021362D02*
X014580Y021362D01*
X014580Y021481D02*
X014720Y021481D01*
X014805Y021599D02*
X014495Y021599D01*
X014376Y021718D02*
X014924Y021718D01*
X015376Y021718D02*
X015924Y021718D01*
X015972Y021766D02*
X015720Y021514D01*
X015720Y021157D01*
X015972Y020906D01*
X016328Y020906D01*
X016580Y021157D01*
X016580Y021514D01*
X016328Y021766D01*
X015972Y021766D01*
X015805Y021599D02*
X015495Y021599D01*
X015580Y021481D02*
X015720Y021481D01*
X015720Y021362D02*
X015580Y021362D01*
X015580Y021244D02*
X015720Y021244D01*
X015752Y021125D02*
X015548Y021125D01*
X015429Y021007D02*
X015871Y021007D01*
X016429Y021007D02*
X016871Y021007D01*
X016972Y020906D02*
X017328Y020906D01*
X017580Y021157D01*
X017580Y021514D01*
X017328Y021766D01*
X016972Y021766D01*
X016720Y021514D01*
X016720Y021157D01*
X016972Y020906D01*
X016752Y021125D02*
X016548Y021125D01*
X016580Y021244D02*
X016720Y021244D01*
X016720Y021362D02*
X016580Y021362D01*
X016580Y021481D02*
X016720Y021481D01*
X016805Y021599D02*
X016495Y021599D01*
X016376Y021718D02*
X016924Y021718D01*
X017376Y021718D02*
X017736Y021718D01*
X017720Y021701D02*
X017720Y020970D01*
X017784Y020906D01*
X018516Y020906D01*
X018580Y020970D01*
X018580Y021701D01*
X018516Y021766D01*
X017784Y021766D01*
X017720Y021701D01*
X017720Y021599D02*
X017495Y021599D01*
X017580Y021481D02*
X017720Y021481D01*
X017720Y021362D02*
X017580Y021362D01*
X017580Y021244D02*
X017720Y021244D01*
X017720Y021125D02*
X017548Y021125D01*
X017429Y021007D02*
X017720Y021007D01*
X018580Y021007D02*
X019471Y021007D01*
X019572Y020906D02*
X019928Y020906D01*
X020180Y021157D01*
X020180Y021514D01*
X019928Y021766D01*
X019572Y021766D01*
X019320Y021514D01*
X019320Y021157D01*
X019572Y020906D01*
X019352Y021125D02*
X018580Y021125D01*
X018580Y021244D02*
X019320Y021244D01*
X019320Y021362D02*
X018580Y021362D01*
X018580Y021481D02*
X019320Y021481D01*
X019405Y021599D02*
X018580Y021599D01*
X018564Y021718D02*
X019524Y021718D01*
X019976Y021718D02*
X020524Y021718D01*
X020572Y021766D02*
X020320Y021514D01*
X020320Y021157D01*
X020572Y020906D01*
X020928Y020906D01*
X021180Y021157D01*
X021180Y021514D01*
X020928Y021766D01*
X020572Y021766D01*
X020405Y021599D02*
X020095Y021599D01*
X020180Y021481D02*
X020320Y021481D01*
X020320Y021362D02*
X020180Y021362D01*
X020180Y021244D02*
X020320Y021244D01*
X020352Y021125D02*
X020148Y021125D01*
X020029Y021007D02*
X020471Y021007D01*
X021029Y021007D02*
X021471Y021007D01*
X021572Y020906D02*
X021928Y020906D01*
X022180Y021157D01*
X022180Y021514D01*
X021928Y021766D01*
X021572Y021766D01*
X021320Y021514D01*
X021320Y021157D01*
X021572Y020906D01*
X021352Y021125D02*
X021148Y021125D01*
X021180Y021244D02*
X021320Y021244D01*
X021320Y021362D02*
X021180Y021362D01*
X021180Y021481D02*
X021320Y021481D01*
X021405Y021599D02*
X021095Y021599D01*
X020976Y021718D02*
X021524Y021718D01*
X021976Y021718D02*
X022524Y021718D01*
X022572Y021766D02*
X022320Y021514D01*
X022320Y021157D01*
X022572Y020906D01*
X022928Y020906D01*
X023180Y021157D01*
X023180Y021514D01*
X022928Y021766D01*
X022572Y021766D01*
X022405Y021599D02*
X022095Y021599D01*
X022180Y021481D02*
X022320Y021481D01*
X022320Y021362D02*
X022180Y021362D01*
X022180Y021244D02*
X022320Y021244D01*
X022352Y021125D02*
X022148Y021125D01*
X022029Y021007D02*
X022471Y021007D01*
X023029Y021007D02*
X023471Y021007D01*
X023572Y020906D02*
X023928Y020906D01*
X024180Y021157D01*
X024180Y021514D01*
X023928Y021766D01*
X023572Y021766D01*
X023320Y021514D01*
X023320Y021157D01*
X023572Y020906D01*
X023352Y021125D02*
X023148Y021125D01*
X023180Y021244D02*
X023320Y021244D01*
X023320Y021362D02*
X023180Y021362D01*
X023180Y021481D02*
X023320Y021481D01*
X023405Y021599D02*
X023095Y021599D01*
X022976Y021718D02*
X023524Y021718D01*
X023976Y021718D02*
X024524Y021718D01*
X024572Y021766D02*
X024320Y021514D01*
X024320Y021157D01*
X024572Y020906D01*
X024928Y020906D01*
X025180Y021157D01*
X025180Y021514D01*
X024928Y021766D01*
X024572Y021766D01*
X024405Y021599D02*
X024095Y021599D01*
X024180Y021481D02*
X024320Y021481D01*
X024320Y021362D02*
X024180Y021362D01*
X024180Y021244D02*
X024320Y021244D01*
X024352Y021125D02*
X024148Y021125D01*
X024029Y021007D02*
X024471Y021007D01*
X025029Y021007D02*
X025471Y021007D01*
X025572Y020906D02*
X025928Y020906D01*
X026180Y021157D01*
X026180Y021514D01*
X025928Y021766D01*
X025572Y021766D01*
X025320Y021514D01*
X025320Y021157D01*
X025572Y020906D01*
X025352Y021125D02*
X025148Y021125D01*
X025180Y021244D02*
X025320Y021244D01*
X025320Y021362D02*
X025180Y021362D01*
X025180Y021481D02*
X025320Y021481D01*
X025405Y021599D02*
X025095Y021599D01*
X024976Y021718D02*
X025524Y021718D01*
X025976Y021718D02*
X026336Y021718D01*
X026320Y021701D02*
X026384Y021766D01*
X027116Y021766D01*
X027180Y021701D01*
X027180Y020970D01*
X027116Y020906D01*
X026384Y020906D01*
X026320Y020970D01*
X026320Y021701D01*
X026320Y021599D02*
X026095Y021599D01*
X026180Y021481D02*
X026320Y021481D01*
X026320Y021362D02*
X026180Y021362D01*
X026180Y021244D02*
X026320Y021244D01*
X026320Y021125D02*
X026148Y021125D01*
X026029Y021007D02*
X026320Y021007D01*
X027180Y021007D02*
X027590Y021007D01*
X027590Y021125D02*
X027180Y021125D01*
X027180Y021244D02*
X027590Y021244D01*
X027590Y021362D02*
X027180Y021362D01*
X027180Y021481D02*
X027590Y021481D01*
X027590Y021599D02*
X027180Y021599D01*
X027164Y021718D02*
X027542Y021718D01*
X027423Y021836D02*
X008367Y021836D01*
X008447Y021718D02*
X008924Y021718D01*
X008972Y021766D02*
X008720Y021514D01*
X008720Y021157D01*
X008972Y020906D01*
X009328Y020906D01*
X009580Y021157D01*
X009580Y021514D01*
X009328Y021766D01*
X008972Y021766D01*
X008805Y021599D02*
X008496Y021599D01*
X008540Y021481D02*
X008720Y021481D01*
X008720Y021362D02*
X008540Y021362D01*
X008540Y021244D02*
X008720Y021244D01*
X008752Y021125D02*
X008518Y021125D01*
X008469Y021007D02*
X008871Y021007D01*
X008420Y020888D02*
X010005Y020888D01*
X010005Y020770D02*
X008301Y020770D01*
X009429Y021007D02*
X009871Y021007D01*
X009752Y021125D02*
X009548Y021125D01*
X009580Y021244D02*
X009720Y021244D01*
X009720Y021362D02*
X009580Y021362D01*
X009580Y021481D02*
X009720Y021481D01*
X009805Y021599D02*
X009495Y021599D01*
X009376Y021718D02*
X009924Y021718D01*
X010376Y021718D02*
X010924Y021718D01*
X010805Y021599D02*
X010495Y021599D01*
X010580Y021481D02*
X010720Y021481D01*
X010720Y021362D02*
X010580Y021362D01*
X010580Y021244D02*
X010720Y021244D01*
X010752Y021125D02*
X010548Y021125D01*
X010429Y021007D02*
X010871Y021007D01*
X010980Y020888D02*
X010295Y020888D01*
X010295Y020770D02*
X010545Y020770D01*
X010479Y020651D02*
X010295Y020651D01*
X010295Y020533D02*
X010475Y020533D01*
X010373Y020414D02*
X010295Y020414D01*
X010547Y020177D02*
X010980Y020177D01*
X010980Y020059D02*
X010445Y020059D01*
X010445Y019940D02*
X010980Y019940D01*
X010980Y019822D02*
X010445Y019822D01*
X010445Y019703D02*
X010980Y019703D01*
X010980Y019585D02*
X010445Y019585D01*
X010445Y019466D02*
X010980Y019466D01*
X010980Y019348D02*
X010445Y019348D01*
X010445Y019229D02*
X010980Y019229D01*
X010980Y019111D02*
X010445Y019111D01*
X010445Y018992D02*
X010980Y018992D01*
X010980Y018874D02*
X010445Y018874D01*
X010445Y018755D02*
X010980Y018755D01*
X010980Y018637D02*
X010554Y018637D01*
X010595Y018518D02*
X010980Y018518D01*
X010980Y018400D02*
X010595Y018400D01*
X010595Y018281D02*
X010980Y018281D01*
X010980Y018163D02*
X010595Y018163D01*
X010595Y018044D02*
X010980Y018044D01*
X010980Y017926D02*
X010495Y017926D01*
X010445Y017807D02*
X010980Y017807D01*
X010980Y017689D02*
X010445Y017689D01*
X010445Y017570D02*
X010980Y017570D01*
X010980Y017452D02*
X010445Y017452D01*
X010445Y017333D02*
X010980Y017333D01*
X010980Y017215D02*
X010445Y017215D01*
X010445Y017096D02*
X010980Y017096D01*
X010980Y016978D02*
X010445Y016978D01*
X010445Y016859D02*
X010980Y016859D01*
X010980Y016741D02*
X010445Y016741D01*
X010445Y016622D02*
X010980Y016622D01*
X010980Y016504D02*
X010445Y016504D01*
X010445Y016385D02*
X010980Y016385D01*
X010980Y016267D02*
X010445Y016267D01*
X010445Y016148D02*
X010980Y016148D01*
X010980Y016030D02*
X010445Y016030D01*
X010445Y015911D02*
X010980Y015911D01*
X010980Y015793D02*
X010445Y015793D01*
X010445Y015674D02*
X010500Y015674D01*
X010478Y015319D02*
X010445Y015319D01*
X010445Y015200D02*
X010980Y015200D01*
X010980Y015082D02*
X010445Y015082D01*
X010445Y014963D02*
X010980Y014963D01*
X010980Y014845D02*
X010445Y014845D01*
X010445Y014726D02*
X010980Y014726D01*
X010980Y014608D02*
X010445Y014608D01*
X010445Y014489D02*
X010980Y014489D01*
X010980Y014371D02*
X010445Y014371D01*
X010445Y014252D02*
X010980Y014252D01*
X010980Y014134D02*
X010445Y014134D01*
X010445Y014015D02*
X010980Y014015D01*
X010980Y013897D02*
X010445Y013897D01*
X010445Y013778D02*
X010980Y013778D01*
X010980Y013660D02*
X010445Y013660D01*
X010445Y013541D02*
X010980Y013541D01*
X010980Y013423D02*
X010445Y013423D01*
X010445Y013304D02*
X010980Y013304D01*
X010980Y013186D02*
X010445Y013186D01*
X010445Y013067D02*
X010980Y013067D01*
X010980Y012949D02*
X010445Y012949D01*
X010445Y012830D02*
X010980Y012830D01*
X010980Y012712D02*
X010445Y012712D01*
X010445Y012593D02*
X010980Y012593D01*
X010980Y012475D02*
X010445Y012475D01*
X010445Y012356D02*
X010980Y012356D01*
X010980Y012238D02*
X010445Y012238D01*
X010445Y012119D02*
X010980Y012119D01*
X010980Y012001D02*
X010445Y012001D01*
X010445Y011882D02*
X010980Y011882D01*
X011082Y011764D02*
X010445Y011764D01*
X010445Y011645D02*
X011200Y011645D01*
X011319Y011527D02*
X010445Y011527D01*
X010445Y011408D02*
X011437Y011408D01*
X011550Y011536D02*
X011150Y011936D01*
X011150Y021336D01*
X011429Y021007D02*
X011800Y021007D01*
X011682Y021125D02*
X011548Y021125D01*
X011670Y021137D02*
X011670Y021296D01*
X012110Y021296D01*
X012110Y021376D01*
X012110Y021816D01*
X011951Y021816D01*
X011670Y021534D01*
X011670Y021376D01*
X012110Y021376D01*
X012190Y021376D01*
X012190Y021816D01*
X012349Y021816D01*
X012630Y021534D01*
X012630Y021376D01*
X012190Y021376D01*
X012190Y021296D01*
X012630Y021296D01*
X012630Y021137D01*
X012349Y020856D01*
X012190Y020856D01*
X012190Y021296D01*
X012110Y021296D01*
X012110Y020856D01*
X011951Y020856D01*
X011670Y021137D01*
X011670Y021244D02*
X011580Y021244D01*
X011580Y021362D02*
X012110Y021362D01*
X012190Y021362D02*
X012720Y021362D01*
X012720Y021244D02*
X012630Y021244D01*
X012618Y021125D02*
X012752Y021125D01*
X012720Y021157D02*
X012972Y020906D01*
X013328Y020906D01*
X013580Y021157D01*
X013580Y021514D01*
X013328Y021766D01*
X012972Y021766D01*
X012720Y021514D01*
X012720Y021157D01*
X012871Y021007D02*
X012500Y021007D01*
X012381Y020888D02*
X014505Y020888D01*
X014505Y020770D02*
X011320Y020770D01*
X011320Y020888D02*
X011919Y020888D01*
X012110Y020888D02*
X012190Y020888D01*
X012190Y021007D02*
X012110Y021007D01*
X012110Y021125D02*
X012190Y021125D01*
X012190Y021244D02*
X012110Y021244D01*
X012110Y021481D02*
X012190Y021481D01*
X012190Y021599D02*
X012110Y021599D01*
X012110Y021718D02*
X012190Y021718D01*
X012447Y021718D02*
X012924Y021718D01*
X012805Y021599D02*
X012565Y021599D01*
X012630Y021481D02*
X012720Y021481D01*
X013376Y021718D02*
X013924Y021718D01*
X013805Y021599D02*
X013495Y021599D01*
X013580Y021481D02*
X013720Y021481D01*
X013720Y021362D02*
X013580Y021362D01*
X013580Y021244D02*
X013720Y021244D01*
X013752Y021125D02*
X013548Y021125D01*
X013429Y021007D02*
X013871Y021007D01*
X014429Y021007D02*
X014616Y021007D01*
X014505Y020651D02*
X011320Y020651D01*
X011320Y020533D02*
X014505Y020533D01*
X014505Y020414D02*
X014430Y020414D01*
X013870Y020414D02*
X013580Y020414D01*
X013580Y020451D02*
X013516Y020516D01*
X012784Y020516D01*
X012720Y020451D01*
X012720Y019720D01*
X012784Y019656D01*
X013516Y019656D01*
X013580Y019720D01*
X013580Y020451D01*
X013580Y020296D02*
X013752Y020296D01*
X013720Y020177D02*
X013580Y020177D01*
X013580Y020059D02*
X013720Y020059D01*
X013720Y019940D02*
X013580Y019940D01*
X013580Y019822D02*
X013806Y019822D01*
X013924Y019703D02*
X013563Y019703D01*
X014057Y019348D02*
X012060Y019348D01*
X012060Y019396D02*
X012060Y019276D01*
X012416Y019276D01*
X012416Y019059D01*
X012405Y019018D01*
X012384Y018981D01*
X012354Y018952D01*
X012318Y018931D01*
X012277Y018920D01*
X012060Y018920D01*
X012060Y019276D01*
X011940Y019276D01*
X011584Y019276D01*
X011584Y019059D01*
X011595Y019018D01*
X011616Y018981D01*
X011646Y018952D01*
X011682Y018931D01*
X011723Y018920D01*
X011940Y018920D01*
X011940Y019276D01*
X011940Y019396D01*
X011940Y019751D01*
X011723Y019751D01*
X011682Y019741D01*
X011646Y019720D01*
X011616Y019690D01*
X011595Y019653D01*
X011584Y019613D01*
X011584Y019396D01*
X011940Y019396D01*
X012060Y019396D01*
X012060Y019751D01*
X012277Y019751D01*
X012318Y019741D01*
X012354Y019720D01*
X012384Y019690D01*
X012405Y019653D01*
X012416Y019613D01*
X012416Y019396D01*
X012060Y019396D01*
X012060Y019466D02*
X011940Y019466D01*
X011940Y019348D02*
X011320Y019348D01*
X011320Y019466D02*
X011584Y019466D01*
X011584Y019585D02*
X011320Y019585D01*
X011320Y019703D02*
X011629Y019703D01*
X011940Y019703D02*
X012060Y019703D01*
X012060Y019585D02*
X011940Y019585D01*
X011940Y019229D02*
X012060Y019229D01*
X012060Y019111D02*
X011940Y019111D01*
X011940Y018992D02*
X012060Y018992D01*
X012390Y018992D02*
X012518Y018992D01*
X012475Y018874D02*
X011320Y018874D01*
X011320Y018992D02*
X011610Y018992D01*
X011584Y019111D02*
X011320Y019111D01*
X011320Y019229D02*
X011584Y019229D01*
X011320Y018755D02*
X012486Y018755D01*
X012560Y018637D02*
X011320Y018637D01*
X011320Y018518D02*
X013060Y018518D01*
X013060Y018637D02*
X012940Y018637D01*
X012982Y018992D02*
X013060Y018992D01*
X013060Y019111D02*
X012416Y019111D01*
X012416Y019229D02*
X013093Y019229D01*
X012737Y019703D02*
X012371Y019703D01*
X012416Y019585D02*
X014294Y019585D01*
X014376Y019703D02*
X014412Y019703D01*
X014494Y019822D02*
X014505Y019822D01*
X014795Y019822D02*
X014806Y019822D01*
X014795Y019703D02*
X014924Y019703D01*
X014704Y019585D02*
X026129Y019585D01*
X026100Y019466D02*
X022727Y019466D01*
X022680Y019486D02*
X022570Y019486D01*
X022469Y019444D01*
X022392Y019366D01*
X022350Y019265D01*
X022350Y019156D01*
X022392Y019055D01*
X022469Y018977D01*
X022570Y018936D01*
X022680Y018936D01*
X022781Y018977D01*
X022858Y019055D01*
X022900Y019156D01*
X022900Y019265D01*
X022858Y019366D01*
X022781Y019444D01*
X022680Y019486D01*
X022523Y019466D02*
X019658Y019466D01*
X019656Y019469D02*
X019555Y019511D01*
X019445Y019511D01*
X019344Y019469D01*
X019267Y019391D01*
X019225Y019290D01*
X019225Y019181D01*
X019255Y019108D01*
X019255Y016769D01*
X019155Y016811D01*
X019045Y016811D01*
X018944Y016769D01*
X018867Y016691D01*
X018862Y016681D01*
X018610Y016681D01*
X017771Y017520D01*
X017775Y017531D01*
X017775Y017640D01*
X017733Y017741D01*
X017656Y017819D01*
X017555Y017861D01*
X017445Y017861D01*
X017344Y017819D01*
X017300Y017774D01*
X017256Y017819D01*
X017155Y017861D01*
X017045Y017861D01*
X016944Y017819D01*
X016867Y017741D01*
X016825Y017640D01*
X016825Y017531D01*
X016867Y017430D01*
X016944Y017352D01*
X017045Y017311D01*
X017155Y017311D01*
X017256Y017352D01*
X017300Y017397D01*
X017344Y017352D01*
X017445Y017311D01*
X017555Y017311D01*
X017565Y017315D01*
X018150Y016731D01*
X016440Y016731D01*
X016275Y016566D01*
X016275Y016640D01*
X016233Y016741D01*
X016156Y016819D01*
X016055Y016861D01*
X015945Y016861D01*
X015844Y016819D01*
X015767Y016741D01*
X015725Y016640D01*
X015725Y016531D01*
X015729Y016520D01*
X015140Y015931D01*
X014660Y015931D01*
X014560Y016031D01*
X014140Y016031D01*
X014090Y015981D01*
X014088Y015981D01*
X014083Y015991D01*
X014006Y016069D01*
X013905Y016111D01*
X013795Y016111D01*
X013694Y016069D01*
X013617Y015991D01*
X013575Y015890D01*
X013575Y015781D01*
X013617Y015680D01*
X013694Y015602D01*
X013795Y015561D01*
X013905Y015561D01*
X014006Y015602D01*
X014083Y015680D01*
X014088Y015691D01*
X014096Y015691D01*
X014075Y015640D01*
X014075Y015531D01*
X014117Y015430D01*
X014194Y015352D01*
X014295Y015311D01*
X014405Y015311D01*
X014506Y015352D01*
X014583Y015430D01*
X014588Y015441D01*
X015560Y015441D01*
X015645Y015526D01*
X016382Y016263D01*
X016417Y016180D01*
X016494Y016102D01*
X016595Y016061D01*
X016705Y016061D01*
X016806Y016102D01*
X016883Y016180D01*
X016925Y016281D01*
X016925Y016390D01*
X016904Y016441D01*
X018190Y016441D01*
X018590Y016041D01*
X019062Y016041D01*
X019067Y016030D01*
X019144Y015952D01*
X019245Y015911D01*
X019355Y015911D01*
X019456Y015952D01*
X019505Y016002D01*
X019505Y015546D01*
X019340Y015381D01*
X019333Y015381D01*
X019375Y015481D01*
X019375Y015590D01*
X019333Y015691D01*
X019256Y015769D01*
X019155Y015811D01*
X019045Y015811D01*
X018944Y015769D01*
X018867Y015691D01*
X018825Y015590D01*
X018825Y015481D01*
X018867Y015381D01*
X017404Y015381D01*
X017425Y015431D01*
X017425Y015540D01*
X017383Y015641D01*
X017306Y015719D01*
X017205Y015761D01*
X017095Y015761D01*
X016994Y015719D01*
X016917Y015641D01*
X016875Y015540D01*
X016875Y015431D01*
X016896Y015381D01*
X016140Y015381D01*
X016055Y015296D01*
X015870Y015111D01*
X015795Y015111D01*
X015694Y015069D01*
X015617Y014991D01*
X015575Y014890D01*
X015575Y014781D01*
X015617Y014680D01*
X015694Y014602D01*
X015795Y014561D01*
X015905Y014561D01*
X016006Y014602D01*
X016050Y014647D01*
X016094Y014602D01*
X016195Y014561D01*
X016305Y014561D01*
X016315Y014565D01*
X016505Y014376D01*
X016590Y014291D01*
X018290Y014291D01*
X018555Y014026D01*
X018640Y013941D01*
X020010Y013941D01*
X023360Y017291D01*
X024860Y017291D01*
X025160Y017591D01*
X025245Y017676D01*
X025245Y018698D01*
X025256Y018702D01*
X025333Y018780D01*
X025375Y018881D01*
X025375Y018990D01*
X025333Y019091D01*
X025256Y019169D01*
X025155Y019211D01*
X025045Y019211D01*
X024944Y019169D01*
X024867Y019091D01*
X024825Y018990D01*
X024825Y018881D01*
X024867Y018780D01*
X024944Y018702D01*
X024955Y018698D01*
X024955Y017796D01*
X024740Y017581D01*
X023240Y017581D01*
X023155Y017496D01*
X022745Y017086D01*
X022745Y018126D01*
X023435Y018815D01*
X023445Y018811D01*
X023555Y018811D01*
X023656Y018852D01*
X023733Y018930D01*
X023775Y019031D01*
X023775Y019140D01*
X023733Y019241D01*
X023656Y019319D01*
X023555Y019361D01*
X023445Y019361D01*
X023344Y019319D01*
X023267Y019241D01*
X023225Y019140D01*
X023225Y019031D01*
X023229Y019020D01*
X022525Y018316D01*
X022525Y018390D01*
X022483Y018491D01*
X022406Y018569D01*
X022305Y018611D01*
X022195Y018611D01*
X022094Y018569D01*
X022017Y018491D01*
X021975Y018390D01*
X021975Y018281D01*
X022017Y018180D01*
X022094Y018102D01*
X022195Y018061D01*
X022305Y018061D01*
X022406Y018102D01*
X022455Y018152D01*
X022455Y016996D01*
X021645Y016186D01*
X021645Y018033D01*
X021682Y018123D01*
X021682Y018233D01*
X021641Y018334D01*
X021563Y018411D01*
X021462Y018453D01*
X021353Y018453D01*
X021252Y018411D01*
X021174Y018334D01*
X021145Y018263D01*
X021145Y018778D01*
X021205Y018803D01*
X021282Y018881D01*
X021324Y018982D01*
X021324Y019091D01*
X021282Y019192D01*
X021205Y019270D01*
X021104Y019311D01*
X020995Y019311D01*
X020893Y019270D01*
X020816Y019192D01*
X020774Y019091D01*
X020774Y018982D01*
X020816Y018881D01*
X020855Y018842D01*
X020855Y016139D01*
X020833Y016191D01*
X020756Y016269D01*
X020655Y016311D01*
X020545Y016311D01*
X020444Y016269D01*
X020367Y016191D01*
X020362Y016181D01*
X020360Y016181D01*
X019971Y016570D01*
X019975Y016581D01*
X019975Y016690D01*
X019933Y016791D01*
X019856Y016869D01*
X019755Y016911D01*
X019645Y016911D01*
X019545Y016869D01*
X019545Y017152D01*
X019594Y017102D01*
X019695Y017061D01*
X019805Y017061D01*
X019815Y017065D01*
X020229Y016651D01*
X020225Y016640D01*
X020225Y016531D01*
X020267Y016430D01*
X020344Y016352D01*
X020445Y016311D01*
X020555Y016311D01*
X020656Y016352D01*
X020733Y016430D01*
X020775Y016531D01*
X020775Y016640D01*
X020733Y016741D01*
X020656Y016819D01*
X020555Y016861D01*
X020445Y016861D01*
X020435Y016856D01*
X020021Y017270D01*
X020025Y017281D01*
X020025Y017390D01*
X019983Y017491D01*
X019906Y017569D01*
X019805Y017611D01*
X019695Y017611D01*
X019594Y017569D01*
X019545Y017519D01*
X019545Y018961D01*
X019555Y018961D01*
X019656Y019002D01*
X019733Y019080D01*
X019775Y019181D01*
X019775Y019290D01*
X019733Y019391D01*
X019656Y019469D01*
X019751Y019348D02*
X022384Y019348D01*
X022350Y019229D02*
X021245Y019229D01*
X021316Y019111D02*
X022369Y019111D01*
X022455Y018992D02*
X021324Y018992D01*
X021275Y018874D02*
X023083Y018874D01*
X023201Y018992D02*
X022795Y018992D01*
X022881Y019111D02*
X023225Y019111D01*
X023262Y019229D02*
X022900Y019229D01*
X022866Y019348D02*
X023414Y019348D01*
X023586Y019348D02*
X026057Y019348D01*
X025938Y019229D02*
X023738Y019229D01*
X023775Y019111D02*
X024886Y019111D01*
X024826Y018992D02*
X023759Y018992D01*
X023677Y018874D02*
X024828Y018874D01*
X024892Y018755D02*
X023375Y018755D01*
X023256Y018637D02*
X024955Y018637D01*
X024955Y018518D02*
X024456Y018518D01*
X024483Y018491D02*
X024406Y018569D01*
X024305Y018611D01*
X024195Y018611D01*
X024094Y018569D01*
X024017Y018491D01*
X023975Y018390D01*
X023975Y018281D01*
X024017Y018180D01*
X024094Y018102D01*
X024195Y018061D01*
X024305Y018061D01*
X024406Y018102D01*
X024483Y018180D01*
X024525Y018281D01*
X024525Y018390D01*
X024483Y018491D01*
X024521Y018400D02*
X024955Y018400D01*
X024955Y018281D02*
X024525Y018281D01*
X024466Y018163D02*
X024955Y018163D01*
X024955Y018044D02*
X022745Y018044D01*
X022745Y017926D02*
X024955Y017926D01*
X024955Y017807D02*
X022745Y017807D01*
X022745Y017689D02*
X024848Y017689D01*
X025021Y017452D02*
X025132Y017452D01*
X025140Y017570D02*
X025169Y017570D01*
X025245Y017689D02*
X025318Y017689D01*
X025245Y017807D02*
X025855Y017807D01*
X025855Y017689D02*
X025497Y017689D01*
X025646Y017570D02*
X025855Y017570D01*
X025855Y017452D02*
X025682Y017452D01*
X025666Y017333D02*
X025855Y017333D01*
X025855Y017215D02*
X025583Y017215D01*
X025395Y017096D02*
X025855Y017096D01*
X025855Y016978D02*
X025395Y016978D01*
X025395Y016859D02*
X025855Y016859D01*
X025855Y016741D02*
X025395Y016741D01*
X025395Y016622D02*
X025855Y016622D01*
X025855Y016504D02*
X025395Y016504D01*
X025395Y016385D02*
X025855Y016385D01*
X025855Y016267D02*
X025395Y016267D01*
X025395Y016148D02*
X025855Y016148D01*
X025855Y016030D02*
X025395Y016030D01*
X025395Y015911D02*
X025855Y015911D01*
X025855Y015793D02*
X025395Y015793D01*
X025395Y015674D02*
X025855Y015674D01*
X025855Y015556D02*
X025395Y015556D01*
X025395Y015437D02*
X025855Y015437D01*
X025855Y015319D02*
X025395Y015319D01*
X025395Y015200D02*
X025855Y015200D01*
X025855Y015082D02*
X025395Y015082D01*
X025395Y014963D02*
X025855Y014963D01*
X025855Y014845D02*
X025395Y014845D01*
X025395Y014726D02*
X025855Y014726D01*
X025855Y014608D02*
X025395Y014608D01*
X025395Y014489D02*
X025855Y014489D01*
X025855Y014371D02*
X025395Y014371D01*
X025395Y014252D02*
X025855Y014252D01*
X025855Y014134D02*
X025395Y014134D01*
X025395Y014015D02*
X025855Y014015D01*
X025855Y013897D02*
X025395Y013897D01*
X025395Y013778D02*
X025737Y013778D01*
X025619Y013660D02*
X025279Y013660D01*
X025161Y013541D02*
X025500Y013541D01*
X025382Y013423D02*
X025042Y013423D01*
X025263Y013304D02*
X023207Y013304D01*
X023584Y013631D02*
X023633Y013680D01*
X023675Y013781D01*
X023675Y013819D01*
X023695Y013811D01*
X023805Y013811D01*
X023906Y013852D01*
X023983Y013930D01*
X023988Y013941D01*
X024656Y013941D01*
X024661Y013930D01*
X024738Y013852D01*
X024839Y013811D01*
X024948Y013811D01*
X025049Y013852D01*
X025105Y013908D01*
X025105Y013896D01*
X024840Y013631D01*
X023584Y013631D01*
X023613Y013660D02*
X024869Y013660D01*
X024987Y013778D02*
X023674Y013778D01*
X023950Y013897D02*
X024694Y013897D01*
X025094Y013897D02*
X025105Y013897D01*
X025105Y014371D02*
X023545Y014371D01*
X023587Y014489D02*
X025105Y014489D01*
X025105Y014608D02*
X023625Y014608D01*
X023610Y014726D02*
X025105Y014726D01*
X025105Y014845D02*
X023530Y014845D01*
X023170Y014845D02*
X020914Y014845D01*
X021033Y014963D02*
X025105Y014963D01*
X025105Y015082D02*
X021151Y015082D01*
X021270Y015200D02*
X025105Y015200D01*
X025105Y015319D02*
X021388Y015319D01*
X021507Y015437D02*
X024210Y015437D01*
X024244Y015402D02*
X024345Y015361D01*
X024455Y015361D01*
X024556Y015402D01*
X024633Y015480D01*
X024675Y015581D01*
X024675Y015690D01*
X024633Y015791D01*
X024556Y015869D01*
X024455Y015911D01*
X024345Y015911D01*
X024244Y015869D01*
X024167Y015791D01*
X024162Y015781D01*
X023025Y015781D01*
X023025Y015890D01*
X022983Y015991D01*
X022906Y016069D01*
X022805Y016111D01*
X022695Y016111D01*
X022594Y016069D01*
X022517Y015991D01*
X022475Y015890D01*
X022475Y015781D01*
X022517Y015680D01*
X022594Y015602D01*
X022695Y015561D01*
X022805Y015561D01*
X022815Y015565D01*
X022890Y015491D01*
X024162Y015491D01*
X024167Y015480D01*
X024244Y015402D01*
X024590Y015437D02*
X025105Y015437D01*
X025105Y015556D02*
X024665Y015556D01*
X024675Y015674D02*
X025105Y015674D01*
X025105Y015793D02*
X024632Y015793D01*
X025105Y015911D02*
X023016Y015911D01*
X023025Y015793D02*
X024168Y015793D01*
X025105Y016030D02*
X022945Y016030D01*
X023025Y015781D02*
X023025Y015781D01*
X022825Y015556D02*
X021625Y015556D01*
X021744Y015674D02*
X022523Y015674D01*
X022475Y015793D02*
X021862Y015793D01*
X021981Y015911D02*
X022484Y015911D01*
X022555Y016030D02*
X022099Y016030D01*
X022218Y016148D02*
X025105Y016148D01*
X025105Y016267D02*
X022336Y016267D01*
X022455Y016385D02*
X025105Y016385D01*
X025105Y016504D02*
X022573Y016504D01*
X022692Y016622D02*
X025105Y016622D01*
X025105Y016741D02*
X022810Y016741D01*
X022929Y016859D02*
X025105Y016859D01*
X025105Y016978D02*
X023047Y016978D01*
X023166Y017096D02*
X025105Y017096D01*
X025105Y017215D02*
X023284Y017215D01*
X023111Y017452D02*
X022745Y017452D01*
X022745Y017570D02*
X023229Y017570D01*
X022992Y017333D02*
X022745Y017333D01*
X022745Y017215D02*
X022874Y017215D01*
X022755Y017096D02*
X022745Y017096D01*
X022455Y017096D02*
X021645Y017096D01*
X021645Y016978D02*
X022437Y016978D01*
X022318Y016859D02*
X021645Y016859D01*
X021645Y016741D02*
X022200Y016741D01*
X022081Y016622D02*
X021645Y016622D01*
X021645Y016504D02*
X021963Y016504D01*
X021844Y016385D02*
X021645Y016385D01*
X021645Y016267D02*
X021726Y016267D01*
X021355Y016267D02*
X021145Y016267D01*
X021145Y016385D02*
X021355Y016385D01*
X021355Y016504D02*
X021145Y016504D01*
X021145Y016622D02*
X021355Y016622D01*
X021355Y016741D02*
X021145Y016741D01*
X021145Y016859D02*
X021355Y016859D01*
X021355Y016978D02*
X021145Y016978D01*
X021145Y017096D02*
X021355Y017096D01*
X021355Y017215D02*
X021145Y017215D01*
X021145Y017333D02*
X021355Y017333D01*
X021355Y017452D02*
X021145Y017452D01*
X021145Y017570D02*
X021355Y017570D01*
X021355Y017689D02*
X021145Y017689D01*
X021145Y017807D02*
X021355Y017807D01*
X021355Y017903D02*
X021355Y016146D01*
X021145Y015936D01*
X021145Y018093D01*
X021174Y018022D01*
X021252Y017945D01*
X021353Y017903D01*
X021355Y017903D01*
X021298Y017926D02*
X021145Y017926D01*
X021145Y018044D02*
X021165Y018044D01*
X021145Y018281D02*
X021152Y018281D01*
X021145Y018400D02*
X021240Y018400D01*
X021145Y018518D02*
X022044Y018518D01*
X021979Y018400D02*
X021575Y018400D01*
X021662Y018281D02*
X021975Y018281D01*
X022034Y018163D02*
X021682Y018163D01*
X021650Y018044D02*
X022455Y018044D01*
X022455Y017926D02*
X021645Y017926D01*
X021645Y017807D02*
X022455Y017807D01*
X022455Y017689D02*
X021645Y017689D01*
X021645Y017570D02*
X022455Y017570D01*
X022455Y017452D02*
X021645Y017452D01*
X021645Y017333D02*
X022455Y017333D01*
X022455Y017215D02*
X021645Y017215D01*
X020855Y017215D02*
X020076Y017215D01*
X020025Y017333D02*
X020855Y017333D01*
X020855Y017452D02*
X020000Y017452D01*
X019902Y017570D02*
X020855Y017570D01*
X020855Y017689D02*
X019545Y017689D01*
X019545Y017807D02*
X020855Y017807D01*
X020855Y017926D02*
X019545Y017926D01*
X019545Y018044D02*
X020855Y018044D01*
X020855Y018163D02*
X020466Y018163D01*
X020483Y018180D02*
X020525Y018281D01*
X020525Y018390D01*
X020483Y018491D01*
X020406Y018569D01*
X020305Y018611D01*
X020195Y018611D01*
X020094Y018569D01*
X020017Y018491D01*
X019975Y018390D01*
X019975Y018281D01*
X020017Y018180D01*
X020094Y018102D01*
X020195Y018061D01*
X020305Y018061D01*
X020406Y018102D01*
X020483Y018180D01*
X020525Y018281D02*
X020855Y018281D01*
X020855Y018400D02*
X020521Y018400D01*
X020456Y018518D02*
X020855Y018518D01*
X020855Y018637D02*
X019545Y018637D01*
X019545Y018755D02*
X020855Y018755D01*
X020823Y018874D02*
X019545Y018874D01*
X019631Y018992D02*
X020774Y018992D01*
X020782Y019111D02*
X019746Y019111D01*
X019775Y019229D02*
X020853Y019229D01*
X021145Y018755D02*
X022964Y018755D01*
X022846Y018637D02*
X021145Y018637D01*
X020044Y018518D02*
X019545Y018518D01*
X019545Y018400D02*
X019979Y018400D01*
X019975Y018281D02*
X019545Y018281D01*
X019545Y018163D02*
X020034Y018163D01*
X019598Y017570D02*
X019545Y017570D01*
X019255Y017570D02*
X017775Y017570D01*
X017755Y017689D02*
X019255Y017689D01*
X019255Y017807D02*
X017667Y017807D01*
X018034Y018163D02*
X016466Y018163D01*
X016483Y018180D02*
X016525Y018281D01*
X016525Y018390D01*
X016483Y018491D01*
X016406Y018569D01*
X016305Y018611D01*
X016195Y018611D01*
X016094Y018569D01*
X016017Y018491D01*
X015975Y018390D01*
X015975Y018281D01*
X016017Y018180D01*
X016094Y018102D01*
X016195Y018061D01*
X016305Y018061D01*
X016406Y018102D01*
X016483Y018180D01*
X016525Y018281D02*
X017975Y018281D01*
X018017Y018180D01*
X018094Y018102D01*
X018195Y018061D01*
X018305Y018061D01*
X018406Y018102D01*
X018483Y018180D01*
X018525Y018281D01*
X018525Y018390D01*
X018483Y018491D01*
X018406Y018569D01*
X018305Y018611D01*
X018195Y018611D01*
X018094Y018569D01*
X018017Y018491D01*
X017975Y018390D01*
X017975Y018281D01*
X017979Y018400D02*
X016521Y018400D01*
X016456Y018518D02*
X018044Y018518D01*
X018456Y018518D02*
X019255Y018518D01*
X019255Y018400D02*
X018521Y018400D01*
X018525Y018281D02*
X019255Y018281D01*
X019255Y018163D02*
X018466Y018163D01*
X019255Y018044D02*
X015025Y018044D01*
X015016Y018163D02*
X016034Y018163D01*
X015975Y018281D02*
X014943Y018281D01*
X014895Y018400D02*
X015979Y018400D01*
X016044Y018518D02*
X014940Y018518D01*
X014940Y018637D02*
X019255Y018637D01*
X019255Y018755D02*
X014940Y018755D01*
X014940Y018874D02*
X019255Y018874D01*
X019255Y018992D02*
X014940Y018992D01*
X014940Y019111D02*
X019254Y019111D01*
X019225Y019229D02*
X014907Y019229D01*
X014586Y019466D02*
X019342Y019466D01*
X019249Y019348D02*
X014467Y019348D01*
X014175Y019466D02*
X012416Y019466D01*
X012720Y019822D02*
X011320Y019822D01*
X011320Y019940D02*
X012720Y019940D01*
X012720Y020059D02*
X011320Y020059D01*
X011320Y020177D02*
X012720Y020177D01*
X012720Y020296D02*
X011320Y020296D01*
X011320Y020414D02*
X012720Y020414D01*
X011670Y021481D02*
X011580Y021481D01*
X011495Y021599D02*
X011735Y021599D01*
X011853Y021718D02*
X011376Y021718D01*
X010980Y020770D02*
X010955Y020770D01*
X010967Y020414D02*
X010980Y020414D01*
X010980Y020296D02*
X010665Y020296D01*
X008248Y021955D02*
X027305Y021955D01*
X027186Y022073D02*
X008034Y022073D01*
X011320Y018400D02*
X014605Y018400D01*
X014557Y018281D02*
X011320Y018281D01*
X011320Y018163D02*
X014484Y018163D01*
X014475Y018044D02*
X012808Y018044D01*
X012805Y018046D02*
X012695Y018046D01*
X012594Y018004D01*
X012517Y017926D01*
X012475Y017825D01*
X012475Y017716D01*
X012517Y017615D01*
X012594Y017537D01*
X012695Y017496D01*
X012805Y017496D01*
X012815Y017500D01*
X013125Y017191D01*
X015512Y017191D01*
X015517Y017180D01*
X015594Y017102D01*
X015695Y017061D01*
X015805Y017061D01*
X015906Y017102D01*
X015983Y017180D01*
X016025Y017281D01*
X016025Y017390D01*
X015983Y017491D01*
X015906Y017569D01*
X015805Y017611D01*
X015695Y017611D01*
X015594Y017569D01*
X015517Y017491D01*
X015512Y017481D01*
X013245Y017481D01*
X013021Y017705D01*
X013025Y017716D01*
X013025Y017825D01*
X012983Y017926D01*
X012906Y018004D01*
X012805Y018046D01*
X012692Y018044D02*
X011320Y018044D01*
X011320Y017926D02*
X012517Y017926D01*
X012475Y017807D02*
X011320Y017807D01*
X011320Y017689D02*
X012486Y017689D01*
X012562Y017570D02*
X011320Y017570D01*
X011320Y017452D02*
X012864Y017452D01*
X012982Y017333D02*
X011320Y017333D01*
X011320Y017215D02*
X013101Y017215D01*
X013055Y016861D02*
X012945Y016861D01*
X012844Y016819D01*
X012767Y016741D01*
X012725Y016640D01*
X012725Y016531D01*
X012767Y016430D01*
X012844Y016352D01*
X012945Y016311D01*
X013055Y016311D01*
X013156Y016352D01*
X013233Y016430D01*
X013275Y016531D01*
X013275Y016640D01*
X013233Y016741D01*
X013156Y016819D01*
X013055Y016861D01*
X013058Y016859D02*
X014692Y016859D01*
X014695Y016861D02*
X014594Y016819D01*
X014517Y016741D01*
X014475Y016640D01*
X014475Y016531D01*
X014517Y016430D01*
X014594Y016352D01*
X014695Y016311D01*
X014805Y016311D01*
X014906Y016352D01*
X014983Y016430D01*
X015025Y016531D01*
X015025Y016640D01*
X014983Y016741D01*
X014906Y016819D01*
X014805Y016861D01*
X014695Y016861D01*
X014808Y016859D02*
X015942Y016859D01*
X016058Y016859D02*
X018021Y016859D01*
X017903Y016978D02*
X011320Y016978D01*
X011320Y017096D02*
X015610Y017096D01*
X015890Y017096D02*
X017784Y017096D01*
X017666Y017215D02*
X015998Y017215D01*
X016025Y017333D02*
X016141Y017333D01*
X016094Y017352D02*
X016195Y017311D01*
X016305Y017311D01*
X016406Y017352D01*
X016483Y017430D01*
X016525Y017531D01*
X016525Y017640D01*
X016483Y017741D01*
X016406Y017819D01*
X016305Y017861D01*
X016195Y017861D01*
X016094Y017819D01*
X016017Y017741D01*
X015975Y017640D01*
X015975Y017531D01*
X016017Y017430D01*
X016094Y017352D01*
X016008Y017452D02*
X016000Y017452D01*
X015975Y017570D02*
X015902Y017570D01*
X015995Y017689D02*
X013037Y017689D01*
X013025Y017807D02*
X016083Y017807D01*
X016417Y017807D02*
X016933Y017807D01*
X016845Y017689D02*
X016505Y017689D01*
X016525Y017570D02*
X016825Y017570D01*
X016858Y017452D02*
X016492Y017452D01*
X016359Y017333D02*
X016991Y017333D01*
X017209Y017333D02*
X017391Y017333D01*
X017839Y017452D02*
X019255Y017452D01*
X019255Y017333D02*
X017958Y017333D01*
X018076Y017215D02*
X019255Y017215D01*
X019255Y017096D02*
X018195Y017096D01*
X018313Y016978D02*
X019255Y016978D01*
X019255Y016859D02*
X018432Y016859D01*
X018550Y016741D02*
X018916Y016741D01*
X018862Y016391D02*
X018650Y016391D01*
X018710Y016331D01*
X018916Y016331D01*
X018867Y016380D01*
X018862Y016391D01*
X018865Y016385D02*
X018656Y016385D01*
X018482Y016148D02*
X016851Y016148D01*
X016919Y016267D02*
X018364Y016267D01*
X018245Y016385D02*
X016925Y016385D01*
X016449Y016148D02*
X016268Y016148D01*
X016149Y016030D02*
X019067Y016030D01*
X019244Y015911D02*
X016031Y015911D01*
X015912Y015793D02*
X019002Y015793D01*
X018860Y015674D02*
X017350Y015674D01*
X017419Y015556D02*
X018825Y015556D01*
X018843Y015437D02*
X017425Y015437D01*
X017147Y015091D02*
X017094Y015069D01*
X017017Y014991D01*
X016975Y014890D01*
X016933Y014991D01*
X016856Y015069D01*
X016803Y015091D01*
X017147Y015091D01*
X017125Y015082D02*
X016825Y015082D01*
X016945Y014963D02*
X017005Y014963D01*
X016975Y014890D02*
X016975Y014781D01*
X016975Y014890D01*
X016975Y014845D02*
X016975Y014845D01*
X016975Y014781D02*
X016971Y014770D01*
X016986Y014755D01*
X016975Y014781D01*
X016597Y015091D02*
X016544Y015069D01*
X016475Y014999D01*
X016406Y015069D01*
X016353Y015091D01*
X016597Y015091D01*
X016575Y015082D02*
X016375Y015082D01*
X015959Y015200D02*
X011320Y015200D01*
X011320Y015082D02*
X015725Y015082D01*
X015605Y014963D02*
X011320Y014963D01*
X011320Y014845D02*
X015575Y014845D01*
X015598Y014726D02*
X011320Y014726D01*
X011320Y014608D02*
X015689Y014608D01*
X016011Y014608D02*
X016089Y014608D01*
X016391Y014489D02*
X011320Y014489D01*
X011320Y014371D02*
X016510Y014371D01*
X016078Y015319D02*
X014424Y015319D01*
X014276Y015319D02*
X011320Y015319D01*
X011320Y015437D02*
X014114Y015437D01*
X014075Y015556D02*
X011320Y015556D01*
X011320Y015674D02*
X013623Y015674D01*
X013575Y015793D02*
X011320Y015793D01*
X011320Y015911D02*
X013584Y015911D01*
X013655Y016030D02*
X011320Y016030D01*
X011320Y016148D02*
X011549Y016148D01*
X011517Y016180D02*
X011594Y016102D01*
X011695Y016061D01*
X011805Y016061D01*
X011906Y016102D01*
X011983Y016180D01*
X012025Y016281D01*
X012025Y016390D01*
X011983Y016491D01*
X011906Y016569D01*
X011805Y016611D01*
X011695Y016611D01*
X011594Y016569D01*
X011517Y016491D01*
X011475Y016390D01*
X011475Y016281D01*
X011517Y016180D01*
X011481Y016267D02*
X011320Y016267D01*
X011320Y016385D02*
X011475Y016385D01*
X011529Y016504D02*
X011320Y016504D01*
X011320Y016622D02*
X012725Y016622D01*
X012736Y016504D02*
X011971Y016504D01*
X012025Y016385D02*
X012812Y016385D01*
X013188Y016385D02*
X014562Y016385D01*
X014486Y016504D02*
X013264Y016504D01*
X013275Y016622D02*
X014475Y016622D01*
X014517Y016741D02*
X013233Y016741D01*
X012942Y016859D02*
X011320Y016859D01*
X011320Y016741D02*
X012767Y016741D01*
X012019Y016267D02*
X015476Y016267D01*
X015594Y016385D02*
X014938Y016385D01*
X015014Y016504D02*
X015713Y016504D01*
X015725Y016622D02*
X015025Y016622D01*
X014983Y016741D02*
X015767Y016741D01*
X015935Y016315D02*
X015350Y015731D01*
X015440Y015731D01*
X016020Y016311D01*
X015945Y016311D01*
X015935Y016315D01*
X015976Y016267D02*
X015886Y016267D01*
X015857Y016148D02*
X015768Y016148D01*
X015739Y016030D02*
X015649Y016030D01*
X015620Y015911D02*
X015531Y015911D01*
X015502Y015793D02*
X015412Y015793D01*
X015239Y016030D02*
X014561Y016030D01*
X014139Y016030D02*
X014045Y016030D01*
X014077Y015674D02*
X014089Y015674D01*
X014586Y015437D02*
X016875Y015437D01*
X016881Y015556D02*
X015675Y015556D01*
X015794Y015674D02*
X016950Y015674D01*
X016331Y016622D02*
X016275Y016622D01*
X016233Y016741D02*
X018140Y016741D01*
X019198Y015793D02*
X019505Y015793D01*
X019505Y015911D02*
X019356Y015911D01*
X019340Y015674D02*
X019505Y015674D01*
X019505Y015556D02*
X019375Y015556D01*
X019357Y015437D02*
X019396Y015437D01*
X019600Y015231D02*
X019710Y015341D01*
X019795Y015426D01*
X019795Y016336D01*
X020240Y015891D01*
X020362Y015891D01*
X020367Y015880D01*
X020444Y015802D01*
X020545Y015761D01*
X020655Y015761D01*
X020756Y015802D01*
X020833Y015880D01*
X020855Y015933D01*
X020855Y015896D01*
X020190Y015231D01*
X019600Y015231D01*
X019688Y015319D02*
X020278Y015319D01*
X020396Y015437D02*
X019795Y015437D01*
X019795Y015556D02*
X020515Y015556D01*
X020633Y015674D02*
X019795Y015674D01*
X019795Y015793D02*
X020468Y015793D01*
X020732Y015793D02*
X020752Y015793D01*
X020846Y015911D02*
X020855Y015911D01*
X020851Y016148D02*
X020855Y016148D01*
X020855Y016267D02*
X020758Y016267D01*
X020688Y016385D02*
X020855Y016385D01*
X020855Y016504D02*
X020764Y016504D01*
X020775Y016622D02*
X020855Y016622D01*
X020855Y016741D02*
X020733Y016741D01*
X020855Y016859D02*
X020558Y016859D01*
X020442Y016859D02*
X020432Y016859D01*
X020313Y016978D02*
X020855Y016978D01*
X020855Y017096D02*
X020195Y017096D01*
X020021Y016859D02*
X019865Y016859D01*
X019903Y016978D02*
X019545Y016978D01*
X019545Y017096D02*
X019610Y017096D01*
X019954Y016741D02*
X020140Y016741D01*
X020225Y016622D02*
X019975Y016622D01*
X020037Y016504D02*
X020236Y016504D01*
X020312Y016385D02*
X020156Y016385D01*
X020274Y016267D02*
X020442Y016267D01*
X020101Y016030D02*
X019795Y016030D01*
X019795Y016148D02*
X019982Y016148D01*
X019864Y016267D02*
X019795Y016267D01*
X019795Y015911D02*
X020219Y015911D01*
X021145Y016030D02*
X021239Y016030D01*
X021145Y016148D02*
X021355Y016148D01*
X021055Y014661D02*
X020945Y014661D01*
X020844Y014619D01*
X020767Y014541D01*
X020725Y014440D01*
X020725Y014331D01*
X020767Y014230D01*
X020844Y014152D01*
X020945Y014111D01*
X021055Y014111D01*
X021156Y014152D01*
X021233Y014230D01*
X021275Y014331D01*
X021275Y014440D01*
X021233Y014541D01*
X021156Y014619D01*
X021055Y014661D01*
X021167Y014608D02*
X023075Y014608D01*
X023090Y014726D02*
X020796Y014726D01*
X020833Y014608D02*
X020677Y014608D01*
X020745Y014489D02*
X020559Y014489D01*
X020440Y014371D02*
X020725Y014371D01*
X020758Y014252D02*
X020322Y014252D01*
X020203Y014134D02*
X020890Y014134D01*
X021110Y014134D02*
X023255Y014134D01*
X023255Y014252D02*
X021242Y014252D01*
X021275Y014371D02*
X023255Y014371D01*
X023113Y014489D02*
X021255Y014489D01*
X020200Y014541D02*
X019890Y014231D01*
X019334Y014231D01*
X019383Y014280D01*
X019425Y014381D01*
X019425Y014490D01*
X019404Y014541D01*
X020200Y014541D01*
X020148Y014489D02*
X019425Y014489D01*
X019421Y014371D02*
X020030Y014371D01*
X019911Y014252D02*
X019355Y014252D01*
X018966Y014231D02*
X018760Y014231D01*
X018450Y014541D01*
X018896Y014541D01*
X018875Y014490D01*
X018875Y014381D01*
X018917Y014280D01*
X018966Y014231D01*
X018945Y014252D02*
X018739Y014252D01*
X018620Y014371D02*
X018879Y014371D01*
X018875Y014489D02*
X018502Y014489D01*
X018328Y014252D02*
X011320Y014252D01*
X011320Y014134D02*
X018447Y014134D01*
X018565Y014015D02*
X011320Y014015D01*
X011320Y013897D02*
X018272Y013897D01*
X018294Y013919D02*
X018217Y013841D01*
X018175Y013740D01*
X018175Y013631D01*
X018217Y013530D01*
X018294Y013452D01*
X018395Y013411D01*
X018505Y013411D01*
X018606Y013452D01*
X018683Y013530D01*
X018725Y013631D01*
X018725Y013740D01*
X018683Y013841D01*
X018606Y013919D01*
X018505Y013961D01*
X018395Y013961D01*
X018294Y013919D01*
X018191Y013778D02*
X011320Y013778D01*
X011320Y013660D02*
X018175Y013660D01*
X018212Y013541D02*
X011320Y013541D01*
X011320Y013423D02*
X018366Y013423D01*
X018534Y013423D02*
X022728Y013423D01*
X022725Y013541D02*
X018688Y013541D01*
X018725Y013660D02*
X022785Y013660D01*
X022793Y013304D02*
X022670Y013304D01*
X022330Y013304D02*
X022170Y013304D01*
X021830Y013304D02*
X011320Y013304D01*
X011320Y013186D02*
X021744Y013186D01*
X021725Y013067D02*
X011320Y013067D01*
X011320Y012949D02*
X021759Y012949D01*
X021898Y012830D02*
X021178Y012830D01*
X021206Y012819D02*
X021105Y012861D01*
X020995Y012861D01*
X020894Y012819D01*
X020817Y012741D01*
X020775Y012640D01*
X020775Y012531D01*
X020817Y012430D01*
X020894Y012352D01*
X020995Y012311D01*
X021105Y012311D01*
X021206Y012352D01*
X021283Y012430D01*
X021325Y012531D01*
X021325Y012640D01*
X021283Y012741D01*
X021206Y012819D01*
X021295Y012712D02*
X023696Y012712D01*
X023696Y012593D02*
X021325Y012593D01*
X021302Y012475D02*
X023696Y012475D01*
X023696Y012356D02*
X021209Y012356D01*
X020891Y012356D02*
X018659Y012356D01*
X018683Y012380D02*
X018725Y012481D01*
X018725Y012590D01*
X018683Y012691D01*
X018606Y012769D01*
X018505Y012811D01*
X018395Y012811D01*
X018294Y012769D01*
X018217Y012691D01*
X018175Y012590D01*
X018175Y012481D01*
X018217Y012380D01*
X018294Y012302D01*
X018395Y012261D01*
X018505Y012261D01*
X018606Y012302D01*
X018683Y012380D01*
X018722Y012475D02*
X020798Y012475D01*
X020775Y012593D02*
X018724Y012593D01*
X018663Y012712D02*
X020805Y012712D01*
X020922Y012830D02*
X011320Y012830D01*
X011320Y012712D02*
X018237Y012712D01*
X018176Y012593D02*
X011320Y012593D01*
X011320Y012475D02*
X018178Y012475D01*
X018241Y012356D02*
X011320Y012356D01*
X011320Y012238D02*
X023696Y012238D01*
X023696Y012119D02*
X011320Y012119D01*
X011325Y012001D02*
X020446Y012001D01*
X020604Y012001D02*
X023867Y012001D01*
X023754Y011882D02*
X020762Y011882D01*
X020800Y011764D02*
X023705Y011764D01*
X023696Y011645D02*
X020785Y011645D01*
X020705Y011527D02*
X023718Y011527D01*
X023779Y011408D02*
X020528Y011408D01*
X020265Y011645D02*
X017273Y011645D01*
X017273Y011527D02*
X018611Y011527D01*
X018630Y011171D02*
X016541Y011171D01*
X016422Y011053D02*
X018512Y011053D01*
X018393Y010934D02*
X016304Y010934D01*
X016185Y010816D02*
X018275Y010816D01*
X018156Y010697D02*
X016067Y010697D01*
X015948Y010579D02*
X018038Y010579D01*
X017919Y010460D02*
X015830Y010460D01*
X015711Y010342D02*
X017801Y010342D01*
X017682Y010223D02*
X015645Y010223D01*
X015645Y010105D02*
X017564Y010105D01*
X017445Y009986D02*
X015645Y009986D01*
X015645Y009868D02*
X017327Y009868D01*
X017208Y009749D02*
X015725Y009749D01*
X015775Y009631D02*
X017090Y009631D01*
X016971Y009512D02*
X015767Y009512D01*
X015697Y009394D02*
X016855Y009394D01*
X016855Y009275D02*
X010445Y009275D01*
X010445Y009157D02*
X016855Y009157D01*
X016855Y009038D02*
X010445Y009038D01*
X010445Y008920D02*
X016855Y008920D01*
X016777Y008801D02*
X010445Y008801D01*
X010445Y008683D02*
X015778Y008683D01*
X015656Y008564D02*
X010477Y008564D01*
X010595Y008446D02*
X015625Y008446D01*
X015647Y008327D02*
X010714Y008327D01*
X010832Y008209D02*
X015738Y008209D01*
X016175Y008446D02*
X016801Y008446D01*
X016732Y008564D02*
X016144Y008564D01*
X016022Y008683D02*
X016725Y008683D01*
X017145Y008920D02*
X023305Y008920D01*
X023305Y009038D02*
X017145Y009038D01*
X017145Y009157D02*
X023305Y009157D01*
X023305Y009275D02*
X017145Y009275D01*
X017263Y009394D02*
X023305Y009394D01*
X023305Y009512D02*
X017382Y009512D01*
X017500Y009631D02*
X023305Y009631D01*
X023305Y009749D02*
X018898Y009749D01*
X019162Y009868D02*
X023305Y009868D01*
X023305Y009986D02*
X019281Y009986D01*
X019399Y010105D02*
X023276Y010105D01*
X023157Y010223D02*
X019518Y010223D01*
X019636Y010342D02*
X023039Y010342D01*
X022920Y010460D02*
X019755Y010460D01*
X019873Y010579D02*
X022802Y010579D01*
X022683Y010697D02*
X019992Y010697D01*
X020110Y010816D02*
X022565Y010816D01*
X022975Y011116D02*
X023769Y011116D01*
X023759Y011105D01*
X023696Y010955D01*
X023696Y010791D01*
X023759Y010641D01*
X023874Y010525D01*
X023985Y010479D01*
X023874Y010433D01*
X023766Y010325D01*
X022975Y011116D01*
X023038Y011053D02*
X023737Y011053D01*
X023696Y010934D02*
X023157Y010934D01*
X023275Y010816D02*
X023696Y010816D01*
X023735Y010697D02*
X023394Y010697D01*
X023512Y010579D02*
X023821Y010579D01*
X023939Y010460D02*
X023631Y010460D01*
X023749Y010342D02*
X023782Y010342D01*
X023795Y009817D02*
X023874Y009738D01*
X023985Y009692D01*
X023874Y009646D01*
X023795Y009567D01*
X023795Y009817D01*
X023795Y009749D02*
X023863Y009749D01*
X023859Y009631D02*
X023795Y009631D01*
X024227Y009692D02*
X024339Y009738D01*
X024454Y009853D01*
X024500Y009965D01*
X024546Y009853D01*
X024661Y009738D01*
X024773Y009692D01*
X024661Y009646D01*
X024546Y009530D01*
X024500Y009419D01*
X024454Y009530D01*
X024339Y009646D01*
X024227Y009692D01*
X024350Y009749D02*
X024650Y009749D01*
X024646Y009631D02*
X024354Y009631D01*
X024461Y009512D02*
X024539Y009512D01*
X024540Y009868D02*
X024460Y009868D01*
X024500Y010206D02*
X024454Y010318D01*
X024446Y010326D01*
X024460Y010341D01*
X024569Y010341D01*
X024546Y010318D01*
X024500Y010206D01*
X024493Y010223D02*
X024507Y010223D01*
X024556Y010631D02*
X024444Y010631D01*
X024454Y010641D01*
X024500Y010752D01*
X024546Y010641D01*
X024556Y010631D01*
X024523Y010697D02*
X024477Y010697D01*
X024500Y010994D02*
X024454Y011105D01*
X024444Y011116D01*
X024556Y011116D01*
X024546Y011105D01*
X024500Y010994D01*
X024476Y011053D02*
X024524Y011053D01*
X024569Y011406D02*
X024431Y011406D01*
X024454Y011428D01*
X024500Y011539D01*
X024546Y011428D01*
X024569Y011406D01*
X024566Y011408D02*
X024434Y011408D01*
X024495Y011527D02*
X024505Y011527D01*
X024500Y011781D02*
X024454Y011893D01*
X024339Y012008D01*
X024267Y012038D01*
X024452Y012038D01*
X024516Y012102D01*
X024516Y012288D01*
X024546Y012216D01*
X024661Y012100D01*
X024773Y012054D01*
X024661Y012008D01*
X024546Y011893D01*
X024500Y011781D01*
X024458Y011882D02*
X024542Y011882D01*
X024654Y012001D02*
X024346Y012001D01*
X024516Y012119D02*
X024643Y012119D01*
X024537Y012238D02*
X024516Y012238D01*
X024516Y012712D02*
X024578Y012712D01*
X024480Y012830D02*
X024745Y012830D01*
X025318Y012949D02*
X026564Y012949D01*
X026446Y013067D02*
X025437Y013067D01*
X025555Y013186D02*
X026375Y013186D01*
X026375Y013304D02*
X025674Y013304D01*
X025792Y013423D02*
X026375Y013423D01*
X026422Y013541D02*
X025911Y013541D01*
X026029Y013660D02*
X026541Y013660D01*
X028046Y012949D02*
X028590Y012949D01*
X028590Y013067D02*
X028164Y013067D01*
X028235Y013186D02*
X028590Y013186D01*
X028590Y013304D02*
X028235Y013304D01*
X028235Y013423D02*
X028590Y013423D01*
X028590Y013541D02*
X028188Y013541D01*
X028057Y014608D02*
X028590Y014608D01*
X028590Y014726D02*
X028258Y014726D01*
X028376Y014845D02*
X028590Y014845D01*
X028590Y014963D02*
X028451Y014963D01*
X028500Y015082D02*
X028590Y015082D01*
X028590Y015200D02*
X028540Y015200D01*
X028540Y015319D02*
X028590Y015319D01*
X028590Y015437D02*
X028540Y015437D01*
X028514Y015556D02*
X028590Y015556D01*
X028590Y015674D02*
X028465Y015674D01*
X028410Y015793D02*
X028590Y015793D01*
X028590Y015911D02*
X028292Y015911D01*
X028750Y016462D02*
X027910Y017302D01*
X027910Y021802D01*
X027816Y021896D01*
X027376Y022336D01*
X028750Y022336D01*
X028750Y016462D01*
X028750Y016504D02*
X028708Y016504D01*
X028750Y016622D02*
X028590Y016622D01*
X028471Y016741D02*
X028750Y016741D01*
X028750Y016859D02*
X028353Y016859D01*
X028234Y016978D02*
X028750Y016978D01*
X028750Y017096D02*
X028116Y017096D01*
X027997Y017215D02*
X028750Y017215D01*
X028750Y017333D02*
X027910Y017333D01*
X027910Y017452D02*
X028750Y017452D01*
X028750Y017570D02*
X027910Y017570D01*
X027910Y017689D02*
X028750Y017689D01*
X028750Y017807D02*
X027910Y017807D01*
X027910Y017926D02*
X028750Y017926D01*
X028750Y018044D02*
X027910Y018044D01*
X027910Y018163D02*
X028750Y018163D01*
X028750Y018281D02*
X027910Y018281D01*
X027910Y018400D02*
X028750Y018400D01*
X028750Y018518D02*
X027910Y018518D01*
X027910Y018637D02*
X028750Y018637D01*
X028750Y018755D02*
X027910Y018755D01*
X027910Y018874D02*
X028750Y018874D01*
X028750Y018992D02*
X027910Y018992D01*
X027910Y019111D02*
X028750Y019111D01*
X028750Y019229D02*
X027910Y019229D01*
X027910Y019348D02*
X028750Y019348D01*
X028750Y019466D02*
X027910Y019466D01*
X027910Y019585D02*
X028750Y019585D01*
X028750Y019703D02*
X027910Y019703D01*
X027910Y019822D02*
X028750Y019822D01*
X028750Y019940D02*
X027910Y019940D01*
X027910Y020059D02*
X028750Y020059D01*
X028750Y020177D02*
X027910Y020177D01*
X027910Y020296D02*
X028750Y020296D01*
X028750Y020414D02*
X027910Y020414D01*
X027910Y020533D02*
X028750Y020533D01*
X028750Y020651D02*
X027910Y020651D01*
X027910Y020770D02*
X028750Y020770D01*
X028750Y020888D02*
X027910Y020888D01*
X027910Y021007D02*
X028750Y021007D01*
X028750Y021125D02*
X027910Y021125D01*
X027910Y021244D02*
X028750Y021244D01*
X028750Y021362D02*
X027910Y021362D01*
X027910Y021481D02*
X028750Y021481D01*
X028750Y021599D02*
X027910Y021599D01*
X027910Y021718D02*
X028750Y021718D01*
X028750Y021836D02*
X027876Y021836D01*
X027816Y021896D02*
X027816Y021896D01*
X027757Y021955D02*
X028750Y021955D01*
X028750Y022073D02*
X027639Y022073D01*
X027520Y022192D02*
X028750Y022192D01*
X028750Y022310D02*
X027402Y022310D01*
X025855Y019111D02*
X025314Y019111D01*
X025374Y018992D02*
X025855Y018992D01*
X025855Y018874D02*
X025372Y018874D01*
X025308Y018755D02*
X025855Y018755D01*
X025855Y018637D02*
X025245Y018637D01*
X025245Y018518D02*
X025855Y018518D01*
X025855Y018400D02*
X025245Y018400D01*
X025245Y018281D02*
X025855Y018281D01*
X025855Y018163D02*
X025245Y018163D01*
X025245Y018044D02*
X025855Y018044D01*
X025855Y017926D02*
X025245Y017926D01*
X025107Y017333D02*
X024903Y017333D01*
X024034Y018163D02*
X022782Y018163D01*
X022901Y018281D02*
X023975Y018281D01*
X023979Y018400D02*
X023019Y018400D01*
X023138Y018518D02*
X024044Y018518D01*
X022727Y018518D02*
X022456Y018518D01*
X022521Y018400D02*
X022609Y018400D01*
X019255Y017926D02*
X014979Y017926D01*
X014521Y017926D02*
X012983Y017926D01*
X013156Y017570D02*
X015598Y017570D01*
X017267Y017807D02*
X017333Y017807D01*
X015357Y016148D02*
X011951Y016148D01*
X010980Y015674D02*
X010900Y015674D01*
X010969Y015556D02*
X010980Y015556D01*
X010975Y015437D02*
X010980Y015437D01*
X010980Y015319D02*
X010922Y015319D01*
X010005Y016030D02*
X008395Y016030D01*
X008466Y016148D02*
X010005Y016148D01*
X010005Y016267D02*
X008530Y016267D01*
X008535Y016385D02*
X010005Y016385D01*
X010005Y016504D02*
X008485Y016504D01*
X008425Y016622D02*
X010005Y016622D01*
X010005Y016741D02*
X008508Y016741D01*
X008525Y016859D02*
X010005Y016859D01*
X010005Y016978D02*
X008489Y016978D01*
X008395Y017096D02*
X010005Y017096D01*
X011444Y011882D02*
X020288Y011882D01*
X020250Y011764D02*
X017211Y011764D01*
X017000Y011586D02*
X016950Y011536D01*
X011550Y011536D01*
X011562Y011764D02*
X016789Y011764D01*
X016249Y011290D02*
X010949Y011290D01*
X010911Y011327D02*
X010807Y011371D01*
X010693Y011371D01*
X010589Y011327D01*
X010508Y011247D01*
X010465Y011142D01*
X010465Y011029D01*
X010508Y010924D01*
X010589Y010844D01*
X010693Y010801D01*
X010807Y010801D01*
X010911Y010844D01*
X010992Y010924D01*
X011035Y011029D01*
X011035Y011142D01*
X010992Y011247D01*
X010911Y011327D01*
X011023Y011171D02*
X016130Y011171D01*
X016012Y011053D02*
X011035Y011053D01*
X010996Y010934D02*
X015893Y010934D01*
X015775Y010816D02*
X010843Y010816D01*
X010657Y010816D02*
X010445Y010816D01*
X010445Y010934D02*
X010504Y010934D01*
X010465Y011053D02*
X010445Y011053D01*
X010445Y011171D02*
X010477Y011171D01*
X010445Y011290D02*
X010551Y011290D01*
X010005Y011171D02*
X004082Y011171D01*
X004116Y011053D02*
X004188Y011053D01*
X004560Y011053D02*
X010005Y011053D01*
X010005Y010934D02*
X004642Y010934D01*
X004659Y010816D02*
X010005Y010816D01*
X010005Y010697D02*
X004625Y010697D01*
X004498Y010579D02*
X010005Y010579D01*
X010445Y010579D02*
X012842Y010579D01*
X012839Y010577D02*
X012758Y010497D01*
X012715Y010392D01*
X012715Y010279D01*
X012758Y010174D01*
X012839Y010094D01*
X012943Y010051D01*
X013057Y010051D01*
X013161Y010094D01*
X013242Y010174D01*
X013285Y010279D01*
X013285Y010392D01*
X013242Y010497D01*
X013161Y010577D01*
X013057Y010621D01*
X012943Y010621D01*
X012839Y010577D01*
X012743Y010460D02*
X010445Y010460D01*
X010445Y010342D02*
X012715Y010342D01*
X012738Y010223D02*
X010445Y010223D01*
X010445Y010105D02*
X012828Y010105D01*
X013172Y010105D02*
X015355Y010105D01*
X015355Y010223D02*
X013262Y010223D01*
X013285Y010342D02*
X015355Y010342D01*
X015419Y010460D02*
X013257Y010460D01*
X013158Y010579D02*
X015538Y010579D01*
X015656Y010697D02*
X010445Y010697D01*
X010445Y009986D02*
X015355Y009986D01*
X015355Y009868D02*
X010445Y009868D01*
X010445Y009749D02*
X015275Y009749D01*
X015225Y009631D02*
X010445Y009631D01*
X010445Y009512D02*
X015233Y009512D01*
X015303Y009394D02*
X010445Y009394D01*
X011425Y007616D02*
X020889Y007616D01*
X020822Y007498D02*
X011543Y007498D01*
X011662Y007379D02*
X020794Y007379D01*
X020799Y007261D02*
X011780Y007261D01*
X011899Y007142D02*
X020835Y007142D01*
X020915Y007024D02*
X012017Y007024D01*
X012136Y006905D02*
X021095Y006905D01*
X021221Y007972D02*
X021279Y007972D01*
X021279Y008090D02*
X021221Y008090D01*
X021221Y008209D02*
X021279Y008209D01*
X021221Y008364D02*
X020793Y008364D01*
X020793Y008372D01*
X020804Y008443D01*
X020826Y008511D01*
X020859Y008575D01*
X020901Y008633D01*
X020952Y008684D01*
X021010Y008727D01*
X021075Y008759D01*
X021143Y008781D01*
X021214Y008793D01*
X021221Y008793D01*
X021221Y008364D01*
X021221Y008446D02*
X021279Y008446D01*
X021279Y008564D02*
X021221Y008564D01*
X021221Y008683D02*
X021279Y008683D01*
X021550Y008683D02*
X021950Y008683D01*
X021952Y008684D02*
X021901Y008633D01*
X021859Y008575D01*
X021826Y008511D01*
X021804Y008443D01*
X021793Y008372D01*
X021793Y008364D01*
X022221Y008364D01*
X022221Y008793D01*
X022214Y008793D01*
X022143Y008781D01*
X022075Y008759D01*
X022010Y008727D01*
X021952Y008684D01*
X021853Y008564D02*
X021647Y008564D01*
X021695Y008446D02*
X021805Y008446D01*
X022221Y008446D02*
X022279Y008446D01*
X022279Y008564D02*
X022221Y008564D01*
X022221Y008683D02*
X022279Y008683D01*
X022550Y008683D02*
X023305Y008683D01*
X023305Y008801D02*
X017223Y008801D01*
X017275Y008683D02*
X020950Y008683D01*
X020853Y008564D02*
X017268Y008564D01*
X017199Y008446D02*
X020805Y008446D01*
X022279Y008327D02*
X023305Y008327D01*
X023305Y008446D02*
X022695Y008446D01*
X022647Y008564D02*
X023305Y008564D01*
X023595Y008564D02*
X023696Y008564D01*
X023696Y008592D02*
X023723Y008657D01*
X023595Y008786D01*
X023595Y008440D01*
X023937Y008097D01*
X023985Y008117D01*
X023874Y008163D01*
X023759Y008279D01*
X023696Y008429D01*
X023696Y008592D01*
X023698Y008683D02*
X023595Y008683D01*
X023595Y008446D02*
X023696Y008446D01*
X023708Y008327D02*
X023739Y008327D01*
X023826Y008209D02*
X023829Y008209D01*
X023653Y007972D02*
X022527Y007972D01*
X022637Y008090D02*
X023535Y008090D01*
X023416Y008209D02*
X022689Y008209D01*
X022701Y007261D02*
X028590Y007261D01*
X028590Y007379D02*
X025200Y007379D01*
X024924Y007379D02*
X024864Y007379D01*
X025062Y006787D02*
X012254Y006787D01*
X012373Y006668D02*
X024987Y006668D01*
X024975Y006550D02*
X015925Y006550D01*
X016008Y006431D02*
X024083Y006431D01*
X023995Y006313D02*
X016025Y006313D01*
X015989Y006194D02*
X023975Y006194D01*
X024008Y006076D02*
X023889Y006076D01*
X024492Y006076D02*
X025105Y006076D01*
X025105Y006194D02*
X024525Y006194D01*
X024505Y006313D02*
X025105Y006313D01*
X025016Y006431D02*
X024417Y006431D01*
X024584Y005957D02*
X025003Y005957D01*
X024975Y005839D02*
X024702Y005839D01*
X026728Y005246D02*
X028590Y005246D01*
X027027Y004654D02*
X017025Y004654D01*
X017040Y004535D02*
X026978Y004535D01*
X026960Y004417D02*
X017004Y004417D01*
X016940Y004298D02*
X026960Y004298D01*
X026960Y004180D02*
X016940Y004180D01*
X016940Y004061D02*
X027009Y004061D01*
X028183Y002995D02*
X016940Y002995D01*
X016940Y003113D02*
X028301Y003113D01*
X028420Y003232D02*
X016940Y003232D01*
X016940Y003350D02*
X028538Y003350D01*
X028750Y003109D02*
X027910Y002269D01*
X027910Y001336D01*
X028750Y001336D01*
X027910Y001336D01*
X027910Y001454D02*
X028750Y001454D01*
X028750Y001336D02*
X028750Y003109D01*
X028750Y002995D02*
X028635Y002995D01*
X028750Y002876D02*
X028517Y002876D01*
X028398Y002758D02*
X028750Y002758D01*
X028750Y002639D02*
X028280Y002639D01*
X028161Y002521D02*
X028750Y002521D01*
X028750Y002402D02*
X028043Y002402D01*
X027924Y002284D02*
X028750Y002284D01*
X028750Y002165D02*
X027910Y002165D01*
X027910Y002047D02*
X028750Y002047D01*
X028750Y001928D02*
X027910Y001928D01*
X027910Y001810D02*
X028750Y001810D01*
X028750Y001691D02*
X027910Y001691D01*
X027910Y001573D02*
X028750Y001573D01*
X027590Y001573D02*
X007472Y001573D01*
X007407Y001546D02*
X007697Y001666D01*
X007920Y001888D01*
X008040Y002178D01*
X008040Y002493D01*
X007920Y002783D01*
X007697Y003005D01*
X007407Y003126D01*
X007093Y003126D01*
X006803Y003005D01*
X006580Y002783D01*
X006460Y002493D01*
X006460Y002178D01*
X006580Y001888D01*
X006803Y001666D01*
X007093Y001546D01*
X007407Y001546D01*
X007723Y001691D02*
X027590Y001691D01*
X027590Y001810D02*
X007841Y001810D01*
X007936Y001928D02*
X012362Y001928D01*
X012384Y001906D02*
X013116Y001906D01*
X013180Y001970D01*
X013180Y002701D01*
X013116Y002766D01*
X012384Y002766D01*
X012320Y002701D01*
X012320Y001970D01*
X012384Y001906D01*
X012320Y002047D02*
X007985Y002047D01*
X008034Y002165D02*
X010366Y002165D01*
X010383Y002158D02*
X010517Y002158D01*
X010641Y002209D01*
X010736Y002304D01*
X010787Y002428D01*
X010787Y002562D01*
X010736Y002686D01*
X010641Y002781D01*
X010517Y002832D01*
X010383Y002832D01*
X010259Y002781D01*
X010164Y002686D01*
X010113Y002562D01*
X010113Y002428D01*
X010164Y002304D01*
X010259Y002209D01*
X010383Y002158D01*
X010534Y002165D02*
X012320Y002165D01*
X012320Y002284D02*
X010715Y002284D01*
X010776Y002402D02*
X012320Y002402D01*
X012320Y002521D02*
X010787Y002521D01*
X010755Y002639D02*
X012320Y002639D01*
X012376Y002758D02*
X010664Y002758D01*
X010236Y002758D02*
X007930Y002758D01*
X007979Y002639D02*
X010145Y002639D01*
X010113Y002521D02*
X008028Y002521D01*
X008040Y002402D02*
X010124Y002402D01*
X010185Y002284D02*
X008040Y002284D01*
X007827Y002876D02*
X016560Y002876D01*
X016560Y002758D02*
X015936Y002758D01*
X015928Y002766D02*
X015572Y002766D01*
X015320Y002514D01*
X015320Y002157D01*
X015572Y001906D01*
X015928Y001906D01*
X016180Y002157D01*
X016180Y002514D01*
X015928Y002766D01*
X016055Y002639D02*
X016445Y002639D01*
X016327Y002521D02*
X016173Y002521D01*
X016180Y002402D02*
X016320Y002402D01*
X016320Y002284D02*
X016180Y002284D01*
X016180Y002165D02*
X016320Y002165D01*
X016431Y002047D02*
X016069Y002047D01*
X015951Y001928D02*
X016549Y001928D01*
X016951Y001928D02*
X017479Y001928D01*
X017551Y001856D02*
X017270Y002137D01*
X017270Y002296D01*
X017710Y002296D01*
X017710Y002376D01*
X017710Y002816D01*
X017551Y002816D01*
X017270Y002534D01*
X017270Y002376D01*
X017710Y002376D01*
X017790Y002376D01*
X017790Y002816D01*
X017949Y002816D01*
X018230Y002534D01*
X018230Y002376D01*
X017790Y002376D01*
X017790Y002296D01*
X018230Y002296D01*
X018230Y002137D01*
X017949Y001856D01*
X017790Y001856D01*
X017790Y002296D01*
X017710Y002296D01*
X017710Y001856D01*
X017551Y001856D01*
X017710Y001928D02*
X017790Y001928D01*
X017790Y002047D02*
X017710Y002047D01*
X017710Y002165D02*
X017790Y002165D01*
X017790Y002284D02*
X017710Y002284D01*
X017710Y002402D02*
X017790Y002402D01*
X017790Y002521D02*
X017710Y002521D01*
X017710Y002639D02*
X017790Y002639D01*
X017790Y002758D02*
X017710Y002758D01*
X017493Y002758D02*
X016940Y002758D01*
X016940Y002876D02*
X028064Y002876D01*
X027946Y002758D02*
X026936Y002758D01*
X026928Y002766D02*
X026572Y002766D01*
X026320Y002514D01*
X026320Y002157D01*
X026572Y001906D01*
X026928Y001906D01*
X027180Y002157D01*
X027180Y002514D01*
X026928Y002766D01*
X027055Y002639D02*
X027827Y002639D01*
X027709Y002521D02*
X027173Y002521D01*
X027180Y002402D02*
X027590Y002402D01*
X027590Y002284D02*
X027180Y002284D01*
X027180Y002165D02*
X027590Y002165D01*
X027590Y002047D02*
X027069Y002047D01*
X026951Y001928D02*
X027590Y001928D01*
X026549Y001928D02*
X025951Y001928D01*
X025928Y001906D02*
X026180Y002157D01*
X026180Y002514D01*
X025928Y002766D01*
X025572Y002766D01*
X025320Y002514D01*
X025320Y002157D01*
X025572Y001906D01*
X025928Y001906D01*
X026069Y002047D02*
X026431Y002047D01*
X026320Y002165D02*
X026180Y002165D01*
X026180Y002284D02*
X026320Y002284D01*
X026320Y002402D02*
X026180Y002402D01*
X026173Y002521D02*
X026327Y002521D01*
X026445Y002639D02*
X026055Y002639D01*
X025936Y002758D02*
X026564Y002758D01*
X025564Y002758D02*
X024936Y002758D01*
X024928Y002766D02*
X024572Y002766D01*
X024320Y002514D01*
X024320Y002157D01*
X024572Y001906D01*
X024928Y001906D01*
X025180Y002157D01*
X025180Y002514D01*
X024928Y002766D01*
X025055Y002639D02*
X025445Y002639D01*
X025327Y002521D02*
X025173Y002521D01*
X025180Y002402D02*
X025320Y002402D01*
X025320Y002284D02*
X025180Y002284D01*
X025180Y002165D02*
X025320Y002165D01*
X025431Y002047D02*
X025069Y002047D01*
X024951Y001928D02*
X025549Y001928D01*
X024549Y001928D02*
X023951Y001928D01*
X023928Y001906D02*
X024180Y002157D01*
X024180Y002514D01*
X023928Y002766D01*
X023572Y002766D01*
X023320Y002514D01*
X023320Y002157D01*
X023572Y001906D01*
X023928Y001906D01*
X024069Y002047D02*
X024431Y002047D01*
X024320Y002165D02*
X024180Y002165D01*
X024180Y002284D02*
X024320Y002284D01*
X024320Y002402D02*
X024180Y002402D01*
X024173Y002521D02*
X024327Y002521D01*
X024445Y002639D02*
X024055Y002639D01*
X023936Y002758D02*
X024564Y002758D01*
X023564Y002758D02*
X022936Y002758D01*
X022928Y002766D02*
X022572Y002766D01*
X022320Y002514D01*
X022320Y002157D01*
X022572Y001906D01*
X022928Y001906D01*
X023180Y002157D01*
X023180Y002514D01*
X022928Y002766D01*
X023055Y002639D02*
X023445Y002639D01*
X023327Y002521D02*
X023173Y002521D01*
X023180Y002402D02*
X023320Y002402D01*
X023320Y002284D02*
X023180Y002284D01*
X023180Y002165D02*
X023320Y002165D01*
X023431Y002047D02*
X023069Y002047D01*
X022951Y001928D02*
X023549Y001928D01*
X022549Y001928D02*
X022138Y001928D01*
X022116Y001906D02*
X022180Y001970D01*
X022180Y002701D01*
X022116Y002766D01*
X021384Y002766D01*
X021320Y002701D01*
X021320Y001970D01*
X021384Y001906D01*
X022116Y001906D01*
X022180Y002047D02*
X022431Y002047D01*
X022320Y002165D02*
X022180Y002165D01*
X022180Y002284D02*
X022320Y002284D01*
X022320Y002402D02*
X022180Y002402D01*
X022180Y002521D02*
X022327Y002521D01*
X022445Y002639D02*
X022180Y002639D01*
X022124Y002758D02*
X022564Y002758D01*
X021376Y002758D02*
X019936Y002758D01*
X019928Y002766D02*
X019572Y002766D01*
X019320Y002514D01*
X019320Y002157D01*
X019572Y001906D01*
X019928Y001906D01*
X020180Y002157D01*
X020180Y002514D01*
X019928Y002766D01*
X020055Y002639D02*
X021320Y002639D01*
X021320Y002521D02*
X020173Y002521D01*
X020180Y002402D02*
X021320Y002402D01*
X021320Y002284D02*
X020180Y002284D01*
X020180Y002165D02*
X021320Y002165D01*
X021320Y002047D02*
X020069Y002047D01*
X019951Y001928D02*
X021362Y001928D01*
X019549Y001928D02*
X019021Y001928D01*
X018949Y001856D02*
X019230Y002137D01*
X019230Y002296D01*
X018790Y002296D01*
X018790Y002376D01*
X018710Y002376D01*
X018710Y002816D01*
X018551Y002816D01*
X018270Y002534D01*
X018270Y002376D01*
X018710Y002376D01*
X018710Y002296D01*
X018270Y002296D01*
X018270Y002137D01*
X018551Y001856D01*
X018710Y001856D01*
X018710Y002296D01*
X018790Y002296D01*
X018790Y001856D01*
X018949Y001856D01*
X018790Y001928D02*
X018710Y001928D01*
X018710Y002047D02*
X018790Y002047D01*
X018790Y002165D02*
X018710Y002165D01*
X018710Y002284D02*
X018790Y002284D01*
X018790Y002376D02*
X019230Y002376D01*
X019230Y002534D01*
X018949Y002816D01*
X018790Y002816D01*
X018790Y002376D01*
X018790Y002402D02*
X018710Y002402D01*
X018710Y002521D02*
X018790Y002521D01*
X018790Y002639D02*
X018710Y002639D01*
X018710Y002758D02*
X018790Y002758D01*
X019007Y002758D02*
X019564Y002758D01*
X019445Y002639D02*
X019125Y002639D01*
X019230Y002521D02*
X019327Y002521D01*
X019320Y002402D02*
X019230Y002402D01*
X019230Y002284D02*
X019320Y002284D01*
X019320Y002165D02*
X019230Y002165D01*
X019140Y002047D02*
X019431Y002047D01*
X018479Y001928D02*
X018021Y001928D01*
X018140Y002047D02*
X018360Y002047D01*
X018270Y002165D02*
X018230Y002165D01*
X018230Y002284D02*
X018270Y002284D01*
X018270Y002402D02*
X018230Y002402D01*
X018230Y002521D02*
X018270Y002521D01*
X018375Y002639D02*
X018125Y002639D01*
X018007Y002758D02*
X018493Y002758D01*
X017375Y002639D02*
X017055Y002639D01*
X017173Y002521D02*
X017270Y002521D01*
X017270Y002402D02*
X017180Y002402D01*
X017180Y002284D02*
X017270Y002284D01*
X017270Y002165D02*
X017180Y002165D01*
X017069Y002047D02*
X017360Y002047D01*
X016560Y002995D02*
X007708Y002995D01*
X007437Y003113D02*
X016560Y003113D01*
X015564Y002758D02*
X014936Y002758D01*
X014928Y002766D02*
X014572Y002766D01*
X014320Y002514D01*
X014320Y002157D01*
X014572Y001906D01*
X014928Y001906D01*
X015180Y002157D01*
X015180Y002514D01*
X014928Y002766D01*
X015055Y002639D02*
X015445Y002639D01*
X015327Y002521D02*
X015173Y002521D01*
X015180Y002402D02*
X015320Y002402D01*
X015320Y002284D02*
X015180Y002284D01*
X015180Y002165D02*
X015320Y002165D01*
X015431Y002047D02*
X015069Y002047D01*
X014951Y001928D02*
X015549Y001928D01*
X014549Y001928D02*
X013951Y001928D01*
X013928Y001906D02*
X014180Y002157D01*
X014180Y002514D01*
X013928Y002766D01*
X013572Y002766D01*
X013320Y002514D01*
X013320Y002157D01*
X013572Y001906D01*
X013928Y001906D01*
X014069Y002047D02*
X014431Y002047D01*
X014320Y002165D02*
X014180Y002165D01*
X014180Y002284D02*
X014320Y002284D01*
X014320Y002402D02*
X014180Y002402D01*
X014173Y002521D02*
X014327Y002521D01*
X014445Y002639D02*
X014055Y002639D01*
X013936Y002758D02*
X014564Y002758D01*
X013564Y002758D02*
X013124Y002758D01*
X013180Y002639D02*
X013445Y002639D01*
X013327Y002521D02*
X013180Y002521D01*
X013180Y002402D02*
X013320Y002402D01*
X013320Y002284D02*
X013180Y002284D01*
X013180Y002165D02*
X013320Y002165D01*
X013431Y002047D02*
X013180Y002047D01*
X013138Y001928D02*
X013549Y001928D01*
X013253Y005128D02*
X001910Y005128D01*
X001910Y005246D02*
X013134Y005246D01*
X013016Y005365D02*
X001910Y005365D01*
X001910Y004772D02*
X002281Y004772D01*
X002199Y004738D02*
X002066Y004605D01*
X001994Y004430D01*
X001994Y004241D01*
X002066Y004067D01*
X002199Y003933D01*
X002374Y003861D01*
X002563Y003861D01*
X002738Y003933D01*
X002871Y004067D01*
X002943Y004241D01*
X002943Y004430D01*
X002871Y004605D01*
X002738Y004738D01*
X002563Y004811D01*
X002374Y004811D01*
X002199Y004738D01*
X002115Y004654D02*
X001910Y004654D01*
X001910Y004535D02*
X002037Y004535D01*
X001994Y004417D02*
X001910Y004417D01*
X001910Y004298D02*
X001994Y004298D01*
X002019Y004180D02*
X001910Y004180D01*
X001910Y004061D02*
X002071Y004061D01*
X002190Y003943D02*
X001910Y003943D01*
X002747Y003943D02*
X003906Y003943D01*
X003797Y004061D02*
X002866Y004061D01*
X002918Y004180D02*
X003748Y004180D01*
X003726Y004298D02*
X002943Y004298D01*
X002943Y004417D02*
X003726Y004417D01*
X003766Y004535D02*
X002900Y004535D01*
X002822Y004654D02*
X003831Y004654D01*
X003950Y004772D02*
X002656Y004772D01*
X001910Y003113D02*
X007063Y003113D01*
X006792Y002995D02*
X001910Y002995D01*
X001910Y002876D02*
X006673Y002876D01*
X006570Y002758D02*
X001910Y002758D01*
X001910Y002639D02*
X006521Y002639D01*
X006472Y002521D02*
X001910Y002521D01*
X001910Y002402D02*
X006460Y002402D01*
X006460Y002284D02*
X001910Y002284D01*
X001910Y002165D02*
X006466Y002165D01*
X006515Y002047D02*
X001910Y002047D01*
X001910Y001928D02*
X006564Y001928D01*
X006659Y001810D02*
X001910Y001810D01*
X001910Y001691D02*
X006777Y001691D01*
X007028Y001573D02*
X001910Y001573D01*
X012491Y006550D02*
X015575Y006550D01*
X015492Y006431D02*
X012610Y006431D01*
X017619Y009749D02*
X018602Y009749D01*
X018501Y009868D02*
X017737Y009868D01*
X017856Y009986D02*
X018475Y009986D01*
X018502Y010105D02*
X017974Y010105D01*
X018093Y010223D02*
X018605Y010223D01*
X018775Y010342D02*
X018211Y010342D01*
X018330Y010460D02*
X018804Y010460D01*
X018918Y010579D02*
X018448Y010579D01*
X018567Y010697D02*
X019206Y010697D01*
X019325Y010816D02*
X018685Y010816D01*
X018804Y010934D02*
X019443Y010934D01*
X019562Y011053D02*
X018922Y011053D01*
X022102Y012830D02*
X022398Y012830D01*
X022259Y012949D02*
X022241Y012949D01*
X022602Y012830D02*
X022898Y012830D01*
X022759Y012949D02*
X022741Y012949D01*
X023102Y012830D02*
X023733Y012830D01*
X023126Y013778D02*
X018709Y013778D01*
X018628Y013897D02*
X023128Y013897D01*
X023191Y014015D02*
X020085Y014015D01*
X023972Y014252D02*
X024671Y014252D01*
X025263Y011053D02*
X026460Y011053D01*
X026579Y010934D02*
X025304Y010934D01*
X025219Y010341D02*
X026953Y010341D01*
X026919Y010307D01*
X026888Y010231D01*
X025277Y010231D01*
X025241Y010318D01*
X025219Y010341D01*
X025247Y009868D02*
X026918Y009868D01*
X027043Y009749D02*
X025137Y009749D01*
X024500Y009177D02*
X024546Y009066D01*
X024661Y008951D01*
X024773Y008904D01*
X024661Y008858D01*
X024546Y008743D01*
X024500Y008632D01*
X024454Y008743D01*
X024339Y008858D01*
X024227Y008904D01*
X024339Y008951D01*
X024454Y009066D01*
X024500Y009177D01*
X024491Y009157D02*
X024509Y009157D01*
X024574Y009038D02*
X024426Y009038D01*
X024264Y008920D02*
X024736Y008920D01*
X024604Y008801D02*
X024396Y008801D01*
X024479Y008683D02*
X024521Y008683D01*
X024500Y008390D02*
X024546Y008279D01*
X024661Y008163D01*
X024707Y008144D01*
X024653Y008117D01*
X024594Y008074D01*
X024543Y008023D01*
X024500Y007964D01*
X024473Y007910D01*
X024454Y007956D01*
X024339Y008071D01*
X024227Y008117D01*
X024339Y008163D01*
X024454Y008279D01*
X024500Y008390D01*
X024474Y008327D02*
X024526Y008327D01*
X024616Y008209D02*
X024384Y008209D01*
X024292Y008090D02*
X024616Y008090D01*
X024505Y007972D02*
X024438Y007972D01*
X023985Y008904D02*
X023915Y008875D01*
X023795Y008996D01*
X023795Y009030D01*
X023874Y008951D01*
X023985Y008904D01*
X023949Y008920D02*
X023871Y008920D01*
X022664Y007142D02*
X028590Y007142D01*
X028590Y007024D02*
X022585Y007024D01*
X027457Y009749D02*
X028043Y009749D01*
X027918Y009868D02*
X027582Y009868D01*
X027631Y009986D02*
X027869Y009986D01*
X027860Y010105D02*
X027640Y010105D01*
X027615Y010223D02*
X027885Y010223D01*
X027508Y010934D02*
X027031Y010934D01*
X027150Y011053D02*
X027390Y011053D01*
X027325Y011171D02*
X027235Y011171D01*
X028221Y011053D02*
X028590Y011053D01*
X028590Y011171D02*
X028285Y011171D01*
X004250Y010579D02*
X004116Y010579D01*
D25*
X004374Y010836D02*
X003750Y010836D01*
X008250Y015836D02*
X009250Y014836D01*
X008250Y015836D02*
X008250Y016336D01*
X008250Y016836D02*
X008250Y018086D01*
X008500Y018336D01*
X009950Y018336D01*
X010150Y018636D02*
X010300Y018486D01*
X010300Y018136D01*
X010150Y017986D01*
X010150Y008436D01*
X013750Y004836D01*
X023500Y004836D01*
X023750Y005086D01*
X024000Y005086D01*
X024350Y005086D01*
X024750Y005586D02*
X025400Y005586D01*
X025650Y005836D01*
X025250Y005836D02*
X025250Y006586D01*
X024500Y005836D02*
X024750Y005586D01*
X024500Y005836D02*
X023750Y005836D01*
X023750Y005336D02*
X023400Y004986D01*
X013850Y004986D01*
X010300Y008536D01*
X010300Y017936D01*
X010450Y018086D01*
X010450Y018536D01*
X010300Y018686D01*
X010300Y020136D01*
X010750Y020586D01*
X010150Y021336D02*
X010150Y018636D01*
X012750Y018836D02*
X013400Y018836D01*
X014000Y018836D02*
X014000Y019086D01*
X014650Y019736D01*
X014650Y020836D01*
X015150Y021336D01*
X014600Y018836D02*
X014750Y018686D01*
X014750Y018086D01*
X015750Y017336D02*
X013185Y017336D01*
X012750Y017771D01*
X013850Y015836D02*
X014150Y015836D01*
X014200Y015886D01*
X014500Y015886D01*
X014600Y015786D01*
X015200Y015786D01*
X016000Y016586D01*
X016500Y016586D02*
X015500Y015586D01*
X014350Y015586D01*
X015850Y014886D02*
X015850Y014836D01*
X015850Y014886D02*
X016200Y015236D01*
X019400Y015236D01*
X019650Y015486D01*
X019650Y016311D01*
X019400Y016561D01*
X019400Y019136D01*
X019500Y019236D01*
X021000Y018987D02*
X021049Y019036D01*
X021000Y018987D02*
X021000Y015836D01*
X020250Y015086D01*
X017500Y015086D01*
X017250Y014836D01*
X016950Y014586D02*
X018100Y014586D01*
X018200Y014686D01*
X020350Y014686D01*
X022600Y016936D01*
X022600Y018186D01*
X023500Y019086D01*
X025100Y018936D02*
X025100Y017736D01*
X024800Y017436D01*
X023300Y017436D01*
X019950Y014086D01*
X018700Y014086D01*
X018350Y014436D01*
X016650Y014436D01*
X016250Y014836D01*
X016700Y014836D02*
X016950Y014586D01*
X017750Y014836D02*
X020250Y014836D01*
X021500Y016086D01*
X021500Y018086D01*
X021407Y018178D01*
X020500Y016586D02*
X019750Y017336D01*
X019700Y016636D02*
X020300Y016036D01*
X020600Y016036D01*
X019300Y016186D02*
X018650Y016186D01*
X018250Y016586D01*
X016500Y016586D01*
X017500Y017586D02*
X018550Y016536D01*
X019100Y016536D01*
X022750Y015836D02*
X022950Y015636D01*
X024400Y015636D01*
X023400Y014586D02*
X023350Y014636D01*
X023400Y014586D02*
X023400Y013836D01*
X023750Y014086D02*
X024894Y014086D01*
X025250Y013836D02*
X025250Y017271D01*
X025407Y017428D01*
X026000Y019086D02*
X026375Y019461D01*
X026000Y019086D02*
X026000Y013836D01*
X025250Y013086D01*
X023000Y013086D01*
X023000Y013486D02*
X024900Y013486D01*
X025250Y013836D01*
X025080Y011316D02*
X025025Y011261D01*
X018925Y011261D01*
X017000Y009336D01*
X017000Y008636D01*
X015500Y009586D02*
X015500Y010336D01*
X016500Y011336D01*
X018625Y011336D01*
X018775Y011486D01*
X020400Y011486D01*
X020500Y011586D01*
X020525Y011736D01*
X019850Y011136D02*
X019050Y010336D01*
X019075Y009986D02*
X018750Y009986D01*
X019075Y009986D02*
X020075Y010986D01*
X022600Y010986D01*
X023450Y010136D01*
X023450Y008380D01*
X024106Y007723D01*
X024106Y008511D02*
X024075Y008511D01*
X023650Y008936D01*
X023650Y010236D01*
X022750Y011136D01*
X019850Y011136D01*
X024106Y010192D02*
X024106Y010086D01*
X024106Y010192D02*
X024400Y010486D01*
X027850Y010486D01*
X028250Y010086D01*
X027250Y010086D02*
X024894Y010086D01*
X025080Y011316D02*
X026805Y011316D01*
X026250Y005336D02*
X023750Y005336D01*
X026250Y005336D02*
X026500Y005086D01*
X026350Y004936D01*
X005500Y017836D02*
X004875Y018461D01*
X004750Y018336D01*
X004875Y018461D02*
X004700Y018636D01*
X003750Y018636D01*
X003900Y018236D02*
X004750Y017386D01*
X004750Y017336D01*
D26*
X008250Y016336D03*
X008750Y017586D03*
X010750Y011086D03*
X013000Y010336D03*
X004374Y010836D03*
M02*
