%
M48
M72
T01C0.0150
T02C0.0236
T03C0.0354
T04C0.0400
T05C0.1260
T06C0.1300
%
T01
X8297Y6140
X12347Y5090
X12347Y3840
X15847Y5590
X16847Y5590
X16847Y6590
X16847Y7340
X17847Y7340
X17597Y8190
X17147Y8490
X17647Y9140
X17527Y9810
X17447Y10390
X18597Y9540
X19647Y9640
X19597Y10340
X19387Y10710
X19417Y11570
X20547Y12390
X19327Y13110
X18967Y13470
X18347Y12890
X18157Y12490
X17747Y13520
X18357Y14100
X18347Y14520
X18937Y14100
X19767Y14240
X20137Y13810
X20687Y14200
X20997Y14590
X20997Y15040
X21447Y14990
X21947Y14890
X22397Y14840
X23137Y15290
X22847Y15840
X23097Y16590
X23837Y16730
X23697Y17290
X23357Y17590
X24597Y17430
X24927Y17740
X25987Y17590
X25597Y15840
X23847Y15190
X23097Y13810
X22547Y13690
X22247Y13340
X23147Y13240
X22377Y12460
X23097Y12340
X23147Y11390
X23117Y10780
X24097Y10890
X24117Y11530
X24897Y11240
X24267Y12250
X24647Y12490
X24107Y13530
X21967Y15840
X21017Y15820
X21347Y16590
X20547Y16940
X20057Y16590
X19297Y16990
X19747Y17240
X19247Y17590
X18347Y17590
X17627Y16720
X17797Y16140
X18957Y15840
X19907Y15840
X21117Y13810
X20597Y10490
X20597Y9790
X19647Y8840
X19997Y8590
X19647Y7390
X18847Y6590
X18797Y6140
X19597Y5840
X20847Y6090
X20847Y6590
X20847Y7340
X21847Y8140
X22547Y8940
X24097Y9840
X24247Y9190
X24647Y9190
X25047Y9190
X25447Y9190
X25847Y8690
X25447Y8290
X25447Y7890
X25447Y7440
X25047Y7440
X24647Y7440
X24247Y7440
X22847Y7340
X22847Y6590
X22847Y5840
X22847Y3790
X25347Y3340
X13847Y8840
X12847Y7840
X10997Y10390
X14397Y13490
X15297Y14390
X15167Y14950
X15897Y15090
X16337Y15390
X16347Y15840
X15387Y15960
X14597Y15590
X13597Y15840
X13547Y15390
X13097Y14640
X11847Y15790
X12497Y16440
X13247Y16690
X13607Y16370
X13887Y17210
X14847Y17590
X14947Y17090
X13597Y18240
X12097Y17590
X9297Y17090
X9097Y17590
X8447Y16840
X7297Y16290
X6947Y15940
X5897Y15490
X5147Y15490
X6297Y16990
X6747Y16940
X8347Y18590
X4597Y18590
X4597Y19090
X3847Y19590
X1347Y15090
X3347Y13340
X3847Y11990
X5747Y12090
X5297Y9290
X9747Y14340
X16537Y14540
T02
X14847Y19590
X7017Y18470
X24607Y16480
X25597Y16340
X25097Y15090
T03
X2847Y17724
X2847Y19457
T04
X10247Y21340
X11247Y21340
X12247Y21340
X13247Y21340
X14247Y21340
X15247Y21340
X16247Y21340
X17247Y21340
X18847Y21340
X19847Y21340
X20847Y21340
X21847Y21340
X22847Y21340
X23847Y21340
X24847Y21340
X25847Y21340
X25902Y13321
X26902Y13321
X26902Y12321
X25902Y12321
X25902Y11321
X26902Y11321
X25597Y6340
X24597Y6340
X24847Y2340
X23847Y2340
X22847Y2340
X21847Y2340
X20847Y2340
X18847Y2340
X17847Y2340
X16847Y2340
X15847Y2340
X14847Y2340
X13847Y2340
X25847Y2340
X14247Y20090
X13247Y20090
X12247Y20090
T05
X6847Y21340
X26847Y15340
X26847Y4340
T06
X4267Y2640
X5447Y4610
X3087Y4610
M30
