G75*
G70*
%OFA0B0*%
%FSLAX24Y24*%
%IPPOS*%
%LPD*%
%AMOC8*
5,1,8,0,0,1.08239X$1,22.5*
%
%ADD10C,0.0050*%
%ADD11C,0.0040*%
%ADD12C,0.0060*%
%ADD13C,0.0080*%
%ADD14C,0.0100*%
%ADD15C,0.0120*%
%ADD16C,0.0110*%
%ADD17C,0.0030*%
%ADD18C,0.0020*%
%ADD19C,0.0010*%
%ADD20R,0.0059X0.0118*%
%ADD21R,0.0118X0.0118*%
%ADD22R,0.0118X0.0059*%
%ADD23R,0.0384X0.2047*%
%ADD24C,0.0070*%
%ADD25C,0.0004*%
%ADD26C,0.0030*%
D10*
X000137Y002640D02*
X003197Y002640D01*
X001507Y002650D02*
X001507Y006180D01*
X000137Y006180D01*
X000137Y002640D01*
X001507Y006180D02*
X005447Y006180D01*
X005447Y005640D01*
X005447Y003515D02*
X005447Y002640D01*
X005322Y002640D01*
X013610Y003110D02*
X013610Y003335D01*
X013685Y003411D01*
X013835Y003411D01*
X013910Y003335D01*
X013910Y003110D01*
X014060Y003110D02*
X013610Y003110D01*
X013910Y003260D02*
X014060Y003411D01*
X014060Y003571D02*
X014060Y003871D01*
X013985Y004031D02*
X014060Y004106D01*
X014060Y004256D01*
X013985Y004331D01*
X013910Y004331D01*
X013835Y004256D01*
X013835Y004106D01*
X013760Y004031D01*
X013685Y004031D01*
X013610Y004106D01*
X013610Y004256D01*
X013685Y004331D01*
X013610Y004491D02*
X014060Y004491D01*
X014060Y004792D01*
X013835Y004641D02*
X013835Y004491D01*
X013610Y004491D02*
X013610Y004792D01*
X013610Y004952D02*
X013610Y005252D01*
X013610Y005102D02*
X014060Y005102D01*
X014635Y004331D02*
X014710Y004331D01*
X014785Y004256D01*
X014860Y004331D01*
X014935Y004331D01*
X015010Y004256D01*
X015010Y004106D01*
X014935Y004031D01*
X014860Y003871D02*
X014560Y003871D01*
X014635Y004031D02*
X014560Y004106D01*
X014560Y004256D01*
X014635Y004331D01*
X014785Y004256D02*
X014785Y004181D01*
X014860Y003871D02*
X015010Y003721D01*
X014860Y003571D01*
X014560Y003571D01*
X014635Y003411D02*
X014710Y003411D01*
X014785Y003335D01*
X014860Y003411D01*
X014935Y003411D01*
X015010Y003335D01*
X015010Y003185D01*
X014935Y003110D01*
X014785Y003260D02*
X014785Y003335D01*
X014635Y003411D02*
X014560Y003335D01*
X014560Y003185D01*
X014635Y003110D01*
X014060Y003571D02*
X013610Y003571D01*
X013610Y003871D01*
X013835Y003721D02*
X013835Y003571D01*
X015325Y003561D02*
X015325Y003335D01*
X015475Y003411D01*
X015550Y003411D01*
X015625Y003335D01*
X015625Y003185D01*
X015550Y003110D01*
X015400Y003110D01*
X015325Y003185D01*
X015325Y003561D02*
X015625Y003561D01*
X015785Y003561D02*
X015785Y003260D01*
X015935Y003110D01*
X016086Y003260D01*
X016086Y003561D01*
X016706Y003486D02*
X016706Y003185D01*
X016781Y003110D01*
X016931Y003110D01*
X017006Y003185D01*
X017006Y003335D01*
X016856Y003335D01*
X016706Y003486D02*
X016781Y003561D01*
X016931Y003561D01*
X017006Y003486D01*
X017166Y003411D02*
X017391Y003411D01*
X017467Y003335D01*
X017467Y003110D01*
X017627Y003185D02*
X017627Y003335D01*
X017702Y003411D01*
X017927Y003411D01*
X017927Y003561D02*
X017927Y003110D01*
X017702Y003110D01*
X017627Y003185D01*
X017166Y003110D02*
X017166Y003411D01*
X018547Y003561D02*
X018547Y003260D01*
X018698Y003110D01*
X018848Y003260D01*
X018848Y003561D01*
X019008Y003411D02*
X019083Y003411D01*
X019083Y003110D01*
X019008Y003110D02*
X019158Y003110D01*
X019315Y003110D02*
X019315Y003411D01*
X019540Y003411D01*
X019615Y003335D01*
X019615Y003110D01*
X019083Y003561D02*
X019083Y003636D01*
X018697Y004256D02*
X019996Y004256D01*
X019996Y004925D01*
X018697Y004925D01*
X018697Y004256D01*
X020447Y004756D02*
X021746Y004756D01*
X021746Y005425D01*
X020447Y005425D01*
X020447Y004756D01*
X020492Y005961D02*
X021201Y005961D01*
X021201Y007220D01*
X020492Y007220D01*
X020492Y005961D01*
X019201Y005961D02*
X018492Y005961D01*
X018492Y007220D01*
X019201Y007220D01*
X019201Y005961D01*
X017201Y005961D02*
X016492Y005961D01*
X016492Y007220D01*
X017201Y007220D01*
X017201Y005961D01*
X020173Y009319D02*
X020075Y009417D01*
X020472Y009840D02*
X020474Y009862D01*
X020480Y009883D01*
X020489Y009902D01*
X020501Y009920D01*
X020517Y009936D01*
X020534Y009948D01*
X020554Y009957D01*
X020575Y009963D01*
X020597Y009965D01*
X020619Y009963D01*
X020640Y009957D01*
X020659Y009948D01*
X020677Y009936D01*
X020693Y009920D01*
X020705Y009902D01*
X020714Y009883D01*
X020720Y009862D01*
X020722Y009840D01*
X020720Y009818D01*
X020714Y009797D01*
X020705Y009778D01*
X020693Y009760D01*
X020677Y009744D01*
X020660Y009732D01*
X020640Y009723D01*
X020619Y009717D01*
X020597Y009715D01*
X020575Y009717D01*
X020554Y009723D01*
X020534Y009732D01*
X020517Y009744D01*
X020501Y009760D01*
X020489Y009777D01*
X020480Y009797D01*
X020474Y009818D01*
X020472Y009840D01*
X019089Y010303D02*
X018104Y010303D01*
X018104Y011878D01*
X019089Y011878D01*
X019089Y010303D01*
X020075Y012764D02*
X020075Y012862D01*
X020173Y012862D01*
X019451Y015211D02*
X018742Y015211D01*
X018742Y016470D01*
X019451Y016470D01*
X019451Y015211D01*
X021492Y015211D02*
X022201Y015211D01*
X022201Y016470D01*
X021492Y016470D01*
X021492Y015211D01*
X024242Y015211D02*
X024951Y015211D01*
X024951Y016470D01*
X024242Y016470D01*
X024242Y015211D01*
X025492Y016961D02*
X025492Y018220D01*
X026201Y018220D01*
X026201Y016961D01*
X025492Y016961D01*
X023746Y018506D02*
X022447Y018506D01*
X022447Y019175D01*
X023746Y019175D01*
X023746Y018506D01*
X023034Y019701D02*
X022800Y019701D01*
X022800Y020052D01*
X022665Y019935D02*
X022665Y019701D01*
X022665Y019876D02*
X022432Y019876D01*
X022432Y019935D02*
X022549Y020052D01*
X022665Y019935D01*
X022432Y019935D02*
X022432Y019701D01*
X022180Y019701D02*
X022180Y020052D01*
X022064Y020052D02*
X022297Y020052D01*
X021935Y020052D02*
X021818Y020052D01*
X021876Y020052D02*
X021876Y019701D01*
X021818Y019701D02*
X021935Y019701D01*
X021683Y019760D02*
X021683Y019876D01*
X021566Y019876D01*
X021450Y019760D02*
X021508Y019701D01*
X021625Y019701D01*
X021683Y019760D01*
X021450Y019760D02*
X021450Y019993D01*
X021508Y020052D01*
X021625Y020052D01*
X021683Y019993D01*
X021321Y020052D02*
X021204Y020052D01*
X021263Y020052D02*
X021263Y019701D01*
X021321Y019701D02*
X021204Y019701D01*
X021069Y019760D02*
X021069Y019993D01*
X021011Y020052D01*
X020836Y020052D01*
X020836Y019701D01*
X021011Y019701D01*
X021069Y019760D01*
X020996Y019175D02*
X019697Y019175D01*
X019697Y018506D01*
X020996Y018506D01*
X020996Y019175D01*
X018701Y018220D02*
X018701Y016961D01*
X017992Y016961D01*
X017992Y018220D01*
X018701Y018220D01*
X017996Y018756D02*
X016697Y018756D01*
X016697Y019425D01*
X017996Y019425D01*
X017996Y018756D01*
X016246Y018925D02*
X016246Y018256D01*
X014947Y018256D01*
X014947Y018925D01*
X016246Y018925D01*
X015992Y016470D02*
X016701Y016470D01*
X016701Y015211D01*
X015992Y015211D01*
X015992Y016470D01*
X013951Y016470D02*
X013951Y015211D01*
X013242Y015211D01*
X013242Y016470D01*
X013951Y016470D01*
X012451Y016961D02*
X011742Y016961D01*
X011742Y018220D01*
X012451Y018220D01*
X012451Y016961D01*
X010460Y019010D02*
X010160Y019010D01*
X010010Y019160D01*
X010160Y019311D01*
X010460Y019311D01*
X010460Y019471D02*
X010010Y019471D01*
X010010Y019696D01*
X010085Y019771D01*
X010235Y019771D01*
X010310Y019696D01*
X010310Y019471D01*
X010310Y019621D02*
X010460Y019771D01*
X010460Y019931D02*
X010010Y019931D01*
X010010Y020231D01*
X010010Y020391D02*
X010010Y020692D01*
X010235Y020541D02*
X010235Y020391D01*
X010460Y020391D02*
X010010Y020391D01*
X010235Y020081D02*
X010235Y019931D01*
X010460Y019931D02*
X010460Y020231D01*
X010964Y020191D02*
X010964Y020416D01*
X011039Y020491D01*
X011339Y020491D01*
X011414Y020416D01*
X011414Y020191D01*
X010964Y020191D01*
X010964Y020031D02*
X011414Y020031D01*
X010964Y019731D01*
X011414Y019731D01*
X011339Y019571D02*
X011189Y019571D01*
X011189Y019420D01*
X011039Y019270D02*
X011339Y019270D01*
X011414Y019345D01*
X011414Y019495D01*
X011339Y019571D01*
X011039Y019571D02*
X010964Y019495D01*
X010964Y019345D01*
X011039Y019270D01*
X010235Y019311D02*
X010235Y019010D01*
X004146Y020106D02*
X004146Y017075D01*
X000504Y017075D01*
X000504Y020106D01*
X004146Y020106D01*
X002280Y018840D02*
X002280Y018340D01*
X001030Y018090D01*
X001030Y017715D02*
X002030Y017840D01*
X002030Y017340D02*
X001030Y017465D01*
X001030Y017715D01*
X001030Y019090D02*
X002280Y018840D01*
X002030Y019340D02*
X001030Y019465D01*
X001030Y019715D01*
X002030Y019840D01*
X009032Y012900D02*
X009662Y012900D01*
X009662Y011781D02*
X009032Y011781D01*
X022492Y007220D02*
X022492Y005961D01*
X023201Y005961D01*
X023201Y007220D01*
X022492Y007220D01*
X024453Y008094D02*
X024453Y008587D01*
X025240Y008587D01*
X025240Y008094D01*
X024453Y008094D01*
X023618Y009319D02*
X023520Y009319D01*
X023618Y009319D02*
X023618Y009417D01*
X023618Y012764D02*
X023618Y012862D01*
X023520Y012862D01*
D11*
X025476Y014194D02*
X025987Y014194D01*
X025987Y014364D02*
X025987Y014023D01*
X025646Y014023D02*
X025476Y014194D01*
X025766Y018574D02*
X025766Y018754D01*
X025826Y018814D01*
X025946Y018814D01*
X026007Y018754D01*
X026007Y018574D01*
X026127Y018574D02*
X025766Y018574D01*
X026007Y018694D02*
X026127Y018814D01*
X026127Y018942D02*
X025766Y019182D01*
X025766Y018942D02*
X026127Y019182D01*
X025178Y019178D02*
X024818Y018937D01*
X024818Y018809D02*
X024818Y018569D01*
X024818Y018689D02*
X025178Y018689D01*
X025178Y018937D02*
X024818Y019178D01*
X024767Y020210D02*
X025007Y020210D01*
X024887Y020210D02*
X024887Y020571D01*
X024767Y020451D01*
X024007Y020451D02*
X024007Y020511D01*
X023947Y020571D01*
X023827Y020571D01*
X023767Y020511D01*
X024007Y020451D02*
X023767Y020210D01*
X024007Y020210D01*
X023007Y020271D02*
X022947Y020210D01*
X022827Y020210D01*
X022767Y020271D01*
X022887Y020391D02*
X022947Y020391D01*
X023007Y020331D01*
X023007Y020271D01*
X022947Y020391D02*
X023007Y020451D01*
X023007Y020511D01*
X022947Y020571D01*
X022827Y020571D01*
X022767Y020511D01*
X022007Y020391D02*
X021767Y020391D01*
X021947Y020571D01*
X021947Y020210D01*
X021007Y020271D02*
X020947Y020210D01*
X020827Y020210D01*
X020767Y020271D01*
X020767Y020391D02*
X020887Y020451D01*
X020947Y020451D01*
X021007Y020391D01*
X021007Y020271D01*
X020767Y020391D02*
X020767Y020571D01*
X021007Y020571D01*
X020007Y020571D02*
X019887Y020511D01*
X019767Y020391D01*
X019947Y020391D01*
X020007Y020331D01*
X020007Y020271D01*
X019947Y020210D01*
X019827Y020210D01*
X019767Y020271D01*
X019767Y020391D01*
X019007Y020511D02*
X018767Y020271D01*
X018767Y020210D01*
X018767Y020571D02*
X019007Y020571D01*
X019007Y020511D01*
X025767Y020511D02*
X025767Y020271D01*
X026007Y020511D01*
X026007Y020271D01*
X025947Y020210D01*
X025827Y020210D01*
X025767Y020271D01*
X025767Y020511D02*
X025827Y020571D01*
X025947Y020571D01*
X026007Y020511D01*
X012884Y013110D02*
X012577Y013110D01*
X012730Y013110D02*
X012730Y013571D01*
X012577Y013417D01*
X012424Y013494D02*
X012347Y013571D01*
X012193Y013571D01*
X012117Y013494D01*
X012117Y013417D01*
X012193Y013341D01*
X012347Y013341D01*
X012424Y013264D01*
X012424Y013187D01*
X012347Y013110D01*
X012193Y013110D01*
X012117Y013187D01*
X010827Y012630D02*
X010827Y012477D01*
X010750Y012400D01*
X010596Y012400D01*
X010596Y012630D01*
X010673Y012707D01*
X010750Y012707D01*
X010827Y012630D01*
X010596Y012400D02*
X010443Y012554D01*
X010366Y012707D01*
X010366Y012247D02*
X010750Y012247D01*
X010827Y012170D01*
X010827Y012016D01*
X010750Y011940D01*
X010366Y011940D01*
X010867Y015360D02*
X010867Y015721D01*
X011047Y015721D01*
X011107Y015661D01*
X011107Y015541D01*
X011047Y015481D01*
X010867Y015481D01*
X010987Y015481D02*
X011107Y015360D01*
X011235Y015360D02*
X011475Y015721D01*
X011235Y015721D02*
X011475Y015360D01*
X011475Y016110D02*
X011235Y016471D01*
X011107Y016471D02*
X010867Y016471D01*
X010987Y016471D02*
X010987Y016110D01*
X011235Y016110D02*
X011475Y016471D01*
X011107Y017610D02*
X010867Y017610D01*
X010867Y017971D01*
X003713Y013860D02*
X003406Y013860D01*
X003560Y013860D02*
X003560Y014321D01*
X003406Y014167D01*
X003253Y014321D02*
X002946Y014321D01*
X002946Y013860D01*
X002946Y014091D02*
X003099Y014091D01*
X002327Y012251D02*
X002046Y012251D01*
X002186Y012110D01*
X002186Y012297D01*
X002307Y010378D02*
X002307Y010071D01*
X002307Y010224D02*
X001846Y010224D01*
X002000Y010071D01*
X001846Y009917D02*
X001846Y009610D01*
X001846Y009764D02*
X002307Y009764D01*
X004746Y010095D02*
X005027Y010095D01*
X005027Y010188D02*
X005027Y010001D01*
X004840Y010001D02*
X004746Y010095D01*
X004797Y010852D02*
X004750Y010899D01*
X004750Y010992D01*
X004797Y011039D01*
X004844Y011039D01*
X005030Y010852D01*
X005030Y011039D01*
X004980Y011762D02*
X005027Y011809D01*
X005027Y011902D01*
X004980Y011949D01*
X004933Y011949D01*
X004886Y011902D01*
X004886Y011856D01*
X004886Y011902D02*
X004840Y011949D01*
X004793Y011949D01*
X004746Y011902D01*
X004746Y011809D01*
X004793Y011762D01*
X002307Y007378D02*
X002307Y007071D01*
X002307Y007224D02*
X001846Y007224D01*
X002000Y007071D01*
X001846Y006917D02*
X002230Y006917D01*
X002307Y006841D01*
X002307Y006687D01*
X002230Y006610D01*
X001846Y006610D01*
X001730Y006171D02*
X001509Y006171D01*
X001399Y006061D01*
X001399Y005621D01*
X001509Y005510D01*
X001730Y005510D01*
X001840Y005621D01*
X002044Y005510D02*
X002484Y005951D01*
X002484Y006061D01*
X002374Y006171D01*
X002154Y006171D01*
X002044Y006061D01*
X001840Y006061D02*
X001730Y006171D01*
X001195Y006061D02*
X001085Y006171D01*
X000755Y006171D01*
X000755Y005510D01*
X001085Y005510D01*
X001195Y005621D01*
X001195Y006061D01*
X002044Y005510D02*
X002484Y005510D01*
X002688Y005510D02*
X003129Y005510D01*
X003333Y005510D02*
X003333Y006171D01*
X003553Y005951D01*
X003773Y006171D01*
X003773Y005510D01*
X003977Y005510D02*
X003977Y006171D01*
X004198Y005951D01*
X004418Y006171D01*
X004418Y005510D01*
X004622Y005510D02*
X005062Y006171D01*
X004622Y006171D02*
X005062Y005510D01*
X006597Y004480D02*
X006597Y002700D01*
X008097Y002700D02*
X008097Y004480D01*
X008216Y004154D02*
X008677Y004154D01*
X008677Y004307D02*
X008677Y004000D01*
X008600Y003847D02*
X008293Y003847D01*
X008216Y003770D01*
X008216Y003540D01*
X008677Y003540D01*
X008677Y003770D01*
X008600Y003847D01*
X008370Y004000D02*
X008216Y004154D01*
X011617Y003341D02*
X011617Y002957D01*
X011693Y002880D01*
X011847Y002880D01*
X011924Y002957D01*
X011924Y003341D01*
X012077Y003264D02*
X012154Y003341D01*
X012307Y003341D01*
X012384Y003264D01*
X012384Y003187D01*
X012077Y002880D01*
X012384Y002880D01*
X013366Y006006D02*
X013366Y006186D01*
X013426Y006246D01*
X013546Y006246D01*
X013607Y006186D01*
X013607Y006006D01*
X013727Y006006D02*
X013366Y006006D01*
X013366Y006374D02*
X013727Y006374D01*
X013607Y006494D01*
X013727Y006614D01*
X013366Y006614D01*
X013366Y006742D02*
X013366Y006922D01*
X013426Y006982D01*
X013546Y006982D01*
X013607Y006922D01*
X013607Y006742D01*
X013727Y006742D02*
X013366Y006742D01*
X013607Y006862D02*
X013727Y006982D01*
X002909Y006171D02*
X002909Y005510D01*
X002688Y005951D02*
X002909Y006171D01*
X026337Y006080D02*
X026457Y006080D01*
X026397Y006080D02*
X026397Y006441D01*
X026337Y006441D02*
X026457Y006441D01*
X026582Y006381D02*
X026642Y006441D01*
X026762Y006441D01*
X026822Y006381D01*
X026822Y006321D01*
X026582Y006080D01*
X026822Y006080D01*
X026950Y006141D02*
X026950Y006381D01*
X027010Y006441D01*
X027131Y006441D01*
X027191Y006381D01*
X027191Y006141D02*
X027131Y006080D01*
X027010Y006080D01*
X026950Y006141D01*
D12*
X025080Y004304D02*
X025080Y003863D01*
X024787Y004304D01*
X024787Y003863D01*
X024626Y003863D02*
X024480Y003863D01*
X024553Y003863D02*
X024553Y004304D01*
X024480Y004304D02*
X024626Y004304D01*
X023853Y004230D02*
X023779Y004304D01*
X023632Y004304D01*
X023559Y004230D01*
X023559Y003937D01*
X023632Y003863D01*
X023779Y003863D01*
X023853Y003937D01*
X023853Y004083D01*
X023706Y004083D01*
X023392Y003937D02*
X023392Y004230D01*
X023319Y004304D01*
X023172Y004304D01*
X023099Y004230D01*
X023099Y003937D01*
X023172Y003863D01*
X023319Y003863D01*
X023392Y003937D01*
X023784Y003626D02*
X023951Y003626D01*
X024035Y003542D01*
X024035Y003459D01*
X023951Y003375D01*
X024035Y003292D01*
X024035Y003209D01*
X023951Y003125D01*
X023784Y003125D01*
X023701Y003209D01*
X023868Y003375D02*
X023951Y003375D01*
X023701Y003542D02*
X023784Y003626D01*
X023003Y003542D02*
X022920Y003626D01*
X022753Y003626D01*
X022670Y003542D01*
X022638Y003863D02*
X022932Y003863D01*
X022638Y003863D02*
X022638Y004304D01*
X022471Y004157D02*
X022471Y003863D01*
X022471Y004083D02*
X022178Y004083D01*
X022178Y004157D02*
X022325Y004304D01*
X022471Y004157D01*
X022178Y004157D02*
X022178Y003863D01*
X022011Y003863D02*
X022011Y004304D01*
X021718Y004304D02*
X022011Y003863D01*
X021718Y003863D02*
X021718Y004304D01*
X021551Y004157D02*
X021551Y003863D01*
X021551Y004083D02*
X021257Y004083D01*
X021257Y004157D02*
X021404Y004304D01*
X021551Y004157D01*
X021257Y004157D02*
X021257Y003863D01*
X020941Y003542D02*
X020857Y003626D01*
X020691Y003626D01*
X020607Y003542D01*
X020607Y003209D01*
X020941Y003542D01*
X020941Y003209D01*
X020857Y003125D01*
X020691Y003125D01*
X020607Y003209D01*
X021638Y003125D02*
X021972Y003125D01*
X021805Y003125D02*
X021805Y003626D01*
X021638Y003459D01*
X022670Y003125D02*
X023003Y003459D01*
X023003Y003542D01*
X023003Y003125D02*
X022670Y003125D01*
X024732Y003375D02*
X025066Y003375D01*
X024982Y003125D02*
X024982Y003626D01*
X024732Y003375D01*
X025763Y003375D02*
X025930Y003459D01*
X026014Y003459D01*
X026097Y003375D01*
X026097Y003209D01*
X026014Y003125D01*
X025847Y003125D01*
X025763Y003209D01*
X025763Y003375D02*
X025763Y003626D01*
X026097Y003626D01*
X025652Y010821D02*
X027152Y010821D01*
X027402Y011071D01*
X027402Y011571D01*
X027152Y011821D01*
X025652Y011821D01*
X025402Y011571D01*
X025402Y011071D01*
X025652Y010821D01*
X025332Y010810D02*
X025332Y010977D01*
X025332Y010894D02*
X024831Y010894D01*
X024831Y010977D02*
X024831Y010810D01*
X024915Y011154D02*
X025248Y011154D01*
X025332Y011237D01*
X025332Y011404D01*
X025248Y011487D01*
X025248Y011669D02*
X025332Y011753D01*
X025332Y011920D01*
X025248Y012003D01*
X025165Y012003D01*
X025082Y011920D01*
X025082Y011753D01*
X024998Y011669D01*
X024915Y011669D01*
X024831Y011753D01*
X024831Y011920D01*
X024915Y012003D01*
X024831Y012185D02*
X024831Y012435D01*
X024915Y012519D01*
X025082Y012519D01*
X025165Y012435D01*
X025165Y012185D01*
X025332Y012185D02*
X024831Y012185D01*
X025402Y012071D02*
X025402Y012571D01*
X025652Y012821D01*
X027152Y012821D01*
X027402Y012571D01*
X027402Y012071D01*
X027152Y011821D01*
X027152Y012821D02*
X027402Y013071D01*
X027402Y013571D01*
X027152Y013821D01*
X025652Y013821D01*
X025402Y013571D01*
X025402Y013071D01*
X025652Y012821D01*
X025402Y012071D02*
X025652Y011821D01*
X024915Y011487D02*
X024831Y011404D01*
X024831Y011237D01*
X024915Y011154D01*
X015530Y009515D02*
X015530Y009408D01*
X015530Y009515D02*
X015423Y009622D01*
X014890Y009622D01*
X014890Y009301D01*
X014996Y009195D01*
X015210Y009195D01*
X015317Y009301D01*
X015317Y009622D01*
X015317Y009839D02*
X015317Y010159D01*
X015210Y010266D01*
X014783Y010266D01*
X014676Y010159D01*
X014676Y009839D01*
X015317Y009839D01*
X015210Y010484D02*
X014890Y010484D01*
X015210Y010484D02*
X015317Y010590D01*
X015317Y010911D01*
X014890Y010911D01*
X014890Y011128D02*
X014890Y011235D01*
X015317Y011235D01*
X015317Y011128D02*
X015317Y011342D01*
X015317Y011558D02*
X014890Y011558D01*
X014890Y011878D01*
X014996Y011985D01*
X015317Y011985D01*
X015210Y012202D02*
X015317Y012309D01*
X015317Y012523D01*
X015210Y012629D01*
X014996Y012629D01*
X014890Y012523D01*
X014890Y012309D01*
X014996Y012202D01*
X015210Y012202D01*
X014676Y011235D02*
X014569Y011235D01*
X014569Y008872D02*
X014676Y008872D01*
X014890Y008872D02*
X014890Y008765D01*
X014890Y008872D02*
X015317Y008872D01*
X015317Y008765D02*
X015317Y008979D01*
X015317Y008547D02*
X015317Y008120D01*
X015210Y008120D01*
X014783Y008547D01*
X014676Y008547D01*
X014676Y008120D01*
D13*
X001415Y000345D02*
X001345Y000415D01*
X001345Y000625D01*
X001485Y000415D02*
X001415Y000345D01*
X001485Y000415D02*
X001555Y000345D01*
X001625Y000415D01*
X001625Y000625D01*
X001806Y000625D02*
X001806Y000415D01*
X001876Y000345D01*
X001946Y000415D01*
X002016Y000345D01*
X002086Y000415D01*
X002086Y000625D01*
X002266Y000625D02*
X002266Y000415D01*
X002336Y000345D01*
X002406Y000415D01*
X002476Y000345D01*
X002546Y000415D01*
X002546Y000625D01*
X002726Y000415D02*
X002796Y000415D01*
X002796Y000345D01*
X002726Y000345D01*
X002726Y000415D01*
X002956Y000345D02*
X003097Y000345D01*
X003026Y000345D02*
X003026Y000765D01*
X002956Y000765D01*
X003263Y000555D02*
X003263Y000415D01*
X003333Y000345D01*
X003473Y000345D01*
X003544Y000415D01*
X003544Y000555D01*
X003473Y000625D01*
X003333Y000625D01*
X003263Y000555D01*
X003724Y000555D02*
X003724Y000415D01*
X003794Y000345D01*
X004004Y000345D01*
X004004Y000275D02*
X004004Y000625D01*
X003794Y000625D01*
X003724Y000555D01*
X004004Y000275D02*
X003934Y000205D01*
X003864Y000205D01*
X004184Y000415D02*
X004254Y000345D01*
X004394Y000345D01*
X004464Y000415D01*
X004464Y000555D01*
X004394Y000625D01*
X004254Y000625D01*
X004184Y000555D01*
X004184Y000415D01*
X004644Y000345D02*
X004855Y000345D01*
X004925Y000415D01*
X004855Y000485D01*
X004714Y000485D01*
X004644Y000555D01*
X004714Y000625D01*
X004925Y000625D01*
X005105Y000555D02*
X005385Y000555D01*
X005565Y000555D02*
X005565Y000415D01*
X005635Y000345D01*
X005775Y000345D01*
X005845Y000485D02*
X005565Y000485D01*
X005565Y000555D02*
X005635Y000625D01*
X005775Y000625D01*
X005845Y000555D01*
X005845Y000485D01*
X006025Y000345D02*
X006166Y000345D01*
X006095Y000345D02*
X006095Y000765D01*
X006025Y000765D01*
X006332Y000555D02*
X006402Y000625D01*
X006542Y000625D01*
X006613Y000555D01*
X006613Y000485D01*
X006332Y000485D01*
X006332Y000415D02*
X006332Y000555D01*
X006332Y000415D02*
X006402Y000345D01*
X006542Y000345D01*
X006793Y000415D02*
X006863Y000345D01*
X007073Y000345D01*
X007323Y000415D02*
X007393Y000345D01*
X007323Y000415D02*
X007323Y000695D01*
X007253Y000625D02*
X007393Y000625D01*
X007560Y000625D02*
X007560Y000345D01*
X007560Y000485D02*
X007700Y000625D01*
X007770Y000625D01*
X007944Y000555D02*
X007944Y000415D01*
X008014Y000345D01*
X008154Y000345D01*
X008224Y000415D01*
X008224Y000555D01*
X008154Y000625D01*
X008014Y000625D01*
X007944Y000555D01*
X008404Y000415D02*
X008474Y000415D01*
X008474Y000345D01*
X008404Y000345D01*
X008404Y000415D01*
X008634Y000415D02*
X008634Y000555D01*
X008704Y000625D01*
X008914Y000625D01*
X009094Y000555D02*
X009094Y000415D01*
X009164Y000345D01*
X009305Y000345D01*
X009375Y000415D01*
X009375Y000555D01*
X009305Y000625D01*
X009164Y000625D01*
X009094Y000555D01*
X008914Y000345D02*
X008704Y000345D01*
X008634Y000415D01*
X009555Y000345D02*
X009555Y000625D01*
X009625Y000625D01*
X009695Y000555D01*
X009765Y000625D01*
X009835Y000555D01*
X009835Y000345D01*
X009695Y000345D02*
X009695Y000555D01*
X010015Y000345D02*
X010295Y000765D01*
X010475Y000625D02*
X010756Y000625D01*
X010475Y000345D01*
X010756Y000345D01*
X010936Y000345D02*
X011076Y000345D01*
X011006Y000345D02*
X011006Y000625D01*
X010936Y000625D01*
X011006Y000765D02*
X011006Y000835D01*
X011243Y000555D02*
X011243Y000415D01*
X011313Y000345D01*
X011523Y000345D01*
X011523Y000275D02*
X011523Y000625D01*
X011313Y000625D01*
X011243Y000555D01*
X011523Y000275D02*
X011453Y000205D01*
X011383Y000205D01*
X011703Y000415D02*
X011703Y000555D01*
X011773Y000625D01*
X011983Y000625D01*
X011983Y000765D02*
X011983Y000345D01*
X011773Y000345D01*
X011703Y000415D01*
X012163Y000415D02*
X012163Y000625D01*
X012163Y000415D02*
X012233Y000345D01*
X012444Y000345D01*
X012444Y000625D01*
X012624Y000625D02*
X012694Y000625D01*
X012694Y000345D01*
X012624Y000345D02*
X012764Y000345D01*
X012931Y000345D02*
X012931Y000625D01*
X013141Y000625D01*
X013211Y000555D01*
X013211Y000345D01*
X013391Y000415D02*
X013391Y000555D01*
X013461Y000625D01*
X013601Y000625D01*
X013671Y000555D01*
X013671Y000415D01*
X013601Y000345D01*
X013461Y000345D01*
X013391Y000415D01*
X012694Y000765D02*
X012694Y000835D01*
X011887Y003640D02*
X009306Y003640D01*
X009306Y005040D01*
X011887Y005040D01*
X011887Y003640D01*
X007740Y003514D02*
X006953Y003514D01*
X007347Y003917D01*
X007740Y003514D01*
X007073Y000625D02*
X006863Y000625D01*
X006793Y000555D01*
X006793Y000415D01*
X004047Y007050D02*
X002647Y007050D01*
X002647Y009631D01*
X004047Y009631D01*
X004047Y007050D01*
X004047Y010050D02*
X002647Y010050D01*
X002647Y012630D01*
X004047Y012630D01*
X004047Y010050D01*
X004839Y015317D02*
X008854Y015317D01*
X008854Y017364D01*
X004839Y017364D01*
X012104Y012681D02*
X012104Y011500D01*
X013089Y011500D02*
X013089Y012681D01*
D14*
X005847Y015390D02*
X005847Y017290D01*
X005897Y016540D02*
X005925Y016535D01*
X005953Y016526D01*
X005979Y016514D01*
X006003Y016499D01*
X006025Y016481D01*
X006045Y016460D01*
X006062Y016437D01*
X006076Y016412D01*
X006087Y016386D01*
X006094Y016358D01*
X006098Y016329D01*
X006098Y016301D01*
X006094Y016272D01*
X006087Y016244D01*
X006076Y016218D01*
X006062Y016193D01*
X006045Y016170D01*
X006025Y016149D01*
X006003Y016131D01*
X005979Y016116D01*
X005953Y016104D01*
X005925Y016095D01*
X005897Y016090D01*
X009747Y020840D02*
X016747Y020840D01*
X016747Y021840D01*
X017747Y021840D02*
X009747Y021840D01*
X009747Y020840D01*
X011747Y020590D02*
X011747Y019590D01*
X014747Y019590D01*
X014747Y020590D01*
X012747Y020590D01*
X012747Y019590D01*
X012747Y020590D02*
X011747Y020590D01*
X016747Y020840D02*
X017747Y020840D01*
X017747Y021840D01*
X018347Y021840D02*
X026347Y021840D01*
X026347Y020840D01*
X025347Y020840D01*
X025347Y021840D01*
X025347Y020840D02*
X018347Y020840D01*
X018347Y021840D01*
X024097Y006840D02*
X024097Y005840D01*
X025097Y005840D01*
X025097Y006840D01*
X024097Y006840D02*
X026097Y006840D01*
X026097Y005840D01*
X025097Y005840D01*
X026347Y002840D02*
X021347Y002840D01*
X021347Y001840D01*
X020347Y001840D02*
X020347Y002840D01*
X021347Y002840D01*
X020347Y001840D02*
X026347Y001840D01*
X026347Y002840D01*
X019347Y002840D02*
X019347Y001840D01*
X013347Y001840D01*
X013347Y002840D01*
X014347Y002840D01*
X014347Y001840D01*
X014347Y002840D02*
X019347Y002840D01*
D15*
X024497Y019390D02*
X024847Y019790D01*
X025197Y019390D01*
X024497Y019390D01*
X024647Y019540D02*
X024847Y019740D01*
X024997Y019490D01*
X024697Y019490D01*
X024897Y019640D01*
X025547Y019790D02*
X025897Y019390D01*
X026247Y019790D01*
X025547Y019790D01*
X025697Y019690D02*
X026097Y019690D01*
X025897Y019490D01*
X025747Y019790D01*
X025947Y019790D01*
X025897Y019690D02*
X025897Y019640D01*
D16*
X025443Y001030D02*
X025541Y000932D01*
X025148Y000538D01*
X025246Y000440D01*
X025443Y000440D01*
X025541Y000538D01*
X025541Y000932D01*
X025443Y001030D02*
X025246Y001030D01*
X025148Y000932D01*
X025148Y000538D01*
X024924Y000538D02*
X024924Y000440D01*
X024825Y000440D01*
X024825Y000538D01*
X024924Y000538D01*
X024575Y000538D02*
X024476Y000440D01*
X024279Y000440D01*
X024181Y000538D01*
X024378Y000735D02*
X024476Y000735D01*
X024575Y000637D01*
X024575Y000538D01*
X024476Y000735D02*
X024575Y000834D01*
X024575Y000932D01*
X024476Y001030D01*
X024279Y001030D01*
X024181Y000932D01*
X023286Y000834D02*
X023286Y000440D01*
X023286Y000735D02*
X022892Y000735D01*
X022892Y000834D02*
X023089Y001030D01*
X023286Y000834D01*
X022892Y000834D02*
X022892Y000440D01*
X022641Y000538D02*
X022543Y000440D01*
X022346Y000440D01*
X022247Y000538D01*
X022346Y000735D02*
X022543Y000735D01*
X022641Y000637D01*
X022641Y000538D01*
X022346Y000735D02*
X022247Y000834D01*
X022247Y000932D01*
X022346Y001030D01*
X022543Y001030D01*
X022641Y000932D01*
X021996Y000735D02*
X021603Y000735D01*
X021352Y000932D02*
X021352Y001030D01*
X021352Y000932D02*
X021155Y000735D01*
X021155Y000440D01*
X020707Y000538D02*
X020609Y000440D01*
X020314Y000440D01*
X020314Y001030D01*
X020609Y001030D01*
X020707Y000932D01*
X020707Y000834D01*
X020609Y000735D01*
X020314Y000735D01*
X020609Y000735D02*
X020707Y000637D01*
X020707Y000538D01*
X020958Y000932D02*
X021155Y000735D01*
X020958Y000932D02*
X020958Y001030D01*
X019418Y000932D02*
X019320Y001030D01*
X019123Y001030D01*
X019025Y000932D01*
X019025Y000538D01*
X019123Y000440D01*
X019320Y000440D01*
X019418Y000538D01*
X018774Y000538D02*
X018675Y000440D01*
X018479Y000440D01*
X018380Y000538D01*
X018380Y000932D01*
X018479Y001030D01*
X018675Y001030D01*
X018774Y000932D01*
D17*
X015783Y006105D02*
X015832Y006154D01*
X015783Y006202D01*
X015832Y006251D01*
X015783Y006299D01*
X015638Y006299D01*
X015638Y006400D02*
X015783Y006400D01*
X015832Y006448D01*
X015783Y006497D01*
X015832Y006545D01*
X015783Y006594D01*
X015638Y006594D01*
X015638Y006695D02*
X015783Y006695D01*
X015832Y006743D01*
X015783Y006791D01*
X015832Y006840D01*
X015783Y006888D01*
X015638Y006888D01*
X015783Y006989D02*
X015783Y007038D01*
X015832Y007038D01*
X015832Y006989D01*
X015783Y006989D01*
X015832Y007137D02*
X015832Y007233D01*
X015832Y007185D02*
X015541Y007185D01*
X015541Y007137D01*
X015686Y007333D02*
X015783Y007333D01*
X015832Y007381D01*
X015832Y007478D01*
X015783Y007527D01*
X015686Y007527D01*
X015638Y007478D01*
X015638Y007381D01*
X015686Y007333D01*
X015686Y007628D02*
X015783Y007628D01*
X015832Y007676D01*
X015832Y007821D01*
X015880Y007821D02*
X015638Y007821D01*
X015638Y007676D01*
X015686Y007628D01*
X015928Y007725D02*
X015928Y007773D01*
X015880Y007821D01*
X015783Y007922D02*
X015832Y007971D01*
X015832Y008068D01*
X015783Y008116D01*
X015686Y008116D01*
X015638Y008068D01*
X015638Y007971D01*
X015686Y007922D01*
X015783Y007922D01*
X015832Y008217D02*
X015832Y008362D01*
X015783Y008411D01*
X015735Y008362D01*
X015735Y008265D01*
X015686Y008217D01*
X015638Y008265D01*
X015638Y008411D01*
X015686Y008512D02*
X015686Y008705D01*
X015686Y008806D02*
X015638Y008855D01*
X015638Y008951D01*
X015686Y009000D01*
X015735Y009000D01*
X015735Y008806D01*
X015783Y008806D02*
X015686Y008806D01*
X015783Y008806D02*
X015832Y008855D01*
X015832Y008951D01*
X015832Y009101D02*
X015832Y009198D01*
X015832Y009149D02*
X015541Y009149D01*
X015541Y009101D01*
X015686Y009297D02*
X015638Y009346D01*
X015638Y009443D01*
X015686Y009491D01*
X015735Y009491D01*
X015735Y009297D01*
X015783Y009297D02*
X015686Y009297D01*
X015783Y009297D02*
X015832Y009346D01*
X015832Y009443D01*
X015783Y009592D02*
X015832Y009640D01*
X015832Y009786D01*
X015783Y009935D02*
X015590Y009935D01*
X015638Y009887D02*
X015638Y009983D01*
X015638Y010083D02*
X015832Y010083D01*
X015735Y010083D02*
X015638Y010180D01*
X015638Y010228D01*
X015686Y010329D02*
X015783Y010329D01*
X015832Y010377D01*
X015832Y010474D01*
X015783Y010522D01*
X015686Y010522D01*
X015638Y010474D01*
X015638Y010377D01*
X015686Y010329D01*
X015832Y009983D02*
X015783Y009935D01*
X015638Y009786D02*
X015638Y009640D01*
X015686Y009592D01*
X015783Y009592D01*
X015783Y010623D02*
X015783Y010672D01*
X015832Y010672D01*
X015832Y010623D01*
X015783Y010623D01*
X015783Y010771D02*
X015832Y010819D01*
X015832Y010964D01*
X015783Y011065D02*
X015832Y011114D01*
X015832Y011210D01*
X015783Y011259D01*
X015686Y011259D01*
X015638Y011210D01*
X015638Y011114D01*
X015686Y011065D01*
X015783Y011065D01*
X015638Y010964D02*
X015638Y010819D01*
X015686Y010771D01*
X015783Y010771D01*
X015832Y011360D02*
X015638Y011360D01*
X015638Y011408D01*
X015686Y011457D01*
X015638Y011505D01*
X015686Y011553D01*
X015832Y011553D01*
X015832Y011457D02*
X015686Y011457D01*
X015832Y011655D02*
X015541Y011848D01*
X015638Y011949D02*
X015638Y012143D01*
X015832Y011949D01*
X015832Y012143D01*
X015832Y012244D02*
X015832Y012341D01*
X015832Y012292D02*
X015638Y012292D01*
X015638Y012244D01*
X015541Y012292D02*
X015493Y012292D01*
X015686Y012440D02*
X015783Y012440D01*
X015832Y012489D01*
X015832Y012634D01*
X015880Y012634D02*
X015638Y012634D01*
X015638Y012489D01*
X015686Y012440D01*
X015928Y012537D02*
X015928Y012585D01*
X015880Y012634D01*
X015783Y012735D02*
X015686Y012735D01*
X015638Y012783D01*
X015638Y012928D01*
X015541Y012928D02*
X015832Y012928D01*
X015832Y012783D01*
X015783Y012735D01*
X015783Y013030D02*
X015832Y013078D01*
X015832Y013223D01*
X015638Y013223D01*
X015638Y013324D02*
X015638Y013373D01*
X015832Y013373D01*
X015832Y013421D02*
X015832Y013324D01*
X015832Y013521D02*
X015638Y013521D01*
X015638Y013666D01*
X015686Y013714D01*
X015832Y013714D01*
X015783Y013815D02*
X015832Y013864D01*
X015832Y013960D01*
X015783Y014009D01*
X015686Y014009D01*
X015638Y013960D01*
X015638Y013864D01*
X015686Y013815D01*
X015783Y013815D01*
X015541Y013373D02*
X015493Y013373D01*
X015638Y013030D02*
X015783Y013030D01*
X018324Y011188D02*
X018324Y010994D01*
X018373Y010946D01*
X018469Y010946D01*
X018518Y010994D01*
X018518Y011188D01*
X018469Y011236D01*
X018373Y011236D01*
X018324Y011188D01*
X018421Y011043D02*
X018518Y010946D01*
X018619Y010946D02*
X018812Y010946D01*
X018716Y010946D02*
X018716Y011236D01*
X018619Y011139D01*
X015783Y006105D02*
X015638Y006105D01*
X014332Y018855D02*
X014332Y019102D01*
X014332Y019224D02*
X014332Y019471D01*
X014332Y019347D02*
X013961Y019347D01*
X014085Y019224D01*
X013961Y018979D02*
X014332Y018979D01*
X014085Y018855D02*
X013961Y018979D01*
X013332Y018979D02*
X012961Y018979D01*
X013085Y018855D01*
X013332Y018855D02*
X013332Y019102D01*
X013332Y019224D02*
X013085Y019471D01*
X013023Y019471D01*
X012961Y019409D01*
X012961Y019285D01*
X013023Y019224D01*
X013332Y019224D02*
X013332Y019471D01*
X012332Y019409D02*
X012332Y019285D01*
X012270Y019224D01*
X012332Y019102D02*
X012332Y018855D01*
X012332Y018979D02*
X011961Y018979D01*
X012085Y018855D01*
X012023Y019224D02*
X011961Y019285D01*
X011961Y019409D01*
X012023Y019471D01*
X012085Y019471D01*
X012146Y019409D01*
X012208Y019471D01*
X012270Y019471D01*
X012332Y019409D01*
X012146Y019409D02*
X012146Y019347D01*
X014972Y020355D02*
X015218Y020355D01*
X015095Y020355D02*
X015095Y020726D01*
X014972Y020602D01*
X015340Y020664D02*
X015340Y020417D01*
X015587Y020664D01*
X015587Y020417D01*
X015525Y020355D01*
X015402Y020355D01*
X015340Y020417D01*
X015340Y020664D02*
X015402Y020726D01*
X015525Y020726D01*
X015587Y020664D01*
X016112Y020664D02*
X016112Y020602D01*
X016173Y020541D01*
X016358Y020541D01*
X016358Y020664D02*
X016297Y020726D01*
X016173Y020726D01*
X016112Y020664D01*
X016358Y020664D02*
X016358Y020417D01*
X016297Y020355D01*
X016173Y020355D01*
X016112Y020417D01*
X016862Y020417D02*
X016862Y020479D01*
X016923Y020541D01*
X017047Y020541D01*
X017108Y020479D01*
X017108Y020417D01*
X017047Y020355D01*
X016923Y020355D01*
X016862Y020417D01*
X016923Y020541D02*
X016862Y020602D01*
X016862Y020664D01*
X016923Y020726D01*
X017047Y020726D01*
X017108Y020664D01*
X017108Y020602D01*
X017047Y020541D01*
D18*
X018144Y019580D02*
X018181Y019617D01*
X018217Y019617D01*
X018254Y019580D01*
X018291Y019617D01*
X018327Y019617D01*
X018364Y019580D01*
X018364Y019507D01*
X018327Y019470D01*
X018364Y019396D02*
X018364Y019249D01*
X018364Y019322D02*
X018144Y019322D01*
X018217Y019249D01*
X018181Y019175D02*
X018254Y019175D01*
X018291Y019138D01*
X018291Y019028D01*
X018364Y019028D02*
X018144Y019028D01*
X018144Y019138D01*
X018181Y019175D01*
X018291Y019101D02*
X018364Y019175D01*
X018181Y019470D02*
X018144Y019507D01*
X018144Y019580D01*
X018254Y019580D02*
X018254Y019543D01*
X016614Y019080D02*
X016577Y019117D01*
X016541Y019117D01*
X016504Y019080D01*
X016504Y018970D01*
X016577Y018970D01*
X016614Y019007D01*
X016614Y019080D01*
X016504Y018970D02*
X016431Y019043D01*
X016394Y019117D01*
X016394Y018822D02*
X016614Y018822D01*
X016614Y018749D02*
X016614Y018896D01*
X016467Y018749D02*
X016394Y018822D01*
X016431Y018675D02*
X016504Y018675D01*
X016541Y018638D01*
X016541Y018528D01*
X016614Y018528D02*
X016394Y018528D01*
X016394Y018638D01*
X016431Y018675D01*
X016541Y018601D02*
X016614Y018675D01*
X017549Y017599D02*
X017549Y017452D01*
X017549Y017525D02*
X017329Y017525D01*
X017402Y017452D01*
X017329Y017304D02*
X017549Y017304D01*
X017549Y017231D02*
X017549Y017378D01*
X017402Y017231D02*
X017329Y017304D01*
X017366Y017157D02*
X017329Y017120D01*
X017329Y017010D01*
X017549Y017010D01*
X017549Y017120D01*
X017513Y017157D01*
X017366Y017157D01*
X015549Y015812D02*
X015549Y015739D01*
X015513Y015702D01*
X015366Y015849D01*
X015513Y015849D01*
X015549Y015812D01*
X015513Y015702D02*
X015366Y015702D01*
X015329Y015739D01*
X015329Y015812D01*
X015366Y015849D01*
X015549Y015628D02*
X015549Y015481D01*
X015549Y015554D02*
X015329Y015554D01*
X015402Y015481D01*
X015366Y015407D02*
X015329Y015370D01*
X015329Y015260D01*
X015549Y015260D01*
X015549Y015370D01*
X015513Y015407D01*
X015366Y015407D01*
X014614Y015778D02*
X014614Y015888D01*
X014577Y015925D01*
X014431Y015925D01*
X014394Y015888D01*
X014394Y015778D01*
X014614Y015778D01*
X014614Y015999D02*
X014614Y016146D01*
X014614Y016072D02*
X014394Y016072D01*
X014467Y015999D01*
X014431Y016220D02*
X014394Y016257D01*
X014394Y016330D01*
X014431Y016367D01*
X014467Y016367D01*
X014614Y016220D01*
X014614Y016367D01*
X013114Y017528D02*
X013114Y017638D01*
X013077Y017675D01*
X012931Y017675D01*
X012894Y017638D01*
X012894Y017528D01*
X013114Y017528D01*
X013114Y017749D02*
X013114Y017896D01*
X013114Y017822D02*
X012894Y017822D01*
X012967Y017749D01*
X012931Y017970D02*
X012894Y018007D01*
X012894Y018080D01*
X012931Y018117D01*
X012967Y018117D01*
X013004Y018080D01*
X013041Y018117D01*
X013077Y018117D01*
X013114Y018080D01*
X013114Y018007D01*
X013077Y017970D01*
X013004Y018043D02*
X013004Y018080D01*
X019894Y016367D02*
X019931Y016293D01*
X020004Y016220D01*
X020004Y016330D01*
X020041Y016367D01*
X020077Y016367D01*
X020114Y016330D01*
X020114Y016257D01*
X020077Y016220D01*
X020004Y016220D01*
X020077Y016146D02*
X019931Y016146D01*
X019894Y016109D01*
X019894Y015999D01*
X020114Y015999D01*
X020114Y016109D01*
X020077Y016146D01*
X020829Y015628D02*
X020829Y015481D01*
X020939Y015481D01*
X020902Y015554D01*
X020902Y015591D01*
X020939Y015628D01*
X021013Y015628D01*
X021049Y015591D01*
X021049Y015518D01*
X021013Y015481D01*
X021013Y015407D02*
X020866Y015407D01*
X020829Y015370D01*
X020829Y015260D01*
X021049Y015260D01*
X021049Y015370D01*
X021013Y015407D01*
X023579Y015370D02*
X023579Y015260D01*
X023799Y015260D01*
X023799Y015370D01*
X023763Y015407D01*
X023616Y015407D01*
X023579Y015370D01*
X023616Y015481D02*
X023579Y015518D01*
X023579Y015591D01*
X023616Y015628D01*
X023652Y015628D01*
X023799Y015481D01*
X023799Y015628D01*
X025625Y016633D02*
X025735Y016633D01*
X025772Y016670D01*
X025772Y016817D01*
X025735Y016853D01*
X025625Y016853D01*
X025625Y016633D01*
X025846Y016743D02*
X025993Y016743D01*
X025956Y016633D02*
X025956Y016853D01*
X025846Y016743D01*
X024114Y018778D02*
X023894Y018778D01*
X023894Y018888D01*
X023931Y018925D01*
X024004Y018925D01*
X024041Y018888D01*
X024041Y018778D01*
X024041Y018851D02*
X024114Y018925D01*
X024114Y018999D02*
X024114Y019146D01*
X024114Y019072D02*
X023894Y019072D01*
X023967Y018999D01*
X024004Y019220D02*
X023967Y019293D01*
X023967Y019330D01*
X024004Y019367D01*
X024077Y019367D01*
X024114Y019330D01*
X024114Y019257D01*
X024077Y019220D01*
X024004Y019220D02*
X023894Y019220D01*
X023894Y019367D01*
X021364Y019330D02*
X021144Y019330D01*
X021254Y019220D01*
X021254Y019367D01*
X021364Y019146D02*
X021364Y018999D01*
X021364Y019072D02*
X021144Y019072D01*
X021217Y018999D01*
X021181Y018925D02*
X021254Y018925D01*
X021291Y018888D01*
X021291Y018778D01*
X021364Y018778D02*
X021144Y018778D01*
X021144Y018888D01*
X021181Y018925D01*
X021291Y018851D02*
X021364Y018925D01*
X024665Y009331D02*
X024775Y009331D01*
X024811Y009294D01*
X024811Y009257D01*
X024775Y009221D01*
X024665Y009221D01*
X024665Y009331D02*
X024665Y009110D01*
X024775Y009110D01*
X024811Y009147D01*
X024811Y009184D01*
X024775Y009221D01*
X024886Y009257D02*
X024959Y009331D01*
X024959Y009110D01*
X024886Y009110D02*
X025032Y009110D01*
X024792Y007171D02*
X024865Y007097D01*
X024865Y006950D01*
X024865Y007061D02*
X024719Y007061D01*
X024719Y007097D02*
X024792Y007171D01*
X024719Y007097D02*
X024719Y006950D01*
X024644Y006987D02*
X024644Y007134D01*
X024608Y007171D01*
X024498Y007171D01*
X024498Y006950D01*
X024608Y006950D01*
X024644Y006987D01*
X024423Y006987D02*
X024387Y006950D01*
X024313Y006950D01*
X024277Y006987D01*
X024313Y007061D02*
X024387Y007061D01*
X024423Y007024D01*
X024423Y006987D01*
X024313Y007061D02*
X024277Y007097D01*
X024277Y007134D01*
X024313Y007171D01*
X024387Y007171D01*
X024423Y007134D01*
X023864Y007080D02*
X023864Y007007D01*
X023827Y006970D01*
X023827Y006896D02*
X023681Y006896D01*
X023644Y006859D01*
X023644Y006749D01*
X023864Y006749D01*
X023864Y006859D01*
X023827Y006896D01*
X023681Y006970D02*
X023644Y007007D01*
X023644Y007080D01*
X023681Y007117D01*
X023717Y007117D01*
X023754Y007080D01*
X023791Y007117D01*
X023827Y007117D01*
X023864Y007080D01*
X023754Y007080D02*
X023754Y007043D01*
X025277Y007097D02*
X025313Y007061D01*
X025387Y007061D01*
X025423Y007024D01*
X025423Y006987D01*
X025387Y006950D01*
X025313Y006950D01*
X025277Y006987D01*
X025277Y007097D02*
X025277Y007134D01*
X025313Y007171D01*
X025387Y007171D01*
X025423Y007134D01*
X025498Y007134D02*
X025498Y006987D01*
X025534Y006950D01*
X025608Y006950D01*
X025644Y006987D01*
X025719Y006950D02*
X025719Y007171D01*
X025644Y007134D02*
X025608Y007171D01*
X025534Y007171D01*
X025498Y007134D01*
X025719Y006950D02*
X025865Y006950D01*
X020299Y004952D02*
X020263Y004952D01*
X020116Y005099D01*
X020079Y005099D01*
X020079Y004952D01*
X020079Y004804D02*
X020299Y004804D01*
X020299Y004731D02*
X020299Y004878D01*
X020152Y004731D02*
X020079Y004804D01*
X020116Y004657D02*
X020189Y004657D01*
X020226Y004620D01*
X020226Y004510D01*
X020299Y004510D02*
X020079Y004510D01*
X020079Y004620D01*
X020116Y004657D01*
X020226Y004583D02*
X020299Y004657D01*
X020049Y005760D02*
X019829Y005760D01*
X019829Y005870D01*
X019866Y005907D01*
X020013Y005907D01*
X020049Y005870D01*
X020049Y005760D01*
X020013Y005981D02*
X020049Y006018D01*
X020049Y006091D01*
X020013Y006128D01*
X019866Y006128D01*
X019829Y006091D01*
X019829Y006018D01*
X019866Y005981D01*
X019902Y005981D01*
X019939Y006018D01*
X019939Y006128D01*
X018049Y006091D02*
X018049Y006018D01*
X018013Y005981D01*
X017976Y005981D01*
X017939Y006018D01*
X017939Y006091D01*
X017976Y006128D01*
X018013Y006128D01*
X018049Y006091D01*
X017939Y006091D02*
X017902Y006128D01*
X017866Y006128D01*
X017829Y006091D01*
X017829Y006018D01*
X017866Y005981D01*
X017902Y005981D01*
X017939Y006018D01*
X017866Y005907D02*
X017829Y005870D01*
X017829Y005760D01*
X018049Y005760D01*
X018049Y005870D01*
X018013Y005907D01*
X017866Y005907D01*
X017864Y006749D02*
X017644Y006749D01*
X017644Y006859D01*
X017681Y006896D01*
X017827Y006896D01*
X017864Y006859D01*
X017864Y006749D01*
X017864Y006970D02*
X017827Y006970D01*
X017681Y007117D01*
X017644Y007117D01*
X017644Y006970D01*
X018366Y004599D02*
X018329Y004562D01*
X018329Y004489D01*
X018366Y004452D01*
X018366Y004599D02*
X018402Y004599D01*
X018549Y004452D01*
X018549Y004599D01*
X018549Y004378D02*
X018549Y004231D01*
X018549Y004304D02*
X018329Y004304D01*
X018402Y004231D01*
X018366Y004157D02*
X018439Y004157D01*
X018476Y004120D01*
X018476Y004010D01*
X018549Y004010D02*
X018329Y004010D01*
X018329Y004120D01*
X018366Y004157D01*
X018476Y004083D02*
X018549Y004157D01*
D19*
X018527Y007654D02*
X018627Y007654D01*
X018652Y007679D01*
X018652Y007729D01*
X018627Y007754D01*
X018652Y007801D02*
X018652Y007901D01*
X018652Y007851D02*
X018501Y007851D01*
X018552Y007801D01*
X018527Y007754D02*
X018501Y007729D01*
X018501Y007679D01*
X018527Y007654D01*
X018527Y007948D02*
X018552Y007948D01*
X018577Y007973D01*
X018577Y008023D01*
X018602Y008048D01*
X018627Y008048D01*
X018652Y008023D01*
X018652Y007973D01*
X018627Y007948D01*
X018602Y007948D01*
X018577Y007973D01*
X018577Y008023D02*
X018552Y008048D01*
X018527Y008048D01*
X018501Y008023D01*
X018501Y007973D01*
X018527Y007948D01*
X018152Y007901D02*
X018152Y007801D01*
X018152Y007851D02*
X018001Y007851D01*
X018052Y007801D01*
X018027Y007754D02*
X018001Y007729D01*
X018001Y007679D01*
X018027Y007654D01*
X018127Y007654D01*
X018152Y007679D01*
X018152Y007729D01*
X018127Y007754D01*
X018077Y007948D02*
X018077Y008048D01*
X018152Y008023D02*
X018001Y008023D01*
X018077Y007948D01*
X019001Y007948D02*
X019001Y008048D01*
X019027Y008048D01*
X019127Y007948D01*
X019152Y007948D01*
X019152Y007901D02*
X019152Y007801D01*
X019152Y007851D02*
X019001Y007851D01*
X019052Y007801D01*
X019027Y007754D02*
X019001Y007729D01*
X019001Y007679D01*
X019027Y007654D01*
X019127Y007654D01*
X019152Y007679D01*
X019152Y007729D01*
X019127Y007754D01*
X022510Y008060D02*
X022535Y008035D01*
X022585Y008035D01*
X022610Y008060D01*
X022657Y008035D02*
X022757Y008035D01*
X022804Y008035D02*
X022904Y008136D01*
X022904Y008161D01*
X022879Y008186D01*
X022829Y008186D01*
X022804Y008161D01*
X022707Y008186D02*
X022707Y008035D01*
X022804Y008035D02*
X022904Y008035D01*
X022707Y008186D02*
X022657Y008136D01*
X022610Y008161D02*
X022585Y008186D01*
X022535Y008186D01*
X022510Y008161D01*
X022510Y008060D01*
X022535Y008535D02*
X022585Y008535D01*
X022610Y008560D01*
X022657Y008535D02*
X022757Y008535D01*
X022707Y008535D02*
X022707Y008686D01*
X022657Y008636D01*
X022610Y008661D02*
X022585Y008686D01*
X022535Y008686D01*
X022510Y008661D01*
X022510Y008560D01*
X022535Y008535D01*
X022804Y008560D02*
X022829Y008535D01*
X022879Y008535D01*
X022904Y008560D01*
X022904Y008586D01*
X022879Y008611D01*
X022854Y008611D01*
X022879Y008611D02*
X022904Y008636D01*
X022904Y008661D01*
X022879Y008686D01*
X022829Y008686D01*
X022804Y008661D01*
X025302Y010270D02*
X025327Y010245D01*
X025377Y010245D01*
X025402Y010270D01*
X025449Y010245D02*
X025549Y010245D01*
X025499Y010245D02*
X025499Y010396D01*
X025449Y010346D01*
X025402Y010371D02*
X025377Y010396D01*
X025327Y010396D01*
X025302Y010371D01*
X025302Y010270D01*
X025596Y010270D02*
X025621Y010245D01*
X025671Y010245D01*
X025696Y010270D01*
X025696Y010296D01*
X025671Y010321D01*
X025596Y010321D01*
X025596Y010270D01*
X025596Y010321D02*
X025646Y010371D01*
X025696Y010396D01*
X023394Y014095D02*
X023294Y014246D01*
X023246Y014246D02*
X023146Y014246D01*
X023099Y014246D02*
X022999Y014246D01*
X022999Y014095D01*
X022952Y014095D02*
X022902Y014146D01*
X022927Y014146D02*
X022852Y014146D01*
X022852Y014095D02*
X022852Y014246D01*
X022927Y014246D01*
X022952Y014221D01*
X022952Y014171D01*
X022927Y014146D01*
X022999Y014171D02*
X023049Y014171D01*
X023196Y014095D02*
X023196Y014246D01*
X023294Y014095D02*
X023394Y014246D01*
X023394Y014595D02*
X023294Y014746D01*
X023246Y014721D02*
X023246Y014671D01*
X023221Y014646D01*
X023146Y014646D01*
X023196Y014646D02*
X023246Y014595D01*
X023294Y014595D02*
X023394Y014746D01*
X023246Y014721D02*
X023221Y014746D01*
X023146Y014746D01*
X023146Y014595D01*
X023049Y014671D02*
X022999Y014671D01*
X022952Y014671D02*
X022927Y014646D01*
X022852Y014646D01*
X022902Y014646D02*
X022952Y014595D01*
X022999Y014595D02*
X022999Y014746D01*
X023099Y014746D01*
X022952Y014721D02*
X022952Y014671D01*
X022952Y014721D02*
X022927Y014746D01*
X022852Y014746D01*
X022852Y014595D01*
X024922Y014416D02*
X024922Y014265D01*
X024922Y014316D02*
X024997Y014316D01*
X025022Y014341D01*
X025022Y014391D01*
X024997Y014416D01*
X024922Y014416D01*
X024972Y014316D02*
X025022Y014265D01*
X025069Y014290D02*
X025094Y014265D01*
X025144Y014265D01*
X025169Y014290D01*
X025169Y014391D01*
X025144Y014416D01*
X025094Y014416D01*
X025069Y014391D01*
X025069Y014366D01*
X025094Y014341D01*
X025169Y014341D01*
X025992Y014645D02*
X025992Y014796D01*
X026067Y014796D01*
X026092Y014771D01*
X026092Y014721D01*
X026067Y014696D01*
X025992Y014696D01*
X026042Y014696D02*
X026092Y014645D01*
X026139Y014670D02*
X026139Y014696D01*
X026164Y014721D01*
X026214Y014721D01*
X026239Y014696D01*
X026239Y014670D01*
X026214Y014645D01*
X026164Y014645D01*
X026139Y014670D01*
X026164Y014721D02*
X026139Y014746D01*
X026139Y014771D01*
X026164Y014796D01*
X026214Y014796D01*
X026239Y014771D01*
X026239Y014746D01*
X026214Y014721D01*
X016604Y012686D02*
X016504Y012686D01*
X016504Y012611D01*
X016554Y012636D01*
X016579Y012636D01*
X016604Y012611D01*
X016604Y012560D01*
X016579Y012535D01*
X016529Y012535D01*
X016504Y012560D01*
X016457Y012535D02*
X016357Y012535D01*
X016407Y012535D02*
X016407Y012686D01*
X016357Y012636D01*
X016310Y012661D02*
X016285Y012686D01*
X016235Y012686D01*
X016210Y012661D01*
X016210Y012560D01*
X016235Y012535D01*
X016285Y012535D01*
X016310Y012560D01*
X016382Y011436D02*
X016357Y011411D01*
X016357Y011310D01*
X016382Y011285D01*
X016432Y011285D01*
X016457Y011310D01*
X016504Y011285D02*
X016604Y011386D01*
X016604Y011411D01*
X016579Y011436D01*
X016529Y011436D01*
X016504Y011411D01*
X016457Y011411D02*
X016432Y011436D01*
X016382Y011436D01*
X016504Y011285D02*
X016604Y011285D01*
X016554Y010936D02*
X016554Y010785D01*
X016504Y010785D02*
X016604Y010785D01*
X016504Y010886D02*
X016554Y010936D01*
X016457Y010911D02*
X016432Y010936D01*
X016382Y010936D01*
X016357Y010911D01*
X016357Y010810D01*
X016382Y010785D01*
X016432Y010785D01*
X016457Y010810D01*
X013402Y007898D02*
X013402Y007798D01*
X013402Y007751D02*
X013352Y007701D01*
X013352Y007726D02*
X013352Y007651D01*
X013402Y007651D02*
X013251Y007651D01*
X013251Y007726D01*
X013277Y007751D01*
X013327Y007751D01*
X013352Y007726D01*
X013302Y007798D02*
X013251Y007848D01*
X013402Y007848D01*
X012467Y009295D02*
X012492Y009320D01*
X012492Y009371D01*
X012467Y009396D01*
X012492Y009443D02*
X012492Y009543D01*
X012492Y009493D02*
X012341Y009493D01*
X012392Y009443D01*
X012367Y009396D02*
X012341Y009371D01*
X012341Y009320D01*
X012367Y009295D01*
X012467Y009295D01*
X012467Y009590D02*
X012367Y009690D01*
X012467Y009690D01*
X012492Y009665D01*
X012492Y009615D01*
X012467Y009590D01*
X012367Y009590D01*
X012341Y009615D01*
X012341Y009665D01*
X012367Y009690D01*
X009692Y008668D02*
X009692Y008618D01*
X009667Y008593D01*
X009667Y008546D02*
X009541Y008546D01*
X009541Y008593D02*
X009617Y008593D01*
X009592Y008643D01*
X009592Y008668D01*
X009617Y008693D01*
X009667Y008693D01*
X009692Y008668D01*
X009667Y008546D02*
X009692Y008521D01*
X009692Y008470D01*
X009667Y008445D01*
X009541Y008445D01*
X009541Y008593D02*
X009541Y008693D01*
X008124Y007646D02*
X008049Y007571D01*
X008149Y007571D01*
X008124Y007646D02*
X008124Y007495D01*
X008002Y007520D02*
X007977Y007495D01*
X007927Y007495D01*
X007902Y007520D01*
X007902Y007621D01*
X007927Y007646D01*
X007977Y007646D01*
X008002Y007621D01*
X007304Y008260D02*
X007279Y008235D01*
X007229Y008235D01*
X007204Y008260D01*
X007157Y008260D02*
X007132Y008235D01*
X007082Y008235D01*
X007057Y008260D01*
X007057Y008361D01*
X007082Y008386D01*
X007132Y008386D01*
X007157Y008361D01*
X007204Y008386D02*
X007204Y008311D01*
X007254Y008336D01*
X007279Y008336D01*
X007304Y008311D01*
X007304Y008260D01*
X007304Y008386D02*
X007204Y008386D01*
X007552Y009745D02*
X007552Y009896D01*
X007627Y009896D01*
X007652Y009871D01*
X007652Y009821D01*
X007627Y009796D01*
X007552Y009796D01*
X007602Y009796D02*
X007652Y009745D01*
X007699Y009745D02*
X007799Y009745D01*
X007749Y009745D02*
X007749Y009896D01*
X007699Y009846D01*
X007846Y009871D02*
X007871Y009896D01*
X007921Y009896D01*
X007946Y009871D01*
X007846Y009770D01*
X007871Y009745D01*
X007921Y009745D01*
X007946Y009770D01*
X007946Y009871D01*
X007846Y009871D02*
X007846Y009770D01*
X007846Y010545D02*
X007946Y010545D01*
X007896Y010545D02*
X007896Y010696D01*
X007846Y010646D01*
X007749Y010696D02*
X007749Y010545D01*
X007699Y010545D02*
X007799Y010545D01*
X007699Y010646D02*
X007749Y010696D01*
X007652Y010671D02*
X007652Y010621D01*
X007627Y010596D01*
X007552Y010596D01*
X007602Y010596D02*
X007652Y010545D01*
X007552Y010545D02*
X007552Y010696D01*
X007627Y010696D01*
X007652Y010671D01*
X009107Y010661D02*
X009107Y010560D01*
X009132Y010535D01*
X009182Y010535D01*
X009207Y010560D01*
X009254Y010560D02*
X009279Y010535D01*
X009329Y010535D01*
X009354Y010560D01*
X009354Y010661D01*
X009329Y010686D01*
X009279Y010686D01*
X009254Y010661D01*
X009254Y010636D01*
X009279Y010611D01*
X009354Y010611D01*
X009207Y010661D02*
X009182Y010686D01*
X009132Y010686D01*
X009107Y010661D01*
X006896Y013395D02*
X006796Y013395D01*
X006749Y013395D02*
X006649Y013395D01*
X006699Y013395D02*
X006699Y013546D01*
X006649Y013496D01*
X006602Y013521D02*
X006577Y013546D01*
X006527Y013546D01*
X006502Y013521D01*
X006502Y013420D01*
X006527Y013395D01*
X006577Y013395D01*
X006602Y013420D01*
X006796Y013496D02*
X006846Y013546D01*
X006846Y013395D01*
X007552Y013745D02*
X007552Y013896D01*
X007627Y013896D01*
X007652Y013871D01*
X007652Y013821D01*
X007627Y013796D01*
X007552Y013796D01*
X007602Y013796D02*
X007652Y013745D01*
X007699Y013745D02*
X007799Y013846D01*
X007799Y013871D01*
X007774Y013896D01*
X007724Y013896D01*
X007699Y013871D01*
X007699Y013745D02*
X007799Y013745D01*
X005799Y013171D02*
X005799Y013146D01*
X005774Y013121D01*
X005799Y013096D01*
X005799Y013070D01*
X005774Y013045D01*
X005724Y013045D01*
X005699Y013070D01*
X005652Y013070D02*
X005627Y013045D01*
X005577Y013045D01*
X005552Y013070D01*
X005552Y013171D01*
X005577Y013196D01*
X005627Y013196D01*
X005652Y013171D01*
X005699Y013171D02*
X005724Y013196D01*
X005774Y013196D01*
X005799Y013171D01*
X005774Y013121D02*
X005749Y013121D01*
X010802Y014745D02*
X010802Y014896D01*
X010877Y014896D01*
X010902Y014871D01*
X010902Y014821D01*
X010877Y014796D01*
X010802Y014796D01*
X010852Y014796D02*
X010902Y014745D01*
X010949Y014821D02*
X011049Y014821D01*
X011024Y014896D02*
X010949Y014821D01*
X011024Y014745D02*
X011024Y014896D01*
X011024Y017045D02*
X010974Y017045D01*
X010949Y017070D01*
X010949Y017121D02*
X010999Y017146D01*
X011024Y017146D01*
X011049Y017121D01*
X011049Y017070D01*
X011024Y017045D01*
X010949Y017121D02*
X010949Y017196D01*
X011049Y017196D01*
X010902Y017171D02*
X010902Y017121D01*
X010877Y017096D01*
X010802Y017096D01*
X010852Y017096D02*
X010902Y017045D01*
X010802Y017045D02*
X010802Y017196D01*
X010877Y017196D01*
X010902Y017171D01*
X010902Y018545D02*
X010852Y018596D01*
X010877Y018596D02*
X010802Y018596D01*
X010802Y018545D02*
X010802Y018696D01*
X010877Y018696D01*
X010902Y018671D01*
X010902Y018621D01*
X010877Y018596D01*
X010949Y018570D02*
X010949Y018545D01*
X010949Y018570D02*
X011049Y018671D01*
X011049Y018696D01*
X010949Y018696D01*
X008354Y018811D02*
X008254Y018710D01*
X008254Y018685D01*
X008207Y018710D02*
X008182Y018685D01*
X008132Y018685D01*
X008107Y018710D01*
X008107Y018811D01*
X008132Y018836D01*
X008182Y018836D01*
X008207Y018811D01*
X008254Y018836D02*
X008354Y018836D01*
X008354Y018811D01*
X005854Y019110D02*
X005829Y019085D01*
X005779Y019085D01*
X005754Y019110D01*
X005754Y019136D01*
X005779Y019161D01*
X005829Y019161D01*
X005854Y019136D01*
X005854Y019110D01*
X005829Y019161D02*
X005854Y019186D01*
X005854Y019211D01*
X005829Y019236D01*
X005779Y019236D01*
X005754Y019211D01*
X005754Y019186D01*
X005779Y019161D01*
X005707Y019211D02*
X005682Y019236D01*
X005632Y019236D01*
X005607Y019211D01*
X005607Y019110D01*
X005632Y019085D01*
X005682Y019085D01*
X005707Y019110D01*
X005754Y006436D02*
X005704Y006411D01*
X005654Y006361D01*
X005729Y006361D01*
X005754Y006336D01*
X005754Y006310D01*
X005729Y006285D01*
X005679Y006285D01*
X005654Y006310D01*
X005654Y006361D01*
X005607Y006411D02*
X005582Y006436D01*
X005532Y006436D01*
X005507Y006411D01*
X005507Y006310D01*
X005532Y006285D01*
X005582Y006285D01*
X005607Y006310D01*
X012301Y005848D02*
X012327Y005798D01*
X012377Y005748D01*
X012377Y005823D01*
X012402Y005848D01*
X012427Y005848D01*
X012452Y005823D01*
X012452Y005773D01*
X012427Y005748D01*
X012377Y005748D01*
X012377Y005701D02*
X012402Y005676D01*
X012402Y005601D01*
X012452Y005601D02*
X012301Y005601D01*
X012301Y005676D01*
X012327Y005701D01*
X012377Y005701D01*
X012402Y005651D02*
X012452Y005701D01*
D20*
X012949Y006650D03*
X013244Y006650D03*
D21*
X013097Y006650D03*
X024156Y014090D03*
X024156Y014590D03*
X010038Y015590D03*
X010038Y016340D03*
X010156Y017840D03*
D22*
X010156Y017693D03*
X010156Y017988D03*
X010038Y016488D03*
X010038Y016193D03*
X010038Y015738D03*
X010038Y015443D03*
X024156Y014738D03*
X024156Y014443D03*
X024156Y014238D03*
X024156Y013943D03*
D23*
X004991Y016340D03*
D24*
X015832Y004316D02*
X016077Y004316D01*
X016159Y004234D01*
X016159Y004071D01*
X016077Y003989D01*
X015832Y003989D01*
X015832Y003825D02*
X015832Y004316D01*
X016347Y004234D02*
X016347Y003907D01*
X016429Y003825D01*
X016592Y003825D01*
X016674Y003907D01*
X016674Y004234D01*
X016592Y004316D01*
X016429Y004316D01*
X016347Y004234D01*
X016863Y004316D02*
X016863Y003825D01*
X017026Y003989D01*
X017190Y003825D01*
X017190Y004316D01*
X017379Y004316D02*
X017379Y003825D01*
X017705Y003825D01*
X017894Y003825D02*
X017894Y004316D01*
X018139Y004316D01*
X018221Y004234D01*
X018221Y004071D01*
X018139Y003989D01*
X017894Y003989D01*
X018058Y003989D02*
X018221Y003825D01*
X017705Y004316D02*
X017379Y004316D01*
X017379Y004071D02*
X017542Y004071D01*
D25*
X008839Y012340D02*
X008835Y012340D01*
D26*
X009087Y012840D02*
X009087Y011837D01*
X009603Y011837D01*
X009603Y012840D01*
X009087Y012840D01*
M02*
