%
M48
M72
T01C0.0150
T02C0.0236
T03C0.0354
T04C0.0400
T05C0.0520
T06C0.1260
T07C0.1300
%
T01
X8297Y6171
X12347Y5121
X12347Y3871
X15847Y5621
X16847Y5621
X16847Y6621
X16847Y7371
X17847Y7371
X17597Y8221
X17147Y8521
X17647Y9171
X17527Y9841
X17447Y10421
X18597Y9571
X19647Y9671
X19647Y8871
X19997Y8621
X20597Y9821
X20597Y10521
X19597Y10371
X19387Y10741
X19417Y11601
X20547Y12421
X19327Y13141
X18967Y13501
X18347Y12921
X18157Y12521
X17747Y13551
X18357Y14131
X18347Y14551
X18937Y14131
X19767Y14271
X20137Y13841
X20687Y14231
X20997Y14621
X20997Y15071
X21447Y15021
X21947Y14921
X22397Y14871
X23187Y15451
X22847Y15871
X23097Y16621
X23837Y16761
X23697Y17321
X23357Y17621
X24597Y17461
X24927Y17771
X25987Y17621
X23847Y15121
X24337Y14701
X24097Y13571
X23147Y13271
X22547Y13721
X22247Y13371
X22377Y12491
X23147Y11421
X23117Y10811
X24097Y10921
X24117Y11561
X24897Y11271
X25297Y11621
X24397Y12521
X21117Y13841
X21017Y15851
X21347Y16621
X20547Y16971
X20057Y16621
X19297Y17021
X19747Y17271
X19247Y17621
X18347Y17621
X17627Y16751
X17797Y16171
X18957Y15871
X19907Y15871
X21967Y15871
X16537Y14571
X15897Y15121
X16337Y15421
X16347Y15871
X15387Y15991
X14597Y15621
X15167Y14981
X15297Y14421
X14397Y13521
X13097Y14671
X13547Y15421
X13597Y15871
X13607Y16401
X13247Y16721
X12497Y16471
X11847Y15821
X13887Y17241
X14847Y17621
X14947Y17121
X13597Y18271
X12097Y17621
X9297Y17121
X9097Y17621
X8447Y16871
X7297Y16321
X6947Y15971
X5897Y15521
X5147Y15521
X6297Y17021
X6747Y16971
X8347Y18621
X4597Y18621
X4597Y19121
X3847Y19621
X1347Y15121
X3347Y13371
X3847Y12021
X5747Y12121
X5297Y9321
X10997Y10421
X13847Y8871
X12847Y7871
X18847Y6621
X18797Y6171
X19597Y5871
X20847Y6121
X20847Y6621
X20847Y7371
X19647Y7421
X21847Y8171
X22547Y8971
X24247Y9221
X24647Y9221
X25047Y9221
X25447Y9221
X25447Y8321
X25447Y7921
X25447Y7471
X25047Y7471
X24647Y7471
X24247Y7471
X22847Y7371
X22847Y6621
X22847Y5871
X22847Y3821
X25347Y3371
X9747Y14371
T02
X7017Y18501
X14847Y19621
X24607Y16511
X25597Y16371
X25097Y15121
T03
X2847Y17755
X2847Y19487
T04
X10247Y21371
X11247Y21371
X12247Y21371
X13247Y21371
X14247Y21371
X15247Y21371
X16247Y21371
X17247Y21371
X18847Y21371
X19847Y21371
X20847Y21371
X21847Y21371
X22847Y21371
X23847Y21371
X24847Y21371
X25847Y21371
X25902Y13351
X26902Y13351
X26902Y12351
X25902Y12351
X25902Y11351
X26902Y11351
X25597Y6371
X24597Y6371
X24847Y2371
X23847Y2371
X22847Y2371
X21847Y2371
X20847Y2371
X18847Y2371
X17847Y2371
X16847Y2371
X15847Y2371
X14847Y2371
X13847Y2371
X13237Y11091
X11457Y11091
X11457Y13651
X13237Y13651
X25847Y2371
T05
X17847Y18871
T06
X26847Y15371
X26847Y4371
X6847Y21371
T07
X4267Y2671
X5447Y4641
X3087Y4641
M30
