G75*
G70*
%OFA0B0*%
%FSLAX24Y24*%
%IPPOS*%
%LPD*%
%AMOC8*
5,1,8,0,0,1.08239X$1,22.5*
%
%ADD10C,0.1340*%
%ADD11OC8,0.0720*%
%ADD12R,0.0513X0.0474*%
%ADD13C,0.0720*%
%ADD14R,0.0710X0.0789*%
%ADD15R,0.0474X0.0513*%
%ADD16R,0.0395X0.0395*%
%ADD17R,0.1025X0.1025*%
%ADD18OC8,0.1980*%
%ADD19C,0.0046*%
%ADD20R,0.0828X0.1419*%
%ADD21R,0.0960X0.0560*%
%ADD22R,0.0946X0.1497*%
%ADD23R,0.0316X0.0946*%
%ADD24R,0.0960X0.0560*%
%ADD25R,0.0560X0.0960*%
%ADD26R,0.1497X0.0946*%
%ADD27R,0.0178X0.0356*%
%ADD28R,0.0356X0.0178*%
%ADD29R,0.1950X0.2304*%
%ADD30R,0.0218X0.0474*%
%ADD31R,0.1680X0.0680*%
%ADD32R,0.0277X0.0434*%
%ADD33R,0.0720X0.0720*%
%ADD34R,0.0533X0.0631*%
%ADD35R,0.1064X0.0867*%
%ADD36R,0.1064X0.0277*%
%ADD37C,0.0674*%
%ADD38R,0.0395X0.0297*%
%ADD39R,0.0470X0.0352*%
%ADD40OC8,0.0930*%
D10*
X006847Y021371D03*
X026847Y015371D03*
X026847Y004371D03*
D11*
X024597Y006371D03*
X025902Y011351D03*
X026902Y011351D03*
X026902Y012351D03*
X025902Y012351D03*
X025902Y013351D03*
X026902Y013351D03*
D12*
X024931Y010371D03*
X024262Y010371D03*
X023931Y008621D03*
X023931Y008121D03*
X023262Y008121D03*
X023262Y008621D03*
X017681Y010871D03*
X017681Y011371D03*
X017012Y011371D03*
X017012Y010871D03*
X017012Y012621D03*
X017681Y012621D03*
X013347Y008955D03*
X013347Y008286D03*
X012347Y006955D03*
X012347Y006286D03*
X010431Y010621D03*
X009762Y010621D03*
X007181Y013121D03*
X006512Y013121D03*
X005181Y013121D03*
X004512Y013121D03*
X006212Y019171D03*
X006881Y019171D03*
X007712Y019171D03*
X008381Y019171D03*
D13*
X010247Y021051D02*
X010247Y021691D01*
X011247Y021691D02*
X011247Y021051D01*
X012247Y021051D02*
X012247Y021691D01*
X013247Y021691D02*
X013247Y021051D01*
X014247Y021051D02*
X014247Y021691D01*
X015247Y021691D02*
X015247Y021051D01*
X016247Y021051D02*
X016247Y021691D01*
X017247Y021691D02*
X017247Y021051D01*
X018847Y021051D02*
X018847Y021691D01*
X019847Y021691D02*
X019847Y021051D01*
X020847Y021051D02*
X020847Y021691D01*
X021847Y021691D02*
X021847Y021051D01*
X022847Y021051D02*
X022847Y021691D01*
X023847Y021691D02*
X023847Y021051D01*
X024847Y021051D02*
X024847Y021691D01*
X025847Y021691D02*
X025847Y021051D01*
X013237Y013971D02*
X013237Y013331D01*
X011457Y013331D02*
X011457Y013971D01*
X011457Y011411D02*
X011457Y010771D01*
X013237Y010771D02*
X013237Y011411D01*
X013847Y002691D02*
X013847Y002051D01*
X014847Y002051D02*
X014847Y002691D01*
X015847Y002691D02*
X015847Y002051D01*
X016847Y002051D02*
X016847Y002691D01*
X017847Y002691D02*
X017847Y002051D01*
X018847Y002051D02*
X018847Y002691D01*
X020847Y002691D02*
X020847Y002051D01*
X021847Y002051D02*
X021847Y002691D01*
X022847Y002691D02*
X022847Y002051D01*
X023847Y002051D02*
X023847Y002691D01*
X024847Y002691D02*
X024847Y002051D01*
X025847Y002051D02*
X025847Y002691D01*
D14*
X007398Y006371D03*
X006295Y006371D03*
X006295Y007621D03*
X007398Y007621D03*
X007398Y008871D03*
X006295Y008871D03*
D15*
X006512Y009871D03*
X007181Y009871D03*
X007181Y010621D03*
X006512Y010621D03*
X006512Y013871D03*
X007181Y013871D03*
X009762Y014871D03*
X010431Y014871D03*
X010431Y017121D03*
X009762Y017121D03*
X009762Y018621D03*
X010431Y018621D03*
X018097Y009155D03*
X018597Y009155D03*
X019097Y009155D03*
X019097Y008486D03*
X018597Y008486D03*
X018097Y008486D03*
X012397Y008286D03*
X012397Y008955D03*
D16*
X013097Y006916D03*
X013097Y006325D03*
X010392Y015621D03*
X009801Y015621D03*
X009801Y016371D03*
X010392Y016371D03*
X010392Y017871D03*
X009801Y017871D03*
D17*
X007347Y004487D03*
X007347Y002755D03*
D18*
X004267Y002671D03*
X005447Y004641D03*
X003087Y004641D03*
D19*
X005091Y014632D02*
X005275Y014632D01*
X005091Y014632D02*
X005091Y015256D01*
X005275Y015256D01*
X005275Y014632D01*
X005275Y014677D02*
X005091Y014677D01*
X005091Y014722D02*
X005275Y014722D01*
X005275Y014767D02*
X005091Y014767D01*
X005091Y014812D02*
X005275Y014812D01*
X005275Y014857D02*
X005091Y014857D01*
X005091Y014902D02*
X005275Y014902D01*
X005275Y014947D02*
X005091Y014947D01*
X005091Y014992D02*
X005275Y014992D01*
X005275Y015037D02*
X005091Y015037D01*
X005091Y015082D02*
X005275Y015082D01*
X005275Y015127D02*
X005091Y015127D01*
X005091Y015172D02*
X005275Y015172D01*
X005275Y015217D02*
X005091Y015217D01*
X005347Y014632D02*
X005531Y014632D01*
X005347Y014632D02*
X005347Y015256D01*
X005531Y015256D01*
X005531Y014632D01*
X005531Y014677D02*
X005347Y014677D01*
X005347Y014722D02*
X005531Y014722D01*
X005531Y014767D02*
X005347Y014767D01*
X005347Y014812D02*
X005531Y014812D01*
X005531Y014857D02*
X005347Y014857D01*
X005347Y014902D02*
X005531Y014902D01*
X005531Y014947D02*
X005347Y014947D01*
X005347Y014992D02*
X005531Y014992D01*
X005531Y015037D02*
X005347Y015037D01*
X005347Y015082D02*
X005531Y015082D01*
X005531Y015127D02*
X005347Y015127D01*
X005347Y015172D02*
X005531Y015172D01*
X005531Y015217D02*
X005347Y015217D01*
X005603Y014632D02*
X005787Y014632D01*
X005603Y014632D02*
X005603Y015256D01*
X005787Y015256D01*
X005787Y014632D01*
X005787Y014677D02*
X005603Y014677D01*
X005603Y014722D02*
X005787Y014722D01*
X005787Y014767D02*
X005603Y014767D01*
X005603Y014812D02*
X005787Y014812D01*
X005787Y014857D02*
X005603Y014857D01*
X005603Y014902D02*
X005787Y014902D01*
X005787Y014947D02*
X005603Y014947D01*
X005603Y014992D02*
X005787Y014992D01*
X005787Y015037D02*
X005603Y015037D01*
X005603Y015082D02*
X005787Y015082D01*
X005787Y015127D02*
X005603Y015127D01*
X005603Y015172D02*
X005787Y015172D01*
X005787Y015217D02*
X005603Y015217D01*
X005859Y014632D02*
X006043Y014632D01*
X005859Y014632D02*
X005859Y015256D01*
X006043Y015256D01*
X006043Y014632D01*
X006043Y014677D02*
X005859Y014677D01*
X005859Y014722D02*
X006043Y014722D01*
X006043Y014767D02*
X005859Y014767D01*
X005859Y014812D02*
X006043Y014812D01*
X006043Y014857D02*
X005859Y014857D01*
X005859Y014902D02*
X006043Y014902D01*
X006043Y014947D02*
X005859Y014947D01*
X005859Y014992D02*
X006043Y014992D01*
X006043Y015037D02*
X005859Y015037D01*
X005859Y015082D02*
X006043Y015082D01*
X006043Y015127D02*
X005859Y015127D01*
X005859Y015172D02*
X006043Y015172D01*
X006043Y015217D02*
X005859Y015217D01*
X006115Y014632D02*
X006299Y014632D01*
X006115Y014632D02*
X006115Y015256D01*
X006299Y015256D01*
X006299Y014632D01*
X006299Y014677D02*
X006115Y014677D01*
X006115Y014722D02*
X006299Y014722D01*
X006299Y014767D02*
X006115Y014767D01*
X006115Y014812D02*
X006299Y014812D01*
X006299Y014857D02*
X006115Y014857D01*
X006115Y014902D02*
X006299Y014902D01*
X006299Y014947D02*
X006115Y014947D01*
X006115Y014992D02*
X006299Y014992D01*
X006299Y015037D02*
X006115Y015037D01*
X006115Y015082D02*
X006299Y015082D01*
X006299Y015127D02*
X006115Y015127D01*
X006115Y015172D02*
X006299Y015172D01*
X006299Y015217D02*
X006115Y015217D01*
X006371Y014632D02*
X006555Y014632D01*
X006371Y014632D02*
X006371Y015256D01*
X006555Y015256D01*
X006555Y014632D01*
X006555Y014677D02*
X006371Y014677D01*
X006371Y014722D02*
X006555Y014722D01*
X006555Y014767D02*
X006371Y014767D01*
X006371Y014812D02*
X006555Y014812D01*
X006555Y014857D02*
X006371Y014857D01*
X006371Y014902D02*
X006555Y014902D01*
X006555Y014947D02*
X006371Y014947D01*
X006371Y014992D02*
X006555Y014992D01*
X006555Y015037D02*
X006371Y015037D01*
X006371Y015082D02*
X006555Y015082D01*
X006555Y015127D02*
X006371Y015127D01*
X006371Y015172D02*
X006555Y015172D01*
X006555Y015217D02*
X006371Y015217D01*
X006627Y014632D02*
X006811Y014632D01*
X006627Y014632D02*
X006627Y015256D01*
X006811Y015256D01*
X006811Y014632D01*
X006811Y014677D02*
X006627Y014677D01*
X006627Y014722D02*
X006811Y014722D01*
X006811Y014767D02*
X006627Y014767D01*
X006627Y014812D02*
X006811Y014812D01*
X006811Y014857D02*
X006627Y014857D01*
X006627Y014902D02*
X006811Y014902D01*
X006811Y014947D02*
X006627Y014947D01*
X006627Y014992D02*
X006811Y014992D01*
X006811Y015037D02*
X006627Y015037D01*
X006627Y015082D02*
X006811Y015082D01*
X006811Y015127D02*
X006627Y015127D01*
X006627Y015172D02*
X006811Y015172D01*
X006811Y015217D02*
X006627Y015217D01*
X006883Y014632D02*
X007067Y014632D01*
X006883Y014632D02*
X006883Y015256D01*
X007067Y015256D01*
X007067Y014632D01*
X007067Y014677D02*
X006883Y014677D01*
X006883Y014722D02*
X007067Y014722D01*
X007067Y014767D02*
X006883Y014767D01*
X006883Y014812D02*
X007067Y014812D01*
X007067Y014857D02*
X006883Y014857D01*
X006883Y014902D02*
X007067Y014902D01*
X007067Y014947D02*
X006883Y014947D01*
X006883Y014992D02*
X007067Y014992D01*
X007067Y015037D02*
X006883Y015037D01*
X006883Y015082D02*
X007067Y015082D01*
X007067Y015127D02*
X006883Y015127D01*
X006883Y015172D02*
X007067Y015172D01*
X007067Y015217D02*
X006883Y015217D01*
X007138Y014632D02*
X007322Y014632D01*
X007138Y014632D02*
X007138Y015256D01*
X007322Y015256D01*
X007322Y014632D01*
X007322Y014677D02*
X007138Y014677D01*
X007138Y014722D02*
X007322Y014722D01*
X007322Y014767D02*
X007138Y014767D01*
X007138Y014812D02*
X007322Y014812D01*
X007322Y014857D02*
X007138Y014857D01*
X007138Y014902D02*
X007322Y014902D01*
X007322Y014947D02*
X007138Y014947D01*
X007138Y014992D02*
X007322Y014992D01*
X007322Y015037D02*
X007138Y015037D01*
X007138Y015082D02*
X007322Y015082D01*
X007322Y015127D02*
X007138Y015127D01*
X007138Y015172D02*
X007322Y015172D01*
X007322Y015217D02*
X007138Y015217D01*
X007394Y014632D02*
X007578Y014632D01*
X007394Y014632D02*
X007394Y015256D01*
X007578Y015256D01*
X007578Y014632D01*
X007578Y014677D02*
X007394Y014677D01*
X007394Y014722D02*
X007578Y014722D01*
X007578Y014767D02*
X007394Y014767D01*
X007394Y014812D02*
X007578Y014812D01*
X007578Y014857D02*
X007394Y014857D01*
X007394Y014902D02*
X007578Y014902D01*
X007578Y014947D02*
X007394Y014947D01*
X007394Y014992D02*
X007578Y014992D01*
X007578Y015037D02*
X007394Y015037D01*
X007394Y015082D02*
X007578Y015082D01*
X007578Y015127D02*
X007394Y015127D01*
X007394Y015172D02*
X007578Y015172D01*
X007578Y015217D02*
X007394Y015217D01*
X007650Y014632D02*
X007834Y014632D01*
X007650Y014632D02*
X007650Y015256D01*
X007834Y015256D01*
X007834Y014632D01*
X007834Y014677D02*
X007650Y014677D01*
X007650Y014722D02*
X007834Y014722D01*
X007834Y014767D02*
X007650Y014767D01*
X007650Y014812D02*
X007834Y014812D01*
X007834Y014857D02*
X007650Y014857D01*
X007650Y014902D02*
X007834Y014902D01*
X007834Y014947D02*
X007650Y014947D01*
X007650Y014992D02*
X007834Y014992D01*
X007834Y015037D02*
X007650Y015037D01*
X007650Y015082D02*
X007834Y015082D01*
X007834Y015127D02*
X007650Y015127D01*
X007650Y015172D02*
X007834Y015172D01*
X007834Y015217D02*
X007650Y015217D01*
X007906Y014632D02*
X008090Y014632D01*
X007906Y014632D02*
X007906Y015256D01*
X008090Y015256D01*
X008090Y014632D01*
X008090Y014677D02*
X007906Y014677D01*
X007906Y014722D02*
X008090Y014722D01*
X008090Y014767D02*
X007906Y014767D01*
X007906Y014812D02*
X008090Y014812D01*
X008090Y014857D02*
X007906Y014857D01*
X007906Y014902D02*
X008090Y014902D01*
X008090Y014947D02*
X007906Y014947D01*
X007906Y014992D02*
X008090Y014992D01*
X008090Y015037D02*
X007906Y015037D01*
X007906Y015082D02*
X008090Y015082D01*
X008090Y015127D02*
X007906Y015127D01*
X007906Y015172D02*
X008090Y015172D01*
X008090Y015217D02*
X007906Y015217D01*
X008162Y014632D02*
X008346Y014632D01*
X008162Y014632D02*
X008162Y015256D01*
X008346Y015256D01*
X008346Y014632D01*
X008346Y014677D02*
X008162Y014677D01*
X008162Y014722D02*
X008346Y014722D01*
X008346Y014767D02*
X008162Y014767D01*
X008162Y014812D02*
X008346Y014812D01*
X008346Y014857D02*
X008162Y014857D01*
X008162Y014902D02*
X008346Y014902D01*
X008346Y014947D02*
X008162Y014947D01*
X008162Y014992D02*
X008346Y014992D01*
X008346Y015037D02*
X008162Y015037D01*
X008162Y015082D02*
X008346Y015082D01*
X008346Y015127D02*
X008162Y015127D01*
X008162Y015172D02*
X008346Y015172D01*
X008346Y015217D02*
X008162Y015217D01*
X008418Y014632D02*
X008602Y014632D01*
X008418Y014632D02*
X008418Y015256D01*
X008602Y015256D01*
X008602Y014632D01*
X008602Y014677D02*
X008418Y014677D01*
X008418Y014722D02*
X008602Y014722D01*
X008602Y014767D02*
X008418Y014767D01*
X008418Y014812D02*
X008602Y014812D01*
X008602Y014857D02*
X008418Y014857D01*
X008418Y014902D02*
X008602Y014902D01*
X008602Y014947D02*
X008418Y014947D01*
X008418Y014992D02*
X008602Y014992D01*
X008602Y015037D02*
X008418Y015037D01*
X008418Y015082D02*
X008602Y015082D01*
X008602Y015127D02*
X008418Y015127D01*
X008418Y015172D02*
X008602Y015172D01*
X008602Y015217D02*
X008418Y015217D01*
X008418Y017486D02*
X008602Y017486D01*
X008418Y017486D02*
X008418Y018110D01*
X008602Y018110D01*
X008602Y017486D01*
X008602Y017531D02*
X008418Y017531D01*
X008418Y017576D02*
X008602Y017576D01*
X008602Y017621D02*
X008418Y017621D01*
X008418Y017666D02*
X008602Y017666D01*
X008602Y017711D02*
X008418Y017711D01*
X008418Y017756D02*
X008602Y017756D01*
X008602Y017801D02*
X008418Y017801D01*
X008418Y017846D02*
X008602Y017846D01*
X008602Y017891D02*
X008418Y017891D01*
X008418Y017936D02*
X008602Y017936D01*
X008602Y017981D02*
X008418Y017981D01*
X008418Y018026D02*
X008602Y018026D01*
X008602Y018071D02*
X008418Y018071D01*
X008346Y017486D02*
X008162Y017486D01*
X008162Y018110D01*
X008346Y018110D01*
X008346Y017486D01*
X008346Y017531D02*
X008162Y017531D01*
X008162Y017576D02*
X008346Y017576D01*
X008346Y017621D02*
X008162Y017621D01*
X008162Y017666D02*
X008346Y017666D01*
X008346Y017711D02*
X008162Y017711D01*
X008162Y017756D02*
X008346Y017756D01*
X008346Y017801D02*
X008162Y017801D01*
X008162Y017846D02*
X008346Y017846D01*
X008346Y017891D02*
X008162Y017891D01*
X008162Y017936D02*
X008346Y017936D01*
X008346Y017981D02*
X008162Y017981D01*
X008162Y018026D02*
X008346Y018026D01*
X008346Y018071D02*
X008162Y018071D01*
X008090Y017486D02*
X007906Y017486D01*
X007906Y018110D01*
X008090Y018110D01*
X008090Y017486D01*
X008090Y017531D02*
X007906Y017531D01*
X007906Y017576D02*
X008090Y017576D01*
X008090Y017621D02*
X007906Y017621D01*
X007906Y017666D02*
X008090Y017666D01*
X008090Y017711D02*
X007906Y017711D01*
X007906Y017756D02*
X008090Y017756D01*
X008090Y017801D02*
X007906Y017801D01*
X007906Y017846D02*
X008090Y017846D01*
X008090Y017891D02*
X007906Y017891D01*
X007906Y017936D02*
X008090Y017936D01*
X008090Y017981D02*
X007906Y017981D01*
X007906Y018026D02*
X008090Y018026D01*
X008090Y018071D02*
X007906Y018071D01*
X007834Y017486D02*
X007650Y017486D01*
X007650Y018110D01*
X007834Y018110D01*
X007834Y017486D01*
X007834Y017531D02*
X007650Y017531D01*
X007650Y017576D02*
X007834Y017576D01*
X007834Y017621D02*
X007650Y017621D01*
X007650Y017666D02*
X007834Y017666D01*
X007834Y017711D02*
X007650Y017711D01*
X007650Y017756D02*
X007834Y017756D01*
X007834Y017801D02*
X007650Y017801D01*
X007650Y017846D02*
X007834Y017846D01*
X007834Y017891D02*
X007650Y017891D01*
X007650Y017936D02*
X007834Y017936D01*
X007834Y017981D02*
X007650Y017981D01*
X007650Y018026D02*
X007834Y018026D01*
X007834Y018071D02*
X007650Y018071D01*
X007578Y017486D02*
X007394Y017486D01*
X007394Y018110D01*
X007578Y018110D01*
X007578Y017486D01*
X007578Y017531D02*
X007394Y017531D01*
X007394Y017576D02*
X007578Y017576D01*
X007578Y017621D02*
X007394Y017621D01*
X007394Y017666D02*
X007578Y017666D01*
X007578Y017711D02*
X007394Y017711D01*
X007394Y017756D02*
X007578Y017756D01*
X007578Y017801D02*
X007394Y017801D01*
X007394Y017846D02*
X007578Y017846D01*
X007578Y017891D02*
X007394Y017891D01*
X007394Y017936D02*
X007578Y017936D01*
X007578Y017981D02*
X007394Y017981D01*
X007394Y018026D02*
X007578Y018026D01*
X007578Y018071D02*
X007394Y018071D01*
X007322Y017486D02*
X007138Y017486D01*
X007138Y018110D01*
X007322Y018110D01*
X007322Y017486D01*
X007322Y017531D02*
X007138Y017531D01*
X007138Y017576D02*
X007322Y017576D01*
X007322Y017621D02*
X007138Y017621D01*
X007138Y017666D02*
X007322Y017666D01*
X007322Y017711D02*
X007138Y017711D01*
X007138Y017756D02*
X007322Y017756D01*
X007322Y017801D02*
X007138Y017801D01*
X007138Y017846D02*
X007322Y017846D01*
X007322Y017891D02*
X007138Y017891D01*
X007138Y017936D02*
X007322Y017936D01*
X007322Y017981D02*
X007138Y017981D01*
X007138Y018026D02*
X007322Y018026D01*
X007322Y018071D02*
X007138Y018071D01*
X007067Y017486D02*
X006883Y017486D01*
X006883Y018110D01*
X007067Y018110D01*
X007067Y017486D01*
X007067Y017531D02*
X006883Y017531D01*
X006883Y017576D02*
X007067Y017576D01*
X007067Y017621D02*
X006883Y017621D01*
X006883Y017666D02*
X007067Y017666D01*
X007067Y017711D02*
X006883Y017711D01*
X006883Y017756D02*
X007067Y017756D01*
X007067Y017801D02*
X006883Y017801D01*
X006883Y017846D02*
X007067Y017846D01*
X007067Y017891D02*
X006883Y017891D01*
X006883Y017936D02*
X007067Y017936D01*
X007067Y017981D02*
X006883Y017981D01*
X006883Y018026D02*
X007067Y018026D01*
X007067Y018071D02*
X006883Y018071D01*
X006811Y017486D02*
X006627Y017486D01*
X006627Y018110D01*
X006811Y018110D01*
X006811Y017486D01*
X006811Y017531D02*
X006627Y017531D01*
X006627Y017576D02*
X006811Y017576D01*
X006811Y017621D02*
X006627Y017621D01*
X006627Y017666D02*
X006811Y017666D01*
X006811Y017711D02*
X006627Y017711D01*
X006627Y017756D02*
X006811Y017756D01*
X006811Y017801D02*
X006627Y017801D01*
X006627Y017846D02*
X006811Y017846D01*
X006811Y017891D02*
X006627Y017891D01*
X006627Y017936D02*
X006811Y017936D01*
X006811Y017981D02*
X006627Y017981D01*
X006627Y018026D02*
X006811Y018026D01*
X006811Y018071D02*
X006627Y018071D01*
X006555Y017486D02*
X006371Y017486D01*
X006371Y018110D01*
X006555Y018110D01*
X006555Y017486D01*
X006555Y017531D02*
X006371Y017531D01*
X006371Y017576D02*
X006555Y017576D01*
X006555Y017621D02*
X006371Y017621D01*
X006371Y017666D02*
X006555Y017666D01*
X006555Y017711D02*
X006371Y017711D01*
X006371Y017756D02*
X006555Y017756D01*
X006555Y017801D02*
X006371Y017801D01*
X006371Y017846D02*
X006555Y017846D01*
X006555Y017891D02*
X006371Y017891D01*
X006371Y017936D02*
X006555Y017936D01*
X006555Y017981D02*
X006371Y017981D01*
X006371Y018026D02*
X006555Y018026D01*
X006555Y018071D02*
X006371Y018071D01*
X006299Y017486D02*
X006115Y017486D01*
X006115Y018110D01*
X006299Y018110D01*
X006299Y017486D01*
X006299Y017531D02*
X006115Y017531D01*
X006115Y017576D02*
X006299Y017576D01*
X006299Y017621D02*
X006115Y017621D01*
X006115Y017666D02*
X006299Y017666D01*
X006299Y017711D02*
X006115Y017711D01*
X006115Y017756D02*
X006299Y017756D01*
X006299Y017801D02*
X006115Y017801D01*
X006115Y017846D02*
X006299Y017846D01*
X006299Y017891D02*
X006115Y017891D01*
X006115Y017936D02*
X006299Y017936D01*
X006299Y017981D02*
X006115Y017981D01*
X006115Y018026D02*
X006299Y018026D01*
X006299Y018071D02*
X006115Y018071D01*
X006043Y017486D02*
X005859Y017486D01*
X005859Y018110D01*
X006043Y018110D01*
X006043Y017486D01*
X006043Y017531D02*
X005859Y017531D01*
X005859Y017576D02*
X006043Y017576D01*
X006043Y017621D02*
X005859Y017621D01*
X005859Y017666D02*
X006043Y017666D01*
X006043Y017711D02*
X005859Y017711D01*
X005859Y017756D02*
X006043Y017756D01*
X006043Y017801D02*
X005859Y017801D01*
X005859Y017846D02*
X006043Y017846D01*
X006043Y017891D02*
X005859Y017891D01*
X005859Y017936D02*
X006043Y017936D01*
X006043Y017981D02*
X005859Y017981D01*
X005859Y018026D02*
X006043Y018026D01*
X006043Y018071D02*
X005859Y018071D01*
X005787Y017486D02*
X005603Y017486D01*
X005603Y018110D01*
X005787Y018110D01*
X005787Y017486D01*
X005787Y017531D02*
X005603Y017531D01*
X005603Y017576D02*
X005787Y017576D01*
X005787Y017621D02*
X005603Y017621D01*
X005603Y017666D02*
X005787Y017666D01*
X005787Y017711D02*
X005603Y017711D01*
X005603Y017756D02*
X005787Y017756D01*
X005787Y017801D02*
X005603Y017801D01*
X005603Y017846D02*
X005787Y017846D01*
X005787Y017891D02*
X005603Y017891D01*
X005603Y017936D02*
X005787Y017936D01*
X005787Y017981D02*
X005603Y017981D01*
X005603Y018026D02*
X005787Y018026D01*
X005787Y018071D02*
X005603Y018071D01*
X005531Y017486D02*
X005347Y017486D01*
X005347Y018110D01*
X005531Y018110D01*
X005531Y017486D01*
X005531Y017531D02*
X005347Y017531D01*
X005347Y017576D02*
X005531Y017576D01*
X005531Y017621D02*
X005347Y017621D01*
X005347Y017666D02*
X005531Y017666D01*
X005531Y017711D02*
X005347Y017711D01*
X005347Y017756D02*
X005531Y017756D01*
X005531Y017801D02*
X005347Y017801D01*
X005347Y017846D02*
X005531Y017846D01*
X005531Y017891D02*
X005347Y017891D01*
X005347Y017936D02*
X005531Y017936D01*
X005531Y017981D02*
X005347Y017981D01*
X005347Y018026D02*
X005531Y018026D01*
X005531Y018071D02*
X005347Y018071D01*
X005275Y017486D02*
X005091Y017486D01*
X005091Y018110D01*
X005275Y018110D01*
X005275Y017486D01*
X005275Y017531D02*
X005091Y017531D01*
X005091Y017576D02*
X005275Y017576D01*
X005275Y017621D02*
X005091Y017621D01*
X005091Y017666D02*
X005275Y017666D01*
X005275Y017711D02*
X005091Y017711D01*
X005091Y017756D02*
X005275Y017756D01*
X005275Y017801D02*
X005091Y017801D01*
X005091Y017846D02*
X005275Y017846D01*
X005275Y017891D02*
X005091Y017891D01*
X005091Y017936D02*
X005275Y017936D01*
X005275Y017981D02*
X005091Y017981D01*
X005091Y018026D02*
X005275Y018026D01*
X005275Y018071D02*
X005091Y018071D01*
D20*
X003864Y015121D03*
X002329Y015121D03*
D21*
X004567Y012281D03*
X004567Y011371D03*
X004567Y010461D03*
D22*
X002127Y011371D03*
X002127Y008371D03*
D23*
X010097Y007597D03*
X010597Y007597D03*
X011097Y007597D03*
X011597Y007597D03*
X011597Y009644D03*
X011097Y009644D03*
X010597Y009644D03*
X010097Y009644D03*
D24*
X004567Y009281D03*
X004567Y008371D03*
X004567Y007461D03*
D25*
X009687Y005591D03*
X010597Y005591D03*
X011506Y005591D03*
D26*
X010597Y003151D03*
D27*
X020370Y009388D03*
X020567Y009388D03*
X020764Y009388D03*
X020961Y009388D03*
X021158Y009388D03*
X021354Y009388D03*
X021551Y009388D03*
X021748Y009388D03*
X021945Y009388D03*
X022142Y009388D03*
X022339Y009388D03*
X022536Y009388D03*
X022732Y009388D03*
X022929Y009388D03*
X023126Y009388D03*
X023323Y009388D03*
X023323Y012853D03*
X023126Y012853D03*
X022929Y012853D03*
X022732Y012853D03*
X022536Y012853D03*
X022339Y012853D03*
X022142Y012853D03*
X021945Y012853D03*
X021748Y012853D03*
X021551Y012853D03*
X021354Y012853D03*
X021158Y012853D03*
X020961Y012853D03*
X020764Y012853D03*
X020567Y012853D03*
X020370Y012853D03*
D28*
X020114Y012597D03*
X020114Y012400D03*
X020114Y012203D03*
X020114Y012007D03*
X020114Y011810D03*
X020114Y011613D03*
X020114Y011416D03*
X020114Y011219D03*
X020114Y011022D03*
X020114Y010825D03*
X020114Y010629D03*
X020114Y010432D03*
X020114Y010235D03*
X020114Y010038D03*
X020114Y009841D03*
X020114Y009644D03*
X023579Y009644D03*
X023579Y009841D03*
X023579Y010038D03*
X023579Y010235D03*
X023579Y010432D03*
X023579Y010629D03*
X023579Y010825D03*
X023579Y011022D03*
X023579Y011219D03*
X023579Y011416D03*
X023579Y011613D03*
X023579Y011810D03*
X023579Y012007D03*
X023579Y012203D03*
X023579Y012400D03*
X023579Y012597D03*
D29*
X021847Y011121D03*
D30*
X024591Y008725D03*
X024847Y008725D03*
X025103Y008725D03*
X025103Y008016D03*
X024847Y008016D03*
X024591Y008016D03*
D31*
X027047Y007721D03*
X027047Y008721D03*
X027047Y009721D03*
D32*
X021199Y005186D03*
X020884Y005186D03*
X020569Y005186D03*
X020254Y005186D03*
X019939Y005186D03*
X019624Y005186D03*
X019309Y005186D03*
X018994Y005186D03*
X018994Y004556D03*
X019309Y004556D03*
X019624Y004556D03*
X019939Y004556D03*
X020254Y004556D03*
X020569Y004556D03*
X020884Y004556D03*
X021199Y004556D03*
X021494Y018056D03*
X021809Y018056D03*
X022124Y018056D03*
X022439Y018056D03*
X022754Y018056D03*
X023069Y018056D03*
X023384Y018056D03*
X023699Y018056D03*
X023699Y018686D03*
X023384Y018686D03*
X023069Y018686D03*
X022754Y018686D03*
X022439Y018686D03*
X022124Y018686D03*
X021809Y018686D03*
X021494Y018686D03*
X016699Y018686D03*
X016384Y018686D03*
X016069Y018686D03*
X015754Y018686D03*
X015439Y018686D03*
X015124Y018686D03*
X014809Y018686D03*
X014494Y018686D03*
X014494Y018056D03*
X014809Y018056D03*
X015124Y018056D03*
X015439Y018056D03*
X015754Y018056D03*
X016069Y018056D03*
X016384Y018056D03*
X016699Y018056D03*
D33*
X025597Y006371D03*
D34*
X018912Y010530D03*
X018282Y010530D03*
X018282Y011711D03*
X018912Y011711D03*
D35*
X003831Y016888D03*
X001666Y016849D03*
X001666Y020392D03*
X003831Y020392D03*
D36*
X003831Y019251D03*
X003831Y018936D03*
X003831Y018621D03*
X003831Y018306D03*
X003831Y017991D03*
D37*
X002847Y017755D03*
X002847Y019487D03*
D38*
X011624Y017995D03*
X011624Y017621D03*
X011624Y017247D03*
X012569Y017247D03*
X012569Y017621D03*
X012569Y017995D03*
X013124Y016245D03*
X013124Y015871D03*
X013124Y015497D03*
X014069Y015497D03*
X014069Y015871D03*
X014069Y016245D03*
X015874Y016245D03*
X015874Y015871D03*
X015874Y015497D03*
X016819Y015497D03*
X016819Y015871D03*
X016819Y016245D03*
X017874Y017247D03*
X017874Y017621D03*
X017874Y017995D03*
X018819Y017995D03*
X018819Y017621D03*
X018819Y017247D03*
X018624Y016245D03*
X018624Y015871D03*
X018624Y015497D03*
X019569Y015497D03*
X019569Y015871D03*
X019569Y016245D03*
X021374Y016245D03*
X021374Y015871D03*
X021374Y015497D03*
X022319Y015497D03*
X022319Y015871D03*
X022319Y016245D03*
X024124Y016245D03*
X024124Y015871D03*
X024124Y015497D03*
X025069Y015497D03*
X025069Y015871D03*
X025069Y016245D03*
X025374Y017247D03*
X025374Y017621D03*
X025374Y017995D03*
X026319Y017995D03*
X026319Y017621D03*
X026319Y017247D03*
X023319Y006995D03*
X023319Y006621D03*
X023319Y006247D03*
X022374Y006247D03*
X022374Y006621D03*
X022374Y006995D03*
X021319Y006995D03*
X021319Y006621D03*
X021319Y006247D03*
X020374Y006247D03*
X020374Y006621D03*
X020374Y006995D03*
X019319Y006995D03*
X019319Y006621D03*
X019319Y006247D03*
X018374Y006247D03*
X018374Y006621D03*
X018374Y006995D03*
X017319Y006995D03*
X017319Y006621D03*
X017319Y006247D03*
X016374Y006247D03*
X016374Y006621D03*
X016374Y006995D03*
D39*
X009858Y011997D03*
X009858Y012745D03*
X008839Y012745D03*
X008839Y012371D03*
X008839Y011997D03*
D40*
X017847Y018871D03*
M02*
