G75*
G70*
%OFA0B0*%
%FSLAX24Y24*%
%IPPOS*%
%LPD*%
%AMOC8*
5,1,8,0,0,1.08239X$1,22.5*
%
%ADD10C,0.0020*%
%ADD11C,0.0060*%
%ADD12C,0.0050*%
%ADD13R,0.0483X0.0017*%
%ADD14R,0.0700X0.0017*%
%ADD15R,0.0867X0.0017*%
%ADD16R,0.1000X0.0017*%
%ADD17R,0.1117X0.0017*%
%ADD18R,0.1217X0.0017*%
%ADD19R,0.1300X0.0017*%
%ADD20R,0.0517X0.0017*%
%ADD21R,0.0550X0.0017*%
%ADD22R,0.0450X0.0017*%
%ADD23R,0.0400X0.0017*%
%ADD24R,0.0417X0.0017*%
%ADD25R,0.0367X0.0017*%
%ADD26R,0.0383X0.0017*%
%ADD27R,0.0333X0.0017*%
%ADD28R,0.0350X0.0017*%
%ADD29R,0.0317X0.0017*%
%ADD30R,0.0283X0.0017*%
%ADD31R,0.0300X0.0017*%
%ADD32R,0.0283X0.0017*%
%ADD33R,0.0283X0.0017*%
%ADD34R,0.0250X0.0017*%
%ADD35R,0.0233X0.0017*%
%ADD36R,0.0267X0.0017*%
%ADD37R,0.0217X0.0017*%
%ADD38R,0.0267X0.0017*%
%ADD39R,0.0200X0.0017*%
%ADD40R,0.0250X0.0017*%
%ADD41R,0.0183X0.0017*%
%ADD42R,0.0233X0.0017*%
%ADD43R,0.0183X0.0017*%
%ADD44R,0.0183X0.0017*%
%ADD45R,0.0167X0.0017*%
%ADD46R,0.0167X0.0017*%
%ADD47R,0.0217X0.0017*%
%ADD48R,0.0067X0.0017*%
%ADD49R,0.0150X0.0017*%
%ADD50R,0.0200X0.0017*%
%ADD51R,0.0133X0.0017*%
%ADD52R,0.0217X0.0017*%
%ADD53R,0.0017X0.0017*%
%ADD54R,0.0133X0.0017*%
%ADD55R,0.0217X0.0017*%
%ADD56R,0.0050X0.0017*%
%ADD57R,0.0300X0.0017*%
%ADD58R,0.0083X0.0017*%
%ADD59R,0.0133X0.0017*%
%ADD60R,0.0433X0.0017*%
%ADD61R,0.0133X0.0017*%
%ADD62R,0.0117X0.0017*%
%ADD63R,0.0467X0.0017*%
%ADD64R,0.0117X0.0017*%
%ADD65R,0.0483X0.0017*%
%ADD66R,0.0467X0.0017*%
%ADD67R,0.0383X0.0017*%
%ADD68R,0.0350X0.0017*%
%ADD69R,0.0150X0.0017*%
%ADD70R,0.0317X0.0017*%
%ADD71R,0.0283X0.0017*%
%ADD72R,0.0167X0.0017*%
%ADD73R,0.0267X0.0017*%
%ADD74R,0.0167X0.0017*%
%ADD75R,0.0100X0.0017*%
%ADD76R,0.0100X0.0017*%
%ADD77R,0.0233X0.0017*%
%ADD78R,0.0117X0.0017*%
%ADD79R,0.0500X0.0017*%
%ADD80R,0.0083X0.0017*%
%ADD81R,0.0500X0.0017*%
%ADD82R,0.0483X0.0017*%
%ADD83R,0.0233X0.0017*%
%ADD84R,0.0450X0.0017*%
%ADD85R,0.0433X0.0017*%
%ADD86R,0.0417X0.0017*%
%ADD87R,0.0183X0.0017*%
%ADD88R,0.0433X0.0017*%
%ADD89R,0.0333X0.0017*%
%ADD90R,0.0400X0.0017*%
%ADD91R,0.0367X0.0017*%
%ADD92R,0.0017X0.0017*%
%ADD93R,0.0333X0.0017*%
%ADD94R,0.0383X0.0017*%
%ADD95R,0.0433X0.0017*%
%ADD96R,0.0717X0.0017*%
%ADD97R,0.0700X0.0017*%
%ADD98R,0.0717X0.0017*%
%ADD99R,0.0317X0.0017*%
%ADD100R,0.0333X0.0017*%
%ADD101R,0.0733X0.0017*%
%ADD102R,0.0717X0.0017*%
%ADD103R,0.0683X0.0017*%
%ADD104R,0.0650X0.0017*%
%ADD105R,0.0617X0.0017*%
%ADD106R,0.0600X0.0017*%
%ADD107R,0.0567X0.0017*%
%ADD108R,0.0367X0.0017*%
%ADD109R,0.0533X0.0017*%
%ADD110R,0.0367X0.0017*%
%ADD111R,0.0417X0.0017*%
%ADD112R,0.0550X0.0017*%
%ADD113R,0.0583X0.0017*%
%ADD114R,0.0733X0.0017*%
%ADD115R,0.0383X0.0017*%
%ADD116R,0.0767X0.0017*%
%ADD117R,0.0783X0.0017*%
%ADD118R,0.0033X0.0017*%
%ADD119R,0.0067X0.0017*%
%ADD120R,0.0533X0.0017*%
%ADD121R,0.0567X0.0017*%
%ADD122R,0.0517X0.0017*%
%ADD123R,0.0567X0.0017*%
%ADD124R,0.0517X0.0017*%
%ADD125R,0.0317X0.0017*%
%ADD126R,0.0067X0.0017*%
%ADD127R,0.0033X0.0017*%
%ADD128R,0.0467X0.0017*%
%ADD129R,0.0583X0.0017*%
%ADD130R,0.0600X0.0017*%
%ADD131R,0.0633X0.0017*%
%ADD132R,0.0683X0.0017*%
%ADD133R,0.0650X0.0017*%
%ADD134R,0.0717X0.0017*%
%ADD135R,0.0533X0.0017*%
%ADD136R,0.0883X0.0017*%
%ADD137R,0.0750X0.0017*%
%ADD138R,0.0883X0.0017*%
%ADD139R,0.0033X0.0017*%
%ADD140R,0.1717X0.0017*%
%ADD141R,0.1683X0.0017*%
%ADD142R,0.1650X0.0017*%
%ADD143R,0.1633X0.0017*%
%ADD144R,0.1333X0.0017*%
%ADD145R,0.1283X0.0017*%
%ADD146R,0.1233X0.0017*%
%ADD147R,0.1183X0.0017*%
%ADD148R,0.0867X0.0017*%
%ADD149R,0.0767X0.0017*%
%ADD150R,0.0050X0.0017*%
%ADD151C,0.0040*%
%ADD152C,0.0000*%
D10*
X004499Y007881D02*
X004499Y007991D01*
X004536Y008027D01*
X004572Y007991D01*
X004572Y007881D01*
X004646Y007881D02*
X004646Y008027D01*
X004609Y008027D01*
X004572Y007991D01*
X004720Y007991D02*
X004757Y008027D01*
X004830Y008027D01*
X004867Y007991D01*
X004867Y007917D01*
X004830Y007881D01*
X004757Y007881D01*
X004720Y007917D01*
X004720Y007991D01*
X004941Y008027D02*
X005051Y008027D01*
X005088Y007991D01*
X005088Y007917D01*
X005051Y007881D01*
X004941Y007881D01*
X005162Y007881D02*
X005162Y007917D01*
X005198Y007917D01*
X005198Y007881D01*
X005162Y007881D01*
X005272Y007917D02*
X005309Y007881D01*
X005383Y007881D01*
X005419Y007917D01*
X005419Y007991D01*
X005383Y008027D01*
X005309Y008027D01*
X005272Y007991D01*
X005272Y007917D01*
X005493Y008027D02*
X005530Y008027D01*
X005603Y007954D01*
X005603Y007881D02*
X005603Y008027D01*
X005677Y008027D02*
X005751Y008027D01*
X005714Y008064D02*
X005714Y007917D01*
X005677Y007881D01*
X005825Y007881D02*
X005935Y007881D01*
X005972Y007917D01*
X005972Y007991D01*
X005935Y008027D01*
X005825Y008027D01*
X006046Y007991D02*
X006046Y007954D01*
X006193Y007954D01*
X006193Y007917D02*
X006193Y007991D01*
X006156Y008027D01*
X006083Y008027D01*
X006046Y007991D01*
X006083Y007881D02*
X006156Y007881D01*
X006193Y007917D01*
X006267Y007881D02*
X006340Y007881D01*
X006303Y007881D02*
X006303Y008101D01*
X006340Y008101D01*
X006414Y007991D02*
X006414Y007954D01*
X006561Y007954D01*
X006561Y007917D02*
X006561Y007991D01*
X006524Y008027D01*
X006451Y008027D01*
X006414Y007991D01*
X006451Y007881D02*
X006524Y007881D01*
X006561Y007917D01*
X006635Y007991D02*
X006782Y007991D01*
X006856Y008027D02*
X006966Y008027D01*
X007003Y007991D01*
X006966Y007954D01*
X006893Y007954D01*
X006856Y007917D01*
X006893Y007881D01*
X007003Y007881D01*
X007077Y007917D02*
X007077Y007991D01*
X007114Y008027D01*
X007187Y008027D01*
X007224Y007991D01*
X007224Y007917D01*
X007187Y007881D01*
X007114Y007881D01*
X007077Y007917D01*
X007298Y007881D02*
X007408Y007881D01*
X007445Y007917D01*
X007445Y007991D01*
X007408Y008027D01*
X007298Y008027D01*
X007298Y007844D01*
X007335Y007807D01*
X007371Y007807D01*
X007519Y007917D02*
X007519Y007991D01*
X007556Y008027D01*
X007629Y008027D01*
X007666Y007991D01*
X007666Y007917D01*
X007629Y007881D01*
X007556Y007881D01*
X007519Y007917D01*
X007740Y007881D02*
X007813Y007881D01*
X007776Y007881D02*
X007776Y008101D01*
X007813Y008101D01*
X007887Y007917D02*
X007887Y007881D01*
X007924Y007881D01*
X007924Y007917D01*
X007887Y007917D01*
X007998Y007917D02*
X008035Y007881D01*
X008071Y007917D01*
X008108Y007881D01*
X008145Y007917D01*
X008145Y008027D01*
X008219Y008027D02*
X008219Y007917D01*
X008256Y007881D01*
X008292Y007917D01*
X008329Y007881D01*
X008366Y007917D01*
X008366Y008027D01*
X008440Y008027D02*
X008440Y007917D01*
X008477Y007881D01*
X008513Y007917D01*
X008550Y007881D01*
X008587Y007917D01*
X008587Y008027D01*
X008569Y008381D02*
X008532Y008417D01*
X008532Y008491D01*
X008569Y008527D01*
X008643Y008527D01*
X008679Y008491D01*
X008679Y008417D01*
X008643Y008381D01*
X008569Y008381D01*
X008422Y008381D02*
X008422Y008564D01*
X008385Y008601D01*
X008385Y008491D02*
X008458Y008491D01*
X008090Y008601D02*
X008090Y008381D01*
X007943Y008381D01*
X007869Y008417D02*
X007832Y008381D01*
X007759Y008381D01*
X007722Y008417D01*
X007722Y008491D01*
X007759Y008527D01*
X007832Y008527D01*
X007869Y008491D01*
X007869Y008417D01*
X007648Y008417D02*
X007611Y008381D01*
X007501Y008381D01*
X007501Y008344D02*
X007501Y008527D01*
X007611Y008527D01*
X007648Y008491D01*
X007648Y008417D01*
X007575Y008307D02*
X007538Y008307D01*
X007501Y008344D01*
X007427Y008417D02*
X007390Y008381D01*
X007317Y008381D01*
X007280Y008417D01*
X007280Y008491D01*
X007317Y008527D01*
X007390Y008527D01*
X007427Y008491D01*
X007427Y008417D01*
X007206Y008381D02*
X007096Y008381D01*
X007059Y008417D01*
X007096Y008454D01*
X007169Y008454D01*
X007206Y008491D01*
X007169Y008527D01*
X007059Y008527D01*
X006764Y008491D02*
X006691Y008491D01*
X006764Y008601D02*
X006764Y008381D01*
X006617Y008381D01*
X006543Y008381D02*
X006470Y008381D01*
X006506Y008381D02*
X006506Y008601D01*
X006543Y008601D01*
X006617Y008601D02*
X006764Y008601D01*
X006396Y008491D02*
X006359Y008527D01*
X006286Y008527D01*
X006249Y008491D01*
X006249Y008454D01*
X006396Y008454D01*
X006396Y008417D02*
X006396Y008491D01*
X006396Y008417D02*
X006359Y008381D01*
X006286Y008381D01*
X006175Y008417D02*
X006138Y008381D01*
X006028Y008381D01*
X005917Y008417D02*
X005917Y008564D01*
X005954Y008527D02*
X005880Y008527D01*
X005806Y008527D02*
X005806Y008381D01*
X005806Y008454D02*
X005733Y008527D01*
X005696Y008527D01*
X005622Y008491D02*
X005622Y008417D01*
X005586Y008381D01*
X005512Y008381D01*
X005476Y008417D01*
X005476Y008491D01*
X005512Y008527D01*
X005586Y008527D01*
X005622Y008491D01*
X005401Y008527D02*
X005365Y008527D01*
X005328Y008491D01*
X005291Y008527D01*
X005255Y008491D01*
X005255Y008381D01*
X005328Y008381D02*
X005328Y008491D01*
X005401Y008527D02*
X005401Y008381D01*
X005180Y008417D02*
X005180Y008491D01*
X005144Y008527D01*
X005070Y008527D01*
X005034Y008491D01*
X005034Y008454D01*
X005180Y008454D01*
X005180Y008417D02*
X005144Y008381D01*
X005070Y008381D01*
X004959Y008417D02*
X004923Y008381D01*
X004813Y008381D01*
X004738Y008381D02*
X004738Y008601D01*
X004702Y008527D02*
X004628Y008527D01*
X004592Y008491D01*
X004592Y008381D01*
X004517Y008417D02*
X004481Y008454D01*
X004371Y008454D01*
X004371Y008491D02*
X004371Y008381D01*
X004481Y008381D01*
X004517Y008417D01*
X004481Y008527D02*
X004407Y008527D01*
X004371Y008491D01*
X004296Y008527D02*
X004186Y008527D01*
X004150Y008491D01*
X004150Y008381D01*
X004075Y008381D02*
X004002Y008381D01*
X004039Y008381D02*
X004039Y008527D01*
X004075Y008527D01*
X004039Y008601D02*
X004039Y008638D01*
X003928Y008491D02*
X003928Y008417D01*
X003891Y008381D01*
X003781Y008381D01*
X003707Y008417D02*
X003670Y008454D01*
X003560Y008454D01*
X003560Y008491D02*
X003560Y008381D01*
X003670Y008381D01*
X003707Y008417D01*
X003670Y008527D02*
X003597Y008527D01*
X003560Y008491D01*
X003486Y008601D02*
X003449Y008601D01*
X003449Y008381D01*
X003413Y008381D02*
X003486Y008381D01*
X003781Y008527D02*
X003891Y008527D01*
X003928Y008491D01*
X004296Y008527D02*
X004296Y008381D01*
X004702Y008527D02*
X004738Y008491D01*
X004813Y008527D02*
X004923Y008527D01*
X004959Y008491D01*
X004959Y008417D01*
X005880Y008381D02*
X005917Y008417D01*
X006028Y008527D02*
X006138Y008527D01*
X006175Y008491D01*
X006175Y008417D01*
X007998Y008027D02*
X007998Y007917D01*
X008974Y008381D02*
X009011Y008417D01*
X009011Y008564D01*
X009048Y008527D02*
X008974Y008527D01*
X009122Y008527D02*
X009232Y008527D01*
X009269Y008491D01*
X009269Y008417D01*
X009232Y008381D01*
X009122Y008381D01*
X009343Y008381D02*
X009343Y008527D01*
X009343Y008381D02*
X009453Y008381D01*
X009490Y008417D01*
X009490Y008527D01*
X009564Y008527D02*
X009674Y008527D01*
X009711Y008491D01*
X009711Y008417D01*
X009674Y008381D01*
X009564Y008381D01*
X009564Y008601D01*
X009785Y008491D02*
X009821Y008527D01*
X009895Y008527D01*
X009931Y008491D01*
X009931Y008417D01*
X009895Y008381D01*
X009821Y008381D01*
X009785Y008417D01*
X009785Y008491D01*
X010006Y008527D02*
X010042Y008527D01*
X010116Y008454D01*
X010116Y008381D02*
X010116Y008527D01*
X010190Y008491D02*
X010227Y008454D01*
X010337Y008454D01*
X010337Y008381D02*
X010337Y008601D01*
X010227Y008601D01*
X010190Y008564D01*
X010190Y008491D01*
D11*
X013247Y018471D02*
X014947Y018471D01*
X014964Y018473D01*
X014981Y018477D01*
X014997Y018484D01*
X015011Y018494D01*
X015024Y018507D01*
X015034Y018521D01*
X015041Y018537D01*
X015045Y018554D01*
X015047Y018571D01*
X015047Y019171D01*
X015045Y019188D01*
X015041Y019205D01*
X015034Y019221D01*
X015024Y019235D01*
X015011Y019248D01*
X014997Y019258D01*
X014981Y019265D01*
X014964Y019269D01*
X014947Y019271D01*
X013247Y019271D01*
X013230Y019269D01*
X013213Y019265D01*
X013197Y019258D01*
X013183Y019248D01*
X013170Y019235D01*
X013160Y019221D01*
X013153Y019205D01*
X013149Y019188D01*
X013147Y019171D01*
X013147Y018571D01*
X013149Y018554D01*
X013153Y018537D01*
X013160Y018521D01*
X013170Y018507D01*
X013183Y018494D01*
X013197Y018484D01*
X013213Y018477D01*
X013230Y018473D01*
X013247Y018471D01*
X023297Y005321D02*
X023897Y005321D01*
X023914Y005319D01*
X023931Y005315D01*
X023947Y005308D01*
X023961Y005298D01*
X023974Y005285D01*
X023984Y005271D01*
X023991Y005255D01*
X023995Y005238D01*
X023997Y005221D01*
X023997Y003521D01*
X023995Y003504D01*
X023991Y003487D01*
X023984Y003471D01*
X023974Y003457D01*
X023961Y003444D01*
X023947Y003434D01*
X023931Y003427D01*
X023914Y003423D01*
X023897Y003421D01*
X023297Y003421D01*
X023280Y003423D01*
X023263Y003427D01*
X023247Y003434D01*
X023233Y003444D01*
X023220Y003457D01*
X023210Y003471D01*
X023203Y003487D01*
X023199Y003504D01*
X023197Y003521D01*
X023197Y005221D01*
X023199Y005238D01*
X023203Y005255D01*
X023210Y005271D01*
X023220Y005285D01*
X023233Y005298D01*
X023247Y005308D01*
X023263Y005315D01*
X023280Y005319D01*
X023297Y005321D01*
X024447Y005221D02*
X024447Y003521D01*
X024449Y003504D01*
X024453Y003487D01*
X024460Y003471D01*
X024470Y003457D01*
X024483Y003444D01*
X024497Y003434D01*
X024513Y003427D01*
X024530Y003423D01*
X024547Y003421D01*
X025147Y003421D01*
X025164Y003423D01*
X025181Y003427D01*
X025197Y003434D01*
X025211Y003444D01*
X025224Y003457D01*
X025234Y003471D01*
X025241Y003487D01*
X025245Y003504D01*
X025247Y003521D01*
X025247Y005221D01*
X025245Y005238D01*
X025241Y005255D01*
X025234Y005271D01*
X025224Y005285D01*
X025211Y005298D01*
X025197Y005308D01*
X025181Y005315D01*
X025164Y005319D01*
X025147Y005321D01*
X024547Y005321D01*
X024530Y005319D01*
X024513Y005315D01*
X024497Y005308D01*
X024483Y005298D01*
X024470Y005285D01*
X024460Y005271D01*
X024453Y005255D01*
X024449Y005238D01*
X024447Y005221D01*
D12*
X024301Y005396D02*
X024601Y005396D01*
X024301Y005696D01*
X024301Y005771D01*
X024376Y005846D01*
X024526Y005846D01*
X024601Y005771D01*
X024761Y005846D02*
X024911Y005846D01*
X024836Y005846D02*
X024836Y005471D01*
X024911Y005396D01*
X024986Y005396D01*
X025061Y005471D01*
X025221Y005471D02*
X025296Y005396D01*
X025447Y005396D01*
X025522Y005471D01*
X025447Y005621D02*
X025522Y005696D01*
X025522Y005771D01*
X025447Y005846D01*
X025296Y005846D01*
X025221Y005771D01*
X025296Y005621D02*
X025221Y005546D01*
X025221Y005471D01*
X025296Y005621D02*
X025447Y005621D01*
X023022Y004521D02*
X023022Y004446D01*
X022947Y004371D01*
X022796Y004371D01*
X022721Y004296D01*
X022721Y004221D01*
X022796Y004146D01*
X022947Y004146D01*
X023022Y004221D01*
X023022Y004521D02*
X022947Y004596D01*
X022796Y004596D01*
X022721Y004521D01*
X022411Y004596D02*
X022261Y004596D01*
X022336Y004596D02*
X022336Y004221D01*
X022411Y004146D01*
X022486Y004146D01*
X022561Y004221D01*
X022101Y004146D02*
X021801Y004146D01*
X021951Y004146D02*
X021951Y004596D01*
X022101Y004446D01*
X014447Y019396D02*
X014522Y019471D01*
X014447Y019396D02*
X014296Y019396D01*
X014221Y019471D01*
X014221Y019546D01*
X014296Y019621D01*
X014447Y019621D01*
X014522Y019696D01*
X014522Y019771D01*
X014447Y019846D01*
X014296Y019846D01*
X014221Y019771D01*
X013911Y019846D02*
X013761Y019846D01*
X013836Y019846D02*
X013836Y019471D01*
X013911Y019396D01*
X013986Y019396D01*
X014061Y019471D01*
X013601Y019621D02*
X013376Y019846D01*
X013376Y019396D01*
X013301Y019621D02*
X013601Y019621D01*
D13*
X007713Y012554D03*
X006080Y012587D03*
X005380Y012154D03*
X008580Y010137D03*
X008563Y010104D03*
X008563Y010087D03*
X006830Y009154D03*
D14*
X006822Y009171D03*
X005672Y010621D03*
X005672Y010671D03*
X005672Y010721D03*
X005672Y011171D03*
X005672Y011221D03*
X005672Y011271D03*
X005672Y011321D03*
D15*
X006822Y009187D03*
D16*
X006822Y009204D03*
D17*
X006813Y009221D03*
D18*
X006813Y009237D03*
D19*
X006822Y009254D03*
D20*
X007247Y009271D03*
X006797Y011071D03*
X008447Y012021D03*
D21*
X007663Y011771D03*
X005763Y012471D03*
X006397Y009271D03*
D22*
X006313Y009287D03*
X007330Y009287D03*
X008330Y009704D03*
X008347Y009687D03*
X008580Y010154D03*
X008730Y010554D03*
X008680Y011537D03*
X008680Y011554D03*
X008663Y011587D03*
X008663Y011604D03*
X008647Y011637D03*
X007730Y012537D03*
X006613Y011237D03*
X006797Y011037D03*
X005930Y010154D03*
X004930Y011254D03*
X004947Y011337D03*
D23*
X004988Y011404D03*
X005105Y011704D03*
X005372Y012104D03*
X006522Y011404D03*
X006522Y011387D03*
X007505Y011687D03*
X008455Y011937D03*
X008672Y011504D03*
X008755Y011004D03*
X008572Y010187D03*
X008288Y009787D03*
X007388Y009304D03*
D24*
X006247Y009304D03*
X004947Y011237D03*
X008447Y011954D03*
D25*
X008655Y011471D03*
X007438Y009321D03*
X006088Y010271D03*
D26*
X006197Y009321D03*
X008447Y011921D03*
D27*
X008138Y012237D03*
X007838Y012454D03*
X007405Y011604D03*
X007388Y011587D03*
X007355Y011554D03*
X007338Y011537D03*
X007305Y011504D03*
X007288Y011487D03*
X007255Y011454D03*
X007238Y011437D03*
X007205Y011404D03*
X007188Y011387D03*
X007155Y011354D03*
X007138Y011337D03*
X007105Y011304D03*
X007088Y011287D03*
X007055Y011254D03*
X007038Y011237D03*
X006555Y010737D03*
X006505Y010687D03*
X006455Y010637D03*
X006405Y010587D03*
X006355Y010537D03*
X006305Y010487D03*
X006255Y010437D03*
X005855Y009904D03*
X006105Y009354D03*
X007488Y009337D03*
D28*
X008563Y010204D03*
X007430Y011637D03*
X006613Y011287D03*
X006597Y011304D03*
X006613Y010804D03*
X006597Y010787D03*
X006230Y010404D03*
X006213Y010387D03*
X006180Y010354D03*
X006163Y010337D03*
X006130Y010304D03*
X006113Y010287D03*
X006147Y009337D03*
X004980Y011204D03*
X008130Y012254D03*
X008447Y011904D03*
D29*
X007913Y012404D03*
X006580Y011337D03*
X007030Y010754D03*
X007080Y010704D03*
X007130Y010654D03*
X007530Y009354D03*
X005630Y012304D03*
X005680Y012337D03*
D30*
X007563Y009371D03*
D31*
X006072Y009371D03*
X005055Y011421D03*
X005605Y012271D03*
X005655Y012321D03*
X007738Y012171D03*
X008438Y011871D03*
D32*
X008697Y010954D03*
X008547Y010254D03*
X007597Y009387D03*
X005997Y009404D03*
X005597Y012554D03*
D33*
X005563Y012237D03*
X006030Y012754D03*
X005130Y011637D03*
X007630Y011954D03*
X008680Y011187D03*
X008680Y010704D03*
X006030Y009387D03*
D34*
X005913Y009454D03*
X007630Y009404D03*
X007663Y010137D03*
X007563Y010237D03*
X007530Y010304D03*
X007497Y010337D03*
X007480Y010354D03*
X008297Y009887D03*
X008313Y009904D03*
X008347Y009954D03*
X008380Y010004D03*
X008413Y009637D03*
X008430Y011837D03*
X008247Y012087D03*
X008213Y012137D03*
X008197Y012154D03*
X008163Y012187D03*
X008263Y012437D03*
X007863Y012704D03*
X007413Y012854D03*
X006947Y012904D03*
X006947Y012937D03*
X006480Y012904D03*
X006480Y012887D03*
X006013Y012787D03*
X005247Y012254D03*
X005363Y012004D03*
X005330Y011954D03*
X005313Y011937D03*
X005297Y011904D03*
X005280Y011887D03*
X007630Y011987D03*
X007663Y012104D03*
X007763Y012204D03*
D35*
X008438Y011821D03*
X008555Y012071D03*
X008105Y011121D03*
X008105Y011071D03*
X008105Y011021D03*
X008105Y010971D03*
X008105Y010921D03*
X008105Y010871D03*
X008105Y010821D03*
X008105Y010771D03*
X007555Y010271D03*
X007255Y010571D03*
X007205Y010621D03*
X006438Y011421D03*
X006405Y011471D03*
X006355Y011521D03*
X005838Y011121D03*
X005838Y011071D03*
X005838Y010871D03*
X005838Y010821D03*
X005838Y010771D03*
X005105Y011471D03*
X005138Y011571D03*
X005805Y009521D03*
X007655Y009421D03*
X008355Y009971D03*
X008388Y010021D03*
D36*
X007622Y010171D03*
X007572Y010221D03*
X008622Y011421D03*
X006022Y012771D03*
X005372Y012021D03*
X005022Y011171D03*
X005972Y009421D03*
D37*
X005763Y009554D03*
X005863Y009854D03*
X005030Y010937D03*
X005030Y010954D03*
X005030Y010987D03*
X005030Y011004D03*
X005030Y011037D03*
X005030Y011054D03*
X005030Y011087D03*
X005030Y011104D03*
X005030Y011137D03*
X005030Y011154D03*
X005113Y011504D03*
X005130Y011554D03*
X005563Y012604D03*
X006463Y012954D03*
X007430Y012904D03*
X007880Y012737D03*
X007630Y012054D03*
X007630Y012037D03*
X007630Y012004D03*
X008463Y011754D03*
X007263Y010554D03*
X007280Y010537D03*
X007313Y010504D03*
X007330Y010487D03*
X007363Y010454D03*
X007380Y010437D03*
X007413Y010404D03*
X007430Y010387D03*
X007730Y010054D03*
X007763Y010004D03*
X007713Y009454D03*
X007680Y009437D03*
X008530Y010287D03*
X008530Y010304D03*
X006413Y011454D03*
D38*
X005355Y011987D03*
X006488Y012854D03*
X006938Y012887D03*
X007405Y012837D03*
X007855Y012687D03*
X007755Y012187D03*
X007705Y012137D03*
X008155Y012204D03*
X008438Y011854D03*
X007588Y010204D03*
X007605Y010187D03*
X007638Y010154D03*
X005988Y010104D03*
X005938Y009437D03*
D39*
X005622Y009671D03*
X005572Y009721D03*
X005422Y010771D03*
X005055Y010721D03*
X005038Y010821D03*
X005038Y010871D03*
X006038Y011821D03*
X006088Y011771D03*
X006138Y011721D03*
X006188Y011671D03*
X006238Y011621D03*
X006288Y011571D03*
X007638Y012071D03*
X008455Y011771D03*
X008505Y011671D03*
X008572Y010421D03*
X008555Y010371D03*
X008538Y010321D03*
X007788Y009971D03*
X007755Y010021D03*
X007722Y009471D03*
D40*
X008330Y009921D03*
X008530Y010271D03*
X008613Y010471D03*
X008663Y010721D03*
X007513Y010321D03*
X005880Y009471D03*
X005280Y011871D03*
X005313Y011921D03*
X006947Y012921D03*
X007630Y011971D03*
X008180Y012171D03*
X008263Y012071D03*
D41*
X008647Y010904D03*
X008647Y010887D03*
X008647Y010854D03*
X008647Y010837D03*
X008647Y010804D03*
X008647Y010787D03*
X008647Y010754D03*
X007797Y009954D03*
X007797Y009537D03*
X007747Y009487D03*
X005547Y009754D03*
X005497Y009804D03*
X005347Y010004D03*
X005147Y010387D03*
X005097Y010537D03*
X005097Y010554D03*
X005047Y010787D03*
X006947Y013037D03*
D42*
X006005Y012804D03*
X005138Y011604D03*
X005138Y011587D03*
X005105Y011487D03*
X005838Y011154D03*
X005838Y011137D03*
X005838Y011104D03*
X005838Y011087D03*
X005838Y011054D03*
X005838Y010854D03*
X005838Y010837D03*
X005838Y010804D03*
X005838Y010787D03*
X006388Y011487D03*
X007188Y010637D03*
X007238Y010587D03*
X007538Y010287D03*
X007555Y010254D03*
X007688Y010104D03*
X007705Y010087D03*
X008338Y009937D03*
X008105Y010787D03*
X008105Y010804D03*
X008105Y010837D03*
X008105Y010854D03*
X008105Y010887D03*
X008105Y010904D03*
X008105Y010937D03*
X008105Y010954D03*
X008105Y010987D03*
X008105Y011004D03*
X008105Y011037D03*
X008105Y011054D03*
X008105Y011087D03*
X008105Y011104D03*
X008105Y011137D03*
X008105Y011154D03*
X008238Y012104D03*
X005838Y009504D03*
X005855Y009487D03*
X005788Y009537D03*
D43*
X005563Y009737D03*
X005513Y009787D03*
X005463Y009837D03*
X005430Y009887D03*
X005413Y009904D03*
X005380Y009954D03*
X005313Y010054D03*
X005280Y010104D03*
X005263Y010137D03*
X005230Y010204D03*
X005213Y010237D03*
X005180Y010304D03*
X005163Y010354D03*
X005130Y010437D03*
X005113Y010487D03*
X005113Y010504D03*
X005080Y010587D03*
X005080Y010604D03*
X005080Y010637D03*
X005063Y010654D03*
X005063Y010687D03*
X005063Y010704D03*
X005413Y010787D03*
X005413Y010804D03*
X005413Y010837D03*
X005413Y011087D03*
X005413Y011104D03*
X005413Y011137D03*
X006013Y011854D03*
X006413Y011437D03*
X007680Y010804D03*
X007680Y010787D03*
X007813Y009937D03*
X007763Y009504D03*
X008580Y010454D03*
X008630Y011204D03*
X008630Y011237D03*
X008630Y011254D03*
X008613Y011287D03*
X008613Y011304D03*
X008613Y011337D03*
X006013Y010087D03*
D44*
X005530Y009771D03*
X005480Y009821D03*
X005363Y009971D03*
X005080Y010621D03*
X005063Y010671D03*
X005413Y010821D03*
X005413Y011121D03*
X005230Y012271D03*
X005980Y012871D03*
X008613Y011321D03*
X008630Y011271D03*
X008630Y011221D03*
X007680Y010771D03*
X007813Y009921D03*
X007780Y009521D03*
X008430Y009621D03*
D45*
X007855Y009837D03*
X007838Y009887D03*
X007805Y009554D03*
X005455Y009854D03*
X005388Y009937D03*
X005355Y009987D03*
X005288Y010087D03*
X005255Y010154D03*
X005238Y010187D03*
X005205Y010254D03*
X005188Y010287D03*
X005138Y010404D03*
X005405Y010854D03*
X005405Y010887D03*
X005405Y011054D03*
X006005Y011887D03*
X005988Y011904D03*
X005955Y011937D03*
X006455Y013004D03*
X006955Y013054D03*
X007438Y012954D03*
X007938Y011904D03*
X008788Y011654D03*
D46*
X007672Y010871D03*
X007672Y010821D03*
X007822Y009571D03*
X005272Y010121D03*
X005222Y010221D03*
X005172Y010321D03*
X005122Y010471D03*
X004972Y011871D03*
X005972Y011921D03*
D47*
X005997Y012821D03*
X006947Y012971D03*
X007297Y010521D03*
X007347Y010471D03*
X007397Y010421D03*
X007447Y010371D03*
X005747Y009571D03*
D48*
X008472Y009587D03*
X005772Y012104D03*
D49*
X005213Y012287D03*
X006447Y013037D03*
X006947Y013087D03*
X007447Y012987D03*
X007663Y010887D03*
X007847Y009854D03*
X007863Y009804D03*
X007847Y009604D03*
X007830Y009587D03*
X006013Y010054D03*
X005980Y009954D03*
X005963Y009937D03*
X005863Y009837D03*
D50*
X005722Y009587D03*
X005655Y009637D03*
X005638Y009654D03*
X005605Y009687D03*
X005588Y009704D03*
X005055Y010737D03*
X005055Y010754D03*
X005038Y010804D03*
X005038Y010837D03*
X005038Y010854D03*
X005038Y010887D03*
X005038Y010904D03*
X005422Y011154D03*
X006155Y011704D03*
X006172Y011687D03*
X006205Y011654D03*
X006222Y011637D03*
X006255Y011604D03*
X006272Y011587D03*
X006305Y011554D03*
X006322Y011537D03*
X006122Y011737D03*
X006105Y011754D03*
X006072Y011787D03*
X006055Y011804D03*
X006022Y011837D03*
X005988Y012854D03*
X006455Y012987D03*
X006955Y013004D03*
X007438Y012937D03*
X007888Y012754D03*
X008272Y012454D03*
X008438Y011804D03*
X008472Y011737D03*
X008488Y011704D03*
X008488Y011687D03*
X008505Y011654D03*
X008605Y011387D03*
X008605Y011354D03*
X008638Y010737D03*
X008572Y010437D03*
X008572Y010404D03*
X008555Y010387D03*
X008555Y010354D03*
X008538Y010337D03*
X007772Y009987D03*
D51*
X007855Y009637D03*
X008455Y009604D03*
X006005Y010004D03*
X006005Y010037D03*
X005755Y010104D03*
X005738Y010087D03*
X005738Y009937D03*
X005555Y012637D03*
X006455Y013054D03*
D52*
X005997Y012837D03*
X006947Y012954D03*
X006947Y012987D03*
X007647Y012087D03*
X008447Y011787D03*
X007747Y010037D03*
X005697Y009604D03*
X005097Y011437D03*
X005097Y011454D03*
D53*
X006497Y013071D03*
X008197Y009621D03*
D54*
X007855Y009621D03*
X006005Y010021D03*
X005988Y009971D03*
X006638Y011421D03*
D55*
X007630Y012021D03*
X008480Y011721D03*
X007430Y012921D03*
X006463Y012971D03*
X005030Y011121D03*
X005030Y011071D03*
X005030Y011021D03*
X005030Y010971D03*
X005030Y010921D03*
X005680Y009621D03*
X007713Y010071D03*
D56*
X008197Y009637D03*
X007030Y010637D03*
X008013Y011987D03*
X005730Y012154D03*
D57*
X005622Y012287D03*
X005588Y012254D03*
X005372Y012037D03*
X005255Y012237D03*
X007638Y011937D03*
X007722Y012154D03*
X008238Y012404D03*
X008638Y011437D03*
X008555Y010237D03*
X008288Y009854D03*
X008405Y009654D03*
X005855Y009887D03*
D58*
X008197Y009654D03*
X005197Y012304D03*
D59*
X007972Y011937D03*
X007872Y009787D03*
X007872Y009754D03*
X007872Y009687D03*
X007872Y009654D03*
D60*
X008288Y009771D03*
X008355Y009671D03*
X008738Y010571D03*
X008738Y010621D03*
X006805Y011021D03*
X005738Y012421D03*
D61*
X007872Y009771D03*
X007872Y009671D03*
D62*
X007880Y009704D03*
X007880Y009737D03*
X005913Y011954D03*
D63*
X004955Y011371D03*
X004938Y011321D03*
X004938Y011271D03*
X006838Y010971D03*
X008305Y009721D03*
D64*
X007880Y009721D03*
X005730Y010071D03*
D65*
X006797Y011054D03*
X005747Y012437D03*
X008447Y011987D03*
X008297Y009737D03*
D66*
X008288Y009754D03*
X004938Y011287D03*
X004938Y011304D03*
X004955Y011354D03*
X004955Y011387D03*
X005088Y011737D03*
D67*
X006547Y011354D03*
X006047Y010237D03*
X008297Y009804D03*
X006897Y012854D03*
D68*
X007813Y012471D03*
X007413Y011621D03*
X008713Y010671D03*
X008297Y009821D03*
X006247Y010421D03*
X006197Y010371D03*
X006147Y010321D03*
X005863Y009921D03*
X005113Y011671D03*
X005713Y012371D03*
D69*
X006947Y013071D03*
X007897Y012771D03*
X008280Y012471D03*
X007963Y011921D03*
X008697Y010021D03*
X007863Y009821D03*
D70*
X008297Y009837D03*
X008697Y010687D03*
X008647Y011454D03*
X008447Y011887D03*
X007097Y010687D03*
X007047Y010737D03*
X004997Y011187D03*
X005697Y012354D03*
D71*
X006947Y012871D03*
X008147Y012221D03*
X008297Y009871D03*
D72*
X007838Y009871D03*
X006005Y010071D03*
X005438Y009871D03*
X005405Y009921D03*
X005338Y010021D03*
X005305Y010071D03*
X005155Y010371D03*
X005138Y010421D03*
X005105Y010521D03*
X005405Y010871D03*
X005405Y011071D03*
X006005Y011871D03*
X005555Y012621D03*
X006455Y013021D03*
X007438Y012971D03*
X007788Y012221D03*
D73*
X007688Y012121D03*
X008255Y012421D03*
X007838Y012671D03*
X007405Y012821D03*
X006488Y012871D03*
X005588Y012571D03*
X005338Y011971D03*
X005138Y011621D03*
X005855Y009871D03*
D74*
X005322Y010037D03*
X005172Y010337D03*
X005122Y010454D03*
X007672Y010837D03*
X007672Y010854D03*
X007822Y009904D03*
X008572Y012087D03*
X005972Y012887D03*
D75*
X005988Y012904D03*
X005838Y012037D03*
X005872Y012004D03*
X005888Y011987D03*
X006638Y011437D03*
X007988Y011954D03*
X008288Y012487D03*
X008605Y012104D03*
X005722Y010054D03*
X005722Y010004D03*
X005722Y009987D03*
X005722Y009954D03*
D76*
X005722Y009971D03*
X005705Y010021D03*
X005905Y011971D03*
X005855Y012021D03*
D77*
X005572Y012587D03*
X006472Y012937D03*
X007422Y012887D03*
X006372Y011504D03*
X007222Y010604D03*
X008372Y009987D03*
X008672Y010937D03*
X008622Y011404D03*
X005122Y011537D03*
D78*
X005997Y009987D03*
X007897Y012787D03*
D79*
X008105Y012337D03*
X008455Y012004D03*
X007572Y011704D03*
X006838Y010954D03*
X005105Y011787D03*
X005105Y011804D03*
X005122Y011837D03*
X005088Y011754D03*
X006122Y012604D03*
X008538Y010054D03*
X008538Y010037D03*
D80*
X005713Y010037D03*
X005830Y012054D03*
X007430Y013004D03*
D81*
X005088Y011771D03*
X008555Y010071D03*
D82*
X008580Y010121D03*
X008113Y012321D03*
D83*
X008222Y012121D03*
X007872Y012721D03*
X007422Y012871D03*
X006472Y012921D03*
X005122Y011521D03*
X007672Y010121D03*
D84*
X006613Y011221D03*
X005947Y010171D03*
X005913Y010121D03*
X005097Y011721D03*
X006047Y012571D03*
X008447Y011971D03*
X008647Y011621D03*
X008663Y011571D03*
X008680Y011521D03*
D85*
X008772Y011037D03*
X008722Y010537D03*
X008722Y010504D03*
X006822Y011004D03*
X005972Y010187D03*
X005922Y010137D03*
X008122Y012304D03*
D86*
X008763Y011121D03*
X008763Y011071D03*
X008580Y010171D03*
D87*
X008647Y010771D03*
X008647Y010821D03*
X008647Y010871D03*
X008647Y010921D03*
X008597Y011371D03*
X006947Y013021D03*
X005047Y010771D03*
X005097Y010571D03*
X005197Y010271D03*
X005247Y010171D03*
D88*
X005988Y010204D03*
X006838Y010987D03*
X008738Y010637D03*
X008738Y010604D03*
X008738Y010587D03*
X006005Y012554D03*
D89*
X006588Y011321D03*
X006588Y010771D03*
X006538Y010721D03*
X006488Y010671D03*
X006438Y010621D03*
X006388Y010571D03*
X006338Y010521D03*
X006288Y010471D03*
X008555Y010221D03*
D90*
X006538Y011371D03*
X006022Y010221D03*
X007738Y012521D03*
D91*
X005772Y011037D03*
X005772Y011004D03*
X005772Y010987D03*
X005772Y010954D03*
X005772Y010937D03*
X005772Y010904D03*
X005772Y010887D03*
X006072Y010254D03*
X007022Y010787D03*
D92*
X007580Y010371D03*
X007880Y012821D03*
D93*
X007872Y012437D03*
X006572Y010754D03*
X006522Y010704D03*
X006472Y010654D03*
X006422Y010604D03*
X006372Y010554D03*
X006322Y010504D03*
X006272Y010454D03*
X005122Y011654D03*
X005372Y012054D03*
D94*
X005363Y012087D03*
X005713Y012387D03*
X005113Y011687D03*
X007013Y010804D03*
X008113Y011187D03*
X008113Y011204D03*
X008113Y011237D03*
X008113Y011254D03*
X008113Y011287D03*
X008113Y011304D03*
X008663Y011487D03*
X008730Y010654D03*
X008680Y010487D03*
D95*
X008722Y010521D03*
X008772Y011021D03*
X005372Y012121D03*
D96*
X007947Y010754D03*
X007947Y010737D03*
X007947Y010704D03*
X007947Y010687D03*
X007947Y010654D03*
X007947Y010637D03*
X007947Y010604D03*
D97*
X005672Y010604D03*
X005672Y010637D03*
X005672Y010654D03*
X005672Y010687D03*
X005672Y010704D03*
X005672Y010737D03*
X005672Y010754D03*
X005672Y011187D03*
X005672Y011204D03*
X005672Y011237D03*
X005672Y011254D03*
X005672Y011287D03*
X005672Y011304D03*
X006255Y012654D03*
D98*
X007947Y010721D03*
X007947Y010671D03*
X007947Y010621D03*
D99*
X008713Y010971D03*
X007113Y010671D03*
X007063Y010721D03*
D100*
X007022Y010771D03*
X007022Y011221D03*
X007072Y011271D03*
X007122Y011321D03*
X007172Y011371D03*
X007222Y011421D03*
X007272Y011471D03*
X007322Y011521D03*
X007372Y011571D03*
X008722Y011171D03*
D101*
X006822Y010821D03*
D102*
X006830Y010837D03*
X005830Y012537D03*
D103*
X006780Y011137D03*
X006830Y010854D03*
D104*
X006830Y010871D03*
X006780Y011121D03*
D105*
X006830Y010887D03*
D106*
X006838Y010904D03*
D107*
X006838Y010921D03*
X007705Y011821D03*
X007738Y011871D03*
X008088Y012371D03*
D108*
X007472Y011671D03*
X005772Y011021D03*
X005772Y010971D03*
X005772Y010921D03*
X005372Y012071D03*
D109*
X006838Y010937D03*
X008105Y012354D03*
D110*
X007788Y012487D03*
X007755Y012504D03*
X007655Y011904D03*
X007455Y011654D03*
X008738Y010987D03*
D111*
X008763Y011054D03*
X008763Y011087D03*
X008763Y011104D03*
X008763Y011137D03*
X008763Y011154D03*
X008130Y012287D03*
X006613Y011254D03*
X005730Y012404D03*
D112*
X005380Y012187D03*
X006797Y011087D03*
X007630Y011737D03*
X007647Y011754D03*
X007680Y011787D03*
X007713Y011837D03*
X007747Y011887D03*
D113*
X006797Y011104D03*
D114*
X006772Y011154D03*
D115*
X006613Y011271D03*
X008113Y011271D03*
X008113Y011321D03*
X008113Y011221D03*
X008113Y011171D03*
X008130Y012271D03*
X004963Y011221D03*
D116*
X006772Y011171D03*
D117*
X006780Y011187D03*
X006780Y011204D03*
X007580Y012637D03*
D118*
X006388Y011337D03*
D119*
X006638Y011454D03*
X005788Y012087D03*
X005738Y012137D03*
X005555Y012654D03*
X007888Y012804D03*
X008288Y012504D03*
D120*
X007688Y012571D03*
X007605Y011721D03*
D121*
X007688Y011804D03*
D122*
X005380Y012171D03*
X005113Y011821D03*
D123*
X007722Y011854D03*
D124*
X008413Y012054D03*
X008430Y012037D03*
X005763Y012454D03*
X005130Y011854D03*
D125*
X007647Y011921D03*
X007897Y012421D03*
D126*
X008005Y011971D03*
X005805Y012071D03*
X005755Y012121D03*
D127*
X005722Y012171D03*
X008622Y012121D03*
D128*
X005372Y012137D03*
D129*
X005380Y012204D03*
X005780Y012487D03*
X006213Y012637D03*
X007663Y012587D03*
X008080Y012387D03*
D130*
X005388Y012221D03*
D131*
X005788Y012504D03*
D132*
X005813Y012521D03*
D133*
X007647Y012604D03*
D134*
X007613Y012621D03*
D135*
X006172Y012621D03*
D136*
X007530Y012654D03*
D137*
X007280Y012671D03*
D138*
X006347Y012671D03*
D139*
X005555Y012671D03*
D140*
X006763Y012687D03*
D141*
X006747Y012704D03*
D142*
X006730Y012721D03*
D143*
X006722Y012737D03*
D144*
X006872Y012754D03*
D145*
X006897Y012771D03*
D146*
X006922Y012787D03*
D147*
X006947Y012804D03*
D148*
X006788Y012821D03*
D149*
X006738Y012837D03*
D150*
X005997Y012921D03*
D151*
X008355Y018416D02*
X008662Y018416D01*
X008508Y018416D02*
X008508Y018877D01*
X008662Y018723D01*
X008815Y018646D02*
X008892Y018570D01*
X009122Y018570D01*
X009122Y018416D02*
X009122Y018877D01*
X008892Y018877D01*
X008815Y018800D01*
X008815Y018646D01*
X009276Y018877D02*
X009583Y018877D01*
X009429Y018877D02*
X009429Y018416D01*
X009429Y019666D02*
X009429Y020127D01*
X009276Y020127D02*
X009583Y020127D01*
X009122Y020127D02*
X008892Y020127D01*
X008815Y020050D01*
X008815Y019896D01*
X008892Y019820D01*
X009122Y019820D01*
X009122Y019666D02*
X009122Y020127D01*
X008662Y020050D02*
X008585Y020127D01*
X008432Y020127D01*
X008355Y020050D01*
X008355Y019973D01*
X008662Y019666D01*
X008355Y019666D01*
D152*
X009507Y019079D02*
X009507Y019072D01*
X009509Y019071D01*
X009512Y019071D01*
X009514Y019072D01*
X009514Y019079D01*
X009512Y019081D01*
X009509Y019081D01*
X009507Y019079D01*
X009511Y019074D02*
X009507Y019071D01*
X009517Y019072D02*
X009518Y019071D01*
X009522Y019071D01*
X009523Y019072D01*
X009526Y019072D02*
X009527Y019071D01*
X009531Y019071D01*
X009532Y019072D01*
X009535Y019071D02*
X009542Y019071D01*
X009538Y019071D02*
X009538Y019081D01*
X009542Y019077D01*
X009544Y019076D02*
X009546Y019074D01*
X009551Y019074D01*
X009551Y019071D02*
X009551Y019081D01*
X009546Y019081D01*
X009544Y019079D01*
X009544Y019076D01*
X009553Y019081D02*
X009560Y019081D01*
X009557Y019081D02*
X009557Y019071D01*
X009562Y019071D02*
X009569Y019071D01*
X009572Y019071D02*
X009575Y019074D01*
X009573Y019074D02*
X009578Y019074D01*
X009578Y019071D02*
X009578Y019081D01*
X009573Y019081D01*
X009572Y019079D01*
X009572Y019076D01*
X009573Y019074D01*
X009569Y019077D02*
X009566Y019081D01*
X009566Y019071D01*
X009581Y019081D02*
X009587Y019081D01*
X009584Y019081D02*
X009584Y019071D01*
X009590Y019076D02*
X009592Y019074D01*
X009597Y019074D01*
X009597Y019071D02*
X009597Y019081D01*
X009592Y019081D01*
X009590Y019079D01*
X009590Y019076D01*
X009532Y019079D02*
X009531Y019081D01*
X009527Y019081D01*
X009526Y019079D01*
X009526Y019077D01*
X009527Y019076D01*
X009526Y019074D01*
X009526Y019072D01*
X009527Y019076D02*
X009529Y019076D01*
X009523Y019077D02*
X009522Y019076D01*
X009518Y019076D01*
X009517Y019074D01*
X009517Y019072D01*
X009517Y019079D02*
X009518Y019081D01*
X009522Y019081D01*
X009523Y019079D01*
X009523Y019077D01*
X009522Y017831D02*
X009523Y017829D01*
X009523Y017827D01*
X009522Y017826D01*
X009518Y017826D01*
X009517Y017824D01*
X009517Y017822D01*
X009518Y017821D01*
X009522Y017821D01*
X009523Y017822D01*
X009526Y017822D02*
X009527Y017821D01*
X009531Y017821D01*
X009532Y017822D01*
X009535Y017821D02*
X009542Y017821D01*
X009538Y017821D02*
X009538Y017831D01*
X009542Y017827D01*
X009544Y017826D02*
X009546Y017824D01*
X009551Y017824D01*
X009551Y017821D02*
X009551Y017831D01*
X009546Y017831D01*
X009544Y017829D01*
X009544Y017826D01*
X009553Y017831D02*
X009560Y017831D01*
X009557Y017831D02*
X009557Y017821D01*
X009562Y017821D02*
X009569Y017821D01*
X009572Y017821D02*
X009575Y017824D01*
X009573Y017824D02*
X009578Y017824D01*
X009578Y017821D02*
X009578Y017831D01*
X009573Y017831D01*
X009572Y017829D01*
X009572Y017826D01*
X009573Y017824D01*
X009569Y017827D02*
X009566Y017831D01*
X009566Y017821D01*
X009581Y017831D02*
X009587Y017831D01*
X009584Y017831D02*
X009584Y017821D01*
X009590Y017826D02*
X009592Y017824D01*
X009597Y017824D01*
X009597Y017821D02*
X009597Y017831D01*
X009592Y017831D01*
X009590Y017829D01*
X009590Y017826D01*
X009532Y017829D02*
X009531Y017831D01*
X009527Y017831D01*
X009526Y017829D01*
X009526Y017827D01*
X009527Y017826D01*
X009526Y017824D01*
X009526Y017822D01*
X009527Y017826D02*
X009529Y017826D01*
X009522Y017831D02*
X009518Y017831D01*
X009517Y017829D01*
X009514Y017829D02*
X009512Y017831D01*
X009509Y017831D01*
X009507Y017829D01*
X009507Y017822D01*
X009509Y017821D01*
X009512Y017821D01*
X009514Y017822D01*
X009514Y017829D01*
X009511Y017824D02*
X009507Y017821D01*
M02*
