G75*
G70*
%OFA0B0*%
%FSLAX24Y24*%
%IPPOS*%
%LPD*%
%AMOC8*
5,1,8,0,0,1.08239X$1,22.5*
%
%ADD10C,0.0050*%
%ADD11C,0.0060*%
%ADD12C,0.0070*%
%ADD13C,0.0110*%
%ADD14C,0.0040*%
%ADD15C,0.0100*%
%ADD16C,0.0120*%
%ADD17C,0.0030*%
%ADD18C,0.0010*%
%ADD19C,0.0020*%
%ADD20R,0.0059X0.0118*%
%ADD21R,0.0118X0.0118*%
%ADD22R,0.0118X0.0059*%
%ADD23C,0.0080*%
%ADD24R,0.0384X0.2047*%
%ADD25C,0.0004*%
%ADD26C,0.0030*%
%ADD27C,0.0000*%
D10*
X000137Y002671D02*
X003197Y002671D01*
X001507Y002681D02*
X001507Y006211D01*
X000137Y006211D01*
X000137Y002671D01*
X001507Y006211D02*
X005447Y006211D01*
X005447Y005671D01*
X005447Y003546D02*
X005447Y002671D01*
X005322Y002671D01*
X015325Y003216D02*
X015400Y003141D01*
X015550Y003141D01*
X015625Y003216D01*
X015625Y003366D01*
X015550Y003441D01*
X015475Y003441D01*
X015325Y003366D01*
X015325Y003591D01*
X015625Y003591D01*
X015785Y003591D02*
X015785Y003291D01*
X015935Y003141D01*
X016086Y003291D01*
X016086Y003591D01*
X016706Y003516D02*
X016706Y003216D01*
X016781Y003141D01*
X016931Y003141D01*
X017006Y003216D01*
X017006Y003366D01*
X016856Y003366D01*
X016706Y003516D02*
X016781Y003591D01*
X016931Y003591D01*
X017006Y003516D01*
X017166Y003441D02*
X017391Y003441D01*
X017467Y003366D01*
X017467Y003141D01*
X017627Y003216D02*
X017627Y003366D01*
X017702Y003441D01*
X017927Y003441D01*
X017927Y003591D02*
X017927Y003141D01*
X017702Y003141D01*
X017627Y003216D01*
X017166Y003141D02*
X017166Y003441D01*
X018547Y003591D02*
X018547Y003291D01*
X018698Y003141D01*
X018848Y003291D01*
X018848Y003591D01*
X019008Y003441D02*
X019083Y003441D01*
X019083Y003141D01*
X019008Y003141D02*
X019158Y003141D01*
X019315Y003141D02*
X019315Y003441D01*
X019540Y003441D01*
X019615Y003366D01*
X019615Y003141D01*
X019083Y003591D02*
X019083Y003666D01*
X018817Y004536D02*
X021376Y004536D01*
X021376Y005205D01*
X018817Y005205D01*
X018817Y004536D01*
X018492Y005991D02*
X019201Y005991D01*
X019201Y007251D01*
X018492Y007251D01*
X018492Y005991D01*
X017201Y005991D02*
X016492Y005991D01*
X016492Y007251D01*
X017201Y007251D01*
X017201Y005991D01*
X020492Y005991D02*
X021201Y005991D01*
X021201Y007251D01*
X020492Y007251D01*
X020492Y005991D01*
X022492Y005991D02*
X022492Y007251D01*
X023201Y007251D01*
X023201Y005991D01*
X022492Y005991D01*
X024453Y008125D02*
X024453Y008617D01*
X025240Y008617D01*
X025240Y008125D01*
X024453Y008125D01*
X023618Y009349D02*
X023520Y009349D01*
X023618Y009349D02*
X023618Y009447D01*
X020472Y009871D02*
X020474Y009893D01*
X020480Y009914D01*
X020489Y009933D01*
X020501Y009951D01*
X020517Y009967D01*
X020534Y009979D01*
X020554Y009988D01*
X020575Y009994D01*
X020597Y009996D01*
X020619Y009994D01*
X020640Y009988D01*
X020659Y009979D01*
X020677Y009967D01*
X020693Y009951D01*
X020705Y009933D01*
X020714Y009914D01*
X020720Y009893D01*
X020722Y009871D01*
X020720Y009849D01*
X020714Y009828D01*
X020705Y009809D01*
X020693Y009791D01*
X020677Y009775D01*
X020660Y009763D01*
X020640Y009754D01*
X020619Y009748D01*
X020597Y009746D01*
X020575Y009748D01*
X020554Y009754D01*
X020534Y009763D01*
X020517Y009775D01*
X020501Y009791D01*
X020489Y009808D01*
X020480Y009828D01*
X020474Y009849D01*
X020472Y009871D01*
X020075Y009447D02*
X020173Y009349D01*
X019089Y010333D02*
X018104Y010333D01*
X018104Y011908D01*
X019089Y011908D01*
X019089Y010333D01*
X020075Y012794D02*
X020075Y012892D01*
X020173Y012892D01*
X019451Y015241D02*
X018742Y015241D01*
X018742Y016501D01*
X019451Y016501D01*
X019451Y015241D01*
X021492Y015241D02*
X022201Y015241D01*
X022201Y016501D01*
X021492Y016501D01*
X021492Y015241D01*
X022740Y016551D02*
X022740Y016776D01*
X022815Y016851D01*
X022965Y016851D01*
X023040Y016776D01*
X023040Y016551D01*
X023190Y016551D02*
X022740Y016551D01*
X022740Y017011D02*
X023190Y017011D01*
X023040Y017161D01*
X023190Y017311D01*
X022740Y017311D01*
X022740Y017471D02*
X022890Y017621D01*
X022740Y017771D01*
X023190Y017771D01*
X023190Y017471D02*
X022740Y017471D01*
X023876Y018036D02*
X021317Y018036D01*
X021317Y018705D01*
X023876Y018705D01*
X023876Y018036D01*
X025492Y018251D02*
X025492Y016991D01*
X026201Y016991D01*
X026201Y018251D01*
X025492Y018251D01*
X024951Y016501D02*
X024242Y016501D01*
X024242Y015241D01*
X024951Y015241D01*
X024951Y016501D01*
X021090Y017551D02*
X020640Y017551D01*
X020640Y017776D01*
X020715Y017851D01*
X020865Y017851D01*
X020940Y017776D01*
X020940Y017551D01*
X021090Y018011D02*
X020640Y018011D01*
X020940Y018161D02*
X021090Y018311D01*
X020640Y018311D01*
X020640Y018471D02*
X020790Y018621D01*
X020640Y018771D01*
X021090Y018771D01*
X021090Y018471D02*
X020640Y018471D01*
X020940Y018161D02*
X021090Y018011D01*
X020090Y018011D02*
X019940Y018161D01*
X020090Y018311D01*
X019640Y018311D01*
X019640Y018471D02*
X019790Y018621D01*
X019640Y018771D01*
X020090Y018771D01*
X020090Y018471D02*
X019640Y018471D01*
X019640Y018011D02*
X020090Y018011D01*
X019865Y017851D02*
X019940Y017776D01*
X019940Y017551D01*
X020090Y017551D02*
X019640Y017551D01*
X019640Y017776D01*
X019715Y017851D01*
X019865Y017851D01*
X018701Y018251D02*
X018701Y016991D01*
X017992Y016991D01*
X017992Y018251D01*
X018701Y018251D01*
X016876Y018036D02*
X014317Y018036D01*
X014317Y018705D01*
X016876Y018705D01*
X016876Y018036D01*
X016540Y017771D02*
X016090Y017771D01*
X016240Y017621D01*
X016090Y017471D01*
X016540Y017471D01*
X016540Y017311D02*
X016390Y017161D01*
X016540Y017011D01*
X016090Y017011D01*
X016165Y016851D02*
X016090Y016776D01*
X016090Y016551D01*
X016540Y016551D01*
X016390Y016551D02*
X016390Y016776D01*
X016315Y016851D01*
X016165Y016851D01*
X015992Y016501D02*
X016701Y016501D01*
X016701Y015241D01*
X015992Y015241D01*
X015992Y016501D01*
X015540Y016551D02*
X015090Y016551D01*
X015090Y016776D01*
X015165Y016851D01*
X015315Y016851D01*
X015390Y016776D01*
X015390Y016551D01*
X015540Y017011D02*
X015090Y017011D01*
X015090Y017311D02*
X015540Y017311D01*
X015390Y017161D01*
X015540Y017011D01*
X015540Y017471D02*
X015090Y017471D01*
X015240Y017621D01*
X015090Y017771D01*
X015540Y017771D01*
X016090Y017311D02*
X016540Y017311D01*
X014580Y017311D02*
X014130Y017311D01*
X014130Y017471D02*
X014280Y017621D01*
X014130Y017771D01*
X014580Y017771D01*
X014580Y017471D02*
X014130Y017471D01*
X014430Y017161D02*
X014580Y017311D01*
X014430Y017161D02*
X014580Y017011D01*
X014130Y017011D01*
X014205Y016851D02*
X014130Y016776D01*
X014130Y016551D01*
X014580Y016551D01*
X014430Y016551D02*
X014430Y016776D01*
X014355Y016851D01*
X014205Y016851D01*
X013951Y016501D02*
X013242Y016501D01*
X013242Y015241D01*
X013951Y015241D01*
X013951Y016501D01*
X012451Y016991D02*
X011742Y016991D01*
X011742Y018251D01*
X012451Y018251D01*
X012451Y016991D01*
X009662Y012930D02*
X009032Y012930D01*
X009032Y011812D02*
X009662Y011812D01*
X013713Y011970D02*
X013789Y011895D01*
X013864Y011895D01*
X013939Y011970D01*
X013939Y012120D01*
X014014Y012195D01*
X014089Y012195D01*
X014164Y012120D01*
X014164Y011970D01*
X014089Y011895D01*
X013713Y011970D02*
X013713Y012120D01*
X013789Y012195D01*
X013864Y012356D02*
X013713Y012506D01*
X014164Y012506D01*
X014164Y012356D02*
X014164Y012656D01*
X023520Y012892D02*
X023618Y012892D01*
X023618Y012794D01*
X004146Y017105D02*
X000504Y017105D01*
X000504Y020136D01*
X004146Y020136D01*
X004146Y017105D01*
X002280Y018371D02*
X001030Y018121D01*
X001030Y017746D02*
X002030Y017871D01*
X002030Y017371D02*
X001030Y017496D01*
X001030Y017746D01*
X001030Y019121D02*
X002280Y018871D01*
X002280Y018371D01*
X002030Y019371D02*
X001030Y019496D01*
X001030Y019746D01*
X002030Y019871D01*
D11*
X009747Y021121D02*
X009747Y021621D01*
X009997Y021871D01*
X010497Y021871D01*
X010747Y021621D01*
X010997Y021871D01*
X011497Y021871D01*
X011747Y021621D01*
X011997Y021871D01*
X012497Y021871D01*
X012747Y021621D01*
X012997Y021871D01*
X013497Y021871D01*
X013747Y021621D01*
X013997Y021871D01*
X014497Y021871D01*
X014747Y021621D01*
X014997Y021871D01*
X015497Y021871D01*
X015747Y021621D01*
X015997Y021871D01*
X016497Y021871D01*
X016747Y021621D01*
X016997Y021871D01*
X017497Y021871D01*
X017747Y021621D01*
X017747Y021121D01*
X017497Y020871D01*
X016997Y020871D01*
X016747Y021121D01*
X016497Y020871D01*
X015997Y020871D01*
X015747Y021121D01*
X015747Y021621D01*
X015747Y021121D02*
X015497Y020871D01*
X014997Y020871D01*
X014747Y021121D01*
X014497Y020871D01*
X013997Y020871D01*
X013747Y021121D01*
X013497Y020871D01*
X012997Y020871D01*
X012747Y021121D01*
X012747Y021621D01*
X012747Y021121D02*
X012497Y020871D01*
X011997Y020871D01*
X011747Y021121D01*
X011497Y020871D01*
X010997Y020871D01*
X010747Y021121D01*
X010497Y020871D01*
X009997Y020871D01*
X009747Y021121D01*
X009963Y020896D02*
X009963Y020568D01*
X010455Y020568D01*
X010455Y020388D02*
X010455Y020061D01*
X009963Y020061D01*
X009963Y020388D01*
X010209Y020224D02*
X010209Y020061D01*
X010209Y019881D02*
X010045Y019881D01*
X009963Y019799D01*
X009963Y019553D01*
X010455Y019553D01*
X010291Y019553D02*
X010291Y019799D01*
X010209Y019881D01*
X010291Y019717D02*
X010455Y019881D01*
X010918Y019813D02*
X011409Y020141D01*
X010918Y020141D01*
X010918Y020321D02*
X010918Y020566D01*
X010999Y020648D01*
X011327Y020648D01*
X011409Y020566D01*
X011409Y020321D01*
X010918Y020321D01*
X010209Y020568D02*
X010209Y020732D01*
X010747Y021121D02*
X010747Y021621D01*
X011747Y021621D02*
X011747Y021121D01*
X012110Y020501D02*
X012277Y020501D01*
X012360Y020418D01*
X012360Y020334D01*
X012277Y020251D01*
X012360Y020167D01*
X012360Y020084D01*
X012277Y020001D01*
X012110Y020001D01*
X012027Y020084D01*
X012193Y020251D02*
X012277Y020251D01*
X012027Y020418D02*
X012110Y020501D01*
X012193Y019751D02*
X012193Y019251D01*
X012027Y019251D02*
X012360Y019251D01*
X012027Y019584D02*
X012193Y019751D01*
X011409Y019813D02*
X010918Y019813D01*
X010999Y019633D02*
X010918Y019551D01*
X010918Y019387D01*
X010999Y019306D01*
X011327Y019306D01*
X011409Y019387D01*
X011409Y019551D01*
X011327Y019633D01*
X011163Y019633D01*
X011163Y019469D01*
X010455Y019373D02*
X010127Y019373D01*
X009963Y019209D01*
X010127Y019046D01*
X010455Y019046D01*
X010209Y019046D02*
X010209Y019373D01*
X010877Y018151D02*
X010877Y017651D01*
X011210Y017651D01*
X011210Y016901D02*
X010877Y016901D01*
X011043Y016901D02*
X011043Y016401D01*
X011127Y016151D02*
X010877Y016151D01*
X010877Y015651D01*
X010877Y015817D02*
X011127Y015817D01*
X011210Y015901D01*
X011210Y016068D01*
X011127Y016151D01*
X011392Y016151D02*
X011726Y015651D01*
X011392Y015651D02*
X011726Y016151D01*
X011726Y016401D02*
X011392Y016901D01*
X011726Y016901D02*
X011392Y016401D01*
X011043Y015817D02*
X011210Y015651D01*
X012047Y013671D02*
X012047Y013571D01*
X011947Y013571D01*
X012047Y013671D02*
X012647Y013671D01*
X012647Y013571D01*
X012747Y013571D01*
X013547Y013221D02*
X013547Y012871D01*
X013547Y011871D01*
X013547Y011521D01*
X012747Y011171D02*
X012647Y011171D01*
X012647Y011071D01*
X012047Y011071D01*
X012047Y011171D01*
X011947Y011171D01*
X011147Y011521D02*
X011147Y011921D01*
X011147Y012871D01*
X011147Y013221D01*
X012247Y012371D02*
X012249Y012391D01*
X012255Y012409D01*
X012264Y012427D01*
X012276Y012442D01*
X012291Y012454D01*
X012309Y012463D01*
X012327Y012469D01*
X012347Y012471D01*
X012367Y012469D01*
X012385Y012463D01*
X012403Y012454D01*
X012418Y012442D01*
X012430Y012427D01*
X012439Y012409D01*
X012445Y012391D01*
X012447Y012371D01*
X012445Y012351D01*
X012439Y012333D01*
X012430Y012315D01*
X012418Y012300D01*
X012403Y012288D01*
X012385Y012279D01*
X012367Y012273D01*
X012347Y012271D01*
X012327Y012273D01*
X012309Y012279D01*
X012291Y012288D01*
X012276Y012300D01*
X012264Y012315D01*
X012255Y012333D01*
X012249Y012351D01*
X012247Y012371D01*
X011647Y012371D02*
X011649Y012423D01*
X011655Y012475D01*
X011665Y012527D01*
X011678Y012577D01*
X011695Y012627D01*
X011716Y012675D01*
X011741Y012721D01*
X011769Y012765D01*
X011800Y012807D01*
X011834Y012847D01*
X011871Y012884D01*
X011911Y012918D01*
X011953Y012949D01*
X011997Y012977D01*
X012043Y013002D01*
X012091Y013023D01*
X012141Y013040D01*
X012191Y013053D01*
X012243Y013063D01*
X012295Y013069D01*
X012347Y013071D01*
X012399Y013069D01*
X012451Y013063D01*
X012503Y013053D01*
X012553Y013040D01*
X012603Y013023D01*
X012651Y013002D01*
X012697Y012977D01*
X012741Y012949D01*
X012783Y012918D01*
X012823Y012884D01*
X012860Y012847D01*
X012894Y012807D01*
X012925Y012765D01*
X012953Y012721D01*
X012978Y012675D01*
X012999Y012627D01*
X013016Y012577D01*
X013029Y012527D01*
X013039Y012475D01*
X013045Y012423D01*
X013047Y012371D01*
X013045Y012319D01*
X013039Y012267D01*
X013029Y012215D01*
X013016Y012165D01*
X012999Y012115D01*
X012978Y012067D01*
X012953Y012021D01*
X012925Y011977D01*
X012894Y011935D01*
X012860Y011895D01*
X012823Y011858D01*
X012783Y011824D01*
X012741Y011793D01*
X012697Y011765D01*
X012651Y011740D01*
X012603Y011719D01*
X012553Y011702D01*
X012503Y011689D01*
X012451Y011679D01*
X012399Y011673D01*
X012347Y011671D01*
X012295Y011673D01*
X012243Y011679D01*
X012191Y011689D01*
X012141Y011702D01*
X012091Y011719D01*
X012043Y011740D01*
X011997Y011765D01*
X011953Y011793D01*
X011911Y011824D01*
X011871Y011858D01*
X011834Y011895D01*
X011800Y011935D01*
X011769Y011977D01*
X011741Y012021D01*
X011716Y012067D01*
X011695Y012115D01*
X011678Y012165D01*
X011665Y012215D01*
X011655Y012267D01*
X011649Y012319D01*
X011647Y012371D01*
X014319Y010265D02*
X014426Y010265D01*
X014640Y010265D02*
X015067Y010265D01*
X015067Y010159D02*
X015067Y010372D01*
X015067Y010588D02*
X014640Y010588D01*
X014640Y010908D01*
X014746Y011015D01*
X015067Y011015D01*
X014960Y011233D02*
X015067Y011339D01*
X015067Y011553D01*
X014960Y011660D01*
X014746Y011660D01*
X014640Y011553D01*
X014640Y011339D01*
X014746Y011233D01*
X014960Y011233D01*
X014640Y010265D02*
X014640Y010159D01*
X014640Y009941D02*
X015067Y009941D01*
X015067Y009621D01*
X014960Y009514D01*
X014640Y009514D01*
X014533Y009296D02*
X014426Y009190D01*
X014426Y008869D01*
X015067Y008869D01*
X015067Y009190D01*
X014960Y009296D01*
X014533Y009296D01*
X014640Y008652D02*
X014640Y008332D01*
X014746Y008225D01*
X014960Y008225D01*
X015067Y008332D01*
X015067Y008652D01*
X015173Y008652D02*
X014640Y008652D01*
X015173Y008652D02*
X015280Y008545D01*
X015280Y008438D01*
X015067Y008009D02*
X015067Y007795D01*
X015067Y007902D02*
X014640Y007902D01*
X014640Y007795D01*
X014426Y007902D02*
X014319Y007902D01*
X014426Y007578D02*
X014533Y007578D01*
X014960Y007151D01*
X015067Y007151D01*
X015067Y007578D01*
X014426Y007578D02*
X014426Y007151D01*
X013877Y007219D02*
X013710Y007052D01*
X013710Y007135D02*
X013710Y006885D01*
X013877Y006885D02*
X013376Y006885D01*
X013376Y007135D01*
X013460Y007219D01*
X013626Y007219D01*
X013710Y007135D01*
X013877Y006703D02*
X013376Y006703D01*
X013376Y006369D02*
X013877Y006369D01*
X013710Y006536D01*
X013877Y006703D01*
X013626Y006187D02*
X013460Y006187D01*
X013376Y006104D01*
X013376Y005854D01*
X013877Y005854D01*
X013710Y005854D02*
X013710Y006104D01*
X013626Y006187D01*
X013554Y005542D02*
X013554Y005208D01*
X013554Y005375D02*
X014055Y005375D01*
X014055Y005026D02*
X014055Y004692D01*
X013554Y004692D01*
X013554Y005026D01*
X013805Y004859D02*
X013805Y004692D01*
X013888Y004510D02*
X013971Y004510D01*
X014055Y004427D01*
X014055Y004260D01*
X013971Y004177D01*
X013805Y004260D02*
X013805Y004427D01*
X013888Y004510D01*
X013638Y004510D02*
X013554Y004427D01*
X013554Y004260D01*
X013638Y004177D01*
X013721Y004177D01*
X013805Y004260D01*
X014055Y003995D02*
X014055Y003661D01*
X013554Y003661D01*
X013554Y003995D01*
X013805Y003828D02*
X013805Y003661D01*
X013805Y003479D02*
X013888Y003396D01*
X013888Y003146D01*
X013888Y003312D02*
X014055Y003479D01*
X013805Y003479D02*
X013638Y003479D01*
X013554Y003396D01*
X013554Y003146D01*
X014055Y003146D01*
X014097Y002871D02*
X014347Y002621D01*
X014597Y002871D01*
X015097Y002871D01*
X015347Y002621D01*
X015347Y002121D01*
X015097Y001871D01*
X014597Y001871D01*
X014347Y002121D01*
X014097Y001871D01*
X013597Y001871D01*
X013347Y002121D01*
X013347Y002621D01*
X013597Y002871D01*
X014097Y002871D01*
X014347Y002621D02*
X014347Y002121D01*
X015347Y002121D02*
X015597Y001871D01*
X016097Y001871D01*
X016347Y002121D01*
X016597Y001871D01*
X017097Y001871D01*
X017347Y002121D01*
X017597Y001871D01*
X018097Y001871D01*
X018347Y002121D01*
X018597Y001871D01*
X019097Y001871D01*
X019347Y002121D01*
X019347Y002621D01*
X019097Y002871D01*
X018597Y002871D01*
X018347Y002621D01*
X018347Y002121D01*
X018347Y002621D02*
X018097Y002871D01*
X017597Y002871D01*
X017347Y002621D01*
X017347Y002121D01*
X017347Y002621D02*
X017097Y002871D01*
X016597Y002871D01*
X016347Y002621D01*
X016347Y002121D01*
X016347Y002621D02*
X016097Y002871D01*
X015597Y002871D01*
X015347Y002621D01*
X014921Y003146D02*
X015005Y003229D01*
X015005Y003396D01*
X014921Y003479D01*
X014838Y003479D01*
X014755Y003396D01*
X014755Y003312D01*
X014755Y003396D02*
X014671Y003479D01*
X014588Y003479D01*
X014504Y003396D01*
X014504Y003229D01*
X014588Y003146D01*
X014504Y003661D02*
X014838Y003661D01*
X015005Y003828D01*
X014838Y003995D01*
X014504Y003995D01*
X014588Y004177D02*
X014504Y004260D01*
X014504Y004427D01*
X014588Y004510D01*
X014671Y004510D01*
X014755Y004427D01*
X014838Y004510D01*
X014921Y004510D01*
X015005Y004427D01*
X015005Y004260D01*
X014921Y004177D01*
X014755Y004344D02*
X014755Y004427D01*
X020347Y002621D02*
X020347Y002121D01*
X020597Y001871D01*
X021097Y001871D01*
X021347Y002121D01*
X021597Y001871D01*
X022097Y001871D01*
X022347Y002121D01*
X022347Y002621D01*
X022097Y002871D01*
X021597Y002871D01*
X021347Y002621D01*
X021347Y002121D01*
X021347Y002621D02*
X021097Y002871D01*
X020597Y002871D01*
X020347Y002621D01*
X020691Y003156D02*
X020607Y003239D01*
X020941Y003573D01*
X020941Y003239D01*
X020857Y003156D01*
X020691Y003156D01*
X020607Y003239D02*
X020607Y003573D01*
X020691Y003656D01*
X020857Y003656D01*
X020941Y003573D01*
X021638Y003489D02*
X021805Y003656D01*
X021805Y003156D01*
X021638Y003156D02*
X021972Y003156D01*
X022347Y002621D02*
X022597Y002871D01*
X023097Y002871D01*
X023347Y002621D01*
X023597Y002871D01*
X024097Y002871D01*
X024347Y002621D01*
X024597Y002871D01*
X025097Y002871D01*
X025347Y002621D01*
X025597Y002871D01*
X026097Y002871D01*
X026347Y002621D01*
X026347Y002121D01*
X026097Y001871D01*
X025597Y001871D01*
X025347Y002121D01*
X025097Y001871D01*
X024597Y001871D01*
X024347Y002121D01*
X024097Y001871D01*
X023597Y001871D01*
X023347Y002121D01*
X023097Y001871D01*
X022597Y001871D01*
X022347Y002121D01*
X023347Y002121D02*
X023347Y002621D01*
X023003Y003156D02*
X022670Y003156D01*
X023003Y003489D01*
X023003Y003573D01*
X022920Y003656D01*
X022753Y003656D01*
X022670Y003573D01*
X023701Y003573D02*
X023784Y003656D01*
X023951Y003656D01*
X024035Y003573D01*
X024035Y003489D01*
X023951Y003406D01*
X024035Y003322D01*
X024035Y003239D01*
X023951Y003156D01*
X023784Y003156D01*
X023701Y003239D01*
X023868Y003406D02*
X023951Y003406D01*
X024732Y003406D02*
X025066Y003406D01*
X024982Y003156D02*
X024982Y003656D01*
X024732Y003406D01*
X025763Y003406D02*
X025930Y003489D01*
X026014Y003489D01*
X026097Y003406D01*
X026097Y003239D01*
X026014Y003156D01*
X025847Y003156D01*
X025763Y003239D01*
X025763Y003406D02*
X025763Y003656D01*
X026097Y003656D01*
X025347Y002621D02*
X025347Y002121D01*
X024347Y002121D02*
X024347Y002621D01*
X025652Y010851D02*
X027152Y010851D01*
X027402Y011101D01*
X027402Y011601D01*
X027152Y011851D01*
X025652Y011851D01*
X025402Y011601D01*
X025402Y011101D01*
X025652Y010851D01*
X025332Y011590D02*
X025332Y011757D01*
X025332Y011674D02*
X024831Y011674D01*
X024831Y011757D02*
X024831Y011590D01*
X024915Y011934D02*
X025248Y011934D01*
X025332Y012017D01*
X025332Y012184D01*
X025248Y012268D01*
X025248Y012450D02*
X025332Y012533D01*
X025332Y012700D01*
X025248Y012783D01*
X025165Y012783D01*
X025082Y012700D01*
X025082Y012533D01*
X024998Y012450D01*
X024915Y012450D01*
X024831Y012533D01*
X024831Y012700D01*
X024915Y012783D01*
X024831Y012965D02*
X024831Y013216D01*
X024915Y013299D01*
X025082Y013299D01*
X025165Y013216D01*
X025165Y012965D01*
X025332Y012965D02*
X024831Y012965D01*
X025402Y013101D02*
X025402Y013601D01*
X025652Y013851D01*
X027152Y013851D01*
X027402Y013601D01*
X027402Y013101D01*
X027152Y012851D01*
X025652Y012851D01*
X025402Y012601D01*
X025402Y012101D01*
X025652Y011851D01*
X024915Y011934D02*
X024831Y012017D01*
X024831Y012184D01*
X024915Y012268D01*
X025652Y012851D02*
X025402Y013101D01*
X027152Y012851D02*
X027402Y012601D01*
X027402Y012101D01*
X027152Y011851D01*
X026167Y018451D02*
X025666Y018451D01*
X025666Y018701D01*
X025750Y018784D01*
X025916Y018784D01*
X026000Y018701D01*
X026000Y018451D01*
X026000Y018617D02*
X026167Y018784D01*
X026167Y018966D02*
X025666Y019300D01*
X025666Y018966D02*
X026167Y019300D01*
X025996Y020001D02*
X025829Y020001D01*
X025745Y020084D01*
X026079Y020418D01*
X026079Y020084D01*
X025996Y020001D01*
X025745Y020084D02*
X025745Y020418D01*
X025829Y020501D01*
X025996Y020501D01*
X026079Y020418D01*
X026097Y020871D02*
X025597Y020871D01*
X025347Y021121D01*
X025097Y020871D01*
X024597Y020871D01*
X024347Y021121D01*
X024347Y021621D01*
X024597Y021871D01*
X025097Y021871D01*
X025347Y021621D01*
X025597Y021871D01*
X026097Y021871D01*
X026347Y021621D01*
X026347Y021121D01*
X026097Y020871D01*
X025347Y021121D02*
X025347Y021621D01*
X024347Y021621D02*
X024097Y021871D01*
X023597Y021871D01*
X023347Y021621D01*
X023097Y021871D01*
X022597Y021871D01*
X022347Y021621D01*
X022097Y021871D01*
X021597Y021871D01*
X021347Y021621D01*
X021347Y021121D01*
X021597Y020871D01*
X022097Y020871D01*
X022347Y021121D01*
X022347Y021621D01*
X022347Y021121D02*
X022597Y020871D01*
X023097Y020871D01*
X023347Y021121D01*
X023347Y021621D01*
X023347Y021121D02*
X023597Y020871D01*
X024097Y020871D01*
X024347Y021121D01*
X023933Y020501D02*
X023766Y020501D01*
X023683Y020418D01*
X023933Y020501D02*
X024016Y020418D01*
X024016Y020334D01*
X023683Y020001D01*
X024016Y020001D01*
X024714Y020001D02*
X025048Y020001D01*
X024881Y020001D02*
X024881Y020501D01*
X024714Y020334D01*
X024614Y019305D02*
X025115Y018971D01*
X025115Y019305D02*
X024614Y018971D01*
X024614Y018789D02*
X024614Y018456D01*
X024614Y018622D02*
X025115Y018622D01*
X022985Y020084D02*
X022902Y020001D01*
X022735Y020001D01*
X022652Y020084D01*
X022818Y020251D02*
X022902Y020251D01*
X022985Y020167D01*
X022985Y020084D01*
X022902Y020251D02*
X022985Y020334D01*
X022985Y020418D01*
X022902Y020501D01*
X022735Y020501D01*
X022652Y020418D01*
X021954Y020251D02*
X021620Y020251D01*
X021871Y020501D01*
X021871Y020001D01*
X020923Y020084D02*
X020839Y020001D01*
X020673Y020001D01*
X020589Y020084D01*
X020589Y020251D02*
X020756Y020334D01*
X020839Y020334D01*
X020923Y020251D01*
X020923Y020084D01*
X020589Y020251D02*
X020589Y020501D01*
X020923Y020501D01*
X021097Y020871D02*
X020597Y020871D01*
X020347Y021121D01*
X020097Y020871D01*
X019597Y020871D01*
X019347Y021121D01*
X019097Y020871D01*
X018597Y020871D01*
X018347Y021121D01*
X018347Y021621D01*
X018597Y021871D01*
X019097Y021871D01*
X019347Y021621D01*
X019597Y021871D01*
X020097Y021871D01*
X020347Y021621D01*
X020597Y021871D01*
X021097Y021871D01*
X021347Y021621D01*
X021347Y021121D02*
X021097Y020871D01*
X020347Y021121D02*
X020347Y021621D01*
X019347Y021621D02*
X019347Y021121D01*
X018860Y020501D02*
X018527Y020501D01*
X018860Y020501D02*
X018860Y020418D01*
X018527Y020084D01*
X018527Y020001D01*
X019558Y020084D02*
X019641Y020001D01*
X019808Y020001D01*
X019891Y020084D01*
X019891Y020167D01*
X019808Y020251D01*
X019558Y020251D01*
X019558Y020084D01*
X019558Y020251D02*
X019725Y020418D01*
X019891Y020501D01*
X017516Y020418D02*
X017516Y020334D01*
X017433Y020251D01*
X017266Y020251D01*
X017183Y020334D01*
X017183Y020418D01*
X017266Y020501D01*
X017433Y020501D01*
X017516Y020418D01*
X017433Y020251D02*
X017516Y020167D01*
X017516Y020084D01*
X017433Y020001D01*
X017266Y020001D01*
X017183Y020084D01*
X017183Y020167D01*
X017266Y020251D01*
X016485Y020251D02*
X016235Y020251D01*
X016152Y020334D01*
X016152Y020418D01*
X016235Y020501D01*
X016402Y020501D01*
X016485Y020418D01*
X016485Y020084D01*
X016402Y020001D01*
X016235Y020001D01*
X016152Y020084D01*
X015454Y020084D02*
X015371Y020001D01*
X015204Y020001D01*
X015120Y020084D01*
X015454Y020418D01*
X015454Y020084D01*
X015120Y020084D02*
X015120Y020418D01*
X015204Y020501D01*
X015371Y020501D01*
X015454Y020418D01*
X015287Y019751D02*
X015287Y019251D01*
X015120Y019251D02*
X015454Y019251D01*
X015120Y019584D02*
X015287Y019751D01*
X014423Y020001D02*
X014089Y020001D01*
X014256Y020001D02*
X014256Y020501D01*
X014089Y020334D01*
X013391Y020334D02*
X013391Y020418D01*
X013308Y020501D01*
X013141Y020501D01*
X013058Y020418D01*
X013391Y020334D02*
X013058Y020001D01*
X013391Y020001D01*
X013225Y019751D02*
X013225Y019251D01*
X013391Y019251D02*
X013058Y019251D01*
X013058Y019584D02*
X013225Y019751D01*
X014089Y019584D02*
X014256Y019751D01*
X014256Y019251D01*
X014089Y019251D02*
X014423Y019251D01*
X014747Y021121D02*
X014747Y021621D01*
X013747Y021621D02*
X013747Y021121D01*
X016747Y021121D02*
X016747Y021621D01*
D12*
X020596Y019732D02*
X020596Y019242D01*
X020841Y019242D01*
X020923Y019323D01*
X020923Y019650D01*
X020841Y019732D01*
X020596Y019732D01*
X021112Y019732D02*
X021275Y019732D01*
X021193Y019732D02*
X021193Y019242D01*
X021112Y019242D02*
X021275Y019242D01*
X021455Y019323D02*
X021537Y019242D01*
X021701Y019242D01*
X021782Y019323D01*
X021782Y019487D01*
X021619Y019487D01*
X021782Y019650D02*
X021701Y019732D01*
X021537Y019732D01*
X021455Y019650D01*
X021455Y019323D01*
X021971Y019242D02*
X022134Y019242D01*
X022053Y019242D02*
X022053Y019732D01*
X022134Y019732D02*
X021971Y019732D01*
X022315Y019732D02*
X022642Y019732D01*
X022478Y019732D02*
X022478Y019242D01*
X022830Y019242D02*
X022830Y019569D01*
X022994Y019732D01*
X023157Y019569D01*
X023157Y019242D01*
X023346Y019242D02*
X023673Y019242D01*
X023346Y019242D02*
X023346Y019732D01*
X023157Y019487D02*
X022830Y019487D01*
X022809Y004389D02*
X022809Y003898D01*
X023136Y003898D01*
X023325Y003980D02*
X023406Y003898D01*
X023570Y003898D01*
X023652Y003980D01*
X023652Y004307D01*
X023570Y004389D01*
X023406Y004389D01*
X023325Y004307D01*
X023325Y003980D01*
X023840Y003980D02*
X023840Y004307D01*
X023922Y004389D01*
X024086Y004389D01*
X024167Y004307D01*
X024167Y004144D02*
X024004Y004144D01*
X024167Y004144D02*
X024167Y003980D01*
X024086Y003898D01*
X023922Y003898D01*
X023840Y003980D01*
X024872Y003898D02*
X025035Y003898D01*
X024953Y003898D02*
X024953Y004389D01*
X024872Y004389D02*
X025035Y004389D01*
X025215Y004389D02*
X025542Y003898D01*
X025542Y004389D01*
X025215Y004389D02*
X025215Y003898D01*
X022620Y003898D02*
X022620Y004225D01*
X022457Y004389D01*
X022293Y004225D01*
X022293Y003898D01*
X022105Y003898D02*
X022105Y004389D01*
X022293Y004144D02*
X022620Y004144D01*
X022105Y003898D02*
X021778Y004389D01*
X021778Y003898D01*
X021589Y003898D02*
X021589Y004225D01*
X021426Y004389D01*
X021262Y004225D01*
X021262Y003898D01*
X021262Y004144D02*
X021589Y004144D01*
X018221Y004101D02*
X018139Y004019D01*
X017894Y004019D01*
X017894Y003856D02*
X017894Y004346D01*
X018139Y004346D01*
X018221Y004264D01*
X018221Y004101D01*
X018058Y004019D02*
X018221Y003856D01*
X017705Y003856D02*
X017379Y003856D01*
X017379Y004346D01*
X017705Y004346D01*
X017542Y004101D02*
X017379Y004101D01*
X017190Y003856D02*
X017190Y004346D01*
X016863Y004346D02*
X016863Y003856D01*
X017026Y004019D01*
X017190Y003856D01*
X016674Y003937D02*
X016674Y004264D01*
X016592Y004346D01*
X016429Y004346D01*
X016347Y004264D01*
X016347Y003937D01*
X016429Y003856D01*
X016592Y003856D01*
X016674Y003937D01*
X016159Y004101D02*
X016077Y004019D01*
X015832Y004019D01*
X015832Y003856D02*
X015832Y004346D01*
X016077Y004346D01*
X016159Y004264D01*
X016159Y004101D01*
D13*
X001459Y000390D02*
X001360Y000489D01*
X001360Y000784D01*
X001557Y000489D02*
X001655Y000390D01*
X001754Y000489D01*
X001754Y000784D01*
X002005Y000784D02*
X002005Y000489D01*
X002103Y000390D01*
X002202Y000489D01*
X002300Y000390D01*
X002398Y000489D01*
X002398Y000784D01*
X002649Y000784D02*
X002649Y000489D01*
X002748Y000390D01*
X002846Y000489D01*
X002944Y000390D01*
X003043Y000489D01*
X003043Y000784D01*
X003294Y000489D02*
X003392Y000489D01*
X003392Y000390D01*
X003294Y000390D01*
X003294Y000489D01*
X003616Y000390D02*
X004010Y000390D01*
X004261Y000390D02*
X004457Y000390D01*
X004359Y000390D02*
X004359Y000784D01*
X004261Y000784D01*
X004359Y000981D02*
X004359Y001079D01*
X004010Y000784D02*
X003616Y000390D01*
X003616Y000784D02*
X004010Y000784D01*
X004690Y000685D02*
X004690Y000489D01*
X004789Y000390D01*
X005084Y000390D01*
X005084Y000292D02*
X005084Y000784D01*
X004789Y000784D01*
X004690Y000685D01*
X005084Y000292D02*
X004985Y000193D01*
X004887Y000193D01*
X005335Y000489D02*
X005335Y000685D01*
X005433Y000784D01*
X005728Y000784D01*
X005728Y000981D02*
X005728Y000390D01*
X005433Y000390D01*
X005335Y000489D01*
X005979Y000489D02*
X006078Y000390D01*
X006373Y000390D01*
X006373Y000784D01*
X006624Y000784D02*
X006722Y000784D01*
X006722Y000390D01*
X006624Y000390D02*
X006821Y000390D01*
X007054Y000390D02*
X007054Y000784D01*
X007349Y000784D01*
X007447Y000685D01*
X007447Y000390D01*
X007698Y000489D02*
X007796Y000390D01*
X007993Y000390D01*
X008092Y000489D01*
X008092Y000685D01*
X007993Y000784D01*
X007796Y000784D01*
X007698Y000685D01*
X007698Y000489D01*
X008343Y000489D02*
X008343Y000390D01*
X008441Y000390D01*
X008441Y000489D01*
X008343Y000489D01*
X008665Y000489D02*
X008763Y000390D01*
X009058Y000390D01*
X009309Y000489D02*
X009408Y000390D01*
X009605Y000390D01*
X009703Y000489D01*
X009703Y000685D01*
X009605Y000784D01*
X009408Y000784D01*
X009309Y000685D01*
X009309Y000489D01*
X009058Y000784D02*
X008763Y000784D01*
X008665Y000685D01*
X008665Y000489D01*
X009954Y000390D02*
X009954Y000784D01*
X010052Y000784D01*
X010151Y000685D01*
X010249Y000784D01*
X010348Y000685D01*
X010348Y000390D01*
X010151Y000390D02*
X010151Y000685D01*
X006722Y000981D02*
X006722Y001079D01*
X005979Y000784D02*
X005979Y000489D01*
X001557Y000489D02*
X001459Y000390D01*
X018380Y000569D02*
X018479Y000470D01*
X018675Y000470D01*
X018774Y000569D01*
X019025Y000569D02*
X019123Y000470D01*
X019320Y000470D01*
X019418Y000569D01*
X019025Y000569D02*
X019025Y000962D01*
X019123Y001061D01*
X019320Y001061D01*
X019418Y000962D01*
X018774Y000962D02*
X018675Y001061D01*
X018479Y001061D01*
X018380Y000962D01*
X018380Y000569D01*
X020314Y000470D02*
X020609Y000470D01*
X020707Y000569D01*
X020707Y000667D01*
X020609Y000765D01*
X020314Y000765D01*
X020314Y000470D02*
X020314Y001061D01*
X020609Y001061D01*
X020707Y000962D01*
X020707Y000864D01*
X020609Y000765D01*
X020958Y000962D02*
X021155Y000765D01*
X021155Y000470D01*
X021155Y000765D02*
X021352Y000962D01*
X021352Y001061D01*
X021603Y000765D02*
X021996Y000765D01*
X022247Y000864D02*
X022247Y000962D01*
X022346Y001061D01*
X022543Y001061D01*
X022641Y000962D01*
X022543Y000765D02*
X022346Y000765D01*
X022247Y000864D01*
X022247Y000569D02*
X022346Y000470D01*
X022543Y000470D01*
X022641Y000569D01*
X022641Y000667D01*
X022543Y000765D01*
X022892Y000765D02*
X023286Y000765D01*
X023286Y000864D02*
X023286Y000470D01*
X023286Y000864D02*
X023089Y001061D01*
X022892Y000864D01*
X022892Y000470D01*
X024181Y000569D02*
X024279Y000470D01*
X024476Y000470D01*
X024575Y000569D01*
X024575Y000667D01*
X024476Y000765D01*
X024378Y000765D01*
X024476Y000765D02*
X024575Y000864D01*
X024575Y000962D01*
X024476Y001061D01*
X024279Y001061D01*
X024181Y000962D01*
X024825Y000569D02*
X024924Y000569D01*
X024924Y000470D01*
X024825Y000470D01*
X024825Y000569D01*
X025148Y000569D02*
X025541Y000962D01*
X025541Y000569D01*
X025443Y000470D01*
X025246Y000470D01*
X025148Y000569D01*
X025148Y000962D01*
X025246Y001061D01*
X025443Y001061D01*
X025541Y000962D01*
X020958Y000962D02*
X020958Y001061D01*
D14*
X026337Y006111D02*
X026457Y006111D01*
X026397Y006111D02*
X026397Y006471D01*
X026337Y006471D02*
X026457Y006471D01*
X026582Y006411D02*
X026642Y006471D01*
X026762Y006471D01*
X026822Y006411D01*
X026822Y006351D01*
X026582Y006111D01*
X026822Y006111D01*
X026950Y006171D02*
X026950Y006411D01*
X027010Y006471D01*
X027131Y006471D01*
X027191Y006411D01*
X027191Y006171D02*
X027131Y006111D01*
X027010Y006111D01*
X026950Y006171D01*
X025987Y014053D02*
X025987Y014395D01*
X025987Y014224D02*
X025476Y014224D01*
X025646Y014053D01*
X012384Y003294D02*
X012307Y003371D01*
X012154Y003371D01*
X012077Y003294D01*
X011924Y003371D02*
X011924Y002987D01*
X011847Y002911D01*
X011693Y002911D01*
X011617Y002987D01*
X011617Y003371D01*
X012077Y002911D02*
X012384Y003218D01*
X012384Y003294D01*
X012384Y002911D02*
X012077Y002911D01*
X008677Y003570D02*
X008677Y003800D01*
X008600Y003877D01*
X008293Y003877D01*
X008216Y003800D01*
X008216Y003570D01*
X008677Y003570D01*
X008677Y004030D02*
X008677Y004337D01*
X008677Y004184D02*
X008216Y004184D01*
X008370Y004030D01*
X008097Y004511D02*
X008097Y002731D01*
X006597Y002731D02*
X006597Y004511D01*
X005062Y005541D02*
X004622Y006201D01*
X004418Y006201D02*
X004418Y005541D01*
X004622Y005541D02*
X005062Y006201D01*
X004418Y006201D02*
X004198Y005981D01*
X003977Y006201D01*
X003977Y005541D01*
X003773Y005541D02*
X003773Y006201D01*
X003553Y005981D01*
X003333Y006201D01*
X003333Y005541D01*
X003129Y005541D02*
X002688Y005541D01*
X002484Y005541D02*
X002044Y005541D01*
X002484Y005981D01*
X002484Y006091D01*
X002374Y006201D01*
X002154Y006201D01*
X002044Y006091D01*
X001840Y006091D02*
X001730Y006201D01*
X001509Y006201D01*
X001399Y006091D01*
X001399Y005651D01*
X001509Y005541D01*
X001730Y005541D01*
X001840Y005651D01*
X001195Y005651D02*
X001195Y006091D01*
X001085Y006201D01*
X000755Y006201D01*
X000755Y005541D01*
X001085Y005541D01*
X001195Y005651D01*
X001846Y006641D02*
X002230Y006641D01*
X002307Y006717D01*
X002307Y006871D01*
X002230Y006948D01*
X001846Y006948D01*
X002000Y007101D02*
X001846Y007254D01*
X002307Y007254D01*
X002307Y007101D02*
X002307Y007408D01*
X002909Y006201D02*
X002909Y005541D01*
X002688Y005981D02*
X002909Y006201D01*
X001846Y009641D02*
X001846Y009948D01*
X001846Y009794D02*
X002307Y009794D01*
X002307Y010101D02*
X002307Y010408D01*
X002307Y010254D02*
X001846Y010254D01*
X002000Y010101D01*
X002186Y012141D02*
X002186Y012328D01*
X002046Y012281D02*
X002186Y012141D01*
X002046Y012281D02*
X002327Y012281D01*
X002946Y013891D02*
X002946Y014351D01*
X003253Y014351D01*
X003406Y014198D02*
X003560Y014351D01*
X003560Y013891D01*
X003713Y013891D02*
X003406Y013891D01*
X003099Y014121D02*
X002946Y014121D01*
X005381Y015573D02*
X005381Y016033D01*
X005688Y016033D01*
X005842Y016033D02*
X006148Y016033D01*
X005995Y016033D02*
X005995Y015573D01*
X006302Y015573D02*
X006609Y015880D01*
X006609Y015957D01*
X006532Y016033D01*
X006379Y016033D01*
X006302Y015957D01*
X006302Y015573D02*
X006609Y015573D01*
X006762Y015650D02*
X006839Y015573D01*
X006992Y015573D01*
X007069Y015650D01*
X007069Y015726D01*
X006992Y015803D01*
X006916Y015803D01*
X006992Y015803D02*
X007069Y015880D01*
X007069Y015957D01*
X006992Y016033D01*
X006839Y016033D01*
X006762Y015957D01*
X007223Y015957D02*
X007299Y016033D01*
X007453Y016033D01*
X007530Y015957D01*
X007530Y015880D01*
X007223Y015573D01*
X007530Y015573D01*
X007683Y015573D02*
X007683Y016033D01*
X007913Y016033D01*
X007990Y015957D01*
X007990Y015803D01*
X007913Y015726D01*
X007683Y015726D01*
X007836Y015726D02*
X007990Y015573D01*
X008143Y015573D02*
X008450Y015573D01*
X008143Y015573D02*
X008143Y016033D01*
X005535Y015803D02*
X005381Y015803D01*
X004980Y011979D02*
X005027Y011933D01*
X005027Y011839D01*
X004980Y011793D01*
X004886Y011886D02*
X004886Y011933D01*
X004933Y011979D01*
X004980Y011979D01*
X004886Y011933D02*
X004840Y011979D01*
X004793Y011979D01*
X004746Y011933D01*
X004746Y011839D01*
X004793Y011793D01*
X004797Y011069D02*
X004750Y011023D01*
X004750Y010929D01*
X004797Y010883D01*
X004797Y011069D02*
X004844Y011069D01*
X005030Y010883D01*
X005030Y011069D01*
X005027Y010218D02*
X005027Y010031D01*
X005027Y010125D02*
X004746Y010125D01*
X004840Y010031D01*
X010366Y012470D02*
X010750Y012470D01*
X010827Y012547D01*
X010827Y012700D01*
X010750Y012777D01*
X010366Y012777D01*
X010596Y012930D02*
X010596Y013160D01*
X010673Y013237D01*
X010750Y013237D01*
X010827Y013160D01*
X010827Y013007D01*
X010750Y012930D01*
X010596Y012930D01*
X010443Y013084D01*
X010366Y013237D01*
D15*
X005847Y015421D02*
X005847Y017321D01*
X005897Y016571D02*
X005925Y016566D01*
X005953Y016557D01*
X005979Y016545D01*
X006003Y016530D01*
X006025Y016512D01*
X006045Y016491D01*
X006062Y016468D01*
X006076Y016443D01*
X006087Y016417D01*
X006094Y016389D01*
X006098Y016360D01*
X006098Y016332D01*
X006094Y016303D01*
X006087Y016275D01*
X006076Y016249D01*
X006062Y016224D01*
X006045Y016201D01*
X006025Y016180D01*
X006003Y016162D01*
X005979Y016147D01*
X005953Y016135D01*
X005925Y016126D01*
X005897Y016121D01*
X024097Y006871D02*
X024097Y005871D01*
X025097Y005871D01*
X025097Y006871D01*
X026097Y006871D02*
X026097Y005871D01*
X025097Y005871D01*
X024097Y006871D02*
X026097Y006871D01*
D16*
X025897Y019421D02*
X026247Y019821D01*
X025547Y019821D01*
X025897Y019421D01*
X025897Y019521D02*
X025747Y019821D01*
X025947Y019821D01*
X025897Y019721D02*
X025897Y019671D01*
X025897Y019521D02*
X026097Y019721D01*
X025697Y019721D01*
X025197Y019421D02*
X024847Y019821D01*
X024497Y019421D01*
X025197Y019421D01*
X024997Y019521D02*
X024697Y019521D01*
X024897Y019671D01*
X024847Y019771D02*
X024997Y019521D01*
X024847Y019771D02*
X024647Y019571D01*
D17*
X015832Y012043D02*
X015646Y012043D01*
X015585Y011982D01*
X015646Y011920D01*
X015832Y011920D01*
X015832Y011796D02*
X015585Y011796D01*
X015585Y011858D01*
X015646Y011920D01*
X015646Y011675D02*
X015585Y011613D01*
X015585Y011490D01*
X015646Y011428D01*
X015770Y011428D01*
X015832Y011490D01*
X015832Y011613D01*
X015770Y011675D01*
X015646Y011675D01*
X015585Y011307D02*
X015585Y011121D01*
X015646Y011060D01*
X015770Y011060D01*
X015832Y011121D01*
X015832Y011307D01*
X015832Y010937D02*
X015832Y010876D01*
X015770Y010876D01*
X015770Y010937D01*
X015832Y010937D01*
X015770Y010754D02*
X015646Y010754D01*
X015585Y010692D01*
X015585Y010569D01*
X015646Y010507D01*
X015770Y010507D01*
X015832Y010569D01*
X015832Y010692D01*
X015770Y010754D01*
X015832Y010386D02*
X015646Y010386D01*
X015585Y010324D01*
X015585Y010139D01*
X015832Y010139D01*
X015832Y010017D02*
X015832Y009894D01*
X015832Y009955D02*
X015585Y009955D01*
X015585Y009894D01*
X015585Y009772D02*
X015832Y009772D01*
X015832Y009587D01*
X015770Y009525D01*
X015585Y009525D01*
X015585Y009404D02*
X015585Y009219D01*
X015646Y009157D01*
X015770Y009157D01*
X015832Y009219D01*
X015832Y009404D01*
X015461Y009404D01*
X015585Y009035D02*
X015585Y008850D01*
X015646Y008789D01*
X015770Y008789D01*
X015832Y008850D01*
X015832Y009035D01*
X015893Y009035D02*
X015955Y008974D01*
X015955Y008912D01*
X015893Y009035D02*
X015585Y009035D01*
X015585Y008605D02*
X015832Y008605D01*
X015832Y008666D02*
X015832Y008543D01*
X015832Y008422D02*
X015832Y008175D01*
X015585Y008422D01*
X015585Y008175D01*
X015770Y008052D02*
X015832Y008052D01*
X015832Y007991D01*
X015770Y007991D01*
X015770Y008052D01*
X015770Y007869D02*
X015585Y007869D01*
X015770Y007869D02*
X015832Y007807D01*
X015770Y007746D01*
X015832Y007684D01*
X015770Y007622D01*
X015585Y007622D01*
X015585Y007501D02*
X015770Y007501D01*
X015832Y007439D01*
X015770Y007377D01*
X015832Y007316D01*
X015770Y007254D01*
X015585Y007254D01*
X015585Y007133D02*
X015770Y007133D01*
X015832Y007071D01*
X015770Y007009D01*
X015832Y006947D01*
X015770Y006886D01*
X015585Y006886D01*
X015585Y008543D02*
X015585Y008605D01*
X015461Y008605D02*
X015400Y008605D01*
X015400Y009955D02*
X015461Y009955D01*
X018324Y011025D02*
X018373Y010976D01*
X018469Y010976D01*
X018518Y011025D01*
X018518Y011218D01*
X018469Y011266D01*
X018373Y011266D01*
X018324Y011218D01*
X018324Y011025D01*
X018421Y011073D02*
X018518Y010976D01*
X018619Y010976D02*
X018812Y010976D01*
X018716Y010976D02*
X018716Y011266D01*
X018619Y011170D01*
D18*
X016604Y011341D02*
X016579Y011316D01*
X016529Y011316D01*
X016504Y011341D01*
X016457Y011341D02*
X016432Y011316D01*
X016382Y011316D01*
X016357Y011341D01*
X016357Y011441D01*
X016382Y011466D01*
X016432Y011466D01*
X016457Y011441D01*
X016504Y011441D02*
X016529Y011466D01*
X016579Y011466D01*
X016604Y011441D01*
X016604Y011416D01*
X016579Y011391D01*
X016604Y011366D01*
X016604Y011341D01*
X016579Y011391D02*
X016554Y011391D01*
X016529Y010966D02*
X016504Y010941D01*
X016529Y010966D02*
X016579Y010966D01*
X016604Y010941D01*
X016604Y010916D01*
X016504Y010816D01*
X016604Y010816D01*
X016457Y010841D02*
X016432Y010816D01*
X016382Y010816D01*
X016357Y010841D01*
X016357Y010941D01*
X016382Y010966D01*
X016432Y010966D01*
X016457Y010941D01*
X016457Y012566D02*
X016357Y012566D01*
X016407Y012566D02*
X016407Y012716D01*
X016357Y012666D01*
X016310Y012691D02*
X016285Y012716D01*
X016235Y012716D01*
X016210Y012691D01*
X016210Y012591D01*
X016235Y012566D01*
X016285Y012566D01*
X016310Y012591D01*
X016504Y012591D02*
X016504Y012616D01*
X016529Y012641D01*
X016579Y012641D01*
X016604Y012616D01*
X016604Y012591D01*
X016579Y012566D01*
X016529Y012566D01*
X016504Y012591D01*
X016529Y012641D02*
X016504Y012666D01*
X016504Y012691D01*
X016529Y012716D01*
X016579Y012716D01*
X016604Y012691D01*
X016604Y012666D01*
X016579Y012641D01*
X012492Y009720D02*
X012492Y009620D01*
X012392Y009720D01*
X012367Y009720D01*
X012341Y009695D01*
X012341Y009645D01*
X012367Y009620D01*
X012341Y009523D02*
X012492Y009523D01*
X012492Y009473D02*
X012492Y009573D01*
X012392Y009473D02*
X012341Y009523D01*
X012367Y009426D02*
X012341Y009401D01*
X012341Y009351D01*
X012367Y009326D01*
X012467Y009326D01*
X012492Y009351D01*
X012492Y009401D01*
X012467Y009426D01*
X011288Y008651D02*
X011288Y008551D01*
X011263Y008526D01*
X011188Y008526D01*
X011188Y008676D01*
X011263Y008676D01*
X011288Y008651D01*
X011141Y008651D02*
X011141Y008626D01*
X011116Y008601D01*
X011066Y008601D01*
X011041Y008626D01*
X011041Y008651D01*
X011066Y008676D01*
X011116Y008676D01*
X011141Y008651D01*
X011116Y008601D02*
X011141Y008576D01*
X011141Y008551D01*
X011116Y008526D01*
X011066Y008526D01*
X011041Y008551D01*
X011041Y008576D01*
X011066Y008601D01*
X010994Y008601D02*
X010994Y008551D01*
X010969Y008526D01*
X010919Y008526D01*
X010894Y008551D01*
X010846Y008551D02*
X010821Y008526D01*
X010771Y008526D01*
X010746Y008551D01*
X010699Y008526D02*
X010699Y008676D01*
X010649Y008626D01*
X010599Y008676D01*
X010599Y008526D01*
X010552Y008526D02*
X010452Y008526D01*
X010452Y008676D01*
X010746Y008651D02*
X010771Y008676D01*
X010821Y008676D01*
X010846Y008651D01*
X010846Y008626D01*
X010821Y008601D01*
X010846Y008576D01*
X010846Y008551D01*
X010821Y008601D02*
X010796Y008601D01*
X010894Y008601D02*
X010944Y008626D01*
X010969Y008626D01*
X010994Y008601D01*
X010994Y008676D02*
X010894Y008676D01*
X010894Y008601D01*
X009692Y008648D02*
X009667Y008623D01*
X009692Y008648D02*
X009692Y008698D01*
X009667Y008723D01*
X009617Y008723D01*
X009592Y008698D01*
X009592Y008673D01*
X009617Y008623D01*
X009541Y008623D01*
X009541Y008723D01*
X009541Y008576D02*
X009667Y008576D01*
X009692Y008551D01*
X009692Y008501D01*
X009667Y008476D01*
X009541Y008476D01*
X008149Y007676D02*
X008099Y007651D01*
X008049Y007601D01*
X008124Y007601D01*
X008149Y007576D01*
X008149Y007551D01*
X008124Y007526D01*
X008074Y007526D01*
X008049Y007551D01*
X008049Y007601D01*
X008002Y007651D02*
X007977Y007676D01*
X007927Y007676D01*
X007902Y007651D01*
X007902Y007551D01*
X007927Y007526D01*
X007977Y007526D01*
X008002Y007551D01*
X007204Y008266D02*
X007204Y008291D01*
X007304Y008391D01*
X007304Y008416D01*
X007204Y008416D01*
X007157Y008391D02*
X007132Y008416D01*
X007082Y008416D01*
X007057Y008391D01*
X007057Y008291D01*
X007082Y008266D01*
X007132Y008266D01*
X007157Y008291D01*
X007552Y009776D02*
X007552Y009926D01*
X007627Y009926D01*
X007652Y009901D01*
X007652Y009851D01*
X007627Y009826D01*
X007552Y009826D01*
X007602Y009826D02*
X007652Y009776D01*
X007699Y009776D02*
X007799Y009776D01*
X007749Y009776D02*
X007749Y009926D01*
X007699Y009876D01*
X007846Y009901D02*
X007871Y009926D01*
X007921Y009926D01*
X007946Y009901D01*
X007846Y009801D01*
X007871Y009776D01*
X007921Y009776D01*
X007946Y009801D01*
X007946Y009901D01*
X007846Y009901D02*
X007846Y009801D01*
X007846Y010576D02*
X007946Y010576D01*
X007896Y010576D02*
X007896Y010726D01*
X007846Y010676D01*
X007749Y010726D02*
X007749Y010576D01*
X007699Y010576D02*
X007799Y010576D01*
X007699Y010676D02*
X007749Y010726D01*
X007652Y010701D02*
X007652Y010651D01*
X007627Y010626D01*
X007552Y010626D01*
X007602Y010626D02*
X007652Y010576D01*
X007552Y010576D02*
X007552Y010726D01*
X007627Y010726D01*
X007652Y010701D01*
X008960Y010691D02*
X008960Y010591D01*
X008985Y010566D01*
X009035Y010566D01*
X009060Y010591D01*
X009107Y010566D02*
X009207Y010566D01*
X009254Y010566D02*
X009354Y010566D01*
X009304Y010566D02*
X009304Y010716D01*
X009254Y010666D01*
X009157Y010716D02*
X009157Y010566D01*
X009107Y010666D02*
X009157Y010716D01*
X009060Y010691D02*
X009035Y010716D01*
X008985Y010716D01*
X008960Y010691D01*
X009351Y011608D02*
X009351Y011708D01*
X009377Y011708D01*
X009477Y011608D01*
X009502Y011608D01*
X009427Y011755D02*
X009351Y011830D01*
X009502Y011830D01*
X009502Y011902D02*
X009502Y012003D01*
X009452Y012050D02*
X009502Y012100D01*
X009452Y012150D01*
X009351Y012150D01*
X009377Y012197D02*
X009351Y012222D01*
X009351Y012272D01*
X009377Y012297D01*
X009402Y012344D02*
X009351Y012394D01*
X009502Y012394D01*
X009502Y012344D02*
X009502Y012445D01*
X009477Y012492D02*
X009502Y012517D01*
X009502Y012567D01*
X009477Y012592D01*
X009427Y012592D01*
X009427Y012542D01*
X009377Y012492D02*
X009477Y012492D01*
X009377Y012492D02*
X009351Y012517D01*
X009351Y012567D01*
X009377Y012592D01*
X009402Y012639D02*
X009351Y012689D01*
X009502Y012689D01*
X009502Y012639D02*
X009502Y012739D01*
X009502Y012786D02*
X009477Y012786D01*
X009377Y012886D01*
X009351Y012886D01*
X009351Y012786D01*
X009351Y012934D02*
X009351Y013009D01*
X009377Y013034D01*
X009477Y013034D01*
X009502Y013009D01*
X009502Y012934D01*
X009351Y012934D01*
X009351Y013081D02*
X009351Y013156D01*
X009377Y013181D01*
X009402Y013181D01*
X009427Y013156D01*
X009427Y013081D01*
X009502Y013081D02*
X009502Y013156D01*
X009477Y013181D01*
X009452Y013181D01*
X009427Y013156D01*
X009452Y013228D02*
X009502Y013278D01*
X009452Y013328D01*
X009351Y013328D01*
X009351Y013228D02*
X009452Y013228D01*
X009502Y013081D02*
X009351Y013081D01*
X009477Y012297D02*
X009502Y012272D01*
X009502Y012222D01*
X009477Y012197D01*
X009377Y012197D01*
X009351Y012050D02*
X009452Y012050D01*
X009502Y011902D02*
X009351Y011902D01*
X009427Y011855D02*
X009427Y011755D01*
X007799Y013776D02*
X007699Y013776D01*
X007799Y013876D01*
X007799Y013901D01*
X007774Y013926D01*
X007724Y013926D01*
X007699Y013901D01*
X007652Y013901D02*
X007652Y013851D01*
X007627Y013826D01*
X007552Y013826D01*
X007602Y013826D02*
X007652Y013776D01*
X007552Y013776D02*
X007552Y013926D01*
X007627Y013926D01*
X007652Y013901D01*
X006896Y013551D02*
X006896Y013526D01*
X006871Y013501D01*
X006896Y013476D01*
X006896Y013451D01*
X006871Y013426D01*
X006821Y013426D01*
X006796Y013451D01*
X006749Y013426D02*
X006649Y013426D01*
X006699Y013426D02*
X006699Y013576D01*
X006649Y013526D01*
X006602Y013551D02*
X006577Y013576D01*
X006527Y013576D01*
X006502Y013551D01*
X006502Y013451D01*
X006527Y013426D01*
X006577Y013426D01*
X006602Y013451D01*
X006796Y013551D02*
X006821Y013576D01*
X006871Y013576D01*
X006896Y013551D01*
X006871Y013501D02*
X006846Y013501D01*
X005799Y013151D02*
X005699Y013151D01*
X005774Y013226D01*
X005774Y013076D01*
X005652Y013101D02*
X005627Y013076D01*
X005577Y013076D01*
X005552Y013101D01*
X005552Y013201D01*
X005577Y013226D01*
X005627Y013226D01*
X005652Y013201D01*
X003837Y011360D02*
X003862Y011335D01*
X003862Y011285D01*
X003837Y011260D01*
X003837Y011212D02*
X003862Y011187D01*
X003862Y011137D01*
X003837Y011112D01*
X003837Y011065D02*
X003737Y011065D01*
X003711Y011040D01*
X003711Y010990D01*
X003737Y010965D01*
X003762Y010965D01*
X003787Y010990D01*
X003787Y011065D01*
X003787Y011112D02*
X003762Y011162D01*
X003762Y011187D01*
X003787Y011212D01*
X003837Y011212D01*
X003787Y011260D02*
X003762Y011310D01*
X003762Y011335D01*
X003787Y011360D01*
X003837Y011360D01*
X003787Y011260D02*
X003711Y011260D01*
X003711Y011360D01*
X003711Y011212D02*
X003711Y011112D01*
X003787Y011112D01*
X003837Y011065D02*
X003862Y011040D01*
X003862Y010990D01*
X003837Y010965D01*
X003862Y010918D02*
X003862Y010818D01*
X003762Y010918D01*
X003737Y010918D01*
X003711Y010893D01*
X003711Y010843D01*
X003737Y010818D01*
X003711Y010770D02*
X003711Y010670D01*
X003711Y010720D02*
X003862Y010720D01*
X003837Y010623D02*
X003737Y010623D01*
X003711Y010598D01*
X003711Y010523D01*
X003862Y010523D01*
X003862Y010598D01*
X003837Y010623D01*
X003862Y010476D02*
X003711Y010476D01*
X003711Y010376D02*
X003862Y010476D01*
X003862Y010376D02*
X003711Y010376D01*
X003787Y008311D02*
X003787Y008211D01*
X003711Y008286D01*
X003862Y008286D01*
X003837Y008163D02*
X003862Y008138D01*
X003862Y008088D01*
X003837Y008063D01*
X003837Y008016D02*
X003737Y008016D01*
X003711Y007991D01*
X003711Y007941D01*
X003737Y007916D01*
X003762Y007916D01*
X003787Y007941D01*
X003787Y008016D01*
X003787Y008063D02*
X003762Y008113D01*
X003762Y008138D01*
X003787Y008163D01*
X003837Y008163D01*
X003787Y008063D02*
X003711Y008063D01*
X003711Y008163D01*
X003837Y008016D02*
X003862Y007991D01*
X003862Y007941D01*
X003837Y007916D01*
X003862Y007869D02*
X003862Y007769D01*
X003762Y007869D01*
X003737Y007869D01*
X003711Y007844D01*
X003711Y007794D01*
X003737Y007769D01*
X003737Y007721D02*
X003711Y007696D01*
X003711Y007646D01*
X003737Y007621D01*
X003837Y007621D01*
X003862Y007646D01*
X003862Y007696D01*
X003837Y007721D01*
X003862Y007573D02*
X003862Y007523D01*
X003862Y007548D02*
X003711Y007548D01*
X003711Y007523D02*
X003711Y007573D01*
X003711Y007476D02*
X003862Y007476D01*
X003862Y007376D02*
X003711Y007376D01*
X003762Y007426D01*
X003711Y007476D01*
X005507Y006441D02*
X005507Y006341D01*
X005532Y006316D01*
X005582Y006316D01*
X005607Y006341D01*
X005654Y006341D02*
X005679Y006316D01*
X005729Y006316D01*
X005754Y006341D01*
X005754Y006391D01*
X005729Y006416D01*
X005704Y006416D01*
X005654Y006391D01*
X005654Y006466D01*
X005754Y006466D01*
X005607Y006441D02*
X005582Y006466D01*
X005532Y006466D01*
X005507Y006441D01*
X009809Y004886D02*
X009859Y004836D01*
X009909Y004886D01*
X009909Y004736D01*
X009956Y004736D02*
X010007Y004736D01*
X009981Y004736D02*
X009981Y004886D01*
X009956Y004886D02*
X010007Y004886D01*
X010055Y004861D02*
X010055Y004761D01*
X010080Y004736D01*
X010130Y004736D01*
X010155Y004761D01*
X010202Y004761D02*
X010227Y004736D01*
X010277Y004736D01*
X010302Y004761D01*
X010302Y004811D01*
X010277Y004836D01*
X010252Y004836D01*
X010202Y004811D01*
X010202Y004886D01*
X010302Y004886D01*
X010349Y004861D02*
X010374Y004886D01*
X010424Y004886D01*
X010449Y004861D01*
X010449Y004836D01*
X010349Y004736D01*
X010449Y004736D01*
X010497Y004761D02*
X010597Y004861D01*
X010597Y004761D01*
X010572Y004736D01*
X010522Y004736D01*
X010497Y004761D01*
X010497Y004861D01*
X010522Y004886D01*
X010572Y004886D01*
X010597Y004861D01*
X010644Y004836D02*
X010694Y004886D01*
X010694Y004736D01*
X010644Y004736D02*
X010744Y004736D01*
X010791Y004811D02*
X010891Y004811D01*
X010939Y004861D02*
X010964Y004886D01*
X011014Y004886D01*
X011039Y004861D01*
X011039Y004836D01*
X011014Y004811D01*
X011039Y004786D01*
X011039Y004761D01*
X011014Y004736D01*
X010964Y004736D01*
X010939Y004761D01*
X010989Y004811D02*
X011014Y004811D01*
X011086Y004761D02*
X011111Y004761D01*
X011111Y004736D01*
X011086Y004736D01*
X011086Y004761D01*
X011160Y004761D02*
X011185Y004736D01*
X011235Y004736D01*
X011260Y004761D01*
X011260Y004786D01*
X011235Y004811D01*
X011210Y004811D01*
X011235Y004811D02*
X011260Y004836D01*
X011260Y004861D01*
X011235Y004886D01*
X011185Y004886D01*
X011160Y004861D01*
X011307Y004886D02*
X011382Y004886D01*
X011407Y004861D01*
X011407Y004836D01*
X011382Y004811D01*
X011307Y004811D01*
X011307Y004736D02*
X011307Y004886D01*
X011382Y004811D02*
X011407Y004786D01*
X011407Y004761D01*
X011382Y004736D01*
X011307Y004736D01*
X011454Y004761D02*
X011479Y004736D01*
X011529Y004736D01*
X011554Y004761D01*
X011554Y004786D01*
X011529Y004811D01*
X011479Y004811D01*
X011454Y004836D01*
X011454Y004861D01*
X011479Y004886D01*
X011529Y004886D01*
X011554Y004861D01*
X012301Y005631D02*
X012301Y005706D01*
X012327Y005731D01*
X012377Y005731D01*
X012402Y005706D01*
X012402Y005631D01*
X012452Y005631D02*
X012301Y005631D01*
X012402Y005681D02*
X012452Y005731D01*
X012427Y005778D02*
X012452Y005803D01*
X012452Y005853D01*
X012427Y005878D01*
X012402Y005878D01*
X012377Y005853D01*
X012377Y005778D01*
X012427Y005778D01*
X012377Y005778D02*
X012327Y005828D01*
X012301Y005878D01*
X013251Y007681D02*
X013251Y007756D01*
X013277Y007781D01*
X013327Y007781D01*
X013352Y007756D01*
X013352Y007681D01*
X013402Y007681D02*
X013251Y007681D01*
X013352Y007731D02*
X013402Y007781D01*
X013402Y007828D02*
X013402Y007928D01*
X013402Y007878D02*
X013251Y007878D01*
X013302Y007828D01*
X010155Y004861D02*
X010130Y004886D01*
X010080Y004886D01*
X010055Y004861D01*
X009809Y004886D02*
X009809Y004736D01*
X018001Y007709D02*
X018027Y007684D01*
X018127Y007684D01*
X018152Y007709D01*
X018152Y007759D01*
X018127Y007784D01*
X018152Y007831D02*
X018052Y007931D01*
X018027Y007931D01*
X018001Y007906D01*
X018001Y007856D01*
X018027Y007831D01*
X018027Y007784D02*
X018001Y007759D01*
X018001Y007709D01*
X018152Y007831D02*
X018152Y007931D01*
X018152Y007978D02*
X018152Y008078D01*
X018152Y008028D02*
X018001Y008028D01*
X018052Y007978D01*
X018501Y008003D02*
X018501Y008053D01*
X018527Y008078D01*
X018552Y008078D01*
X018577Y008053D01*
X018602Y008078D01*
X018627Y008078D01*
X018652Y008053D01*
X018652Y008003D01*
X018627Y007978D01*
X018652Y007931D02*
X018652Y007831D01*
X018552Y007931D01*
X018527Y007931D01*
X018501Y007906D01*
X018501Y007856D01*
X018527Y007831D01*
X018527Y007784D02*
X018501Y007759D01*
X018501Y007709D01*
X018527Y007684D01*
X018627Y007684D01*
X018652Y007709D01*
X018652Y007759D01*
X018627Y007784D01*
X018527Y007978D02*
X018501Y008003D01*
X018577Y008028D02*
X018577Y008053D01*
X019001Y008053D02*
X019001Y008003D01*
X019027Y007978D01*
X019027Y007931D02*
X019001Y007906D01*
X019001Y007856D01*
X019027Y007831D01*
X019027Y007784D02*
X019001Y007759D01*
X019001Y007709D01*
X019027Y007684D01*
X019127Y007684D01*
X019152Y007709D01*
X019152Y007759D01*
X019127Y007784D01*
X019152Y007831D02*
X019052Y007931D01*
X019027Y007931D01*
X019152Y007931D02*
X019152Y007831D01*
X019152Y007978D02*
X019052Y008078D01*
X019027Y008078D01*
X019001Y008053D01*
X019152Y008078D02*
X019152Y007978D01*
X020352Y008976D02*
X020352Y009076D01*
X020402Y009126D01*
X020452Y009076D01*
X020452Y008976D01*
X020452Y009051D02*
X020352Y009051D01*
X020499Y009126D02*
X020599Y009126D01*
X020646Y009126D02*
X020696Y009076D01*
X020746Y009126D01*
X020746Y008976D01*
X020794Y008976D02*
X020894Y008976D01*
X020941Y009001D02*
X020966Y008976D01*
X021016Y008976D01*
X021041Y009001D01*
X021041Y009051D01*
X020991Y009051D01*
X021041Y009101D02*
X021016Y009126D01*
X020966Y009126D01*
X020941Y009101D01*
X020941Y009001D01*
X020844Y009051D02*
X020794Y009051D01*
X020794Y009126D02*
X020794Y008976D01*
X020646Y008976D02*
X020646Y009126D01*
X020549Y009126D02*
X020549Y008976D01*
X020794Y009126D02*
X020894Y009126D01*
X021088Y009076D02*
X021088Y008976D01*
X021088Y009051D02*
X021188Y009051D01*
X021188Y009076D02*
X021188Y008976D01*
X021236Y008976D02*
X021336Y008976D01*
X021383Y008976D02*
X021483Y009076D01*
X021483Y009101D01*
X021458Y009126D01*
X021408Y009126D01*
X021383Y009101D01*
X021286Y009126D02*
X021286Y008976D01*
X021383Y008976D02*
X021483Y008976D01*
X021530Y009001D02*
X021530Y009026D01*
X021555Y009051D01*
X021605Y009051D01*
X021630Y009026D01*
X021630Y009001D01*
X021605Y008976D01*
X021555Y008976D01*
X021530Y009001D01*
X021555Y009051D02*
X021530Y009076D01*
X021530Y009101D01*
X021555Y009126D01*
X021605Y009126D01*
X021630Y009101D01*
X021630Y009076D01*
X021605Y009051D01*
X021678Y009026D02*
X021753Y009026D01*
X021778Y009051D01*
X021778Y009101D01*
X021753Y009126D01*
X021678Y009126D01*
X021678Y008976D01*
X021728Y009026D02*
X021778Y008976D01*
X021825Y008976D02*
X021825Y009126D01*
X021925Y009126D01*
X021972Y009076D02*
X022022Y009126D01*
X022072Y009076D01*
X022072Y008976D01*
X022119Y008976D02*
X022220Y008976D01*
X022170Y008976D02*
X022170Y009126D01*
X022119Y009076D01*
X022072Y009051D02*
X021972Y009051D01*
X021972Y009076D02*
X021972Y008976D01*
X021875Y009051D02*
X021825Y009051D01*
X021286Y009126D02*
X021236Y009076D01*
X021188Y009076D02*
X021138Y009126D01*
X021088Y009076D01*
X022510Y008691D02*
X022510Y008591D01*
X022535Y008566D01*
X022585Y008566D01*
X022610Y008591D01*
X022657Y008566D02*
X022757Y008566D01*
X022707Y008566D02*
X022707Y008716D01*
X022657Y008666D01*
X022610Y008691D02*
X022585Y008716D01*
X022535Y008716D01*
X022510Y008691D01*
X022804Y008716D02*
X022804Y008641D01*
X022854Y008666D01*
X022879Y008666D01*
X022904Y008641D01*
X022904Y008591D01*
X022879Y008566D01*
X022829Y008566D01*
X022804Y008591D01*
X022804Y008716D02*
X022904Y008716D01*
X022879Y008216D02*
X022804Y008141D01*
X022904Y008141D01*
X022879Y008066D02*
X022879Y008216D01*
X022707Y008216D02*
X022707Y008066D01*
X022657Y008066D02*
X022757Y008066D01*
X022657Y008166D02*
X022707Y008216D01*
X022610Y008191D02*
X022585Y008216D01*
X022535Y008216D01*
X022510Y008191D01*
X022510Y008091D01*
X022535Y008066D01*
X022585Y008066D01*
X022610Y008091D01*
X025302Y010301D02*
X025327Y010276D01*
X025377Y010276D01*
X025402Y010301D01*
X025449Y010276D02*
X025549Y010376D01*
X025549Y010401D01*
X025524Y010426D01*
X025474Y010426D01*
X025449Y010401D01*
X025402Y010401D02*
X025377Y010426D01*
X025327Y010426D01*
X025302Y010401D01*
X025302Y010301D01*
X025449Y010276D02*
X025549Y010276D01*
X025596Y010301D02*
X025696Y010401D01*
X025696Y010301D01*
X025671Y010276D01*
X025621Y010276D01*
X025596Y010301D01*
X025596Y010401D01*
X025621Y010426D01*
X025671Y010426D01*
X025696Y010401D01*
X011049Y014851D02*
X010949Y014851D01*
X011024Y014926D01*
X011024Y014776D01*
X010902Y014776D02*
X010852Y014826D01*
X010877Y014826D02*
X010802Y014826D01*
X010802Y014776D02*
X010802Y014926D01*
X010877Y014926D01*
X010902Y014901D01*
X010902Y014851D01*
X010877Y014826D01*
X010902Y017076D02*
X010852Y017126D01*
X010877Y017126D02*
X010802Y017126D01*
X010802Y017076D02*
X010802Y017226D01*
X010877Y017226D01*
X010902Y017201D01*
X010902Y017151D01*
X010877Y017126D01*
X010949Y017151D02*
X010999Y017176D01*
X011024Y017176D01*
X011049Y017151D01*
X011049Y017101D01*
X011024Y017076D01*
X010974Y017076D01*
X010949Y017101D01*
X010949Y017151D02*
X010949Y017226D01*
X011049Y017226D01*
X010949Y018576D02*
X010949Y018601D01*
X011049Y018701D01*
X011049Y018726D01*
X010949Y018726D01*
X010902Y018701D02*
X010877Y018726D01*
X010802Y018726D01*
X010802Y018576D01*
X010802Y018626D02*
X010877Y018626D01*
X010902Y018651D01*
X010902Y018701D01*
X010852Y018626D02*
X010902Y018576D01*
X008354Y018741D02*
X008329Y018716D01*
X008279Y018716D01*
X008254Y018741D01*
X008254Y018766D01*
X008279Y018791D01*
X008329Y018791D01*
X008354Y018766D01*
X008354Y018741D01*
X008329Y018791D02*
X008354Y018816D01*
X008354Y018841D01*
X008329Y018866D01*
X008279Y018866D01*
X008254Y018841D01*
X008254Y018816D01*
X008279Y018791D01*
X008207Y018841D02*
X008182Y018866D01*
X008132Y018866D01*
X008107Y018841D01*
X008107Y018741D01*
X008132Y018716D01*
X008182Y018716D01*
X008207Y018741D01*
X005854Y019141D02*
X005829Y019116D01*
X005779Y019116D01*
X005754Y019141D01*
X005854Y019241D01*
X005854Y019141D01*
X005754Y019141D02*
X005754Y019241D01*
X005779Y019266D01*
X005829Y019266D01*
X005854Y019241D01*
X005707Y019116D02*
X005607Y019116D01*
X005657Y019116D02*
X005657Y019266D01*
X005607Y019216D01*
X005560Y019241D02*
X005535Y019266D01*
X005485Y019266D01*
X005460Y019241D01*
X005460Y019141D01*
X005485Y019116D01*
X005535Y019116D01*
X005560Y019141D01*
D19*
X012894Y018147D02*
X012894Y018000D01*
X012894Y018147D02*
X012931Y018147D01*
X013077Y018000D01*
X013114Y018000D01*
X013114Y017926D02*
X013114Y017779D01*
X013114Y017853D02*
X012894Y017853D01*
X012967Y017779D01*
X012931Y017705D02*
X012894Y017668D01*
X012894Y017558D01*
X013114Y017558D01*
X013114Y017668D01*
X013077Y017705D01*
X012931Y017705D01*
X014394Y016397D02*
X014431Y016324D01*
X014504Y016250D01*
X014504Y016360D01*
X014541Y016397D01*
X014577Y016397D01*
X014614Y016360D01*
X014614Y016287D01*
X014577Y016250D01*
X014504Y016250D01*
X014614Y016176D02*
X014614Y016029D01*
X014614Y016103D02*
X014394Y016103D01*
X014467Y016029D01*
X014431Y015955D02*
X014394Y015918D01*
X014394Y015808D01*
X014614Y015808D01*
X014614Y015918D01*
X014577Y015955D01*
X014431Y015955D01*
X015329Y015842D02*
X015439Y015732D01*
X015439Y015879D01*
X015549Y015842D02*
X015329Y015842D01*
X015329Y015585D02*
X015549Y015585D01*
X015549Y015658D02*
X015549Y015511D01*
X015513Y015437D02*
X015366Y015437D01*
X015329Y015400D01*
X015329Y015290D01*
X015549Y015290D01*
X015549Y015400D01*
X015513Y015437D01*
X015402Y015511D02*
X015329Y015585D01*
X017329Y017040D02*
X017329Y017150D01*
X017366Y017187D01*
X017513Y017187D01*
X017549Y017150D01*
X017549Y017040D01*
X017329Y017040D01*
X017402Y017261D02*
X017329Y017335D01*
X017549Y017335D01*
X017549Y017408D02*
X017549Y017261D01*
X017513Y017482D02*
X017549Y017519D01*
X017549Y017592D01*
X017513Y017629D01*
X017439Y017629D01*
X017402Y017592D01*
X017402Y017556D01*
X017439Y017482D01*
X017329Y017482D01*
X017329Y017629D01*
X017205Y018308D02*
X016984Y018308D01*
X016984Y018418D01*
X017021Y018455D01*
X017094Y018455D01*
X017131Y018418D01*
X017131Y018308D01*
X017131Y018382D02*
X017205Y018455D01*
X017205Y018529D02*
X017205Y018676D01*
X017205Y018603D02*
X016984Y018603D01*
X017058Y018529D01*
X017021Y018750D02*
X016984Y018787D01*
X016984Y018860D01*
X017021Y018897D01*
X017058Y018897D01*
X017205Y018750D01*
X017205Y018897D01*
X017457Y019381D02*
X017457Y019601D01*
X017530Y019527D01*
X017603Y019601D01*
X017603Y019381D01*
X017678Y019417D02*
X017714Y019381D01*
X017788Y019381D01*
X017824Y019417D01*
X017824Y019564D01*
X017788Y019601D01*
X017714Y019601D01*
X017678Y019564D01*
X017678Y019417D01*
X017899Y019417D02*
X017935Y019381D01*
X018009Y019381D01*
X018045Y019417D01*
X018045Y019454D01*
X018009Y019491D01*
X017935Y019491D01*
X017899Y019527D01*
X017899Y019564D01*
X017935Y019601D01*
X018009Y019601D01*
X018045Y019564D01*
X018120Y019601D02*
X018193Y019601D01*
X018156Y019601D02*
X018156Y019381D01*
X018120Y019381D02*
X018193Y019381D01*
X019931Y016397D02*
X019894Y016360D01*
X019894Y016287D01*
X019931Y016250D01*
X019967Y016250D01*
X020004Y016287D01*
X020004Y016397D01*
X020077Y016397D02*
X019931Y016397D01*
X020077Y016397D02*
X020114Y016360D01*
X020114Y016287D01*
X020077Y016250D01*
X020077Y016176D02*
X019931Y016176D01*
X019894Y016139D01*
X019894Y016029D01*
X020114Y016029D01*
X020114Y016139D01*
X020077Y016176D01*
X020829Y015621D02*
X020829Y015548D01*
X020866Y015511D01*
X020902Y015511D01*
X020939Y015548D01*
X020939Y015621D01*
X020976Y015658D01*
X021013Y015658D01*
X021049Y015621D01*
X021049Y015548D01*
X021013Y015511D01*
X020976Y015511D01*
X020939Y015548D01*
X020939Y015621D02*
X020902Y015658D01*
X020866Y015658D01*
X020829Y015621D01*
X020866Y015437D02*
X020829Y015400D01*
X020829Y015290D01*
X021049Y015290D01*
X021049Y015400D01*
X021013Y015437D01*
X020866Y015437D01*
X023579Y015400D02*
X023579Y015290D01*
X023799Y015290D01*
X023799Y015400D01*
X023763Y015437D01*
X023616Y015437D01*
X023579Y015400D01*
X023579Y015511D02*
X023689Y015511D01*
X023652Y015585D01*
X023652Y015621D01*
X023689Y015658D01*
X023763Y015658D01*
X023799Y015621D01*
X023799Y015548D01*
X023763Y015511D01*
X023579Y015511D02*
X023579Y015658D01*
X024894Y017779D02*
X024894Y017889D01*
X024931Y017926D01*
X025077Y017926D01*
X025114Y017889D01*
X025114Y017779D01*
X024894Y017779D01*
X024894Y018000D02*
X024894Y018147D01*
X024931Y018147D01*
X025077Y018000D01*
X025114Y018000D01*
X024205Y018308D02*
X023984Y018308D01*
X023984Y018418D01*
X024021Y018455D01*
X024094Y018455D01*
X024131Y018418D01*
X024131Y018308D01*
X024131Y018382D02*
X024205Y018455D01*
X024205Y018529D02*
X024205Y018676D01*
X024205Y018603D02*
X023984Y018603D01*
X024058Y018529D01*
X024021Y018750D02*
X023984Y018787D01*
X023984Y018860D01*
X024021Y018897D01*
X024058Y018897D01*
X024094Y018860D01*
X024131Y018897D01*
X024168Y018897D01*
X024205Y018860D01*
X024205Y018787D01*
X024168Y018750D01*
X024094Y018824D02*
X024094Y018860D01*
X013547Y012871D02*
X013447Y012871D01*
X013447Y011871D01*
X013547Y011871D01*
X011247Y011921D02*
X011147Y011921D01*
X011247Y011921D02*
X011247Y012871D01*
X011147Y012871D01*
X017644Y007110D02*
X017681Y007147D01*
X017827Y007000D01*
X017864Y007037D01*
X017864Y007110D01*
X017827Y007147D01*
X017681Y007147D01*
X017644Y007110D02*
X017644Y007037D01*
X017681Y007000D01*
X017827Y007000D01*
X017864Y006926D02*
X017864Y006779D01*
X017864Y006853D02*
X017644Y006853D01*
X017717Y006779D01*
X017681Y006705D02*
X017644Y006668D01*
X017644Y006558D01*
X017864Y006558D01*
X017864Y006668D01*
X017827Y006705D01*
X017681Y006705D01*
X018049Y006379D02*
X018049Y006232D01*
X018049Y006306D02*
X017829Y006306D01*
X017902Y006232D01*
X017829Y006085D02*
X018049Y006085D01*
X018049Y006158D02*
X018049Y006011D01*
X018013Y005937D02*
X017866Y005937D01*
X017829Y005900D01*
X017829Y005790D01*
X018049Y005790D01*
X018049Y005900D01*
X018013Y005937D01*
X017902Y006011D02*
X017829Y006085D01*
X018525Y005158D02*
X018562Y005158D01*
X018599Y005121D01*
X018635Y005158D01*
X018672Y005158D01*
X018709Y005121D01*
X018709Y005048D01*
X018672Y005011D01*
X018709Y004937D02*
X018635Y004864D01*
X018635Y004900D02*
X018635Y004790D01*
X018709Y004790D02*
X018489Y004790D01*
X018489Y004900D01*
X018525Y004937D01*
X018599Y004937D01*
X018635Y004900D01*
X018525Y005011D02*
X018489Y005048D01*
X018489Y005121D01*
X018525Y005158D01*
X018599Y005121D02*
X018599Y005085D01*
X019829Y005790D02*
X019829Y005900D01*
X019866Y005937D01*
X020013Y005937D01*
X020049Y005900D01*
X020049Y005790D01*
X019829Y005790D01*
X019902Y006011D02*
X019829Y006085D01*
X020049Y006085D01*
X020049Y006158D02*
X020049Y006011D01*
X020049Y006232D02*
X019902Y006379D01*
X019866Y006379D01*
X019829Y006342D01*
X019829Y006269D01*
X019866Y006232D01*
X020049Y006232D02*
X020049Y006379D01*
X023644Y006779D02*
X023644Y006889D01*
X023681Y006926D01*
X023827Y006926D01*
X023864Y006889D01*
X023864Y006779D01*
X023644Y006779D01*
X023754Y007000D02*
X023754Y007110D01*
X023791Y007147D01*
X023827Y007147D01*
X023864Y007110D01*
X023864Y007037D01*
X023827Y007000D01*
X023754Y007000D01*
X023681Y007074D01*
X023644Y007147D01*
X024665Y009141D02*
X024775Y009141D01*
X024811Y009177D01*
X024811Y009214D01*
X024775Y009251D01*
X024665Y009251D01*
X024775Y009251D02*
X024811Y009287D01*
X024811Y009324D01*
X024775Y009361D01*
X024665Y009361D01*
X024665Y009141D01*
X024886Y009141D02*
X025032Y009141D01*
X024959Y009141D02*
X024959Y009361D01*
X024886Y009287D01*
D20*
X013244Y006680D03*
X012949Y006680D03*
D21*
X013097Y006680D03*
X010038Y015621D03*
X010038Y016371D03*
X010156Y017871D03*
D22*
X010156Y018018D03*
X010156Y017723D03*
X010038Y016518D03*
X010038Y016223D03*
X010038Y015768D03*
X010038Y015473D03*
D23*
X008854Y015347D02*
X008854Y017394D01*
X004839Y017394D01*
X004839Y015347D02*
X008854Y015347D01*
X004047Y012661D02*
X004047Y010081D01*
X002647Y010081D01*
X002647Y012661D01*
X004047Y012661D01*
X004047Y009661D02*
X002647Y009661D01*
X002647Y007081D01*
X004047Y007081D01*
X004047Y009661D01*
X009306Y005071D02*
X011887Y005071D01*
X011887Y003671D01*
X009306Y003671D01*
X009306Y005071D01*
X007740Y003545D02*
X006953Y003545D01*
X007347Y003947D01*
X007740Y003545D01*
D24*
X004991Y016371D03*
D25*
X008835Y012371D02*
X008839Y012371D01*
D26*
X009087Y012871D02*
X009087Y011867D01*
X009603Y011867D01*
X009603Y012871D01*
X009087Y012871D01*
D27*
X017850Y018871D02*
X017850Y018881D01*
X017847Y018881D02*
X017853Y018881D01*
X017856Y018881D02*
X017861Y018881D01*
X017862Y018879D01*
X017862Y018876D01*
X017861Y018874D01*
X017856Y018874D01*
X017856Y018871D02*
X017856Y018881D01*
X017865Y018881D02*
X017870Y018881D01*
X017872Y018879D01*
X017872Y018876D01*
X017870Y018874D01*
X017865Y018874D01*
X017865Y018871D02*
X017865Y018881D01*
X017874Y018877D02*
X017877Y018881D01*
X017881Y018877D01*
X017881Y018871D01*
X017883Y018871D02*
X017888Y018871D01*
X017890Y018872D01*
X017890Y018879D01*
X017888Y018881D01*
X017883Y018881D01*
X017883Y018871D01*
X017881Y018876D02*
X017874Y018876D01*
X017874Y018877D02*
X017874Y018871D01*
X017892Y018871D02*
X017899Y018871D01*
X017896Y018871D02*
X017896Y018881D01*
X017892Y018877D01*
X017902Y018876D02*
X017908Y018876D01*
X017911Y018877D02*
X017914Y018881D01*
X017914Y018871D01*
X017911Y018871D02*
X017917Y018871D01*
X017920Y018872D02*
X017922Y018871D01*
X017925Y018871D01*
X017927Y018872D01*
X017927Y018874D01*
X017925Y018876D01*
X017923Y018876D01*
X017925Y018876D02*
X017927Y018877D01*
X017927Y018879D01*
X017925Y018881D01*
X017922Y018881D01*
X017920Y018879D01*
M02*
