G75*
G70*
%OFA0B0*%
%FSLAX24Y24*%
%IPPOS*%
%LPD*%
%AMOC8*
5,1,8,0,0,1.08239X$1,22.5*
%
%ADD10C,0.1340*%
%ADD11OC8,0.0720*%
%ADD12R,0.0720X0.0720*%
%ADD13R,0.0540X0.0710*%
%ADD14C,0.0674*%
%ADD15R,0.0592X0.0592*%
%ADD16C,0.0710*%
%ADD17C,0.0789*%
%ADD18R,0.0680X0.0680*%
%ADD19C,0.0680*%
%ADD20C,0.0434*%
%ADD21C,0.0640*%
D10*
X007250Y002336D03*
X027750Y004336D03*
X027750Y015336D03*
X007750Y021336D03*
D11*
X009150Y021336D03*
X010150Y021336D03*
X011150Y021336D03*
X012150Y021336D03*
X013150Y021336D03*
X014150Y021336D03*
X015150Y021336D03*
X016150Y021336D03*
X017150Y021336D03*
X015150Y020086D03*
X014150Y020086D03*
X019750Y021336D03*
X020750Y021336D03*
X021750Y021336D03*
X022750Y021336D03*
X023750Y021336D03*
X024750Y021336D03*
X025750Y021336D03*
X026805Y013316D03*
X027805Y013316D03*
X027805Y012316D03*
X026805Y012316D03*
X026805Y011316D03*
X027805Y011316D03*
X026750Y002336D03*
X025750Y002336D03*
X024750Y002336D03*
X023750Y002336D03*
X022750Y002336D03*
X019750Y002336D03*
X018750Y002336D03*
X017750Y002336D03*
X016750Y002336D03*
X015750Y002336D03*
X014750Y002336D03*
X013750Y002336D03*
X008250Y014836D03*
D12*
X009250Y014836D03*
X013150Y020086D03*
X018150Y021336D03*
X026750Y021336D03*
X021750Y002336D03*
X012750Y002336D03*
D13*
X013400Y018836D03*
X014000Y018836D03*
X014600Y018836D03*
D14*
X003750Y019452D03*
X003750Y017719D03*
X021250Y008336D03*
X021750Y007836D03*
X021250Y007336D03*
X022250Y007336D03*
X022250Y008336D03*
D15*
X012000Y019336D03*
X004750Y019336D03*
X004750Y018336D03*
X004750Y017336D03*
X003750Y010836D03*
D16*
X002469Y004336D03*
D17*
X004240Y004336D03*
D18*
X024106Y012448D03*
D19*
X024894Y012448D03*
X024894Y011660D03*
X024894Y010873D03*
X024106Y010873D03*
X024106Y011660D03*
X024106Y010086D03*
X024894Y010086D03*
X024894Y009298D03*
X024106Y009298D03*
X024106Y008511D03*
X024106Y007723D03*
X024894Y007723D03*
X024894Y008511D03*
D20*
X010450Y003676D03*
X010450Y002495D03*
D21*
X027250Y010086D03*
X028250Y010086D03*
M02*
