%
M48
M72
T01C0.0130
T02C0.0150
T03C0.0160
T04C0.0240
T05C0.0320
T06C0.0354
T07C0.0360
T08C0.0400
T09C0.0630
T10C0.0709
T11C0.1260
%
T01
X10250Y4836
X10250Y5336
X10750Y5836
X11500Y5086
X13000Y6836
X13000Y7336
X13000Y7836
X15500Y9586
X15900Y8436
X15750Y6336
X17000Y6336
X17000Y5836
X17000Y5336
X19000Y5336
X19000Y5836
X19000Y6336
X20800Y7036
X21050Y6886
X21350Y6836
X21600Y6986
X21900Y6986
X22200Y6836
X22500Y6886
X22700Y7136
X22750Y7436
X22600Y7736
X22700Y8036
X22300Y7836
X21700Y7286
X21050Y7886
X20800Y8036
X20750Y8336
X20800Y8636
X20500Y8536
X20200Y8536
X19900Y8536
X19600Y8536
X19300Y8536
X19000Y8636
X18950Y8936
X18950Y9236
X19000Y9536
X18750Y9986
X19050Y10336
X20550Y10486
X20550Y10186
X20550Y9886
X20550Y9586
X20550Y9286
X21000Y8886
X21800Y8936
X22100Y8886
X22400Y8886
X22400Y9186
X22700Y8936
X22700Y8636
X22750Y8336
X22400Y9486
X22400Y9786
X22400Y10086
X22400Y10386
X22400Y10686
X20900Y10736
X20525Y11736
X21050Y12086
X21050Y12586
X21050Y13286
X22000Y13086
X22500Y13086
X23000Y13086
X23000Y13486
X23400Y13836
X23750Y14086
X23350Y14636
X24400Y15636
X23500Y16686
X22750Y15836
X21800Y14986
X21000Y14386
X19750Y14436
X19150Y14436
X18750Y14436
X17750Y14836
X17250Y14836
X16700Y14836
X16250Y14836
X15850Y14836
X16100Y13886
X14500Y13586
X14500Y13086
X14500Y12586
X13500Y12586
X12750Y12336
X13500Y13086
X13500Y13586
X14350Y15586
X13850Y15836
X13000Y16086
X13000Y16586
X13000Y17086
X12750Y17771
X12750Y18836
X14750Y18086
X15750Y17336
X16250Y17586
X16700Y17586
X17100Y17586
X17500Y17586
X18250Y17936
X18250Y18336
X18250Y18836
X19500Y19236
X20250Y18836
X20250Y18336
X20250Y17936
X19750Y17336
X19700Y16636
X19300Y16186
X19100Y16536
X20500Y16586
X20600Y16036
X19100Y15536
X17150Y15486
X16650Y16336
X16000Y16586
X14750Y16586
X14750Y17086
X14750Y16086
X16250Y18336
X16250Y18836
X21049Y19036
X21407Y18178
X22250Y18336
X22250Y17936
X22250Y18836
X22625Y19211
X23500Y19086
X24250Y18836
X24250Y18336
X24250Y17936
X25407Y17428
X26250Y17586
X26250Y18086
X25100Y18936
X26375Y19461
X24894Y14086
X23150Y12036
X19750Y11736
X18450Y12536
X18500Y13036
X18450Y13686
X16100Y12336
X17000Y11586
X12750Y10836
X9150Y10836
X9150Y11336
X9150Y10336
X10700Y15486
X8250Y16836
X7750Y17586
X5500Y17836
X3900Y18236
X3750Y18636
X5650Y20136
X9950Y18336
X10750Y20586
X7250Y15586
X20750Y7336
X20850Y7636
X21000Y6336
X21000Y5836
X21000Y5386
X22750Y5386
X22750Y5836
X22750Y6336
X23750Y5836
X24250Y6210
X25250Y5836
X25650Y5836
X26500Y5086
X25250Y6586
X24000Y5086
T02
X13000Y10336
X10750Y11086
X4374Y10836
X8250Y16336
X8750Y17586
T03
X16750Y4561
T04
X11000Y6836
X9750Y5836
X8000Y7086
T05
X27250Y10086
X28250Y10086
T06
X22250Y8336
X21750Y7836
X21250Y7336
X22250Y7336
X21250Y8336
X10450Y3676
X10450Y2495
X3750Y17719
X3750Y19452
T07
X24106Y12448
X24894Y12448
X24894Y11660
X24894Y10873
X24106Y10873
X24106Y11660
X24106Y10086
X24894Y10086
X24894Y9298
X24106Y9298
X24106Y8511
X24106Y7723
X24894Y7723
X24894Y8511
T08
X26805Y11316
X26805Y12316
X27805Y12316
X27805Y11316
X27805Y13316
X26805Y13316
X26750Y21336
X25750Y21336
X24750Y21336
X23750Y21336
X22750Y21336
X21750Y21336
X20750Y21336
X19750Y21336
X18150Y21336
X17150Y21336
X16150Y21336
X15150Y21336
X14150Y21336
X13150Y21336
X12150Y21336
X11150Y21336
X10150Y21336
X9150Y21336
X13150Y20086
X14150Y20086
X15150Y20086
X9250Y14836
X8250Y14836
X12750Y2336
X13750Y2336
X14750Y2336
X15750Y2336
X16750Y2336
X17750Y2336
X18750Y2336
X19750Y2336
X21750Y2336
X22750Y2336
X23750Y2336
X24750Y2336
X25750Y2336
X26750Y2336
T09
X2469Y4336
T10
X4240Y4336
T11
X7250Y2336
X27750Y4336
X27750Y15336
X7750Y21336
M30
