%
T01C0.014500
X21000Y9225
X17250Y15000
X15000Y15750
X8624Y15500
X12500Y21000
X13000Y22250
X14500Y9500
X14500Y10000
X15000Y10500
X15750Y9750
X17250Y11500
X17250Y12000
X17250Y12500
X19750Y14250
X20150Y13100
X20000Y11000
X21250Y11000
X21250Y10500
X21250Y10000
X23250Y10000
X23250Y10500
X23250Y11000
X25050Y11700
X25300Y11550
X25600Y11500
X25850Y11650
X26150Y11650
X26450Y11500
X26750Y11550
X26950Y11800
X27000Y12100
X26850Y12400
X26950Y12700
X26550Y12500
X25950Y11950
X25300Y12550
X25050Y12700
X25000Y13000
X25050Y13300
X24750Y13200
X24450Y13200
X24150Y13200
X23850Y13200
X23550Y13200
X23250Y13300
X23200Y13600
X23200Y13900
X23250Y14200
X23000Y14650
X23300Y15000
X24800Y15150
X24800Y14850
X24800Y14550
X24800Y14250
X24800Y13950
X25250Y13550
X26050Y13600
X26350Y13550
X26650Y13550
X26650Y13850
X26950Y13600
X26950Y13300
X27000Y13000
X26650Y14150
X26650Y14450
X26650Y14750
X26650Y15050
X26650Y15350
X25150Y15400
X24775Y16400
X25300Y16750
X25300Y17250
X25300Y17950
X26250Y17750
X26750Y17750
X27250Y17750
X27250Y18150
X27650Y18500
X28000Y18750
X27600Y19300
X28650Y20300
X27750Y21350
X27000Y20500
X26050Y19650
X25250Y19050
X24000Y19100
X23400Y19100
X23000Y19100
X22000Y19500
X21500Y19500
X20950Y19500
X20500Y19500
X20100Y19500
X20350Y18550
X18750Y18250
X18750Y17750
X18750Y17250
X17750Y17250
X17000Y17000
X17750Y17750
X17750Y18250
X18600Y20250
X18100Y20500
X17250Y20750
X17250Y21250
X17250Y21750
X17000Y22435
X17000Y23500
X19000Y22750
X20000Y22000
X20500Y22250
X20950Y22250
X21350Y22250
X21750Y22250
X22500Y22600
X22500Y23000
X22500Y23500
X23750Y23900
X24500Y23500
X24500Y23000
X24500Y22600
X24000Y22000
X23950Y21300
X23550Y20850
X23350Y21200
X24750Y21250
X24850Y20700
X23350Y20200
X21400Y20150
X20900Y21000
X20250Y21250
X19000Y21250
X19000Y21750
X19000Y20750
X20500Y23000
X20500Y23500
X25299Y23700
X25657Y22842
X26500Y23000
X26500Y22600
X26500Y23500
X26875Y23875
X27750Y23750
X28500Y23500
X28500Y23000
X28500Y22600
X29657Y22092
X30500Y22250
X30500Y22750
X29350Y23600
X30625Y24125
X29144Y18750
X27400Y16700
X24000Y16400
X22700Y17200
X22750Y17700
X22700Y18350
X20350Y17000
X21250Y16250
X17000Y15500
X13400Y15500
X13400Y16000
X13400Y15000
X14950Y20150
X12500Y21500
X12000Y22250
X9750Y22500
X8150Y22900
X8000Y23300
X9900Y24800
X14200Y23000
X15000Y25250
X11500Y20250
X25000Y12000
X25100Y12300
X25250Y11000
X25250Y10500
X25250Y10050
X27000Y10050
X27000Y10500
X27000Y11000
X28000Y10500
X28500Y10874
X29500Y10500
X29900Y10500
X30750Y9750
X29500Y11250
X28250Y9750
X21000Y32225
X17250Y38000
X15000Y38750
X8624Y38500
X12500Y44000
X13000Y45250
X14500Y32500
X14500Y33000
X15000Y33500
X15750Y32750
X17250Y34500
X17250Y35000
X17250Y35500
X19750Y37250
X20150Y36100
X20000Y34000
X21250Y34000
X21250Y33500
X21250Y33000
X23250Y33000
X23250Y33500
X23250Y34000
X25050Y34700
X25300Y34550
X25600Y34500
X25850Y34650
X26150Y34650
X26450Y34500
X26750Y34550
X26950Y34800
X27000Y35100
X26850Y35400
X26950Y35700
X26550Y35500
X25950Y34950
X25300Y35550
X25050Y35700
X25000Y36000
X25050Y36300
X24750Y36200
X24450Y36200
X24150Y36200
X23850Y36200
X23550Y36200
X23250Y36300
X23200Y36600
X23200Y36900
X23250Y37200
X23000Y37650
X23300Y38000
X24800Y38150
X24800Y37850
X24800Y37550
X24800Y37250
X24800Y36950
X25250Y36550
X26050Y36600
X26350Y36550
X26650Y36550
X26650Y36850
X26950Y36600
X26950Y36300
X27000Y36000
X26650Y37150
X26650Y37450
X26650Y37750
X26650Y38050
X26650Y38350
X25150Y38400
X24775Y39400
X25300Y39750
X25300Y40250
X25300Y40950
X26250Y40750
X26750Y40750
X27250Y40750
X27250Y41150
X27650Y41500
X28000Y41750
X27600Y42300
X28650Y43300
X27750Y44350
X27000Y43500
X26050Y42650
X25250Y42050
X24000Y42100
X23400Y42100
X23000Y42100
X22000Y42500
X21500Y42500
X20950Y42500
X20500Y42500
X20100Y42500
X20350Y41550
X18750Y41250
X18750Y40750
X18750Y40250
X17750Y40250
X17000Y40000
X17750Y40750
X17750Y41250
X18600Y43250
X18100Y43500
X17250Y43750
X17250Y44250
X17250Y44750
X17000Y45435
X17000Y46500
X19000Y45750
X20000Y45000
X20500Y45250
X20950Y45250
X21350Y45250
X21750Y45250
X22500Y45600
X22500Y46000
X22500Y46500
X23750Y46900
X24500Y46500
X24500Y46000
X24500Y45600
X24000Y45000
X23950Y44300
X23550Y43850
X23350Y44200
X24750Y44250
X24850Y43700
X23350Y43200
X21400Y43150
X20900Y44000
X20250Y44250
X19000Y44250
X19000Y44750
X19000Y43750
X20500Y46000
X20500Y46500
X25299Y46700
X25657Y45842
X26500Y46000
X26500Y45600
X26500Y46500
X26875Y46875
X27750Y46750
X28500Y46500
X28500Y46000
X28500Y45600
X29657Y45092
X30500Y45250
X30500Y45750
X29350Y46600
X30625Y47125
X29144Y41750
X27400Y39700
X24000Y39400
X22700Y40200
X22750Y40700
X22700Y41350
X20350Y40000
X21250Y39250
X17000Y38500
X13400Y38500
X13400Y39000
X13400Y38000
X14950Y43150
X12500Y44500
X12000Y45250
X9750Y45500
X8150Y45900
X8000Y46300
X9900Y47800
X14200Y46000
X15000Y48250
X11500Y43250
X25000Y35000
X25100Y35300
X25250Y34000
X25250Y33500
X25250Y33050
X27000Y33050
X27000Y33500
X27000Y34000
X28000Y33500
X28500Y33874
X29500Y33500
X29900Y33500
X30750Y32750
X29500Y34250
X28250Y32750
X50000Y9225
X46250Y15000
X44000Y15750
X37624Y15500
X41500Y21000
X42000Y22250
X43500Y9500
X43500Y10000
X44000Y10500
X44750Y9750
X46250Y11500
X46250Y12000
X46250Y12500
X48750Y14250
X49150Y13100
X49000Y11000
X50250Y11000
X50250Y10500
X50250Y10000
X52250Y10000
X52250Y10500
X52250Y11000
X54050Y11700
X54300Y11550
X54600Y11500
X54850Y11650
X55150Y11650
X55450Y11500
X55750Y11550
X55950Y11800
X56000Y12100
X55850Y12400
X55950Y12700
X55550Y12500
X54950Y11950
X54300Y12550
X54050Y12700
X54000Y13000
X54050Y13300
X53750Y13200
X53450Y13200
X53150Y13200
X52850Y13200
X52550Y13200
X52250Y13300
X52200Y13600
X52200Y13900
X52250Y14200
X52000Y14650
X52300Y15000
X53800Y15150
X53800Y14850
X53800Y14550
X53800Y14250
X53800Y13950
X54250Y13550
X55050Y13600
X55350Y13550
X55650Y13550
X55650Y13850
X55950Y13600
X55950Y13300
X56000Y13000
X55650Y14150
X55650Y14450
X55650Y14750
X55650Y15050
X55650Y15350
X54150Y15400
X53775Y16400
X54300Y16750
X54300Y17250
X54300Y17950
X55250Y17750
X55750Y17750
X56250Y17750
X56250Y18150
X56650Y18500
X57000Y18750
X56600Y19300
X57650Y20300
X56750Y21350
X56000Y20500
X55050Y19650
X54250Y19050
X53000Y19100
X52400Y19100
X52000Y19100
X51000Y19500
X50500Y19500
X49950Y19500
X49500Y19500
X49100Y19500
X49350Y18550
X47750Y18250
X47750Y17750
X47750Y17250
X46750Y17250
X46000Y17000
X46750Y17750
X46750Y18250
X47600Y20250
X47100Y20500
X46250Y20750
X46250Y21250
X46250Y21750
X46000Y22435
X46000Y23500
X48000Y22750
X49000Y22000
X49500Y22250
X49950Y22250
X50350Y22250
X50750Y22250
X51500Y22600
X51500Y23000
X51500Y23500
X52750Y23900
X53500Y23500
X53500Y23000
X53500Y22600
X53000Y22000
X52950Y21300
X52550Y20850
X52350Y21200
X53750Y21250
X53850Y20700
X52350Y20200
X50400Y20150
X49900Y21000
X49250Y21250
X48000Y21250
X48000Y21750
X48000Y20750
X49500Y23000
X49500Y23500
X54299Y23700
X54657Y22842
X55500Y23000
X55500Y22600
X55500Y23500
X55875Y23875
X56750Y23750
X57500Y23500
X57500Y23000
X57500Y22600
X58657Y22092
X59500Y22250
X59500Y22750
X58350Y23600
X59625Y24125
X58144Y18750
X56400Y16700
X53000Y16400
X51700Y17200
X51750Y17700
X51700Y18350
X49350Y17000
X50250Y16250
X46000Y15500
X42400Y15500
X42400Y16000
X42400Y15000
X43950Y20150
X41500Y21500
X41000Y22250
X38750Y22500
X37150Y22900
X37000Y23300
X38900Y24800
X43200Y23000
X44000Y25250
X40500Y20250
X54000Y12000
X54100Y12300
X54250Y11000
X54250Y10500
X54250Y10050
X56000Y10050
X56000Y10500
X56000Y11000
X57000Y10500
X57500Y10874
X58500Y10500
X58900Y10500
X59750Y9750
X58500Y11250
X57250Y9750
X50000Y32225
X46250Y38000
X44000Y38750
X37624Y38500
X41500Y44000
X42000Y45250
X43500Y32500
X43500Y33000
X44000Y33500
X44750Y32750
X46250Y34500
X46250Y35000
X46250Y35500
X48750Y37250
X49150Y36100
X49000Y34000
X50250Y34000
X50250Y33500
X50250Y33000
X52250Y33000
X52250Y33500
X52250Y34000
X54050Y34700
X54300Y34550
X54600Y34500
X54850Y34650
X55150Y34650
X55450Y34500
X55750Y34550
X55950Y34800
X56000Y35100
X55850Y35400
X55950Y35700
X55550Y35500
X54950Y34950
X54300Y35550
X54050Y35700
X54000Y36000
X54050Y36300
X53750Y36200
X53450Y36200
X53150Y36200
X52850Y36200
X52550Y36200
X52250Y36300
X52200Y36600
X52200Y36900
X52250Y37200
X52000Y37650
X52300Y38000
X53800Y38150
X53800Y37850
X53800Y37550
X53800Y37250
X53800Y36950
X54250Y36550
X55050Y36600
X55350Y36550
X55650Y36550
X55650Y36850
X55950Y36600
X55950Y36300
X56000Y36000
X55650Y37150
X55650Y37450
X55650Y37750
X55650Y38050
X55650Y38350
X54150Y38400
X53775Y39400
X54300Y39750
X54300Y40250
X54300Y40950
X55250Y40750
X55750Y40750
X56250Y40750
X56250Y41150
X56650Y41500
X57000Y41750
X56600Y42300
X57650Y43300
X56750Y44350
X56000Y43500
X55050Y42650
X54250Y42050
X53000Y42100
X52400Y42100
X52000Y42100
X51000Y42500
X50500Y42500
X49950Y42500
X49500Y42500
X49100Y42500
X49350Y41550
X47750Y41250
X47750Y40750
X47750Y40250
X46750Y40250
X46000Y40000
X46750Y40750
X46750Y41250
X47600Y43250
X47100Y43500
X46250Y43750
X46250Y44250
X46250Y44750
X46000Y45435
X46000Y46500
X48000Y45750
X49000Y45000
X49500Y45250
X49950Y45250
X50350Y45250
X50750Y45250
X51500Y45600
X51500Y46000
X51500Y46500
X52750Y46900
X53500Y46500
X53500Y46000
X53500Y45600
X53000Y45000
X52950Y44300
X52550Y43850
X52350Y44200
X53750Y44250
X53850Y43700
X52350Y43200
X50400Y43150
X49900Y44000
X49250Y44250
X48000Y44250
X48000Y44750
X48000Y43750
X49500Y46000
X49500Y46500
X54299Y46700
X54657Y45842
X55500Y46000
X55500Y45600
X55500Y46500
X55875Y46875
X56750Y46750
X57500Y46500
X57500Y46000
X57500Y45600
X58657Y45092
X59500Y45250
X59500Y45750
X58350Y46600
X59625Y47125
X58144Y41750
X56400Y39700
X53000Y39400
X51700Y40200
X51750Y40700
X51700Y41350
X49350Y40000
X50250Y39250
X46000Y38500
X42400Y38500
X42400Y39000
X42400Y38000
X43950Y43150
X41500Y44500
X41000Y45250
X38750Y45500
X37150Y45900
X37000Y46300
X38900Y47800
X43200Y46000
X44000Y48250
X40500Y43250
X54000Y35000
X54100Y35300
X54250Y34000
X54250Y33500
X54250Y33050
X56000Y33050
X56000Y33500
X56000Y34000
X57000Y33500
X57500Y33874
X58500Y33500
X58900Y33500
X59750Y32750
X58500Y34250
X57250Y32750
X79000Y9225
X75250Y15000
X73000Y15750
X66624Y15500
X70500Y21000
X71000Y22250
X72500Y9500
X72500Y10000
X73000Y10500
X73750Y9750
X75250Y11500
X75250Y12000
X75250Y12500
X77750Y14250
X78150Y13100
X78000Y11000
X79250Y11000
X79250Y10500
X79250Y10000
X81250Y10000
X81250Y10500
X81250Y11000
X83050Y11700
X83300Y11550
X83600Y11500
X83850Y11650
X84150Y11650
X84450Y11500
X84750Y11550
X84950Y11800
X85000Y12100
X84850Y12400
X84950Y12700
X84550Y12500
X83950Y11950
X83300Y12550
X83050Y12700
X83000Y13000
X83050Y13300
X82750Y13200
X82450Y13200
X82150Y13200
X81850Y13200
X81550Y13200
X81250Y13300
X81200Y13600
X81200Y13900
X81250Y14200
X81000Y14650
X81300Y15000
X82800Y15150
X82800Y14850
X82800Y14550
X82800Y14250
X82800Y13950
X83250Y13550
X84050Y13600
X84350Y13550
X84650Y13550
X84650Y13850
X84950Y13600
X84950Y13300
X85000Y13000
X84650Y14150
X84650Y14450
X84650Y14750
X84650Y15050
X84650Y15350
X83150Y15400
X82775Y16400
X83300Y16750
X83300Y17250
X83300Y17950
X84250Y17750
X84750Y17750
X85250Y17750
X85250Y18150
X85650Y18500
X86000Y18750
X85600Y19300
X86650Y20300
X85750Y21350
X85000Y20500
X84050Y19650
X83250Y19050
X82000Y19100
X81400Y19100
X81000Y19100
X80000Y19500
X79500Y19500
X78950Y19500
X78500Y19500
X78100Y19500
X78350Y18550
X76750Y18250
X76750Y17750
X76750Y17250
X75750Y17250
X75000Y17000
X75750Y17750
X75750Y18250
X76600Y20250
X76100Y20500
X75250Y20750
X75250Y21250
X75250Y21750
X75000Y22435
X75000Y23500
X77000Y22750
X78000Y22000
X78500Y22250
X78950Y22250
X79350Y22250
X79750Y22250
X80500Y22600
X80500Y23000
X80500Y23500
X81750Y23900
X82500Y23500
X82500Y23000
X82500Y22600
X82000Y22000
X81950Y21300
X81550Y20850
X81350Y21200
X82750Y21250
X82850Y20700
X81350Y20200
X79400Y20150
X78900Y21000
X78250Y21250
X77000Y21250
X77000Y21750
X77000Y20750
X78500Y23000
X78500Y23500
X83299Y23700
X83657Y22842
X84500Y23000
X84500Y22600
X84500Y23500
X84875Y23875
X85750Y23750
X86500Y23500
X86500Y23000
X86500Y22600
X87657Y22092
X88500Y22250
X88500Y22750
X87350Y23600
X88625Y24125
X87144Y18750
X85400Y16700
X82000Y16400
X80700Y17200
X80750Y17700
X80700Y18350
X78350Y17000
X79250Y16250
X75000Y15500
X71400Y15500
X71400Y16000
X71400Y15000
X72950Y20150
X70500Y21500
X70000Y22250
X67750Y22500
X66150Y22900
X66000Y23300
X67900Y24800
X72200Y23000
X73000Y25250
X69500Y20250
X83000Y12000
X83100Y12300
X83250Y11000
X83250Y10500
X83250Y10050
X85000Y10050
X85000Y10500
X85000Y11000
X86000Y10500
X86500Y10874
X87500Y10500
X87900Y10500
X88750Y9750
X87500Y11250
X86250Y9750
X79000Y32225
X75250Y38000
X73000Y38750
X66624Y38500
X70500Y44000
X71000Y45250
X72500Y32500
X72500Y33000
X73000Y33500
X73750Y32750
X75250Y34500
X75250Y35000
X75250Y35500
X77750Y37250
X78150Y36100
X78000Y34000
X79250Y34000
X79250Y33500
X79250Y33000
X81250Y33000
X81250Y33500
X81250Y34000
X83050Y34700
X83300Y34550
X83600Y34500
X83850Y34650
X84150Y34650
X84450Y34500
X84750Y34550
X84950Y34800
X85000Y35100
X84850Y35400
X84950Y35700
X84550Y35500
X83950Y34950
X83300Y35550
X83050Y35700
X83000Y36000
X83050Y36300
X82750Y36200
X82450Y36200
X82150Y36200
X81850Y36200
X81550Y36200
X81250Y36300
X81200Y36600
X81200Y36900
X81250Y37200
X81000Y37650
X81300Y38000
X82800Y38150
X82800Y37850
X82800Y37550
X82800Y37250
X82800Y36950
X83250Y36550
X84050Y36600
X84350Y36550
X84650Y36550
X84650Y36850
X84950Y36600
X84950Y36300
X85000Y36000
X84650Y37150
X84650Y37450
X84650Y37750
X84650Y38050
X84650Y38350
X83150Y38400
X82775Y39400
X83300Y39750
X83300Y40250
X83300Y40950
X84250Y40750
X84750Y40750
X85250Y40750
X85250Y41150
X85650Y41500
X86000Y41750
X85600Y42300
X86650Y43300
X85750Y44350
X85000Y43500
X84050Y42650
X83250Y42050
X82000Y42100
X81400Y42100
X81000Y42100
X80000Y42500
X79500Y42500
X78950Y42500
X78500Y42500
X78100Y42500
X78350Y41550
X76750Y41250
X76750Y40750
X76750Y40250
X75750Y40250
X75000Y40000
X75750Y40750
X75750Y41250
X76600Y43250
X76100Y43500
X75250Y43750
X75250Y44250
X75250Y44750
X75000Y45435
X75000Y46500
X77000Y45750
X78000Y45000
X78500Y45250
X78950Y45250
X79350Y45250
X79750Y45250
X80500Y45600
X80500Y46000
X80500Y46500
X81750Y46900
X82500Y46500
X82500Y46000
X82500Y45600
X82000Y45000
X81950Y44300
X81550Y43850
X81350Y44200
X82750Y44250
X82850Y43700
X81350Y43200
X79400Y43150
X78900Y44000
X78250Y44250
X77000Y44250
X77000Y44750
X77000Y43750
X78500Y46000
X78500Y46500
X83299Y46700
X83657Y45842
X84500Y46000
X84500Y45600
X84500Y46500
X84875Y46875
X85750Y46750
X86500Y46500
X86500Y46000
X86500Y45600
X87657Y45092
X88500Y45250
X88500Y45750
X87350Y46600
X88625Y47125
X87144Y41750
X85400Y39700
X82000Y39400
X80700Y40200
X80750Y40700
X80700Y41350
X78350Y40000
X79250Y39250
X75000Y38500
X71400Y38500
X71400Y39000
X71400Y38000
X72950Y43150
X70500Y44500
X70000Y45250
X67750Y45500
X66150Y45900
X66000Y46300
X67900Y47800
X72200Y46000
X73000Y48250
X69500Y43250
X83000Y35000
X83100Y35300
X83250Y34000
X83250Y33500
X83250Y33050
X85000Y33050
X85000Y33500
X85000Y34000
X86000Y33500
X86500Y33874
X87500Y33500
X87900Y33500
X88750Y32750
X87500Y34250
X86250Y32750
T02C0.024000
X15250Y11500
X14000Y10500
X12250Y11750
X15250Y34500
X14000Y33500
X12250Y34750
X44250Y11500
X43000Y10500
X41250Y11750
X44250Y34500
X43000Y33500
X41250Y34750
X73250Y11500
X72000Y10500
X70250Y11750
X73250Y34500
X72000Y33500
X70250Y34750
T03C0.034000
X28356Y17112
X29144Y17112
X29144Y16324
X29144Y15537
X28356Y15537
X28356Y16324
X28356Y14750
X29144Y14750
X29144Y13962
X28356Y13962
X28356Y13175
X28356Y12387
X29144Y12387
X29144Y13175
X26500Y13000
X26000Y12500
X25500Y12000
X26500Y12000
X25500Y13000
X14700Y8340
X14700Y7159
X8000Y22383
X8000Y24116
X31500Y14750
X32500Y14750
X28356Y40112
X29144Y40112
X29144Y39324
X29144Y38537
X28356Y38537
X28356Y39324
X28356Y37750
X29144Y37750
X29144Y36962
X28356Y36962
X28356Y36175
X28356Y35387
X29144Y35387
X29144Y36175
X26500Y36000
X26000Y35500
X25500Y35000
X26500Y35000
X25500Y36000
X14700Y31340
X14700Y30159
X8000Y45383
X8000Y47116
X31500Y37750
X32500Y37750
X57356Y17112
X58144Y17112
X58144Y16324
X58144Y15537
X57356Y15537
X57356Y16324
X57356Y14750
X58144Y14750
X58144Y13962
X57356Y13962
X57356Y13175
X57356Y12387
X58144Y12387
X58144Y13175
X55500Y13000
X55000Y12500
X54500Y12000
X55500Y12000
X54500Y13000
X43700Y8340
X43700Y7159
X37000Y22383
X37000Y24116
X60500Y14750
X61500Y14750
X57356Y40112
X58144Y40112
X58144Y39324
X58144Y38537
X57356Y38537
X57356Y39324
X57356Y37750
X58144Y37750
X58144Y36962
X57356Y36962
X57356Y36175
X57356Y35387
X58144Y35387
X58144Y36175
X55500Y36000
X55000Y35500
X54500Y35000
X55500Y35000
X54500Y36000
X43700Y31340
X43700Y30159
X37000Y45383
X37000Y47116
X60500Y37750
X61500Y37750
X86356Y17112
X87144Y17112
X87144Y16324
X87144Y15537
X86356Y15537
X86356Y16324
X86356Y14750
X87144Y14750
X87144Y13962
X86356Y13962
X86356Y13175
X86356Y12387
X87144Y12387
X87144Y13175
X84500Y13000
X84000Y12500
X83500Y12000
X84500Y12000
X83500Y13000
X72700Y8340
X72700Y7159
X66000Y22383
X66000Y24116
X89500Y14750
X90500Y14750
X86356Y40112
X87144Y40112
X87144Y39324
X87144Y38537
X86356Y38537
X86356Y39324
X86356Y37750
X87144Y37750
X87144Y36962
X86356Y36962
X86356Y36175
X86356Y35387
X87144Y35387
X87144Y36175
X84500Y36000
X84000Y35500
X83500Y35000
X84500Y35000
X83500Y36000
X72700Y31340
X72700Y30159
X66000Y45383
X66000Y47116
X89500Y37750
X90500Y37750
T04C0.040000
X31055Y15980
X31055Y16980
X32055Y16980
X32055Y15980
X32055Y17980
X31055Y17980
X31000Y26000
X30000Y26000
X29000Y26000
X28000Y26000
X27000Y26000
X26000Y26000
X25000Y26000
X24000Y26000
X22400Y26000
X21400Y26000
X20400Y26000
X19400Y26000
X18400Y26000
X17400Y26000
X16400Y26000
X15400Y26000
X14400Y26000
X13400Y26000
X17400Y24750
X18400Y24750
X19400Y24750
X13500Y19500
X12500Y19500
X17000Y7000
X18000Y7000
X19000Y7000
X20000Y7000
X21000Y7000
X22000Y7000
X23000Y7000
X24000Y7000
X26000Y7000
X27000Y7000
X28000Y7000
X29000Y7000
X30000Y7000
X31000Y7000
X31055Y38980
X31055Y39980
X32055Y39980
X32055Y38980
X32055Y40980
X31055Y40980
X31000Y49000
X30000Y49000
X29000Y49000
X28000Y49000
X27000Y49000
X26000Y49000
X25000Y49000
X24000Y49000
X22400Y49000
X21400Y49000
X20400Y49000
X19400Y49000
X18400Y49000
X17400Y49000
X16400Y49000
X15400Y49000
X14400Y49000
X13400Y49000
X17400Y47750
X18400Y47750
X19400Y47750
X13500Y42500
X12500Y42500
X17000Y30000
X18000Y30000
X19000Y30000
X20000Y30000
X21000Y30000
X22000Y30000
X23000Y30000
X24000Y30000
X26000Y30000
X27000Y30000
X28000Y30000
X29000Y30000
X30000Y30000
X31000Y30000
X60055Y15980
X60055Y16980
X61055Y16980
X61055Y15980
X61055Y17980
X60055Y17980
X60000Y26000
X59000Y26000
X58000Y26000
X57000Y26000
X56000Y26000
X55000Y26000
X54000Y26000
X53000Y26000
X51400Y26000
X50400Y26000
X49400Y26000
X48400Y26000
X47400Y26000
X46400Y26000
X45400Y26000
X44400Y26000
X43400Y26000
X42400Y26000
X46400Y24750
X47400Y24750
X48400Y24750
X42500Y19500
X41500Y19500
X46000Y7000
X47000Y7000
X48000Y7000
X49000Y7000
X50000Y7000
X51000Y7000
X52000Y7000
X53000Y7000
X55000Y7000
X56000Y7000
X57000Y7000
X58000Y7000
X59000Y7000
X60000Y7000
X60055Y38980
X60055Y39980
X61055Y39980
X61055Y38980
X61055Y40980
X60055Y40980
X60000Y49000
X59000Y49000
X58000Y49000
X57000Y49000
X56000Y49000
X55000Y49000
X54000Y49000
X53000Y49000
X51400Y49000
X50400Y49000
X49400Y49000
X48400Y49000
X47400Y49000
X46400Y49000
X45400Y49000
X44400Y49000
X43400Y49000
X42400Y49000
X46400Y47750
X47400Y47750
X48400Y47750
X42500Y42500
X41500Y42500
X46000Y30000
X47000Y30000
X48000Y30000
X49000Y30000
X50000Y30000
X51000Y30000
X52000Y30000
X53000Y30000
X55000Y30000
X56000Y30000
X57000Y30000
X58000Y30000
X59000Y30000
X60000Y30000
X89055Y15980
X89055Y16980
X90055Y16980
X90055Y15980
X90055Y17980
X89055Y17980
X89000Y26000
X88000Y26000
X87000Y26000
X86000Y26000
X85000Y26000
X84000Y26000
X83000Y26000
X82000Y26000
X80400Y26000
X79400Y26000
X78400Y26000
X77400Y26000
X76400Y26000
X75400Y26000
X74400Y26000
X73400Y26000
X72400Y26000
X71400Y26000
X75400Y24750
X76400Y24750
X77400Y24750
X71500Y19500
X70500Y19500
X75000Y7000
X76000Y7000
X77000Y7000
X78000Y7000
X79000Y7000
X80000Y7000
X81000Y7000
X82000Y7000
X84000Y7000
X85000Y7000
X86000Y7000
X87000Y7000
X88000Y7000
X89000Y7000
X89055Y38980
X89055Y39980
X90055Y39980
X90055Y38980
X90055Y40980
X89055Y40980
X89000Y49000
X88000Y49000
X87000Y49000
X86000Y49000
X85000Y49000
X84000Y49000
X83000Y49000
X82000Y49000
X80400Y49000
X79400Y49000
X78400Y49000
X77400Y49000
X76400Y49000
X75400Y49000
X74400Y49000
X73400Y49000
X72400Y49000
X71400Y49000
X75400Y47750
X76400Y47750
X77400Y47750
X71500Y42500
X70500Y42500
X75000Y30000
X76000Y30000
X77000Y30000
X78000Y30000
X79000Y30000
X80000Y30000
X81000Y30000
X82000Y30000
X84000Y30000
X85000Y30000
X86000Y30000
X87000Y30000
X88000Y30000
X89000Y30000
T05C0.063000
X6719Y9000
X6719Y32000
X35719Y9000
X35719Y32000
X64719Y9000
X64719Y32000
T06C0.070900
X8490Y9000
X8490Y32000
X37490Y9000
X37490Y32000
X66490Y9000
X66490Y32000
T07C0.110200
X3500Y3500
X92500Y3500
X3500Y52500
X92500Y52500
T08C0.126000
X11500Y7000
X32000Y9000
X32000Y20000
X12000Y26000
X11500Y30000
X32000Y32000
X32000Y43000
X12000Y49000
X40500Y7000
X61000Y9000
X61000Y20000
X41000Y26000
X40500Y30000
X61000Y32000
X61000Y43000
X41000Y49000
X69500Y7000
X90000Y9000
X90000Y20000
X70000Y26000
X69500Y30000
X90000Y32000
X90000Y43000
X70000Y49000
M30
