G75*
G70*
%OFA0B0*%
%FSLAX25Y25*%
%IPPOS*%
%LPD*%
%AMOC8*
5,1,8,0,0,1.08239X$1,22.5*
%
%ADD108R,0.05800X0.02050*%
%ADD111C,0.07890*%
%ADD112R,0.04740X0.05130*%
%ADD115R,0.10640X0.02770*%
%ADD116R,0.19500X0.23040*%
%ADD118C,0.06800*%
%ADD122R,0.04740X0.02180*%
%ADD125R,0.05520X0.14580*%
%ADD127R,0.02770X0.04340*%
%ADD129C,0.04340*%
%ADD13R,0.02970X0.05520*%
%ADD131R,0.10640X0.08670*%
%ADD134R,0.07100X0.07890*%
%ADD140R,0.03560X0.01780*%
%ADD143R,0.08280X0.14190*%
%ADD144R,0.06860X0.06860*%
%ADD146C,0.07100*%
%ADD150R,0.07200X0.07200*%
%ADD166C,0.11820*%
%ADD167R,0.07890X0.04740*%
%ADD17C,0.02000*%
%ADD172R,0.11820X0.10250*%
%ADD174R,0.18910X0.04740*%
%ADD181R,0.03300X0.05800*%
%ADD182R,0.03950X0.02970*%
%ADD185R,0.06800X0.06800*%
%ADD187C,0.06400*%
%ADD193R,0.05520X0.04740*%
%ADD200C,0.13400*%
%ADD201R,0.09460X0.14970*%
%ADD209R,0.13685X0.07100*%
%ADD30C,0.08120*%
%ADD33R,0.05130X0.04740*%
%ADD39OC8,0.07200*%
%ADD49R,0.09600X0.05600*%
%ADD61R,0.14190X0.07100*%
%ADD63R,0.03520X0.04700*%
%ADD70R,0.01780X0.03560*%
%ADD72R,0.10250X0.10250*%
%ADD78R,0.07890X0.07100*%
%ADD86R,0.03950X0.03950*%
%ADD99C,0.06740*%
X0010000Y0010000D02*
G75*
%LPD*%
D166*
X0035000Y0035000D03*
X0925000Y0035000D03*
D17*
X0899000Y0035000D02*
X0899020Y0035200D01*
X0899080Y0035380D01*
X0899170Y0035560D01*
X0899290Y0035710D01*
X0899440Y0035830D01*
X0899620Y0035920D01*
X0899800Y0035980D01*
X0900000Y0036000D01*
X0900200Y0035980D01*
X0900380Y0035920D01*
X0900560Y0035830D01*
X0900710Y0035710D01*
X0900830Y0035560D01*
X0900920Y0035380D01*
X0900980Y0035200D01*
X0901000Y0035000D01*
X0900980Y0034800D01*
X0900920Y0034620D01*
X0900830Y0034440D01*
X0900710Y0034290D01*
X0900560Y0034170D01*
X0900380Y0034080D01*
X0900200Y0034020D01*
X0900000Y0034000D01*
X0899800Y0034020D01*
X0899620Y0034080D01*
X0899440Y0034170D01*
X0899290Y0034290D01*
X0899170Y0034440D01*
X0899080Y0034620D01*
X0899020Y0034800D01*
X0899000Y0035000D01*
X0059000Y0035000D02*
X0059020Y0035200D01*
X0059080Y0035380D01*
X0059170Y0035560D01*
X0059290Y0035710D01*
X0059440Y0035830D01*
X0059620Y0035920D01*
X0059800Y0035980D01*
X0060000Y0036000D01*
X0060200Y0035980D01*
X0060380Y0035920D01*
X0060560Y0035830D01*
X0060710Y0035710D01*
X0060830Y0035560D01*
X0060920Y0035380D01*
X0060980Y0035200D01*
X0061000Y0035000D01*
X0060980Y0034800D01*
X0060920Y0034620D01*
X0060830Y0034440D01*
X0060710Y0034290D01*
X0060560Y0034170D01*
X0060380Y0034080D01*
X0060200Y0034020D01*
X0060000Y0034000D01*
X0059800Y0034020D01*
X0059620Y0034080D01*
X0059440Y0034170D01*
X0059290Y0034290D01*
X0059170Y0034440D01*
X0059080Y0034620D01*
X0059020Y0034800D01*
X0059000Y0035000D01*
X0010000Y0060000D02*
G75*
%LPD*%
X0060000Y0060000D02*
G75*
%LPD*%
D200*
X0115000Y0070000D03*
X0320000Y0090000D03*
X0320000Y0200000D03*
X0120000Y0260000D03*
D39*
X0134000Y0260000D03*
X0144000Y0260000D03*
X0154000Y0260000D03*
X0164000Y0260000D03*
X0174000Y0260000D03*
X0184000Y0260000D03*
X0194000Y0260000D03*
X0204000Y0260000D03*
X0214000Y0260000D03*
X0194000Y0247500D03*
X0184000Y0247500D03*
X0240000Y0260000D03*
X0250000Y0260000D03*
X0260000Y0260000D03*
X0270000Y0260000D03*
X0280000Y0260000D03*
X0290000Y0260000D03*
X0300000Y0260000D03*
X0310550Y0179800D03*
X0320550Y0179800D03*
X0320550Y0169800D03*
X0310550Y0169800D03*
X0310550Y0159800D03*
X0320550Y0159800D03*
X0310000Y0070000D03*
X0300000Y0070000D03*
X0290000Y0070000D03*
X0280000Y0070000D03*
X0270000Y0070000D03*
X0240000Y0070000D03*
X0230000Y0070000D03*
X0220000Y0070000D03*
X0210000Y0070000D03*
X0200000Y0070000D03*
X0190000Y0070000D03*
X0180000Y0070000D03*
X0125000Y0195000D03*
D33*
X0105850Y0195000D03*
X0099150Y0195000D03*
X0099150Y0240000D03*
X0105850Y0240000D03*
X0208650Y0182500D03*
X0215350Y0182500D03*
X0215350Y0172500D03*
X0215350Y0167500D03*
X0208650Y0167500D03*
X0208650Y0172500D03*
X0207500Y0145840D03*
X0207500Y0139150D03*
X0264150Y0172500D03*
X0270850Y0172500D03*
X0282500Y0206650D03*
X0282500Y0213340D03*
X0290000Y0213340D03*
X0290000Y0206650D03*
D112*
X0227500Y0203650D03*
X0227500Y0210340D03*
X0182500Y0188340D03*
X0182500Y0181650D03*
X0182500Y0173340D03*
X0182500Y0166650D03*
X0163350Y0157500D03*
X0156650Y0157500D03*
X0156650Y0150000D03*
X0163350Y0150000D03*
X0207500Y0151650D03*
X0207500Y0158340D03*
X0237500Y0152840D03*
X0242500Y0152840D03*
X0242500Y0146150D03*
X0237500Y0146150D03*
X0178350Y0105000D03*
X0171650Y0105000D03*
X0073350Y0167500D03*
X0066650Y0167500D03*
X0066650Y0182500D03*
X0073350Y0182500D03*
X0100000Y0211650D03*
X0105000Y0211650D03*
X0105000Y0218340D03*
X0100000Y0218340D03*
X0099150Y0230000D03*
X0099150Y0235000D03*
X0105850Y0235000D03*
X0105850Y0230000D03*
X0302500Y0130840D03*
X0302500Y0124150D03*
X0310000Y0124150D03*
X0310000Y0130840D03*
D150*
X0260000Y0070000D03*
X0170000Y0070000D03*
X0135000Y0195000D03*
X0174000Y0247500D03*
X0224000Y0260000D03*
X0310000Y0260000D03*
D78*
X0140000Y0170510D03*
X0140000Y0159480D03*
X0140000Y0150510D03*
X0140000Y0139480D03*
X0095000Y0174480D03*
X0095000Y0185510D03*
D86*
X0072950Y0175000D03*
X0067050Y0175000D03*
X0150000Y0214540D03*
X0155000Y0214540D03*
X0160000Y0214540D03*
X0160000Y0220450D03*
X0155000Y0220450D03*
X0150000Y0220450D03*
X0282500Y0200450D03*
X0282500Y0194540D03*
X0290000Y0194540D03*
X0290000Y0200450D03*
X0190450Y0105000D03*
X0184550Y0105000D03*
D72*
X0121160Y0127500D03*
X0103840Y0127500D03*
X0117500Y0106160D03*
X0117500Y0088830D03*
X0160000Y0168830D03*
X0160000Y0186160D03*
D49*
X0127200Y0169090D03*
X0127200Y0160000D03*
X0127200Y0150900D03*
X0140300Y0129090D03*
X0140300Y0120000D03*
X0140300Y0110900D03*
D201*
X0164700Y0120000D03*
X0102800Y0160000D03*
D134*
X0139490Y0097500D03*
X0150510Y0097500D03*
D70*
X0225240Y0160170D03*
X0227200Y0160170D03*
X0229170Y0160170D03*
X0231140Y0160170D03*
X0233110Y0160170D03*
X0235080Y0160170D03*
X0237050Y0160170D03*
X0239020Y0160170D03*
X0240980Y0160170D03*
X0242950Y0160170D03*
X0244920Y0160170D03*
X0246890Y0160170D03*
X0248860Y0160170D03*
X0250830Y0160170D03*
X0252800Y0160170D03*
X0254760Y0160170D03*
X0254760Y0194820D03*
X0252800Y0194820D03*
X0250830Y0194820D03*
X0248860Y0194820D03*
X0246890Y0194820D03*
X0244920Y0194820D03*
X0242950Y0194820D03*
X0240980Y0194820D03*
X0239020Y0194820D03*
X0237050Y0194820D03*
X0235080Y0194820D03*
X0233110Y0194820D03*
X0231140Y0194820D03*
X0229170Y0194820D03*
X0227200Y0194820D03*
X0225240Y0194820D03*
D140*
X0222680Y0192260D03*
X0222680Y0190290D03*
X0222680Y0188320D03*
X0222680Y0186350D03*
X0222680Y0184390D03*
X0222680Y0182420D03*
X0222680Y0180450D03*
X0222680Y0178480D03*
X0222680Y0176510D03*
X0222680Y0174540D03*
X0222680Y0172570D03*
X0222680Y0170610D03*
X0222680Y0168640D03*
X0222680Y0166670D03*
X0222680Y0164700D03*
X0222680Y0162730D03*
X0257320Y0162730D03*
X0257320Y0164700D03*
X0257320Y0166670D03*
X0257320Y0168640D03*
X0257320Y0170610D03*
X0257320Y0172570D03*
X0257320Y0174540D03*
X0257320Y0176510D03*
X0257320Y0178480D03*
X0257320Y0180450D03*
X0257320Y0182420D03*
X0257320Y0184390D03*
X0257320Y0186350D03*
X0257320Y0188320D03*
X0257320Y0190290D03*
X0257320Y0192260D03*
D116*
X0240000Y0177500D03*
D122*
X0236460Y0140050D03*
X0236460Y0137500D03*
X0236460Y0134940D03*
X0243540Y0134940D03*
X0243540Y0137500D03*
X0243540Y0140050D03*
D99*
X0255000Y0130000D03*
X0260000Y0125000D03*
X0255000Y0120000D03*
X0265000Y0120000D03*
X0265000Y0130000D03*
X0080000Y0223830D03*
X0080000Y0241160D03*
D131*
X0089840Y0250210D03*
X0068190Y0250210D03*
X0068190Y0214780D03*
X0089840Y0215170D03*
D115*
X0089840Y0226200D03*
X0089840Y0229350D03*
X0089840Y0232500D03*
X0089840Y0235650D03*
X0089840Y0238800D03*
D182*
X0167780Y0216240D03*
X0167780Y0212500D03*
X0167780Y0208760D03*
X0177220Y0208760D03*
X0177220Y0212500D03*
X0177220Y0216240D03*
X0185280Y0216240D03*
X0185280Y0212500D03*
X0185280Y0208760D03*
X0194720Y0208760D03*
X0194720Y0212500D03*
X0194720Y0216240D03*
X0200280Y0226260D03*
X0200280Y0230000D03*
X0200280Y0233740D03*
X0209720Y0233740D03*
X0209720Y0230000D03*
X0209720Y0226260D03*
X0220280Y0226260D03*
X0220280Y0230000D03*
X0220280Y0233740D03*
X0229720Y0233740D03*
X0229720Y0230000D03*
X0229720Y0226260D03*
X0240280Y0226260D03*
X0240280Y0230000D03*
X0240280Y0233740D03*
X0249720Y0233740D03*
X0249720Y0230000D03*
X0249720Y0226260D03*
X0260280Y0226260D03*
X0260280Y0230000D03*
X0260280Y0233740D03*
X0269720Y0233740D03*
X0269720Y0230000D03*
X0269720Y0226260D03*
X0280280Y0226260D03*
X0280280Y0230000D03*
X0280280Y0233740D03*
X0289720Y0233740D03*
X0289720Y0230000D03*
X0289720Y0226260D03*
X0300280Y0226240D03*
X0300280Y0222500D03*
X0300280Y0218760D03*
X0309720Y0218760D03*
X0309720Y0222500D03*
X0309720Y0226240D03*
X0274720Y0108740D03*
X0274720Y0105000D03*
X0274720Y0101260D03*
X0265280Y0101260D03*
X0265280Y0105000D03*
X0265280Y0108740D03*
X0257220Y0108740D03*
X0257220Y0105000D03*
X0257220Y0101260D03*
X0247780Y0101260D03*
X0247780Y0105000D03*
X0247780Y0108740D03*
X0237220Y0108740D03*
X0237220Y0105000D03*
X0237220Y0101260D03*
X0227780Y0101260D03*
X0227780Y0105000D03*
X0227780Y0108740D03*
X0217220Y0108740D03*
X0217220Y0105000D03*
X0217220Y0101260D03*
X0207780Y0101260D03*
X0207780Y0105000D03*
X0207780Y0108740D03*
D63*
X0201240Y0137380D03*
X0193760Y0137380D03*
X0193760Y0147570D03*
X0197500Y0147570D03*
X0201240Y0147570D03*
D127*
X0245280Y0090650D03*
X0248430Y0090650D03*
X0251570Y0090650D03*
X0254720Y0090650D03*
X0254720Y0084350D03*
X0251570Y0084350D03*
X0248430Y0084350D03*
X0245280Y0084350D03*
X0292780Y0094350D03*
X0295930Y0094350D03*
X0299070Y0094350D03*
X0302220Y0094350D03*
X0302220Y0100650D03*
X0299070Y0100650D03*
X0295930Y0100650D03*
X0292780Y0100650D03*
X0184720Y0224350D03*
X0181570Y0224350D03*
X0178430Y0224350D03*
X0175280Y0224350D03*
X0175280Y0230650D03*
X0178430Y0230650D03*
X0181570Y0230650D03*
X0184720Y0230650D03*
X0210280Y0241850D03*
X0213430Y0241850D03*
X0216570Y0241850D03*
X0219720Y0241850D03*
X0219720Y0248150D03*
X0216570Y0248150D03*
X0213430Y0248150D03*
X0210280Y0248150D03*
X0250280Y0248150D03*
X0253430Y0248150D03*
X0256570Y0248150D03*
X0259720Y0248150D03*
X0259720Y0241850D03*
X0256570Y0241850D03*
X0253430Y0241850D03*
X0250280Y0241850D03*
X0290280Y0241850D03*
X0293430Y0241850D03*
X0296570Y0241850D03*
X0299720Y0241850D03*
X0299720Y0248150D03*
X0296570Y0248150D03*
X0293430Y0248150D03*
X0290280Y0248150D03*
X0159720Y0233150D03*
X0156570Y0233150D03*
X0153430Y0233150D03*
X0150280Y0233150D03*
X0150280Y0226850D03*
X0153430Y0226850D03*
X0156570Y0226850D03*
X0159720Y0226850D03*
D143*
X0085180Y0197500D03*
X0069820Y0197500D03*
D172*
X0067190Y0067550D03*
X0091200Y0067550D03*
X0091200Y0112440D03*
X0067190Y0112440D03*
D146*
X0067190Y0090000D03*
D111*
X0084900Y0090000D03*
D125*
X0195000Y0166670D03*
X0195000Y0188320D03*
D185*
X0283560Y0171120D03*
D118*
X0291440Y0171120D03*
X0291440Y0163240D03*
X0291440Y0155370D03*
X0283560Y0155370D03*
X0283560Y0163240D03*
X0283560Y0147500D03*
X0291440Y0147500D03*
X0291440Y0139620D03*
X0283560Y0139620D03*
X0283560Y0131750D03*
X0283560Y0123870D03*
X0291440Y0123870D03*
X0291440Y0131750D03*
D108*
X0137000Y0211250D03*
X0137000Y0213750D03*
X0137000Y0216250D03*
X0137000Y0218750D03*
X0137000Y0221250D03*
X0137000Y0223750D03*
X0137000Y0226250D03*
X0137000Y0228750D03*
X0137000Y0231250D03*
X0137000Y0233750D03*
X0113000Y0233750D03*
X0113000Y0231250D03*
X0113000Y0228750D03*
X0113000Y0226250D03*
X0113000Y0223750D03*
X0113000Y0221250D03*
X0113000Y0218750D03*
X0113000Y0216250D03*
X0113000Y0213750D03*
X0113000Y0211250D03*
D193*
X0106830Y0202500D03*
X0098170Y0202500D03*
D144*
X0253680Y0148810D03*
X0261320Y0148810D03*
X0261320Y0141180D03*
X0253680Y0141180D03*
D174*
X0087070Y0143930D03*
X0087070Y0136060D03*
D61*
D209*
X0066843Y0126610D03*
D61*
D209*
X0066843Y0153380D03*
D61*
D13*
X0078760Y0164880D03*
X0082500Y0164880D03*
X0086240Y0164880D03*
X0086240Y0175110D03*
X0078760Y0175110D03*
D129*
X0147000Y0083400D03*
X0147000Y0071590D03*
D167*
X0138540Y0070800D03*
X0138540Y0084190D03*
X0155460Y0084190D03*
X0155460Y0070800D03*
D30*
X0306500Y0110500D03*
X0172500Y0198000D03*
D187*
X0315000Y0147500D03*
X0325000Y0147500D03*
D181*
X0167000Y0102500D03*
X0163000Y0102500D03*
X0060000Y0270000D02*
G75*
%LPD*%
X0060000Y0290000D02*
G75*
%LPD*%
D200*
X0115000Y0300000D03*
X0320000Y0320000D03*
X0320000Y0430000D03*
X0120000Y0490000D03*
D39*
X0134000Y0490000D03*
X0144000Y0490000D03*
X0154000Y0490000D03*
X0164000Y0490000D03*
X0174000Y0490000D03*
X0184000Y0490000D03*
X0194000Y0490000D03*
X0204000Y0490000D03*
X0214000Y0490000D03*
X0194000Y0477500D03*
X0184000Y0477500D03*
X0240000Y0490000D03*
X0250000Y0490000D03*
X0260000Y0490000D03*
X0270000Y0490000D03*
X0280000Y0490000D03*
X0290000Y0490000D03*
X0300000Y0490000D03*
X0310550Y0409800D03*
X0320550Y0409800D03*
X0320550Y0399800D03*
X0310550Y0399800D03*
X0310550Y0389800D03*
X0320550Y0389800D03*
X0310000Y0300000D03*
X0300000Y0300000D03*
X0290000Y0300000D03*
X0280000Y0300000D03*
X0270000Y0300000D03*
X0240000Y0300000D03*
X0230000Y0300000D03*
X0220000Y0300000D03*
X0210000Y0300000D03*
X0200000Y0300000D03*
X0190000Y0300000D03*
X0180000Y0300000D03*
X0125000Y0425000D03*
D33*
X0105850Y0425000D03*
X0099150Y0425000D03*
X0099150Y0470000D03*
X0105850Y0470000D03*
X0208650Y0412500D03*
X0215350Y0412500D03*
X0215350Y0402500D03*
X0215350Y0397500D03*
X0208650Y0397500D03*
X0208650Y0402500D03*
X0207500Y0375840D03*
X0207500Y0369150D03*
X0264150Y0402500D03*
X0270850Y0402500D03*
X0282500Y0436650D03*
X0282500Y0443340D03*
X0290000Y0443340D03*
X0290000Y0436650D03*
D112*
X0227500Y0433650D03*
X0227500Y0440340D03*
X0182500Y0418340D03*
X0182500Y0411650D03*
X0182500Y0403340D03*
X0182500Y0396650D03*
X0163350Y0387500D03*
X0156650Y0387500D03*
X0156650Y0380000D03*
X0163350Y0380000D03*
X0207500Y0381650D03*
X0207500Y0388340D03*
X0237500Y0382840D03*
X0242500Y0382840D03*
X0242500Y0376150D03*
X0237500Y0376150D03*
X0178350Y0335000D03*
X0171650Y0335000D03*
X0073350Y0397500D03*
X0066650Y0397500D03*
X0066650Y0412500D03*
X0073350Y0412500D03*
X0100000Y0441650D03*
X0105000Y0441650D03*
X0105000Y0448340D03*
X0100000Y0448340D03*
X0099150Y0460000D03*
X0099150Y0465000D03*
X0105850Y0465000D03*
X0105850Y0460000D03*
X0302500Y0360840D03*
X0302500Y0354150D03*
X0310000Y0354150D03*
X0310000Y0360840D03*
D150*
X0260000Y0300000D03*
X0170000Y0300000D03*
X0135000Y0425000D03*
X0174000Y0477500D03*
X0224000Y0490000D03*
X0310000Y0490000D03*
D78*
X0140000Y0400510D03*
X0140000Y0389480D03*
X0140000Y0380510D03*
X0140000Y0369480D03*
X0095000Y0404480D03*
X0095000Y0415510D03*
D86*
X0072950Y0405000D03*
X0067050Y0405000D03*
X0150000Y0444540D03*
X0155000Y0444540D03*
X0160000Y0444540D03*
X0160000Y0450450D03*
X0155000Y0450450D03*
X0150000Y0450450D03*
X0282500Y0430450D03*
X0282500Y0424540D03*
X0290000Y0424540D03*
X0290000Y0430450D03*
X0190450Y0335000D03*
X0184550Y0335000D03*
D72*
X0121160Y0357500D03*
X0103840Y0357500D03*
X0117500Y0336160D03*
X0117500Y0318830D03*
X0160000Y0398830D03*
X0160000Y0416160D03*
D49*
X0127200Y0399090D03*
X0127200Y0390000D03*
X0127200Y0380900D03*
X0140300Y0359090D03*
X0140300Y0350000D03*
X0140300Y0340900D03*
D201*
X0164700Y0350000D03*
X0102800Y0390000D03*
D134*
X0139490Y0327500D03*
X0150510Y0327500D03*
D70*
X0225240Y0390170D03*
X0227200Y0390170D03*
X0229170Y0390170D03*
X0231140Y0390170D03*
X0233110Y0390170D03*
X0235080Y0390170D03*
X0237050Y0390170D03*
X0239020Y0390170D03*
X0240980Y0390170D03*
X0242950Y0390170D03*
X0244920Y0390170D03*
X0246890Y0390170D03*
X0248860Y0390170D03*
X0250830Y0390170D03*
X0252800Y0390170D03*
X0254760Y0390170D03*
X0254760Y0424820D03*
X0252800Y0424820D03*
X0250830Y0424820D03*
X0248860Y0424820D03*
X0246890Y0424820D03*
X0244920Y0424820D03*
X0242950Y0424820D03*
X0240980Y0424820D03*
X0239020Y0424820D03*
X0237050Y0424820D03*
X0235080Y0424820D03*
X0233110Y0424820D03*
X0231140Y0424820D03*
X0229170Y0424820D03*
X0227200Y0424820D03*
X0225240Y0424820D03*
D140*
X0222680Y0422260D03*
X0222680Y0420290D03*
X0222680Y0418320D03*
X0222680Y0416350D03*
X0222680Y0414390D03*
X0222680Y0412420D03*
X0222680Y0410450D03*
X0222680Y0408480D03*
X0222680Y0406510D03*
X0222680Y0404540D03*
X0222680Y0402570D03*
X0222680Y0400610D03*
X0222680Y0398640D03*
X0222680Y0396670D03*
X0222680Y0394700D03*
X0222680Y0392730D03*
X0257320Y0392730D03*
X0257320Y0394700D03*
X0257320Y0396670D03*
X0257320Y0398640D03*
X0257320Y0400610D03*
X0257320Y0402570D03*
X0257320Y0404540D03*
X0257320Y0406510D03*
X0257320Y0408480D03*
X0257320Y0410450D03*
X0257320Y0412420D03*
X0257320Y0414390D03*
X0257320Y0416350D03*
X0257320Y0418320D03*
X0257320Y0420290D03*
X0257320Y0422260D03*
D116*
X0240000Y0407500D03*
D122*
X0236460Y0370050D03*
X0236460Y0367500D03*
X0236460Y0364940D03*
X0243540Y0364940D03*
X0243540Y0367500D03*
X0243540Y0370050D03*
D99*
X0255000Y0360000D03*
X0260000Y0355000D03*
X0255000Y0350000D03*
X0265000Y0350000D03*
X0265000Y0360000D03*
X0080000Y0453830D03*
X0080000Y0471160D03*
D131*
X0089840Y0480210D03*
X0068190Y0480210D03*
X0068190Y0444780D03*
X0089840Y0445170D03*
D115*
X0089840Y0456200D03*
X0089840Y0459350D03*
X0089840Y0462500D03*
X0089840Y0465650D03*
X0089840Y0468800D03*
D182*
X0167780Y0446240D03*
X0167780Y0442500D03*
X0167780Y0438760D03*
X0177220Y0438760D03*
X0177220Y0442500D03*
X0177220Y0446240D03*
X0185280Y0446240D03*
X0185280Y0442500D03*
X0185280Y0438760D03*
X0194720Y0438760D03*
X0194720Y0442500D03*
X0194720Y0446240D03*
X0200280Y0456260D03*
X0200280Y0460000D03*
X0200280Y0463740D03*
X0209720Y0463740D03*
X0209720Y0460000D03*
X0209720Y0456260D03*
X0220280Y0456260D03*
X0220280Y0460000D03*
X0220280Y0463740D03*
X0229720Y0463740D03*
X0229720Y0460000D03*
X0229720Y0456260D03*
X0240280Y0456260D03*
X0240280Y0460000D03*
X0240280Y0463740D03*
X0249720Y0463740D03*
X0249720Y0460000D03*
X0249720Y0456260D03*
X0260280Y0456260D03*
X0260280Y0460000D03*
X0260280Y0463740D03*
X0269720Y0463740D03*
X0269720Y0460000D03*
X0269720Y0456260D03*
X0280280Y0456260D03*
X0280280Y0460000D03*
X0280280Y0463740D03*
X0289720Y0463740D03*
X0289720Y0460000D03*
X0289720Y0456260D03*
X0300280Y0456240D03*
X0300280Y0452500D03*
X0300280Y0448760D03*
X0309720Y0448760D03*
X0309720Y0452500D03*
X0309720Y0456240D03*
X0274720Y0338740D03*
X0274720Y0335000D03*
X0274720Y0331260D03*
X0265280Y0331260D03*
X0265280Y0335000D03*
X0265280Y0338740D03*
X0257220Y0338740D03*
X0257220Y0335000D03*
X0257220Y0331260D03*
X0247780Y0331260D03*
X0247780Y0335000D03*
X0247780Y0338740D03*
X0237220Y0338740D03*
X0237220Y0335000D03*
X0237220Y0331260D03*
X0227780Y0331260D03*
X0227780Y0335000D03*
X0227780Y0338740D03*
X0217220Y0338740D03*
X0217220Y0335000D03*
X0217220Y0331260D03*
X0207780Y0331260D03*
X0207780Y0335000D03*
X0207780Y0338740D03*
D63*
X0201240Y0367380D03*
X0193760Y0367380D03*
X0193760Y0377570D03*
X0197500Y0377570D03*
X0201240Y0377570D03*
D127*
X0245280Y0320650D03*
X0248430Y0320650D03*
X0251570Y0320650D03*
X0254720Y0320650D03*
X0254720Y0314350D03*
X0251570Y0314350D03*
X0248430Y0314350D03*
X0245280Y0314350D03*
X0292780Y0324350D03*
X0295930Y0324350D03*
X0299070Y0324350D03*
X0302220Y0324350D03*
X0302220Y0330650D03*
X0299070Y0330650D03*
X0295930Y0330650D03*
X0292780Y0330650D03*
X0184720Y0454350D03*
X0181570Y0454350D03*
X0178430Y0454350D03*
X0175280Y0454350D03*
X0175280Y0460650D03*
X0178430Y0460650D03*
X0181570Y0460650D03*
X0184720Y0460650D03*
X0210280Y0471850D03*
X0213430Y0471850D03*
X0216570Y0471850D03*
X0219720Y0471850D03*
X0219720Y0478150D03*
X0216570Y0478150D03*
X0213430Y0478150D03*
X0210280Y0478150D03*
X0250280Y0478150D03*
X0253430Y0478150D03*
X0256570Y0478150D03*
X0259720Y0478150D03*
X0259720Y0471850D03*
X0256570Y0471850D03*
X0253430Y0471850D03*
X0250280Y0471850D03*
X0290280Y0471850D03*
X0293430Y0471850D03*
X0296570Y0471850D03*
X0299720Y0471850D03*
X0299720Y0478150D03*
X0296570Y0478150D03*
X0293430Y0478150D03*
X0290280Y0478150D03*
X0159720Y0463150D03*
X0156570Y0463150D03*
X0153430Y0463150D03*
X0150280Y0463150D03*
X0150280Y0456850D03*
X0153430Y0456850D03*
X0156570Y0456850D03*
X0159720Y0456850D03*
D143*
X0085180Y0427500D03*
X0069820Y0427500D03*
D172*
X0067190Y0297550D03*
X0091200Y0297550D03*
X0091200Y0342440D03*
X0067190Y0342440D03*
D146*
X0067190Y0320000D03*
D111*
X0084900Y0320000D03*
D125*
X0195000Y0396670D03*
X0195000Y0418320D03*
D185*
X0283560Y0401120D03*
D118*
X0291440Y0401120D03*
X0291440Y0393240D03*
X0291440Y0385370D03*
X0283560Y0385370D03*
X0283560Y0393240D03*
X0283560Y0377500D03*
X0291440Y0377500D03*
X0291440Y0369620D03*
X0283560Y0369620D03*
X0283560Y0361750D03*
X0283560Y0353870D03*
X0291440Y0353870D03*
X0291440Y0361750D03*
D108*
X0137000Y0441250D03*
X0137000Y0443750D03*
X0137000Y0446250D03*
X0137000Y0448750D03*
X0137000Y0451250D03*
X0137000Y0453750D03*
X0137000Y0456250D03*
X0137000Y0458750D03*
X0137000Y0461250D03*
X0137000Y0463750D03*
X0113000Y0463750D03*
X0113000Y0461250D03*
X0113000Y0458750D03*
X0113000Y0456250D03*
X0113000Y0453750D03*
X0113000Y0451250D03*
X0113000Y0448750D03*
X0113000Y0446250D03*
X0113000Y0443750D03*
X0113000Y0441250D03*
D193*
X0106830Y0432500D03*
X0098170Y0432500D03*
D144*
X0253680Y0378810D03*
X0261320Y0378810D03*
X0261320Y0371180D03*
X0253680Y0371180D03*
D174*
X0087070Y0373930D03*
X0087070Y0366060D03*
D61*
D209*
X0066843Y0356610D03*
D61*
D209*
X0066843Y0383380D03*
D61*
D13*
X0078760Y0394880D03*
X0082500Y0394880D03*
X0086240Y0394880D03*
X0086240Y0405110D03*
X0078760Y0405110D03*
D129*
X0147000Y0313400D03*
X0147000Y0301590D03*
D167*
X0138540Y0300800D03*
X0138540Y0314190D03*
X0155460Y0314190D03*
X0155460Y0300800D03*
D30*
X0306500Y0340500D03*
X0172500Y0428000D03*
D187*
X0315000Y0377500D03*
X0325000Y0377500D03*
D181*
X0167000Y0332500D03*
X0163000Y0332500D03*
X0350000Y0060000D02*
G75*
%LPD*%
D200*
X0405000Y0070000D03*
X0610000Y0090000D03*
X0610000Y0200000D03*
X0410000Y0260000D03*
D39*
X0424000Y0260000D03*
X0434000Y0260000D03*
X0444000Y0260000D03*
X0454000Y0260000D03*
X0464000Y0260000D03*
X0474000Y0260000D03*
X0484000Y0260000D03*
X0494000Y0260000D03*
X0504000Y0260000D03*
X0484000Y0247500D03*
X0474000Y0247500D03*
X0530000Y0260000D03*
X0540000Y0260000D03*
X0550000Y0260000D03*
X0560000Y0260000D03*
X0570000Y0260000D03*
X0580000Y0260000D03*
X0590000Y0260000D03*
X0600550Y0179800D03*
X0610550Y0179800D03*
X0610550Y0169800D03*
X0600550Y0169800D03*
X0600550Y0159800D03*
X0610550Y0159800D03*
X0600000Y0070000D03*
X0590000Y0070000D03*
X0580000Y0070000D03*
X0570000Y0070000D03*
X0560000Y0070000D03*
X0530000Y0070000D03*
X0520000Y0070000D03*
X0510000Y0070000D03*
X0500000Y0070000D03*
X0490000Y0070000D03*
X0480000Y0070000D03*
X0470000Y0070000D03*
X0415000Y0195000D03*
D33*
X0395850Y0195000D03*
X0389150Y0195000D03*
X0389150Y0240000D03*
X0395850Y0240000D03*
X0498650Y0182500D03*
X0505350Y0182500D03*
X0505350Y0172500D03*
X0505350Y0167500D03*
X0498650Y0167500D03*
X0498650Y0172500D03*
X0497500Y0145840D03*
X0497500Y0139150D03*
X0554150Y0172500D03*
X0560850Y0172500D03*
X0572500Y0206650D03*
X0572500Y0213340D03*
X0580000Y0213340D03*
X0580000Y0206650D03*
D112*
X0517500Y0203650D03*
X0517500Y0210340D03*
X0472500Y0188340D03*
X0472500Y0181650D03*
X0472500Y0173340D03*
X0472500Y0166650D03*
X0453350Y0157500D03*
X0446650Y0157500D03*
X0446650Y0150000D03*
X0453350Y0150000D03*
X0497500Y0151650D03*
X0497500Y0158340D03*
X0527500Y0152840D03*
X0532500Y0152840D03*
X0532500Y0146150D03*
X0527500Y0146150D03*
X0468350Y0105000D03*
X0461650Y0105000D03*
X0363350Y0167500D03*
X0356650Y0167500D03*
X0356650Y0182500D03*
X0363350Y0182500D03*
X0390000Y0211650D03*
X0395000Y0211650D03*
X0395000Y0218340D03*
X0390000Y0218340D03*
X0389150Y0230000D03*
X0389150Y0235000D03*
X0395850Y0235000D03*
X0395850Y0230000D03*
X0592500Y0130840D03*
X0592500Y0124150D03*
X0600000Y0124150D03*
X0600000Y0130840D03*
D150*
X0550000Y0070000D03*
X0460000Y0070000D03*
X0425000Y0195000D03*
X0464000Y0247500D03*
X0514000Y0260000D03*
X0600000Y0260000D03*
D78*
X0430000Y0170510D03*
X0430000Y0159480D03*
X0430000Y0150510D03*
X0430000Y0139480D03*
X0385000Y0174480D03*
X0385000Y0185510D03*
D86*
X0362950Y0175000D03*
X0357050Y0175000D03*
X0440000Y0214540D03*
X0445000Y0214540D03*
X0450000Y0214540D03*
X0450000Y0220450D03*
X0445000Y0220450D03*
X0440000Y0220450D03*
X0572500Y0200450D03*
X0572500Y0194540D03*
X0580000Y0194540D03*
X0580000Y0200450D03*
X0480450Y0105000D03*
X0474550Y0105000D03*
D72*
X0411160Y0127500D03*
X0393840Y0127500D03*
X0407500Y0106160D03*
X0407500Y0088830D03*
X0450000Y0168830D03*
X0450000Y0186160D03*
D49*
X0417200Y0169090D03*
X0417200Y0160000D03*
X0417200Y0150900D03*
X0430300Y0129090D03*
X0430300Y0120000D03*
X0430300Y0110900D03*
D201*
X0454700Y0120000D03*
X0392800Y0160000D03*
D134*
X0429490Y0097500D03*
X0440510Y0097500D03*
D70*
X0515240Y0160170D03*
X0517200Y0160170D03*
X0519170Y0160170D03*
X0521140Y0160170D03*
X0523110Y0160170D03*
X0525080Y0160170D03*
X0527050Y0160170D03*
X0529020Y0160170D03*
X0530980Y0160170D03*
X0532950Y0160170D03*
X0534920Y0160170D03*
X0536890Y0160170D03*
X0538860Y0160170D03*
X0540830Y0160170D03*
X0542800Y0160170D03*
X0544760Y0160170D03*
X0544760Y0194820D03*
X0542800Y0194820D03*
X0540830Y0194820D03*
X0538860Y0194820D03*
X0536890Y0194820D03*
X0534920Y0194820D03*
X0532950Y0194820D03*
X0530980Y0194820D03*
X0529020Y0194820D03*
X0527050Y0194820D03*
X0525080Y0194820D03*
X0523110Y0194820D03*
X0521140Y0194820D03*
X0519170Y0194820D03*
X0517200Y0194820D03*
X0515240Y0194820D03*
D140*
X0512680Y0192260D03*
X0512680Y0190290D03*
X0512680Y0188320D03*
X0512680Y0186350D03*
X0512680Y0184390D03*
X0512680Y0182420D03*
X0512680Y0180450D03*
X0512680Y0178480D03*
X0512680Y0176510D03*
X0512680Y0174540D03*
X0512680Y0172570D03*
X0512680Y0170610D03*
X0512680Y0168640D03*
X0512680Y0166670D03*
X0512680Y0164700D03*
X0512680Y0162730D03*
X0547320Y0162730D03*
X0547320Y0164700D03*
X0547320Y0166670D03*
X0547320Y0168640D03*
X0547320Y0170610D03*
X0547320Y0172570D03*
X0547320Y0174540D03*
X0547320Y0176510D03*
X0547320Y0178480D03*
X0547320Y0180450D03*
X0547320Y0182420D03*
X0547320Y0184390D03*
X0547320Y0186350D03*
X0547320Y0188320D03*
X0547320Y0190290D03*
X0547320Y0192260D03*
D116*
X0530000Y0177500D03*
D122*
X0526460Y0140050D03*
X0526460Y0137500D03*
X0526460Y0134940D03*
X0533540Y0134940D03*
X0533540Y0137500D03*
X0533540Y0140050D03*
D99*
X0545000Y0130000D03*
X0550000Y0125000D03*
X0545000Y0120000D03*
X0555000Y0120000D03*
X0555000Y0130000D03*
X0370000Y0223830D03*
X0370000Y0241160D03*
D131*
X0379840Y0250210D03*
X0358190Y0250210D03*
X0358190Y0214780D03*
X0379840Y0215170D03*
D115*
X0379840Y0226200D03*
X0379840Y0229350D03*
X0379840Y0232500D03*
X0379840Y0235650D03*
X0379840Y0238800D03*
D182*
X0457780Y0216240D03*
X0457780Y0212500D03*
X0457780Y0208760D03*
X0467220Y0208760D03*
X0467220Y0212500D03*
X0467220Y0216240D03*
X0475280Y0216240D03*
X0475280Y0212500D03*
X0475280Y0208760D03*
X0484720Y0208760D03*
X0484720Y0212500D03*
X0484720Y0216240D03*
X0490280Y0226260D03*
X0490280Y0230000D03*
X0490280Y0233740D03*
X0499720Y0233740D03*
X0499720Y0230000D03*
X0499720Y0226260D03*
X0510280Y0226260D03*
X0510280Y0230000D03*
X0510280Y0233740D03*
X0519720Y0233740D03*
X0519720Y0230000D03*
X0519720Y0226260D03*
X0530280Y0226260D03*
X0530280Y0230000D03*
X0530280Y0233740D03*
X0539720Y0233740D03*
X0539720Y0230000D03*
X0539720Y0226260D03*
X0550280Y0226260D03*
X0550280Y0230000D03*
X0550280Y0233740D03*
X0559720Y0233740D03*
X0559720Y0230000D03*
X0559720Y0226260D03*
X0570280Y0226260D03*
X0570280Y0230000D03*
X0570280Y0233740D03*
X0579720Y0233740D03*
X0579720Y0230000D03*
X0579720Y0226260D03*
X0590280Y0226240D03*
X0590280Y0222500D03*
X0590280Y0218760D03*
X0599720Y0218760D03*
X0599720Y0222500D03*
X0599720Y0226240D03*
X0564720Y0108740D03*
X0564720Y0105000D03*
X0564720Y0101260D03*
X0555280Y0101260D03*
X0555280Y0105000D03*
X0555280Y0108740D03*
X0547220Y0108740D03*
X0547220Y0105000D03*
X0547220Y0101260D03*
X0537780Y0101260D03*
X0537780Y0105000D03*
X0537780Y0108740D03*
X0527220Y0108740D03*
X0527220Y0105000D03*
X0527220Y0101260D03*
X0517780Y0101260D03*
X0517780Y0105000D03*
X0517780Y0108740D03*
X0507220Y0108740D03*
X0507220Y0105000D03*
X0507220Y0101260D03*
X0497780Y0101260D03*
X0497780Y0105000D03*
X0497780Y0108740D03*
D63*
X0491240Y0137380D03*
X0483760Y0137380D03*
X0483760Y0147570D03*
X0487500Y0147570D03*
X0491240Y0147570D03*
D127*
X0535280Y0090650D03*
X0538430Y0090650D03*
X0541570Y0090650D03*
X0544720Y0090650D03*
X0544720Y0084350D03*
X0541570Y0084350D03*
X0538430Y0084350D03*
X0535280Y0084350D03*
X0582780Y0094350D03*
X0585930Y0094350D03*
X0589070Y0094350D03*
X0592220Y0094350D03*
X0592220Y0100650D03*
X0589070Y0100650D03*
X0585930Y0100650D03*
X0582780Y0100650D03*
X0474720Y0224350D03*
X0471570Y0224350D03*
X0468430Y0224350D03*
X0465280Y0224350D03*
X0465280Y0230650D03*
X0468430Y0230650D03*
X0471570Y0230650D03*
X0474720Y0230650D03*
X0500280Y0241850D03*
X0503430Y0241850D03*
X0506570Y0241850D03*
X0509720Y0241850D03*
X0509720Y0248150D03*
X0506570Y0248150D03*
X0503430Y0248150D03*
X0500280Y0248150D03*
X0540280Y0248150D03*
X0543430Y0248150D03*
X0546570Y0248150D03*
X0549720Y0248150D03*
X0549720Y0241850D03*
X0546570Y0241850D03*
X0543430Y0241850D03*
X0540280Y0241850D03*
X0580280Y0241850D03*
X0583430Y0241850D03*
X0586570Y0241850D03*
X0589720Y0241850D03*
X0589720Y0248150D03*
X0586570Y0248150D03*
X0583430Y0248150D03*
X0580280Y0248150D03*
X0449720Y0233150D03*
X0446570Y0233150D03*
X0443430Y0233150D03*
X0440280Y0233150D03*
X0440280Y0226850D03*
X0443430Y0226850D03*
X0446570Y0226850D03*
X0449720Y0226850D03*
D143*
X0375180Y0197500D03*
X0359820Y0197500D03*
D172*
X0357190Y0067550D03*
X0381200Y0067550D03*
X0381200Y0112440D03*
X0357190Y0112440D03*
D146*
X0357190Y0090000D03*
D111*
X0374900Y0090000D03*
D125*
X0485000Y0166670D03*
X0485000Y0188320D03*
D185*
X0573560Y0171120D03*
D118*
X0581440Y0171120D03*
X0581440Y0163240D03*
X0581440Y0155370D03*
X0573560Y0155370D03*
X0573560Y0163240D03*
X0573560Y0147500D03*
X0581440Y0147500D03*
X0581440Y0139620D03*
X0573560Y0139620D03*
X0573560Y0131750D03*
X0573560Y0123870D03*
X0581440Y0123870D03*
X0581440Y0131750D03*
D108*
X0427000Y0211250D03*
X0427000Y0213750D03*
X0427000Y0216250D03*
X0427000Y0218750D03*
X0427000Y0221250D03*
X0427000Y0223750D03*
X0427000Y0226250D03*
X0427000Y0228750D03*
X0427000Y0231250D03*
X0427000Y0233750D03*
X0403000Y0233750D03*
X0403000Y0231250D03*
X0403000Y0228750D03*
X0403000Y0226250D03*
X0403000Y0223750D03*
X0403000Y0221250D03*
X0403000Y0218750D03*
X0403000Y0216250D03*
X0403000Y0213750D03*
X0403000Y0211250D03*
D193*
X0396830Y0202500D03*
X0388170Y0202500D03*
D144*
X0543680Y0148810D03*
X0551320Y0148810D03*
X0551320Y0141180D03*
X0543680Y0141180D03*
D174*
X0377070Y0143930D03*
X0377070Y0136060D03*
D61*
D209*
X0356843Y0126610D03*
D61*
D209*
X0356843Y0153380D03*
D61*
D13*
X0368760Y0164880D03*
X0372500Y0164880D03*
X0376240Y0164880D03*
X0376240Y0175110D03*
X0368760Y0175110D03*
D129*
X0437000Y0083400D03*
X0437000Y0071590D03*
D167*
X0428540Y0070800D03*
X0428540Y0084190D03*
X0445460Y0084190D03*
X0445460Y0070800D03*
D30*
X0596500Y0110500D03*
X0462500Y0198000D03*
D187*
X0605000Y0147500D03*
X0615000Y0147500D03*
D181*
X0457000Y0102500D03*
X0453000Y0102500D03*
X0350000Y0270000D02*
G75*
%LPD*%
X0350000Y0290000D02*
G75*
%LPD*%
D200*
X0405000Y0300000D03*
X0610000Y0320000D03*
X0610000Y0430000D03*
X0410000Y0490000D03*
D39*
X0424000Y0490000D03*
X0434000Y0490000D03*
X0444000Y0490000D03*
X0454000Y0490000D03*
X0464000Y0490000D03*
X0474000Y0490000D03*
X0484000Y0490000D03*
X0494000Y0490000D03*
X0504000Y0490000D03*
X0484000Y0477500D03*
X0474000Y0477500D03*
X0530000Y0490000D03*
X0540000Y0490000D03*
X0550000Y0490000D03*
X0560000Y0490000D03*
X0570000Y0490000D03*
X0580000Y0490000D03*
X0590000Y0490000D03*
X0600550Y0409800D03*
X0610550Y0409800D03*
X0610550Y0399800D03*
X0600550Y0399800D03*
X0600550Y0389800D03*
X0610550Y0389800D03*
X0600000Y0300000D03*
X0590000Y0300000D03*
X0580000Y0300000D03*
X0570000Y0300000D03*
X0560000Y0300000D03*
X0530000Y0300000D03*
X0520000Y0300000D03*
X0510000Y0300000D03*
X0500000Y0300000D03*
X0490000Y0300000D03*
X0480000Y0300000D03*
X0470000Y0300000D03*
X0415000Y0425000D03*
D33*
X0395850Y0425000D03*
X0389150Y0425000D03*
X0389150Y0470000D03*
X0395850Y0470000D03*
X0498650Y0412500D03*
X0505350Y0412500D03*
X0505350Y0402500D03*
X0505350Y0397500D03*
X0498650Y0397500D03*
X0498650Y0402500D03*
X0497500Y0375840D03*
X0497500Y0369150D03*
X0554150Y0402500D03*
X0560850Y0402500D03*
X0572500Y0436650D03*
X0572500Y0443340D03*
X0580000Y0443340D03*
X0580000Y0436650D03*
D112*
X0517500Y0433650D03*
X0517500Y0440340D03*
X0472500Y0418340D03*
X0472500Y0411650D03*
X0472500Y0403340D03*
X0472500Y0396650D03*
X0453350Y0387500D03*
X0446650Y0387500D03*
X0446650Y0380000D03*
X0453350Y0380000D03*
X0497500Y0381650D03*
X0497500Y0388340D03*
X0527500Y0382840D03*
X0532500Y0382840D03*
X0532500Y0376150D03*
X0527500Y0376150D03*
X0468350Y0335000D03*
X0461650Y0335000D03*
X0363350Y0397500D03*
X0356650Y0397500D03*
X0356650Y0412500D03*
X0363350Y0412500D03*
X0390000Y0441650D03*
X0395000Y0441650D03*
X0395000Y0448340D03*
X0390000Y0448340D03*
X0389150Y0460000D03*
X0389150Y0465000D03*
X0395850Y0465000D03*
X0395850Y0460000D03*
X0592500Y0360840D03*
X0592500Y0354150D03*
X0600000Y0354150D03*
X0600000Y0360840D03*
D150*
X0550000Y0300000D03*
X0460000Y0300000D03*
X0425000Y0425000D03*
X0464000Y0477500D03*
X0514000Y0490000D03*
X0600000Y0490000D03*
D78*
X0430000Y0400510D03*
X0430000Y0389480D03*
X0430000Y0380510D03*
X0430000Y0369480D03*
X0385000Y0404480D03*
X0385000Y0415510D03*
D86*
X0362950Y0405000D03*
X0357050Y0405000D03*
X0440000Y0444540D03*
X0445000Y0444540D03*
X0450000Y0444540D03*
X0450000Y0450450D03*
X0445000Y0450450D03*
X0440000Y0450450D03*
X0572500Y0430450D03*
X0572500Y0424540D03*
X0580000Y0424540D03*
X0580000Y0430450D03*
X0480450Y0335000D03*
X0474550Y0335000D03*
D72*
X0411160Y0357500D03*
X0393840Y0357500D03*
X0407500Y0336160D03*
X0407500Y0318830D03*
X0450000Y0398830D03*
X0450000Y0416160D03*
D49*
X0417200Y0399090D03*
X0417200Y0390000D03*
X0417200Y0380900D03*
X0430300Y0359090D03*
X0430300Y0350000D03*
X0430300Y0340900D03*
D201*
X0454700Y0350000D03*
X0392800Y0390000D03*
D134*
X0429490Y0327500D03*
X0440510Y0327500D03*
D70*
X0515240Y0390170D03*
X0517200Y0390170D03*
X0519170Y0390170D03*
X0521140Y0390170D03*
X0523110Y0390170D03*
X0525080Y0390170D03*
X0527050Y0390170D03*
X0529020Y0390170D03*
X0530980Y0390170D03*
X0532950Y0390170D03*
X0534920Y0390170D03*
X0536890Y0390170D03*
X0538860Y0390170D03*
X0540830Y0390170D03*
X0542800Y0390170D03*
X0544760Y0390170D03*
X0544760Y0424820D03*
X0542800Y0424820D03*
X0540830Y0424820D03*
X0538860Y0424820D03*
X0536890Y0424820D03*
X0534920Y0424820D03*
X0532950Y0424820D03*
X0530980Y0424820D03*
X0529020Y0424820D03*
X0527050Y0424820D03*
X0525080Y0424820D03*
X0523110Y0424820D03*
X0521140Y0424820D03*
X0519170Y0424820D03*
X0517200Y0424820D03*
X0515240Y0424820D03*
D140*
X0512680Y0422260D03*
X0512680Y0420290D03*
X0512680Y0418320D03*
X0512680Y0416350D03*
X0512680Y0414390D03*
X0512680Y0412420D03*
X0512680Y0410450D03*
X0512680Y0408480D03*
X0512680Y0406510D03*
X0512680Y0404540D03*
X0512680Y0402570D03*
X0512680Y0400610D03*
X0512680Y0398640D03*
X0512680Y0396670D03*
X0512680Y0394700D03*
X0512680Y0392730D03*
X0547320Y0392730D03*
X0547320Y0394700D03*
X0547320Y0396670D03*
X0547320Y0398640D03*
X0547320Y0400610D03*
X0547320Y0402570D03*
X0547320Y0404540D03*
X0547320Y0406510D03*
X0547320Y0408480D03*
X0547320Y0410450D03*
X0547320Y0412420D03*
X0547320Y0414390D03*
X0547320Y0416350D03*
X0547320Y0418320D03*
X0547320Y0420290D03*
X0547320Y0422260D03*
D116*
X0530000Y0407500D03*
D122*
X0526460Y0370050D03*
X0526460Y0367500D03*
X0526460Y0364940D03*
X0533540Y0364940D03*
X0533540Y0367500D03*
X0533540Y0370050D03*
D99*
X0545000Y0360000D03*
X0550000Y0355000D03*
X0545000Y0350000D03*
X0555000Y0350000D03*
X0555000Y0360000D03*
X0370000Y0453830D03*
X0370000Y0471160D03*
D131*
X0379840Y0480210D03*
X0358190Y0480210D03*
X0358190Y0444780D03*
X0379840Y0445170D03*
D115*
X0379840Y0456200D03*
X0379840Y0459350D03*
X0379840Y0462500D03*
X0379840Y0465650D03*
X0379840Y0468800D03*
D182*
X0457780Y0446240D03*
X0457780Y0442500D03*
X0457780Y0438760D03*
X0467220Y0438760D03*
X0467220Y0442500D03*
X0467220Y0446240D03*
X0475280Y0446240D03*
X0475280Y0442500D03*
X0475280Y0438760D03*
X0484720Y0438760D03*
X0484720Y0442500D03*
X0484720Y0446240D03*
X0490280Y0456260D03*
X0490280Y0460000D03*
X0490280Y0463740D03*
X0499720Y0463740D03*
X0499720Y0460000D03*
X0499720Y0456260D03*
X0510280Y0456260D03*
X0510280Y0460000D03*
X0510280Y0463740D03*
X0519720Y0463740D03*
X0519720Y0460000D03*
X0519720Y0456260D03*
X0530280Y0456260D03*
X0530280Y0460000D03*
X0530280Y0463740D03*
X0539720Y0463740D03*
X0539720Y0460000D03*
X0539720Y0456260D03*
X0550280Y0456260D03*
X0550280Y0460000D03*
X0550280Y0463740D03*
X0559720Y0463740D03*
X0559720Y0460000D03*
X0559720Y0456260D03*
X0570280Y0456260D03*
X0570280Y0460000D03*
X0570280Y0463740D03*
X0579720Y0463740D03*
X0579720Y0460000D03*
X0579720Y0456260D03*
X0590280Y0456240D03*
X0590280Y0452500D03*
X0590280Y0448760D03*
X0599720Y0448760D03*
X0599720Y0452500D03*
X0599720Y0456240D03*
X0564720Y0338740D03*
X0564720Y0335000D03*
X0564720Y0331260D03*
X0555280Y0331260D03*
X0555280Y0335000D03*
X0555280Y0338740D03*
X0547220Y0338740D03*
X0547220Y0335000D03*
X0547220Y0331260D03*
X0537780Y0331260D03*
X0537780Y0335000D03*
X0537780Y0338740D03*
X0527220Y0338740D03*
X0527220Y0335000D03*
X0527220Y0331260D03*
X0517780Y0331260D03*
X0517780Y0335000D03*
X0517780Y0338740D03*
X0507220Y0338740D03*
X0507220Y0335000D03*
X0507220Y0331260D03*
X0497780Y0331260D03*
X0497780Y0335000D03*
X0497780Y0338740D03*
D63*
X0491240Y0367380D03*
X0483760Y0367380D03*
X0483760Y0377570D03*
X0487500Y0377570D03*
X0491240Y0377570D03*
D127*
X0535280Y0320650D03*
X0538430Y0320650D03*
X0541570Y0320650D03*
X0544720Y0320650D03*
X0544720Y0314350D03*
X0541570Y0314350D03*
X0538430Y0314350D03*
X0535280Y0314350D03*
X0582780Y0324350D03*
X0585930Y0324350D03*
X0589070Y0324350D03*
X0592220Y0324350D03*
X0592220Y0330650D03*
X0589070Y0330650D03*
X0585930Y0330650D03*
X0582780Y0330650D03*
X0474720Y0454350D03*
X0471570Y0454350D03*
X0468430Y0454350D03*
X0465280Y0454350D03*
X0465280Y0460650D03*
X0468430Y0460650D03*
X0471570Y0460650D03*
X0474720Y0460650D03*
X0500280Y0471850D03*
X0503430Y0471850D03*
X0506570Y0471850D03*
X0509720Y0471850D03*
X0509720Y0478150D03*
X0506570Y0478150D03*
X0503430Y0478150D03*
X0500280Y0478150D03*
X0540280Y0478150D03*
X0543430Y0478150D03*
X0546570Y0478150D03*
X0549720Y0478150D03*
X0549720Y0471850D03*
X0546570Y0471850D03*
X0543430Y0471850D03*
X0540280Y0471850D03*
X0580280Y0471850D03*
X0583430Y0471850D03*
X0586570Y0471850D03*
X0589720Y0471850D03*
X0589720Y0478150D03*
X0586570Y0478150D03*
X0583430Y0478150D03*
X0580280Y0478150D03*
X0449720Y0463150D03*
X0446570Y0463150D03*
X0443430Y0463150D03*
X0440280Y0463150D03*
X0440280Y0456850D03*
X0443430Y0456850D03*
X0446570Y0456850D03*
X0449720Y0456850D03*
D143*
X0375180Y0427500D03*
X0359820Y0427500D03*
D172*
X0357190Y0297550D03*
X0381200Y0297550D03*
X0381200Y0342440D03*
X0357190Y0342440D03*
D146*
X0357190Y0320000D03*
D111*
X0374900Y0320000D03*
D125*
X0485000Y0396670D03*
X0485000Y0418320D03*
D185*
X0573560Y0401120D03*
D118*
X0581440Y0401120D03*
X0581440Y0393240D03*
X0581440Y0385370D03*
X0573560Y0385370D03*
X0573560Y0393240D03*
X0573560Y0377500D03*
X0581440Y0377500D03*
X0581440Y0369620D03*
X0573560Y0369620D03*
X0573560Y0361750D03*
X0573560Y0353870D03*
X0581440Y0353870D03*
X0581440Y0361750D03*
D108*
X0427000Y0441250D03*
X0427000Y0443750D03*
X0427000Y0446250D03*
X0427000Y0448750D03*
X0427000Y0451250D03*
X0427000Y0453750D03*
X0427000Y0456250D03*
X0427000Y0458750D03*
X0427000Y0461250D03*
X0427000Y0463750D03*
X0403000Y0463750D03*
X0403000Y0461250D03*
X0403000Y0458750D03*
X0403000Y0456250D03*
X0403000Y0453750D03*
X0403000Y0451250D03*
X0403000Y0448750D03*
X0403000Y0446250D03*
X0403000Y0443750D03*
X0403000Y0441250D03*
D193*
X0396830Y0432500D03*
X0388170Y0432500D03*
D144*
X0543680Y0378810D03*
X0551320Y0378810D03*
X0551320Y0371180D03*
X0543680Y0371180D03*
D174*
X0377070Y0373930D03*
X0377070Y0366060D03*
D61*
D209*
X0356843Y0356610D03*
D61*
D209*
X0356843Y0383380D03*
D61*
D13*
X0368760Y0394880D03*
X0372500Y0394880D03*
X0376240Y0394880D03*
X0376240Y0405110D03*
X0368760Y0405110D03*
D129*
X0437000Y0313400D03*
X0437000Y0301590D03*
D167*
X0428540Y0300800D03*
X0428540Y0314190D03*
X0445460Y0314190D03*
X0445460Y0300800D03*
D30*
X0596500Y0340500D03*
X0462500Y0428000D03*
D187*
X0605000Y0377500D03*
X0615000Y0377500D03*
D181*
X0457000Y0332500D03*
X0453000Y0332500D03*
X0640000Y0060000D02*
G75*
%LPD*%
D200*
X0695000Y0070000D03*
X0900000Y0090000D03*
X0900000Y0200000D03*
X0700000Y0260000D03*
D39*
X0714000Y0260000D03*
X0724000Y0260000D03*
X0734000Y0260000D03*
X0744000Y0260000D03*
X0754000Y0260000D03*
X0764000Y0260000D03*
X0774000Y0260000D03*
X0784000Y0260000D03*
X0794000Y0260000D03*
X0774000Y0247500D03*
X0764000Y0247500D03*
X0820000Y0260000D03*
X0830000Y0260000D03*
X0840000Y0260000D03*
X0850000Y0260000D03*
X0860000Y0260000D03*
X0870000Y0260000D03*
X0880000Y0260000D03*
X0890550Y0179800D03*
X0900550Y0179800D03*
X0900550Y0169800D03*
X0890550Y0169800D03*
X0890550Y0159800D03*
X0900550Y0159800D03*
X0890000Y0070000D03*
X0880000Y0070000D03*
X0870000Y0070000D03*
X0860000Y0070000D03*
X0850000Y0070000D03*
X0820000Y0070000D03*
X0810000Y0070000D03*
X0800000Y0070000D03*
X0790000Y0070000D03*
X0780000Y0070000D03*
X0770000Y0070000D03*
X0760000Y0070000D03*
X0705000Y0195000D03*
D33*
X0685850Y0195000D03*
X0679150Y0195000D03*
X0679150Y0240000D03*
X0685850Y0240000D03*
X0788650Y0182500D03*
X0795350Y0182500D03*
X0795350Y0172500D03*
X0795350Y0167500D03*
X0788650Y0167500D03*
X0788650Y0172500D03*
X0787500Y0145840D03*
X0787500Y0139150D03*
X0844150Y0172500D03*
X0850850Y0172500D03*
X0862500Y0206650D03*
X0862500Y0213340D03*
X0870000Y0213340D03*
X0870000Y0206650D03*
D112*
X0807500Y0203650D03*
X0807500Y0210340D03*
X0762500Y0188340D03*
X0762500Y0181650D03*
X0762500Y0173340D03*
X0762500Y0166650D03*
X0743350Y0157500D03*
X0736650Y0157500D03*
X0736650Y0150000D03*
X0743350Y0150000D03*
X0787500Y0151650D03*
X0787500Y0158340D03*
X0817500Y0152840D03*
X0822500Y0152840D03*
X0822500Y0146150D03*
X0817500Y0146150D03*
X0758350Y0105000D03*
X0751650Y0105000D03*
X0653350Y0167500D03*
X0646650Y0167500D03*
X0646650Y0182500D03*
X0653350Y0182500D03*
X0680000Y0211650D03*
X0685000Y0211650D03*
X0685000Y0218340D03*
X0680000Y0218340D03*
X0679150Y0230000D03*
X0679150Y0235000D03*
X0685850Y0235000D03*
X0685850Y0230000D03*
X0882500Y0130840D03*
X0882500Y0124150D03*
X0890000Y0124150D03*
X0890000Y0130840D03*
D150*
X0840000Y0070000D03*
X0750000Y0070000D03*
X0715000Y0195000D03*
X0754000Y0247500D03*
X0804000Y0260000D03*
X0890000Y0260000D03*
D78*
X0720000Y0170510D03*
X0720000Y0159480D03*
X0720000Y0150510D03*
X0720000Y0139480D03*
X0675000Y0174480D03*
X0675000Y0185510D03*
D86*
X0652950Y0175000D03*
X0647050Y0175000D03*
X0730000Y0214540D03*
X0735000Y0214540D03*
X0740000Y0214540D03*
X0740000Y0220450D03*
X0735000Y0220450D03*
X0730000Y0220450D03*
X0862500Y0200450D03*
X0862500Y0194540D03*
X0870000Y0194540D03*
X0870000Y0200450D03*
X0770450Y0105000D03*
X0764550Y0105000D03*
D72*
X0701160Y0127500D03*
X0683840Y0127500D03*
X0697500Y0106160D03*
X0697500Y0088830D03*
X0740000Y0168830D03*
X0740000Y0186160D03*
D49*
X0707200Y0169090D03*
X0707200Y0160000D03*
X0707200Y0150900D03*
X0720300Y0129090D03*
X0720300Y0120000D03*
X0720300Y0110900D03*
D201*
X0744700Y0120000D03*
X0682800Y0160000D03*
D134*
X0719490Y0097500D03*
X0730510Y0097500D03*
D70*
X0805240Y0160170D03*
X0807200Y0160170D03*
X0809170Y0160170D03*
X0811140Y0160170D03*
X0813110Y0160170D03*
X0815080Y0160170D03*
X0817050Y0160170D03*
X0819020Y0160170D03*
X0820980Y0160170D03*
X0822950Y0160170D03*
X0824920Y0160170D03*
X0826890Y0160170D03*
X0828860Y0160170D03*
X0830830Y0160170D03*
X0832800Y0160170D03*
X0834760Y0160170D03*
X0834760Y0194820D03*
X0832800Y0194820D03*
X0830830Y0194820D03*
X0828860Y0194820D03*
X0826890Y0194820D03*
X0824920Y0194820D03*
X0822950Y0194820D03*
X0820980Y0194820D03*
X0819020Y0194820D03*
X0817050Y0194820D03*
X0815080Y0194820D03*
X0813110Y0194820D03*
X0811140Y0194820D03*
X0809170Y0194820D03*
X0807200Y0194820D03*
X0805240Y0194820D03*
D140*
X0802680Y0192260D03*
X0802680Y0190290D03*
X0802680Y0188320D03*
X0802680Y0186350D03*
X0802680Y0184390D03*
X0802680Y0182420D03*
X0802680Y0180450D03*
X0802680Y0178480D03*
X0802680Y0176510D03*
X0802680Y0174540D03*
X0802680Y0172570D03*
X0802680Y0170610D03*
X0802680Y0168640D03*
X0802680Y0166670D03*
X0802680Y0164700D03*
X0802680Y0162730D03*
X0837320Y0162730D03*
X0837320Y0164700D03*
X0837320Y0166670D03*
X0837320Y0168640D03*
X0837320Y0170610D03*
X0837320Y0172570D03*
X0837320Y0174540D03*
X0837320Y0176510D03*
X0837320Y0178480D03*
X0837320Y0180450D03*
X0837320Y0182420D03*
X0837320Y0184390D03*
X0837320Y0186350D03*
X0837320Y0188320D03*
X0837320Y0190290D03*
X0837320Y0192260D03*
D116*
X0820000Y0177500D03*
D122*
X0816460Y0140050D03*
X0816460Y0137500D03*
X0816460Y0134940D03*
X0823540Y0134940D03*
X0823540Y0137500D03*
X0823540Y0140050D03*
D99*
X0835000Y0130000D03*
X0840000Y0125000D03*
X0835000Y0120000D03*
X0845000Y0120000D03*
X0845000Y0130000D03*
X0660000Y0223830D03*
X0660000Y0241160D03*
D131*
X0669840Y0250210D03*
X0648190Y0250210D03*
X0648190Y0214780D03*
X0669840Y0215170D03*
D115*
X0669840Y0226200D03*
X0669840Y0229350D03*
X0669840Y0232500D03*
X0669840Y0235650D03*
X0669840Y0238800D03*
D182*
X0747780Y0216240D03*
X0747780Y0212500D03*
X0747780Y0208760D03*
X0757220Y0208760D03*
X0757220Y0212500D03*
X0757220Y0216240D03*
X0765280Y0216240D03*
X0765280Y0212500D03*
X0765280Y0208760D03*
X0774720Y0208760D03*
X0774720Y0212500D03*
X0774720Y0216240D03*
X0780280Y0226260D03*
X0780280Y0230000D03*
X0780280Y0233740D03*
X0789720Y0233740D03*
X0789720Y0230000D03*
X0789720Y0226260D03*
X0800280Y0226260D03*
X0800280Y0230000D03*
X0800280Y0233740D03*
X0809720Y0233740D03*
X0809720Y0230000D03*
X0809720Y0226260D03*
X0820280Y0226260D03*
X0820280Y0230000D03*
X0820280Y0233740D03*
X0829720Y0233740D03*
X0829720Y0230000D03*
X0829720Y0226260D03*
X0840280Y0226260D03*
X0840280Y0230000D03*
X0840280Y0233740D03*
X0849720Y0233740D03*
X0849720Y0230000D03*
X0849720Y0226260D03*
X0860280Y0226260D03*
X0860280Y0230000D03*
X0860280Y0233740D03*
X0869720Y0233740D03*
X0869720Y0230000D03*
X0869720Y0226260D03*
X0880280Y0226240D03*
X0880280Y0222500D03*
X0880280Y0218760D03*
X0889720Y0218760D03*
X0889720Y0222500D03*
X0889720Y0226240D03*
X0854720Y0108740D03*
X0854720Y0105000D03*
X0854720Y0101260D03*
X0845280Y0101260D03*
X0845280Y0105000D03*
X0845280Y0108740D03*
X0837220Y0108740D03*
X0837220Y0105000D03*
X0837220Y0101260D03*
X0827780Y0101260D03*
X0827780Y0105000D03*
X0827780Y0108740D03*
X0817220Y0108740D03*
X0817220Y0105000D03*
X0817220Y0101260D03*
X0807780Y0101260D03*
X0807780Y0105000D03*
X0807780Y0108740D03*
X0797220Y0108740D03*
X0797220Y0105000D03*
X0797220Y0101260D03*
X0787780Y0101260D03*
X0787780Y0105000D03*
X0787780Y0108740D03*
D63*
X0781240Y0137380D03*
X0773760Y0137380D03*
X0773760Y0147570D03*
X0777500Y0147570D03*
X0781240Y0147570D03*
D127*
X0825280Y0090650D03*
X0828430Y0090650D03*
X0831570Y0090650D03*
X0834720Y0090650D03*
X0834720Y0084350D03*
X0831570Y0084350D03*
X0828430Y0084350D03*
X0825280Y0084350D03*
X0872780Y0094350D03*
X0875930Y0094350D03*
X0879070Y0094350D03*
X0882220Y0094350D03*
X0882220Y0100650D03*
X0879070Y0100650D03*
X0875930Y0100650D03*
X0872780Y0100650D03*
X0764720Y0224350D03*
X0761570Y0224350D03*
X0758430Y0224350D03*
X0755280Y0224350D03*
X0755280Y0230650D03*
X0758430Y0230650D03*
X0761570Y0230650D03*
X0764720Y0230650D03*
X0790280Y0241850D03*
X0793430Y0241850D03*
X0796570Y0241850D03*
X0799720Y0241850D03*
X0799720Y0248150D03*
X0796570Y0248150D03*
X0793430Y0248150D03*
X0790280Y0248150D03*
X0830280Y0248150D03*
X0833430Y0248150D03*
X0836570Y0248150D03*
X0839720Y0248150D03*
X0839720Y0241850D03*
X0836570Y0241850D03*
X0833430Y0241850D03*
X0830280Y0241850D03*
X0870280Y0241850D03*
X0873430Y0241850D03*
X0876570Y0241850D03*
X0879720Y0241850D03*
X0879720Y0248150D03*
X0876570Y0248150D03*
X0873430Y0248150D03*
X0870280Y0248150D03*
X0739720Y0233150D03*
X0736570Y0233150D03*
X0733430Y0233150D03*
X0730280Y0233150D03*
X0730280Y0226850D03*
X0733430Y0226850D03*
X0736570Y0226850D03*
X0739720Y0226850D03*
D143*
X0665180Y0197500D03*
X0649820Y0197500D03*
D172*
X0647190Y0067550D03*
X0671200Y0067550D03*
X0671200Y0112440D03*
X0647190Y0112440D03*
D146*
X0647190Y0090000D03*
D111*
X0664900Y0090000D03*
D125*
X0775000Y0166670D03*
X0775000Y0188320D03*
D185*
X0863560Y0171120D03*
D118*
X0871440Y0171120D03*
X0871440Y0163240D03*
X0871440Y0155370D03*
X0863560Y0155370D03*
X0863560Y0163240D03*
X0863560Y0147500D03*
X0871440Y0147500D03*
X0871440Y0139620D03*
X0863560Y0139620D03*
X0863560Y0131750D03*
X0863560Y0123870D03*
X0871440Y0123870D03*
X0871440Y0131750D03*
D108*
X0717000Y0211250D03*
X0717000Y0213750D03*
X0717000Y0216250D03*
X0717000Y0218750D03*
X0717000Y0221250D03*
X0717000Y0223750D03*
X0717000Y0226250D03*
X0717000Y0228750D03*
X0717000Y0231250D03*
X0717000Y0233750D03*
X0693000Y0233750D03*
X0693000Y0231250D03*
X0693000Y0228750D03*
X0693000Y0226250D03*
X0693000Y0223750D03*
X0693000Y0221250D03*
X0693000Y0218750D03*
X0693000Y0216250D03*
X0693000Y0213750D03*
X0693000Y0211250D03*
D193*
X0686830Y0202500D03*
X0678170Y0202500D03*
D144*
X0833680Y0148810D03*
X0841320Y0148810D03*
X0841320Y0141180D03*
X0833680Y0141180D03*
D174*
X0667070Y0143930D03*
X0667070Y0136060D03*
D61*
D209*
X0646843Y0126610D03*
D61*
D209*
X0646843Y0153380D03*
D61*
D13*
X0658760Y0164880D03*
X0662500Y0164880D03*
X0666240Y0164880D03*
X0666240Y0175110D03*
X0658760Y0175110D03*
D129*
X0727000Y0083400D03*
X0727000Y0071590D03*
D167*
X0718540Y0070800D03*
X0718540Y0084190D03*
X0735460Y0084190D03*
X0735460Y0070800D03*
D30*
X0886500Y0110500D03*
X0752500Y0198000D03*
D187*
X0895000Y0147500D03*
X0905000Y0147500D03*
D181*
X0747000Y0102500D03*
X0743000Y0102500D03*
X0640000Y0270000D02*
G75*
%LPD*%
X0640000Y0290000D02*
G75*
%LPD*%
D200*
X0695000Y0300000D03*
X0900000Y0320000D03*
X0900000Y0430000D03*
X0700000Y0490000D03*
D39*
X0714000Y0490000D03*
X0724000Y0490000D03*
X0734000Y0490000D03*
X0744000Y0490000D03*
X0754000Y0490000D03*
X0764000Y0490000D03*
X0774000Y0490000D03*
X0784000Y0490000D03*
X0794000Y0490000D03*
X0774000Y0477500D03*
X0764000Y0477500D03*
X0820000Y0490000D03*
X0830000Y0490000D03*
X0840000Y0490000D03*
X0850000Y0490000D03*
X0860000Y0490000D03*
X0870000Y0490000D03*
X0880000Y0490000D03*
X0890550Y0409800D03*
X0900550Y0409800D03*
X0900550Y0399800D03*
X0890550Y0399800D03*
X0890550Y0389800D03*
X0900550Y0389800D03*
X0890000Y0300000D03*
X0880000Y0300000D03*
X0870000Y0300000D03*
X0860000Y0300000D03*
X0850000Y0300000D03*
X0820000Y0300000D03*
X0810000Y0300000D03*
X0800000Y0300000D03*
X0790000Y0300000D03*
X0780000Y0300000D03*
X0770000Y0300000D03*
X0760000Y0300000D03*
X0705000Y0425000D03*
D33*
X0685850Y0425000D03*
X0679150Y0425000D03*
X0679150Y0470000D03*
X0685850Y0470000D03*
X0788650Y0412500D03*
X0795350Y0412500D03*
X0795350Y0402500D03*
X0795350Y0397500D03*
X0788650Y0397500D03*
X0788650Y0402500D03*
X0787500Y0375840D03*
X0787500Y0369150D03*
X0844150Y0402500D03*
X0850850Y0402500D03*
X0862500Y0436650D03*
X0862500Y0443340D03*
X0870000Y0443340D03*
X0870000Y0436650D03*
D112*
X0807500Y0433650D03*
X0807500Y0440340D03*
X0762500Y0418340D03*
X0762500Y0411650D03*
X0762500Y0403340D03*
X0762500Y0396650D03*
X0743350Y0387500D03*
X0736650Y0387500D03*
X0736650Y0380000D03*
X0743350Y0380000D03*
X0787500Y0381650D03*
X0787500Y0388340D03*
X0817500Y0382840D03*
X0822500Y0382840D03*
X0822500Y0376150D03*
X0817500Y0376150D03*
X0758350Y0335000D03*
X0751650Y0335000D03*
X0653350Y0397500D03*
X0646650Y0397500D03*
X0646650Y0412500D03*
X0653350Y0412500D03*
X0680000Y0441650D03*
X0685000Y0441650D03*
X0685000Y0448340D03*
X0680000Y0448340D03*
X0679150Y0460000D03*
X0679150Y0465000D03*
X0685850Y0465000D03*
X0685850Y0460000D03*
X0882500Y0360840D03*
X0882500Y0354150D03*
X0890000Y0354150D03*
X0890000Y0360840D03*
D150*
X0840000Y0300000D03*
X0750000Y0300000D03*
X0715000Y0425000D03*
X0754000Y0477500D03*
X0804000Y0490000D03*
X0890000Y0490000D03*
D78*
X0720000Y0400510D03*
X0720000Y0389480D03*
X0720000Y0380510D03*
X0720000Y0369480D03*
X0675000Y0404480D03*
X0675000Y0415510D03*
D86*
X0652950Y0405000D03*
X0647050Y0405000D03*
X0730000Y0444540D03*
X0735000Y0444540D03*
X0740000Y0444540D03*
X0740000Y0450450D03*
X0735000Y0450450D03*
X0730000Y0450450D03*
X0862500Y0430450D03*
X0862500Y0424540D03*
X0870000Y0424540D03*
X0870000Y0430450D03*
X0770450Y0335000D03*
X0764550Y0335000D03*
D72*
X0701160Y0357500D03*
X0683840Y0357500D03*
X0697500Y0336160D03*
X0697500Y0318830D03*
X0740000Y0398830D03*
X0740000Y0416160D03*
D49*
X0707200Y0399090D03*
X0707200Y0390000D03*
X0707200Y0380900D03*
X0720300Y0359090D03*
X0720300Y0350000D03*
X0720300Y0340900D03*
D201*
X0744700Y0350000D03*
X0682800Y0390000D03*
D134*
X0719490Y0327500D03*
X0730510Y0327500D03*
D70*
X0805240Y0390170D03*
X0807200Y0390170D03*
X0809170Y0390170D03*
X0811140Y0390170D03*
X0813110Y0390170D03*
X0815080Y0390170D03*
X0817050Y0390170D03*
X0819020Y0390170D03*
X0820980Y0390170D03*
X0822950Y0390170D03*
X0824920Y0390170D03*
X0826890Y0390170D03*
X0828860Y0390170D03*
X0830830Y0390170D03*
X0832800Y0390170D03*
X0834760Y0390170D03*
X0834760Y0424820D03*
X0832800Y0424820D03*
X0830830Y0424820D03*
X0828860Y0424820D03*
X0826890Y0424820D03*
X0824920Y0424820D03*
X0822950Y0424820D03*
X0820980Y0424820D03*
X0819020Y0424820D03*
X0817050Y0424820D03*
X0815080Y0424820D03*
X0813110Y0424820D03*
X0811140Y0424820D03*
X0809170Y0424820D03*
X0807200Y0424820D03*
X0805240Y0424820D03*
D140*
X0802680Y0422260D03*
X0802680Y0420290D03*
X0802680Y0418320D03*
X0802680Y0416350D03*
X0802680Y0414390D03*
X0802680Y0412420D03*
X0802680Y0410450D03*
X0802680Y0408480D03*
X0802680Y0406510D03*
X0802680Y0404540D03*
X0802680Y0402570D03*
X0802680Y0400610D03*
X0802680Y0398640D03*
X0802680Y0396670D03*
X0802680Y0394700D03*
X0802680Y0392730D03*
X0837320Y0392730D03*
X0837320Y0394700D03*
X0837320Y0396670D03*
X0837320Y0398640D03*
X0837320Y0400610D03*
X0837320Y0402570D03*
X0837320Y0404540D03*
X0837320Y0406510D03*
X0837320Y0408480D03*
X0837320Y0410450D03*
X0837320Y0412420D03*
X0837320Y0414390D03*
X0837320Y0416350D03*
X0837320Y0418320D03*
X0837320Y0420290D03*
X0837320Y0422260D03*
D116*
X0820000Y0407500D03*
D122*
X0816460Y0370050D03*
X0816460Y0367500D03*
X0816460Y0364940D03*
X0823540Y0364940D03*
X0823540Y0367500D03*
X0823540Y0370050D03*
D99*
X0835000Y0360000D03*
X0840000Y0355000D03*
X0835000Y0350000D03*
X0845000Y0350000D03*
X0845000Y0360000D03*
X0660000Y0453830D03*
X0660000Y0471160D03*
D131*
X0669840Y0480210D03*
X0648190Y0480210D03*
X0648190Y0444780D03*
X0669840Y0445170D03*
D115*
X0669840Y0456200D03*
X0669840Y0459350D03*
X0669840Y0462500D03*
X0669840Y0465650D03*
X0669840Y0468800D03*
D182*
X0747780Y0446240D03*
X0747780Y0442500D03*
X0747780Y0438760D03*
X0757220Y0438760D03*
X0757220Y0442500D03*
X0757220Y0446240D03*
X0765280Y0446240D03*
X0765280Y0442500D03*
X0765280Y0438760D03*
X0774720Y0438760D03*
X0774720Y0442500D03*
X0774720Y0446240D03*
X0780280Y0456260D03*
X0780280Y0460000D03*
X0780280Y0463740D03*
X0789720Y0463740D03*
X0789720Y0460000D03*
X0789720Y0456260D03*
X0800280Y0456260D03*
X0800280Y0460000D03*
X0800280Y0463740D03*
X0809720Y0463740D03*
X0809720Y0460000D03*
X0809720Y0456260D03*
X0820280Y0456260D03*
X0820280Y0460000D03*
X0820280Y0463740D03*
X0829720Y0463740D03*
X0829720Y0460000D03*
X0829720Y0456260D03*
X0840280Y0456260D03*
X0840280Y0460000D03*
X0840280Y0463740D03*
X0849720Y0463740D03*
X0849720Y0460000D03*
X0849720Y0456260D03*
X0860280Y0456260D03*
X0860280Y0460000D03*
X0860280Y0463740D03*
X0869720Y0463740D03*
X0869720Y0460000D03*
X0869720Y0456260D03*
X0880280Y0456240D03*
X0880280Y0452500D03*
X0880280Y0448760D03*
X0889720Y0448760D03*
X0889720Y0452500D03*
X0889720Y0456240D03*
X0854720Y0338740D03*
X0854720Y0335000D03*
X0854720Y0331260D03*
X0845280Y0331260D03*
X0845280Y0335000D03*
X0845280Y0338740D03*
X0837220Y0338740D03*
X0837220Y0335000D03*
X0837220Y0331260D03*
X0827780Y0331260D03*
X0827780Y0335000D03*
X0827780Y0338740D03*
X0817220Y0338740D03*
X0817220Y0335000D03*
X0817220Y0331260D03*
X0807780Y0331260D03*
X0807780Y0335000D03*
X0807780Y0338740D03*
X0797220Y0338740D03*
X0797220Y0335000D03*
X0797220Y0331260D03*
X0787780Y0331260D03*
X0787780Y0335000D03*
X0787780Y0338740D03*
D63*
X0781240Y0367380D03*
X0773760Y0367380D03*
X0773760Y0377570D03*
X0777500Y0377570D03*
X0781240Y0377570D03*
D127*
X0825280Y0320650D03*
X0828430Y0320650D03*
X0831570Y0320650D03*
X0834720Y0320650D03*
X0834720Y0314350D03*
X0831570Y0314350D03*
X0828430Y0314350D03*
X0825280Y0314350D03*
X0872780Y0324350D03*
X0875930Y0324350D03*
X0879070Y0324350D03*
X0882220Y0324350D03*
X0882220Y0330650D03*
X0879070Y0330650D03*
X0875930Y0330650D03*
X0872780Y0330650D03*
X0764720Y0454350D03*
X0761570Y0454350D03*
X0758430Y0454350D03*
X0755280Y0454350D03*
X0755280Y0460650D03*
X0758430Y0460650D03*
X0761570Y0460650D03*
X0764720Y0460650D03*
X0790280Y0471850D03*
X0793430Y0471850D03*
X0796570Y0471850D03*
X0799720Y0471850D03*
X0799720Y0478150D03*
X0796570Y0478150D03*
X0793430Y0478150D03*
X0790280Y0478150D03*
X0830280Y0478150D03*
X0833430Y0478150D03*
X0836570Y0478150D03*
X0839720Y0478150D03*
X0839720Y0471850D03*
X0836570Y0471850D03*
X0833430Y0471850D03*
X0830280Y0471850D03*
X0870280Y0471850D03*
X0873430Y0471850D03*
X0876570Y0471850D03*
X0879720Y0471850D03*
X0879720Y0478150D03*
X0876570Y0478150D03*
X0873430Y0478150D03*
X0870280Y0478150D03*
X0739720Y0463150D03*
X0736570Y0463150D03*
X0733430Y0463150D03*
X0730280Y0463150D03*
X0730280Y0456850D03*
X0733430Y0456850D03*
X0736570Y0456850D03*
X0739720Y0456850D03*
D143*
X0665180Y0427500D03*
X0649820Y0427500D03*
D172*
X0647190Y0297550D03*
X0671200Y0297550D03*
X0671200Y0342440D03*
X0647190Y0342440D03*
D146*
X0647190Y0320000D03*
D111*
X0664900Y0320000D03*
D125*
X0775000Y0396670D03*
X0775000Y0418320D03*
D185*
X0863560Y0401120D03*
D118*
X0871440Y0401120D03*
X0871440Y0393240D03*
X0871440Y0385370D03*
X0863560Y0385370D03*
X0863560Y0393240D03*
X0863560Y0377500D03*
X0871440Y0377500D03*
X0871440Y0369620D03*
X0863560Y0369620D03*
X0863560Y0361750D03*
X0863560Y0353870D03*
X0871440Y0353870D03*
X0871440Y0361750D03*
D108*
X0717000Y0441250D03*
X0717000Y0443750D03*
X0717000Y0446250D03*
X0717000Y0448750D03*
X0717000Y0451250D03*
X0717000Y0453750D03*
X0717000Y0456250D03*
X0717000Y0458750D03*
X0717000Y0461250D03*
X0717000Y0463750D03*
X0693000Y0463750D03*
X0693000Y0461250D03*
X0693000Y0458750D03*
X0693000Y0456250D03*
X0693000Y0453750D03*
X0693000Y0451250D03*
X0693000Y0448750D03*
X0693000Y0446250D03*
X0693000Y0443750D03*
X0693000Y0441250D03*
D193*
X0686830Y0432500D03*
X0678170Y0432500D03*
D144*
X0833680Y0378810D03*
X0841320Y0378810D03*
X0841320Y0371180D03*
X0833680Y0371180D03*
D174*
X0667070Y0373930D03*
X0667070Y0366060D03*
D61*
D209*
X0646843Y0356610D03*
D61*
D209*
X0646843Y0383380D03*
D61*
D13*
X0658760Y0394880D03*
X0662500Y0394880D03*
X0666240Y0394880D03*
X0666240Y0405110D03*
X0658760Y0405110D03*
D129*
X0727000Y0313400D03*
X0727000Y0301590D03*
D167*
X0718540Y0300800D03*
X0718540Y0314190D03*
X0735460Y0314190D03*
X0735460Y0300800D03*
D30*
X0886500Y0340500D03*
X0752500Y0428000D03*
D187*
X0895000Y0377500D03*
X0905000Y0377500D03*
D181*
X0747000Y0332500D03*
X0743000Y0332500D03*
X0010000Y0500000D02*
G75*
%LPD*%
D166*
X0035000Y0525000D03*
X0925000Y0525000D03*
D17*
X0899000Y0525000D02*
X0899020Y0525200D01*
X0899080Y0525380D01*
X0899170Y0525560D01*
X0899290Y0525710D01*
X0899440Y0525830D01*
X0899620Y0525920D01*
X0899800Y0525980D01*
X0900000Y0526000D01*
X0900200Y0525980D01*
X0900380Y0525920D01*
X0900560Y0525830D01*
X0900710Y0525710D01*
X0900830Y0525560D01*
X0900920Y0525380D01*
X0900980Y0525200D01*
X0901000Y0525000D01*
X0900980Y0524800D01*
X0900920Y0524620D01*
X0900830Y0524440D01*
X0900710Y0524290D01*
X0900560Y0524170D01*
X0900380Y0524080D01*
X0900200Y0524020D01*
X0900000Y0524000D01*
X0899800Y0524020D01*
X0899620Y0524080D01*
X0899440Y0524170D01*
X0899290Y0524290D01*
X0899170Y0524440D01*
X0899080Y0524620D01*
X0899020Y0524800D01*
X0899000Y0525000D01*
X0059000Y0525000D02*
X0059020Y0525200D01*
X0059080Y0525380D01*
X0059170Y0525560D01*
X0059290Y0525710D01*
X0059440Y0525830D01*
X0059620Y0525920D01*
X0059800Y0525980D01*
X0060000Y0526000D01*
X0060200Y0525980D01*
X0060380Y0525920D01*
X0060560Y0525830D01*
X0060710Y0525710D01*
X0060830Y0525560D01*
X0060920Y0525380D01*
X0060980Y0525200D01*
X0061000Y0525000D01*
X0060980Y0524800D01*
X0060920Y0524620D01*
X0060830Y0524440D01*
X0060710Y0524290D01*
X0060560Y0524170D01*
X0060380Y0524080D01*
X0060200Y0524020D01*
X0060000Y0524000D01*
X0059800Y0524020D01*
X0059620Y0524080D01*
X0059440Y0524170D01*
X0059290Y0524290D01*
X0059170Y0524440D01*
X0059080Y0524620D01*
X0059020Y0524800D01*
X0059000Y0525000D01*
M02*
