G75*
G70*
%OFA0B0*%
%FSLAX24Y24*%
%IPPOS*%
%LPD*%
%AMOC8*
5,1,8,0,0,1.08239X$1,22.5*
%
%ADD10C,0.0020*%
%ADD11C,0.0030*%
%ADD12C,0.0060*%
%ADD13C,0.0040*%
%ADD14R,0.0483X0.0017*%
%ADD15R,0.0700X0.0017*%
%ADD16R,0.0867X0.0017*%
%ADD17R,0.1000X0.0017*%
%ADD18R,0.1117X0.0017*%
%ADD19R,0.1217X0.0017*%
%ADD20R,0.1300X0.0017*%
%ADD21R,0.0517X0.0017*%
%ADD22R,0.0550X0.0017*%
%ADD23R,0.0450X0.0017*%
%ADD24R,0.0400X0.0017*%
%ADD25R,0.0417X0.0017*%
%ADD26R,0.0367X0.0017*%
%ADD27R,0.0383X0.0017*%
%ADD28R,0.0333X0.0017*%
%ADD29R,0.0350X0.0017*%
%ADD30R,0.0317X0.0017*%
%ADD31R,0.0283X0.0017*%
%ADD32R,0.0300X0.0017*%
%ADD33R,0.0283X0.0017*%
%ADD34R,0.0283X0.0017*%
%ADD35R,0.0250X0.0017*%
%ADD36R,0.0233X0.0017*%
%ADD37R,0.0267X0.0017*%
%ADD38R,0.0217X0.0017*%
%ADD39R,0.0267X0.0017*%
%ADD40R,0.0200X0.0017*%
%ADD41R,0.0250X0.0017*%
%ADD42R,0.0183X0.0017*%
%ADD43R,0.0233X0.0017*%
%ADD44R,0.0183X0.0017*%
%ADD45R,0.0183X0.0017*%
%ADD46R,0.0167X0.0017*%
%ADD47R,0.0167X0.0017*%
%ADD48R,0.0217X0.0017*%
%ADD49R,0.0067X0.0017*%
%ADD50R,0.0150X0.0017*%
%ADD51R,0.0200X0.0017*%
%ADD52R,0.0133X0.0017*%
%ADD53R,0.0217X0.0017*%
%ADD54R,0.0017X0.0017*%
%ADD55R,0.0133X0.0017*%
%ADD56R,0.0217X0.0017*%
%ADD57R,0.0050X0.0017*%
%ADD58R,0.0300X0.0017*%
%ADD59R,0.0083X0.0017*%
%ADD60R,0.0133X0.0017*%
%ADD61R,0.0433X0.0017*%
%ADD62R,0.0133X0.0017*%
%ADD63R,0.0117X0.0017*%
%ADD64R,0.0467X0.0017*%
%ADD65R,0.0117X0.0017*%
%ADD66R,0.0483X0.0017*%
%ADD67R,0.0467X0.0017*%
%ADD68R,0.0383X0.0017*%
%ADD69R,0.0350X0.0017*%
%ADD70R,0.0150X0.0017*%
%ADD71R,0.0317X0.0017*%
%ADD72R,0.0283X0.0017*%
%ADD73R,0.0167X0.0017*%
%ADD74R,0.0267X0.0017*%
%ADD75R,0.0167X0.0017*%
%ADD76R,0.0100X0.0017*%
%ADD77R,0.0100X0.0017*%
%ADD78R,0.0233X0.0017*%
%ADD79R,0.0117X0.0017*%
%ADD80R,0.0500X0.0017*%
%ADD81R,0.0083X0.0017*%
%ADD82R,0.0500X0.0017*%
%ADD83R,0.0483X0.0017*%
%ADD84R,0.0233X0.0017*%
%ADD85R,0.0450X0.0017*%
%ADD86R,0.0433X0.0017*%
%ADD87R,0.0417X0.0017*%
%ADD88R,0.0183X0.0017*%
%ADD89R,0.0433X0.0017*%
%ADD90R,0.0333X0.0017*%
%ADD91R,0.0400X0.0017*%
%ADD92R,0.0367X0.0017*%
%ADD93R,0.0017X0.0017*%
%ADD94R,0.0333X0.0017*%
%ADD95R,0.0383X0.0017*%
%ADD96R,0.0433X0.0017*%
%ADD97R,0.0717X0.0017*%
%ADD98R,0.0700X0.0017*%
%ADD99R,0.0717X0.0017*%
%ADD100R,0.0317X0.0017*%
%ADD101R,0.0333X0.0017*%
%ADD102R,0.0733X0.0017*%
%ADD103R,0.0717X0.0017*%
%ADD104R,0.0683X0.0017*%
%ADD105R,0.0650X0.0017*%
%ADD106R,0.0617X0.0017*%
%ADD107R,0.0600X0.0017*%
%ADD108R,0.0567X0.0017*%
%ADD109R,0.0367X0.0017*%
%ADD110R,0.0533X0.0017*%
%ADD111R,0.0367X0.0017*%
%ADD112R,0.0417X0.0017*%
%ADD113R,0.0550X0.0017*%
%ADD114R,0.0583X0.0017*%
%ADD115R,0.0733X0.0017*%
%ADD116R,0.0383X0.0017*%
%ADD117R,0.0767X0.0017*%
%ADD118R,0.0783X0.0017*%
%ADD119R,0.0033X0.0017*%
%ADD120R,0.0067X0.0017*%
%ADD121R,0.0533X0.0017*%
%ADD122R,0.0567X0.0017*%
%ADD123R,0.0517X0.0017*%
%ADD124R,0.0567X0.0017*%
%ADD125R,0.0517X0.0017*%
%ADD126R,0.0317X0.0017*%
%ADD127R,0.0067X0.0017*%
%ADD128R,0.0033X0.0017*%
%ADD129R,0.0467X0.0017*%
%ADD130R,0.0583X0.0017*%
%ADD131R,0.0600X0.0017*%
%ADD132R,0.0633X0.0017*%
%ADD133R,0.0683X0.0017*%
%ADD134R,0.0650X0.0017*%
%ADD135R,0.0717X0.0017*%
%ADD136R,0.0533X0.0017*%
%ADD137R,0.0883X0.0017*%
%ADD138R,0.0750X0.0017*%
%ADD139R,0.0883X0.0017*%
%ADD140R,0.0033X0.0017*%
%ADD141R,0.1717X0.0017*%
%ADD142R,0.1683X0.0017*%
%ADD143R,0.1650X0.0017*%
%ADD144R,0.1633X0.0017*%
%ADD145R,0.1333X0.0017*%
%ADD146R,0.1283X0.0017*%
%ADD147R,0.1233X0.0017*%
%ADD148R,0.1183X0.0017*%
%ADD149R,0.0867X0.0017*%
%ADD150R,0.0767X0.0017*%
%ADD151R,0.0050X0.0017*%
%ADD152C,0.0000*%
D10*
X005402Y008096D02*
X005402Y008206D01*
X005439Y008242D01*
X005476Y008206D01*
X005476Y008096D01*
X005549Y008096D02*
X005549Y008242D01*
X005512Y008242D01*
X005476Y008206D01*
X005623Y008206D02*
X005660Y008242D01*
X005733Y008242D01*
X005770Y008206D01*
X005770Y008132D01*
X005733Y008096D01*
X005660Y008096D01*
X005623Y008132D01*
X005623Y008206D01*
X005844Y008242D02*
X005954Y008242D01*
X005991Y008206D01*
X005991Y008132D01*
X005954Y008096D01*
X005844Y008096D01*
X006065Y008096D02*
X006102Y008096D01*
X006102Y008132D01*
X006065Y008132D01*
X006065Y008096D01*
X006176Y008132D02*
X006176Y008206D01*
X006212Y008242D01*
X006286Y008242D01*
X006323Y008206D01*
X006323Y008132D01*
X006286Y008096D01*
X006212Y008096D01*
X006176Y008132D01*
X006397Y008242D02*
X006433Y008242D01*
X006507Y008169D01*
X006507Y008096D02*
X006507Y008242D01*
X006581Y008242D02*
X006654Y008242D01*
X006617Y008279D02*
X006617Y008132D01*
X006581Y008096D01*
X006728Y008096D02*
X006838Y008096D01*
X006875Y008132D01*
X006875Y008206D01*
X006838Y008242D01*
X006728Y008242D01*
X006949Y008206D02*
X006949Y008169D01*
X007096Y008169D01*
X007096Y008206D02*
X007059Y008242D01*
X006986Y008242D01*
X006949Y008206D01*
X006986Y008096D02*
X007059Y008096D01*
X007096Y008132D01*
X007096Y008206D01*
X007170Y008096D02*
X007243Y008096D01*
X007207Y008096D02*
X007207Y008316D01*
X007243Y008316D01*
X007317Y008206D02*
X007317Y008169D01*
X007464Y008169D01*
X007464Y008206D02*
X007428Y008242D01*
X007354Y008242D01*
X007317Y008206D01*
X007354Y008096D02*
X007428Y008096D01*
X007464Y008132D01*
X007464Y008206D01*
X007538Y008206D02*
X007685Y008206D01*
X007759Y008242D02*
X007870Y008242D01*
X007906Y008206D01*
X007870Y008169D01*
X007796Y008169D01*
X007759Y008132D01*
X007796Y008096D01*
X007906Y008096D01*
X007980Y008132D02*
X008017Y008096D01*
X008091Y008096D01*
X008127Y008132D01*
X008127Y008206D01*
X008091Y008242D01*
X008017Y008242D01*
X007980Y008206D01*
X007980Y008132D01*
X008201Y008096D02*
X008312Y008096D01*
X008348Y008132D01*
X008348Y008206D01*
X008312Y008242D01*
X008201Y008242D01*
X008201Y008059D01*
X008238Y008022D01*
X008275Y008022D01*
X008422Y008132D02*
X008422Y008206D01*
X008459Y008242D01*
X008533Y008242D01*
X008569Y008206D01*
X008569Y008132D01*
X008533Y008096D01*
X008459Y008096D01*
X008422Y008132D01*
X008643Y008096D02*
X008717Y008096D01*
X008680Y008096D02*
X008680Y008316D01*
X008717Y008316D01*
X008790Y008132D02*
X008790Y008096D01*
X008827Y008096D01*
X008827Y008132D01*
X008790Y008132D01*
X008901Y008132D02*
X008901Y008242D01*
X008901Y008132D02*
X008938Y008096D01*
X008975Y008132D01*
X009011Y008096D01*
X009048Y008132D01*
X009048Y008242D01*
X009122Y008242D02*
X009122Y008132D01*
X009159Y008096D01*
X009196Y008132D01*
X009232Y008096D01*
X009269Y008132D01*
X009269Y008242D01*
X009343Y008242D02*
X009343Y008132D01*
X009380Y008096D01*
X009417Y008132D01*
X009453Y008096D01*
X009490Y008132D01*
X009490Y008242D01*
X009472Y008596D02*
X009436Y008632D01*
X009436Y008706D01*
X009472Y008742D01*
X009546Y008742D01*
X009583Y008706D01*
X009583Y008632D01*
X009546Y008596D01*
X009472Y008596D01*
X009325Y008596D02*
X009325Y008779D01*
X009288Y008816D01*
X009288Y008706D02*
X009362Y008706D01*
X009878Y008742D02*
X009951Y008742D01*
X009914Y008779D02*
X009914Y008632D01*
X009878Y008596D01*
X010025Y008596D02*
X010135Y008596D01*
X010172Y008632D01*
X010172Y008706D01*
X010135Y008742D01*
X010025Y008742D01*
X010246Y008742D02*
X010246Y008596D01*
X010356Y008596D01*
X010393Y008632D01*
X010393Y008742D01*
X010467Y008742D02*
X010577Y008742D01*
X010614Y008706D01*
X010614Y008632D01*
X010577Y008596D01*
X010467Y008596D01*
X010467Y008816D01*
X010688Y008706D02*
X010725Y008742D01*
X010798Y008742D01*
X010835Y008706D01*
X010835Y008632D01*
X010798Y008596D01*
X010725Y008596D01*
X010688Y008632D01*
X010688Y008706D01*
X010909Y008742D02*
X010946Y008742D01*
X011019Y008669D01*
X011019Y008596D02*
X011019Y008742D01*
X011093Y008706D02*
X011130Y008669D01*
X011240Y008669D01*
X011240Y008596D02*
X011240Y008816D01*
X011130Y008816D01*
X011093Y008779D01*
X011093Y008706D01*
X008993Y008816D02*
X008993Y008596D01*
X008846Y008596D01*
X008772Y008632D02*
X008736Y008596D01*
X008662Y008596D01*
X008626Y008632D01*
X008626Y008706D01*
X008662Y008742D01*
X008736Y008742D01*
X008772Y008706D01*
X008772Y008632D01*
X008551Y008632D02*
X008515Y008596D01*
X008405Y008596D01*
X008405Y008559D02*
X008405Y008742D01*
X008515Y008742D01*
X008551Y008706D01*
X008551Y008632D01*
X008478Y008522D02*
X008441Y008522D01*
X008405Y008559D01*
X008330Y008632D02*
X008294Y008596D01*
X008220Y008596D01*
X008184Y008632D01*
X008184Y008706D01*
X008220Y008742D01*
X008294Y008742D01*
X008330Y008706D01*
X008330Y008632D01*
X008109Y008596D02*
X007999Y008596D01*
X007963Y008632D01*
X007999Y008669D01*
X008073Y008669D01*
X008109Y008706D01*
X008073Y008742D01*
X007963Y008742D01*
X007667Y008706D02*
X007594Y008706D01*
X007667Y008816D02*
X007667Y008596D01*
X007521Y008596D01*
X007446Y008596D02*
X007373Y008596D01*
X007410Y008596D02*
X007410Y008816D01*
X007446Y008816D01*
X007521Y008816D02*
X007667Y008816D01*
X007299Y008706D02*
X007262Y008742D01*
X007189Y008742D01*
X007152Y008706D01*
X007152Y008669D01*
X007299Y008669D01*
X007299Y008632D02*
X007299Y008706D01*
X007299Y008632D02*
X007262Y008596D01*
X007189Y008596D01*
X007078Y008632D02*
X007041Y008596D01*
X006931Y008596D01*
X006820Y008632D02*
X006784Y008596D01*
X006820Y008632D02*
X006820Y008779D01*
X006784Y008742D02*
X006857Y008742D01*
X006931Y008742D02*
X007041Y008742D01*
X007078Y008706D01*
X007078Y008632D01*
X006710Y008596D02*
X006710Y008742D01*
X006710Y008669D02*
X006636Y008742D01*
X006600Y008742D01*
X006526Y008706D02*
X006526Y008632D01*
X006489Y008596D01*
X006415Y008596D01*
X006379Y008632D01*
X006379Y008706D01*
X006415Y008742D01*
X006489Y008742D01*
X006526Y008706D01*
X006305Y008742D02*
X006268Y008742D01*
X006231Y008706D01*
X006195Y008742D01*
X006158Y008706D01*
X006158Y008596D01*
X006231Y008596D02*
X006231Y008706D01*
X006305Y008742D02*
X006305Y008596D01*
X006084Y008632D02*
X006084Y008706D01*
X006047Y008742D01*
X005974Y008742D01*
X005937Y008706D01*
X005937Y008669D01*
X006084Y008669D01*
X006084Y008632D02*
X006047Y008596D01*
X005974Y008596D01*
X005863Y008632D02*
X005826Y008596D01*
X005716Y008596D01*
X005642Y008596D02*
X005642Y008816D01*
X005605Y008742D02*
X005532Y008742D01*
X005495Y008706D01*
X005495Y008596D01*
X005421Y008632D02*
X005384Y008669D01*
X005274Y008669D01*
X005274Y008706D02*
X005274Y008596D01*
X005384Y008596D01*
X005421Y008632D01*
X005384Y008742D02*
X005311Y008742D01*
X005274Y008706D01*
X005200Y008742D02*
X005090Y008742D01*
X005053Y008706D01*
X005053Y008596D01*
X004979Y008596D02*
X004905Y008596D01*
X004942Y008596D02*
X004942Y008742D01*
X004979Y008742D01*
X004942Y008816D02*
X004942Y008852D01*
X004831Y008706D02*
X004831Y008632D01*
X004795Y008596D01*
X004685Y008596D01*
X004610Y008632D02*
X004574Y008669D01*
X004464Y008669D01*
X004464Y008706D02*
X004464Y008596D01*
X004574Y008596D01*
X004610Y008632D01*
X004574Y008742D02*
X004500Y008742D01*
X004464Y008706D01*
X004389Y008816D02*
X004353Y008816D01*
X004353Y008596D01*
X004389Y008596D02*
X004316Y008596D01*
X004685Y008742D02*
X004795Y008742D01*
X004831Y008706D01*
X005200Y008742D02*
X005200Y008596D01*
X005605Y008742D02*
X005642Y008706D01*
X005716Y008742D02*
X005826Y008742D01*
X005863Y008706D01*
X005863Y008632D01*
D11*
X004943Y017626D02*
X004846Y017626D01*
X004797Y017675D01*
X004797Y017916D01*
X004696Y017868D02*
X004696Y017820D01*
X004648Y017771D01*
X004551Y017771D01*
X004503Y017723D01*
X004503Y017675D01*
X004551Y017626D01*
X004648Y017626D01*
X004696Y017675D01*
X004696Y017868D02*
X004648Y017916D01*
X004551Y017916D01*
X004503Y017868D01*
X004402Y017916D02*
X004256Y017916D01*
X004208Y017868D01*
X004208Y017820D01*
X004256Y017771D01*
X004402Y017771D01*
X004402Y017626D02*
X004256Y017626D01*
X004208Y017675D01*
X004208Y017723D01*
X004256Y017771D01*
X004107Y017771D02*
X003913Y017771D01*
X004010Y017675D02*
X004010Y017868D01*
X004402Y017916D02*
X004402Y017626D01*
X004943Y017626D02*
X004991Y017675D01*
X004991Y017916D01*
X004943Y018626D02*
X004846Y018626D01*
X004797Y018675D01*
X004797Y018916D01*
X004696Y018868D02*
X004696Y018820D01*
X004648Y018771D01*
X004551Y018771D01*
X004503Y018723D01*
X004503Y018675D01*
X004551Y018626D01*
X004648Y018626D01*
X004696Y018675D01*
X004696Y018868D02*
X004648Y018916D01*
X004551Y018916D01*
X004503Y018868D01*
X004402Y018916D02*
X004256Y018916D01*
X004208Y018868D01*
X004208Y018820D01*
X004256Y018771D01*
X004402Y018771D01*
X004402Y018626D02*
X004256Y018626D01*
X004208Y018675D01*
X004208Y018723D01*
X004256Y018771D01*
X004107Y018771D02*
X003913Y018771D01*
X004402Y018626D02*
X004402Y018916D01*
X004991Y018916D02*
X004991Y018675D01*
X004943Y018626D01*
X004943Y019626D02*
X004846Y019626D01*
X004797Y019675D01*
X004797Y019916D01*
X004696Y019868D02*
X004696Y019820D01*
X004648Y019771D01*
X004551Y019771D01*
X004503Y019723D01*
X004503Y019675D01*
X004551Y019626D01*
X004648Y019626D01*
X004696Y019675D01*
X004696Y019868D02*
X004648Y019916D01*
X004551Y019916D01*
X004503Y019868D01*
X004402Y019916D02*
X004256Y019916D01*
X004208Y019868D01*
X004208Y019820D01*
X004256Y019771D01*
X004402Y019771D01*
X004402Y019626D02*
X004256Y019626D01*
X004208Y019675D01*
X004208Y019723D01*
X004256Y019771D01*
X004107Y019771D02*
X003913Y019771D01*
X003812Y019771D02*
X003716Y019820D01*
X003667Y019820D01*
X003619Y019771D01*
X003619Y019675D01*
X003667Y019626D01*
X003764Y019626D01*
X003812Y019675D01*
X003812Y019771D02*
X003812Y019916D01*
X003619Y019916D01*
X003518Y019916D02*
X003518Y019723D01*
X003421Y019626D01*
X003324Y019723D01*
X003324Y019916D01*
X004402Y019916D02*
X004402Y019626D01*
X004943Y019626D02*
X004991Y019675D01*
X004991Y019916D01*
X012757Y018971D02*
X012880Y018971D01*
X012818Y018971D02*
X012818Y018601D01*
X012757Y018601D02*
X012880Y018601D01*
X013001Y018662D02*
X013063Y018601D01*
X013187Y018601D01*
X013248Y018662D01*
X013370Y018662D02*
X013370Y018909D01*
X013432Y018971D01*
X013555Y018971D01*
X013617Y018909D01*
X013617Y018662D01*
X013555Y018601D01*
X013432Y018601D01*
X013370Y018662D01*
X013187Y018786D02*
X013063Y018786D01*
X013001Y018724D01*
X013001Y018662D01*
X013187Y018786D02*
X013248Y018847D01*
X013248Y018909D01*
X013187Y018971D01*
X013063Y018971D01*
X013001Y018909D01*
X013738Y018971D02*
X013738Y018601D01*
X013985Y018601D02*
X013985Y018971D01*
X013862Y018847D01*
X013738Y018971D01*
X016001Y018971D02*
X016001Y018601D01*
X016248Y018601D02*
X016248Y018971D01*
X016125Y018847D01*
X016001Y018971D01*
X016370Y018971D02*
X016370Y018601D01*
X016493Y018724D01*
X016617Y018601D01*
X016617Y018971D01*
X016738Y018909D02*
X016800Y018971D01*
X016985Y018971D01*
X016985Y018601D01*
X016985Y018724D02*
X016800Y018724D01*
X016738Y018786D01*
X016738Y018909D01*
X024686Y005721D02*
X024809Y005721D01*
X024871Y005659D01*
X024871Y005412D01*
X024809Y005351D01*
X024686Y005351D01*
X024624Y005412D01*
X024624Y005659D02*
X024686Y005721D01*
X024993Y005659D02*
X024993Y005597D01*
X025239Y005351D01*
X024993Y005351D01*
X024993Y005659D02*
X025054Y005721D01*
X025178Y005721D01*
X025239Y005659D01*
X025362Y005721D02*
X025485Y005721D01*
X025423Y005721D02*
X025423Y005351D01*
X025362Y005351D02*
X025485Y005351D01*
X026265Y004879D02*
X026327Y004941D01*
X026635Y004941D01*
X026635Y005002D02*
X026635Y004879D01*
X026450Y004634D02*
X026450Y004387D01*
X026388Y004266D02*
X026450Y004204D01*
X026450Y004019D01*
X026327Y004019D01*
X026265Y004081D01*
X026265Y004204D01*
X026327Y004266D01*
X026388Y004266D01*
X026574Y004142D02*
X026450Y004019D01*
X026450Y003897D02*
X026450Y003651D01*
X026512Y003651D02*
X026265Y003651D01*
X026265Y003897D02*
X026512Y003897D01*
X026635Y003774D01*
X026512Y003651D01*
X026574Y004142D02*
X026635Y004266D01*
X026327Y004756D02*
X026265Y004817D01*
X026265Y004879D01*
X026071Y003321D02*
X025948Y003197D01*
X025948Y002951D01*
X025827Y002951D02*
X025827Y003321D01*
X025580Y002951D01*
X025580Y003321D01*
X025458Y003197D02*
X025458Y002951D01*
X025458Y003136D02*
X025211Y003136D01*
X025211Y003197D02*
X025211Y002951D01*
X025090Y002951D02*
X024843Y002951D01*
X024722Y003012D02*
X024660Y002951D01*
X024536Y002951D01*
X024475Y003012D01*
X024475Y003259D01*
X024536Y003321D01*
X024660Y003321D01*
X024722Y003259D01*
X024722Y003012D01*
X025090Y002951D02*
X025090Y003321D01*
X025211Y003197D02*
X025335Y003321D01*
X025458Y003197D01*
X025948Y003136D02*
X026195Y003136D01*
X026195Y003197D02*
X026195Y002951D01*
X026195Y003197D02*
X026071Y003321D01*
X024353Y003259D02*
X024353Y003012D01*
X024292Y002951D01*
X024168Y002951D01*
X024106Y003012D01*
X024106Y003136D01*
X024230Y003136D01*
X024353Y003259D02*
X024292Y003321D01*
X024168Y003321D01*
X024106Y003259D01*
X022985Y003451D02*
X022862Y003574D01*
X022615Y003574D01*
X022677Y003696D02*
X022615Y003757D01*
X022615Y003881D01*
X022677Y003943D01*
X022800Y003943D01*
X022862Y003881D01*
X022862Y003819D01*
X022800Y003696D01*
X022985Y003696D01*
X022985Y003943D01*
X022800Y004064D02*
X022800Y004311D01*
X022677Y004432D02*
X022615Y004494D01*
X022615Y004556D01*
X022677Y004617D01*
X022985Y004617D01*
X022985Y004556D02*
X022985Y004679D01*
X022800Y003574D02*
X022800Y003327D01*
X022862Y003327D02*
X022985Y003451D01*
X022862Y003327D02*
X022615Y003327D01*
D12*
X009940Y007836D02*
X009750Y008026D01*
X009920Y008266D01*
X009932Y008297D02*
X010406Y008297D01*
X010377Y008239D02*
X009949Y008239D01*
X009950Y008236D02*
X009800Y008036D01*
X009950Y007886D01*
X010150Y008036D01*
X010250Y007986D01*
X010450Y008386D01*
X010250Y008586D01*
X010250Y008836D01*
X010400Y009086D01*
X010650Y009136D01*
X010950Y009036D01*
X010900Y009036D01*
X011050Y008786D01*
X010950Y008486D01*
X010850Y008386D01*
X011000Y007986D01*
X011100Y008036D01*
X011300Y007886D01*
X011450Y008036D01*
X011300Y008286D01*
X011400Y008536D01*
X011700Y008636D01*
X011700Y008586D01*
X011700Y008836D01*
X011400Y008886D01*
X011300Y009186D01*
X011500Y009386D01*
X011350Y009536D01*
X011050Y009386D01*
X010750Y009536D01*
X010800Y009536D01*
X010750Y009786D01*
X010500Y009786D01*
X010500Y009486D01*
X010200Y009386D01*
X009950Y009536D01*
X009800Y009436D01*
X009950Y009136D01*
X009850Y008886D01*
X009550Y008836D01*
X009550Y008586D01*
X009850Y008586D01*
X009950Y008236D01*
X009908Y008180D02*
X010347Y008180D01*
X010318Y008122D02*
X009865Y008122D01*
X009821Y008063D02*
X010289Y008063D01*
X010260Y008005D02*
X010212Y008005D01*
X010180Y008006D02*
X010280Y007946D01*
X010470Y008396D01*
X010421Y008414D02*
X009899Y008414D01*
X009916Y008356D02*
X010435Y008356D01*
X010363Y008473D02*
X009882Y008473D01*
X009866Y008531D02*
X010304Y008531D01*
X010250Y008590D02*
X009550Y008590D01*
X009520Y008586D02*
X009820Y008536D01*
X009550Y008648D02*
X010250Y008648D01*
X010250Y008707D02*
X009550Y008707D01*
X009550Y008765D02*
X010250Y008765D01*
X010250Y008824D02*
X009550Y008824D01*
X009520Y008846D02*
X009520Y008586D01*
X009520Y008846D02*
X009820Y008906D01*
X009829Y008882D02*
X010278Y008882D01*
X010313Y008941D02*
X009872Y008941D01*
X009895Y008999D02*
X010348Y008999D01*
X010383Y009058D02*
X009919Y009058D01*
X009942Y009116D02*
X010553Y009116D01*
X010708Y009116D02*
X011323Y009116D01*
X011340Y009156D02*
X011520Y009416D01*
X011330Y009596D01*
X011070Y009416D01*
X011096Y009409D02*
X011477Y009409D01*
X011465Y009350D02*
X009843Y009350D01*
X009872Y009292D02*
X011406Y009292D01*
X011348Y009233D02*
X009901Y009233D01*
X009930Y009175D02*
X011304Y009175D01*
X011343Y009058D02*
X010884Y009058D01*
X010922Y008999D02*
X011362Y008999D01*
X011382Y008941D02*
X010957Y008941D01*
X010992Y008882D02*
X011421Y008882D01*
X011450Y008906D02*
X011750Y008846D01*
X011750Y008586D01*
X011450Y008536D01*
X011398Y008531D02*
X010965Y008531D01*
X010985Y008590D02*
X011562Y008590D01*
X011700Y008648D02*
X011004Y008648D01*
X011024Y008707D02*
X011700Y008707D01*
X011700Y008765D02*
X011043Y008765D01*
X011027Y008824D02*
X011700Y008824D01*
X011375Y008473D02*
X010937Y008473D01*
X010879Y008414D02*
X011351Y008414D01*
X011328Y008356D02*
X010861Y008356D01*
X010883Y008297D02*
X011305Y008297D01*
X011350Y008266D02*
X011510Y008026D01*
X011330Y007836D01*
X011090Y008006D01*
X010990Y007946D01*
X010790Y008396D01*
X010905Y008239D02*
X011328Y008239D01*
X011363Y008180D02*
X010927Y008180D01*
X010949Y008122D02*
X011398Y008122D01*
X011433Y008063D02*
X010971Y008063D01*
X010993Y008005D02*
X011038Y008005D01*
X011141Y008005D02*
X011419Y008005D01*
X011361Y007946D02*
X011219Y007946D01*
X011297Y007888D02*
X011302Y007888D01*
X009920Y008266D02*
X009897Y008307D01*
X009876Y008350D01*
X009858Y008395D01*
X009843Y008440D01*
X009830Y008486D01*
X009820Y008533D01*
X009831Y008005D02*
X010109Y008005D01*
X010180Y008006D02*
X009940Y007836D01*
X009948Y007888D02*
X009953Y007888D01*
X009889Y007946D02*
X010031Y007946D01*
X009821Y008906D02*
X009836Y008958D01*
X009855Y009009D01*
X009877Y009059D01*
X009902Y009107D01*
X009931Y009154D01*
X009930Y009156D02*
X009750Y009416D01*
X009940Y009596D01*
X010200Y009416D01*
X010162Y009409D02*
X009813Y009409D01*
X009847Y009467D02*
X010064Y009467D01*
X009967Y009526D02*
X009935Y009526D01*
X010269Y009409D02*
X011004Y009409D01*
X010887Y009467D02*
X010445Y009467D01*
X010450Y009516D02*
X010500Y009836D01*
X010770Y009836D01*
X010820Y009516D01*
X010770Y009526D02*
X010500Y009526D01*
X010500Y009584D02*
X010790Y009584D01*
X010779Y009643D02*
X010500Y009643D01*
X010500Y009701D02*
X010767Y009701D01*
X010755Y009760D02*
X010500Y009760D01*
X011213Y009467D02*
X011418Y009467D01*
X011360Y009526D02*
X011330Y009526D01*
X010790Y008406D02*
X010823Y008424D01*
X010853Y008445D01*
X010882Y008469D01*
X010908Y008496D01*
X010930Y008525D01*
X010950Y008557D01*
X010967Y008590D01*
X010980Y008625D01*
X010989Y008661D01*
X010995Y008698D01*
X010997Y008735D01*
X010995Y008772D01*
X010990Y008809D01*
X010980Y008845D01*
X010968Y008880D01*
X010951Y008914D01*
X010932Y008945D01*
X010909Y008975D01*
X010883Y009002D01*
X010855Y009026D01*
X010824Y009047D01*
X010792Y009065D01*
X010758Y009080D01*
X010722Y009091D01*
X010686Y009099D01*
X010649Y009103D01*
X010611Y009103D01*
X010574Y009099D01*
X010538Y009091D01*
X010502Y009080D01*
X010468Y009065D01*
X010436Y009047D01*
X010405Y009026D01*
X010377Y009002D01*
X010351Y008975D01*
X010328Y008945D01*
X010309Y008914D01*
X010292Y008880D01*
X010280Y008845D01*
X010270Y008809D01*
X010265Y008772D01*
X010263Y008735D01*
X010265Y008698D01*
X010271Y008661D01*
X010280Y008625D01*
X010293Y008590D01*
X010310Y008557D01*
X010330Y008525D01*
X010352Y008496D01*
X010378Y008469D01*
X010407Y008445D01*
X010437Y008424D01*
X010470Y008406D01*
X011346Y008268D02*
X011374Y008318D01*
X011398Y008370D01*
X011419Y008423D01*
X011436Y008478D01*
X011449Y008534D01*
X011067Y009419D02*
X011022Y009444D01*
X010975Y009467D01*
X010927Y009486D01*
X010878Y009503D01*
X010828Y009516D01*
X011339Y009151D02*
X011366Y009104D01*
X011390Y009057D01*
X011411Y009008D01*
X011429Y008957D01*
X011443Y008906D01*
X010445Y009518D02*
X010393Y009504D01*
X010342Y009487D01*
X010292Y009467D01*
X010243Y009444D01*
X010196Y009417D01*
X013150Y018436D02*
X014850Y018436D01*
X014867Y018438D01*
X014884Y018442D01*
X014900Y018449D01*
X014914Y018459D01*
X014927Y018472D01*
X014937Y018486D01*
X014944Y018502D01*
X014948Y018519D01*
X014950Y018536D01*
X014950Y019136D01*
X014948Y019153D01*
X014944Y019170D01*
X014937Y019186D01*
X014927Y019200D01*
X014914Y019213D01*
X014900Y019223D01*
X014884Y019230D01*
X014867Y019234D01*
X014850Y019236D01*
X013150Y019236D01*
X013133Y019234D01*
X013116Y019230D01*
X013100Y019223D01*
X013086Y019213D01*
X013073Y019200D01*
X013063Y019186D01*
X013056Y019170D01*
X013052Y019153D01*
X013050Y019136D01*
X013050Y018536D01*
X013052Y018519D01*
X013056Y018502D01*
X013063Y018486D01*
X013073Y018472D01*
X013086Y018459D01*
X013100Y018449D01*
X013116Y018442D01*
X013133Y018438D01*
X013150Y018436D01*
X024200Y005286D02*
X024800Y005286D01*
X024817Y005284D01*
X024834Y005280D01*
X024850Y005273D01*
X024864Y005263D01*
X024877Y005250D01*
X024887Y005236D01*
X024894Y005220D01*
X024898Y005203D01*
X024900Y005186D01*
X024900Y003486D01*
X024898Y003469D01*
X024894Y003452D01*
X024887Y003436D01*
X024877Y003422D01*
X024864Y003409D01*
X024850Y003399D01*
X024834Y003392D01*
X024817Y003388D01*
X024800Y003386D01*
X024200Y003386D01*
X024183Y003388D01*
X024166Y003392D01*
X024150Y003399D01*
X024136Y003409D01*
X024123Y003422D01*
X024113Y003436D01*
X024106Y003452D01*
X024102Y003469D01*
X024100Y003486D01*
X024100Y005186D01*
X024102Y005203D01*
X024106Y005220D01*
X024113Y005236D01*
X024123Y005250D01*
X024136Y005263D01*
X024150Y005273D01*
X024166Y005280D01*
X024183Y005284D01*
X024200Y005286D01*
X025350Y005186D02*
X025350Y003486D01*
X025352Y003469D01*
X025356Y003452D01*
X025363Y003436D01*
X025373Y003422D01*
X025386Y003409D01*
X025400Y003399D01*
X025416Y003392D01*
X025433Y003388D01*
X025450Y003386D01*
X026050Y003386D01*
X026067Y003388D01*
X026084Y003392D01*
X026100Y003399D01*
X026114Y003409D01*
X026127Y003422D01*
X026137Y003436D01*
X026144Y003452D01*
X026148Y003469D01*
X026150Y003486D01*
X026150Y005186D01*
X026148Y005203D01*
X026144Y005220D01*
X026137Y005236D01*
X026127Y005250D01*
X026114Y005263D01*
X026100Y005273D01*
X026084Y005280D01*
X026067Y005284D01*
X026050Y005286D01*
X025450Y005286D01*
X025433Y005284D01*
X025416Y005280D01*
X025400Y005273D01*
X025386Y005263D01*
X025373Y005250D01*
X025363Y005236D01*
X025356Y005220D01*
X025352Y005203D01*
X025350Y005186D01*
D13*
X014802Y017876D02*
X014621Y017876D01*
X014561Y017936D01*
X014561Y018176D01*
X014621Y018236D01*
X014802Y018236D01*
X014802Y017876D01*
X014433Y017876D02*
X014193Y017876D01*
X014313Y017876D02*
X014313Y018236D01*
X014433Y018116D01*
X014065Y018116D02*
X013945Y018236D01*
X013945Y017876D01*
X014065Y017876D02*
X013825Y017876D01*
X013697Y018056D02*
X013456Y018056D01*
X013328Y017936D02*
X013268Y017876D01*
X013208Y017876D01*
X013148Y017936D01*
X013148Y018236D01*
X013208Y018236D02*
X013088Y018236D01*
X012082Y019631D02*
X012082Y020092D01*
X011929Y020092D02*
X012236Y020092D01*
X011776Y020092D02*
X011776Y019631D01*
X011776Y019785D02*
X011545Y019785D01*
X011469Y019861D01*
X011469Y020015D01*
X011545Y020092D01*
X011776Y020092D01*
X011622Y019785D02*
X011469Y019631D01*
X011315Y019631D02*
X011162Y019631D01*
X011238Y019631D02*
X011238Y020092D01*
X011162Y020092D02*
X011315Y020092D01*
X011008Y020015D02*
X011008Y019708D01*
X010931Y019631D01*
X010778Y019631D01*
X010701Y019708D01*
X010701Y019861D01*
X010855Y019861D01*
X011008Y020015D02*
X010931Y020092D01*
X010778Y020092D01*
X010701Y020015D01*
D14*
X009617Y012519D03*
X007983Y012552D03*
X007283Y012119D03*
X010483Y010102D03*
X010467Y010069D03*
X010467Y010052D03*
X008733Y009119D03*
D15*
X008725Y009136D03*
X007575Y010586D03*
X007575Y010636D03*
X007575Y010686D03*
X007575Y011136D03*
X007575Y011186D03*
X007575Y011236D03*
X007575Y011286D03*
D16*
X008725Y009152D03*
D17*
X008725Y009169D03*
D18*
X008717Y009186D03*
D19*
X008717Y009202D03*
D20*
X008725Y009219D03*
D21*
X009150Y009236D03*
X008700Y011036D03*
X010350Y011986D03*
D22*
X009567Y011736D03*
X007667Y012436D03*
X008300Y009236D03*
D23*
X008217Y009252D03*
X007833Y010119D03*
X008700Y011002D03*
X008517Y011202D03*
X006850Y011302D03*
X006833Y011219D03*
X009233Y009252D03*
X010233Y009669D03*
X010250Y009652D03*
X010483Y010119D03*
X010633Y010519D03*
X010583Y011502D03*
X010583Y011519D03*
X010567Y011552D03*
X010567Y011569D03*
X010550Y011602D03*
X009633Y012502D03*
D24*
X010358Y011902D03*
X010575Y011469D03*
X010658Y010969D03*
X010475Y010152D03*
X010192Y009752D03*
X009292Y009269D03*
X008425Y011352D03*
X008425Y011369D03*
X007275Y012069D03*
X007008Y011669D03*
X006892Y011369D03*
X009408Y011652D03*
D25*
X010350Y011919D03*
X008150Y009269D03*
X006850Y011202D03*
D26*
X007992Y010236D03*
X009342Y009286D03*
X010558Y011436D03*
D27*
X010350Y011886D03*
X008100Y009286D03*
D28*
X008008Y009319D03*
X007758Y009869D03*
X008158Y010402D03*
X008208Y010452D03*
X008258Y010502D03*
X008308Y010552D03*
X008358Y010602D03*
X008408Y010652D03*
X008458Y010702D03*
X008942Y011202D03*
X008958Y011219D03*
X008992Y011252D03*
X009008Y011269D03*
X009042Y011302D03*
X009058Y011319D03*
X009092Y011352D03*
X009108Y011369D03*
X009142Y011402D03*
X009158Y011419D03*
X009192Y011452D03*
X009208Y011469D03*
X009242Y011502D03*
X009258Y011519D03*
X009292Y011552D03*
X009308Y011569D03*
X010042Y012202D03*
X009742Y012419D03*
X009392Y009302D03*
D29*
X010467Y010169D03*
X009333Y011602D03*
X008517Y011252D03*
X008500Y011269D03*
X008517Y010769D03*
X008500Y010752D03*
X008133Y010369D03*
X008117Y010352D03*
X008083Y010319D03*
X008067Y010302D03*
X008033Y010269D03*
X008017Y010252D03*
X008050Y009302D03*
X006883Y011169D03*
X010033Y012219D03*
X010350Y011869D03*
D30*
X009817Y012369D03*
X008483Y011302D03*
X008933Y010719D03*
X008983Y010669D03*
X009033Y010619D03*
X009433Y009319D03*
X007533Y012269D03*
X007583Y012302D03*
D31*
X009467Y009336D03*
D32*
X007975Y009336D03*
X006958Y011386D03*
X007508Y012236D03*
X007558Y012286D03*
X009642Y012136D03*
X010342Y011836D03*
D33*
X010600Y010919D03*
X010450Y010219D03*
X009500Y009352D03*
X007900Y009369D03*
X007500Y012519D03*
D34*
X007467Y012202D03*
X007933Y012719D03*
X007033Y011602D03*
X009533Y011919D03*
X010583Y011152D03*
X010583Y010669D03*
X007933Y009352D03*
D35*
X007817Y009419D03*
X009533Y009369D03*
X009567Y010102D03*
X009467Y010202D03*
X009433Y010269D03*
X009400Y010302D03*
X009383Y010319D03*
X010200Y009852D03*
X010217Y009869D03*
X010250Y009919D03*
X010283Y009969D03*
X010317Y009602D03*
X010333Y011802D03*
X010150Y012052D03*
X010117Y012102D03*
X010100Y012119D03*
X010067Y012152D03*
X009667Y012169D03*
X009567Y012069D03*
X009533Y011952D03*
X010167Y012402D03*
X009767Y012669D03*
X009317Y012819D03*
X008850Y012869D03*
X008850Y012902D03*
X008383Y012869D03*
X008383Y012852D03*
X007917Y012752D03*
X007150Y012219D03*
X007267Y011969D03*
X007233Y011919D03*
X007217Y011902D03*
X007200Y011869D03*
X007183Y011852D03*
D36*
X007042Y011536D03*
X007008Y011436D03*
X007742Y011086D03*
X007742Y011036D03*
X007742Y010836D03*
X007742Y010786D03*
X007742Y010736D03*
X008342Y011386D03*
X008308Y011436D03*
X008258Y011486D03*
X009108Y010586D03*
X009158Y010536D03*
X009458Y010236D03*
X010008Y010736D03*
X010008Y010786D03*
X010008Y010836D03*
X010008Y010886D03*
X010008Y010936D03*
X010008Y010986D03*
X010008Y011036D03*
X010008Y011086D03*
X010342Y011786D03*
X010458Y012036D03*
X010292Y009986D03*
X010258Y009936D03*
X009558Y009386D03*
X007708Y009486D03*
D37*
X007875Y009386D03*
X009475Y010186D03*
X009525Y010136D03*
X010525Y011386D03*
X007925Y012736D03*
X007275Y011986D03*
X006925Y011136D03*
D38*
X006933Y011119D03*
X006933Y011102D03*
X006933Y011069D03*
X006933Y011052D03*
X006933Y011019D03*
X006933Y011002D03*
X006933Y010969D03*
X006933Y010952D03*
X006933Y010919D03*
X006933Y010902D03*
X007017Y011469D03*
X007033Y011519D03*
X007467Y012569D03*
X008367Y012919D03*
X009333Y012869D03*
X009783Y012702D03*
X009533Y012019D03*
X009533Y012002D03*
X009533Y011969D03*
X010367Y011719D03*
X009167Y010519D03*
X009183Y010502D03*
X009217Y010469D03*
X009233Y010452D03*
X009267Y010419D03*
X009283Y010402D03*
X009317Y010369D03*
X009333Y010352D03*
X009633Y010019D03*
X009667Y009969D03*
X010433Y010252D03*
X010433Y010269D03*
X009617Y009419D03*
X009583Y009402D03*
X007767Y009819D03*
X007667Y009519D03*
X008317Y011419D03*
D39*
X007258Y011952D03*
X008392Y012819D03*
X008842Y012852D03*
X009308Y012802D03*
X009758Y012652D03*
X010058Y012169D03*
X009658Y012152D03*
X009608Y012102D03*
X010342Y011819D03*
X009492Y010169D03*
X009508Y010152D03*
X009542Y010119D03*
X007892Y010069D03*
X007842Y009402D03*
D40*
X007525Y009636D03*
X007475Y009686D03*
X007325Y010736D03*
X006958Y010686D03*
X006942Y010786D03*
X006942Y010836D03*
X007942Y011786D03*
X007992Y011736D03*
X008042Y011686D03*
X008092Y011636D03*
X008142Y011586D03*
X008192Y011536D03*
X009542Y012036D03*
X010358Y011736D03*
X010408Y011636D03*
X010475Y010386D03*
X010458Y010336D03*
X010442Y010286D03*
X009692Y009936D03*
X009658Y009986D03*
X009625Y009436D03*
D41*
X010233Y009886D03*
X010433Y010236D03*
X010517Y010436D03*
X010567Y010686D03*
X009417Y010286D03*
X007783Y009436D03*
X007183Y011836D03*
X007217Y011886D03*
X008850Y012886D03*
X009533Y011936D03*
X010083Y012136D03*
X010167Y012036D03*
D42*
X008850Y013002D03*
X010550Y010869D03*
X010550Y010852D03*
X010550Y010819D03*
X010550Y010802D03*
X010550Y010769D03*
X010550Y010752D03*
X010550Y010719D03*
X009700Y009919D03*
X009700Y009502D03*
X009650Y009452D03*
X007450Y009719D03*
X007400Y009769D03*
X007250Y009969D03*
X007050Y010352D03*
X007000Y010502D03*
X007000Y010519D03*
X006950Y010752D03*
D43*
X007008Y011452D03*
X007042Y011552D03*
X007042Y011569D03*
X007742Y011119D03*
X007742Y011102D03*
X007742Y011069D03*
X007742Y011052D03*
X007742Y011019D03*
X007742Y010819D03*
X007742Y010802D03*
X007742Y010769D03*
X007742Y010752D03*
X008292Y011452D03*
X009092Y010602D03*
X009142Y010552D03*
X009442Y010252D03*
X009458Y010219D03*
X009592Y010069D03*
X009608Y010052D03*
X010242Y009902D03*
X010008Y010752D03*
X010008Y010769D03*
X010008Y010802D03*
X010008Y010819D03*
X010008Y010852D03*
X010008Y010869D03*
X010008Y010902D03*
X010008Y010919D03*
X010008Y010952D03*
X010008Y010969D03*
X010008Y011002D03*
X010008Y011019D03*
X010008Y011052D03*
X010008Y011069D03*
X010008Y011102D03*
X010008Y011119D03*
X010142Y012069D03*
X007908Y012769D03*
X007692Y009502D03*
X007742Y009469D03*
X007758Y009452D03*
D44*
X007467Y009702D03*
X007417Y009752D03*
X007367Y009802D03*
X007333Y009852D03*
X007317Y009869D03*
X007283Y009919D03*
X007217Y010019D03*
X007183Y010069D03*
X007167Y010102D03*
X007133Y010169D03*
X007117Y010202D03*
X007083Y010269D03*
X007067Y010319D03*
X007033Y010402D03*
X007017Y010452D03*
X007017Y010469D03*
X006983Y010552D03*
X006983Y010569D03*
X006983Y010602D03*
X006967Y010619D03*
X006967Y010652D03*
X006967Y010669D03*
X007317Y010752D03*
X007317Y010769D03*
X007317Y010802D03*
X007317Y011052D03*
X007317Y011069D03*
X007317Y011102D03*
X007917Y011819D03*
X008317Y011402D03*
X009583Y010769D03*
X009583Y010752D03*
X009717Y009902D03*
X009667Y009469D03*
X010483Y010419D03*
X010533Y011169D03*
X010533Y011202D03*
X010533Y011219D03*
X010517Y011252D03*
X010517Y011269D03*
X010517Y011302D03*
X007917Y010052D03*
D45*
X007433Y009736D03*
X007383Y009786D03*
X007267Y009936D03*
X006983Y010586D03*
X006967Y010636D03*
X007317Y010786D03*
X007317Y011086D03*
X007133Y012236D03*
X007883Y012836D03*
X010517Y011286D03*
X010533Y011236D03*
X010533Y011186D03*
X009583Y010736D03*
X009717Y009886D03*
X009683Y009486D03*
X010333Y009586D03*
D46*
X009758Y009802D03*
X009742Y009852D03*
X009708Y009519D03*
X007358Y009819D03*
X007292Y009902D03*
X007258Y009952D03*
X007192Y010052D03*
X007158Y010119D03*
X007142Y010152D03*
X007108Y010219D03*
X007092Y010252D03*
X007042Y010369D03*
X007308Y010819D03*
X007308Y010852D03*
X007308Y011019D03*
X007908Y011852D03*
X007892Y011869D03*
X007858Y011902D03*
X008358Y012969D03*
X008858Y013019D03*
X009342Y012919D03*
X009842Y011869D03*
X010692Y011619D03*
D47*
X009575Y010836D03*
X009575Y010786D03*
X009725Y009536D03*
X007175Y010086D03*
X007125Y010186D03*
X007075Y010286D03*
X007025Y010436D03*
X006875Y011836D03*
X007875Y011886D03*
D48*
X007900Y012786D03*
X008850Y012936D03*
X009200Y010486D03*
X009250Y010436D03*
X009300Y010386D03*
X009350Y010336D03*
X007650Y009536D03*
D49*
X010375Y009552D03*
X007675Y012069D03*
D50*
X007117Y012252D03*
X008350Y013002D03*
X008850Y013052D03*
X009350Y012952D03*
X009567Y010852D03*
X009750Y009819D03*
X009767Y009769D03*
X009750Y009569D03*
X009733Y009552D03*
X007917Y010019D03*
X007883Y009919D03*
X007867Y009902D03*
X007767Y009802D03*
D51*
X007625Y009552D03*
X007558Y009602D03*
X007542Y009619D03*
X007508Y009652D03*
X007492Y009669D03*
X006958Y010702D03*
X006958Y010719D03*
X006942Y010769D03*
X006942Y010802D03*
X006942Y010819D03*
X006942Y010852D03*
X006942Y010869D03*
X007325Y011119D03*
X008025Y011702D03*
X008008Y011719D03*
X007975Y011752D03*
X007958Y011769D03*
X007925Y011802D03*
X008058Y011669D03*
X008075Y011652D03*
X008108Y011619D03*
X008125Y011602D03*
X008158Y011569D03*
X008175Y011552D03*
X008208Y011519D03*
X008225Y011502D03*
X007892Y012819D03*
X008358Y012952D03*
X008858Y012969D03*
X009342Y012902D03*
X009792Y012719D03*
X010175Y012419D03*
X010342Y011769D03*
X010375Y011702D03*
X010392Y011669D03*
X010392Y011652D03*
X010408Y011619D03*
X010508Y011352D03*
X010508Y011319D03*
X010542Y010702D03*
X010475Y010402D03*
X010475Y010369D03*
X010458Y010352D03*
X010458Y010319D03*
X010442Y010302D03*
X009675Y009952D03*
D52*
X009758Y009602D03*
X010358Y009569D03*
X007908Y009969D03*
X007908Y010002D03*
X007658Y010069D03*
X007642Y010052D03*
X007642Y009902D03*
X007458Y012602D03*
X008358Y013019D03*
D53*
X007900Y012802D03*
X008850Y012919D03*
X008850Y012952D03*
X009550Y012052D03*
X010350Y011752D03*
X009650Y010002D03*
X007600Y009569D03*
X007000Y011402D03*
X007000Y011419D03*
D54*
X008400Y013036D03*
X010100Y009586D03*
D55*
X009758Y009586D03*
X007908Y009986D03*
X007892Y009936D03*
X008542Y011386D03*
D56*
X009533Y011986D03*
X010383Y011686D03*
X009333Y012886D03*
X008367Y012936D03*
X006933Y011086D03*
X006933Y011036D03*
X006933Y010986D03*
X006933Y010936D03*
X006933Y010886D03*
X007583Y009586D03*
X009617Y010036D03*
D57*
X010100Y009602D03*
X008933Y010602D03*
X009917Y011952D03*
X007633Y012119D03*
D58*
X007525Y012252D03*
X007492Y012219D03*
X007275Y012002D03*
X007158Y012202D03*
X009542Y011902D03*
X009625Y012119D03*
X010142Y012369D03*
X010542Y011402D03*
X010458Y010202D03*
X010192Y009819D03*
X010308Y009619D03*
X007758Y009852D03*
D59*
X010100Y009619D03*
X007100Y012269D03*
D60*
X009875Y011902D03*
X009775Y009752D03*
X009775Y009719D03*
X009775Y009652D03*
X009775Y009619D03*
D61*
X010192Y009736D03*
X010258Y009636D03*
X010642Y010536D03*
X010642Y010586D03*
X008708Y010986D03*
X007642Y012386D03*
D62*
X009775Y009736D03*
X009775Y009636D03*
D63*
X009783Y009669D03*
X009783Y009702D03*
X007817Y011919D03*
D64*
X006858Y011336D03*
X006842Y011286D03*
X006842Y011236D03*
X008742Y010936D03*
X010208Y009686D03*
D65*
X009783Y009686D03*
X007633Y010036D03*
D66*
X008700Y011019D03*
X010350Y011952D03*
X007650Y012402D03*
X010200Y009702D03*
D67*
X010192Y009719D03*
X006992Y011702D03*
X006858Y011352D03*
X006858Y011319D03*
X006842Y011269D03*
X006842Y011252D03*
D68*
X007950Y010202D03*
X008450Y011319D03*
X008800Y012819D03*
X010200Y009769D03*
D69*
X010200Y009786D03*
X010617Y010636D03*
X009317Y011586D03*
X009717Y012436D03*
X007617Y012336D03*
X007017Y011636D03*
X008150Y010386D03*
X008100Y010336D03*
X008050Y010286D03*
X007767Y009886D03*
D70*
X009767Y009786D03*
X010600Y009986D03*
X009867Y011886D03*
X010183Y012436D03*
X009800Y012736D03*
X008850Y013036D03*
D71*
X007600Y012319D03*
X006900Y011152D03*
X008950Y010702D03*
X009000Y010652D03*
X010200Y009802D03*
X010600Y010652D03*
X010550Y011419D03*
X010350Y011852D03*
D72*
X010050Y012186D03*
X008850Y012836D03*
X010200Y009836D03*
D73*
X009742Y009836D03*
X007908Y010036D03*
X007342Y009836D03*
X007308Y009886D03*
X007242Y009986D03*
X007208Y010036D03*
X007058Y010336D03*
X007042Y010386D03*
X007008Y010486D03*
X007308Y010836D03*
X007308Y011036D03*
X007908Y011836D03*
X007458Y012586D03*
X008358Y012986D03*
X009342Y012936D03*
X009692Y012186D03*
D74*
X009592Y012086D03*
X010158Y012386D03*
X009742Y012636D03*
X009308Y012786D03*
X008392Y012836D03*
X007492Y012536D03*
X007242Y011936D03*
X007042Y011586D03*
X007758Y009836D03*
D75*
X007225Y010002D03*
X007075Y010302D03*
X007025Y010419D03*
X009575Y010802D03*
X009575Y010819D03*
X009725Y009869D03*
X010475Y012052D03*
X007875Y012852D03*
D76*
X007892Y012869D03*
X007742Y012002D03*
X007775Y011969D03*
X007792Y011952D03*
X008542Y011402D03*
X009892Y011919D03*
X010508Y012069D03*
X010192Y012452D03*
X007625Y010019D03*
X007625Y009969D03*
X007625Y009952D03*
X007625Y009919D03*
D77*
X007625Y009936D03*
X007608Y009986D03*
X007808Y011936D03*
X007758Y011986D03*
D78*
X007475Y012552D03*
X008375Y012902D03*
X009325Y012852D03*
X008275Y011469D03*
X009125Y010569D03*
X010275Y009952D03*
X010575Y010902D03*
X010525Y011369D03*
X007025Y011502D03*
D79*
X007900Y009952D03*
X009800Y012752D03*
D80*
X010008Y012302D03*
X010358Y011969D03*
X009475Y011669D03*
X008742Y010919D03*
X010442Y010019D03*
X010442Y010002D03*
X008025Y012569D03*
X007025Y011802D03*
X007008Y011769D03*
X007008Y011752D03*
X006992Y011719D03*
D81*
X007733Y012019D03*
X009333Y012969D03*
X007617Y010002D03*
D82*
X006992Y011736D03*
X010458Y010036D03*
D83*
X010483Y010086D03*
X010017Y012286D03*
D84*
X010125Y012086D03*
X009775Y012686D03*
X009325Y012836D03*
X008375Y012886D03*
X007025Y011486D03*
X009575Y010086D03*
D85*
X008517Y011186D03*
X007850Y010136D03*
X007817Y010086D03*
X007000Y011686D03*
X007950Y012536D03*
X010350Y011936D03*
X010550Y011586D03*
X010567Y011536D03*
X010583Y011486D03*
D86*
X010675Y011002D03*
X010625Y010502D03*
X010625Y010469D03*
X008725Y010969D03*
X007875Y010152D03*
X007825Y010102D03*
X010025Y012269D03*
D87*
X010667Y011086D03*
X010667Y011036D03*
X010483Y010136D03*
D88*
X010550Y010736D03*
X010550Y010786D03*
X010550Y010836D03*
X010550Y010886D03*
X010500Y011336D03*
X008850Y012986D03*
X006950Y010736D03*
X007000Y010536D03*
X007100Y010236D03*
X007150Y010136D03*
D89*
X007892Y010169D03*
X008742Y010952D03*
X010642Y010602D03*
X010642Y010569D03*
X010642Y010552D03*
X007908Y012519D03*
D90*
X008492Y011286D03*
X008492Y010736D03*
X008442Y010686D03*
X008392Y010636D03*
X008342Y010586D03*
X008292Y010536D03*
X008242Y010486D03*
X008192Y010436D03*
X010458Y010186D03*
D91*
X008442Y011336D03*
X007925Y010186D03*
X009642Y012486D03*
D92*
X007675Y011002D03*
X007675Y010969D03*
X007675Y010952D03*
X007675Y010919D03*
X007675Y010902D03*
X007675Y010869D03*
X007675Y010852D03*
X007975Y010219D03*
X008925Y010752D03*
D93*
X009483Y010336D03*
X009783Y012786D03*
D94*
X009775Y012402D03*
X008475Y010719D03*
X008425Y010669D03*
X008375Y010619D03*
X008325Y010569D03*
X008275Y010519D03*
X008225Y010469D03*
X008175Y010419D03*
X007025Y011619D03*
X007275Y012019D03*
D95*
X007267Y012052D03*
X007617Y012352D03*
X007017Y011652D03*
X008917Y010769D03*
X010017Y011152D03*
X010017Y011169D03*
X010017Y011202D03*
X010017Y011219D03*
X010017Y011252D03*
X010017Y011269D03*
X010567Y011452D03*
X010633Y010619D03*
X010583Y010452D03*
D96*
X010625Y010486D03*
X010675Y010986D03*
X007275Y012086D03*
D97*
X009850Y010719D03*
X009850Y010702D03*
X009850Y010669D03*
X009850Y010652D03*
X009850Y010619D03*
X009850Y010602D03*
X009850Y010569D03*
D98*
X007575Y010569D03*
X007575Y010602D03*
X007575Y010619D03*
X007575Y010652D03*
X007575Y010669D03*
X007575Y010702D03*
X007575Y010719D03*
X007575Y011152D03*
X007575Y011169D03*
X007575Y011202D03*
X007575Y011219D03*
X007575Y011252D03*
X007575Y011269D03*
X008158Y012619D03*
D99*
X009850Y010686D03*
X009850Y010636D03*
X009850Y010586D03*
D100*
X009017Y010636D03*
X008967Y010686D03*
X010617Y010936D03*
D101*
X010625Y011136D03*
X009275Y011536D03*
X009225Y011486D03*
X009175Y011436D03*
X009125Y011386D03*
X009075Y011336D03*
X009025Y011286D03*
X008975Y011236D03*
X008925Y011186D03*
X008925Y010736D03*
D102*
X008725Y010786D03*
D103*
X008733Y010802D03*
X007733Y012502D03*
D104*
X008683Y011102D03*
X008733Y010819D03*
D105*
X008733Y010836D03*
X008683Y011086D03*
D106*
X008733Y010852D03*
D107*
X008742Y010869D03*
D108*
X008742Y010886D03*
X009608Y011786D03*
X009642Y011836D03*
X009992Y012336D03*
D109*
X009375Y011636D03*
X007675Y010986D03*
X007675Y010936D03*
X007675Y010886D03*
X007275Y012036D03*
D110*
X008742Y010902D03*
X010008Y012319D03*
D111*
X009692Y012452D03*
X009658Y012469D03*
X009558Y011869D03*
X009358Y011619D03*
X010642Y010952D03*
D112*
X010667Y011019D03*
X010667Y011052D03*
X010667Y011069D03*
X010667Y011102D03*
X010667Y011119D03*
X010033Y012252D03*
X008517Y011219D03*
X007633Y012369D03*
D113*
X007283Y012152D03*
X008700Y011052D03*
X009533Y011702D03*
X009550Y011719D03*
X009583Y011752D03*
X009617Y011802D03*
X009650Y011852D03*
D114*
X008700Y011069D03*
D115*
X008675Y011119D03*
D116*
X008517Y011236D03*
X010017Y011236D03*
X010017Y011286D03*
X010017Y011186D03*
X010017Y011136D03*
X010033Y012236D03*
X006867Y011186D03*
D117*
X008675Y011136D03*
D118*
X008683Y011152D03*
X008683Y011169D03*
X009483Y012602D03*
D119*
X008292Y011302D03*
D120*
X008542Y011419D03*
X007692Y012052D03*
X007642Y012102D03*
X007458Y012619D03*
X009792Y012769D03*
X010192Y012469D03*
D121*
X009592Y012536D03*
X009508Y011686D03*
D122*
X009592Y011769D03*
D123*
X007283Y012136D03*
X007017Y011786D03*
D124*
X009625Y011819D03*
D125*
X010317Y012019D03*
X010333Y012002D03*
X007667Y012419D03*
X007033Y011819D03*
D126*
X009550Y011886D03*
X009800Y012386D03*
D127*
X009908Y011936D03*
X007708Y012036D03*
X007658Y012086D03*
D128*
X007625Y012136D03*
X010525Y012086D03*
D129*
X007275Y012102D03*
D130*
X007283Y012169D03*
X007683Y012452D03*
X008117Y012602D03*
X009567Y012552D03*
X009983Y012352D03*
D131*
X007292Y012186D03*
D132*
X007692Y012469D03*
D133*
X007717Y012486D03*
D134*
X009550Y012569D03*
D135*
X009517Y012586D03*
D136*
X008075Y012586D03*
D137*
X009433Y012619D03*
D138*
X009183Y012636D03*
D139*
X008250Y012636D03*
D140*
X007458Y012636D03*
D141*
X008667Y012652D03*
D142*
X008650Y012669D03*
D143*
X008633Y012686D03*
D144*
X008625Y012702D03*
D145*
X008775Y012719D03*
D146*
X008800Y012736D03*
D147*
X008825Y012752D03*
D148*
X008850Y012769D03*
D149*
X008692Y012786D03*
D150*
X008642Y012802D03*
D151*
X007900Y012886D03*
D152*
X005000Y017036D02*
X005000Y017046D01*
X004995Y017046D01*
X004993Y017044D01*
X004993Y017041D01*
X004995Y017039D01*
X005000Y017039D01*
X004991Y017046D02*
X004984Y017046D01*
X004982Y017046D02*
X004977Y017046D01*
X004975Y017044D01*
X004975Y017041D01*
X004977Y017039D01*
X004982Y017039D01*
X004982Y017036D02*
X004982Y017046D01*
X004987Y017046D02*
X004987Y017036D01*
X004978Y017039D02*
X004975Y017036D01*
X004972Y017036D02*
X004966Y017036D01*
X004969Y017036D02*
X004969Y017046D01*
X004972Y017042D01*
X004963Y017046D02*
X004956Y017046D01*
X004954Y017046D02*
X004949Y017046D01*
X004947Y017044D01*
X004947Y017041D01*
X004949Y017039D01*
X004954Y017039D01*
X004954Y017036D02*
X004954Y017046D01*
X004960Y017046D02*
X004960Y017036D01*
X004945Y017036D02*
X004938Y017036D01*
X004936Y017037D02*
X004934Y017036D01*
X004931Y017036D01*
X004929Y017037D01*
X004929Y017039D01*
X004931Y017041D01*
X004932Y017041D01*
X004931Y017041D02*
X004929Y017042D01*
X004929Y017044D01*
X004931Y017046D01*
X004934Y017046D01*
X004936Y017044D01*
X004941Y017046D02*
X004941Y017036D01*
X004945Y017042D02*
X004941Y017046D01*
X004926Y017044D02*
X004926Y017042D01*
X004925Y017041D01*
X004921Y017041D01*
X004920Y017039D01*
X004920Y017037D01*
X004921Y017036D01*
X004925Y017036D01*
X004926Y017037D01*
X004926Y017044D02*
X004925Y017046D01*
X004921Y017046D01*
X004920Y017044D01*
X004917Y017044D02*
X004915Y017046D01*
X004912Y017046D01*
X004910Y017044D01*
X004910Y017037D01*
X004912Y017036D01*
X004915Y017036D01*
X004917Y017037D01*
X004917Y017044D01*
X004914Y017039D02*
X004910Y017036D01*
X004910Y018036D02*
X004914Y018039D01*
X004915Y018036D02*
X004917Y018037D01*
X004917Y018044D01*
X004915Y018046D01*
X004912Y018046D01*
X004910Y018044D01*
X004910Y018037D01*
X004912Y018036D01*
X004915Y018036D01*
X004920Y018037D02*
X004921Y018036D01*
X004925Y018036D01*
X004926Y018037D01*
X004929Y018037D02*
X004931Y018036D01*
X004934Y018036D01*
X004936Y018037D01*
X004938Y018036D02*
X004945Y018036D01*
X004941Y018036D02*
X004941Y018046D01*
X004945Y018042D01*
X004947Y018041D02*
X004949Y018039D01*
X004954Y018039D01*
X004954Y018036D02*
X004954Y018046D01*
X004949Y018046D01*
X004947Y018044D01*
X004947Y018041D01*
X004956Y018046D02*
X004963Y018046D01*
X004960Y018046D02*
X004960Y018036D01*
X004966Y018036D02*
X004972Y018036D01*
X004975Y018036D02*
X004978Y018039D01*
X004977Y018039D02*
X004982Y018039D01*
X004982Y018036D02*
X004982Y018046D01*
X004977Y018046D01*
X004975Y018044D01*
X004975Y018041D01*
X004977Y018039D01*
X004972Y018042D02*
X004969Y018046D01*
X004969Y018036D01*
X004984Y018046D02*
X004991Y018046D01*
X004993Y018044D02*
X004993Y018041D01*
X004995Y018039D01*
X005000Y018039D01*
X005000Y018036D02*
X005000Y018046D01*
X004995Y018046D01*
X004993Y018044D01*
X004987Y018046D02*
X004987Y018036D01*
X004936Y018044D02*
X004934Y018046D01*
X004931Y018046D01*
X004929Y018044D01*
X004929Y018042D01*
X004931Y018041D01*
X004929Y018039D01*
X004929Y018037D01*
X004931Y018041D02*
X004932Y018041D01*
X004926Y018042D02*
X004925Y018041D01*
X004921Y018041D01*
X004920Y018039D01*
X004920Y018037D01*
X004920Y018044D02*
X004921Y018046D01*
X004925Y018046D01*
X004926Y018044D01*
X004926Y018042D01*
X004925Y019036D02*
X004926Y019037D01*
X004925Y019036D02*
X004921Y019036D01*
X004920Y019037D01*
X004920Y019039D01*
X004921Y019041D01*
X004925Y019041D01*
X004926Y019042D01*
X004926Y019044D01*
X004925Y019046D01*
X004921Y019046D01*
X004920Y019044D01*
X004917Y019044D02*
X004915Y019046D01*
X004912Y019046D01*
X004910Y019044D01*
X004910Y019037D01*
X004912Y019036D01*
X004915Y019036D01*
X004917Y019037D01*
X004917Y019044D01*
X004914Y019039D02*
X004910Y019036D01*
X004929Y019037D02*
X004931Y019036D01*
X004934Y019036D01*
X004936Y019037D01*
X004938Y019036D02*
X004945Y019036D01*
X004941Y019036D02*
X004941Y019046D01*
X004945Y019042D01*
X004947Y019041D02*
X004949Y019039D01*
X004954Y019039D01*
X004954Y019036D02*
X004954Y019046D01*
X004949Y019046D01*
X004947Y019044D01*
X004947Y019041D01*
X004956Y019046D02*
X004963Y019046D01*
X004960Y019046D02*
X004960Y019036D01*
X004966Y019036D02*
X004972Y019036D01*
X004975Y019036D02*
X004978Y019039D01*
X004977Y019039D02*
X004982Y019039D01*
X004982Y019036D02*
X004982Y019046D01*
X004977Y019046D01*
X004975Y019044D01*
X004975Y019041D01*
X004977Y019039D01*
X004972Y019042D02*
X004969Y019046D01*
X004969Y019036D01*
X004984Y019046D02*
X004991Y019046D01*
X004993Y019044D02*
X004993Y019041D01*
X004995Y019039D01*
X005000Y019039D01*
X005000Y019036D02*
X005000Y019046D01*
X004995Y019046D01*
X004993Y019044D01*
X004987Y019046D02*
X004987Y019036D01*
X004936Y019044D02*
X004934Y019046D01*
X004931Y019046D01*
X004929Y019044D01*
X004929Y019042D01*
X004931Y019041D01*
X004929Y019039D01*
X004929Y019037D01*
X004931Y019041D02*
X004932Y019041D01*
X012160Y019037D02*
X012162Y019036D01*
X012165Y019036D01*
X012167Y019037D01*
X012167Y019044D01*
X012165Y019046D01*
X012162Y019046D01*
X012160Y019044D01*
X012160Y019037D01*
X012160Y019036D02*
X012164Y019039D01*
X012170Y019039D02*
X012170Y019037D01*
X012171Y019036D01*
X012175Y019036D01*
X012176Y019037D01*
X012179Y019037D02*
X012181Y019036D01*
X012184Y019036D01*
X012186Y019037D01*
X012188Y019036D02*
X012195Y019036D01*
X012191Y019036D02*
X012191Y019046D01*
X012195Y019042D01*
X012197Y019041D02*
X012199Y019039D01*
X012204Y019039D01*
X012204Y019036D02*
X012204Y019046D01*
X012199Y019046D01*
X012197Y019044D01*
X012197Y019041D01*
X012206Y019046D02*
X012213Y019046D01*
X012210Y019046D02*
X012210Y019036D01*
X012216Y019036D02*
X012222Y019036D01*
X012225Y019036D02*
X012228Y019039D01*
X012227Y019039D02*
X012232Y019039D01*
X012232Y019036D02*
X012232Y019046D01*
X012227Y019046D01*
X012225Y019044D01*
X012225Y019041D01*
X012227Y019039D01*
X012222Y019042D02*
X012219Y019046D01*
X012219Y019036D01*
X012234Y019046D02*
X012241Y019046D01*
X012243Y019044D02*
X012243Y019041D01*
X012245Y019039D01*
X012250Y019039D01*
X012250Y019036D02*
X012250Y019046D01*
X012245Y019046D01*
X012243Y019044D01*
X012237Y019046D02*
X012237Y019036D01*
X012186Y019044D02*
X012184Y019046D01*
X012181Y019046D01*
X012179Y019044D01*
X012179Y019042D01*
X012181Y019041D01*
X012179Y019039D01*
X012179Y019037D01*
X012181Y019041D02*
X012182Y019041D01*
X012176Y019042D02*
X012175Y019041D01*
X012171Y019041D01*
X012170Y019039D01*
X012170Y019044D02*
X012171Y019046D01*
X012175Y019046D01*
X012176Y019044D01*
X012176Y019042D01*
M02*
