G75*
G70*
%OFA0B0*%
%FSLAX24Y24*%
%IPPOS*%
%LPD*%
%AMOC8*
5,1,8,0,0,1.08239X$1,22.5*
%
%ADD10C,0.1340*%
%ADD11OC8,0.0680*%
%ADD12R,0.0513X0.0474*%
%ADD13R,0.0474X0.0513*%
%ADD14R,0.0680X0.0680*%
%ADD15R,0.0789X0.0710*%
%ADD16R,0.0395X0.0395*%
%ADD17R,0.1025X0.1025*%
%ADD18R,0.0631X0.0474*%
%ADD19R,0.0316X0.0946*%
%ADD20R,0.0960X0.0560*%
%ADD21R,0.0946X0.1497*%
%ADD22R,0.0710X0.0789*%
%ADD23R,0.0178X0.0356*%
%ADD24R,0.0356X0.0178*%
%ADD25R,0.1950X0.2304*%
%ADD26R,0.0474X0.0218*%
%ADD27C,0.0611*%
%ADD28R,0.1064X0.0867*%
%ADD29R,0.1064X0.0277*%
%ADD30R,0.0395X0.0297*%
%ADD31R,0.0352X0.0470*%
%ADD32R,0.0277X0.0434*%
%ADD33R,0.0828X0.1419*%
%ADD34R,0.1182X0.1025*%
%ADD35C,0.0710*%
%ADD36C,0.0789*%
%ADD37R,0.0552X0.1458*%
%ADD38R,0.0620X0.0620*%
%ADD39C,0.0620*%
%ADD40R,0.0580X0.0205*%
%ADD41R,0.0552X0.0474*%
%ADD42R,0.0686X0.0686*%
%ADD43R,0.1891X0.0474*%
%ADD44R,0.1419X0.0710*%
%ADD45R,0.0297X0.0552*%
%ADD46C,0.0434*%
%ADD47R,0.0789X0.0474*%
%ADD48C,0.0812*%
%ADD49C,0.0560*%
%ADD50C,0.0460*%
%ADD51C,0.0380*%
%ADD52C,0.0350*%
D10*
X007250Y002336D03*
X027750Y004336D03*
X027750Y015336D03*
X007750Y021336D03*
D11*
X009150Y021336D03*
X010150Y021336D03*
X011150Y021336D03*
X012150Y021336D03*
X013150Y021336D03*
X014150Y021336D03*
X015150Y021336D03*
X016150Y021336D03*
X017150Y021336D03*
X015150Y020086D03*
X014150Y020086D03*
X019750Y021336D03*
X020750Y021336D03*
X021750Y021336D03*
X022750Y021336D03*
X023750Y021336D03*
X024750Y021336D03*
X025750Y021336D03*
X026805Y013316D03*
X027805Y013316D03*
X027805Y012316D03*
X026805Y012316D03*
X026805Y011316D03*
X027805Y011316D03*
X026750Y002336D03*
X025750Y002336D03*
X024750Y002336D03*
X023750Y002336D03*
X022750Y002336D03*
X019750Y002336D03*
X018750Y002336D03*
X017750Y002336D03*
X016750Y002336D03*
X015750Y002336D03*
X014750Y002336D03*
X013750Y002336D03*
X008250Y014836D03*
D12*
X006335Y014836D03*
X005665Y014836D03*
X005665Y019336D03*
X006335Y019336D03*
X016615Y013586D03*
X017285Y013586D03*
X017285Y012586D03*
X017285Y012086D03*
X016615Y012086D03*
X016615Y012586D03*
X016500Y009920D03*
X016500Y009251D03*
X011585Y009086D03*
X010915Y009086D03*
X022165Y012586D03*
X022835Y012586D03*
X024000Y016001D03*
X024000Y016670D03*
X024750Y016670D03*
X024750Y016001D03*
D13*
X018500Y015701D03*
X018500Y016370D03*
X014000Y014170D03*
X014000Y013501D03*
X014000Y012670D03*
X014000Y012001D03*
X016500Y011170D03*
X016500Y010501D03*
X019500Y010620D03*
X020000Y010620D03*
X020000Y009951D03*
X019500Y009951D03*
X026000Y008420D03*
X026000Y007751D03*
X026750Y007751D03*
X026750Y008420D03*
X012585Y005086D03*
X011915Y005086D03*
X011585Y009836D03*
X010915Y009836D03*
X010915Y010586D03*
X011585Y010586D03*
X010550Y012251D03*
X010550Y012920D03*
X006250Y016501D03*
X005750Y016501D03*
X005750Y017170D03*
X006250Y017170D03*
X006335Y018336D03*
X006335Y018836D03*
X005665Y018836D03*
X005665Y018336D03*
X003085Y013586D03*
X002415Y013586D03*
X002415Y012086D03*
X003085Y012086D03*
D14*
X009250Y014836D03*
X013150Y020086D03*
X018150Y021336D03*
X026750Y021336D03*
X021750Y002336D03*
X012750Y002336D03*
D15*
X009750Y009284D03*
X009750Y010387D03*
X009750Y011284D03*
X009750Y012387D03*
X005250Y012784D03*
X005250Y013887D03*
D16*
X003045Y012836D03*
X002455Y012836D03*
X010750Y016790D03*
X011250Y016790D03*
X011750Y016790D03*
X011750Y017381D03*
X011250Y017381D03*
X010750Y017381D03*
X024000Y015381D03*
X024000Y014790D03*
X024750Y014790D03*
X024750Y015381D03*
X012545Y005586D03*
X011955Y005586D03*
D17*
X007866Y008086D03*
X006134Y008086D03*
X007500Y005952D03*
X007500Y004219D03*
D18*
X008567Y013212D03*
X008567Y013960D03*
X009433Y013586D03*
D19*
X011250Y013609D03*
X011750Y013609D03*
X012250Y013609D03*
X012750Y013609D03*
X012750Y011562D03*
X012250Y011562D03*
X011750Y011562D03*
X011250Y011562D03*
D20*
X008470Y011336D03*
X008470Y012245D03*
X008470Y010426D03*
X009780Y008245D03*
X009780Y007336D03*
X009780Y006426D03*
D21*
X012220Y007336D03*
X006030Y011336D03*
D22*
X009699Y005086D03*
X010801Y005086D03*
D23*
X018274Y011353D03*
X018470Y011353D03*
X018667Y011353D03*
X018864Y011353D03*
X019061Y011353D03*
X019258Y011353D03*
X019455Y011353D03*
X019652Y011353D03*
X019848Y011353D03*
X020045Y011353D03*
X020242Y011353D03*
X020439Y011353D03*
X020636Y011353D03*
X020833Y011353D03*
X021030Y011353D03*
X021226Y011353D03*
X021226Y014818D03*
X021030Y014818D03*
X020833Y014818D03*
X020636Y014818D03*
X020439Y014818D03*
X020242Y014818D03*
X020045Y014818D03*
X019848Y014818D03*
X019652Y014818D03*
X019455Y014818D03*
X019258Y014818D03*
X019061Y014818D03*
X018864Y014818D03*
X018667Y014818D03*
X018470Y014818D03*
X018274Y014818D03*
D24*
X018018Y014562D03*
X018018Y014365D03*
X018018Y014168D03*
X018018Y013971D03*
X018018Y013775D03*
X018018Y013578D03*
X018018Y013381D03*
X018018Y013184D03*
X018018Y012987D03*
X018018Y012790D03*
X018018Y012593D03*
X018018Y012397D03*
X018018Y012200D03*
X018018Y012003D03*
X018018Y011806D03*
X018018Y011609D03*
X021482Y011609D03*
X021482Y011806D03*
X021482Y012003D03*
X021482Y012200D03*
X021482Y012397D03*
X021482Y012593D03*
X021482Y012790D03*
X021482Y012987D03*
X021482Y013184D03*
X021482Y013381D03*
X021482Y013578D03*
X021482Y013775D03*
X021482Y013971D03*
X021482Y014168D03*
X021482Y014365D03*
X021482Y014562D03*
D25*
X019750Y013086D03*
D26*
X019396Y009341D03*
X019396Y009086D03*
X019396Y008830D03*
X020104Y008830D03*
X020104Y009086D03*
X020104Y009341D03*
D27*
X021250Y008336D03*
X021750Y007836D03*
X021250Y007336D03*
X022250Y007336D03*
X022250Y008336D03*
X003750Y017719D03*
X003750Y019452D03*
D28*
X004734Y020357D03*
X002569Y020357D03*
X002569Y016814D03*
X004734Y016853D03*
D29*
X004734Y017956D03*
X004734Y018271D03*
X004734Y018586D03*
X004734Y018901D03*
X004734Y019216D03*
D30*
X012528Y016960D03*
X012528Y016586D03*
X012528Y016212D03*
X013472Y016212D03*
X013472Y016586D03*
X013472Y016960D03*
X014278Y016960D03*
X014278Y016586D03*
X014278Y016212D03*
X015222Y016212D03*
X015222Y016586D03*
X015222Y016960D03*
X015778Y017962D03*
X015778Y018336D03*
X015778Y018710D03*
X016722Y018710D03*
X016722Y018336D03*
X016722Y017962D03*
X017778Y017962D03*
X017778Y018336D03*
X017778Y018710D03*
X018722Y018710D03*
X018722Y018336D03*
X018722Y017962D03*
X019778Y017962D03*
X019778Y018336D03*
X019778Y018710D03*
X020722Y018710D03*
X020722Y018336D03*
X020722Y017962D03*
X021778Y017962D03*
X021778Y018336D03*
X021778Y018710D03*
X022722Y018710D03*
X022722Y018336D03*
X022722Y017962D03*
X023778Y017962D03*
X023778Y018336D03*
X023778Y018710D03*
X024722Y018710D03*
X024722Y018336D03*
X024722Y017962D03*
X025778Y017960D03*
X025778Y017586D03*
X025778Y017212D03*
X026722Y017212D03*
X026722Y017586D03*
X026722Y017960D03*
X023222Y006210D03*
X023222Y005836D03*
X023222Y005462D03*
X022278Y005462D03*
X022278Y005836D03*
X022278Y006210D03*
X021472Y006210D03*
X021472Y005836D03*
X021472Y005462D03*
X020528Y005462D03*
X020528Y005836D03*
X020528Y006210D03*
X019472Y006210D03*
X019472Y005836D03*
X019472Y005462D03*
X018528Y005462D03*
X018528Y005836D03*
X018528Y006210D03*
X017472Y006210D03*
X017472Y005836D03*
X017472Y005462D03*
X016528Y005462D03*
X016528Y005836D03*
X016528Y006210D03*
D31*
X015874Y009074D03*
X015126Y009074D03*
X015126Y010093D03*
X015500Y010093D03*
X015874Y010093D03*
D32*
X020278Y004401D03*
X020593Y004401D03*
X020907Y004401D03*
X021222Y004401D03*
X021222Y003771D03*
X020907Y003771D03*
X020593Y003771D03*
X020278Y003771D03*
X025028Y004771D03*
X025343Y004771D03*
X025657Y004771D03*
X025972Y004771D03*
X025972Y005401D03*
X025657Y005401D03*
X025343Y005401D03*
X025028Y005401D03*
X014222Y017771D03*
X013907Y017771D03*
X013593Y017771D03*
X013278Y017771D03*
X013278Y018401D03*
X013593Y018401D03*
X013907Y018401D03*
X014222Y018401D03*
X011722Y018651D03*
X011407Y018651D03*
X011093Y018651D03*
X010778Y018651D03*
X010778Y018021D03*
X011093Y018021D03*
X011407Y018021D03*
X011722Y018021D03*
X016778Y019521D03*
X017093Y019521D03*
X017407Y019521D03*
X017722Y019521D03*
X017722Y020151D03*
X017407Y020151D03*
X017093Y020151D03*
X016778Y020151D03*
X020778Y020151D03*
X021093Y020151D03*
X021407Y020151D03*
X021722Y020151D03*
X021722Y019521D03*
X021407Y019521D03*
X021093Y019521D03*
X020778Y019521D03*
X024778Y019521D03*
X025093Y019521D03*
X025407Y019521D03*
X025722Y019521D03*
X025722Y020151D03*
X025407Y020151D03*
X025093Y020151D03*
X024778Y020151D03*
D33*
X004268Y015086D03*
X002732Y015086D03*
D34*
X002469Y002091D03*
X004870Y002091D03*
X004870Y006580D03*
X002469Y006580D03*
D35*
X002469Y004336D03*
D36*
X004240Y004336D03*
D37*
X015250Y012003D03*
X015250Y014168D03*
D38*
X024106Y012448D03*
D39*
X024894Y012448D03*
X024894Y011660D03*
X024894Y010873D03*
X024106Y010873D03*
X024106Y011660D03*
X024106Y010086D03*
X024894Y010086D03*
X024894Y009298D03*
X024106Y009298D03*
X024106Y008511D03*
X024106Y007723D03*
X024894Y007723D03*
X024894Y008511D03*
D40*
X009450Y016461D03*
X009450Y016711D03*
X009450Y016961D03*
X009450Y017211D03*
X009450Y017461D03*
X009450Y017711D03*
X009450Y017961D03*
X009450Y018211D03*
X009450Y018461D03*
X009450Y018711D03*
X007050Y018711D03*
X007050Y018461D03*
X007050Y018211D03*
X007050Y017961D03*
X007050Y017711D03*
X007050Y017461D03*
X007050Y017211D03*
X007050Y016961D03*
X007050Y016711D03*
X007050Y016461D03*
D41*
X006433Y015586D03*
X005567Y015586D03*
D42*
X021118Y010217D03*
X021882Y010217D03*
X021882Y009454D03*
X021118Y009454D03*
D43*
X004457Y009729D03*
X004457Y008942D03*
D44*
X002409Y007997D03*
X002409Y010674D03*
D45*
X003626Y011824D03*
X004000Y011824D03*
X004374Y011824D03*
X004374Y012847D03*
X003626Y012847D03*
D46*
X010450Y003676D03*
X010450Y002495D03*
D47*
X009604Y002416D03*
X011296Y002416D03*
X011296Y003755D03*
X009604Y003755D03*
D48*
X013000Y015136D03*
X025900Y009386D03*
D49*
X027250Y010086D03*
X028250Y010086D03*
D50*
X011000Y006836D03*
X009750Y005836D03*
X008000Y007086D03*
D51*
X016750Y004586D03*
D52*
X017000Y005336D03*
X017000Y005836D03*
X017000Y006336D03*
X015750Y006336D03*
X015900Y008436D03*
X015500Y009586D03*
X017000Y011586D03*
X016100Y012336D03*
X014500Y012586D03*
X014500Y013086D03*
X014500Y013586D03*
X013500Y013586D03*
X013500Y013086D03*
X013500Y012586D03*
X012750Y012336D03*
X012750Y010836D03*
X009150Y010836D03*
X009150Y011336D03*
X009150Y010336D03*
X013000Y007836D03*
X013000Y007336D03*
X013000Y006836D03*
X011500Y005086D03*
X010750Y005836D03*
X010250Y005336D03*
X010250Y004836D03*
X018750Y009986D03*
X019050Y010336D03*
X019000Y009536D03*
X018950Y009236D03*
X018950Y008936D03*
X019000Y008636D03*
X019300Y008536D03*
X019600Y008536D03*
X019900Y008536D03*
X020200Y008536D03*
X020500Y008536D03*
X020800Y008636D03*
X020750Y008336D03*
X020800Y008036D03*
X021050Y007886D03*
X020850Y007636D03*
X020750Y007336D03*
X020800Y007036D03*
X021050Y006886D03*
X021350Y006836D03*
X021600Y006986D03*
X021900Y006986D03*
X022200Y006836D03*
X022500Y006886D03*
X022700Y007136D03*
X022750Y007436D03*
X022600Y007736D03*
X022700Y008036D03*
X022750Y008336D03*
X022700Y008636D03*
X022700Y008936D03*
X022400Y008886D03*
X022400Y009186D03*
X022100Y008886D03*
X021800Y008936D03*
X021000Y008886D03*
X020550Y009286D03*
X020550Y009586D03*
X020550Y009886D03*
X020550Y010186D03*
X020550Y010486D03*
X020900Y010736D03*
X020500Y011736D03*
X021050Y012086D03*
X021050Y012586D03*
X022000Y013086D03*
X022500Y013086D03*
X023000Y013086D03*
X023000Y013486D03*
X023400Y013836D03*
X023750Y014086D03*
X023350Y014636D03*
X024400Y015636D03*
X023500Y016686D03*
X022750Y015836D03*
X021800Y014986D03*
X021000Y014386D03*
X021050Y013286D03*
X019750Y014436D03*
X019150Y014436D03*
X018800Y014436D03*
X017750Y014836D03*
X017250Y014836D03*
X016700Y014836D03*
X016250Y014836D03*
X015850Y014836D03*
X016100Y013886D03*
X017150Y015486D03*
X016650Y016336D03*
X016000Y016586D03*
X015750Y017336D03*
X016250Y017586D03*
X016700Y017586D03*
X017100Y017586D03*
X017500Y017586D03*
X018250Y017936D03*
X018250Y018336D03*
X018250Y018836D03*
X019500Y019236D03*
X020250Y018836D03*
X020250Y018336D03*
X020250Y017936D03*
X019750Y017336D03*
X019700Y016636D03*
X019300Y016186D03*
X019100Y016536D03*
X019100Y015536D03*
X020600Y016036D03*
X020500Y016586D03*
X022250Y017936D03*
X022250Y018336D03*
X022250Y018836D03*
X022625Y019211D03*
X023500Y019086D03*
X024250Y018836D03*
X024250Y018336D03*
X024250Y017936D03*
X025407Y017428D03*
X026250Y017586D03*
X026250Y018086D03*
X025100Y018936D03*
X026375Y019461D03*
X021407Y018178D03*
X021049Y019036D03*
X016250Y018836D03*
X016250Y018336D03*
X014750Y018086D03*
X014750Y017086D03*
X014750Y016586D03*
X014750Y016086D03*
X014350Y015586D03*
X013850Y015836D03*
X013000Y016086D03*
X013000Y016586D03*
X013000Y017086D03*
X012750Y017771D03*
X012750Y018836D03*
X010750Y020586D03*
X009900Y018336D03*
X008250Y016836D03*
X007750Y017586D03*
X008250Y015836D03*
X007250Y015586D03*
X005500Y017836D03*
X003900Y018186D03*
X003750Y018586D03*
X005650Y020136D03*
X010700Y015486D03*
X018450Y013686D03*
X018500Y013036D03*
X018450Y012536D03*
X019750Y011736D03*
X022400Y010686D03*
X022400Y010386D03*
X022400Y010086D03*
X022400Y009786D03*
X022400Y009486D03*
X022300Y007836D03*
X021700Y007286D03*
X021000Y006336D03*
X021000Y005836D03*
X021000Y005386D03*
X022750Y005386D03*
X022750Y005836D03*
X022750Y006336D03*
X023750Y005836D03*
X024250Y006210D03*
X025250Y005836D03*
X025650Y005836D03*
X026500Y005086D03*
X025050Y003836D03*
X025500Y003286D03*
X023500Y004336D03*
X023950Y005086D03*
X025250Y006586D03*
X019000Y006336D03*
X019000Y005836D03*
X019000Y005336D03*
X023150Y012036D03*
X024894Y014086D03*
M02*
