G75*
G70*
%OFA0B0*%
%FSLAX24Y24*%
%IPPOS*%
%LPD*%
%AMOC8*
5,1,8,0,0,1.08239X$1,22.5*
%
%ADD10OC8,0.0600*%
%ADD11R,0.0600X0.0600*%
%ADD12R,0.0630X0.0460*%
%ADD13R,0.0460X0.0630*%
%ADD14C,0.0531*%
%ADD15R,0.0512X0.0512*%
%ADD16R,0.0540X0.0540*%
%ADD17C,0.0540*%
%ADD18C,0.0480*%
%ADD19C,0.0380*%
%ADD20C,0.0240*%
%ADD21C,0.0300*%
%ADD22C,0.0160*%
%ADD23C,0.0270*%
%ADD24C,0.0100*%
%ADD25C,0.0120*%
%ADD26C,0.0070*%
D10*
X013750Y002336D03*
X014750Y002336D03*
X015750Y002336D03*
X016750Y002336D03*
X017750Y002336D03*
X018750Y002336D03*
X019750Y002336D03*
X022750Y002336D03*
X023750Y002336D03*
X024750Y002336D03*
X025750Y002336D03*
X026750Y002336D03*
X026805Y011316D03*
X027805Y011316D03*
X027805Y012316D03*
X026805Y012316D03*
X026805Y013316D03*
X027805Y013316D03*
X025750Y021336D03*
X024750Y021336D03*
X023750Y021336D03*
X022750Y021336D03*
X021750Y021336D03*
X020750Y021336D03*
X019750Y021336D03*
X017150Y021336D03*
X016150Y021336D03*
X015150Y021336D03*
X014150Y021336D03*
X013150Y021336D03*
X012150Y021336D03*
X011150Y021336D03*
X010150Y021336D03*
X009150Y021336D03*
X014150Y020086D03*
X015150Y020086D03*
X008250Y014836D03*
D11*
X009250Y014836D03*
X013150Y020086D03*
X018150Y021336D03*
X026750Y021336D03*
X021750Y002336D03*
X012750Y002336D03*
D12*
X024500Y003736D03*
X024500Y004336D03*
X024500Y004936D03*
X025750Y004936D03*
X025750Y004336D03*
X025750Y003736D03*
D13*
X014600Y018836D03*
X014000Y018836D03*
X013400Y018836D03*
D14*
X003750Y019452D03*
X003750Y017719D03*
X021250Y008336D03*
X021750Y007836D03*
X021250Y007336D03*
X022250Y007336D03*
X022250Y008336D03*
D15*
X012000Y019336D03*
X004750Y019336D03*
X004750Y018336D03*
X004750Y017336D03*
D16*
X024106Y012448D03*
D17*
X024894Y012448D03*
X024894Y011660D03*
X024894Y010873D03*
X024106Y010873D03*
X024106Y011660D03*
X024106Y010086D03*
X024894Y010086D03*
X024894Y009298D03*
X024106Y009298D03*
X024106Y008511D03*
X024106Y007723D03*
X024894Y007723D03*
X024894Y008511D03*
D18*
X027250Y010086D03*
X028250Y010086D03*
D19*
X011000Y006836D03*
X009750Y005836D03*
X008000Y007086D03*
D20*
X010750Y007086D01*
X011000Y006836D01*
X010250Y005836D02*
X009750Y005836D01*
D21*
X016750Y004586D03*
D22*
X016750Y002336D01*
D23*
X017000Y005336D03*
X017000Y005836D03*
X017000Y006336D03*
X015750Y006336D03*
X015900Y008436D03*
X015500Y009586D03*
X017000Y011586D03*
X016100Y012336D03*
X014500Y012586D03*
X014500Y013086D03*
X014500Y013586D03*
X013500Y013586D03*
X013500Y013086D03*
X013500Y012586D03*
X012750Y012336D03*
X012750Y010836D03*
X009150Y010836D03*
X009150Y011336D03*
X009150Y010336D03*
X013000Y007836D03*
X013000Y007336D03*
X013000Y006836D03*
X011500Y005086D03*
X010750Y005836D03*
X010250Y005336D03*
X010250Y004836D03*
X018750Y009986D03*
X019050Y010336D03*
X019000Y009536D03*
X018950Y009236D03*
X018950Y008936D03*
X019000Y008636D03*
X019300Y008536D03*
X019600Y008536D03*
X019900Y008536D03*
X020200Y008536D03*
X020500Y008536D03*
X020800Y008636D03*
X020750Y008336D03*
X020800Y008036D03*
X021050Y007886D03*
X020850Y007636D03*
X020750Y007336D03*
X020800Y007036D03*
X021050Y006886D03*
X021350Y006836D03*
X021600Y006986D03*
X021900Y006986D03*
X022200Y006836D03*
X022500Y006886D03*
X022700Y007136D03*
X022750Y007436D03*
X022600Y007736D03*
X022700Y008036D03*
X022750Y008336D03*
X022700Y008636D03*
X022700Y008936D03*
X022400Y008886D03*
X022400Y009186D03*
X022100Y008886D03*
X021800Y008936D03*
X021000Y008886D03*
X020550Y009286D03*
X020550Y009586D03*
X020550Y009886D03*
X020550Y010186D03*
X020550Y010486D03*
X020900Y010736D03*
X020500Y011736D03*
X021050Y012086D03*
X021050Y012586D03*
X022000Y013086D03*
X022500Y013086D03*
X023000Y013086D03*
X023000Y013486D03*
X023400Y013836D03*
X023750Y014086D03*
X023350Y014636D03*
X024400Y015636D03*
X023500Y016686D03*
X022750Y015836D03*
X021800Y014986D03*
X021000Y014386D03*
X021050Y013286D03*
X019750Y014436D03*
X019150Y014436D03*
X018800Y014436D03*
X017750Y014836D03*
X017250Y014836D03*
X016700Y014836D03*
X016250Y014836D03*
X015850Y014836D03*
X016100Y013886D03*
X017150Y015486D03*
X016650Y016336D03*
X016000Y016586D03*
X015750Y017336D03*
X016250Y017586D03*
X016700Y017586D03*
X017100Y017586D03*
X017500Y017586D03*
X018250Y017936D03*
X018250Y018336D03*
X018250Y018836D03*
X019500Y019236D03*
X020250Y018836D03*
X020250Y018336D03*
X020250Y017936D03*
X019750Y017336D03*
X019700Y016636D03*
X019300Y016186D03*
X019100Y016536D03*
X019100Y015536D03*
X020600Y016036D03*
X020500Y016586D03*
X022250Y017936D03*
X022250Y018336D03*
X022250Y018836D03*
X022625Y019211D03*
X023500Y019086D03*
X024250Y018836D03*
X024250Y018336D03*
X024250Y017936D03*
X025407Y017428D03*
X026250Y017586D03*
X026250Y018086D03*
X025100Y018936D03*
X026375Y019461D03*
X021407Y018178D03*
X021049Y019036D03*
X016250Y018836D03*
X016250Y018336D03*
X014750Y018086D03*
X014750Y017086D03*
X014750Y016586D03*
X014750Y016086D03*
X014350Y015586D03*
X013850Y015836D03*
X013000Y016086D03*
X013000Y016586D03*
X013000Y017086D03*
X012750Y017771D03*
X012750Y018836D03*
X010750Y020586D03*
X009900Y018336D03*
X008250Y016836D03*
X007750Y017586D03*
X008250Y015836D03*
X007250Y015586D03*
X005500Y017836D03*
X003900Y018186D03*
X003750Y018586D03*
X005650Y020136D03*
X010700Y015486D03*
X018450Y013686D03*
X018500Y013036D03*
X018450Y012536D03*
X019750Y011736D03*
X022400Y010686D03*
X022400Y010386D03*
X022400Y010086D03*
X022400Y009786D03*
X022400Y009486D03*
X022300Y007836D03*
X021700Y007286D03*
X021000Y006336D03*
X021000Y005836D03*
X021000Y005386D03*
X022750Y005386D03*
X022750Y005836D03*
X022750Y006336D03*
X023750Y005836D03*
X024250Y006210D03*
X025250Y005836D03*
X025650Y005836D03*
X026500Y005086D03*
X025050Y003836D03*
X025500Y003286D03*
X023500Y004336D03*
X023950Y005086D03*
X025250Y006586D03*
X019000Y006336D03*
X019000Y005836D03*
X019000Y005336D03*
X023150Y012036D03*
X024894Y014086D03*
D24*
X012000Y019336D02*
X012000Y021186D01*
X012150Y021336D01*
D25*
X001960Y004191D02*
X001960Y001546D01*
X006962Y001546D01*
X006774Y001624D01*
X006538Y001860D01*
X006410Y002169D01*
X006410Y002503D01*
X006538Y002811D01*
X006774Y003048D01*
X007083Y003176D01*
X007417Y003176D01*
X007726Y003048D01*
X007962Y002811D01*
X008090Y002503D01*
X008090Y002169D01*
X007962Y001860D01*
X007726Y001624D01*
X007538Y001546D01*
X027540Y001546D01*
X027540Y002423D01*
X027663Y002546D01*
X028540Y003423D01*
X028540Y004048D01*
X028462Y003860D01*
X028226Y003624D01*
X027917Y003496D01*
X027583Y003496D01*
X027274Y003624D01*
X027038Y003860D01*
X026910Y004169D01*
X026910Y004503D01*
X027038Y004811D01*
X027274Y005048D01*
X027583Y005176D01*
X027917Y005176D01*
X028226Y005048D01*
X028462Y004811D01*
X028540Y004623D01*
X028540Y009866D01*
X028454Y009780D01*
X028322Y009726D01*
X028178Y009726D01*
X028046Y009780D01*
X027945Y009882D01*
X027890Y010014D01*
X027890Y010157D01*
X027910Y010206D01*
X027786Y010331D01*
X027514Y010331D01*
X027555Y010290D01*
X027610Y010157D01*
X027610Y010014D01*
X027555Y009882D01*
X027454Y009780D01*
X027322Y009726D01*
X027178Y009726D01*
X027046Y009780D01*
X026945Y009882D01*
X026925Y009931D01*
X025252Y009931D01*
X025224Y009865D01*
X025115Y009755D01*
X024971Y009696D01*
X024816Y009696D01*
X024673Y009755D01*
X024563Y009865D01*
X024504Y010008D01*
X024504Y010163D01*
X024563Y010307D01*
X024587Y010331D01*
X024464Y010331D01*
X024438Y010304D01*
X024496Y010163D01*
X024496Y010008D01*
X024437Y009865D01*
X024327Y009755D01*
X024184Y009696D01*
X024029Y009696D01*
X023885Y009755D01*
X023805Y009835D01*
X023805Y009548D01*
X023885Y009629D01*
X024029Y009688D01*
X024184Y009688D01*
X024327Y009629D01*
X024437Y009519D01*
X024496Y009376D01*
X024496Y009221D01*
X024437Y009077D01*
X024327Y008968D01*
X024184Y008908D01*
X024029Y008908D01*
X023885Y008968D01*
X023805Y009048D01*
X023805Y009000D01*
X023941Y008864D01*
X024029Y008901D01*
X024184Y008901D01*
X024327Y008841D01*
X024437Y008732D01*
X024496Y008588D01*
X024496Y008433D01*
X024437Y008290D01*
X024327Y008180D01*
X024184Y008121D01*
X024029Y008121D01*
X023885Y008180D01*
X023776Y008290D01*
X023716Y008433D01*
X023716Y008588D01*
X023734Y008632D01*
X023605Y008761D01*
X023605Y008444D01*
X023963Y008086D01*
X024029Y008113D01*
X024184Y008113D01*
X024327Y008054D01*
X024437Y007944D01*
X024480Y007841D01*
X024495Y007888D01*
X024526Y007949D01*
X024566Y008004D01*
X024614Y008051D01*
X024668Y008091D01*
X024729Y008122D01*
X024776Y008137D01*
X024673Y008180D01*
X024563Y008290D01*
X024504Y008433D01*
X024504Y008588D01*
X024563Y008732D01*
X024673Y008841D01*
X024816Y008901D01*
X024971Y008901D01*
X025115Y008841D01*
X025224Y008732D01*
X025284Y008588D01*
X025284Y008433D01*
X025224Y008290D01*
X025115Y008180D01*
X025011Y008137D01*
X025059Y008122D01*
X025119Y008091D01*
X025174Y008051D01*
X025222Y008004D01*
X025261Y007949D01*
X025292Y007888D01*
X025313Y007824D01*
X025324Y007757D01*
X025324Y007753D01*
X024924Y007753D01*
X024924Y007693D01*
X025324Y007693D01*
X025324Y007690D01*
X025313Y007623D01*
X025292Y007558D01*
X025261Y007498D01*
X028540Y007498D01*
X028540Y007616D02*
X025311Y007616D01*
X025261Y007498D02*
X025222Y007443D01*
X025174Y007395D01*
X025119Y007356D01*
X025059Y007325D01*
X024994Y007304D01*
X024928Y007293D01*
X024924Y007293D01*
X024924Y007693D01*
X024864Y007693D01*
X024864Y007293D01*
X024860Y007293D01*
X024793Y007304D01*
X024729Y007325D01*
X024668Y007356D01*
X024614Y007395D01*
X024566Y007443D01*
X024526Y007498D01*
X024495Y007558D01*
X024480Y007606D01*
X024437Y007502D01*
X024327Y007393D01*
X024184Y007333D01*
X024029Y007333D01*
X023885Y007393D01*
X023776Y007502D01*
X023716Y007646D01*
X023716Y007801D01*
X023744Y007867D01*
X023295Y008315D01*
X023295Y010071D01*
X022536Y010831D01*
X020114Y010831D01*
X019114Y009831D01*
X018956Y009831D01*
X018894Y009769D01*
X018801Y009731D01*
X018699Y009731D01*
X018606Y009769D01*
X018534Y009841D01*
X018495Y009935D01*
X018495Y010036D01*
X018534Y010130D01*
X018606Y010202D01*
X018699Y010241D01*
X018801Y010241D01*
X018816Y010234D01*
X018795Y010285D01*
X018795Y010386D01*
X018834Y010480D01*
X018906Y010552D01*
X018999Y010591D01*
X019086Y010591D01*
X019676Y011181D01*
X016564Y011181D01*
X015655Y010271D01*
X015655Y009791D01*
X015716Y009730D01*
X015755Y009636D01*
X015755Y009535D01*
X015716Y009441D01*
X015644Y009369D01*
X015551Y009331D01*
X015449Y009331D01*
X015356Y009369D01*
X015284Y009441D01*
X015245Y009535D01*
X015245Y009636D01*
X015284Y009730D01*
X015345Y009791D01*
X015345Y010400D01*
X015436Y010491D01*
X016301Y011356D01*
X011475Y011356D01*
X011370Y011461D01*
X011370Y011461D01*
X011075Y011756D01*
X011075Y011756D01*
X010970Y011861D01*
X010970Y020450D01*
X010966Y020441D01*
X010894Y020369D01*
X010801Y020331D01*
X010714Y020331D01*
X010455Y020071D01*
X010455Y015560D01*
X010484Y015630D01*
X010556Y015702D01*
X010649Y015741D01*
X010751Y015741D01*
X010844Y015702D01*
X010916Y015630D01*
X010955Y015536D01*
X010955Y015435D01*
X010916Y015341D01*
X010844Y015269D01*
X010751Y015231D01*
X010649Y015231D01*
X010556Y015269D01*
X010484Y015341D01*
X010455Y015411D01*
X010455Y008600D01*
X013914Y005141D01*
X023336Y005141D01*
X023595Y005400D01*
X023595Y005400D01*
X023686Y005491D01*
X024626Y005491D01*
X024595Y005521D01*
X024436Y005681D01*
X023956Y005681D01*
X023894Y005619D01*
X023801Y005581D01*
X023699Y005581D01*
X023606Y005619D01*
X023534Y005691D01*
X023495Y005785D01*
X023495Y005886D01*
X023534Y005980D01*
X023606Y006052D01*
X023699Y006091D01*
X023801Y006091D01*
X023894Y006052D01*
X023956Y005991D01*
X024112Y005991D01*
X024106Y005993D01*
X024034Y006065D01*
X023995Y006159D01*
X023995Y006260D01*
X024034Y006354D01*
X024106Y006426D01*
X024199Y006465D01*
X024301Y006465D01*
X024394Y006426D01*
X024466Y006354D01*
X024505Y006260D01*
X024505Y006159D01*
X024466Y006065D01*
X024394Y005993D01*
X024388Y005991D01*
X024564Y005991D01*
X024814Y005741D01*
X025013Y005741D01*
X024995Y005785D01*
X024995Y005886D01*
X025034Y005980D01*
X025095Y006041D01*
X025095Y006380D01*
X025034Y006441D01*
X024995Y006535D01*
X024995Y006636D01*
X025034Y006730D01*
X025106Y006802D01*
X025199Y006841D01*
X025301Y006841D01*
X025394Y006802D01*
X025466Y006730D01*
X025505Y006636D01*
X025505Y006535D01*
X025466Y006441D01*
X025405Y006380D01*
X025405Y006041D01*
X025450Y005996D01*
X025506Y006052D01*
X025599Y006091D01*
X025701Y006091D01*
X025794Y006052D01*
X025866Y005980D01*
X025905Y005886D01*
X025905Y005785D01*
X025866Y005691D01*
X025794Y005619D01*
X025701Y005581D01*
X025614Y005581D01*
X025524Y005491D01*
X026314Y005491D01*
X026405Y005400D01*
X026405Y005400D01*
X026464Y005341D01*
X026551Y005341D01*
X026644Y005302D01*
X026716Y005230D01*
X026755Y005136D01*
X026755Y005035D01*
X026716Y004941D01*
X026644Y004869D01*
X026551Y004831D01*
X026464Y004831D01*
X026414Y004781D01*
X026185Y004781D01*
X026185Y004656D01*
X026165Y004636D01*
X026185Y004615D01*
X026185Y004370D01*
X026814Y003741D01*
X026905Y003650D01*
X026905Y002756D01*
X026924Y002756D01*
X027170Y002510D01*
X027170Y002162D01*
X026924Y001916D01*
X026576Y001916D01*
X026330Y002162D01*
X026330Y002510D01*
X026576Y002756D01*
X026595Y002756D01*
X026595Y003521D01*
X026185Y003931D01*
X026185Y003456D01*
X026115Y003386D01*
X025735Y003386D01*
X025755Y003336D01*
X025755Y003235D01*
X025716Y003141D01*
X025644Y003069D01*
X025551Y003031D01*
X025449Y003031D01*
X025356Y003069D01*
X025284Y003141D01*
X025245Y003235D01*
X025245Y003336D01*
X025284Y003430D01*
X025315Y003461D01*
X025315Y004015D01*
X025335Y004036D01*
X025315Y004056D01*
X025315Y004615D01*
X025335Y004636D01*
X025315Y004656D01*
X025315Y005181D01*
X024935Y005181D01*
X024935Y004656D01*
X024915Y004636D01*
X024935Y004615D01*
X024935Y004064D01*
X024999Y004091D01*
X025101Y004091D01*
X025194Y004052D01*
X025266Y003980D01*
X025305Y003886D01*
X025305Y003785D01*
X025266Y003691D01*
X025194Y003619D01*
X025101Y003581D01*
X024999Y003581D01*
X024935Y003607D01*
X024935Y003456D01*
X024865Y003386D01*
X024135Y003386D01*
X024065Y003456D01*
X024065Y004015D01*
X024085Y004036D01*
X024065Y004056D01*
X024065Y004181D01*
X023706Y004181D01*
X023644Y004119D01*
X023551Y004081D01*
X023449Y004081D01*
X023356Y004119D01*
X023284Y004191D01*
X023245Y004285D01*
X023245Y004386D01*
X023284Y004480D01*
X023356Y004552D01*
X023449Y004591D01*
X023551Y004591D01*
X023644Y004552D01*
X023706Y004491D01*
X024065Y004491D01*
X024065Y004615D01*
X024085Y004636D01*
X024065Y004656D01*
X024065Y004857D01*
X024001Y004831D01*
X023899Y004831D01*
X023806Y004869D01*
X023779Y004896D01*
X023655Y004771D01*
X023564Y004681D01*
X017003Y004681D01*
X017020Y004639D01*
X017020Y004532D01*
X016979Y004433D01*
X016950Y004404D01*
X016950Y002730D01*
X017170Y002510D01*
X017170Y002162D01*
X016924Y001916D01*
X016576Y001916D01*
X016330Y002162D01*
X016330Y002510D01*
X016550Y002730D01*
X016550Y004404D01*
X016521Y004433D01*
X016480Y004532D01*
X016480Y004639D01*
X016497Y004681D01*
X013686Y004681D01*
X010086Y008281D01*
X009995Y008371D01*
X009995Y018099D01*
X009951Y018081D01*
X009849Y018081D01*
X009756Y018119D01*
X009694Y018181D01*
X008564Y018181D01*
X008405Y018021D01*
X008405Y017041D01*
X008466Y016980D01*
X008505Y016886D01*
X008505Y016785D01*
X008466Y016691D01*
X008394Y016619D01*
X008301Y016581D01*
X008199Y016581D01*
X008106Y016619D01*
X008034Y016691D01*
X007995Y016785D01*
X007995Y016886D01*
X008034Y016980D01*
X008095Y017041D01*
X008095Y018150D01*
X008345Y018400D01*
X008436Y018491D01*
X009694Y018491D01*
X009756Y018552D01*
X009849Y018591D01*
X009951Y018591D01*
X009995Y018572D01*
X009995Y020916D01*
X009976Y020916D01*
X009730Y021162D01*
X009730Y021510D01*
X009976Y021756D01*
X010324Y021756D01*
X010570Y021510D01*
X010570Y021162D01*
X010324Y020916D01*
X010305Y020916D01*
X010305Y020360D01*
X010495Y020550D01*
X010495Y020636D01*
X010534Y020730D01*
X010606Y020802D01*
X010699Y020841D01*
X010801Y020841D01*
X010894Y020802D01*
X010966Y020730D01*
X010970Y020721D01*
X010970Y020922D01*
X010730Y021162D01*
X010730Y021510D01*
X010976Y021756D01*
X011324Y021756D01*
X011570Y021510D01*
X011570Y021162D01*
X011330Y020922D01*
X011330Y012010D01*
X011625Y011716D01*
X016778Y011716D01*
X016784Y011730D01*
X016856Y011802D01*
X016949Y011841D01*
X017051Y011841D01*
X017144Y011802D01*
X017216Y011730D01*
X017255Y011636D01*
X017255Y011535D01*
X017237Y011491D01*
X020186Y011491D01*
X020285Y011590D01*
X020284Y011591D01*
X020245Y011685D01*
X020245Y011786D01*
X020284Y011880D01*
X020356Y011952D01*
X020449Y011991D01*
X020551Y011991D01*
X020644Y011952D01*
X020716Y011880D01*
X020755Y011786D01*
X020755Y011700D01*
X021014Y011441D01*
X023775Y011441D01*
X023716Y011583D01*
X023716Y011738D01*
X023776Y011881D01*
X023885Y011991D01*
X024029Y012050D01*
X024184Y012050D01*
X024327Y011991D01*
X024437Y011881D01*
X024496Y011738D01*
X024496Y011583D01*
X024437Y011441D01*
X024563Y011441D01*
X024504Y011583D01*
X024504Y011738D01*
X024563Y011881D01*
X024673Y011991D01*
X024816Y012050D01*
X024971Y012050D01*
X025115Y011991D01*
X025224Y011881D01*
X025284Y011738D01*
X025284Y011583D01*
X025237Y011471D01*
X026385Y011471D01*
X026385Y011490D01*
X026631Y011736D01*
X026979Y011736D01*
X027225Y011490D01*
X027225Y011142D01*
X026979Y010896D01*
X026631Y010896D01*
X026385Y011142D01*
X026385Y011161D01*
X025195Y011161D01*
X025176Y011142D01*
X025224Y011094D01*
X025284Y010951D01*
X025284Y010795D01*
X025224Y010652D01*
X025213Y010641D01*
X027914Y010641D01*
X028129Y010425D01*
X028178Y010446D01*
X028322Y010446D01*
X028454Y010391D01*
X028540Y010305D01*
X028540Y015048D01*
X028462Y014860D01*
X028226Y014624D01*
X027917Y014496D01*
X027583Y014496D01*
X027274Y014624D01*
X027038Y014860D01*
X026910Y015169D01*
X026910Y015503D01*
X027038Y015811D01*
X027274Y016048D01*
X027583Y016176D01*
X027917Y016176D01*
X028226Y016048D01*
X028462Y015811D01*
X028540Y015623D01*
X028540Y016149D01*
X027663Y017026D01*
X027663Y017026D01*
X027540Y017149D01*
X027540Y021649D01*
X027063Y022126D01*
X008038Y022126D01*
X008226Y022048D01*
X008462Y021811D01*
X008590Y021503D01*
X008590Y021169D01*
X008462Y020860D01*
X008226Y020624D01*
X007917Y020496D01*
X007583Y020496D01*
X007274Y020624D01*
X007038Y020860D01*
X006910Y021169D01*
X006910Y021503D01*
X007038Y021811D01*
X007274Y022048D01*
X007462Y022126D01*
X001960Y022126D01*
X001960Y004480D01*
X002023Y004633D01*
X002171Y004781D01*
X002364Y004861D01*
X002573Y004861D01*
X002766Y004781D01*
X002914Y004633D01*
X002993Y004440D01*
X002993Y004231D01*
X002914Y004038D01*
X002766Y003891D01*
X002573Y003811D01*
X002364Y003811D01*
X002171Y003891D01*
X002023Y004038D01*
X001960Y004191D01*
X001960Y004180D02*
X001965Y004180D01*
X001960Y004061D02*
X002014Y004061D01*
X001960Y003943D02*
X002119Y003943D01*
X001960Y003824D02*
X002332Y003824D01*
X002605Y003824D02*
X004000Y003824D01*
X003920Y003857D02*
X003762Y004016D01*
X003676Y004223D01*
X003676Y004448D01*
X003762Y004655D01*
X003920Y004814D01*
X004128Y004900D01*
X004352Y004900D01*
X004560Y004814D01*
X004719Y004655D01*
X004804Y004448D01*
X004804Y004223D01*
X004719Y004016D01*
X004560Y003857D01*
X004352Y003771D01*
X004128Y003771D01*
X003920Y003857D01*
X003835Y003943D02*
X002818Y003943D01*
X002923Y004061D02*
X003743Y004061D01*
X003694Y004180D02*
X002972Y004180D01*
X002993Y004298D02*
X003676Y004298D01*
X003676Y004417D02*
X002993Y004417D01*
X002954Y004535D02*
X003712Y004535D01*
X003761Y004654D02*
X002893Y004654D01*
X002774Y004772D02*
X003879Y004772D01*
X004105Y004891D02*
X001960Y004891D01*
X001960Y005009D02*
X013357Y005009D01*
X013239Y005128D02*
X001960Y005128D01*
X001960Y005246D02*
X013120Y005246D01*
X013002Y005365D02*
X001960Y005365D01*
X001960Y005483D02*
X012883Y005483D01*
X012765Y005602D02*
X010312Y005602D01*
X010298Y005596D02*
X010386Y005632D01*
X010453Y005700D01*
X010490Y005788D01*
X010490Y005883D01*
X010453Y005972D01*
X010386Y006039D01*
X010298Y006076D01*
X009948Y006076D01*
X012291Y006076D01*
X012172Y006194D02*
X001960Y006194D01*
X001960Y006076D02*
X009552Y006076D01*
X009574Y006098D02*
X009487Y006011D01*
X009440Y005897D01*
X009440Y005774D01*
X009487Y005660D01*
X009574Y005573D01*
X009688Y005526D01*
X009812Y005526D01*
X009926Y005573D01*
X009948Y005596D01*
X010298Y005596D01*
X010462Y005720D02*
X012646Y005720D01*
X012528Y005839D02*
X010490Y005839D01*
X010459Y005957D02*
X012409Y005957D01*
X012742Y006313D02*
X015495Y006313D01*
X015495Y006285D02*
X015495Y006386D01*
X015534Y006480D01*
X015606Y006552D01*
X015699Y006591D01*
X015801Y006591D01*
X015894Y006552D01*
X015966Y006480D01*
X016005Y006386D01*
X016005Y006285D01*
X015966Y006191D01*
X015894Y006119D01*
X015801Y006081D01*
X015699Y006081D01*
X015606Y006119D01*
X015534Y006191D01*
X015495Y006285D01*
X015533Y006194D02*
X012861Y006194D01*
X012979Y006076D02*
X016913Y006076D01*
X016949Y006091D02*
X016856Y006052D01*
X016784Y005980D01*
X016745Y005886D01*
X016745Y005785D01*
X016784Y005691D01*
X016856Y005619D01*
X016949Y005581D01*
X017051Y005581D01*
X017144Y005619D01*
X017216Y005691D01*
X017255Y005785D01*
X017255Y005886D01*
X017216Y005980D01*
X017144Y006052D01*
X017051Y006091D01*
X016949Y006091D01*
X017087Y006076D02*
X018913Y006076D01*
X018949Y006091D02*
X018856Y006052D01*
X018784Y005980D01*
X018745Y005886D01*
X018745Y005785D01*
X018784Y005691D01*
X018856Y005619D01*
X018949Y005581D01*
X019051Y005581D01*
X019144Y005619D01*
X019216Y005691D01*
X019255Y005785D01*
X019255Y005886D01*
X019216Y005980D01*
X019144Y006052D01*
X019051Y006091D01*
X018949Y006091D01*
X019087Y006076D02*
X020913Y006076D01*
X020949Y006091D02*
X020856Y006052D01*
X020784Y005980D01*
X020745Y005886D01*
X020745Y005785D01*
X020784Y005691D01*
X020856Y005619D01*
X020949Y005581D01*
X021051Y005581D01*
X021144Y005619D01*
X021216Y005691D01*
X021255Y005785D01*
X021255Y005886D01*
X021216Y005980D01*
X021144Y006052D01*
X021051Y006091D01*
X020949Y006091D01*
X021087Y006076D02*
X022663Y006076D01*
X022699Y006091D02*
X022606Y006052D01*
X022534Y005980D01*
X022495Y005886D01*
X022495Y005785D01*
X022534Y005691D01*
X022606Y005619D01*
X022699Y005581D01*
X022801Y005581D01*
X022894Y005619D01*
X022966Y005691D01*
X023005Y005785D01*
X023005Y005886D01*
X022966Y005980D01*
X022894Y006052D01*
X022801Y006091D01*
X022699Y006091D01*
X022837Y006076D02*
X023663Y006076D01*
X023837Y006076D02*
X024029Y006076D01*
X023995Y006194D02*
X015967Y006194D01*
X016005Y006313D02*
X024017Y006313D01*
X024118Y006431D02*
X015986Y006431D01*
X015897Y006550D02*
X024995Y006550D01*
X025008Y006668D02*
X012387Y006668D01*
X012505Y006550D02*
X015603Y006550D01*
X015514Y006431D02*
X012624Y006431D01*
X012268Y006787D02*
X025090Y006787D01*
X025410Y006787D02*
X028540Y006787D01*
X028540Y006905D02*
X012150Y006905D01*
X012031Y007024D02*
X020960Y007024D01*
X020973Y007011D02*
X021027Y006971D01*
X021087Y006941D01*
X021150Y006920D01*
X021216Y006910D01*
X021221Y006910D01*
X021221Y007307D01*
X020824Y007307D01*
X020824Y007302D01*
X020835Y007236D01*
X020855Y007172D01*
X020886Y007112D01*
X020925Y007058D01*
X020973Y007011D01*
X020871Y007142D02*
X011913Y007142D01*
X011794Y007261D02*
X020831Y007261D01*
X020824Y007364D02*
X021221Y007364D01*
X021221Y007307D01*
X021279Y007307D01*
X021279Y007364D01*
X021676Y007364D01*
X021676Y007369D01*
X021665Y007435D01*
X021659Y007456D01*
X021673Y007450D01*
X021827Y007450D01*
X021841Y007456D01*
X021835Y007435D01*
X021824Y007369D01*
X021824Y007364D01*
X022221Y007364D01*
X022221Y007307D01*
X021824Y007307D01*
X021824Y007302D01*
X021835Y007236D01*
X021855Y007172D01*
X021886Y007112D01*
X021925Y007058D01*
X021973Y007011D01*
X022027Y006971D01*
X022087Y006941D01*
X022150Y006920D01*
X022216Y006910D01*
X022221Y006910D01*
X022221Y007307D01*
X022279Y007307D01*
X022279Y007364D01*
X022676Y007364D01*
X022676Y007369D01*
X022665Y007435D01*
X022645Y007499D01*
X022614Y007559D01*
X022575Y007613D01*
X022527Y007660D01*
X022473Y007700D01*
X022413Y007730D01*
X022350Y007751D01*
X022284Y007761D01*
X022279Y007761D01*
X022279Y007364D01*
X022221Y007364D01*
X022221Y007761D01*
X022216Y007761D01*
X022150Y007751D01*
X022130Y007744D01*
X022136Y007759D01*
X022136Y007912D01*
X022130Y007927D01*
X022150Y007920D01*
X022216Y007910D01*
X022221Y007910D01*
X022221Y008307D01*
X021824Y008307D01*
X021824Y008302D01*
X021835Y008236D01*
X021841Y008215D01*
X021827Y008221D01*
X021673Y008221D01*
X021659Y008215D01*
X021665Y008236D01*
X021676Y008302D01*
X021676Y008307D01*
X021279Y008307D01*
X021279Y008364D01*
X021676Y008364D01*
X021676Y008369D01*
X021665Y008435D01*
X021645Y008499D01*
X021614Y008559D01*
X021575Y008613D01*
X021527Y008660D01*
X021473Y008700D01*
X021413Y008730D01*
X021350Y008751D01*
X021284Y008761D01*
X021279Y008761D01*
X021279Y008364D01*
X021221Y008364D01*
X021221Y008307D01*
X020824Y008307D01*
X020824Y008302D01*
X020835Y008236D01*
X020855Y008172D01*
X020886Y008112D01*
X020925Y008058D01*
X020973Y008011D01*
X021027Y007971D01*
X021087Y007941D01*
X021150Y007920D01*
X021216Y007910D01*
X021221Y007910D01*
X021221Y008307D01*
X021279Y008307D01*
X021279Y007910D01*
X021284Y007910D01*
X021350Y007920D01*
X021370Y007927D01*
X021364Y007912D01*
X021364Y007759D01*
X021370Y007744D01*
X021350Y007751D01*
X021284Y007761D01*
X021279Y007761D01*
X021279Y007364D01*
X021221Y007364D01*
X021221Y007761D01*
X021216Y007761D01*
X021150Y007751D01*
X021087Y007730D01*
X021027Y007700D01*
X020973Y007660D01*
X020925Y007613D01*
X020886Y007559D01*
X020855Y007499D01*
X020835Y007435D01*
X020824Y007369D01*
X020824Y007364D01*
X020826Y007379D02*
X011676Y007379D01*
X011557Y007498D02*
X020855Y007498D01*
X020928Y007616D02*
X011439Y007616D01*
X011320Y007735D02*
X021100Y007735D01*
X021221Y007735D02*
X021279Y007735D01*
X021279Y007616D02*
X021221Y007616D01*
X021221Y007498D02*
X021279Y007498D01*
X021279Y007379D02*
X021221Y007379D01*
X021279Y007307D02*
X021676Y007307D01*
X021676Y007302D01*
X021665Y007236D01*
X021645Y007172D01*
X021614Y007112D01*
X021575Y007058D01*
X021527Y007011D01*
X021473Y006971D01*
X021413Y006941D01*
X021350Y006920D01*
X021284Y006910D01*
X021279Y006910D01*
X021279Y007307D01*
X021279Y007261D02*
X021221Y007261D01*
X021221Y007142D02*
X021279Y007142D01*
X021279Y007024D02*
X021221Y007024D01*
X021540Y007024D02*
X021960Y007024D01*
X021871Y007142D02*
X021629Y007142D01*
X021669Y007261D02*
X021831Y007261D01*
X021826Y007379D02*
X021674Y007379D01*
X022221Y007379D02*
X022279Y007379D01*
X022279Y007307D02*
X022676Y007307D01*
X022676Y007302D01*
X022665Y007236D01*
X022645Y007172D01*
X022614Y007112D01*
X022575Y007058D01*
X022527Y007011D01*
X022473Y006971D01*
X022413Y006941D01*
X022350Y006920D01*
X022284Y006910D01*
X022279Y006910D01*
X022279Y007307D01*
X022279Y007261D02*
X022221Y007261D01*
X022221Y007142D02*
X022279Y007142D01*
X022279Y007024D02*
X022221Y007024D01*
X022540Y007024D02*
X028540Y007024D01*
X028540Y007142D02*
X022629Y007142D01*
X022669Y007261D02*
X028540Y007261D01*
X028540Y007379D02*
X025151Y007379D01*
X024924Y007379D02*
X024864Y007379D01*
X024864Y007498D02*
X024924Y007498D01*
X024924Y007616D02*
X024864Y007616D01*
X024924Y007735D02*
X028540Y007735D01*
X028540Y007853D02*
X025304Y007853D01*
X025245Y007972D02*
X028540Y007972D01*
X028540Y008090D02*
X025121Y008090D01*
X025143Y008209D02*
X028540Y008209D01*
X028540Y008327D02*
X025240Y008327D01*
X025284Y008446D02*
X028540Y008446D01*
X028540Y008564D02*
X025284Y008564D01*
X025245Y008683D02*
X028540Y008683D01*
X028540Y008801D02*
X025155Y008801D01*
X025115Y008968D02*
X025224Y009077D01*
X025284Y009221D01*
X025284Y009376D01*
X025224Y009519D01*
X025115Y009629D01*
X024971Y009688D01*
X024816Y009688D01*
X024673Y009629D01*
X024563Y009519D01*
X024504Y009376D01*
X024504Y009221D01*
X024563Y009077D01*
X024673Y008968D01*
X024816Y008908D01*
X024971Y008908D01*
X025115Y008968D01*
X025185Y009038D02*
X028540Y009038D01*
X028540Y008920D02*
X024999Y008920D01*
X024789Y008920D02*
X024211Y008920D01*
X024368Y008801D02*
X024632Y008801D01*
X024543Y008683D02*
X024457Y008683D01*
X024496Y008564D02*
X024504Y008564D01*
X024496Y008446D02*
X024504Y008446D01*
X024548Y008327D02*
X024452Y008327D01*
X024356Y008209D02*
X024644Y008209D01*
X024667Y008090D02*
X024240Y008090D01*
X024410Y007972D02*
X024543Y007972D01*
X024484Y007853D02*
X024475Y007853D01*
X024432Y007498D02*
X024526Y007498D01*
X024636Y007379D02*
X024294Y007379D01*
X023918Y007379D02*
X022674Y007379D01*
X022645Y007498D02*
X023781Y007498D01*
X023729Y007616D02*
X022572Y007616D01*
X022400Y007735D02*
X023716Y007735D01*
X023738Y007853D02*
X022136Y007853D01*
X022221Y007735D02*
X022279Y007735D01*
X022279Y007616D02*
X022221Y007616D01*
X022221Y007498D02*
X022279Y007498D01*
X022279Y007910D02*
X022284Y007910D01*
X022350Y007920D01*
X022413Y007941D01*
X022473Y007971D01*
X022527Y008011D01*
X022575Y008058D01*
X022614Y008112D01*
X022645Y008172D01*
X022665Y008236D01*
X022676Y008302D01*
X022676Y008307D01*
X022279Y008307D01*
X022279Y008364D01*
X022676Y008364D01*
X022676Y008369D01*
X022665Y008435D01*
X022645Y008499D01*
X022614Y008559D01*
X022575Y008613D01*
X022527Y008660D01*
X022473Y008700D01*
X022413Y008730D01*
X022350Y008751D01*
X022284Y008761D01*
X022279Y008761D01*
X022279Y008364D01*
X022221Y008364D01*
X022221Y008307D01*
X022279Y008307D01*
X022279Y007910D01*
X022279Y007972D02*
X022221Y007972D01*
X022221Y008090D02*
X022279Y008090D01*
X022279Y008209D02*
X022221Y008209D01*
X022221Y008327D02*
X021279Y008327D01*
X021221Y008327D02*
X016131Y008327D01*
X016116Y008291D02*
X016155Y008385D01*
X016155Y008486D01*
X016116Y008580D01*
X016044Y008652D01*
X015951Y008691D01*
X015849Y008691D01*
X015756Y008652D01*
X015684Y008580D01*
X015645Y008486D01*
X015645Y008385D01*
X015684Y008291D01*
X015756Y008219D01*
X015849Y008181D01*
X015951Y008181D01*
X016044Y008219D01*
X016116Y008291D01*
X016018Y008209D02*
X020844Y008209D01*
X020902Y008090D02*
X010965Y008090D01*
X011083Y007972D02*
X021027Y007972D01*
X021221Y007972D02*
X021279Y007972D01*
X021279Y008090D02*
X021221Y008090D01*
X021221Y008209D02*
X021279Y008209D01*
X021221Y008364D02*
X020824Y008364D01*
X020824Y008369D01*
X020835Y008435D01*
X020855Y008499D01*
X020886Y008559D01*
X020925Y008613D01*
X020973Y008660D01*
X021027Y008700D01*
X021087Y008730D01*
X021150Y008751D01*
X021216Y008761D01*
X021221Y008761D01*
X021221Y008364D01*
X021221Y008446D02*
X021279Y008446D01*
X021279Y008564D02*
X021221Y008564D01*
X021221Y008683D02*
X021279Y008683D01*
X021497Y008683D02*
X022003Y008683D01*
X022027Y008700D02*
X021973Y008660D01*
X021925Y008613D01*
X021886Y008559D01*
X021855Y008499D01*
X021835Y008435D01*
X021824Y008369D01*
X021824Y008364D01*
X022221Y008364D01*
X022221Y008761D01*
X022216Y008761D01*
X022150Y008751D01*
X022087Y008730D01*
X022027Y008700D01*
X021890Y008564D02*
X021610Y008564D01*
X021662Y008446D02*
X021838Y008446D01*
X022221Y008446D02*
X022279Y008446D01*
X022279Y008564D02*
X022221Y008564D01*
X022221Y008683D02*
X022279Y008683D01*
X022497Y008683D02*
X023295Y008683D01*
X023295Y008801D02*
X010455Y008801D01*
X010455Y008683D02*
X015830Y008683D01*
X015970Y008683D02*
X021003Y008683D01*
X020890Y008564D02*
X016123Y008564D01*
X016155Y008446D02*
X020838Y008446D01*
X021364Y007853D02*
X011202Y007853D01*
X010869Y007498D02*
X001960Y007498D01*
X001960Y007616D02*
X010750Y007616D01*
X010632Y007735D02*
X001960Y007735D01*
X001960Y007853D02*
X010513Y007853D01*
X010395Y007972D02*
X001960Y007972D01*
X001960Y008090D02*
X010276Y008090D01*
X010158Y008209D02*
X001960Y008209D01*
X001960Y008327D02*
X010039Y008327D01*
X009995Y008446D02*
X001960Y008446D01*
X001960Y008564D02*
X009995Y008564D01*
X009995Y008683D02*
X001960Y008683D01*
X001960Y008801D02*
X009995Y008801D01*
X009995Y008920D02*
X001960Y008920D01*
X001960Y009038D02*
X009995Y009038D01*
X009995Y009157D02*
X001960Y009157D01*
X001960Y009275D02*
X009995Y009275D01*
X009995Y009394D02*
X001960Y009394D01*
X001960Y009512D02*
X009995Y009512D01*
X009995Y009631D02*
X001960Y009631D01*
X001960Y009749D02*
X009995Y009749D01*
X009995Y009868D02*
X001960Y009868D01*
X001960Y009986D02*
X009995Y009986D01*
X009995Y010105D02*
X001960Y010105D01*
X001960Y010223D02*
X009995Y010223D01*
X009995Y010342D02*
X001960Y010342D01*
X001960Y010460D02*
X009995Y010460D01*
X009995Y010579D02*
X001960Y010579D01*
X001960Y010697D02*
X009995Y010697D01*
X009995Y010816D02*
X001960Y010816D01*
X001960Y010934D02*
X009995Y010934D01*
X009995Y011053D02*
X001960Y011053D01*
X001960Y011171D02*
X009995Y011171D01*
X009995Y011290D02*
X001960Y011290D01*
X001960Y011408D02*
X009995Y011408D01*
X009995Y011527D02*
X001960Y011527D01*
X001960Y011645D02*
X009995Y011645D01*
X009995Y011764D02*
X001960Y011764D01*
X001960Y011882D02*
X009995Y011882D01*
X009995Y012001D02*
X001960Y012001D01*
X001960Y012119D02*
X009995Y012119D01*
X009995Y012238D02*
X001960Y012238D01*
X001960Y012356D02*
X009995Y012356D01*
X009995Y012475D02*
X001960Y012475D01*
X001960Y012593D02*
X009995Y012593D01*
X009995Y012712D02*
X001960Y012712D01*
X001960Y012830D02*
X009995Y012830D01*
X009995Y012949D02*
X001960Y012949D01*
X001960Y013067D02*
X009995Y013067D01*
X009995Y013186D02*
X001960Y013186D01*
X001960Y013304D02*
X009995Y013304D01*
X009995Y013423D02*
X001960Y013423D01*
X001960Y013541D02*
X009995Y013541D01*
X009995Y013660D02*
X001960Y013660D01*
X001960Y013778D02*
X009995Y013778D01*
X009995Y013897D02*
X001960Y013897D01*
X001960Y014015D02*
X009995Y014015D01*
X009995Y014134D02*
X001960Y014134D01*
X001960Y014252D02*
X009995Y014252D01*
X009995Y014371D02*
X001960Y014371D01*
X001960Y014489D02*
X008003Y014489D01*
X008076Y014416D02*
X008424Y014416D01*
X008670Y014662D01*
X008670Y015010D01*
X008424Y015256D01*
X008076Y015256D01*
X007830Y015010D01*
X007830Y014662D01*
X008076Y014416D01*
X007884Y014608D02*
X001960Y014608D01*
X001960Y014726D02*
X007830Y014726D01*
X007830Y014845D02*
X001960Y014845D01*
X001960Y014963D02*
X007830Y014963D01*
X007902Y015082D02*
X001960Y015082D01*
X001960Y015200D02*
X008021Y015200D01*
X008199Y015581D02*
X008106Y015619D01*
X008034Y015691D01*
X007995Y015785D01*
X007995Y015886D01*
X008034Y015980D01*
X008106Y016052D01*
X008199Y016091D01*
X008301Y016091D01*
X008394Y016052D01*
X008466Y015980D01*
X008505Y015886D01*
X008505Y015785D01*
X008466Y015691D01*
X008394Y015619D01*
X008301Y015581D01*
X008199Y015581D01*
X008051Y015674D02*
X007489Y015674D01*
X007505Y015636D02*
X007466Y015730D01*
X007430Y015766D01*
X007430Y016761D01*
X007930Y017261D01*
X007930Y017405D01*
X007966Y017441D01*
X008005Y017535D01*
X008005Y017636D01*
X007966Y017730D01*
X007894Y017802D01*
X007801Y017841D01*
X007699Y017841D01*
X007606Y017802D01*
X007534Y017730D01*
X007495Y017636D01*
X007495Y017535D01*
X007534Y017441D01*
X007567Y017408D01*
X007175Y017016D01*
X007070Y016910D01*
X007070Y015766D01*
X007034Y015730D01*
X006995Y015636D01*
X006995Y015535D01*
X007034Y015441D01*
X007106Y015369D01*
X007199Y015331D01*
X007301Y015331D01*
X007394Y015369D01*
X007466Y015441D01*
X007505Y015535D01*
X007505Y015636D01*
X007505Y015556D02*
X009995Y015556D01*
X009995Y015674D02*
X008449Y015674D01*
X008505Y015793D02*
X009995Y015793D01*
X009995Y015911D02*
X008495Y015911D01*
X008417Y016030D02*
X009995Y016030D01*
X009995Y016148D02*
X007430Y016148D01*
X007430Y016030D02*
X008083Y016030D01*
X008005Y015911D02*
X007430Y015911D01*
X007430Y015793D02*
X007995Y015793D01*
X007462Y015437D02*
X009995Y015437D01*
X009995Y015319D02*
X001960Y015319D01*
X001960Y015437D02*
X007038Y015437D01*
X006995Y015556D02*
X001960Y015556D01*
X001960Y015674D02*
X007011Y015674D01*
X007070Y015793D02*
X001960Y015793D01*
X001960Y015911D02*
X007070Y015911D01*
X007070Y016030D02*
X001960Y016030D01*
X001960Y016148D02*
X007070Y016148D01*
X007070Y016267D02*
X001960Y016267D01*
X001960Y016385D02*
X007070Y016385D01*
X007070Y016504D02*
X001960Y016504D01*
X001960Y016622D02*
X007070Y016622D01*
X007070Y016741D02*
X001960Y016741D01*
X001960Y016859D02*
X007070Y016859D01*
X007137Y016978D02*
X005074Y016978D01*
X005056Y016960D02*
X005126Y017030D01*
X005126Y017641D01*
X005056Y017711D01*
X004593Y017711D01*
X004155Y018150D01*
X004155Y018236D01*
X004116Y018330D01*
X004044Y018402D01*
X003975Y018431D01*
X004374Y018431D01*
X004374Y018030D01*
X004444Y017960D01*
X005056Y017960D01*
X005106Y018010D01*
X005245Y017871D01*
X005245Y017785D01*
X005284Y017691D01*
X005356Y017619D01*
X005449Y017581D01*
X005551Y017581D01*
X005644Y017619D01*
X005716Y017691D01*
X005755Y017785D01*
X005755Y017886D01*
X005716Y017980D01*
X005644Y018052D01*
X005551Y018091D01*
X005464Y018091D01*
X005126Y018429D01*
X005126Y018641D01*
X005056Y018711D01*
X004843Y018711D01*
X004814Y018741D01*
X003956Y018741D01*
X003894Y018802D01*
X003801Y018841D01*
X003699Y018841D01*
X003606Y018802D01*
X003534Y018730D01*
X003495Y018636D01*
X003495Y018535D01*
X003534Y018441D01*
X003606Y018369D01*
X003689Y018335D01*
X003684Y018330D01*
X003645Y018236D01*
X003645Y018135D01*
X003660Y018100D01*
X003531Y018046D01*
X003423Y017938D01*
X003364Y017796D01*
X003364Y017643D01*
X003423Y017501D01*
X003531Y017392D01*
X003673Y017334D01*
X003827Y017334D01*
X003969Y017392D01*
X004077Y017501D01*
X004136Y017643D01*
X004136Y017731D01*
X004374Y017492D01*
X004374Y017030D01*
X004444Y016960D01*
X005056Y016960D01*
X005126Y017096D02*
X007256Y017096D01*
X007374Y017215D02*
X005126Y017215D01*
X005126Y017333D02*
X007493Y017333D01*
X007529Y017452D02*
X005126Y017452D01*
X005126Y017570D02*
X007495Y017570D01*
X007517Y017689D02*
X005714Y017689D01*
X005755Y017807D02*
X007618Y017807D01*
X007750Y017586D02*
X007750Y017336D01*
X007250Y016836D01*
X007250Y015586D01*
X007430Y016267D02*
X009995Y016267D01*
X009995Y016385D02*
X007430Y016385D01*
X007430Y016504D02*
X009995Y016504D01*
X009995Y016622D02*
X008397Y016622D01*
X008487Y016741D02*
X009995Y016741D01*
X009995Y016859D02*
X008505Y016859D01*
X008467Y016978D02*
X009995Y016978D01*
X009995Y017096D02*
X008405Y017096D01*
X008405Y017215D02*
X009995Y017215D01*
X009995Y017333D02*
X008405Y017333D01*
X008405Y017452D02*
X009995Y017452D01*
X009995Y017570D02*
X008405Y017570D01*
X008405Y017689D02*
X009995Y017689D01*
X009995Y017807D02*
X008405Y017807D01*
X008405Y017926D02*
X009995Y017926D01*
X009995Y018044D02*
X008428Y018044D01*
X008546Y018163D02*
X009712Y018163D01*
X009722Y018518D02*
X005126Y018518D01*
X005126Y018637D02*
X009995Y018637D01*
X009995Y018755D02*
X003941Y018755D01*
X003827Y019066D02*
X003673Y019066D01*
X003531Y019125D01*
X003423Y019233D01*
X003364Y019375D01*
X003364Y019528D01*
X003423Y019670D01*
X003531Y019779D01*
X003673Y019837D01*
X003827Y019837D01*
X003969Y019779D01*
X004077Y019670D01*
X004136Y019528D01*
X004136Y019375D01*
X004077Y019233D01*
X003969Y019125D01*
X003827Y019066D01*
X003935Y019111D02*
X004374Y019111D01*
X004374Y019030D02*
X004444Y018960D01*
X005056Y018960D01*
X005126Y019030D01*
X005126Y019457D01*
X005564Y019895D01*
X005599Y019881D01*
X005701Y019881D01*
X005794Y019919D01*
X005866Y019991D01*
X005905Y020085D01*
X005905Y020186D01*
X005866Y020280D01*
X005794Y020352D01*
X005701Y020391D01*
X005599Y020391D01*
X005506Y020352D01*
X005434Y020280D01*
X005430Y020270D01*
X004871Y019711D01*
X004444Y019711D01*
X004374Y019641D01*
X004374Y019030D01*
X004412Y018992D02*
X001960Y018992D01*
X001960Y018874D02*
X009995Y018874D01*
X009995Y018992D02*
X005088Y018992D01*
X005126Y019111D02*
X009995Y019111D01*
X009995Y019229D02*
X005126Y019229D01*
X005126Y019348D02*
X009995Y019348D01*
X009995Y019466D02*
X005135Y019466D01*
X005254Y019585D02*
X009995Y019585D01*
X009995Y019703D02*
X005372Y019703D01*
X005491Y019822D02*
X009995Y019822D01*
X009995Y019940D02*
X005815Y019940D01*
X005894Y020059D02*
X009995Y020059D01*
X009995Y020177D02*
X005905Y020177D01*
X005851Y020296D02*
X009995Y020296D01*
X009995Y020414D02*
X001960Y020414D01*
X001960Y020296D02*
X005449Y020296D01*
X005337Y020177D02*
X001960Y020177D01*
X001960Y020059D02*
X005218Y020059D01*
X005100Y019940D02*
X001960Y019940D01*
X001960Y019822D02*
X003635Y019822D01*
X003456Y019703D02*
X001960Y019703D01*
X001960Y019585D02*
X003388Y019585D01*
X003364Y019466D02*
X001960Y019466D01*
X001960Y019348D02*
X003376Y019348D01*
X003427Y019229D02*
X001960Y019229D01*
X001960Y019111D02*
X003565Y019111D01*
X003559Y018755D02*
X001960Y018755D01*
X001960Y018637D02*
X003495Y018637D01*
X003502Y018518D02*
X001960Y018518D01*
X001960Y018400D02*
X003575Y018400D01*
X003664Y018281D02*
X001960Y018281D01*
X001960Y018163D02*
X003645Y018163D01*
X003529Y018044D02*
X001960Y018044D01*
X001960Y017926D02*
X003418Y017926D01*
X003369Y017807D02*
X001960Y017807D01*
X001960Y017689D02*
X003364Y017689D01*
X003394Y017570D02*
X001960Y017570D01*
X001960Y017452D02*
X003472Y017452D01*
X004028Y017452D02*
X004374Y017452D01*
X004374Y017333D02*
X001960Y017333D01*
X001960Y017215D02*
X004374Y017215D01*
X004374Y017096D02*
X001960Y017096D01*
X001960Y016978D02*
X004426Y016978D01*
X004296Y017570D02*
X004106Y017570D01*
X004136Y017689D02*
X004178Y017689D01*
X004379Y017926D02*
X005191Y017926D01*
X005245Y017807D02*
X004498Y017807D01*
X004374Y018044D02*
X004261Y018044D01*
X004155Y018163D02*
X004374Y018163D01*
X004374Y018281D02*
X004136Y018281D01*
X004047Y018400D02*
X004374Y018400D01*
X005155Y018400D02*
X008345Y018400D01*
X008226Y018281D02*
X005274Y018281D01*
X005392Y018163D02*
X008108Y018163D01*
X008095Y018044D02*
X005652Y018044D01*
X005739Y017926D02*
X008095Y017926D01*
X008095Y017807D02*
X007882Y017807D01*
X007983Y017689D02*
X008095Y017689D01*
X008095Y017570D02*
X008005Y017570D01*
X007971Y017452D02*
X008095Y017452D01*
X008095Y017333D02*
X007930Y017333D01*
X007884Y017215D02*
X008095Y017215D01*
X008095Y017096D02*
X007765Y017096D01*
X007647Y016978D02*
X008033Y016978D01*
X007995Y016859D02*
X007528Y016859D01*
X007430Y016741D02*
X008013Y016741D01*
X008103Y016622D02*
X007430Y016622D01*
X008479Y015200D02*
X008845Y015200D01*
X008830Y015185D02*
X008830Y014486D01*
X008900Y014416D01*
X009600Y014416D01*
X009670Y014486D01*
X009670Y015185D01*
X009600Y015256D01*
X008900Y015256D01*
X008830Y015185D01*
X008830Y015082D02*
X008598Y015082D01*
X008670Y014963D02*
X008830Y014963D01*
X008830Y014845D02*
X008670Y014845D01*
X008670Y014726D02*
X008830Y014726D01*
X008830Y014608D02*
X008616Y014608D01*
X008497Y014489D02*
X008830Y014489D01*
X009670Y014489D02*
X009995Y014489D01*
X009995Y014608D02*
X009670Y014608D01*
X009670Y014726D02*
X009995Y014726D01*
X009995Y014845D02*
X009670Y014845D01*
X009670Y014963D02*
X009995Y014963D01*
X009995Y015082D02*
X009670Y015082D01*
X009655Y015200D02*
X009995Y015200D01*
X010455Y015200D02*
X010970Y015200D01*
X010970Y015082D02*
X010455Y015082D01*
X010455Y014963D02*
X010970Y014963D01*
X010970Y014845D02*
X010455Y014845D01*
X010455Y014726D02*
X010970Y014726D01*
X010970Y014608D02*
X010455Y014608D01*
X010455Y014489D02*
X010970Y014489D01*
X010970Y014371D02*
X010455Y014371D01*
X010455Y014252D02*
X010970Y014252D01*
X010970Y014134D02*
X010455Y014134D01*
X010455Y014015D02*
X010970Y014015D01*
X010970Y013897D02*
X010455Y013897D01*
X010455Y013778D02*
X010970Y013778D01*
X010970Y013660D02*
X010455Y013660D01*
X010455Y013541D02*
X010970Y013541D01*
X010970Y013423D02*
X010455Y013423D01*
X010455Y013304D02*
X010970Y013304D01*
X010970Y013186D02*
X010455Y013186D01*
X010455Y013067D02*
X010970Y013067D01*
X010970Y012949D02*
X010455Y012949D01*
X010455Y012830D02*
X010970Y012830D01*
X010970Y012712D02*
X010455Y012712D01*
X010455Y012593D02*
X010970Y012593D01*
X010970Y012475D02*
X010455Y012475D01*
X010455Y012356D02*
X010970Y012356D01*
X010970Y012238D02*
X010455Y012238D01*
X010455Y012119D02*
X010970Y012119D01*
X010970Y012001D02*
X010455Y012001D01*
X010455Y011882D02*
X010970Y011882D01*
X011067Y011764D02*
X010455Y011764D01*
X010455Y011645D02*
X011186Y011645D01*
X011304Y011527D02*
X010455Y011527D01*
X010455Y011408D02*
X011423Y011408D01*
X011550Y011536D02*
X011150Y011936D01*
X011150Y021336D01*
X011570Y021362D02*
X012110Y021362D01*
X012110Y021376D02*
X012110Y021296D01*
X011690Y021296D01*
X011690Y021145D01*
X011959Y020876D01*
X012110Y020876D01*
X012110Y021296D01*
X012190Y021296D01*
X012190Y021376D01*
X012110Y021376D01*
X012110Y021796D01*
X011959Y021796D01*
X011690Y021526D01*
X011690Y021376D01*
X012110Y021376D01*
X012190Y021376D02*
X012190Y021796D01*
X012341Y021796D01*
X012610Y021526D01*
X012610Y021376D01*
X012190Y021376D01*
X012190Y021362D02*
X012730Y021362D01*
X012730Y021244D02*
X012610Y021244D01*
X012610Y021296D02*
X012190Y021296D01*
X012190Y020876D01*
X012341Y020876D01*
X012610Y021145D01*
X012610Y021296D01*
X012590Y021125D02*
X012766Y021125D01*
X012730Y021162D02*
X012976Y020916D01*
X013324Y020916D01*
X013570Y021162D01*
X013570Y021510D01*
X013324Y021756D01*
X012976Y021756D01*
X012730Y021510D01*
X012730Y021162D01*
X012885Y021007D02*
X012472Y021007D01*
X012353Y020888D02*
X014495Y020888D01*
X014495Y020900D02*
X014495Y020335D01*
X014324Y020506D01*
X013976Y020506D01*
X013730Y020260D01*
X013730Y019912D01*
X013976Y019666D01*
X014324Y019666D01*
X014495Y019837D01*
X014495Y019800D01*
X013966Y019271D01*
X013720Y019271D01*
X013700Y019250D01*
X013680Y019271D01*
X013120Y019271D01*
X013050Y019200D01*
X013050Y018991D01*
X012956Y018991D01*
X012894Y019052D01*
X012801Y019091D01*
X012699Y019091D01*
X012606Y019052D01*
X012534Y018980D01*
X012495Y018886D01*
X012495Y018785D01*
X012534Y018691D01*
X012606Y018619D01*
X012699Y018581D01*
X012801Y018581D01*
X012894Y018619D01*
X012956Y018681D01*
X013050Y018681D01*
X013050Y018471D01*
X013120Y018401D01*
X013680Y018401D01*
X013700Y018421D01*
X013720Y018401D01*
X014280Y018401D01*
X014300Y018421D01*
X014320Y018401D01*
X014595Y018401D01*
X014595Y018291D01*
X014534Y018230D01*
X014495Y018136D01*
X014495Y018035D01*
X014534Y017941D01*
X014606Y017869D01*
X014699Y017831D01*
X014801Y017831D01*
X014894Y017869D01*
X014966Y017941D01*
X015005Y018035D01*
X015005Y018136D01*
X014966Y018230D01*
X014905Y018291D01*
X014905Y018426D01*
X014950Y018471D01*
X014950Y019200D01*
X014880Y019271D01*
X014404Y019271D01*
X014714Y019581D01*
X014805Y019671D01*
X014805Y019837D01*
X014976Y019666D01*
X015324Y019666D01*
X015570Y019912D01*
X015570Y020260D01*
X015324Y020506D01*
X014976Y020506D01*
X014805Y020335D01*
X014805Y020771D01*
X014963Y020929D01*
X014976Y020916D01*
X015324Y020916D01*
X015570Y021162D01*
X015570Y021510D01*
X015324Y021756D01*
X014976Y021756D01*
X014730Y021510D01*
X014730Y021162D01*
X014743Y021148D01*
X014495Y020900D01*
X014495Y020770D02*
X011330Y020770D01*
X011330Y020888D02*
X011947Y020888D01*
X012110Y020888D02*
X012190Y020888D01*
X012190Y021007D02*
X012110Y021007D01*
X012110Y021125D02*
X012190Y021125D01*
X012190Y021244D02*
X012110Y021244D01*
X012110Y021481D02*
X012190Y021481D01*
X012190Y021599D02*
X012110Y021599D01*
X012110Y021718D02*
X012190Y021718D01*
X012418Y021718D02*
X012938Y021718D01*
X012820Y021599D02*
X012537Y021599D01*
X012610Y021481D02*
X012730Y021481D01*
X013362Y021718D02*
X013938Y021718D01*
X013976Y021756D02*
X013730Y021510D01*
X013730Y021162D01*
X013976Y020916D01*
X014324Y020916D01*
X014570Y021162D01*
X014570Y021510D01*
X014324Y021756D01*
X013976Y021756D01*
X013820Y021599D02*
X013480Y021599D01*
X013570Y021481D02*
X013730Y021481D01*
X013730Y021362D02*
X013570Y021362D01*
X013570Y021244D02*
X013730Y021244D01*
X013766Y021125D02*
X013534Y021125D01*
X013415Y021007D02*
X013885Y021007D01*
X014415Y021007D02*
X014602Y021007D01*
X014534Y021125D02*
X014720Y021125D01*
X014730Y021244D02*
X014570Y021244D01*
X014570Y021362D02*
X014730Y021362D01*
X014730Y021481D02*
X014570Y021481D01*
X014480Y021599D02*
X014820Y021599D01*
X014938Y021718D02*
X014362Y021718D01*
X015362Y021718D02*
X015938Y021718D01*
X015976Y021756D02*
X015730Y021510D01*
X015730Y021162D01*
X015976Y020916D01*
X016324Y020916D01*
X016570Y021162D01*
X016570Y021510D01*
X016324Y021756D01*
X015976Y021756D01*
X015820Y021599D02*
X015480Y021599D01*
X015570Y021481D02*
X015730Y021481D01*
X015730Y021362D02*
X015570Y021362D01*
X015570Y021244D02*
X015730Y021244D01*
X015766Y021125D02*
X015534Y021125D01*
X015415Y021007D02*
X015885Y021007D01*
X016415Y021007D02*
X016885Y021007D01*
X016976Y020916D02*
X017324Y020916D01*
X017570Y021162D01*
X017570Y021510D01*
X017324Y021756D01*
X016976Y021756D01*
X016730Y021510D01*
X016730Y021162D01*
X016976Y020916D01*
X016766Y021125D02*
X016534Y021125D01*
X016570Y021244D02*
X016730Y021244D01*
X016730Y021362D02*
X016570Y021362D01*
X016570Y021481D02*
X016730Y021481D01*
X016820Y021599D02*
X016480Y021599D01*
X016362Y021718D02*
X016938Y021718D01*
X017362Y021718D02*
X017762Y021718D01*
X017730Y021685D02*
X017800Y021756D01*
X018500Y021756D01*
X018570Y021685D01*
X018570Y020986D01*
X018500Y020916D01*
X017800Y020916D01*
X017730Y020986D01*
X017730Y021685D01*
X017730Y021599D02*
X017480Y021599D01*
X017570Y021481D02*
X017730Y021481D01*
X017730Y021362D02*
X017570Y021362D01*
X017570Y021244D02*
X017730Y021244D01*
X017730Y021125D02*
X017534Y021125D01*
X017415Y021007D02*
X017730Y021007D01*
X018570Y021007D02*
X019485Y021007D01*
X019576Y020916D02*
X019924Y020916D01*
X020170Y021162D01*
X020170Y021510D01*
X019924Y021756D01*
X019576Y021756D01*
X019330Y021510D01*
X019330Y021162D01*
X019576Y020916D01*
X019366Y021125D02*
X018570Y021125D01*
X018570Y021244D02*
X019330Y021244D01*
X019330Y021362D02*
X018570Y021362D01*
X018570Y021481D02*
X019330Y021481D01*
X019420Y021599D02*
X018570Y021599D01*
X018538Y021718D02*
X019538Y021718D01*
X019962Y021718D02*
X020538Y021718D01*
X020576Y021756D02*
X020330Y021510D01*
X020330Y021162D01*
X020576Y020916D01*
X020924Y020916D01*
X021170Y021162D01*
X021170Y021510D01*
X020924Y021756D01*
X020576Y021756D01*
X020420Y021599D02*
X020080Y021599D01*
X020170Y021481D02*
X020330Y021481D01*
X020330Y021362D02*
X020170Y021362D01*
X020170Y021244D02*
X020330Y021244D01*
X020366Y021125D02*
X020134Y021125D01*
X020015Y021007D02*
X020485Y021007D01*
X021015Y021007D02*
X021485Y021007D01*
X021576Y020916D02*
X021330Y021162D01*
X021330Y021510D01*
X021576Y021756D01*
X021924Y021756D01*
X022170Y021510D01*
X022170Y021162D01*
X021924Y020916D01*
X021576Y020916D01*
X021366Y021125D02*
X021134Y021125D01*
X021170Y021244D02*
X021330Y021244D01*
X021330Y021362D02*
X021170Y021362D01*
X021170Y021481D02*
X021330Y021481D01*
X021420Y021599D02*
X021080Y021599D01*
X020962Y021718D02*
X021538Y021718D01*
X021962Y021718D02*
X022538Y021718D01*
X022576Y021756D02*
X022330Y021510D01*
X022330Y021162D01*
X022576Y020916D01*
X022924Y020916D01*
X023170Y021162D01*
X023170Y021510D01*
X022924Y021756D01*
X022576Y021756D01*
X022420Y021599D02*
X022080Y021599D01*
X022170Y021481D02*
X022330Y021481D01*
X022330Y021362D02*
X022170Y021362D01*
X022170Y021244D02*
X022330Y021244D01*
X022366Y021125D02*
X022134Y021125D01*
X022015Y021007D02*
X022485Y021007D01*
X023015Y021007D02*
X023485Y021007D01*
X023576Y020916D02*
X023330Y021162D01*
X023330Y021510D01*
X023576Y021756D01*
X023924Y021756D01*
X024170Y021510D01*
X024170Y021162D01*
X023924Y020916D01*
X023576Y020916D01*
X023366Y021125D02*
X023134Y021125D01*
X023170Y021244D02*
X023330Y021244D01*
X023330Y021362D02*
X023170Y021362D01*
X023170Y021481D02*
X023330Y021481D01*
X023420Y021599D02*
X023080Y021599D01*
X022962Y021718D02*
X023538Y021718D01*
X023962Y021718D02*
X024538Y021718D01*
X024576Y021756D02*
X024330Y021510D01*
X024330Y021162D01*
X024576Y020916D01*
X024924Y020916D01*
X025170Y021162D01*
X025170Y021510D01*
X024924Y021756D01*
X024576Y021756D01*
X024420Y021599D02*
X024080Y021599D01*
X024170Y021481D02*
X024330Y021481D01*
X024330Y021362D02*
X024170Y021362D01*
X024170Y021244D02*
X024330Y021244D01*
X024366Y021125D02*
X024134Y021125D01*
X024015Y021007D02*
X024485Y021007D01*
X025015Y021007D02*
X025485Y021007D01*
X025576Y020916D02*
X025330Y021162D01*
X025330Y021510D01*
X025576Y021756D01*
X025924Y021756D01*
X026170Y021510D01*
X026170Y021162D01*
X025924Y020916D01*
X025576Y020916D01*
X025366Y021125D02*
X025134Y021125D01*
X025170Y021244D02*
X025330Y021244D01*
X025330Y021362D02*
X025170Y021362D01*
X025170Y021481D02*
X025330Y021481D01*
X025420Y021599D02*
X025080Y021599D01*
X024962Y021718D02*
X025538Y021718D01*
X025962Y021718D02*
X026362Y021718D01*
X026330Y021685D02*
X026330Y020986D01*
X026400Y020916D01*
X027100Y020916D01*
X027170Y020986D01*
X027170Y021685D01*
X027100Y021756D01*
X026400Y021756D01*
X026330Y021685D01*
X026330Y021599D02*
X026080Y021599D01*
X026170Y021481D02*
X026330Y021481D01*
X026330Y021362D02*
X026170Y021362D01*
X026170Y021244D02*
X026330Y021244D01*
X026330Y021125D02*
X026134Y021125D01*
X026015Y021007D02*
X026330Y021007D01*
X027170Y021007D02*
X027540Y021007D01*
X027540Y021125D02*
X027170Y021125D01*
X027170Y021244D02*
X027540Y021244D01*
X027540Y021362D02*
X027170Y021362D01*
X027170Y021481D02*
X027540Y021481D01*
X027540Y021599D02*
X027170Y021599D01*
X027138Y021718D02*
X027471Y021718D01*
X027352Y021836D02*
X008437Y021836D01*
X008501Y021718D02*
X008938Y021718D01*
X008976Y021756D02*
X008730Y021510D01*
X008730Y021162D01*
X008976Y020916D01*
X009324Y020916D01*
X009570Y021162D01*
X009570Y021510D01*
X009324Y021756D01*
X008976Y021756D01*
X008820Y021599D02*
X008550Y021599D01*
X008590Y021481D02*
X008730Y021481D01*
X008730Y021362D02*
X008590Y021362D01*
X008590Y021244D02*
X008730Y021244D01*
X008766Y021125D02*
X008572Y021125D01*
X008523Y021007D02*
X008885Y021007D01*
X008474Y020888D02*
X009995Y020888D01*
X009995Y020770D02*
X008372Y020770D01*
X008253Y020651D02*
X009995Y020651D01*
X009995Y020533D02*
X008006Y020533D01*
X007494Y020533D02*
X001960Y020533D01*
X001960Y020651D02*
X007247Y020651D01*
X007128Y020770D02*
X001960Y020770D01*
X001960Y020888D02*
X007026Y020888D01*
X006977Y021007D02*
X001960Y021007D01*
X001960Y021125D02*
X006928Y021125D01*
X006910Y021244D02*
X001960Y021244D01*
X001960Y021362D02*
X006910Y021362D01*
X006910Y021481D02*
X001960Y021481D01*
X001960Y021599D02*
X006950Y021599D01*
X006999Y021718D02*
X001960Y021718D01*
X001960Y021836D02*
X007063Y021836D01*
X007181Y021955D02*
X001960Y021955D01*
X001960Y022073D02*
X007336Y022073D01*
X008164Y022073D02*
X027115Y022073D01*
X027234Y021955D02*
X008319Y021955D01*
X009362Y021718D02*
X009938Y021718D01*
X009820Y021599D02*
X009480Y021599D01*
X009570Y021481D02*
X009730Y021481D01*
X009730Y021362D02*
X009570Y021362D01*
X009570Y021244D02*
X009730Y021244D01*
X009766Y021125D02*
X009534Y021125D01*
X009415Y021007D02*
X009885Y021007D01*
X010305Y020888D02*
X010970Y020888D01*
X010970Y020770D02*
X010927Y020770D01*
X010885Y021007D02*
X010415Y021007D01*
X010534Y021125D02*
X010766Y021125D01*
X010730Y021244D02*
X010570Y021244D01*
X010570Y021362D02*
X010730Y021362D01*
X010730Y021481D02*
X010570Y021481D01*
X010480Y021599D02*
X010820Y021599D01*
X010938Y021718D02*
X010362Y021718D01*
X010305Y020770D02*
X010573Y020770D01*
X010501Y020651D02*
X010305Y020651D01*
X010305Y020533D02*
X010478Y020533D01*
X010359Y020414D02*
X010305Y020414D01*
X010561Y020177D02*
X010970Y020177D01*
X010970Y020059D02*
X010455Y020059D01*
X010455Y019940D02*
X010970Y019940D01*
X010970Y019822D02*
X010455Y019822D01*
X010455Y019703D02*
X010970Y019703D01*
X010970Y019585D02*
X010455Y019585D01*
X010455Y019466D02*
X010970Y019466D01*
X010970Y019348D02*
X010455Y019348D01*
X010455Y019229D02*
X010970Y019229D01*
X010970Y019111D02*
X010455Y019111D01*
X010455Y018992D02*
X010970Y018992D01*
X010970Y018874D02*
X010455Y018874D01*
X010455Y018755D02*
X010970Y018755D01*
X010970Y018637D02*
X010455Y018637D01*
X010455Y018518D02*
X010970Y018518D01*
X010970Y018400D02*
X010455Y018400D01*
X010455Y018281D02*
X010970Y018281D01*
X010970Y018163D02*
X010455Y018163D01*
X010455Y018044D02*
X010970Y018044D01*
X010970Y017926D02*
X010455Y017926D01*
X010455Y017807D02*
X010970Y017807D01*
X010970Y017689D02*
X010455Y017689D01*
X010455Y017570D02*
X010970Y017570D01*
X010970Y017452D02*
X010455Y017452D01*
X010455Y017333D02*
X010970Y017333D01*
X010970Y017215D02*
X010455Y017215D01*
X010455Y017096D02*
X010970Y017096D01*
X010970Y016978D02*
X010455Y016978D01*
X010455Y016859D02*
X010970Y016859D01*
X010970Y016741D02*
X010455Y016741D01*
X010455Y016622D02*
X010970Y016622D01*
X010970Y016504D02*
X010455Y016504D01*
X010455Y016385D02*
X010970Y016385D01*
X010970Y016267D02*
X010455Y016267D01*
X010455Y016148D02*
X010970Y016148D01*
X010970Y016030D02*
X010455Y016030D01*
X010455Y015911D02*
X010970Y015911D01*
X010970Y015793D02*
X010455Y015793D01*
X010455Y015674D02*
X010528Y015674D01*
X010872Y015674D02*
X010970Y015674D01*
X010970Y015556D02*
X010947Y015556D01*
X010955Y015437D02*
X010970Y015437D01*
X010970Y015319D02*
X010894Y015319D01*
X010506Y015319D02*
X010455Y015319D01*
X011330Y015319D02*
X016064Y015319D01*
X016045Y015300D02*
X016136Y015391D01*
X016913Y015391D01*
X016895Y015435D01*
X016895Y015536D01*
X016934Y015630D01*
X017006Y015702D01*
X017099Y015741D01*
X017201Y015741D01*
X017294Y015702D01*
X017366Y015630D01*
X017405Y015536D01*
X017405Y015435D01*
X017387Y015391D01*
X018884Y015391D01*
X018884Y015391D01*
X018845Y015485D01*
X018845Y015586D01*
X018884Y015680D01*
X018956Y015752D01*
X019049Y015791D01*
X019151Y015791D01*
X019244Y015752D01*
X019316Y015680D01*
X019355Y015586D01*
X019355Y015485D01*
X019316Y015391D01*
X019316Y015391D01*
X019336Y015391D01*
X019495Y015550D01*
X019495Y016020D01*
X019444Y015969D01*
X019351Y015931D01*
X019249Y015931D01*
X019156Y015969D01*
X019094Y016031D01*
X018586Y016031D01*
X018186Y016431D01*
X016887Y016431D01*
X016905Y016386D01*
X016905Y016285D01*
X016866Y016191D01*
X016794Y016119D01*
X016701Y016081D01*
X016599Y016081D01*
X016506Y016119D01*
X016434Y016191D01*
X016402Y016268D01*
X015655Y015521D01*
X015564Y015431D01*
X014556Y015431D01*
X014494Y015369D01*
X014401Y015331D01*
X014299Y015331D01*
X014206Y015369D01*
X014134Y015441D01*
X014095Y015535D01*
X014095Y015636D01*
X014113Y015681D01*
X014056Y015681D01*
X013994Y015619D01*
X013901Y015581D01*
X013799Y015581D01*
X013706Y015619D01*
X013634Y015691D01*
X013595Y015785D01*
X013595Y015886D01*
X013634Y015980D01*
X013706Y016052D01*
X013799Y016091D01*
X013901Y016091D01*
X013994Y016052D01*
X014056Y015991D01*
X015186Y015991D01*
X015745Y016550D01*
X015745Y016636D01*
X015784Y016730D01*
X015856Y016802D01*
X015949Y016841D01*
X016051Y016841D01*
X016144Y016802D01*
X016216Y016730D01*
X016255Y016636D01*
X016255Y016560D01*
X016436Y016741D01*
X018126Y016741D01*
X016206Y016741D01*
X016255Y016622D02*
X016317Y016622D01*
X016400Y016267D02*
X016403Y016267D01*
X016477Y016148D02*
X016282Y016148D01*
X016163Y016030D02*
X019095Y016030D01*
X018934Y016341D02*
X018714Y016341D01*
X018674Y016381D01*
X018894Y016381D01*
X018934Y016341D01*
X018894Y016691D02*
X018614Y016691D01*
X017755Y017550D01*
X017755Y017636D01*
X017716Y017730D01*
X017644Y017802D01*
X017551Y017841D01*
X017449Y017841D01*
X017356Y017802D01*
X017300Y017746D01*
X017244Y017802D01*
X017151Y017841D01*
X017049Y017841D01*
X016956Y017802D01*
X016884Y017730D01*
X016845Y017636D01*
X016845Y017535D01*
X016884Y017441D01*
X016956Y017369D01*
X017049Y017331D01*
X017151Y017331D01*
X017244Y017369D01*
X017300Y017425D01*
X017356Y017369D01*
X017449Y017331D01*
X017536Y017331D01*
X018126Y016741D01*
X018007Y016859D02*
X011330Y016859D01*
X011330Y016741D02*
X012794Y016741D01*
X012784Y016730D02*
X012856Y016802D01*
X012949Y016841D01*
X013051Y016841D01*
X013144Y016802D01*
X013216Y016730D01*
X013255Y016636D01*
X013255Y016535D01*
X013216Y016441D01*
X013144Y016369D01*
X013051Y016331D01*
X012949Y016331D01*
X012856Y016369D01*
X012784Y016441D01*
X012745Y016535D01*
X012745Y016636D01*
X012784Y016730D01*
X012745Y016622D02*
X011330Y016622D01*
X011330Y016504D02*
X012758Y016504D01*
X012840Y016385D02*
X011330Y016385D01*
X011330Y016267D02*
X015462Y016267D01*
X015580Y016385D02*
X014910Y016385D01*
X014894Y016369D02*
X014966Y016441D01*
X015005Y016535D01*
X015005Y016636D01*
X014966Y016730D01*
X014894Y016802D01*
X014801Y016841D01*
X014699Y016841D01*
X014606Y016802D01*
X014534Y016730D01*
X014495Y016636D01*
X014495Y016535D01*
X014534Y016441D01*
X014606Y016369D01*
X014699Y016331D01*
X014801Y016331D01*
X014894Y016369D01*
X014992Y016504D02*
X015699Y016504D01*
X015745Y016622D02*
X015005Y016622D01*
X014956Y016741D02*
X015794Y016741D01*
X015801Y017081D02*
X015894Y017119D01*
X015966Y017191D01*
X016005Y017285D01*
X016005Y017386D01*
X015966Y017480D01*
X015894Y017552D01*
X015801Y017591D01*
X015699Y017591D01*
X015606Y017552D01*
X015544Y017491D01*
X013249Y017491D01*
X013005Y017735D01*
X013005Y017821D01*
X012966Y017915D01*
X012894Y017987D01*
X012801Y018026D01*
X012699Y018026D01*
X012606Y017987D01*
X012534Y017915D01*
X012495Y017821D01*
X012495Y017720D01*
X012534Y017626D01*
X012606Y017554D01*
X012699Y017516D01*
X012786Y017516D01*
X013121Y017181D01*
X015544Y017181D01*
X015606Y017119D01*
X015699Y017081D01*
X015801Y017081D01*
X015838Y017096D02*
X017770Y017096D01*
X017652Y017215D02*
X015976Y017215D01*
X016005Y017333D02*
X016193Y017333D01*
X016199Y017331D02*
X016301Y017331D01*
X016394Y017369D01*
X016466Y017441D01*
X016505Y017535D01*
X016505Y017636D01*
X016466Y017730D01*
X016394Y017802D01*
X016301Y017841D01*
X016199Y017841D01*
X016106Y017802D01*
X016034Y017730D01*
X015995Y017636D01*
X015995Y017535D01*
X016034Y017441D01*
X016106Y017369D01*
X016199Y017331D01*
X016307Y017333D02*
X017043Y017333D01*
X017157Y017333D02*
X017443Y017333D01*
X017853Y017452D02*
X019245Y017452D01*
X019245Y017570D02*
X017755Y017570D01*
X017733Y017689D02*
X019245Y017689D01*
X019245Y017807D02*
X017632Y017807D01*
X017368Y017807D02*
X017232Y017807D01*
X016968Y017807D02*
X016382Y017807D01*
X016483Y017689D02*
X016867Y017689D01*
X016845Y017570D02*
X016505Y017570D01*
X016471Y017452D02*
X016879Y017452D01*
X016394Y018119D02*
X016466Y018191D01*
X016505Y018285D01*
X016505Y018386D01*
X016466Y018480D01*
X016394Y018552D01*
X016301Y018591D01*
X016199Y018591D01*
X016106Y018552D01*
X016034Y018480D01*
X015995Y018386D01*
X015995Y018285D01*
X016034Y018191D01*
X016106Y018119D01*
X016199Y018081D01*
X016301Y018081D01*
X016394Y018119D01*
X016438Y018163D02*
X018062Y018163D01*
X018034Y018191D02*
X018106Y018119D01*
X018199Y018081D01*
X018301Y018081D01*
X018394Y018119D01*
X018466Y018191D01*
X018505Y018285D01*
X018505Y018386D01*
X018466Y018480D01*
X018394Y018552D01*
X018301Y018591D01*
X018199Y018591D01*
X018106Y018552D01*
X018034Y018480D01*
X017995Y018386D01*
X017995Y018285D01*
X018034Y018191D01*
X017997Y018281D02*
X016503Y018281D01*
X016499Y018400D02*
X018001Y018400D01*
X018072Y018518D02*
X016428Y018518D01*
X016072Y018518D02*
X014950Y018518D01*
X014950Y018637D02*
X019245Y018637D01*
X019245Y018755D02*
X014950Y018755D01*
X014950Y018874D02*
X019245Y018874D01*
X019245Y018992D02*
X014950Y018992D01*
X014950Y019111D02*
X019245Y019111D01*
X019245Y019229D02*
X014921Y019229D01*
X014600Y019466D02*
X019390Y019466D01*
X019356Y019452D02*
X019284Y019380D01*
X019245Y019286D01*
X019245Y016751D01*
X019244Y016752D01*
X019151Y016791D01*
X019049Y016791D01*
X018956Y016752D01*
X018894Y016691D01*
X018944Y016741D02*
X018564Y016741D01*
X018446Y016859D02*
X019245Y016859D01*
X019245Y016978D02*
X018327Y016978D01*
X018209Y017096D02*
X019245Y017096D01*
X019245Y017215D02*
X018090Y017215D01*
X017972Y017333D02*
X019245Y017333D01*
X019555Y017170D02*
X019606Y017119D01*
X019699Y017081D01*
X019786Y017081D01*
X020245Y016621D01*
X020245Y016535D01*
X020284Y016441D01*
X020356Y016369D01*
X020449Y016331D01*
X020551Y016331D01*
X020644Y016369D01*
X020716Y016441D01*
X020755Y016535D01*
X020755Y016636D01*
X020716Y016730D01*
X020644Y016802D01*
X020551Y016841D01*
X020464Y016841D01*
X020005Y017300D01*
X020005Y017386D01*
X019966Y017480D01*
X019894Y017552D01*
X019801Y017591D01*
X019699Y017591D01*
X019606Y017552D01*
X019555Y017501D01*
X019555Y018982D01*
X019644Y019019D01*
X019716Y019091D01*
X019755Y019185D01*
X019755Y019286D01*
X019716Y019380D01*
X019644Y019452D01*
X019551Y019491D01*
X019449Y019491D01*
X019356Y019452D01*
X019270Y019348D02*
X014481Y019348D01*
X014280Y019585D02*
X012416Y019585D01*
X012416Y019613D02*
X012416Y019396D01*
X012060Y019396D01*
X011940Y019396D01*
X011940Y019751D01*
X011723Y019751D01*
X011682Y019741D01*
X011646Y019720D01*
X011616Y019690D01*
X011595Y019653D01*
X011584Y019613D01*
X011584Y019396D01*
X011940Y019396D01*
X011940Y019276D01*
X011584Y019276D01*
X011584Y019059D01*
X011595Y019018D01*
X011616Y018981D01*
X011646Y018952D01*
X011682Y018931D01*
X011723Y018920D01*
X011940Y018920D01*
X011940Y019276D01*
X012060Y019276D01*
X012060Y019396D01*
X012060Y019751D01*
X012277Y019751D01*
X012318Y019741D01*
X012354Y019720D01*
X012384Y019690D01*
X012405Y019653D01*
X012416Y019613D01*
X012371Y019703D02*
X012763Y019703D01*
X012730Y019736D02*
X012800Y019666D01*
X013500Y019666D01*
X013570Y019736D01*
X013570Y020435D01*
X013500Y020506D01*
X012800Y020506D01*
X012730Y020435D01*
X012730Y019736D01*
X012730Y019822D02*
X011330Y019822D01*
X011330Y019940D02*
X012730Y019940D01*
X012730Y020059D02*
X011330Y020059D01*
X011330Y020177D02*
X012730Y020177D01*
X012730Y020296D02*
X011330Y020296D01*
X011330Y020414D02*
X012730Y020414D01*
X013570Y020414D02*
X013885Y020414D01*
X013766Y020296D02*
X013570Y020296D01*
X013570Y020177D02*
X013730Y020177D01*
X013730Y020059D02*
X013570Y020059D01*
X013570Y019940D02*
X013730Y019940D01*
X013820Y019822D02*
X013570Y019822D01*
X013537Y019703D02*
X013938Y019703D01*
X014161Y019466D02*
X012416Y019466D01*
X012416Y019276D02*
X012060Y019276D01*
X012060Y018920D01*
X012277Y018920D01*
X012318Y018931D01*
X012354Y018952D01*
X012384Y018981D01*
X012405Y019018D01*
X012416Y019059D01*
X012416Y019276D01*
X012416Y019229D02*
X013079Y019229D01*
X013050Y019111D02*
X012416Y019111D01*
X012390Y018992D02*
X012546Y018992D01*
X012495Y018874D02*
X011330Y018874D01*
X011330Y018992D02*
X011610Y018992D01*
X011584Y019111D02*
X011330Y019111D01*
X011330Y019229D02*
X011584Y019229D01*
X011584Y019466D02*
X011330Y019466D01*
X011330Y019348D02*
X011940Y019348D01*
X011940Y019466D02*
X012060Y019466D01*
X012060Y019348D02*
X014043Y019348D01*
X014362Y019703D02*
X014398Y019703D01*
X014480Y019822D02*
X014495Y019822D01*
X014805Y019822D02*
X014820Y019822D01*
X014805Y019703D02*
X014938Y019703D01*
X014718Y019585D02*
X026150Y019585D01*
X026159Y019605D02*
X026120Y019511D01*
X026120Y019425D01*
X025845Y019150D01*
X025845Y013900D01*
X025186Y013241D01*
X023206Y013241D01*
X023161Y013286D01*
X023206Y013331D01*
X024964Y013331D01*
X025055Y013421D01*
X025055Y013421D01*
X025314Y013681D01*
X025405Y013771D01*
X025405Y017173D01*
X025458Y017173D01*
X025552Y017212D01*
X025624Y017284D01*
X025662Y017377D01*
X025662Y017479D01*
X025624Y017573D01*
X025552Y017644D01*
X025458Y017683D01*
X025357Y017683D01*
X025263Y017644D01*
X025191Y017573D01*
X025152Y017479D01*
X025152Y017392D01*
X025095Y017335D01*
X025095Y014245D01*
X025038Y014302D01*
X024944Y014341D01*
X024843Y014341D01*
X024749Y014302D01*
X024688Y014241D01*
X023956Y014241D01*
X023894Y014302D01*
X023801Y014341D01*
X023699Y014341D01*
X023606Y014302D01*
X023555Y014251D01*
X023555Y014480D01*
X023566Y014491D01*
X023605Y014585D01*
X023605Y014686D01*
X023566Y014780D01*
X023494Y014852D01*
X023401Y014891D01*
X023299Y014891D01*
X023206Y014852D01*
X023134Y014780D01*
X023095Y014686D01*
X023095Y014585D01*
X023134Y014491D01*
X023206Y014419D01*
X023245Y014403D01*
X023245Y014041D01*
X023184Y013980D01*
X023145Y013886D01*
X023145Y013785D01*
X023184Y013691D01*
X023234Y013641D01*
X023206Y013641D01*
X023144Y013702D01*
X023051Y013741D01*
X022949Y013741D01*
X022856Y013702D01*
X022784Y013630D01*
X022745Y013536D01*
X022745Y013435D01*
X022784Y013341D01*
X022839Y013286D01*
X022784Y013230D01*
X022750Y013148D01*
X022716Y013230D01*
X022644Y013302D01*
X022551Y013341D01*
X022449Y013341D01*
X022356Y013302D01*
X022284Y013230D01*
X022250Y013148D01*
X022216Y013230D01*
X022144Y013302D01*
X022051Y013341D01*
X021949Y013341D01*
X021856Y013302D01*
X021784Y013230D01*
X021745Y013136D01*
X021745Y013035D01*
X021784Y012941D01*
X021856Y012869D01*
X021949Y012831D01*
X022051Y012831D01*
X022144Y012869D01*
X022216Y012941D01*
X022250Y013023D01*
X022284Y012941D01*
X022356Y012869D01*
X022449Y012831D01*
X022551Y012831D01*
X022644Y012869D01*
X022716Y012941D01*
X022750Y013023D01*
X022784Y012941D01*
X022856Y012869D01*
X022949Y012831D01*
X023051Y012831D01*
X023144Y012869D01*
X023206Y012931D01*
X025314Y012931D01*
X026064Y013681D01*
X026155Y013771D01*
X026155Y017349D01*
X026199Y017331D01*
X026301Y017331D01*
X026394Y017369D01*
X026466Y017441D01*
X026505Y017535D01*
X026505Y017636D01*
X026466Y017730D01*
X026394Y017802D01*
X026301Y017841D01*
X026199Y017841D01*
X026155Y017822D01*
X026155Y019021D01*
X026339Y019206D01*
X026426Y019206D01*
X026519Y019244D01*
X026591Y019316D01*
X026630Y019410D01*
X026630Y019511D01*
X026591Y019605D01*
X026519Y019677D01*
X026426Y019716D01*
X026324Y019716D01*
X026231Y019677D01*
X026159Y019605D01*
X026120Y019466D02*
X019610Y019466D01*
X019730Y019348D02*
X022406Y019348D01*
X022409Y019355D02*
X022370Y019261D01*
X022370Y019160D01*
X022409Y019066D01*
X022481Y018994D01*
X022574Y018956D01*
X022676Y018956D01*
X022769Y018994D01*
X022841Y019066D01*
X022880Y019160D01*
X022880Y019261D01*
X022841Y019355D01*
X022769Y019427D01*
X022676Y019466D01*
X022574Y019466D01*
X022481Y019427D01*
X022409Y019355D01*
X022370Y019229D02*
X021217Y019229D01*
X021194Y019253D02*
X021100Y019291D01*
X020998Y019291D01*
X020905Y019253D01*
X020833Y019181D01*
X020794Y019087D01*
X020794Y018986D01*
X020833Y018892D01*
X020845Y018880D01*
X020845Y016110D01*
X020816Y016180D01*
X020744Y016252D01*
X020651Y016291D01*
X020549Y016291D01*
X020456Y016252D01*
X020394Y016191D01*
X020364Y016191D01*
X019955Y016600D01*
X019955Y016686D01*
X019916Y016780D01*
X019844Y016852D01*
X019751Y016891D01*
X019649Y016891D01*
X019556Y016852D01*
X019555Y016851D01*
X019555Y017170D01*
X019555Y017096D02*
X019662Y017096D01*
X019555Y016978D02*
X019889Y016978D01*
X019827Y016859D02*
X020007Y016859D01*
X019933Y016741D02*
X020126Y016741D01*
X020244Y016622D02*
X019955Y016622D01*
X020051Y016504D02*
X020258Y016504D01*
X020340Y016385D02*
X020170Y016385D01*
X020288Y016267D02*
X020491Y016267D01*
X020660Y016385D02*
X020845Y016385D01*
X020845Y016267D02*
X020709Y016267D01*
X020829Y016148D02*
X020845Y016148D01*
X020845Y015961D02*
X020845Y015650D01*
X020436Y015241D01*
X019624Y015241D01*
X019714Y015331D01*
X019805Y015421D01*
X019805Y016311D01*
X020236Y015881D01*
X020394Y015881D01*
X020456Y015819D01*
X020549Y015781D01*
X020651Y015781D01*
X020744Y015819D01*
X020816Y015891D01*
X020845Y015961D01*
X020845Y015911D02*
X020824Y015911D01*
X020845Y015793D02*
X020680Y015793D01*
X020520Y015793D02*
X019805Y015793D01*
X019805Y015911D02*
X020205Y015911D01*
X020087Y016030D02*
X019805Y016030D01*
X019805Y016148D02*
X019968Y016148D01*
X019850Y016267D02*
X019805Y016267D01*
X019495Y015911D02*
X016045Y015911D01*
X015926Y015793D02*
X019495Y015793D01*
X019495Y015674D02*
X019319Y015674D01*
X019355Y015556D02*
X019495Y015556D01*
X019382Y015437D02*
X019335Y015437D01*
X019702Y015319D02*
X020514Y015319D01*
X020632Y015437D02*
X019805Y015437D01*
X019805Y015556D02*
X020751Y015556D01*
X020845Y015674D02*
X019805Y015674D01*
X018881Y015674D02*
X017322Y015674D01*
X017397Y015556D02*
X018845Y015556D01*
X018865Y015437D02*
X017405Y015437D01*
X016978Y015674D02*
X015808Y015674D01*
X015689Y015556D02*
X016903Y015556D01*
X016895Y015437D02*
X015571Y015437D01*
X015436Y015741D02*
X015374Y015741D01*
X015964Y016331D01*
X016026Y016331D01*
X015436Y015741D01*
X015426Y015793D02*
X015488Y015793D01*
X015545Y015911D02*
X015606Y015911D01*
X015663Y016030D02*
X015725Y016030D01*
X015782Y016148D02*
X015843Y016148D01*
X015900Y016267D02*
X015962Y016267D01*
X015343Y016148D02*
X011330Y016148D01*
X011330Y016030D02*
X013683Y016030D01*
X013605Y015911D02*
X011330Y015911D01*
X011330Y015793D02*
X013595Y015793D01*
X013651Y015674D02*
X011330Y015674D01*
X011330Y015556D02*
X014095Y015556D01*
X014111Y015674D02*
X014049Y015674D01*
X014138Y015437D02*
X011330Y015437D01*
X011330Y015200D02*
X015945Y015200D01*
X016045Y015300D02*
X015836Y015091D01*
X015799Y015091D01*
X015706Y015052D01*
X015634Y014980D01*
X015595Y014886D01*
X015595Y014785D01*
X015634Y014691D01*
X015706Y014619D01*
X015799Y014581D01*
X015901Y014581D01*
X015994Y014619D01*
X016050Y014675D01*
X016106Y014619D01*
X016199Y014581D01*
X016286Y014581D01*
X016495Y014371D01*
X016586Y014281D01*
X018336Y014281D01*
X018595Y014021D01*
X018686Y013931D01*
X020264Y013931D01*
X020745Y014411D01*
X020745Y014335D01*
X020784Y014241D01*
X020856Y014169D01*
X020949Y014131D01*
X021051Y014131D01*
X021144Y014169D01*
X021216Y014241D01*
X021255Y014335D01*
X021255Y014436D01*
X021216Y014530D01*
X021144Y014602D01*
X021051Y014641D01*
X020974Y014641D01*
X023614Y017281D01*
X024864Y017281D01*
X025164Y017581D01*
X025255Y017671D01*
X025255Y018730D01*
X025316Y018791D01*
X025355Y018885D01*
X025355Y018986D01*
X025316Y019080D01*
X025244Y019152D01*
X025151Y019191D01*
X025049Y019191D01*
X024956Y019152D01*
X024884Y019080D01*
X024845Y018986D01*
X024845Y018885D01*
X024884Y018791D01*
X024945Y018730D01*
X024945Y017800D01*
X024736Y017591D01*
X023486Y017591D01*
X023395Y017500D01*
X022755Y016860D01*
X022755Y018121D01*
X023464Y018831D01*
X023551Y018831D01*
X023644Y018869D01*
X023716Y018941D01*
X023755Y019035D01*
X023755Y019136D01*
X023716Y019230D01*
X023644Y019302D01*
X023551Y019341D01*
X023449Y019341D01*
X023356Y019302D01*
X023284Y019230D01*
X023245Y019136D01*
X023245Y019050D01*
X022505Y018310D01*
X022505Y018386D01*
X022466Y018480D01*
X022394Y018552D01*
X022301Y018591D01*
X022199Y018591D01*
X022106Y018552D01*
X022034Y018480D01*
X021995Y018386D01*
X021995Y018285D01*
X022034Y018191D01*
X022106Y018119D01*
X022199Y018081D01*
X022301Y018081D01*
X022394Y018119D01*
X022445Y018170D01*
X022445Y016750D01*
X021655Y015960D01*
X021655Y018109D01*
X021662Y018127D01*
X021662Y018229D01*
X021624Y018323D01*
X021552Y018394D01*
X021458Y018433D01*
X021357Y018433D01*
X021263Y018394D01*
X021191Y018323D01*
X021155Y018235D01*
X021155Y018804D01*
X021194Y018820D01*
X021265Y018892D01*
X021304Y018986D01*
X021304Y019087D01*
X021265Y019181D01*
X021194Y019253D01*
X021294Y019111D02*
X022390Y019111D01*
X022486Y018992D02*
X021304Y018992D01*
X021247Y018874D02*
X023069Y018874D01*
X023187Y018992D02*
X022764Y018992D01*
X022860Y019111D02*
X023245Y019111D01*
X023283Y019229D02*
X022880Y019229D01*
X022844Y019348D02*
X026043Y019348D01*
X025924Y019229D02*
X023717Y019229D01*
X023755Y019111D02*
X024914Y019111D01*
X024847Y018992D02*
X023737Y018992D01*
X023649Y018874D02*
X024850Y018874D01*
X024920Y018755D02*
X023389Y018755D01*
X023270Y018637D02*
X024945Y018637D01*
X024945Y018518D02*
X024428Y018518D01*
X024394Y018552D02*
X024466Y018480D01*
X024505Y018386D01*
X024505Y018285D01*
X024466Y018191D01*
X024394Y018119D01*
X024301Y018081D01*
X024199Y018081D01*
X024106Y018119D01*
X024034Y018191D01*
X023995Y018285D01*
X023995Y018386D01*
X024034Y018480D01*
X024106Y018552D01*
X024199Y018591D01*
X024301Y018591D01*
X024394Y018552D01*
X024499Y018400D02*
X024945Y018400D01*
X024945Y018281D02*
X024503Y018281D01*
X024438Y018163D02*
X024945Y018163D01*
X024945Y018044D02*
X022755Y018044D01*
X022755Y017926D02*
X024945Y017926D01*
X024945Y017807D02*
X022755Y017807D01*
X022755Y017689D02*
X024834Y017689D01*
X025035Y017452D02*
X025152Y017452D01*
X025154Y017570D02*
X025190Y017570D01*
X025255Y017689D02*
X025845Y017689D01*
X025845Y017807D02*
X025255Y017807D01*
X025255Y017926D02*
X025845Y017926D01*
X025845Y018044D02*
X025255Y018044D01*
X025255Y018163D02*
X025845Y018163D01*
X025845Y018281D02*
X025255Y018281D01*
X025255Y018400D02*
X025845Y018400D01*
X025845Y018518D02*
X025255Y018518D01*
X025255Y018637D02*
X025845Y018637D01*
X025845Y018755D02*
X025280Y018755D01*
X025350Y018874D02*
X025845Y018874D01*
X025845Y018992D02*
X025353Y018992D01*
X025286Y019111D02*
X025845Y019111D01*
X026155Y018992D02*
X027540Y018992D01*
X027540Y018874D02*
X026155Y018874D01*
X026155Y018755D02*
X027540Y018755D01*
X027540Y018637D02*
X026155Y018637D01*
X026155Y018518D02*
X027540Y018518D01*
X027540Y018400D02*
X026155Y018400D01*
X026155Y018281D02*
X027540Y018281D01*
X027540Y018163D02*
X026155Y018163D01*
X026155Y018044D02*
X027540Y018044D01*
X027540Y017926D02*
X026155Y017926D01*
X026382Y017807D02*
X027540Y017807D01*
X027540Y017689D02*
X026483Y017689D01*
X026505Y017570D02*
X027540Y017570D01*
X027540Y017452D02*
X026471Y017452D01*
X026307Y017333D02*
X027540Y017333D01*
X027540Y017215D02*
X026155Y017215D01*
X026155Y017333D02*
X026193Y017333D01*
X026155Y017096D02*
X027592Y017096D01*
X027711Y016978D02*
X026155Y016978D01*
X026155Y016859D02*
X027829Y016859D01*
X027948Y016741D02*
X026155Y016741D01*
X026155Y016622D02*
X028066Y016622D01*
X028185Y016504D02*
X026155Y016504D01*
X026155Y016385D02*
X028303Y016385D01*
X028422Y016267D02*
X026155Y016267D01*
X026155Y016148D02*
X027517Y016148D01*
X027256Y016030D02*
X026155Y016030D01*
X026155Y015911D02*
X027138Y015911D01*
X027030Y015793D02*
X026155Y015793D01*
X026155Y015674D02*
X026981Y015674D01*
X026932Y015556D02*
X026155Y015556D01*
X026155Y015437D02*
X026910Y015437D01*
X026910Y015319D02*
X026155Y015319D01*
X026155Y015200D02*
X026910Y015200D01*
X026946Y015082D02*
X026155Y015082D01*
X026155Y014963D02*
X026995Y014963D01*
X027053Y014845D02*
X026155Y014845D01*
X026155Y014726D02*
X027172Y014726D01*
X027313Y014608D02*
X026155Y014608D01*
X026155Y014489D02*
X028540Y014489D01*
X028540Y014371D02*
X026155Y014371D01*
X026155Y014252D02*
X028540Y014252D01*
X028540Y014134D02*
X026155Y014134D01*
X026155Y014015D02*
X028540Y014015D01*
X028540Y013897D02*
X026155Y013897D01*
X026155Y013778D02*
X028540Y013778D01*
X028540Y013660D02*
X028055Y013660D01*
X027979Y013736D02*
X027631Y013736D01*
X027385Y013490D01*
X027385Y013142D01*
X027631Y012896D01*
X027979Y012896D01*
X028225Y013142D01*
X028225Y013490D01*
X027979Y013736D01*
X028174Y013541D02*
X028540Y013541D01*
X028540Y013423D02*
X028225Y013423D01*
X028225Y013304D02*
X028540Y013304D01*
X028540Y013186D02*
X028225Y013186D01*
X028150Y013067D02*
X028540Y013067D01*
X028540Y012949D02*
X028032Y012949D01*
X027979Y012736D02*
X027631Y012736D01*
X027385Y012490D01*
X027385Y012142D01*
X027631Y011896D01*
X027979Y011896D01*
X028225Y012142D01*
X028225Y012490D01*
X027979Y012736D01*
X028003Y012712D02*
X028540Y012712D01*
X028540Y012830D02*
X024990Y012830D01*
X024971Y012838D02*
X024816Y012838D01*
X024673Y012778D01*
X024563Y012669D01*
X024504Y012525D01*
X024504Y012370D01*
X024563Y012227D01*
X024673Y012117D01*
X024816Y012058D01*
X024971Y012058D01*
X025115Y012117D01*
X025224Y012227D01*
X025284Y012370D01*
X025284Y012525D01*
X025224Y012669D01*
X025115Y012778D01*
X024971Y012838D01*
X024798Y012830D02*
X024434Y012830D01*
X024426Y012838D02*
X024496Y012768D01*
X024496Y012128D01*
X024426Y012058D01*
X023787Y012058D01*
X023716Y012128D01*
X023716Y012768D01*
X023787Y012838D01*
X024426Y012838D01*
X024496Y012712D02*
X024606Y012712D01*
X024532Y012593D02*
X024496Y012593D01*
X024496Y012475D02*
X024504Y012475D01*
X024496Y012356D02*
X024510Y012356D01*
X024496Y012238D02*
X024559Y012238D01*
X024487Y012119D02*
X024671Y012119D01*
X024696Y012001D02*
X024304Y012001D01*
X024436Y011882D02*
X024564Y011882D01*
X024514Y011764D02*
X024486Y011764D01*
X024496Y011645D02*
X024504Y011645D01*
X024527Y011527D02*
X024473Y011527D01*
X024400Y011131D02*
X024600Y011131D01*
X024563Y011094D01*
X024504Y010951D01*
X024504Y010795D01*
X024563Y010652D01*
X024575Y010641D01*
X024425Y010641D01*
X024437Y010652D01*
X024496Y010795D01*
X024496Y010951D01*
X024437Y011094D01*
X024400Y011131D01*
X024454Y011053D02*
X024546Y011053D01*
X024504Y010934D02*
X024496Y010934D01*
X024496Y010816D02*
X024504Y010816D01*
X024544Y010697D02*
X024456Y010697D01*
X024178Y010483D02*
X024171Y010476D01*
X024029Y010476D01*
X023885Y010416D01*
X023787Y010318D01*
X022974Y011131D01*
X023812Y011131D01*
X023776Y011094D01*
X023716Y010951D01*
X023716Y010795D01*
X023776Y010652D01*
X023885Y010542D01*
X024029Y010483D01*
X024178Y010483D01*
X023991Y010460D02*
X023645Y010460D01*
X023763Y010342D02*
X023811Y010342D01*
X023849Y010579D02*
X023526Y010579D01*
X023408Y010697D02*
X023757Y010697D01*
X023716Y010816D02*
X023289Y010816D01*
X023171Y010934D02*
X023716Y010934D01*
X023759Y011053D02*
X023052Y011053D01*
X022669Y010697D02*
X019981Y010697D01*
X020099Y010816D02*
X022551Y010816D01*
X022788Y010579D02*
X019862Y010579D01*
X019744Y010460D02*
X022906Y010460D01*
X023025Y010342D02*
X019625Y010342D01*
X019507Y010223D02*
X023143Y010223D01*
X023262Y010105D02*
X019388Y010105D01*
X019270Y009986D02*
X023295Y009986D01*
X023295Y009868D02*
X019151Y009868D01*
X018845Y009749D02*
X023295Y009749D01*
X023295Y009631D02*
X015755Y009631D01*
X015746Y009512D02*
X023295Y009512D01*
X023295Y009394D02*
X015669Y009394D01*
X015331Y009394D02*
X010455Y009394D01*
X010455Y009512D02*
X015254Y009512D01*
X015245Y009631D02*
X010455Y009631D01*
X010455Y009749D02*
X015303Y009749D01*
X015345Y009868D02*
X010455Y009868D01*
X010455Y009986D02*
X015345Y009986D01*
X015345Y010105D02*
X010455Y010105D01*
X010455Y010223D02*
X015345Y010223D01*
X015345Y010342D02*
X010455Y010342D01*
X010455Y010460D02*
X015405Y010460D01*
X015524Y010579D02*
X010455Y010579D01*
X010455Y010697D02*
X015642Y010697D01*
X015761Y010816D02*
X010455Y010816D01*
X010455Y010934D02*
X015879Y010934D01*
X015998Y011053D02*
X010455Y011053D01*
X010455Y011171D02*
X016116Y011171D01*
X016235Y011290D02*
X010455Y011290D01*
X011330Y012119D02*
X023725Y012119D01*
X023716Y012238D02*
X011330Y012238D01*
X011330Y012356D02*
X018269Y012356D01*
X018234Y012391D02*
X018306Y012319D01*
X018399Y012281D01*
X018501Y012281D01*
X018594Y012319D01*
X018666Y012391D01*
X018705Y012485D01*
X018705Y012586D01*
X018666Y012680D01*
X018594Y012752D01*
X018501Y012791D01*
X018399Y012791D01*
X018306Y012752D01*
X018234Y012680D01*
X018195Y012586D01*
X018195Y012485D01*
X018234Y012391D01*
X018199Y012475D02*
X011330Y012475D01*
X011330Y012593D02*
X018198Y012593D01*
X018265Y012712D02*
X011330Y012712D01*
X011330Y012830D02*
X020974Y012830D01*
X020999Y012841D02*
X020906Y012802D01*
X020834Y012730D01*
X020795Y012636D01*
X020795Y012535D01*
X020834Y012441D01*
X020906Y012369D01*
X020999Y012331D01*
X021101Y012331D01*
X021194Y012369D01*
X021266Y012441D01*
X021305Y012535D01*
X021305Y012636D01*
X021266Y012730D01*
X021194Y012802D01*
X021101Y012841D01*
X020999Y012841D01*
X021126Y012830D02*
X023779Y012830D01*
X023716Y012712D02*
X021274Y012712D01*
X021305Y012593D02*
X023716Y012593D01*
X023716Y012475D02*
X021280Y012475D01*
X021162Y012356D02*
X023716Y012356D01*
X023909Y012001D02*
X011340Y012001D01*
X011458Y011882D02*
X020286Y011882D01*
X020245Y011764D02*
X017183Y011764D01*
X017251Y011645D02*
X020261Y011645D01*
X020222Y011527D02*
X017252Y011527D01*
X017000Y011586D02*
X016950Y011536D01*
X011550Y011536D01*
X011577Y011764D02*
X016817Y011764D01*
X016555Y011171D02*
X019666Y011171D01*
X019548Y011053D02*
X016436Y011053D01*
X016318Y010934D02*
X019429Y010934D01*
X019311Y010816D02*
X016199Y010816D01*
X016081Y010697D02*
X019192Y010697D01*
X018970Y010579D02*
X015962Y010579D01*
X015844Y010460D02*
X018826Y010460D01*
X018795Y010342D02*
X015725Y010342D01*
X015655Y010223D02*
X018657Y010223D01*
X018523Y010105D02*
X015655Y010105D01*
X015655Y009986D02*
X018495Y009986D01*
X018523Y009868D02*
X015655Y009868D01*
X015697Y009749D02*
X018655Y009749D01*
X020424Y011291D02*
X020575Y011441D01*
X020726Y011291D01*
X020424Y011291D01*
X020542Y011408D02*
X020608Y011408D01*
X020810Y011645D02*
X023716Y011645D01*
X023727Y011764D02*
X020755Y011764D01*
X020714Y011882D02*
X023776Y011882D01*
X023740Y011527D02*
X020928Y011527D01*
X020938Y012356D02*
X018631Y012356D01*
X018701Y012475D02*
X020820Y012475D01*
X020795Y012593D02*
X018702Y012593D01*
X018635Y012712D02*
X020826Y012712D01*
X021781Y012949D02*
X011330Y012949D01*
X011330Y013067D02*
X021745Y013067D01*
X021765Y013186D02*
X011330Y013186D01*
X011330Y013304D02*
X021861Y013304D01*
X022139Y013304D02*
X022361Y013304D01*
X022265Y013186D02*
X022235Y013186D01*
X022219Y012949D02*
X022281Y012949D01*
X022719Y012949D02*
X022781Y012949D01*
X022765Y013186D02*
X022735Y013186D01*
X022821Y013304D02*
X022639Y013304D01*
X022750Y013423D02*
X011330Y013423D01*
X011330Y013541D02*
X018234Y013541D01*
X018306Y013469D01*
X018399Y013431D01*
X018501Y013431D01*
X018594Y013469D01*
X018666Y013541D01*
X022747Y013541D01*
X022813Y013660D02*
X018705Y013660D01*
X018705Y013635D02*
X018666Y013541D01*
X018705Y013635D02*
X018705Y013736D01*
X018666Y013830D01*
X018594Y013902D01*
X018501Y013941D01*
X018399Y013941D01*
X018306Y013902D01*
X018234Y013830D01*
X018195Y013736D01*
X018195Y013635D01*
X018234Y013541D01*
X018195Y013660D02*
X011330Y013660D01*
X011330Y013778D02*
X018212Y013778D01*
X018300Y013897D02*
X011330Y013897D01*
X011330Y014015D02*
X018601Y014015D01*
X018600Y013897D02*
X023149Y013897D01*
X023148Y013778D02*
X018688Y013778D01*
X018483Y014134D02*
X011330Y014134D01*
X011330Y014252D02*
X018364Y014252D01*
X018566Y014489D02*
X018896Y014489D01*
X018895Y014486D02*
X018913Y014531D01*
X018524Y014531D01*
X018814Y014241D01*
X018984Y014241D01*
X018934Y014291D01*
X018895Y014385D01*
X018895Y014486D01*
X018901Y014371D02*
X018684Y014371D01*
X018803Y014252D02*
X018973Y014252D01*
X019316Y014241D02*
X019366Y014291D01*
X019405Y014385D01*
X019405Y014486D01*
X019387Y014531D01*
X020426Y014531D01*
X020136Y014241D01*
X019316Y014241D01*
X019327Y014252D02*
X020147Y014252D01*
X020266Y014371D02*
X019399Y014371D01*
X019404Y014489D02*
X020384Y014489D01*
X020586Y014252D02*
X020779Y014252D01*
X020745Y014371D02*
X020704Y014371D01*
X020467Y014134D02*
X020942Y014134D01*
X021058Y014134D02*
X023245Y014134D01*
X023245Y014252D02*
X021221Y014252D01*
X021255Y014371D02*
X023245Y014371D01*
X023136Y014489D02*
X021233Y014489D01*
X021130Y014608D02*
X023095Y014608D01*
X023111Y014726D02*
X021060Y014726D01*
X021178Y014845D02*
X023198Y014845D01*
X023502Y014845D02*
X025095Y014845D01*
X025095Y014963D02*
X021297Y014963D01*
X021415Y015082D02*
X025095Y015082D01*
X025095Y015200D02*
X021534Y015200D01*
X021652Y015319D02*
X025095Y015319D01*
X025095Y015437D02*
X024562Y015437D01*
X024544Y015419D02*
X024616Y015491D01*
X024655Y015585D01*
X024655Y015686D01*
X024616Y015780D01*
X024544Y015852D01*
X024451Y015891D01*
X024349Y015891D01*
X024256Y015852D01*
X024194Y015791D01*
X023014Y015791D01*
X023005Y015800D01*
X023005Y015886D01*
X022966Y015980D01*
X022894Y016052D01*
X022801Y016091D01*
X022699Y016091D01*
X022606Y016052D01*
X022534Y015980D01*
X022495Y015886D01*
X022495Y015785D01*
X022534Y015691D01*
X022606Y015619D01*
X022699Y015581D01*
X022786Y015581D01*
X022886Y015481D01*
X024194Y015481D01*
X024256Y015419D01*
X024349Y015381D01*
X024451Y015381D01*
X024544Y015419D01*
X024643Y015556D02*
X025095Y015556D01*
X025095Y015674D02*
X024655Y015674D01*
X024604Y015793D02*
X025095Y015793D01*
X025095Y015911D02*
X022995Y015911D01*
X023012Y015793D02*
X024196Y015793D01*
X024238Y015437D02*
X021771Y015437D01*
X021889Y015556D02*
X022811Y015556D01*
X022551Y015674D02*
X022008Y015674D01*
X022126Y015793D02*
X022495Y015793D01*
X022505Y015911D02*
X022245Y015911D01*
X022363Y016030D02*
X022583Y016030D01*
X022482Y016148D02*
X025095Y016148D01*
X025095Y016030D02*
X022917Y016030D01*
X022600Y016267D02*
X025095Y016267D01*
X025095Y016385D02*
X022719Y016385D01*
X022837Y016504D02*
X025095Y016504D01*
X025095Y016622D02*
X022956Y016622D01*
X023074Y016741D02*
X025095Y016741D01*
X025095Y016859D02*
X023193Y016859D01*
X023311Y016978D02*
X025095Y016978D01*
X025095Y017096D02*
X023430Y017096D01*
X023548Y017215D02*
X025095Y017215D01*
X025095Y017333D02*
X024917Y017333D01*
X025405Y017096D02*
X025845Y017096D01*
X025845Y016978D02*
X025405Y016978D01*
X025405Y016859D02*
X025845Y016859D01*
X025845Y016741D02*
X025405Y016741D01*
X025405Y016622D02*
X025845Y016622D01*
X025845Y016504D02*
X025405Y016504D01*
X025405Y016385D02*
X025845Y016385D01*
X025845Y016267D02*
X025405Y016267D01*
X025405Y016148D02*
X025845Y016148D01*
X025845Y016030D02*
X025405Y016030D01*
X025405Y015911D02*
X025845Y015911D01*
X025845Y015793D02*
X025405Y015793D01*
X025405Y015674D02*
X025845Y015674D01*
X025845Y015556D02*
X025405Y015556D01*
X025405Y015437D02*
X025845Y015437D01*
X025845Y015319D02*
X025405Y015319D01*
X025405Y015200D02*
X025845Y015200D01*
X025845Y015082D02*
X025405Y015082D01*
X025405Y014963D02*
X025845Y014963D01*
X025845Y014845D02*
X025405Y014845D01*
X025405Y014726D02*
X025845Y014726D01*
X025845Y014608D02*
X025405Y014608D01*
X025405Y014489D02*
X025845Y014489D01*
X025845Y014371D02*
X025405Y014371D01*
X025405Y014252D02*
X025845Y014252D01*
X025845Y014134D02*
X025405Y014134D01*
X025405Y014015D02*
X025845Y014015D01*
X025842Y013897D02*
X025405Y013897D01*
X025405Y013778D02*
X025723Y013778D01*
X025605Y013660D02*
X025293Y013660D01*
X025314Y013681D02*
X025314Y013681D01*
X025175Y013541D02*
X025486Y013541D01*
X025368Y013423D02*
X025056Y013423D01*
X025249Y013304D02*
X023179Y013304D01*
X023187Y013660D02*
X023215Y013660D01*
X023566Y013641D02*
X023616Y013691D01*
X023655Y013785D01*
X023655Y013849D01*
X023699Y013831D01*
X023801Y013831D01*
X023894Y013869D01*
X023956Y013931D01*
X024688Y013931D01*
X024749Y013869D01*
X024843Y013831D01*
X024944Y013831D01*
X025038Y013869D01*
X025095Y013926D01*
X025095Y013900D01*
X024836Y013641D01*
X023566Y013641D01*
X023585Y013660D02*
X024855Y013660D01*
X024973Y013778D02*
X023652Y013778D01*
X023922Y013897D02*
X024722Y013897D01*
X025065Y013897D02*
X025092Y013897D01*
X025088Y014252D02*
X025095Y014252D01*
X025095Y014371D02*
X023555Y014371D01*
X023564Y014489D02*
X025095Y014489D01*
X025095Y014608D02*
X023605Y014608D01*
X023589Y014726D02*
X025095Y014726D01*
X024700Y014252D02*
X023944Y014252D01*
X023556Y014252D02*
X023555Y014252D01*
X023219Y014015D02*
X020349Y014015D01*
X021155Y015710D02*
X021155Y018121D01*
X021191Y018034D01*
X021263Y017962D01*
X021345Y017928D01*
X021345Y015900D01*
X021155Y015710D01*
X021155Y015793D02*
X021238Y015793D01*
X021155Y015911D02*
X021345Y015911D01*
X021345Y016030D02*
X021155Y016030D01*
X021155Y016148D02*
X021345Y016148D01*
X021345Y016267D02*
X021155Y016267D01*
X021155Y016385D02*
X021345Y016385D01*
X021345Y016504D02*
X021155Y016504D01*
X021155Y016622D02*
X021345Y016622D01*
X021345Y016741D02*
X021155Y016741D01*
X021155Y016859D02*
X021345Y016859D01*
X021345Y016978D02*
X021155Y016978D01*
X021155Y017096D02*
X021345Y017096D01*
X021345Y017215D02*
X021155Y017215D01*
X021155Y017333D02*
X021345Y017333D01*
X021345Y017452D02*
X021155Y017452D01*
X021155Y017570D02*
X021345Y017570D01*
X021345Y017689D02*
X021155Y017689D01*
X021155Y017807D02*
X021345Y017807D01*
X021345Y017926D02*
X021155Y017926D01*
X021155Y018044D02*
X021187Y018044D01*
X021174Y018281D02*
X021155Y018281D01*
X021155Y018400D02*
X021276Y018400D01*
X021155Y018518D02*
X022072Y018518D01*
X022001Y018400D02*
X021539Y018400D01*
X021641Y018281D02*
X021997Y018281D01*
X022062Y018163D02*
X021662Y018163D01*
X021655Y018044D02*
X022445Y018044D01*
X022445Y017926D02*
X021655Y017926D01*
X021655Y017807D02*
X022445Y017807D01*
X022445Y017689D02*
X021655Y017689D01*
X021655Y017570D02*
X022445Y017570D01*
X022445Y017452D02*
X021655Y017452D01*
X021655Y017333D02*
X022445Y017333D01*
X022445Y017215D02*
X021655Y017215D01*
X021655Y017096D02*
X022445Y017096D01*
X022445Y016978D02*
X021655Y016978D01*
X021655Y016859D02*
X022445Y016859D01*
X022436Y016741D02*
X021655Y016741D01*
X021655Y016622D02*
X022317Y016622D01*
X022199Y016504D02*
X021655Y016504D01*
X021655Y016385D02*
X022080Y016385D01*
X021962Y016267D02*
X021655Y016267D01*
X021655Y016148D02*
X021843Y016148D01*
X021725Y016030D02*
X021655Y016030D01*
X020845Y016504D02*
X020742Y016504D01*
X020755Y016622D02*
X020845Y016622D01*
X020845Y016741D02*
X020706Y016741D01*
X020845Y016859D02*
X020446Y016859D01*
X020327Y016978D02*
X020845Y016978D01*
X020845Y017096D02*
X020209Y017096D01*
X020090Y017215D02*
X020845Y017215D01*
X020845Y017333D02*
X020005Y017333D01*
X019978Y017452D02*
X020845Y017452D01*
X020845Y017570D02*
X019850Y017570D01*
X019650Y017570D02*
X019555Y017570D01*
X019555Y017689D02*
X020845Y017689D01*
X020845Y017807D02*
X019555Y017807D01*
X019555Y017926D02*
X020845Y017926D01*
X020845Y018044D02*
X019555Y018044D01*
X019555Y018163D02*
X020062Y018163D01*
X020034Y018191D02*
X020106Y018119D01*
X020199Y018081D01*
X020301Y018081D01*
X020394Y018119D01*
X020466Y018191D01*
X020505Y018285D01*
X020505Y018386D01*
X020466Y018480D01*
X020394Y018552D01*
X020301Y018591D01*
X020199Y018591D01*
X020106Y018552D01*
X020034Y018480D01*
X019995Y018386D01*
X019995Y018285D01*
X020034Y018191D01*
X019997Y018281D02*
X019555Y018281D01*
X019555Y018400D02*
X020001Y018400D01*
X020072Y018518D02*
X019555Y018518D01*
X019555Y018637D02*
X020845Y018637D01*
X020845Y018755D02*
X019555Y018755D01*
X019555Y018874D02*
X020845Y018874D01*
X020794Y018992D02*
X019579Y018992D01*
X019724Y019111D02*
X020804Y019111D01*
X020881Y019229D02*
X019755Y019229D01*
X019245Y018518D02*
X018428Y018518D01*
X018499Y018400D02*
X019245Y018400D01*
X019245Y018281D02*
X018503Y018281D01*
X018438Y018163D02*
X019245Y018163D01*
X019245Y018044D02*
X015005Y018044D01*
X014994Y018163D02*
X016062Y018163D01*
X015997Y018281D02*
X014915Y018281D01*
X014905Y018400D02*
X016001Y018400D01*
X016118Y017807D02*
X013005Y017807D01*
X013051Y017689D02*
X016017Y017689D01*
X015995Y017570D02*
X015850Y017570D01*
X015978Y017452D02*
X016029Y017452D01*
X015650Y017570D02*
X013170Y017570D01*
X012850Y017452D02*
X011330Y017452D01*
X011330Y017570D02*
X012590Y017570D01*
X012508Y017689D02*
X011330Y017689D01*
X011330Y017807D02*
X012495Y017807D01*
X012544Y017926D02*
X011330Y017926D01*
X011330Y018044D02*
X014495Y018044D01*
X014506Y018163D02*
X011330Y018163D01*
X011330Y018281D02*
X014585Y018281D01*
X014595Y018400D02*
X011330Y018400D01*
X011330Y018518D02*
X013050Y018518D01*
X013050Y018637D02*
X012912Y018637D01*
X012588Y018637D02*
X011330Y018637D01*
X011330Y018755D02*
X012507Y018755D01*
X012954Y018992D02*
X013050Y018992D01*
X012060Y018992D02*
X011940Y018992D01*
X011940Y019111D02*
X012060Y019111D01*
X012060Y019229D02*
X011940Y019229D01*
X011940Y019585D02*
X012060Y019585D01*
X012060Y019703D02*
X011940Y019703D01*
X011629Y019703D02*
X011330Y019703D01*
X011330Y019585D02*
X011584Y019585D01*
X010970Y020296D02*
X010679Y020296D01*
X010939Y020414D02*
X010970Y020414D01*
X011330Y020533D02*
X014495Y020533D01*
X014495Y020651D02*
X011330Y020651D01*
X011415Y021007D02*
X011828Y021007D01*
X011710Y021125D02*
X011534Y021125D01*
X011570Y021244D02*
X011690Y021244D01*
X011690Y021481D02*
X011570Y021481D01*
X011480Y021599D02*
X011763Y021599D01*
X011882Y021718D02*
X011362Y021718D01*
X014415Y020414D02*
X014495Y020414D01*
X014805Y020414D02*
X014885Y020414D01*
X014805Y020533D02*
X027540Y020533D01*
X027540Y020651D02*
X014805Y020651D01*
X014805Y020770D02*
X027540Y020770D01*
X027540Y020888D02*
X014922Y020888D01*
X015415Y020414D02*
X027540Y020414D01*
X027540Y020296D02*
X015534Y020296D01*
X015570Y020177D02*
X027540Y020177D01*
X027540Y020059D02*
X015570Y020059D01*
X015570Y019940D02*
X027540Y019940D01*
X027540Y019822D02*
X015480Y019822D01*
X015362Y019703D02*
X026294Y019703D01*
X026456Y019703D02*
X027540Y019703D01*
X027540Y019585D02*
X026600Y019585D01*
X026630Y019466D02*
X027540Y019466D01*
X027540Y019348D02*
X026604Y019348D01*
X026483Y019229D02*
X027540Y019229D01*
X027540Y019111D02*
X026244Y019111D01*
X025845Y017570D02*
X025625Y017570D01*
X025662Y017452D02*
X025845Y017452D01*
X025845Y017333D02*
X025644Y017333D01*
X025555Y017215D02*
X025845Y017215D01*
X024062Y018163D02*
X022796Y018163D01*
X022915Y018281D02*
X023997Y018281D01*
X024001Y018400D02*
X023033Y018400D01*
X023152Y018518D02*
X024072Y018518D01*
X023465Y017570D02*
X022755Y017570D01*
X022755Y017452D02*
X023347Y017452D01*
X023228Y017333D02*
X022755Y017333D01*
X022755Y017215D02*
X023110Y017215D01*
X022991Y017096D02*
X022755Y017096D01*
X022755Y016978D02*
X022873Y016978D01*
X022445Y018163D02*
X022438Y018163D01*
X022499Y018400D02*
X022595Y018400D01*
X022713Y018518D02*
X022428Y018518D01*
X022832Y018637D02*
X021155Y018637D01*
X021155Y018755D02*
X022950Y018755D01*
X020845Y018518D02*
X020428Y018518D01*
X020499Y018400D02*
X020845Y018400D01*
X020845Y018281D02*
X020503Y018281D01*
X020438Y018163D02*
X020845Y018163D01*
X019245Y017926D02*
X014951Y017926D01*
X014549Y017926D02*
X012956Y017926D01*
X012968Y017333D02*
X011330Y017333D01*
X011330Y017215D02*
X013087Y017215D01*
X013206Y016741D02*
X014544Y016741D01*
X014495Y016622D02*
X013255Y016622D01*
X013242Y016504D02*
X014508Y016504D01*
X014590Y016385D02*
X013160Y016385D01*
X014017Y016030D02*
X015225Y016030D01*
X015662Y017096D02*
X011330Y017096D01*
X011330Y016978D02*
X017889Y016978D01*
X018231Y016385D02*
X016905Y016385D01*
X016897Y016267D02*
X018350Y016267D01*
X018468Y016148D02*
X016823Y016148D01*
X016775Y015081D02*
X017175Y015081D01*
X017106Y015052D01*
X017034Y014980D01*
X016995Y014886D01*
X016995Y014785D01*
X017013Y014742D01*
X016955Y014800D01*
X016955Y014886D01*
X016916Y014980D01*
X016844Y015052D01*
X016775Y015081D01*
X016625Y015081D02*
X016556Y015052D01*
X016484Y014980D01*
X016475Y014959D01*
X016466Y014980D01*
X016394Y015052D01*
X016325Y015081D01*
X016625Y015081D01*
X016477Y014963D02*
X016473Y014963D01*
X016923Y014963D02*
X017027Y014963D01*
X016995Y014845D02*
X016955Y014845D01*
X017487Y014741D02*
X017513Y014741D01*
X017500Y014773D01*
X017487Y014741D01*
X016496Y014371D02*
X011330Y014371D01*
X011330Y014489D02*
X016377Y014489D01*
X016134Y014608D02*
X015966Y014608D01*
X015734Y014608D02*
X011330Y014608D01*
X011330Y014726D02*
X015619Y014726D01*
X015595Y014845D02*
X011330Y014845D01*
X011330Y014963D02*
X015627Y014963D01*
X015778Y015082D02*
X011330Y015082D01*
X005286Y017689D02*
X005078Y017689D01*
X004750Y019336D02*
X005550Y020136D01*
X005650Y020136D01*
X004981Y019822D02*
X003865Y019822D01*
X004044Y019703D02*
X004436Y019703D01*
X004374Y019585D02*
X004112Y019585D01*
X004136Y019466D02*
X004374Y019466D01*
X004374Y019348D02*
X004124Y019348D01*
X004073Y019229D02*
X004374Y019229D01*
X010455Y009275D02*
X023295Y009275D01*
X023295Y009157D02*
X010455Y009157D01*
X010455Y009038D02*
X023295Y009038D01*
X023295Y008920D02*
X010455Y008920D01*
X010491Y008564D02*
X015677Y008564D01*
X015645Y008446D02*
X010609Y008446D01*
X010728Y008327D02*
X015669Y008327D01*
X015782Y008209D02*
X010846Y008209D01*
X010987Y007379D02*
X008101Y007379D01*
X008062Y007396D02*
X007938Y007396D01*
X007824Y007348D01*
X007737Y007261D01*
X007690Y007147D01*
X007690Y007024D01*
X007737Y006910D01*
X007824Y006823D01*
X007938Y006776D01*
X008062Y006776D01*
X008176Y006823D01*
X008198Y006846D01*
X010651Y006846D01*
X010690Y006806D01*
X010690Y006774D01*
X010737Y006660D01*
X010824Y006573D01*
X010938Y006526D01*
X011062Y006526D01*
X011176Y006573D01*
X011263Y006660D01*
X011310Y006774D01*
X011310Y006897D01*
X011263Y007011D01*
X011176Y007098D01*
X011062Y007146D01*
X011029Y007146D01*
X010886Y007289D01*
X010798Y007326D01*
X008198Y007326D01*
X008176Y007348D01*
X008062Y007396D01*
X007899Y007379D02*
X001960Y007379D01*
X001960Y007261D02*
X007737Y007261D01*
X007690Y007142D02*
X001960Y007142D01*
X001960Y007024D02*
X007690Y007024D01*
X007742Y006905D02*
X001960Y006905D01*
X001960Y006787D02*
X007912Y006787D01*
X008088Y006787D02*
X010690Y006787D01*
X010734Y006668D02*
X001960Y006668D01*
X001960Y006550D02*
X010880Y006550D01*
X011120Y006550D02*
X011817Y006550D01*
X011698Y006668D02*
X011266Y006668D01*
X011310Y006787D02*
X011580Y006787D01*
X011461Y006905D02*
X011307Y006905D01*
X011343Y007024D02*
X011250Y007024D01*
X011224Y007142D02*
X011070Y007142D01*
X011106Y007261D02*
X010914Y007261D01*
X011935Y006431D02*
X001960Y006431D01*
X001960Y006313D02*
X012054Y006313D01*
X013098Y005957D02*
X016774Y005957D01*
X016745Y005839D02*
X013216Y005839D01*
X013335Y005720D02*
X016772Y005720D01*
X016899Y005602D02*
X013453Y005602D01*
X013572Y005483D02*
X023678Y005483D01*
X023649Y005602D02*
X022851Y005602D01*
X022978Y005720D02*
X023522Y005720D01*
X023495Y005839D02*
X023005Y005839D01*
X022976Y005957D02*
X023524Y005957D01*
X023851Y005602D02*
X024515Y005602D01*
X024716Y005839D02*
X024995Y005839D01*
X025024Y005957D02*
X024598Y005957D01*
X024471Y006076D02*
X025095Y006076D01*
X025095Y006194D02*
X024505Y006194D01*
X024483Y006313D02*
X025095Y006313D01*
X025044Y006431D02*
X024382Y006431D01*
X025405Y006313D02*
X028540Y006313D01*
X028540Y006431D02*
X025456Y006431D01*
X025505Y006550D02*
X028540Y006550D01*
X028540Y006668D02*
X025492Y006668D01*
X025405Y006194D02*
X028540Y006194D01*
X028540Y006076D02*
X025737Y006076D01*
X025563Y006076D02*
X025405Y006076D01*
X025876Y005957D02*
X028540Y005957D01*
X028540Y005839D02*
X025905Y005839D01*
X025878Y005720D02*
X028540Y005720D01*
X028540Y005602D02*
X025751Y005602D01*
X026322Y005483D02*
X028540Y005483D01*
X028540Y005365D02*
X026440Y005365D01*
X026700Y005246D02*
X028540Y005246D01*
X028540Y005128D02*
X028033Y005128D01*
X028264Y005009D02*
X028540Y005009D01*
X028540Y004891D02*
X028383Y004891D01*
X028478Y004772D02*
X028540Y004772D01*
X028527Y004654D02*
X028540Y004654D01*
X028540Y003943D02*
X028496Y003943D01*
X028540Y003824D02*
X028426Y003824D01*
X028540Y003706D02*
X028308Y003706D01*
X028138Y003587D02*
X028540Y003587D01*
X028540Y003469D02*
X026905Y003469D01*
X026905Y003587D02*
X027362Y003587D01*
X027192Y003706D02*
X026849Y003706D01*
X026731Y003824D02*
X027074Y003824D01*
X027004Y003943D02*
X026612Y003943D01*
X026494Y004061D02*
X026955Y004061D01*
X026910Y004180D02*
X026375Y004180D01*
X026257Y004298D02*
X026910Y004298D01*
X026910Y004417D02*
X026185Y004417D01*
X026185Y004535D02*
X026924Y004535D01*
X026973Y004654D02*
X026183Y004654D01*
X026185Y004772D02*
X027022Y004772D01*
X027117Y004891D02*
X026666Y004891D01*
X026744Y005009D02*
X027236Y005009D01*
X027467Y005128D02*
X026755Y005128D01*
X026245Y005121D02*
X026245Y005091D01*
X026185Y005091D01*
X026185Y005181D01*
X026186Y005181D01*
X026245Y005121D01*
X026239Y005128D02*
X026185Y005128D01*
X025315Y005128D02*
X024935Y005128D01*
X024935Y005009D02*
X025315Y005009D01*
X025315Y004891D02*
X024935Y004891D01*
X024935Y004772D02*
X025315Y004772D01*
X025317Y004654D02*
X024933Y004654D01*
X024935Y004535D02*
X025315Y004535D01*
X025315Y004417D02*
X024935Y004417D01*
X024935Y004298D02*
X025315Y004298D01*
X025315Y004180D02*
X024935Y004180D01*
X025172Y004061D02*
X025315Y004061D01*
X025315Y003943D02*
X025282Y003943D01*
X025305Y003824D02*
X025315Y003824D01*
X025315Y003706D02*
X025272Y003706D01*
X025315Y003587D02*
X025116Y003587D01*
X024984Y003587D02*
X024935Y003587D01*
X024935Y003469D02*
X025315Y003469D01*
X025251Y003350D02*
X016950Y003350D01*
X016950Y003232D02*
X025246Y003232D01*
X025312Y003113D02*
X016950Y003113D01*
X016950Y002995D02*
X026595Y002995D01*
X026595Y003113D02*
X025688Y003113D01*
X025754Y003232D02*
X026595Y003232D01*
X026595Y003350D02*
X025749Y003350D01*
X026185Y003469D02*
X026595Y003469D01*
X026529Y003587D02*
X026185Y003587D01*
X026185Y003706D02*
X026411Y003706D01*
X026292Y003824D02*
X026185Y003824D01*
X026905Y003350D02*
X028468Y003350D01*
X028349Y003232D02*
X026905Y003232D01*
X026905Y003113D02*
X028231Y003113D01*
X028112Y002995D02*
X026905Y002995D01*
X026905Y002876D02*
X027994Y002876D01*
X027875Y002758D02*
X026905Y002758D01*
X027040Y002639D02*
X027757Y002639D01*
X027638Y002521D02*
X027159Y002521D01*
X027170Y002402D02*
X027540Y002402D01*
X027540Y002284D02*
X027170Y002284D01*
X027170Y002165D02*
X027540Y002165D01*
X027540Y002047D02*
X027055Y002047D01*
X026936Y001928D02*
X027540Y001928D01*
X027540Y001810D02*
X007912Y001810D01*
X007990Y001928D02*
X012388Y001928D01*
X012400Y001916D02*
X013100Y001916D01*
X013170Y001986D01*
X013170Y002685D01*
X013100Y002756D01*
X012400Y002756D01*
X012330Y002685D01*
X012330Y001986D01*
X012400Y001916D01*
X012330Y002047D02*
X008039Y002047D01*
X008089Y002165D02*
X010235Y002165D01*
X010231Y002167D02*
X010373Y002108D01*
X010527Y002108D01*
X010669Y002167D01*
X010778Y002276D01*
X010837Y002418D01*
X010837Y002572D01*
X010778Y002714D01*
X010669Y002823D01*
X010527Y002882D01*
X010373Y002882D01*
X010231Y002823D01*
X010122Y002714D01*
X010063Y002572D01*
X010063Y002418D01*
X010122Y002276D01*
X010231Y002167D01*
X010119Y002284D02*
X008090Y002284D01*
X008090Y002402D02*
X010069Y002402D01*
X010063Y002521D02*
X008082Y002521D01*
X008033Y002639D02*
X010091Y002639D01*
X010165Y002758D02*
X007984Y002758D01*
X007897Y002876D02*
X010358Y002876D01*
X010542Y002876D02*
X016550Y002876D01*
X016550Y002758D02*
X010735Y002758D01*
X010809Y002639D02*
X012330Y002639D01*
X012330Y002521D02*
X010837Y002521D01*
X010831Y002402D02*
X012330Y002402D01*
X012330Y002284D02*
X010781Y002284D01*
X010665Y002165D02*
X012330Y002165D01*
X013112Y001928D02*
X013564Y001928D01*
X013576Y001916D02*
X013924Y001916D01*
X014170Y002162D01*
X014170Y002510D01*
X013924Y002756D01*
X013576Y002756D01*
X013330Y002510D01*
X013330Y002162D01*
X013576Y001916D01*
X013445Y002047D02*
X013170Y002047D01*
X013170Y002165D02*
X013330Y002165D01*
X013330Y002284D02*
X013170Y002284D01*
X013170Y002402D02*
X013330Y002402D01*
X013341Y002521D02*
X013170Y002521D01*
X013170Y002639D02*
X013460Y002639D01*
X014040Y002639D02*
X014460Y002639D01*
X014576Y002756D02*
X014330Y002510D01*
X014330Y002162D01*
X014576Y001916D01*
X014924Y001916D01*
X015170Y002162D01*
X015170Y002510D01*
X014924Y002756D01*
X014576Y002756D01*
X014341Y002521D02*
X014159Y002521D01*
X014170Y002402D02*
X014330Y002402D01*
X014330Y002284D02*
X014170Y002284D01*
X014170Y002165D02*
X014330Y002165D01*
X014445Y002047D02*
X014055Y002047D01*
X013936Y001928D02*
X014564Y001928D01*
X014936Y001928D02*
X015564Y001928D01*
X015576Y001916D02*
X015924Y001916D01*
X016170Y002162D01*
X016170Y002510D01*
X015924Y002756D01*
X015576Y002756D01*
X015330Y002510D01*
X015330Y002162D01*
X015576Y001916D01*
X015445Y002047D02*
X015055Y002047D01*
X015170Y002165D02*
X015330Y002165D01*
X015330Y002284D02*
X015170Y002284D01*
X015170Y002402D02*
X015330Y002402D01*
X015341Y002521D02*
X015159Y002521D01*
X015040Y002639D02*
X015460Y002639D01*
X016040Y002639D02*
X016460Y002639D01*
X016341Y002521D02*
X016159Y002521D01*
X016170Y002402D02*
X016330Y002402D01*
X016330Y002284D02*
X016170Y002284D01*
X016170Y002165D02*
X016330Y002165D01*
X016445Y002047D02*
X016055Y002047D01*
X015936Y001928D02*
X016564Y001928D01*
X016936Y001928D02*
X017507Y001928D01*
X017559Y001876D02*
X017290Y002145D01*
X017290Y002296D01*
X017710Y002296D01*
X017710Y002376D01*
X017710Y002796D01*
X017559Y002796D01*
X017290Y002526D01*
X017290Y002376D01*
X017710Y002376D01*
X017790Y002376D01*
X017790Y002796D01*
X017941Y002796D01*
X018210Y002526D01*
X018210Y002376D01*
X017790Y002376D01*
X017790Y002296D01*
X018210Y002296D01*
X018210Y002145D01*
X017941Y001876D01*
X017790Y001876D01*
X017790Y002296D01*
X017710Y002296D01*
X017710Y001876D01*
X017559Y001876D01*
X017710Y001928D02*
X017790Y001928D01*
X017790Y002047D02*
X017710Y002047D01*
X017710Y002165D02*
X017790Y002165D01*
X017790Y002284D02*
X017710Y002284D01*
X017710Y002402D02*
X017790Y002402D01*
X017790Y002521D02*
X017710Y002521D01*
X017710Y002639D02*
X017790Y002639D01*
X017790Y002758D02*
X017710Y002758D01*
X017521Y002758D02*
X016950Y002758D01*
X016950Y002876D02*
X026595Y002876D01*
X026595Y002758D02*
X018979Y002758D01*
X018941Y002796D02*
X018790Y002796D01*
X018790Y002376D01*
X018710Y002376D01*
X018710Y002796D01*
X018559Y002796D01*
X018290Y002526D01*
X018290Y002376D01*
X018710Y002376D01*
X018710Y002296D01*
X018290Y002296D01*
X018290Y002145D01*
X018559Y001876D01*
X018710Y001876D01*
X018710Y002296D01*
X018790Y002296D01*
X018790Y002376D01*
X019210Y002376D01*
X019210Y002526D01*
X018941Y002796D01*
X018790Y002758D02*
X018710Y002758D01*
X018710Y002639D02*
X018790Y002639D01*
X018790Y002521D02*
X018710Y002521D01*
X018710Y002402D02*
X018790Y002402D01*
X018790Y002296D02*
X019210Y002296D01*
X019210Y002145D01*
X018941Y001876D01*
X018790Y001876D01*
X018790Y002296D01*
X018790Y002284D02*
X018710Y002284D01*
X018710Y002165D02*
X018790Y002165D01*
X018790Y002047D02*
X018710Y002047D01*
X018710Y001928D02*
X018790Y001928D01*
X018993Y001928D02*
X019564Y001928D01*
X019576Y001916D02*
X019924Y001916D01*
X020170Y002162D01*
X020170Y002510D01*
X019924Y002756D01*
X019576Y002756D01*
X019330Y002510D01*
X019330Y002162D01*
X019576Y001916D01*
X019445Y002047D02*
X019112Y002047D01*
X019210Y002165D02*
X019330Y002165D01*
X019330Y002284D02*
X019210Y002284D01*
X019210Y002402D02*
X019330Y002402D01*
X019341Y002521D02*
X019210Y002521D01*
X019097Y002639D02*
X019460Y002639D01*
X020040Y002639D02*
X021330Y002639D01*
X021330Y002685D02*
X021330Y001986D01*
X021400Y001916D01*
X022100Y001916D01*
X022170Y001986D01*
X022170Y002685D01*
X022100Y002756D01*
X021400Y002756D01*
X021330Y002685D01*
X021330Y002521D02*
X020159Y002521D01*
X020170Y002402D02*
X021330Y002402D01*
X021330Y002284D02*
X020170Y002284D01*
X020170Y002165D02*
X021330Y002165D01*
X021330Y002047D02*
X020055Y002047D01*
X019936Y001928D02*
X021388Y001928D01*
X022112Y001928D02*
X022564Y001928D01*
X022576Y001916D02*
X022924Y001916D01*
X023170Y002162D01*
X023170Y002510D01*
X022924Y002756D01*
X022576Y002756D01*
X022330Y002510D01*
X022330Y002162D01*
X022576Y001916D01*
X022445Y002047D02*
X022170Y002047D01*
X022170Y002165D02*
X022330Y002165D01*
X022330Y002284D02*
X022170Y002284D01*
X022170Y002402D02*
X022330Y002402D01*
X022341Y002521D02*
X022170Y002521D01*
X022170Y002639D02*
X022460Y002639D01*
X023040Y002639D02*
X023460Y002639D01*
X023576Y002756D02*
X023330Y002510D01*
X023330Y002162D01*
X023576Y001916D01*
X023924Y001916D01*
X024170Y002162D01*
X024170Y002510D01*
X023924Y002756D01*
X023576Y002756D01*
X023341Y002521D02*
X023159Y002521D01*
X023170Y002402D02*
X023330Y002402D01*
X023330Y002284D02*
X023170Y002284D01*
X023170Y002165D02*
X023330Y002165D01*
X023445Y002047D02*
X023055Y002047D01*
X022936Y001928D02*
X023564Y001928D01*
X023936Y001928D02*
X024564Y001928D01*
X024576Y001916D02*
X024924Y001916D01*
X025170Y002162D01*
X025170Y002510D01*
X024924Y002756D01*
X024576Y002756D01*
X024330Y002510D01*
X024330Y002162D01*
X024576Y001916D01*
X024445Y002047D02*
X024055Y002047D01*
X024170Y002165D02*
X024330Y002165D01*
X024330Y002284D02*
X024170Y002284D01*
X024170Y002402D02*
X024330Y002402D01*
X024341Y002521D02*
X024159Y002521D01*
X024040Y002639D02*
X024460Y002639D01*
X025040Y002639D02*
X025460Y002639D01*
X025576Y002756D02*
X025330Y002510D01*
X025330Y002162D01*
X025576Y001916D01*
X025924Y001916D01*
X026170Y002162D01*
X026170Y002510D01*
X025924Y002756D01*
X025576Y002756D01*
X025341Y002521D02*
X025159Y002521D01*
X025170Y002402D02*
X025330Y002402D01*
X025330Y002284D02*
X025170Y002284D01*
X025170Y002165D02*
X025330Y002165D01*
X025445Y002047D02*
X025055Y002047D01*
X024936Y001928D02*
X025564Y001928D01*
X025936Y001928D02*
X026564Y001928D01*
X026445Y002047D02*
X026055Y002047D01*
X026170Y002165D02*
X026330Y002165D01*
X026330Y002284D02*
X026170Y002284D01*
X026170Y002402D02*
X026330Y002402D01*
X026341Y002521D02*
X026159Y002521D01*
X026040Y002639D02*
X026460Y002639D01*
X027540Y001691D02*
X007793Y001691D01*
X007603Y001573D02*
X027540Y001573D01*
X027960Y001573D02*
X028750Y001573D01*
X028750Y001691D02*
X027960Y001691D01*
X027960Y001810D02*
X028750Y001810D01*
X028750Y001928D02*
X027960Y001928D01*
X027960Y002047D02*
X028750Y002047D01*
X028750Y002165D02*
X027960Y002165D01*
X027960Y002249D02*
X028750Y003039D01*
X028750Y001336D01*
X027960Y001336D01*
X027960Y002249D01*
X027995Y002284D02*
X028750Y002284D01*
X028750Y002402D02*
X028113Y002402D01*
X028232Y002521D02*
X028750Y002521D01*
X028750Y002639D02*
X028350Y002639D01*
X028469Y002758D02*
X028750Y002758D01*
X028750Y002876D02*
X028587Y002876D01*
X028706Y002995D02*
X028750Y002995D01*
X028750Y001454D02*
X027960Y001454D01*
X027960Y001336D02*
X028750Y001336D01*
X024065Y003469D02*
X016950Y003469D01*
X016950Y003587D02*
X024065Y003587D01*
X024065Y003706D02*
X016950Y003706D01*
X016950Y003824D02*
X024065Y003824D01*
X024065Y003943D02*
X016950Y003943D01*
X016950Y004061D02*
X024065Y004061D01*
X024065Y004180D02*
X023705Y004180D01*
X023295Y004180D02*
X016950Y004180D01*
X016950Y004298D02*
X023245Y004298D01*
X023258Y004417D02*
X016963Y004417D01*
X017020Y004535D02*
X023339Y004535D01*
X023661Y004535D02*
X024065Y004535D01*
X024067Y004654D02*
X017014Y004654D01*
X016486Y004654D02*
X004719Y004654D01*
X004768Y004535D02*
X016480Y004535D01*
X016537Y004417D02*
X004804Y004417D01*
X004804Y004298D02*
X016550Y004298D01*
X016550Y004180D02*
X004786Y004180D01*
X004737Y004061D02*
X010368Y004061D01*
X010373Y004063D02*
X010231Y004004D01*
X010122Y003895D01*
X010063Y003753D01*
X010063Y003599D01*
X010122Y003457D01*
X010231Y003348D01*
X010373Y003289D01*
X010527Y003289D01*
X010669Y003348D01*
X010778Y003457D01*
X010837Y003599D01*
X010837Y003753D01*
X010778Y003895D01*
X010669Y004004D01*
X010527Y004063D01*
X010373Y004063D01*
X010532Y004061D02*
X016550Y004061D01*
X016550Y003943D02*
X010731Y003943D01*
X010808Y003824D02*
X016550Y003824D01*
X016550Y003706D02*
X010837Y003706D01*
X010832Y003587D02*
X016550Y003587D01*
X016550Y003469D02*
X010783Y003469D01*
X010671Y003350D02*
X016550Y003350D01*
X016550Y003232D02*
X001960Y003232D01*
X001960Y003350D02*
X010229Y003350D01*
X010117Y003469D02*
X001960Y003469D01*
X001960Y003587D02*
X010068Y003587D01*
X010063Y003706D02*
X001960Y003706D01*
X001960Y003113D02*
X006932Y003113D01*
X006721Y002995D02*
X001960Y002995D01*
X001960Y002876D02*
X006603Y002876D01*
X006516Y002758D02*
X001960Y002758D01*
X001960Y002639D02*
X006467Y002639D01*
X006418Y002521D02*
X001960Y002521D01*
X001960Y002402D02*
X006410Y002402D01*
X006410Y002284D02*
X001960Y002284D01*
X001960Y002165D02*
X006411Y002165D01*
X006461Y002047D02*
X001960Y002047D01*
X001960Y001928D02*
X006510Y001928D01*
X006588Y001810D02*
X001960Y001810D01*
X001960Y001691D02*
X006707Y001691D01*
X006897Y001573D02*
X001960Y001573D01*
X004480Y003824D02*
X010092Y003824D01*
X010169Y003943D02*
X004645Y003943D01*
X004602Y004772D02*
X013594Y004772D01*
X013476Y004891D02*
X004375Y004891D01*
X002163Y004772D02*
X001960Y004772D01*
X001960Y004654D02*
X002044Y004654D01*
X001983Y004535D02*
X001960Y004535D01*
X001960Y005602D02*
X009546Y005602D01*
X009462Y005720D02*
X001960Y005720D01*
X001960Y005839D02*
X009440Y005839D01*
X009465Y005957D02*
X001960Y005957D01*
X007568Y003113D02*
X016550Y003113D01*
X016550Y002995D02*
X007779Y002995D01*
X009948Y006076D02*
X009926Y006098D01*
X009812Y006146D01*
X009688Y006146D01*
X009574Y006098D01*
X013690Y005365D02*
X023560Y005365D01*
X023441Y005246D02*
X013809Y005246D01*
X017101Y005602D02*
X018899Y005602D01*
X018772Y005720D02*
X017228Y005720D01*
X017255Y005839D02*
X018745Y005839D01*
X018774Y005957D02*
X017226Y005957D01*
X019101Y005602D02*
X020899Y005602D01*
X020772Y005720D02*
X019228Y005720D01*
X019255Y005839D02*
X020745Y005839D01*
X020774Y005957D02*
X019226Y005957D01*
X021101Y005602D02*
X022649Y005602D01*
X022522Y005720D02*
X021228Y005720D01*
X021255Y005839D02*
X022495Y005839D01*
X022524Y005957D02*
X021226Y005957D01*
X023656Y004772D02*
X024065Y004772D01*
X023784Y004891D02*
X023774Y004891D01*
X023639Y007972D02*
X022473Y007972D01*
X022598Y008090D02*
X023520Y008090D01*
X023402Y008209D02*
X022656Y008209D01*
X022662Y008446D02*
X023295Y008446D01*
X023295Y008564D02*
X022610Y008564D01*
X022279Y008327D02*
X023295Y008327D01*
X023605Y008446D02*
X023716Y008446D01*
X023716Y008564D02*
X023605Y008564D01*
X023605Y008683D02*
X023684Y008683D01*
X023885Y008920D02*
X024001Y008920D01*
X023815Y009038D02*
X023805Y009038D01*
X023805Y009631D02*
X023890Y009631D01*
X023900Y009749D02*
X023805Y009749D01*
X024313Y009749D02*
X024687Y009749D01*
X024677Y009631D02*
X024323Y009631D01*
X024440Y009512D02*
X024560Y009512D01*
X024511Y009394D02*
X024489Y009394D01*
X024496Y009275D02*
X024504Y009275D01*
X024530Y009157D02*
X024470Y009157D01*
X024398Y009038D02*
X024602Y009038D01*
X025257Y009157D02*
X028540Y009157D01*
X028540Y009275D02*
X025284Y009275D01*
X025276Y009394D02*
X028540Y009394D01*
X028540Y009512D02*
X025227Y009512D01*
X025110Y009631D02*
X028540Y009631D01*
X028540Y009749D02*
X028378Y009749D01*
X028122Y009749D02*
X027378Y009749D01*
X027541Y009868D02*
X027959Y009868D01*
X027902Y009986D02*
X027598Y009986D01*
X027610Y010105D02*
X027890Y010105D01*
X027893Y010223D02*
X027583Y010223D01*
X027976Y010579D02*
X028540Y010579D01*
X028540Y010697D02*
X025243Y010697D01*
X025284Y010816D02*
X028540Y010816D01*
X028540Y010934D02*
X028074Y010934D01*
X027996Y010856D02*
X028265Y011125D01*
X028265Y011276D01*
X027845Y011276D01*
X027845Y010856D01*
X027996Y010856D01*
X027845Y010934D02*
X027765Y010934D01*
X027765Y010856D02*
X027765Y011276D01*
X027345Y011276D01*
X027345Y011125D01*
X027615Y010856D01*
X027765Y010856D01*
X027765Y011053D02*
X027845Y011053D01*
X027845Y011171D02*
X027765Y011171D01*
X027765Y011276D02*
X027845Y011276D01*
X027845Y011356D01*
X027765Y011356D01*
X027765Y011276D01*
X027765Y011290D02*
X027225Y011290D01*
X027225Y011408D02*
X027345Y011408D01*
X027345Y011356D02*
X027765Y011356D01*
X027765Y011776D01*
X027615Y011776D01*
X027345Y011506D01*
X027345Y011356D01*
X027365Y011527D02*
X027188Y011527D01*
X027070Y011645D02*
X027484Y011645D01*
X027602Y011764D02*
X025273Y011764D01*
X025284Y011645D02*
X026540Y011645D01*
X026422Y011527D02*
X025260Y011527D01*
X025224Y011882D02*
X028540Y011882D01*
X028540Y011764D02*
X028008Y011764D01*
X027996Y011776D02*
X027845Y011776D01*
X027845Y011356D01*
X028265Y011356D01*
X028265Y011506D01*
X027996Y011776D01*
X027845Y011764D02*
X027765Y011764D01*
X027765Y011645D02*
X027845Y011645D01*
X027845Y011527D02*
X027765Y011527D01*
X027765Y011408D02*
X027845Y011408D01*
X027845Y011290D02*
X028540Y011290D01*
X028540Y011408D02*
X028265Y011408D01*
X028245Y011527D02*
X028540Y011527D01*
X028540Y011645D02*
X028126Y011645D01*
X028084Y012001D02*
X028540Y012001D01*
X028540Y012119D02*
X028202Y012119D01*
X028225Y012238D02*
X028540Y012238D01*
X028540Y012356D02*
X028225Y012356D01*
X028225Y012475D02*
X028540Y012475D01*
X028540Y012593D02*
X028122Y012593D01*
X027607Y012712D02*
X027003Y012712D01*
X026979Y012736D02*
X026631Y012736D01*
X026385Y012490D01*
X026385Y012142D01*
X026631Y011896D01*
X026979Y011896D01*
X027225Y012142D01*
X027225Y012490D01*
X026979Y012736D01*
X026979Y012896D02*
X026631Y012896D01*
X026385Y013142D01*
X026385Y013490D01*
X026631Y013736D01*
X026979Y013736D01*
X027225Y013490D01*
X027225Y013142D01*
X026979Y012896D01*
X027032Y012949D02*
X027578Y012949D01*
X027460Y013067D02*
X027150Y013067D01*
X027225Y013186D02*
X027385Y013186D01*
X027385Y013304D02*
X027225Y013304D01*
X027225Y013423D02*
X027385Y013423D01*
X027436Y013541D02*
X027174Y013541D01*
X027055Y013660D02*
X027555Y013660D01*
X026555Y013660D02*
X026043Y013660D01*
X025925Y013541D02*
X026436Y013541D01*
X026385Y013423D02*
X025806Y013423D01*
X025688Y013304D02*
X026385Y013304D01*
X026385Y013186D02*
X025569Y013186D01*
X025451Y013067D02*
X026460Y013067D01*
X026578Y012949D02*
X025332Y012949D01*
X025181Y012712D02*
X026607Y012712D01*
X026488Y012593D02*
X025256Y012593D01*
X025284Y012475D02*
X026385Y012475D01*
X026385Y012356D02*
X025278Y012356D01*
X025229Y012238D02*
X026385Y012238D01*
X026408Y012119D02*
X025117Y012119D01*
X025091Y012001D02*
X026526Y012001D01*
X027084Y012001D02*
X027526Y012001D01*
X027408Y012119D02*
X027202Y012119D01*
X027225Y012238D02*
X027385Y012238D01*
X027385Y012356D02*
X027225Y012356D01*
X027225Y012475D02*
X027385Y012475D01*
X027488Y012593D02*
X027122Y012593D01*
X027225Y011171D02*
X027345Y011171D01*
X027418Y011053D02*
X027136Y011053D01*
X027017Y010934D02*
X027536Y010934D01*
X028192Y011053D02*
X028540Y011053D01*
X028540Y011171D02*
X028265Y011171D01*
X028095Y010460D02*
X028540Y010460D01*
X028540Y010342D02*
X028503Y010342D01*
X027122Y009749D02*
X025100Y009749D01*
X025226Y009868D02*
X026959Y009868D01*
X026925Y010241D02*
X025252Y010241D01*
X025224Y010307D01*
X025200Y010331D01*
X026986Y010331D01*
X026945Y010290D01*
X026925Y010241D01*
X026593Y010934D02*
X025284Y010934D01*
X025241Y011053D02*
X026474Y011053D01*
X024529Y010223D02*
X024471Y010223D01*
X024496Y010105D02*
X024504Y010105D01*
X024513Y009986D02*
X024487Y009986D01*
X024438Y009868D02*
X024562Y009868D01*
X023760Y008327D02*
X023722Y008327D01*
X023840Y008209D02*
X023857Y008209D01*
X023959Y008090D02*
X023973Y008090D01*
X018521Y002758D02*
X017979Y002758D01*
X018097Y002639D02*
X018403Y002639D01*
X018290Y002521D02*
X018210Y002521D01*
X018210Y002402D02*
X018290Y002402D01*
X018290Y002284D02*
X018210Y002284D01*
X018210Y002165D02*
X018290Y002165D01*
X018388Y002047D02*
X018112Y002047D01*
X017993Y001928D02*
X018507Y001928D01*
X017388Y002047D02*
X017055Y002047D01*
X017170Y002165D02*
X017290Y002165D01*
X017290Y002284D02*
X017170Y002284D01*
X017170Y002402D02*
X017290Y002402D01*
X017290Y002521D02*
X017159Y002521D01*
X017040Y002639D02*
X017403Y002639D01*
X028187Y014608D02*
X028540Y014608D01*
X028540Y014726D02*
X028328Y014726D01*
X028447Y014845D02*
X028540Y014845D01*
X028540Y014963D02*
X028505Y014963D01*
X028519Y015674D02*
X028540Y015674D01*
X028540Y015793D02*
X028470Y015793D01*
X028540Y015911D02*
X028362Y015911D01*
X028244Y016030D02*
X028540Y016030D01*
X028540Y016148D02*
X027983Y016148D01*
X028660Y016622D02*
X028750Y016622D01*
X028750Y016533D02*
X027960Y017323D01*
X027960Y021823D01*
X027837Y021946D01*
X027447Y022336D01*
X028750Y022336D01*
X028750Y016533D01*
X028750Y016741D02*
X028542Y016741D01*
X028423Y016859D02*
X028750Y016859D01*
X028750Y016978D02*
X028305Y016978D01*
X028186Y017096D02*
X028750Y017096D01*
X028750Y017215D02*
X028068Y017215D01*
X027960Y017333D02*
X028750Y017333D01*
X028750Y017452D02*
X027960Y017452D01*
X027960Y017570D02*
X028750Y017570D01*
X028750Y017689D02*
X027960Y017689D01*
X027960Y017807D02*
X028750Y017807D01*
X028750Y017926D02*
X027960Y017926D01*
X027960Y018044D02*
X028750Y018044D01*
X028750Y018163D02*
X027960Y018163D01*
X027960Y018281D02*
X028750Y018281D01*
X028750Y018400D02*
X027960Y018400D01*
X027960Y018518D02*
X028750Y018518D01*
X028750Y018637D02*
X027960Y018637D01*
X027960Y018755D02*
X028750Y018755D01*
X028750Y018874D02*
X027960Y018874D01*
X027960Y018992D02*
X028750Y018992D01*
X028750Y019111D02*
X027960Y019111D01*
X027960Y019229D02*
X028750Y019229D01*
X028750Y019348D02*
X027960Y019348D01*
X027960Y019466D02*
X028750Y019466D01*
X028750Y019585D02*
X027960Y019585D01*
X027960Y019703D02*
X028750Y019703D01*
X028750Y019822D02*
X027960Y019822D01*
X027960Y019940D02*
X028750Y019940D01*
X028750Y020059D02*
X027960Y020059D01*
X027960Y020177D02*
X028750Y020177D01*
X028750Y020296D02*
X027960Y020296D01*
X027960Y020414D02*
X028750Y020414D01*
X028750Y020533D02*
X027960Y020533D01*
X027960Y020651D02*
X028750Y020651D01*
X028750Y020770D02*
X027960Y020770D01*
X027960Y020888D02*
X028750Y020888D01*
X028750Y021007D02*
X027960Y021007D01*
X027960Y021125D02*
X028750Y021125D01*
X028750Y021244D02*
X027960Y021244D01*
X027960Y021362D02*
X028750Y021362D01*
X028750Y021481D02*
X027960Y021481D01*
X027960Y021599D02*
X028750Y021599D01*
X028750Y021718D02*
X027960Y021718D01*
X027946Y021836D02*
X028750Y021836D01*
X028750Y021955D02*
X027828Y021955D01*
X027837Y021946D02*
X027837Y021946D01*
X027709Y022073D02*
X028750Y022073D01*
X028750Y022192D02*
X027591Y022192D01*
X027472Y022310D02*
X028750Y022310D01*
X019573Y016859D02*
X019555Y016859D01*
D26*
X019700Y016636D02*
X020300Y016036D01*
X020600Y016036D01*
X020500Y016586D02*
X019750Y017336D01*
X019400Y016586D02*
X019400Y019136D01*
X019500Y019236D01*
X021000Y018987D02*
X021049Y019036D01*
X021000Y018987D02*
X021000Y015586D01*
X020500Y015086D01*
X017500Y015086D01*
X017250Y014836D01*
X016950Y014586D02*
X018100Y014586D01*
X018200Y014686D01*
X020600Y014686D01*
X022600Y016686D01*
X022600Y018186D01*
X023500Y019086D01*
X025100Y018936D02*
X025100Y017736D01*
X024800Y017436D01*
X023550Y017436D01*
X020200Y014086D01*
X018750Y014086D01*
X018400Y014436D01*
X016650Y014436D01*
X016250Y014836D01*
X015850Y014836D02*
X015850Y014886D01*
X016200Y015236D01*
X019400Y015236D01*
X019650Y015486D01*
X019650Y016336D01*
X019400Y016586D01*
X019100Y016536D02*
X018550Y016536D01*
X017500Y017586D01*
X018250Y016586D02*
X016500Y016586D01*
X015500Y015586D01*
X014350Y015586D01*
X013850Y015836D02*
X015250Y015836D01*
X016000Y016586D01*
X015750Y017336D02*
X013185Y017336D01*
X012750Y017771D01*
X012750Y018836D02*
X013400Y018836D01*
X014000Y018836D02*
X014000Y019086D01*
X014650Y019736D01*
X014650Y020836D01*
X015150Y021336D01*
X014600Y018836D02*
X014750Y018686D01*
X014750Y018086D01*
X018250Y016586D02*
X018650Y016186D01*
X019300Y016186D01*
X020500Y014836D02*
X017750Y014836D01*
X016950Y014586D02*
X016700Y014836D01*
X020500Y014836D02*
X021500Y015836D01*
X021500Y018086D01*
X021407Y018178D01*
X022750Y015836D02*
X022950Y015636D01*
X024400Y015636D01*
X023400Y014586D02*
X023350Y014636D01*
X023400Y014586D02*
X023400Y013836D01*
X023750Y014086D02*
X024894Y014086D01*
X025250Y013836D02*
X025250Y017271D01*
X025407Y017428D01*
X026000Y019086D02*
X026375Y019461D01*
X026000Y019086D02*
X026000Y013836D01*
X025250Y013086D01*
X023000Y013086D01*
X023000Y013486D02*
X024900Y013486D01*
X025250Y013836D01*
X025130Y011316D02*
X025100Y011286D01*
X020950Y011286D01*
X020500Y011736D01*
X020500Y011586D01*
X020250Y011336D01*
X016500Y011336D01*
X015500Y010336D01*
X015500Y009586D01*
X018750Y009986D02*
X019050Y009986D01*
X020050Y010986D01*
X022600Y010986D01*
X023450Y010136D01*
X023450Y008380D01*
X024106Y007723D01*
X024106Y008511D02*
X024075Y008511D01*
X023650Y008936D01*
X023650Y010236D01*
X022750Y011136D01*
X019850Y011136D01*
X019050Y010336D01*
X024106Y010192D02*
X024106Y010086D01*
X024106Y010192D02*
X024400Y010486D01*
X027850Y010486D01*
X028250Y010086D01*
X027250Y010086D02*
X024894Y010086D01*
X025130Y011316D02*
X026805Y011316D01*
X025250Y006586D02*
X025250Y005836D01*
X025400Y005586D02*
X024750Y005586D01*
X024500Y005836D01*
X023750Y005836D01*
X023750Y005336D02*
X023400Y004986D01*
X013850Y004986D01*
X010300Y008536D01*
X010300Y020136D01*
X010750Y020586D01*
X010150Y021336D02*
X010150Y008436D01*
X013750Y004836D01*
X023500Y004836D01*
X023750Y005086D01*
X023950Y005086D01*
X024350Y005086D01*
X024500Y004936D01*
X024500Y004336D02*
X023500Y004336D01*
X023750Y005336D02*
X026250Y005336D01*
X026500Y005086D01*
X026350Y004936D01*
X025750Y004936D01*
X025900Y005086D01*
X025400Y005586D02*
X025650Y005836D01*
X025750Y004336D02*
X026000Y004336D01*
X026750Y003586D01*
X026750Y002336D01*
X025500Y003286D02*
X025500Y003486D01*
X025750Y003736D01*
X025050Y003836D02*
X024600Y003836D01*
X024500Y003736D01*
X008250Y016836D02*
X008250Y018086D01*
X008500Y018336D01*
X009900Y018336D01*
X005500Y017836D02*
X004875Y018461D01*
X004750Y018336D01*
X004875Y018461D02*
X004750Y018586D01*
X003750Y018586D01*
X003900Y018186D02*
X004750Y017336D01*
M02*
