G75*
G70*
%OFA0B0*%
%FSLAX24Y24*%
%IPPOS*%
%LPD*%
%AMOC8*
5,1,8,0,0,1.08239X$1,22.5*
%
%ADD10C,0.1340*%
%ADD11OC8,0.0680*%
%ADD12R,0.0680X0.0680*%
%ADD13R,0.0710X0.0540*%
%ADD14R,0.0540X0.0710*%
%ADD15C,0.0611*%
%ADD16R,0.0592X0.0592*%
%ADD17C,0.0710*%
%ADD18C,0.0789*%
%ADD19R,0.0620X0.0620*%
%ADD20C,0.0620*%
%ADD21C,0.0434*%
%ADD22C,0.0560*%
%ADD23C,0.0460*%
%ADD24C,0.0380*%
%ADD25C,0.0350*%
D10*
X007250Y002336D03*
X027750Y004336D03*
X027750Y015336D03*
X007750Y021336D03*
D11*
X009150Y021336D03*
X010150Y021336D03*
X011150Y021336D03*
X012150Y021336D03*
X013150Y021336D03*
X014150Y021336D03*
X015150Y021336D03*
X016150Y021336D03*
X017150Y021336D03*
X015150Y020086D03*
X014150Y020086D03*
X019750Y021336D03*
X020750Y021336D03*
X021750Y021336D03*
X022750Y021336D03*
X023750Y021336D03*
X024750Y021336D03*
X025750Y021336D03*
X026805Y013316D03*
X027805Y013316D03*
X027805Y012316D03*
X026805Y012316D03*
X026805Y011316D03*
X027805Y011316D03*
X026750Y002336D03*
X025750Y002336D03*
X024750Y002336D03*
X023750Y002336D03*
X022750Y002336D03*
X019750Y002336D03*
X018750Y002336D03*
X017750Y002336D03*
X016750Y002336D03*
X015750Y002336D03*
X014750Y002336D03*
X013750Y002336D03*
X008250Y014836D03*
D12*
X009250Y014836D03*
X013150Y020086D03*
X018150Y021336D03*
X026750Y021336D03*
X021750Y002336D03*
X012750Y002336D03*
D13*
X024500Y003736D03*
X024500Y004336D03*
X024500Y004936D03*
X025750Y004936D03*
X025750Y004336D03*
X025750Y003736D03*
D14*
X014600Y018836D03*
X014000Y018836D03*
X013400Y018836D03*
D15*
X003750Y019452D03*
X003750Y017719D03*
X021250Y008336D03*
X021750Y007836D03*
X021250Y007336D03*
X022250Y007336D03*
X022250Y008336D03*
D16*
X012000Y019336D03*
X004750Y019336D03*
X004750Y018336D03*
X004750Y017336D03*
D17*
X002469Y004336D03*
D18*
X004240Y004336D03*
D19*
X024106Y012448D03*
D20*
X024894Y012448D03*
X024894Y011660D03*
X024894Y010873D03*
X024106Y010873D03*
X024106Y011660D03*
X024106Y010086D03*
X024894Y010086D03*
X024894Y009298D03*
X024106Y009298D03*
X024106Y008511D03*
X024106Y007723D03*
X024894Y007723D03*
X024894Y008511D03*
D21*
X010450Y003676D03*
X010450Y002495D03*
D22*
X027250Y010086D03*
X028250Y010086D03*
D23*
X011000Y006836D03*
X009750Y005836D03*
X008000Y007086D03*
D24*
X016750Y004586D03*
D25*
X017000Y005336D03*
X017000Y005836D03*
X017000Y006336D03*
X015750Y006336D03*
X015900Y008436D03*
X015500Y009586D03*
X017000Y011586D03*
X016100Y012336D03*
X014500Y012586D03*
X014500Y013086D03*
X014500Y013586D03*
X013500Y013586D03*
X013500Y013086D03*
X013500Y012586D03*
X012750Y012336D03*
X012750Y010836D03*
X009150Y010836D03*
X009150Y011336D03*
X009150Y010336D03*
X013000Y007836D03*
X013000Y007336D03*
X013000Y006836D03*
X011500Y005086D03*
X010750Y005836D03*
X010250Y005336D03*
X010250Y004836D03*
X018750Y009986D03*
X019050Y010336D03*
X019000Y009536D03*
X018950Y009236D03*
X018950Y008936D03*
X019000Y008636D03*
X019300Y008536D03*
X019600Y008536D03*
X019900Y008536D03*
X020200Y008536D03*
X020500Y008536D03*
X020800Y008636D03*
X020750Y008336D03*
X020800Y008036D03*
X021050Y007886D03*
X020850Y007636D03*
X020750Y007336D03*
X020800Y007036D03*
X021050Y006886D03*
X021350Y006836D03*
X021600Y006986D03*
X021900Y006986D03*
X022200Y006836D03*
X022500Y006886D03*
X022700Y007136D03*
X022750Y007436D03*
X022600Y007736D03*
X022700Y008036D03*
X022750Y008336D03*
X022700Y008636D03*
X022700Y008936D03*
X022400Y008886D03*
X022400Y009186D03*
X022100Y008886D03*
X021800Y008936D03*
X021000Y008886D03*
X020550Y009286D03*
X020550Y009586D03*
X020550Y009886D03*
X020550Y010186D03*
X020550Y010486D03*
X020900Y010736D03*
X020500Y011736D03*
X021050Y012086D03*
X021050Y012586D03*
X022000Y013086D03*
X022500Y013086D03*
X023000Y013086D03*
X023000Y013486D03*
X023400Y013836D03*
X023750Y014086D03*
X023350Y014636D03*
X024400Y015636D03*
X023500Y016686D03*
X022750Y015836D03*
X021800Y014986D03*
X021000Y014386D03*
X021050Y013286D03*
X019750Y014436D03*
X019150Y014436D03*
X018800Y014436D03*
X017750Y014836D03*
X017250Y014836D03*
X016700Y014836D03*
X016250Y014836D03*
X015850Y014836D03*
X016100Y013886D03*
X017150Y015486D03*
X016650Y016336D03*
X016000Y016586D03*
X015750Y017336D03*
X016250Y017586D03*
X016700Y017586D03*
X017100Y017586D03*
X017500Y017586D03*
X018250Y017936D03*
X018250Y018336D03*
X018250Y018836D03*
X019500Y019236D03*
X020250Y018836D03*
X020250Y018336D03*
X020250Y017936D03*
X019750Y017336D03*
X019700Y016636D03*
X019300Y016186D03*
X019100Y016536D03*
X019100Y015536D03*
X020600Y016036D03*
X020500Y016586D03*
X022250Y017936D03*
X022250Y018336D03*
X022250Y018836D03*
X022625Y019211D03*
X023500Y019086D03*
X024250Y018836D03*
X024250Y018336D03*
X024250Y017936D03*
X025407Y017428D03*
X026250Y017586D03*
X026250Y018086D03*
X025100Y018936D03*
X026375Y019461D03*
X021407Y018178D03*
X021049Y019036D03*
X016250Y018836D03*
X016250Y018336D03*
X014750Y018086D03*
X014750Y017086D03*
X014750Y016586D03*
X014750Y016086D03*
X014350Y015586D03*
X013850Y015836D03*
X013000Y016086D03*
X013000Y016586D03*
X013000Y017086D03*
X012750Y017771D03*
X012750Y018836D03*
X010750Y020586D03*
X009900Y018336D03*
X008250Y016836D03*
X007750Y017586D03*
X008250Y015836D03*
X007250Y015586D03*
X005500Y017836D03*
X003900Y018186D03*
X003750Y018586D03*
X005650Y020136D03*
X010700Y015486D03*
X018450Y013686D03*
X018500Y013036D03*
X018450Y012536D03*
X019750Y011736D03*
X022400Y010686D03*
X022400Y010386D03*
X022400Y010086D03*
X022400Y009786D03*
X022400Y009486D03*
X022300Y007836D03*
X021700Y007286D03*
X021000Y006336D03*
X021000Y005836D03*
X021000Y005386D03*
X022750Y005386D03*
X022750Y005836D03*
X022750Y006336D03*
X023750Y005836D03*
X024250Y006210D03*
X025250Y005836D03*
X025650Y005836D03*
X026500Y005086D03*
X025050Y003836D03*
X025500Y003286D03*
X023500Y004336D03*
X023950Y005086D03*
X025250Y006586D03*
X019000Y006336D03*
X019000Y005836D03*
X019000Y005336D03*
X023150Y012036D03*
X024894Y014086D03*
M02*
