%
T01C0.015000
X13450Y10800
X17500Y9750
X17500Y8500
X21000Y10250
X22000Y10250
X22000Y11250
X22000Y12000
X23000Y12000
X22750Y12850
X22300Y13150
X22800Y13800
X22680Y14470
X22600Y15050
X23750Y14200
X24800Y14300
X24750Y15000
X24540Y15370
X24570Y16230
X25700Y17050
X24480Y17770
X24120Y18130
X23500Y17550
X23310Y17150
X22900Y18180
X23510Y18760
X23500Y19180
X24090Y18760
X24920Y18900
X25290Y18470
X25840Y18860
X26150Y19250
X26150Y19700
X26600Y19650
X27100Y19550
X27550Y19500
X28290Y19950
X28000Y20500
X28250Y21250
X28990Y21390
X28850Y21950
X28510Y22250
X29750Y22090
X30080Y22400
X31140Y22250
X30750Y20500
X29000Y19850
X28250Y18470
X27700Y18350
X27400Y18000
X28300Y17900
X27530Y17120
X28250Y17000
X28300Y16050
X28270Y15440
X29250Y15550
X29270Y16190
X30050Y15900
X29420Y16910
X29800Y17150
X29260Y18190
X27120Y20500
X26170Y20480
X26500Y21250
X25700Y21600
X25210Y21250
X24450Y21650
X24900Y21900
X24400Y22250
X23500Y22250
X22780Y21380
X22950Y20800
X24110Y20500
X25060Y20500
X26270Y18470
X25750Y15150
X25750Y14450
X24800Y13500
X25150Y13250
X24800Y12050
X24000Y11250
X23950Y10800
X24750Y10500
X26000Y10750
X26000Y11250
X26000Y12000
X27000Y12800
X27700Y13600
X29250Y14500
X29400Y13850
X29800Y13850
X30200Y13850
X30600Y13850
X31000Y13350
X30600Y12950
X30600Y12550
X30600Y12100
X30200Y12100
X29800Y12100
X29400Y12100
X28000Y12000
X28000Y11250
X28000Y10500
X28000Y8450
X30500Y8000
X19000Y13500
X18000Y12500
X16150Y15050
X19550Y18150
X20450Y19050
X20320Y19610
X21050Y19750
X21490Y20050
X21500Y20500
X20540Y20620
X19750Y20250
X18750Y20500
X18700Y20050
X18250Y19300
X17000Y20450
X17650Y21100
X18400Y21350
X18760Y21030
X19040Y21870
X20000Y22250
X20100Y21750
X18750Y22900
X17250Y22250
X14450Y21750
X14250Y22250
X13600Y21500
X12450Y20950
X12100Y20600
X11050Y20150
X10300Y20150
X11450Y21650
X11900Y21600
X13500Y23250
X9750Y23250
X9750Y23750
X9000Y24250
X6500Y19750
X8500Y18000
X9000Y16650
X10900Y16750
X10450Y13950
X14900Y19000
X21690Y19200
X13450Y33800
X17500Y32750
X17500Y31500
X21000Y33250
X22000Y33250
X22000Y34250
X22000Y35000
X23000Y35000
X22750Y35850
X22300Y36150
X22800Y36800
X22680Y37470
X22600Y38050
X23750Y37200
X24800Y37300
X24750Y38000
X24540Y38370
X24570Y39230
X25700Y40050
X24480Y40770
X24120Y41130
X23500Y40550
X23310Y40150
X22900Y41180
X23510Y41760
X23500Y42180
X24090Y41760
X24920Y41900
X25290Y41470
X25840Y41860
X26150Y42250
X26150Y42700
X26600Y42650
X27100Y42550
X27550Y42500
X28290Y42950
X28000Y43500
X28250Y44250
X28990Y44390
X28850Y44950
X28510Y45250
X29750Y45090
X30080Y45400
X31140Y45250
X30750Y43500
X29000Y42850
X28250Y41470
X27700Y41350
X27400Y41000
X28300Y40900
X27530Y40120
X28250Y40000
X28300Y39050
X28270Y38440
X29250Y38550
X29270Y39190
X30050Y38900
X29420Y39910
X29800Y40150
X29260Y41190
X27120Y43500
X26170Y43480
X26500Y44250
X25700Y44600
X25210Y44250
X24450Y44650
X24900Y44900
X24400Y45250
X23500Y45250
X22780Y44380
X22950Y43800
X24110Y43500
X25060Y43500
X26270Y41470
X25750Y38150
X25750Y37450
X24800Y36500
X25150Y36250
X24800Y35050
X24000Y34250
X23950Y33800
X24750Y33500
X26000Y33750
X26000Y34250
X26000Y35000
X27000Y35800
X27700Y36600
X29250Y37500
X29400Y36850
X29800Y36850
X30200Y36850
X30600Y36850
X31000Y36350
X30600Y35950
X30600Y35550
X30600Y35100
X30200Y35100
X29800Y35100
X29400Y35100
X28000Y35000
X28000Y34250
X28000Y33500
X28000Y31450
X30500Y31000
X19000Y36500
X18000Y35500
X16150Y38050
X19550Y41150
X20450Y42050
X20320Y42610
X21050Y42750
X21490Y43050
X21500Y43500
X20540Y43620
X19750Y43250
X18750Y43500
X18700Y43050
X18250Y42300
X17000Y43450
X17650Y44100
X18400Y44350
X18760Y44030
X19040Y44870
X20000Y45250
X20100Y44750
X18750Y45900
X17250Y45250
X14450Y44750
X14250Y45250
X13600Y44500
X12450Y43950
X12100Y43600
X11050Y43150
X10300Y43150
X11450Y44650
X11900Y44600
X13500Y46250
X9750Y46250
X9750Y46750
X9000Y47250
X6500Y42750
X8500Y41000
X9000Y39650
X10900Y39750
X10450Y36950
X14900Y42000
X21690Y42200
X42450Y10800
X46500Y9750
X46500Y8500
X50000Y10250
X51000Y10250
X51000Y11250
X51000Y12000
X52000Y12000
X51750Y12850
X51300Y13150
X51800Y13800
X51680Y14470
X51600Y15050
X52750Y14200
X53800Y14300
X53750Y15000
X53540Y15370
X53570Y16230
X54700Y17050
X53480Y17770
X53120Y18130
X52500Y17550
X52310Y17150
X51900Y18180
X52510Y18760
X52500Y19180
X53090Y18760
X53920Y18900
X54290Y18470
X54840Y18860
X55150Y19250
X55150Y19700
X55600Y19650
X56100Y19550
X56550Y19500
X57290Y19950
X57000Y20500
X57250Y21250
X57990Y21390
X57850Y21950
X57510Y22250
X58750Y22090
X59080Y22400
X60140Y22250
X59750Y20500
X58000Y19850
X57250Y18470
X56700Y18350
X56400Y18000
X57300Y17900
X56530Y17120
X57250Y17000
X57300Y16050
X57270Y15440
X58250Y15550
X58270Y16190
X59050Y15900
X58420Y16910
X58800Y17150
X58260Y18190
X56120Y20500
X55170Y20480
X55500Y21250
X54700Y21600
X54210Y21250
X53450Y21650
X53900Y21900
X53400Y22250
X52500Y22250
X51780Y21380
X51950Y20800
X53110Y20500
X54060Y20500
X55270Y18470
X54750Y15150
X54750Y14450
X53800Y13500
X54150Y13250
X53800Y12050
X53000Y11250
X52950Y10800
X53750Y10500
X55000Y10750
X55000Y11250
X55000Y12000
X56000Y12800
X56700Y13600
X58250Y14500
X58400Y13850
X58800Y13850
X59200Y13850
X59600Y13850
X60000Y13350
X59600Y12950
X59600Y12550
X59600Y12100
X59200Y12100
X58800Y12100
X58400Y12100
X57000Y12000
X57000Y11250
X57000Y10500
X57000Y8450
X59500Y8000
X48000Y13500
X47000Y12500
X45150Y15050
X48550Y18150
X49450Y19050
X49320Y19610
X50050Y19750
X50490Y20050
X50500Y20500
X49540Y20620
X48750Y20250
X47750Y20500
X47700Y20050
X47250Y19300
X46000Y20450
X46650Y21100
X47400Y21350
X47760Y21030
X48040Y21870
X49000Y22250
X49100Y21750
X47750Y22900
X46250Y22250
X43450Y21750
X43250Y22250
X42600Y21500
X41450Y20950
X41100Y20600
X40050Y20150
X39300Y20150
X40450Y21650
X40900Y21600
X42500Y23250
X38750Y23250
X38750Y23750
X38000Y24250
X35500Y19750
X37500Y18000
X38000Y16650
X39900Y16750
X39450Y13950
X43900Y19000
X50690Y19200
X42450Y33800
X46500Y32750
X46500Y31500
X50000Y33250
X51000Y33250
X51000Y34250
X51000Y35000
X52000Y35000
X51750Y35850
X51300Y36150
X51800Y36800
X51680Y37470
X51600Y38050
X52750Y37200
X53800Y37300
X53750Y38000
X53540Y38370
X53570Y39230
X54700Y40050
X53480Y40770
X53120Y41130
X52500Y40550
X52310Y40150
X51900Y41180
X52510Y41760
X52500Y42180
X53090Y41760
X53920Y41900
X54290Y41470
X54840Y41860
X55150Y42250
X55150Y42700
X55600Y42650
X56100Y42550
X56550Y42500
X57290Y42950
X57000Y43500
X57250Y44250
X57990Y44390
X57850Y44950
X57510Y45250
X58750Y45090
X59080Y45400
X60140Y45250
X59750Y43500
X58000Y42850
X57250Y41470
X56700Y41350
X56400Y41000
X57300Y40900
X56530Y40120
X57250Y40000
X57300Y39050
X57270Y38440
X58250Y38550
X58270Y39190
X59050Y38900
X58420Y39910
X58800Y40150
X58260Y41190
X56120Y43500
X55170Y43480
X55500Y44250
X54700Y44600
X54210Y44250
X53450Y44650
X53900Y44900
X53400Y45250
X52500Y45250
X51780Y44380
X51950Y43800
X53110Y43500
X54060Y43500
X55270Y41470
X54750Y38150
X54750Y37450
X53800Y36500
X54150Y36250
X53800Y35050
X53000Y34250
X52950Y33800
X53750Y33500
X55000Y33750
X55000Y34250
X55000Y35000
X56000Y35800
X56700Y36600
X58250Y37500
X58400Y36850
X58800Y36850
X59200Y36850
X59600Y36850
X60000Y36350
X59600Y35950
X59600Y35550
X59600Y35100
X59200Y35100
X58800Y35100
X58400Y35100
X57000Y35000
X57000Y34250
X57000Y33500
X57000Y31450
X59500Y31000
X48000Y36500
X47000Y35500
X45150Y38050
X48550Y41150
X49450Y42050
X49320Y42610
X50050Y42750
X50490Y43050
X50500Y43500
X49540Y43620
X48750Y43250
X47750Y43500
X47700Y43050
X47250Y42300
X46000Y43450
X46650Y44100
X47400Y44350
X47760Y44030
X48040Y44870
X49000Y45250
X49100Y44750
X47750Y45900
X46250Y45250
X43450Y44750
X43250Y45250
X42600Y44500
X41450Y43950
X41100Y43600
X40050Y43150
X39300Y43150
X40450Y44650
X40900Y44600
X42500Y46250
X38750Y46250
X38750Y46750
X38000Y47250
X35500Y42750
X37500Y41000
X38000Y39650
X39900Y39750
X39450Y36950
X43900Y42000
X50690Y42200
X71450Y10800
X75500Y9750
X75500Y8500
X79000Y10250
X80000Y10250
X80000Y11250
X80000Y12000
X81000Y12000
X80750Y12850
X80300Y13150
X80800Y13800
X80680Y14470
X80600Y15050
X81750Y14200
X82800Y14300
X82750Y15000
X82540Y15370
X82570Y16230
X83700Y17050
X82480Y17770
X82120Y18130
X81500Y17550
X81310Y17150
X80900Y18180
X81510Y18760
X81500Y19180
X82090Y18760
X82920Y18900
X83290Y18470
X83840Y18860
X84150Y19250
X84150Y19700
X84600Y19650
X85100Y19550
X85550Y19500
X86290Y19950
X86000Y20500
X86250Y21250
X86990Y21390
X86850Y21950
X86510Y22250
X87750Y22090
X88080Y22400
X89140Y22250
X88750Y20500
X87000Y19850
X86250Y18470
X85700Y18350
X85400Y18000
X86300Y17900
X85530Y17120
X86250Y17000
X86300Y16050
X86270Y15440
X87250Y15550
X87270Y16190
X88050Y15900
X87420Y16910
X87800Y17150
X87260Y18190
X85120Y20500
X84170Y20480
X84500Y21250
X83700Y21600
X83210Y21250
X82450Y21650
X82900Y21900
X82400Y22250
X81500Y22250
X80780Y21380
X80950Y20800
X82110Y20500
X83060Y20500
X84270Y18470
X83750Y15150
X83750Y14450
X82800Y13500
X83150Y13250
X82800Y12050
X82000Y11250
X81950Y10800
X82750Y10500
X84000Y10750
X84000Y11250
X84000Y12000
X85000Y12800
X85700Y13600
X87250Y14500
X87400Y13850
X87800Y13850
X88200Y13850
X88600Y13850
X89000Y13350
X88600Y12950
X88600Y12550
X88600Y12100
X88200Y12100
X87800Y12100
X87400Y12100
X86000Y12000
X86000Y11250
X86000Y10500
X86000Y8450
X88500Y8000
X77000Y13500
X76000Y12500
X74150Y15050
X77550Y18150
X78450Y19050
X78320Y19610
X79050Y19750
X79490Y20050
X79500Y20500
X78540Y20620
X77750Y20250
X76750Y20500
X76700Y20050
X76250Y19300
X75000Y20450
X75650Y21100
X76400Y21350
X76760Y21030
X77040Y21870
X78000Y22250
X78100Y21750
X76750Y22900
X75250Y22250
X72450Y21750
X72250Y22250
X71600Y21500
X70450Y20950
X70100Y20600
X69050Y20150
X68300Y20150
X69450Y21650
X69900Y21600
X71500Y23250
X67750Y23250
X67750Y23750
X67000Y24250
X64500Y19750
X66500Y18000
X67000Y16650
X68900Y16750
X68450Y13950
X72900Y19000
X79690Y19200
X71450Y33800
X75500Y32750
X75500Y31500
X79000Y33250
X80000Y33250
X80000Y34250
X80000Y35000
X81000Y35000
X80750Y35850
X80300Y36150
X80800Y36800
X80680Y37470
X80600Y38050
X81750Y37200
X82800Y37300
X82750Y38000
X82540Y38370
X82570Y39230
X83700Y40050
X82480Y40770
X82120Y41130
X81500Y40550
X81310Y40150
X80900Y41180
X81510Y41760
X81500Y42180
X82090Y41760
X82920Y41900
X83290Y41470
X83840Y41860
X84150Y42250
X84150Y42700
X84600Y42650
X85100Y42550
X85550Y42500
X86290Y42950
X86000Y43500
X86250Y44250
X86990Y44390
X86850Y44950
X86510Y45250
X87750Y45090
X88080Y45400
X89140Y45250
X88750Y43500
X87000Y42850
X86250Y41470
X85700Y41350
X85400Y41000
X86300Y40900
X85530Y40120
X86250Y40000
X86300Y39050
X86270Y38440
X87250Y38550
X87270Y39190
X88050Y38900
X87420Y39910
X87800Y40150
X87260Y41190
X85120Y43500
X84170Y43480
X84500Y44250
X83700Y44600
X83210Y44250
X82450Y44650
X82900Y44900
X82400Y45250
X81500Y45250
X80780Y44380
X80950Y43800
X82110Y43500
X83060Y43500
X84270Y41470
X83750Y38150
X83750Y37450
X82800Y36500
X83150Y36250
X82800Y35050
X82000Y34250
X81950Y33800
X82750Y33500
X84000Y33750
X84000Y34250
X84000Y35000
X85000Y35800
X85700Y36600
X87250Y37500
X87400Y36850
X87800Y36850
X88200Y36850
X88600Y36850
X89000Y36350
X88600Y35950
X88600Y35550
X88600Y35100
X88200Y35100
X87800Y35100
X87400Y35100
X86000Y35000
X86000Y34250
X86000Y33500
X86000Y31450
X88500Y31000
X77000Y36500
X76000Y35500
X74150Y38050
X77550Y41150
X78450Y42050
X78320Y42610
X79050Y42750
X79490Y43050
X79500Y43500
X78540Y43620
X77750Y43250
X76750Y43500
X76700Y43050
X76250Y42300
X75000Y43450
X75650Y44100
X76400Y44350
X76760Y44030
X77040Y44870
X78000Y45250
X78100Y44750
X76750Y45900
X75250Y45250
X72450Y44750
X72250Y45250
X71600Y44500
X70450Y43950
X70100Y43600
X69050Y43150
X68300Y43150
X69450Y44650
X69900Y44600
X71500Y46250
X67750Y46250
X67750Y46750
X67000Y47250
X64500Y42750
X66500Y41000
X67000Y39650
X68900Y39750
X68450Y36950
X72900Y42000
X79690Y42200
T02C0.023600
X20000Y24250
X12170Y23130
X29760Y21140
X30750Y21000
X30250Y19750
X20000Y47250
X12170Y46130
X29760Y44140
X30750Y44000
X30250Y42750
X49000Y24250
X41170Y23130
X58760Y21140
X59750Y21000
X59250Y19750
X49000Y47250
X41170Y46130
X58760Y44140
X59750Y44000
X59250Y42750
X78000Y24250
X70170Y23130
X87760Y21140
X88750Y21000
X88250Y19750
X78000Y47250
X70170Y46130
X87760Y44140
X88750Y44000
X88250Y42750
T03C0.035400
X8000Y22384
X8000Y24117
X8000Y45384
X8000Y47117
X37000Y22384
X37000Y24117
X37000Y45384
X37000Y47117
X66000Y22384
X66000Y24117
X66000Y45384
X66000Y47117
T04C0.040000
X15400Y26000
X16400Y26000
X17400Y26000
X18400Y26000
X19400Y26000
X20400Y26000
X21400Y26000
X22400Y26000
X24000Y26000
X25000Y26000
X26000Y26000
X27000Y26000
X28000Y26000
X29000Y26000
X30000Y26000
X31000Y26000
X31055Y17981
X32055Y17981
X32055Y16981
X31055Y16981
X31055Y15981
X32055Y15981
X30750Y11000
X29750Y11000
X30000Y7000
X29000Y7000
X28000Y7000
X27000Y7000
X26000Y7000
X24000Y7000
X23000Y7000
X22000Y7000
X21000Y7000
X20000Y7000
X19000Y7000
X31000Y7000
X19400Y24750
X18400Y24750
X17400Y24750
X15400Y49000
X16400Y49000
X17400Y49000
X18400Y49000
X19400Y49000
X20400Y49000
X21400Y49000
X22400Y49000
X24000Y49000
X25000Y49000
X26000Y49000
X27000Y49000
X28000Y49000
X29000Y49000
X30000Y49000
X31000Y49000
X31055Y40981
X32055Y40981
X32055Y39981
X31055Y39981
X31055Y38981
X32055Y38981
X30750Y34000
X29750Y34000
X30000Y30000
X29000Y30000
X28000Y30000
X27000Y30000
X26000Y30000
X24000Y30000
X23000Y30000
X22000Y30000
X21000Y30000
X20000Y30000
X19000Y30000
X31000Y30000
X19400Y47750
X18400Y47750
X17400Y47750
X44400Y26000
X45400Y26000
X46400Y26000
X47400Y26000
X48400Y26000
X49400Y26000
X50400Y26000
X51400Y26000
X53000Y26000
X54000Y26000
X55000Y26000
X56000Y26000
X57000Y26000
X58000Y26000
X59000Y26000
X60000Y26000
X60055Y17981
X61055Y17981
X61055Y16981
X60055Y16981
X60055Y15981
X61055Y15981
X59750Y11000
X58750Y11000
X59000Y7000
X58000Y7000
X57000Y7000
X56000Y7000
X55000Y7000
X53000Y7000
X52000Y7000
X51000Y7000
X50000Y7000
X49000Y7000
X48000Y7000
X60000Y7000
X48400Y24750
X47400Y24750
X46400Y24750
X44400Y49000
X45400Y49000
X46400Y49000
X47400Y49000
X48400Y49000
X49400Y49000
X50400Y49000
X51400Y49000
X53000Y49000
X54000Y49000
X55000Y49000
X56000Y49000
X57000Y49000
X58000Y49000
X59000Y49000
X60000Y49000
X60055Y40981
X61055Y40981
X61055Y39981
X60055Y39981
X60055Y38981
X61055Y38981
X59750Y34000
X58750Y34000
X59000Y30000
X58000Y30000
X57000Y30000
X56000Y30000
X55000Y30000
X53000Y30000
X52000Y30000
X51000Y30000
X50000Y30000
X49000Y30000
X48000Y30000
X60000Y30000
X48400Y47750
X47400Y47750
X46400Y47750
X73400Y26000
X74400Y26000
X75400Y26000
X76400Y26000
X77400Y26000
X78400Y26000
X79400Y26000
X80400Y26000
X82000Y26000
X83000Y26000
X84000Y26000
X85000Y26000
X86000Y26000
X87000Y26000
X88000Y26000
X89000Y26000
X89055Y17981
X90055Y17981
X90055Y16981
X89055Y16981
X89055Y15981
X90055Y15981
X88750Y11000
X87750Y11000
X88000Y7000
X87000Y7000
X86000Y7000
X85000Y7000
X84000Y7000
X82000Y7000
X81000Y7000
X80000Y7000
X79000Y7000
X78000Y7000
X77000Y7000
X89000Y7000
X77400Y24750
X76400Y24750
X75400Y24750
X73400Y49000
X74400Y49000
X75400Y49000
X76400Y49000
X77400Y49000
X78400Y49000
X79400Y49000
X80400Y49000
X82000Y49000
X83000Y49000
X84000Y49000
X85000Y49000
X86000Y49000
X87000Y49000
X88000Y49000
X89000Y49000
X89055Y40981
X90055Y40981
X90055Y39981
X89055Y39981
X89055Y38981
X90055Y38981
X88750Y34000
X87750Y34000
X88000Y30000
X87000Y30000
X86000Y30000
X85000Y30000
X84000Y30000
X82000Y30000
X81000Y30000
X80000Y30000
X79000Y30000
X78000Y30000
X77000Y30000
X89000Y30000
X77400Y47750
X76400Y47750
X75400Y47750
T05C0.110200
X3500Y3500
X92500Y3500
X3500Y52500
X92500Y52500
T06C0.128000
X9420Y7300
X10600Y9270
X8240Y9270
X12000Y26000
X32000Y20000
X32000Y9000
X9420Y30300
X10600Y32270
X8240Y32270
X12000Y49000
X32000Y43000
X32000Y32000
X38420Y7300
X39600Y9270
X37240Y9270
X41000Y26000
X61000Y20000
X61000Y9000
X38420Y30300
X39600Y32270
X37240Y32270
X41000Y49000
X61000Y43000
X61000Y32000
X67420Y7300
X68600Y9270
X66240Y9270
X70000Y26000
X90000Y20000
X90000Y9000
X67420Y30300
X68600Y32270
X66240Y32270
X70000Y49000
X90000Y43000
X90000Y32000
M30
