G75*
G70*
%OFA0B0*%
%FSLAX25Y25*%
%IPPOS*%
%LPD*%
%AMOC8*
5,1,8,0,0,1.08239X$1,22.5*
%
%ADD103R,0.07100X0.07890*%
%ADD11R,0.05330X0.06310*%
%ADD111R,0.03560X0.01780*%
%ADD114R,0.07490X0.03950*%
%ADD115C,0.00460*%
%ADD120R,0.07200X0.07200*%
%ADD132C,0.11820*%
%ADD137R,0.03950X0.02970*%
%ADD14R,0.14970X0.09460*%
%ADD149R,0.09460X0.14970*%
%ADD151R,0.05600X0.09600*%
%ADD152C,0.13400*%
%ADD158R,0.16400X0.06800*%
%ADD17C,0.02000*%
%ADD22R,0.03950X0.03950*%
%ADD29R,0.05130X0.04740*%
%ADD33OC8,0.07200*%
%ADD39R,0.03160X0.09460*%
%ADD43R,0.09600X0.05600*%
%ADD50R,0.16800X0.06800*%
%ADD57R,0.01780X0.03560*%
%ADD58R,0.04700X0.03520*%
%ADD59R,0.08280X0.14190*%
%ADD60R,0.10250X0.10250*%
%ADD62R,0.04740X0.05130*%
%ADD79C,0.06740*%
%ADD87OC8,0.19800*%
%ADD88R,0.02180X0.04740*%
%ADD90R,0.10640X0.02770*%
%ADD91R,0.19500X0.23040*%
%ADD97R,0.02770X0.04340*%
%ADD99R,0.10640X0.08670*%
X0010000Y0010000D02*
G75*
%LPD*%
D132*
X0035000Y0035000D03*
X0925000Y0035000D03*
D17*
X0899000Y0035000D02*
X0899020Y0035200D01*
X0899080Y0035380D01*
X0899170Y0035560D01*
X0899290Y0035710D01*
X0899440Y0035830D01*
X0899620Y0035920D01*
X0899800Y0035980D01*
X0900000Y0036000D01*
X0900200Y0035980D01*
X0900380Y0035920D01*
X0900560Y0035830D01*
X0900710Y0035710D01*
X0900830Y0035560D01*
X0900920Y0035380D01*
X0900980Y0035200D01*
X0901000Y0035000D01*
X0900980Y0034800D01*
X0900920Y0034620D01*
X0900830Y0034440D01*
X0900710Y0034290D01*
X0900560Y0034170D01*
X0900380Y0034080D01*
X0900200Y0034020D01*
X0900000Y0034000D01*
X0899800Y0034020D01*
X0899620Y0034080D01*
X0899440Y0034170D01*
X0899290Y0034290D01*
X0899170Y0034440D01*
X0899080Y0034620D01*
X0899020Y0034800D01*
X0899000Y0035000D01*
X0059000Y0035000D02*
X0059020Y0035200D01*
X0059080Y0035380D01*
X0059170Y0035560D01*
X0059290Y0035710D01*
X0059440Y0035830D01*
X0059620Y0035920D01*
X0059800Y0035980D01*
X0060000Y0036000D01*
X0060200Y0035980D01*
X0060380Y0035920D01*
X0060560Y0035830D01*
X0060710Y0035710D01*
X0060830Y0035560D01*
X0060920Y0035380D01*
X0060980Y0035200D01*
X0061000Y0035000D01*
X0060980Y0034800D01*
X0060920Y0034620D01*
X0060830Y0034440D01*
X0060710Y0034290D01*
X0060560Y0034170D01*
X0060380Y0034080D01*
X0060200Y0034020D01*
X0060000Y0034000D01*
X0059800Y0034020D01*
X0059620Y0034080D01*
X0059440Y0034170D01*
X0059290Y0034290D01*
X0059170Y0034440D01*
X0059080Y0034620D01*
X0059020Y0034800D01*
X0059000Y0035000D01*
X0010000Y0060000D02*
G75*
%LPD*%
X0060000Y0060000D02*
G75*
%LPD*%
D152*
X0120000Y0260000D03*
X0320000Y0200000D03*
X0320000Y0090000D03*
D33*
X0310000Y0070000D03*
X0300000Y0070000D03*
X0290000Y0070000D03*
X0280000Y0070000D03*
X0270000Y0070000D03*
X0240000Y0070000D03*
X0230000Y0070000D03*
X0220000Y0070000D03*
X0210000Y0070000D03*
X0200000Y0070000D03*
X0297500Y0110000D03*
X0310550Y0159810D03*
X0320550Y0159810D03*
X0320550Y0169810D03*
X0310550Y0169810D03*
X0310550Y0179810D03*
X0320550Y0179810D03*
X0300000Y0260000D03*
X0290000Y0260000D03*
X0280000Y0260000D03*
X0270000Y0260000D03*
X0260000Y0260000D03*
X0250000Y0260000D03*
X0240000Y0260000D03*
X0214000Y0260000D03*
X0204000Y0260000D03*
X0194000Y0260000D03*
X0184000Y0260000D03*
X0174000Y0260000D03*
X0164000Y0260000D03*
X0154000Y0260000D03*
X0184000Y0247500D03*
X0194000Y0247500D03*
D29*
X0135340Y0238000D03*
X0128650Y0238000D03*
X0120340Y0238000D03*
X0113650Y0238000D03*
X0116650Y0177500D03*
X0123340Y0177500D03*
X0103340Y0177500D03*
X0096650Y0177500D03*
X0149150Y0152500D03*
X0155840Y0152500D03*
X0185000Y0135850D03*
X0185000Y0129160D03*
X0175000Y0115850D03*
X0175000Y0109160D03*
X0221650Y0155000D03*
X0221650Y0160000D03*
X0228340Y0160000D03*
X0228340Y0155000D03*
X0228340Y0172500D03*
X0221650Y0172500D03*
X0284150Y0132500D03*
X0290840Y0132500D03*
X0290840Y0127500D03*
X0284150Y0127500D03*
X0294150Y0150000D03*
X0300840Y0150000D03*
X0300800Y0179860D03*
X0300800Y0186550D03*
D120*
X0310000Y0260000D03*
X0224000Y0260000D03*
X0174000Y0247500D03*
X0307500Y0110000D03*
X0260000Y0070000D03*
X0190000Y0070000D03*
D103*
X0125510Y0110000D03*
X0114480Y0110000D03*
X0114480Y0122500D03*
X0125510Y0122500D03*
X0125510Y0135000D03*
X0114480Y0135000D03*
D62*
X0116650Y0145000D03*
X0123340Y0145000D03*
X0123340Y0152500D03*
X0116650Y0152500D03*
X0116650Y0185000D03*
X0123340Y0185000D03*
X0149150Y0195000D03*
X0155840Y0195000D03*
X0155840Y0217500D03*
X0149150Y0217500D03*
X0149150Y0232500D03*
X0155840Y0232500D03*
X0232500Y0137850D03*
X0237500Y0137850D03*
X0242500Y0137850D03*
X0242500Y0131160D03*
X0237500Y0131160D03*
X0232500Y0131160D03*
X0175500Y0129160D03*
X0175500Y0135850D03*
X0300750Y0192400D03*
X0307440Y0192400D03*
D22*
X0295450Y0192500D03*
X0295450Y0187500D03*
X0289540Y0187500D03*
X0289540Y0192500D03*
X0182500Y0115460D03*
X0182500Y0109550D03*
X0155450Y0202500D03*
X0149540Y0202500D03*
X0149540Y0210000D03*
X0155450Y0210000D03*
X0155450Y0225000D03*
X0149540Y0225000D03*
D60*
X0125000Y0091170D03*
X0125000Y0073840D03*
D87*
X0094200Y0073000D03*
X0106000Y0092700D03*
X0082400Y0092700D03*
D115*
X0102440Y0192610D02*
X0104280Y0192610D01*
X0102440Y0192610D02*
X0102440Y0198850D01*
X0104280Y0198850D01*
X0104280Y0192610D01*
X0104280Y0193060D02*
X0102440Y0193060D01*
X0102440Y0193510D02*
X0104280Y0193510D01*
X0104280Y0193960D02*
X0102440Y0193960D01*
X0102440Y0194410D02*
X0104280Y0194410D01*
X0104280Y0194860D02*
X0102440Y0194860D01*
X0102440Y0195310D02*
X0104280Y0195310D01*
X0104280Y0195760D02*
X0102440Y0195760D01*
X0102440Y0196210D02*
X0104280Y0196210D01*
X0104280Y0196660D02*
X0102440Y0196660D01*
X0102440Y0197110D02*
X0104280Y0197110D01*
X0104280Y0197560D02*
X0102440Y0197560D01*
X0102440Y0198010D02*
X0104280Y0198010D01*
X0104280Y0198460D02*
X0102440Y0198460D01*
X0105000Y0192610D02*
X0106840Y0192610D01*
X0105000Y0192610D02*
X0105000Y0198850D01*
X0106840Y0198850D01*
X0106840Y0192610D01*
X0106840Y0193060D02*
X0105000Y0193060D01*
X0105000Y0193510D02*
X0106840Y0193510D01*
X0106840Y0193960D02*
X0105000Y0193960D01*
X0105000Y0194410D02*
X0106840Y0194410D01*
X0106840Y0194860D02*
X0105000Y0194860D01*
X0105000Y0195310D02*
X0106840Y0195310D01*
X0106840Y0195760D02*
X0105000Y0195760D01*
X0105000Y0196210D02*
X0106840Y0196210D01*
X0106840Y0196660D02*
X0105000Y0196660D01*
X0105000Y0197110D02*
X0106840Y0197110D01*
X0106840Y0197560D02*
X0105000Y0197560D01*
X0105000Y0198010D02*
X0106840Y0198010D01*
X0106840Y0198460D02*
X0105000Y0198460D01*
X0107560Y0192610D02*
X0109400Y0192610D01*
X0107560Y0192610D02*
X0107560Y0198850D01*
X0109400Y0198850D01*
X0109400Y0192610D01*
X0109400Y0193060D02*
X0107560Y0193060D01*
X0107560Y0193510D02*
X0109400Y0193510D01*
X0109400Y0193960D02*
X0107560Y0193960D01*
X0107560Y0194410D02*
X0109400Y0194410D01*
X0109400Y0194860D02*
X0107560Y0194860D01*
X0107560Y0195310D02*
X0109400Y0195310D01*
X0109400Y0195760D02*
X0107560Y0195760D01*
X0107560Y0196210D02*
X0109400Y0196210D01*
X0109400Y0196660D02*
X0107560Y0196660D01*
X0107560Y0197110D02*
X0109400Y0197110D01*
X0109400Y0197560D02*
X0107560Y0197560D01*
X0107560Y0198010D02*
X0109400Y0198010D01*
X0109400Y0198460D02*
X0107560Y0198460D01*
X0110120Y0192610D02*
X0111960Y0192610D01*
X0110120Y0192610D02*
X0110120Y0198850D01*
X0111960Y0198850D01*
X0111960Y0192610D01*
X0111960Y0193060D02*
X0110120Y0193060D01*
X0110120Y0193510D02*
X0111960Y0193510D01*
X0111960Y0193960D02*
X0110120Y0193960D01*
X0110120Y0194410D02*
X0111960Y0194410D01*
X0111960Y0194860D02*
X0110120Y0194860D01*
X0110120Y0195310D02*
X0111960Y0195310D01*
X0111960Y0195760D02*
X0110120Y0195760D01*
X0110120Y0196210D02*
X0111960Y0196210D01*
X0111960Y0196660D02*
X0110120Y0196660D01*
X0110120Y0197110D02*
X0111960Y0197110D01*
X0111960Y0197560D02*
X0110120Y0197560D01*
X0110120Y0198010D02*
X0111960Y0198010D01*
X0111960Y0198460D02*
X0110120Y0198460D01*
X0112680Y0192610D02*
X0114520Y0192610D01*
X0112680Y0192610D02*
X0112680Y0198850D01*
X0114520Y0198850D01*
X0114520Y0192610D01*
X0114520Y0193060D02*
X0112680Y0193060D01*
X0112680Y0193510D02*
X0114520Y0193510D01*
X0114520Y0193960D02*
X0112680Y0193960D01*
X0112680Y0194410D02*
X0114520Y0194410D01*
X0114520Y0194860D02*
X0112680Y0194860D01*
X0112680Y0195310D02*
X0114520Y0195310D01*
X0114520Y0195760D02*
X0112680Y0195760D01*
X0112680Y0196210D02*
X0114520Y0196210D01*
X0114520Y0196660D02*
X0112680Y0196660D01*
X0112680Y0197110D02*
X0114520Y0197110D01*
X0114520Y0197560D02*
X0112680Y0197560D01*
X0112680Y0198010D02*
X0114520Y0198010D01*
X0114520Y0198460D02*
X0112680Y0198460D01*
X0115240Y0192610D02*
X0117080Y0192610D01*
X0115240Y0192610D02*
X0115240Y0198850D01*
X0117080Y0198850D01*
X0117080Y0192610D01*
X0117080Y0193060D02*
X0115240Y0193060D01*
X0115240Y0193510D02*
X0117080Y0193510D01*
X0117080Y0193960D02*
X0115240Y0193960D01*
X0115240Y0194410D02*
X0117080Y0194410D01*
X0117080Y0194860D02*
X0115240Y0194860D01*
X0115240Y0195310D02*
X0117080Y0195310D01*
X0117080Y0195760D02*
X0115240Y0195760D01*
X0115240Y0196210D02*
X0117080Y0196210D01*
X0117080Y0196660D02*
X0115240Y0196660D01*
X0115240Y0197110D02*
X0117080Y0197110D01*
X0117080Y0197560D02*
X0115240Y0197560D01*
X0115240Y0198010D02*
X0117080Y0198010D01*
X0117080Y0198460D02*
X0115240Y0198460D01*
X0117800Y0192610D02*
X0119640Y0192610D01*
X0117800Y0192610D02*
X0117800Y0198850D01*
X0119640Y0198850D01*
X0119640Y0192610D01*
X0119640Y0193060D02*
X0117800Y0193060D01*
X0117800Y0193510D02*
X0119640Y0193510D01*
X0119640Y0193960D02*
X0117800Y0193960D01*
X0117800Y0194410D02*
X0119640Y0194410D01*
X0119640Y0194860D02*
X0117800Y0194860D01*
X0117800Y0195310D02*
X0119640Y0195310D01*
X0119640Y0195760D02*
X0117800Y0195760D01*
X0117800Y0196210D02*
X0119640Y0196210D01*
X0119640Y0196660D02*
X0117800Y0196660D01*
X0117800Y0197110D02*
X0119640Y0197110D01*
X0119640Y0197560D02*
X0117800Y0197560D01*
X0117800Y0198010D02*
X0119640Y0198010D01*
X0119640Y0198460D02*
X0117800Y0198460D01*
X0120360Y0192610D02*
X0122200Y0192610D01*
X0120360Y0192610D02*
X0120360Y0198850D01*
X0122200Y0198850D01*
X0122200Y0192610D01*
X0122200Y0193060D02*
X0120360Y0193060D01*
X0120360Y0193510D02*
X0122200Y0193510D01*
X0122200Y0193960D02*
X0120360Y0193960D01*
X0120360Y0194410D02*
X0122200Y0194410D01*
X0122200Y0194860D02*
X0120360Y0194860D01*
X0120360Y0195310D02*
X0122200Y0195310D01*
X0122200Y0195760D02*
X0120360Y0195760D01*
X0120360Y0196210D02*
X0122200Y0196210D01*
X0122200Y0196660D02*
X0120360Y0196660D01*
X0120360Y0197110D02*
X0122200Y0197110D01*
X0122200Y0197560D02*
X0120360Y0197560D01*
X0120360Y0198010D02*
X0122200Y0198010D01*
X0122200Y0198460D02*
X0120360Y0198460D01*
X0122910Y0192610D02*
X0124750Y0192610D01*
X0122910Y0192610D02*
X0122910Y0198850D01*
X0124750Y0198850D01*
X0124750Y0192610D01*
X0124750Y0193060D02*
X0122910Y0193060D01*
X0122910Y0193510D02*
X0124750Y0193510D01*
X0124750Y0193960D02*
X0122910Y0193960D01*
X0122910Y0194410D02*
X0124750Y0194410D01*
X0124750Y0194860D02*
X0122910Y0194860D01*
X0122910Y0195310D02*
X0124750Y0195310D01*
X0124750Y0195760D02*
X0122910Y0195760D01*
X0122910Y0196210D02*
X0124750Y0196210D01*
X0124750Y0196660D02*
X0122910Y0196660D01*
X0122910Y0197110D02*
X0124750Y0197110D01*
X0124750Y0197560D02*
X0122910Y0197560D01*
X0122910Y0198010D02*
X0124750Y0198010D01*
X0124750Y0198460D02*
X0122910Y0198460D01*
X0125470Y0192610D02*
X0127310Y0192610D01*
X0125470Y0192610D02*
X0125470Y0198850D01*
X0127310Y0198850D01*
X0127310Y0192610D01*
X0127310Y0193060D02*
X0125470Y0193060D01*
X0125470Y0193510D02*
X0127310Y0193510D01*
X0127310Y0193960D02*
X0125470Y0193960D01*
X0125470Y0194410D02*
X0127310Y0194410D01*
X0127310Y0194860D02*
X0125470Y0194860D01*
X0125470Y0195310D02*
X0127310Y0195310D01*
X0127310Y0195760D02*
X0125470Y0195760D01*
X0125470Y0196210D02*
X0127310Y0196210D01*
X0127310Y0196660D02*
X0125470Y0196660D01*
X0125470Y0197110D02*
X0127310Y0197110D01*
X0127310Y0197560D02*
X0125470Y0197560D01*
X0125470Y0198010D02*
X0127310Y0198010D01*
X0127310Y0198460D02*
X0125470Y0198460D01*
X0128030Y0192610D02*
X0129870Y0192610D01*
X0128030Y0192610D02*
X0128030Y0198850D01*
X0129870Y0198850D01*
X0129870Y0192610D01*
X0129870Y0193060D02*
X0128030Y0193060D01*
X0128030Y0193510D02*
X0129870Y0193510D01*
X0129870Y0193960D02*
X0128030Y0193960D01*
X0128030Y0194410D02*
X0129870Y0194410D01*
X0129870Y0194860D02*
X0128030Y0194860D01*
X0128030Y0195310D02*
X0129870Y0195310D01*
X0129870Y0195760D02*
X0128030Y0195760D01*
X0128030Y0196210D02*
X0129870Y0196210D01*
X0129870Y0196660D02*
X0128030Y0196660D01*
X0128030Y0197110D02*
X0129870Y0197110D01*
X0129870Y0197560D02*
X0128030Y0197560D01*
X0128030Y0198010D02*
X0129870Y0198010D01*
X0129870Y0198460D02*
X0128030Y0198460D01*
X0130590Y0192610D02*
X0132430Y0192610D01*
X0130590Y0192610D02*
X0130590Y0198850D01*
X0132430Y0198850D01*
X0132430Y0192610D01*
X0132430Y0193060D02*
X0130590Y0193060D01*
X0130590Y0193510D02*
X0132430Y0193510D01*
X0132430Y0193960D02*
X0130590Y0193960D01*
X0130590Y0194410D02*
X0132430Y0194410D01*
X0132430Y0194860D02*
X0130590Y0194860D01*
X0130590Y0195310D02*
X0132430Y0195310D01*
X0132430Y0195760D02*
X0130590Y0195760D01*
X0130590Y0196210D02*
X0132430Y0196210D01*
X0132430Y0196660D02*
X0130590Y0196660D01*
X0130590Y0197110D02*
X0132430Y0197110D01*
X0132430Y0197560D02*
X0130590Y0197560D01*
X0130590Y0198010D02*
X0132430Y0198010D01*
X0132430Y0198460D02*
X0130590Y0198460D01*
X0133150Y0192610D02*
X0134990Y0192610D01*
X0133150Y0192610D02*
X0133150Y0198850D01*
X0134990Y0198850D01*
X0134990Y0192610D01*
X0134990Y0193060D02*
X0133150Y0193060D01*
X0133150Y0193510D02*
X0134990Y0193510D01*
X0134990Y0193960D02*
X0133150Y0193960D01*
X0133150Y0194410D02*
X0134990Y0194410D01*
X0134990Y0194860D02*
X0133150Y0194860D01*
X0133150Y0195310D02*
X0134990Y0195310D01*
X0134990Y0195760D02*
X0133150Y0195760D01*
X0133150Y0196210D02*
X0134990Y0196210D01*
X0134990Y0196660D02*
X0133150Y0196660D01*
X0133150Y0197110D02*
X0134990Y0197110D01*
X0134990Y0197560D02*
X0133150Y0197560D01*
X0133150Y0198010D02*
X0134990Y0198010D01*
X0134990Y0198460D02*
X0133150Y0198460D01*
X0135710Y0192610D02*
X0137550Y0192610D01*
X0135710Y0192610D02*
X0135710Y0198850D01*
X0137550Y0198850D01*
X0137550Y0192610D01*
X0137550Y0193060D02*
X0135710Y0193060D01*
X0135710Y0193510D02*
X0137550Y0193510D01*
X0137550Y0193960D02*
X0135710Y0193960D01*
X0135710Y0194410D02*
X0137550Y0194410D01*
X0137550Y0194860D02*
X0135710Y0194860D01*
X0135710Y0195310D02*
X0137550Y0195310D01*
X0137550Y0195760D02*
X0135710Y0195760D01*
X0135710Y0196210D02*
X0137550Y0196210D01*
X0137550Y0196660D02*
X0135710Y0196660D01*
X0135710Y0197110D02*
X0137550Y0197110D01*
X0137550Y0197560D02*
X0135710Y0197560D01*
X0135710Y0198010D02*
X0137550Y0198010D01*
X0137550Y0198460D02*
X0135710Y0198460D01*
X0135710Y0221160D02*
X0137550Y0221160D01*
X0135710Y0221160D02*
X0135710Y0227400D01*
X0137550Y0227400D01*
X0137550Y0221160D01*
X0137550Y0221610D02*
X0135710Y0221610D01*
X0135710Y0222060D02*
X0137550Y0222060D01*
X0137550Y0222510D02*
X0135710Y0222510D01*
X0135710Y0222960D02*
X0137550Y0222960D01*
X0137550Y0223410D02*
X0135710Y0223410D01*
X0135710Y0223860D02*
X0137550Y0223860D01*
X0137550Y0224310D02*
X0135710Y0224310D01*
X0135710Y0224760D02*
X0137550Y0224760D01*
X0137550Y0225210D02*
X0135710Y0225210D01*
X0135710Y0225660D02*
X0137550Y0225660D01*
X0137550Y0226110D02*
X0135710Y0226110D01*
X0135710Y0226560D02*
X0137550Y0226560D01*
X0137550Y0227010D02*
X0135710Y0227010D01*
X0134990Y0221160D02*
X0133150Y0221160D01*
X0133150Y0227400D01*
X0134990Y0227400D01*
X0134990Y0221160D01*
X0134990Y0221610D02*
X0133150Y0221610D01*
X0133150Y0222060D02*
X0134990Y0222060D01*
X0134990Y0222510D02*
X0133150Y0222510D01*
X0133150Y0222960D02*
X0134990Y0222960D01*
X0134990Y0223410D02*
X0133150Y0223410D01*
X0133150Y0223860D02*
X0134990Y0223860D01*
X0134990Y0224310D02*
X0133150Y0224310D01*
X0133150Y0224760D02*
X0134990Y0224760D01*
X0134990Y0225210D02*
X0133150Y0225210D01*
X0133150Y0225660D02*
X0134990Y0225660D01*
X0134990Y0226110D02*
X0133150Y0226110D01*
X0133150Y0226560D02*
X0134990Y0226560D01*
X0134990Y0227010D02*
X0133150Y0227010D01*
X0132430Y0221160D02*
X0130590Y0221160D01*
X0130590Y0227400D01*
X0132430Y0227400D01*
X0132430Y0221160D01*
X0132430Y0221610D02*
X0130590Y0221610D01*
X0130590Y0222060D02*
X0132430Y0222060D01*
X0132430Y0222510D02*
X0130590Y0222510D01*
X0130590Y0222960D02*
X0132430Y0222960D01*
X0132430Y0223410D02*
X0130590Y0223410D01*
X0130590Y0223860D02*
X0132430Y0223860D01*
X0132430Y0224310D02*
X0130590Y0224310D01*
X0130590Y0224760D02*
X0132430Y0224760D01*
X0132430Y0225210D02*
X0130590Y0225210D01*
X0130590Y0225660D02*
X0132430Y0225660D01*
X0132430Y0226110D02*
X0130590Y0226110D01*
X0130590Y0226560D02*
X0132430Y0226560D01*
X0132430Y0227010D02*
X0130590Y0227010D01*
X0129870Y0221160D02*
X0128030Y0221160D01*
X0128030Y0227400D01*
X0129870Y0227400D01*
X0129870Y0221160D01*
X0129870Y0221610D02*
X0128030Y0221610D01*
X0128030Y0222060D02*
X0129870Y0222060D01*
X0129870Y0222510D02*
X0128030Y0222510D01*
X0128030Y0222960D02*
X0129870Y0222960D01*
X0129870Y0223410D02*
X0128030Y0223410D01*
X0128030Y0223860D02*
X0129870Y0223860D01*
X0129870Y0224310D02*
X0128030Y0224310D01*
X0128030Y0224760D02*
X0129870Y0224760D01*
X0129870Y0225210D02*
X0128030Y0225210D01*
X0128030Y0225660D02*
X0129870Y0225660D01*
X0129870Y0226110D02*
X0128030Y0226110D01*
X0128030Y0226560D02*
X0129870Y0226560D01*
X0129870Y0227010D02*
X0128030Y0227010D01*
X0127310Y0221160D02*
X0125470Y0221160D01*
X0125470Y0227400D01*
X0127310Y0227400D01*
X0127310Y0221160D01*
X0127310Y0221610D02*
X0125470Y0221610D01*
X0125470Y0222060D02*
X0127310Y0222060D01*
X0127310Y0222510D02*
X0125470Y0222510D01*
X0125470Y0222960D02*
X0127310Y0222960D01*
X0127310Y0223410D02*
X0125470Y0223410D01*
X0125470Y0223860D02*
X0127310Y0223860D01*
X0127310Y0224310D02*
X0125470Y0224310D01*
X0125470Y0224760D02*
X0127310Y0224760D01*
X0127310Y0225210D02*
X0125470Y0225210D01*
X0125470Y0225660D02*
X0127310Y0225660D01*
X0127310Y0226110D02*
X0125470Y0226110D01*
X0125470Y0226560D02*
X0127310Y0226560D01*
X0127310Y0227010D02*
X0125470Y0227010D01*
X0124750Y0221160D02*
X0122910Y0221160D01*
X0122910Y0227400D01*
X0124750Y0227400D01*
X0124750Y0221160D01*
X0124750Y0221610D02*
X0122910Y0221610D01*
X0122910Y0222060D02*
X0124750Y0222060D01*
X0124750Y0222510D02*
X0122910Y0222510D01*
X0122910Y0222960D02*
X0124750Y0222960D01*
X0124750Y0223410D02*
X0122910Y0223410D01*
X0122910Y0223860D02*
X0124750Y0223860D01*
X0124750Y0224310D02*
X0122910Y0224310D01*
X0122910Y0224760D02*
X0124750Y0224760D01*
X0124750Y0225210D02*
X0122910Y0225210D01*
X0122910Y0225660D02*
X0124750Y0225660D01*
X0124750Y0226110D02*
X0122910Y0226110D01*
X0122910Y0226560D02*
X0124750Y0226560D01*
X0124750Y0227010D02*
X0122910Y0227010D01*
X0122200Y0221160D02*
X0120360Y0221160D01*
X0120360Y0227400D01*
X0122200Y0227400D01*
X0122200Y0221160D01*
X0122200Y0221610D02*
X0120360Y0221610D01*
X0120360Y0222060D02*
X0122200Y0222060D01*
X0122200Y0222510D02*
X0120360Y0222510D01*
X0120360Y0222960D02*
X0122200Y0222960D01*
X0122200Y0223410D02*
X0120360Y0223410D01*
X0120360Y0223860D02*
X0122200Y0223860D01*
X0122200Y0224310D02*
X0120360Y0224310D01*
X0120360Y0224760D02*
X0122200Y0224760D01*
X0122200Y0225210D02*
X0120360Y0225210D01*
X0120360Y0225660D02*
X0122200Y0225660D01*
X0122200Y0226110D02*
X0120360Y0226110D01*
X0120360Y0226560D02*
X0122200Y0226560D01*
X0122200Y0227010D02*
X0120360Y0227010D01*
X0119640Y0221160D02*
X0117800Y0221160D01*
X0117800Y0227400D01*
X0119640Y0227400D01*
X0119640Y0221160D01*
X0119640Y0221610D02*
X0117800Y0221610D01*
X0117800Y0222060D02*
X0119640Y0222060D01*
X0119640Y0222510D02*
X0117800Y0222510D01*
X0117800Y0222960D02*
X0119640Y0222960D01*
X0119640Y0223410D02*
X0117800Y0223410D01*
X0117800Y0223860D02*
X0119640Y0223860D01*
X0119640Y0224310D02*
X0117800Y0224310D01*
X0117800Y0224760D02*
X0119640Y0224760D01*
X0119640Y0225210D02*
X0117800Y0225210D01*
X0117800Y0225660D02*
X0119640Y0225660D01*
X0119640Y0226110D02*
X0117800Y0226110D01*
X0117800Y0226560D02*
X0119640Y0226560D01*
X0119640Y0227010D02*
X0117800Y0227010D01*
X0117080Y0221160D02*
X0115240Y0221160D01*
X0115240Y0227400D01*
X0117080Y0227400D01*
X0117080Y0221160D01*
X0117080Y0221610D02*
X0115240Y0221610D01*
X0115240Y0222060D02*
X0117080Y0222060D01*
X0117080Y0222510D02*
X0115240Y0222510D01*
X0115240Y0222960D02*
X0117080Y0222960D01*
X0117080Y0223410D02*
X0115240Y0223410D01*
X0115240Y0223860D02*
X0117080Y0223860D01*
X0117080Y0224310D02*
X0115240Y0224310D01*
X0115240Y0224760D02*
X0117080Y0224760D01*
X0117080Y0225210D02*
X0115240Y0225210D01*
X0115240Y0225660D02*
X0117080Y0225660D01*
X0117080Y0226110D02*
X0115240Y0226110D01*
X0115240Y0226560D02*
X0117080Y0226560D01*
X0117080Y0227010D02*
X0115240Y0227010D01*
X0114520Y0221160D02*
X0112680Y0221160D01*
X0112680Y0227400D01*
X0114520Y0227400D01*
X0114520Y0221160D01*
X0114520Y0221610D02*
X0112680Y0221610D01*
X0112680Y0222060D02*
X0114520Y0222060D01*
X0114520Y0222510D02*
X0112680Y0222510D01*
X0112680Y0222960D02*
X0114520Y0222960D01*
X0114520Y0223410D02*
X0112680Y0223410D01*
X0112680Y0223860D02*
X0114520Y0223860D01*
X0114520Y0224310D02*
X0112680Y0224310D01*
X0112680Y0224760D02*
X0114520Y0224760D01*
X0114520Y0225210D02*
X0112680Y0225210D01*
X0112680Y0225660D02*
X0114520Y0225660D01*
X0114520Y0226110D02*
X0112680Y0226110D01*
X0112680Y0226560D02*
X0114520Y0226560D01*
X0114520Y0227010D02*
X0112680Y0227010D01*
X0111960Y0221160D02*
X0110120Y0221160D01*
X0110120Y0227400D01*
X0111960Y0227400D01*
X0111960Y0221160D01*
X0111960Y0221610D02*
X0110120Y0221610D01*
X0110120Y0222060D02*
X0111960Y0222060D01*
X0111960Y0222510D02*
X0110120Y0222510D01*
X0110120Y0222960D02*
X0111960Y0222960D01*
X0111960Y0223410D02*
X0110120Y0223410D01*
X0110120Y0223860D02*
X0111960Y0223860D01*
X0111960Y0224310D02*
X0110120Y0224310D01*
X0110120Y0224760D02*
X0111960Y0224760D01*
X0111960Y0225210D02*
X0110120Y0225210D01*
X0110120Y0225660D02*
X0111960Y0225660D01*
X0111960Y0226110D02*
X0110120Y0226110D01*
X0110120Y0226560D02*
X0111960Y0226560D01*
X0111960Y0227010D02*
X0110120Y0227010D01*
X0109400Y0221160D02*
X0107560Y0221160D01*
X0107560Y0227400D01*
X0109400Y0227400D01*
X0109400Y0221160D01*
X0109400Y0221610D02*
X0107560Y0221610D01*
X0107560Y0222060D02*
X0109400Y0222060D01*
X0109400Y0222510D02*
X0107560Y0222510D01*
X0107560Y0222960D02*
X0109400Y0222960D01*
X0109400Y0223410D02*
X0107560Y0223410D01*
X0107560Y0223860D02*
X0109400Y0223860D01*
X0109400Y0224310D02*
X0107560Y0224310D01*
X0107560Y0224760D02*
X0109400Y0224760D01*
X0109400Y0225210D02*
X0107560Y0225210D01*
X0107560Y0225660D02*
X0109400Y0225660D01*
X0109400Y0226110D02*
X0107560Y0226110D01*
X0107560Y0226560D02*
X0109400Y0226560D01*
X0109400Y0227010D02*
X0107560Y0227010D01*
X0106840Y0221160D02*
X0105000Y0221160D01*
X0105000Y0227400D01*
X0106840Y0227400D01*
X0106840Y0221160D01*
X0106840Y0221610D02*
X0105000Y0221610D01*
X0105000Y0222060D02*
X0106840Y0222060D01*
X0106840Y0222510D02*
X0105000Y0222510D01*
X0105000Y0222960D02*
X0106840Y0222960D01*
X0106840Y0223410D02*
X0105000Y0223410D01*
X0105000Y0223860D02*
X0106840Y0223860D01*
X0106840Y0224310D02*
X0105000Y0224310D01*
X0105000Y0224760D02*
X0106840Y0224760D01*
X0106840Y0225210D02*
X0105000Y0225210D01*
X0105000Y0225660D02*
X0106840Y0225660D01*
X0106840Y0226110D02*
X0105000Y0226110D01*
X0105000Y0226560D02*
X0106840Y0226560D01*
X0106840Y0227010D02*
X0105000Y0227010D01*
X0104280Y0221160D02*
X0102440Y0221160D01*
X0102440Y0227400D01*
X0104280Y0227400D01*
X0104280Y0221160D01*
X0104280Y0221610D02*
X0102440Y0221610D01*
X0102440Y0222060D02*
X0104280Y0222060D01*
X0104280Y0222510D02*
X0102440Y0222510D01*
X0102440Y0222960D02*
X0104280Y0222960D01*
X0104280Y0223410D02*
X0102440Y0223410D01*
X0102440Y0223860D02*
X0104280Y0223860D01*
X0104280Y0224310D02*
X0102440Y0224310D01*
X0102440Y0224760D02*
X0104280Y0224760D01*
X0104280Y0225210D02*
X0102440Y0225210D01*
X0102440Y0225660D02*
X0104280Y0225660D01*
X0104280Y0226110D02*
X0102440Y0226110D01*
X0102440Y0226560D02*
X0104280Y0226560D01*
X0104280Y0227010D02*
X0102440Y0227010D01*
D59*
X0090170Y0197500D03*
X0074820Y0197500D03*
D43*
X0097200Y0169100D03*
X0097200Y0160000D03*
X0097200Y0150900D03*
D149*
X0072800Y0160000D03*
X0072800Y0130000D03*
D39*
X0152500Y0122270D03*
X0157500Y0122270D03*
X0162500Y0122270D03*
X0167500Y0122270D03*
X0167500Y0142740D03*
X0162500Y0142740D03*
X0157500Y0142740D03*
X0152500Y0142740D03*
D43*
X0097200Y0139100D03*
X0097200Y0130000D03*
X0097200Y0120910D03*
D151*
X0148400Y0102210D03*
X0157500Y0102210D03*
X0166590Y0102210D03*
D14*
X0157500Y0077800D03*
D57*
X0255230Y0140180D03*
X0257200Y0140180D03*
X0259170Y0140180D03*
X0261140Y0140180D03*
X0263110Y0140180D03*
X0265070Y0140180D03*
X0267040Y0140180D03*
X0269010Y0140180D03*
X0270980Y0140180D03*
X0272950Y0140180D03*
X0274920Y0140180D03*
X0276890Y0140180D03*
X0278850Y0140180D03*
X0280820Y0140180D03*
X0282790Y0140180D03*
X0284760Y0140180D03*
X0284760Y0174830D03*
X0282790Y0174830D03*
X0280820Y0174830D03*
X0278850Y0174830D03*
X0276890Y0174830D03*
X0274920Y0174830D03*
X0272950Y0174830D03*
X0270980Y0174830D03*
X0269010Y0174830D03*
X0267040Y0174830D03*
X0265070Y0174830D03*
X0263110Y0174830D03*
X0261140Y0174830D03*
X0259170Y0174830D03*
X0257200Y0174830D03*
X0255230Y0174830D03*
D111*
X0252670Y0172270D03*
X0252670Y0170300D03*
X0252670Y0168330D03*
X0252670Y0166360D03*
X0252670Y0164390D03*
X0252670Y0162430D03*
X0252670Y0160460D03*
X0252670Y0158490D03*
X0252670Y0156520D03*
X0252670Y0154550D03*
X0252670Y0152580D03*
X0252670Y0150610D03*
X0252670Y0148650D03*
X0252670Y0146680D03*
X0252670Y0144710D03*
X0252670Y0142740D03*
X0287320Y0142740D03*
X0287320Y0144710D03*
X0287320Y0146680D03*
X0287320Y0148650D03*
X0287320Y0150610D03*
X0287320Y0152580D03*
X0287320Y0154550D03*
X0287320Y0156520D03*
X0287320Y0158490D03*
X0287320Y0160460D03*
X0287320Y0162430D03*
X0287320Y0164390D03*
X0287320Y0166360D03*
X0287320Y0168330D03*
X0287320Y0170300D03*
X0287320Y0172270D03*
D91*
X0270000Y0157500D03*
D88*
X0297440Y0133550D03*
X0300000Y0133550D03*
X0302560Y0133550D03*
X0302560Y0126460D03*
X0300000Y0126460D03*
X0297440Y0126460D03*
D50*
D158*
X0321800Y0123500D03*
D50*
D158*
X0321800Y0133500D03*
D50*
D158*
X0321800Y0143500D03*
D50*
D11*
X0240650Y0151600D03*
X0234350Y0151600D03*
X0234350Y0163410D03*
X0240650Y0163410D03*
D99*
X0089840Y0215180D03*
X0068190Y0214790D03*
X0068190Y0250220D03*
X0089840Y0250220D03*
D90*
X0089840Y0238800D03*
X0089840Y0235650D03*
X0089840Y0232500D03*
X0089840Y0229360D03*
X0089840Y0226210D03*
D79*
X0080000Y0223840D03*
X0080000Y0241170D03*
D137*
X0167770Y0226240D03*
X0167770Y0222500D03*
X0167770Y0218760D03*
X0177220Y0218760D03*
X0177220Y0222500D03*
X0177220Y0226240D03*
X0182770Y0208740D03*
X0182770Y0205000D03*
X0182770Y0201260D03*
X0192220Y0201260D03*
X0192220Y0205000D03*
X0192220Y0208740D03*
X0210270Y0208740D03*
X0210270Y0205000D03*
X0210270Y0201260D03*
X0219720Y0201260D03*
X0219720Y0205000D03*
X0219720Y0208740D03*
X0230270Y0218760D03*
X0230270Y0222500D03*
X0230270Y0226240D03*
X0239720Y0226240D03*
X0239720Y0222500D03*
X0239720Y0218760D03*
X0237770Y0208740D03*
X0237770Y0205000D03*
X0237770Y0201260D03*
X0247220Y0201260D03*
X0247220Y0205000D03*
X0247220Y0208740D03*
X0265270Y0208740D03*
X0265270Y0205000D03*
X0265270Y0201260D03*
X0274720Y0201260D03*
X0274720Y0205000D03*
X0274720Y0208740D03*
X0292770Y0208740D03*
X0292770Y0205000D03*
X0292770Y0201260D03*
X0302220Y0201260D03*
X0302220Y0205000D03*
X0302220Y0208740D03*
X0305270Y0218760D03*
X0305270Y0222500D03*
X0305270Y0226240D03*
X0314720Y0226240D03*
X0314720Y0222500D03*
X0314720Y0218760D03*
X0284720Y0116240D03*
X0284720Y0112500D03*
X0284720Y0108760D03*
X0275270Y0108760D03*
X0275270Y0112500D03*
X0275270Y0116240D03*
X0264720Y0116240D03*
X0264720Y0112500D03*
X0264720Y0108760D03*
X0255270Y0108760D03*
X0255270Y0112500D03*
X0255270Y0116240D03*
X0244720Y0116240D03*
X0244720Y0112500D03*
X0244720Y0108760D03*
X0235270Y0108760D03*
X0235270Y0112500D03*
X0235270Y0116240D03*
X0224720Y0116240D03*
X0224720Y0112500D03*
X0224720Y0108760D03*
X0215270Y0108760D03*
X0215270Y0112500D03*
X0215270Y0116240D03*
D58*
X0150110Y0166260D03*
X0150110Y0173740D03*
X0139920Y0173740D03*
X0139920Y0170000D03*
X0139920Y0166260D03*
D114*
X0177500Y0160810D03*
X0177500Y0174200D03*
D97*
X0202770Y0229360D03*
X0205920Y0229360D03*
X0209070Y0229360D03*
X0212220Y0229360D03*
X0212220Y0235650D03*
X0209070Y0235650D03*
X0205920Y0235650D03*
X0202770Y0235650D03*
X0220270Y0234360D03*
X0223420Y0234360D03*
X0226570Y0234360D03*
X0229720Y0234360D03*
X0229720Y0240650D03*
X0226570Y0240650D03*
X0223420Y0240650D03*
X0220270Y0240650D03*
X0250270Y0238150D03*
X0253420Y0238150D03*
X0256570Y0238150D03*
X0259720Y0238150D03*
X0259720Y0231860D03*
X0256570Y0231860D03*
X0253420Y0231860D03*
X0250270Y0231860D03*
X0277770Y0231860D03*
X0280920Y0231860D03*
X0284070Y0231860D03*
X0287220Y0231860D03*
X0287220Y0238150D03*
X0284070Y0238150D03*
X0280920Y0238150D03*
X0277770Y0238150D03*
X0267220Y0100650D03*
X0264070Y0100650D03*
X0260920Y0100650D03*
X0257770Y0100650D03*
X0257770Y0094360D03*
X0260920Y0094360D03*
X0264070Y0094360D03*
X0267220Y0094360D03*
X0249720Y0095650D03*
X0246570Y0095650D03*
X0243420Y0095650D03*
X0240270Y0095650D03*
X0240270Y0089360D03*
X0243420Y0089360D03*
X0246570Y0089360D03*
X0249720Y0089360D03*
X0060000Y0270000D02*
G75*
%LPD*%
X0060000Y0290000D02*
G75*
%LPD*%
D152*
X0120000Y0490000D03*
X0320000Y0430000D03*
X0320000Y0320000D03*
D33*
X0310000Y0300000D03*
X0300000Y0300000D03*
X0290000Y0300000D03*
X0280000Y0300000D03*
X0270000Y0300000D03*
X0240000Y0300000D03*
X0230000Y0300000D03*
X0220000Y0300000D03*
X0210000Y0300000D03*
X0200000Y0300000D03*
X0297500Y0340000D03*
X0310550Y0389810D03*
X0320550Y0389810D03*
X0320550Y0399810D03*
X0310550Y0399810D03*
X0310550Y0409810D03*
X0320550Y0409810D03*
X0300000Y0490000D03*
X0290000Y0490000D03*
X0280000Y0490000D03*
X0270000Y0490000D03*
X0260000Y0490000D03*
X0250000Y0490000D03*
X0240000Y0490000D03*
X0214000Y0490000D03*
X0204000Y0490000D03*
X0194000Y0490000D03*
X0184000Y0490000D03*
X0174000Y0490000D03*
X0164000Y0490000D03*
X0154000Y0490000D03*
X0184000Y0477500D03*
X0194000Y0477500D03*
D29*
X0135340Y0468000D03*
X0128650Y0468000D03*
X0120340Y0468000D03*
X0113650Y0468000D03*
X0116650Y0407500D03*
X0123340Y0407500D03*
X0103340Y0407500D03*
X0096650Y0407500D03*
X0149150Y0382500D03*
X0155840Y0382500D03*
X0185000Y0365850D03*
X0185000Y0359160D03*
X0175000Y0345850D03*
X0175000Y0339160D03*
X0221650Y0385000D03*
X0221650Y0390000D03*
X0228340Y0390000D03*
X0228340Y0385000D03*
X0228340Y0402500D03*
X0221650Y0402500D03*
X0284150Y0362500D03*
X0290840Y0362500D03*
X0290840Y0357500D03*
X0284150Y0357500D03*
X0294150Y0380000D03*
X0300840Y0380000D03*
X0300800Y0409860D03*
X0300800Y0416550D03*
D120*
X0310000Y0490000D03*
X0224000Y0490000D03*
X0174000Y0477500D03*
X0307500Y0340000D03*
X0260000Y0300000D03*
X0190000Y0300000D03*
D103*
X0125510Y0340000D03*
X0114480Y0340000D03*
X0114480Y0352500D03*
X0125510Y0352500D03*
X0125510Y0365000D03*
X0114480Y0365000D03*
D62*
X0116650Y0375000D03*
X0123340Y0375000D03*
X0123340Y0382500D03*
X0116650Y0382500D03*
X0116650Y0415000D03*
X0123340Y0415000D03*
X0149150Y0425000D03*
X0155840Y0425000D03*
X0155840Y0447500D03*
X0149150Y0447500D03*
X0149150Y0462500D03*
X0155840Y0462500D03*
X0232500Y0367850D03*
X0237500Y0367850D03*
X0242500Y0367850D03*
X0242500Y0361160D03*
X0237500Y0361160D03*
X0232500Y0361160D03*
X0175500Y0359160D03*
X0175500Y0365850D03*
X0300750Y0422400D03*
X0307440Y0422400D03*
D22*
X0295450Y0422500D03*
X0295450Y0417500D03*
X0289540Y0417500D03*
X0289540Y0422500D03*
X0182500Y0345460D03*
X0182500Y0339550D03*
X0155450Y0432500D03*
X0149540Y0432500D03*
X0149540Y0440000D03*
X0155450Y0440000D03*
X0155450Y0455000D03*
X0149540Y0455000D03*
D60*
X0125000Y0321170D03*
X0125000Y0303840D03*
D87*
X0094200Y0303000D03*
X0106000Y0322700D03*
X0082400Y0322700D03*
D115*
X0102440Y0422610D02*
X0104280Y0422610D01*
X0102440Y0422610D02*
X0102440Y0428850D01*
X0104280Y0428850D01*
X0104280Y0422610D01*
X0104280Y0423060D02*
X0102440Y0423060D01*
X0102440Y0423510D02*
X0104280Y0423510D01*
X0104280Y0423960D02*
X0102440Y0423960D01*
X0102440Y0424410D02*
X0104280Y0424410D01*
X0104280Y0424860D02*
X0102440Y0424860D01*
X0102440Y0425310D02*
X0104280Y0425310D01*
X0104280Y0425760D02*
X0102440Y0425760D01*
X0102440Y0426210D02*
X0104280Y0426210D01*
X0104280Y0426660D02*
X0102440Y0426660D01*
X0102440Y0427110D02*
X0104280Y0427110D01*
X0104280Y0427560D02*
X0102440Y0427560D01*
X0102440Y0428010D02*
X0104280Y0428010D01*
X0104280Y0428460D02*
X0102440Y0428460D01*
X0105000Y0422610D02*
X0106840Y0422610D01*
X0105000Y0422610D02*
X0105000Y0428850D01*
X0106840Y0428850D01*
X0106840Y0422610D01*
X0106840Y0423060D02*
X0105000Y0423060D01*
X0105000Y0423510D02*
X0106840Y0423510D01*
X0106840Y0423960D02*
X0105000Y0423960D01*
X0105000Y0424410D02*
X0106840Y0424410D01*
X0106840Y0424860D02*
X0105000Y0424860D01*
X0105000Y0425310D02*
X0106840Y0425310D01*
X0106840Y0425760D02*
X0105000Y0425760D01*
X0105000Y0426210D02*
X0106840Y0426210D01*
X0106840Y0426660D02*
X0105000Y0426660D01*
X0105000Y0427110D02*
X0106840Y0427110D01*
X0106840Y0427560D02*
X0105000Y0427560D01*
X0105000Y0428010D02*
X0106840Y0428010D01*
X0106840Y0428460D02*
X0105000Y0428460D01*
X0107560Y0422610D02*
X0109400Y0422610D01*
X0107560Y0422610D02*
X0107560Y0428850D01*
X0109400Y0428850D01*
X0109400Y0422610D01*
X0109400Y0423060D02*
X0107560Y0423060D01*
X0107560Y0423510D02*
X0109400Y0423510D01*
X0109400Y0423960D02*
X0107560Y0423960D01*
X0107560Y0424410D02*
X0109400Y0424410D01*
X0109400Y0424860D02*
X0107560Y0424860D01*
X0107560Y0425310D02*
X0109400Y0425310D01*
X0109400Y0425760D02*
X0107560Y0425760D01*
X0107560Y0426210D02*
X0109400Y0426210D01*
X0109400Y0426660D02*
X0107560Y0426660D01*
X0107560Y0427110D02*
X0109400Y0427110D01*
X0109400Y0427560D02*
X0107560Y0427560D01*
X0107560Y0428010D02*
X0109400Y0428010D01*
X0109400Y0428460D02*
X0107560Y0428460D01*
X0110120Y0422610D02*
X0111960Y0422610D01*
X0110120Y0422610D02*
X0110120Y0428850D01*
X0111960Y0428850D01*
X0111960Y0422610D01*
X0111960Y0423060D02*
X0110120Y0423060D01*
X0110120Y0423510D02*
X0111960Y0423510D01*
X0111960Y0423960D02*
X0110120Y0423960D01*
X0110120Y0424410D02*
X0111960Y0424410D01*
X0111960Y0424860D02*
X0110120Y0424860D01*
X0110120Y0425310D02*
X0111960Y0425310D01*
X0111960Y0425760D02*
X0110120Y0425760D01*
X0110120Y0426210D02*
X0111960Y0426210D01*
X0111960Y0426660D02*
X0110120Y0426660D01*
X0110120Y0427110D02*
X0111960Y0427110D01*
X0111960Y0427560D02*
X0110120Y0427560D01*
X0110120Y0428010D02*
X0111960Y0428010D01*
X0111960Y0428460D02*
X0110120Y0428460D01*
X0112680Y0422610D02*
X0114520Y0422610D01*
X0112680Y0422610D02*
X0112680Y0428850D01*
X0114520Y0428850D01*
X0114520Y0422610D01*
X0114520Y0423060D02*
X0112680Y0423060D01*
X0112680Y0423510D02*
X0114520Y0423510D01*
X0114520Y0423960D02*
X0112680Y0423960D01*
X0112680Y0424410D02*
X0114520Y0424410D01*
X0114520Y0424860D02*
X0112680Y0424860D01*
X0112680Y0425310D02*
X0114520Y0425310D01*
X0114520Y0425760D02*
X0112680Y0425760D01*
X0112680Y0426210D02*
X0114520Y0426210D01*
X0114520Y0426660D02*
X0112680Y0426660D01*
X0112680Y0427110D02*
X0114520Y0427110D01*
X0114520Y0427560D02*
X0112680Y0427560D01*
X0112680Y0428010D02*
X0114520Y0428010D01*
X0114520Y0428460D02*
X0112680Y0428460D01*
X0115240Y0422610D02*
X0117080Y0422610D01*
X0115240Y0422610D02*
X0115240Y0428850D01*
X0117080Y0428850D01*
X0117080Y0422610D01*
X0117080Y0423060D02*
X0115240Y0423060D01*
X0115240Y0423510D02*
X0117080Y0423510D01*
X0117080Y0423960D02*
X0115240Y0423960D01*
X0115240Y0424410D02*
X0117080Y0424410D01*
X0117080Y0424860D02*
X0115240Y0424860D01*
X0115240Y0425310D02*
X0117080Y0425310D01*
X0117080Y0425760D02*
X0115240Y0425760D01*
X0115240Y0426210D02*
X0117080Y0426210D01*
X0117080Y0426660D02*
X0115240Y0426660D01*
X0115240Y0427110D02*
X0117080Y0427110D01*
X0117080Y0427560D02*
X0115240Y0427560D01*
X0115240Y0428010D02*
X0117080Y0428010D01*
X0117080Y0428460D02*
X0115240Y0428460D01*
X0117800Y0422610D02*
X0119640Y0422610D01*
X0117800Y0422610D02*
X0117800Y0428850D01*
X0119640Y0428850D01*
X0119640Y0422610D01*
X0119640Y0423060D02*
X0117800Y0423060D01*
X0117800Y0423510D02*
X0119640Y0423510D01*
X0119640Y0423960D02*
X0117800Y0423960D01*
X0117800Y0424410D02*
X0119640Y0424410D01*
X0119640Y0424860D02*
X0117800Y0424860D01*
X0117800Y0425310D02*
X0119640Y0425310D01*
X0119640Y0425760D02*
X0117800Y0425760D01*
X0117800Y0426210D02*
X0119640Y0426210D01*
X0119640Y0426660D02*
X0117800Y0426660D01*
X0117800Y0427110D02*
X0119640Y0427110D01*
X0119640Y0427560D02*
X0117800Y0427560D01*
X0117800Y0428010D02*
X0119640Y0428010D01*
X0119640Y0428460D02*
X0117800Y0428460D01*
X0120360Y0422610D02*
X0122200Y0422610D01*
X0120360Y0422610D02*
X0120360Y0428850D01*
X0122200Y0428850D01*
X0122200Y0422610D01*
X0122200Y0423060D02*
X0120360Y0423060D01*
X0120360Y0423510D02*
X0122200Y0423510D01*
X0122200Y0423960D02*
X0120360Y0423960D01*
X0120360Y0424410D02*
X0122200Y0424410D01*
X0122200Y0424860D02*
X0120360Y0424860D01*
X0120360Y0425310D02*
X0122200Y0425310D01*
X0122200Y0425760D02*
X0120360Y0425760D01*
X0120360Y0426210D02*
X0122200Y0426210D01*
X0122200Y0426660D02*
X0120360Y0426660D01*
X0120360Y0427110D02*
X0122200Y0427110D01*
X0122200Y0427560D02*
X0120360Y0427560D01*
X0120360Y0428010D02*
X0122200Y0428010D01*
X0122200Y0428460D02*
X0120360Y0428460D01*
X0122910Y0422610D02*
X0124750Y0422610D01*
X0122910Y0422610D02*
X0122910Y0428850D01*
X0124750Y0428850D01*
X0124750Y0422610D01*
X0124750Y0423060D02*
X0122910Y0423060D01*
X0122910Y0423510D02*
X0124750Y0423510D01*
X0124750Y0423960D02*
X0122910Y0423960D01*
X0122910Y0424410D02*
X0124750Y0424410D01*
X0124750Y0424860D02*
X0122910Y0424860D01*
X0122910Y0425310D02*
X0124750Y0425310D01*
X0124750Y0425760D02*
X0122910Y0425760D01*
X0122910Y0426210D02*
X0124750Y0426210D01*
X0124750Y0426660D02*
X0122910Y0426660D01*
X0122910Y0427110D02*
X0124750Y0427110D01*
X0124750Y0427560D02*
X0122910Y0427560D01*
X0122910Y0428010D02*
X0124750Y0428010D01*
X0124750Y0428460D02*
X0122910Y0428460D01*
X0125470Y0422610D02*
X0127310Y0422610D01*
X0125470Y0422610D02*
X0125470Y0428850D01*
X0127310Y0428850D01*
X0127310Y0422610D01*
X0127310Y0423060D02*
X0125470Y0423060D01*
X0125470Y0423510D02*
X0127310Y0423510D01*
X0127310Y0423960D02*
X0125470Y0423960D01*
X0125470Y0424410D02*
X0127310Y0424410D01*
X0127310Y0424860D02*
X0125470Y0424860D01*
X0125470Y0425310D02*
X0127310Y0425310D01*
X0127310Y0425760D02*
X0125470Y0425760D01*
X0125470Y0426210D02*
X0127310Y0426210D01*
X0127310Y0426660D02*
X0125470Y0426660D01*
X0125470Y0427110D02*
X0127310Y0427110D01*
X0127310Y0427560D02*
X0125470Y0427560D01*
X0125470Y0428010D02*
X0127310Y0428010D01*
X0127310Y0428460D02*
X0125470Y0428460D01*
X0128030Y0422610D02*
X0129870Y0422610D01*
X0128030Y0422610D02*
X0128030Y0428850D01*
X0129870Y0428850D01*
X0129870Y0422610D01*
X0129870Y0423060D02*
X0128030Y0423060D01*
X0128030Y0423510D02*
X0129870Y0423510D01*
X0129870Y0423960D02*
X0128030Y0423960D01*
X0128030Y0424410D02*
X0129870Y0424410D01*
X0129870Y0424860D02*
X0128030Y0424860D01*
X0128030Y0425310D02*
X0129870Y0425310D01*
X0129870Y0425760D02*
X0128030Y0425760D01*
X0128030Y0426210D02*
X0129870Y0426210D01*
X0129870Y0426660D02*
X0128030Y0426660D01*
X0128030Y0427110D02*
X0129870Y0427110D01*
X0129870Y0427560D02*
X0128030Y0427560D01*
X0128030Y0428010D02*
X0129870Y0428010D01*
X0129870Y0428460D02*
X0128030Y0428460D01*
X0130590Y0422610D02*
X0132430Y0422610D01*
X0130590Y0422610D02*
X0130590Y0428850D01*
X0132430Y0428850D01*
X0132430Y0422610D01*
X0132430Y0423060D02*
X0130590Y0423060D01*
X0130590Y0423510D02*
X0132430Y0423510D01*
X0132430Y0423960D02*
X0130590Y0423960D01*
X0130590Y0424410D02*
X0132430Y0424410D01*
X0132430Y0424860D02*
X0130590Y0424860D01*
X0130590Y0425310D02*
X0132430Y0425310D01*
X0132430Y0425760D02*
X0130590Y0425760D01*
X0130590Y0426210D02*
X0132430Y0426210D01*
X0132430Y0426660D02*
X0130590Y0426660D01*
X0130590Y0427110D02*
X0132430Y0427110D01*
X0132430Y0427560D02*
X0130590Y0427560D01*
X0130590Y0428010D02*
X0132430Y0428010D01*
X0132430Y0428460D02*
X0130590Y0428460D01*
X0133150Y0422610D02*
X0134990Y0422610D01*
X0133150Y0422610D02*
X0133150Y0428850D01*
X0134990Y0428850D01*
X0134990Y0422610D01*
X0134990Y0423060D02*
X0133150Y0423060D01*
X0133150Y0423510D02*
X0134990Y0423510D01*
X0134990Y0423960D02*
X0133150Y0423960D01*
X0133150Y0424410D02*
X0134990Y0424410D01*
X0134990Y0424860D02*
X0133150Y0424860D01*
X0133150Y0425310D02*
X0134990Y0425310D01*
X0134990Y0425760D02*
X0133150Y0425760D01*
X0133150Y0426210D02*
X0134990Y0426210D01*
X0134990Y0426660D02*
X0133150Y0426660D01*
X0133150Y0427110D02*
X0134990Y0427110D01*
X0134990Y0427560D02*
X0133150Y0427560D01*
X0133150Y0428010D02*
X0134990Y0428010D01*
X0134990Y0428460D02*
X0133150Y0428460D01*
X0135710Y0422610D02*
X0137550Y0422610D01*
X0135710Y0422610D02*
X0135710Y0428850D01*
X0137550Y0428850D01*
X0137550Y0422610D01*
X0137550Y0423060D02*
X0135710Y0423060D01*
X0135710Y0423510D02*
X0137550Y0423510D01*
X0137550Y0423960D02*
X0135710Y0423960D01*
X0135710Y0424410D02*
X0137550Y0424410D01*
X0137550Y0424860D02*
X0135710Y0424860D01*
X0135710Y0425310D02*
X0137550Y0425310D01*
X0137550Y0425760D02*
X0135710Y0425760D01*
X0135710Y0426210D02*
X0137550Y0426210D01*
X0137550Y0426660D02*
X0135710Y0426660D01*
X0135710Y0427110D02*
X0137550Y0427110D01*
X0137550Y0427560D02*
X0135710Y0427560D01*
X0135710Y0428010D02*
X0137550Y0428010D01*
X0137550Y0428460D02*
X0135710Y0428460D01*
X0135710Y0451160D02*
X0137550Y0451160D01*
X0135710Y0451160D02*
X0135710Y0457400D01*
X0137550Y0457400D01*
X0137550Y0451160D01*
X0137550Y0451610D02*
X0135710Y0451610D01*
X0135710Y0452060D02*
X0137550Y0452060D01*
X0137550Y0452510D02*
X0135710Y0452510D01*
X0135710Y0452960D02*
X0137550Y0452960D01*
X0137550Y0453410D02*
X0135710Y0453410D01*
X0135710Y0453860D02*
X0137550Y0453860D01*
X0137550Y0454310D02*
X0135710Y0454310D01*
X0135710Y0454760D02*
X0137550Y0454760D01*
X0137550Y0455210D02*
X0135710Y0455210D01*
X0135710Y0455660D02*
X0137550Y0455660D01*
X0137550Y0456110D02*
X0135710Y0456110D01*
X0135710Y0456560D02*
X0137550Y0456560D01*
X0137550Y0457010D02*
X0135710Y0457010D01*
X0134990Y0451160D02*
X0133150Y0451160D01*
X0133150Y0457400D01*
X0134990Y0457400D01*
X0134990Y0451160D01*
X0134990Y0451610D02*
X0133150Y0451610D01*
X0133150Y0452060D02*
X0134990Y0452060D01*
X0134990Y0452510D02*
X0133150Y0452510D01*
X0133150Y0452960D02*
X0134990Y0452960D01*
X0134990Y0453410D02*
X0133150Y0453410D01*
X0133150Y0453860D02*
X0134990Y0453860D01*
X0134990Y0454310D02*
X0133150Y0454310D01*
X0133150Y0454760D02*
X0134990Y0454760D01*
X0134990Y0455210D02*
X0133150Y0455210D01*
X0133150Y0455660D02*
X0134990Y0455660D01*
X0134990Y0456110D02*
X0133150Y0456110D01*
X0133150Y0456560D02*
X0134990Y0456560D01*
X0134990Y0457010D02*
X0133150Y0457010D01*
X0132430Y0451160D02*
X0130590Y0451160D01*
X0130590Y0457400D01*
X0132430Y0457400D01*
X0132430Y0451160D01*
X0132430Y0451610D02*
X0130590Y0451610D01*
X0130590Y0452060D02*
X0132430Y0452060D01*
X0132430Y0452510D02*
X0130590Y0452510D01*
X0130590Y0452960D02*
X0132430Y0452960D01*
X0132430Y0453410D02*
X0130590Y0453410D01*
X0130590Y0453860D02*
X0132430Y0453860D01*
X0132430Y0454310D02*
X0130590Y0454310D01*
X0130590Y0454760D02*
X0132430Y0454760D01*
X0132430Y0455210D02*
X0130590Y0455210D01*
X0130590Y0455660D02*
X0132430Y0455660D01*
X0132430Y0456110D02*
X0130590Y0456110D01*
X0130590Y0456560D02*
X0132430Y0456560D01*
X0132430Y0457010D02*
X0130590Y0457010D01*
X0129870Y0451160D02*
X0128030Y0451160D01*
X0128030Y0457400D01*
X0129870Y0457400D01*
X0129870Y0451160D01*
X0129870Y0451610D02*
X0128030Y0451610D01*
X0128030Y0452060D02*
X0129870Y0452060D01*
X0129870Y0452510D02*
X0128030Y0452510D01*
X0128030Y0452960D02*
X0129870Y0452960D01*
X0129870Y0453410D02*
X0128030Y0453410D01*
X0128030Y0453860D02*
X0129870Y0453860D01*
X0129870Y0454310D02*
X0128030Y0454310D01*
X0128030Y0454760D02*
X0129870Y0454760D01*
X0129870Y0455210D02*
X0128030Y0455210D01*
X0128030Y0455660D02*
X0129870Y0455660D01*
X0129870Y0456110D02*
X0128030Y0456110D01*
X0128030Y0456560D02*
X0129870Y0456560D01*
X0129870Y0457010D02*
X0128030Y0457010D01*
X0127310Y0451160D02*
X0125470Y0451160D01*
X0125470Y0457400D01*
X0127310Y0457400D01*
X0127310Y0451160D01*
X0127310Y0451610D02*
X0125470Y0451610D01*
X0125470Y0452060D02*
X0127310Y0452060D01*
X0127310Y0452510D02*
X0125470Y0452510D01*
X0125470Y0452960D02*
X0127310Y0452960D01*
X0127310Y0453410D02*
X0125470Y0453410D01*
X0125470Y0453860D02*
X0127310Y0453860D01*
X0127310Y0454310D02*
X0125470Y0454310D01*
X0125470Y0454760D02*
X0127310Y0454760D01*
X0127310Y0455210D02*
X0125470Y0455210D01*
X0125470Y0455660D02*
X0127310Y0455660D01*
X0127310Y0456110D02*
X0125470Y0456110D01*
X0125470Y0456560D02*
X0127310Y0456560D01*
X0127310Y0457010D02*
X0125470Y0457010D01*
X0124750Y0451160D02*
X0122910Y0451160D01*
X0122910Y0457400D01*
X0124750Y0457400D01*
X0124750Y0451160D01*
X0124750Y0451610D02*
X0122910Y0451610D01*
X0122910Y0452060D02*
X0124750Y0452060D01*
X0124750Y0452510D02*
X0122910Y0452510D01*
X0122910Y0452960D02*
X0124750Y0452960D01*
X0124750Y0453410D02*
X0122910Y0453410D01*
X0122910Y0453860D02*
X0124750Y0453860D01*
X0124750Y0454310D02*
X0122910Y0454310D01*
X0122910Y0454760D02*
X0124750Y0454760D01*
X0124750Y0455210D02*
X0122910Y0455210D01*
X0122910Y0455660D02*
X0124750Y0455660D01*
X0124750Y0456110D02*
X0122910Y0456110D01*
X0122910Y0456560D02*
X0124750Y0456560D01*
X0124750Y0457010D02*
X0122910Y0457010D01*
X0122200Y0451160D02*
X0120360Y0451160D01*
X0120360Y0457400D01*
X0122200Y0457400D01*
X0122200Y0451160D01*
X0122200Y0451610D02*
X0120360Y0451610D01*
X0120360Y0452060D02*
X0122200Y0452060D01*
X0122200Y0452510D02*
X0120360Y0452510D01*
X0120360Y0452960D02*
X0122200Y0452960D01*
X0122200Y0453410D02*
X0120360Y0453410D01*
X0120360Y0453860D02*
X0122200Y0453860D01*
X0122200Y0454310D02*
X0120360Y0454310D01*
X0120360Y0454760D02*
X0122200Y0454760D01*
X0122200Y0455210D02*
X0120360Y0455210D01*
X0120360Y0455660D02*
X0122200Y0455660D01*
X0122200Y0456110D02*
X0120360Y0456110D01*
X0120360Y0456560D02*
X0122200Y0456560D01*
X0122200Y0457010D02*
X0120360Y0457010D01*
X0119640Y0451160D02*
X0117800Y0451160D01*
X0117800Y0457400D01*
X0119640Y0457400D01*
X0119640Y0451160D01*
X0119640Y0451610D02*
X0117800Y0451610D01*
X0117800Y0452060D02*
X0119640Y0452060D01*
X0119640Y0452510D02*
X0117800Y0452510D01*
X0117800Y0452960D02*
X0119640Y0452960D01*
X0119640Y0453410D02*
X0117800Y0453410D01*
X0117800Y0453860D02*
X0119640Y0453860D01*
X0119640Y0454310D02*
X0117800Y0454310D01*
X0117800Y0454760D02*
X0119640Y0454760D01*
X0119640Y0455210D02*
X0117800Y0455210D01*
X0117800Y0455660D02*
X0119640Y0455660D01*
X0119640Y0456110D02*
X0117800Y0456110D01*
X0117800Y0456560D02*
X0119640Y0456560D01*
X0119640Y0457010D02*
X0117800Y0457010D01*
X0117080Y0451160D02*
X0115240Y0451160D01*
X0115240Y0457400D01*
X0117080Y0457400D01*
X0117080Y0451160D01*
X0117080Y0451610D02*
X0115240Y0451610D01*
X0115240Y0452060D02*
X0117080Y0452060D01*
X0117080Y0452510D02*
X0115240Y0452510D01*
X0115240Y0452960D02*
X0117080Y0452960D01*
X0117080Y0453410D02*
X0115240Y0453410D01*
X0115240Y0453860D02*
X0117080Y0453860D01*
X0117080Y0454310D02*
X0115240Y0454310D01*
X0115240Y0454760D02*
X0117080Y0454760D01*
X0117080Y0455210D02*
X0115240Y0455210D01*
X0115240Y0455660D02*
X0117080Y0455660D01*
X0117080Y0456110D02*
X0115240Y0456110D01*
X0115240Y0456560D02*
X0117080Y0456560D01*
X0117080Y0457010D02*
X0115240Y0457010D01*
X0114520Y0451160D02*
X0112680Y0451160D01*
X0112680Y0457400D01*
X0114520Y0457400D01*
X0114520Y0451160D01*
X0114520Y0451610D02*
X0112680Y0451610D01*
X0112680Y0452060D02*
X0114520Y0452060D01*
X0114520Y0452510D02*
X0112680Y0452510D01*
X0112680Y0452960D02*
X0114520Y0452960D01*
X0114520Y0453410D02*
X0112680Y0453410D01*
X0112680Y0453860D02*
X0114520Y0453860D01*
X0114520Y0454310D02*
X0112680Y0454310D01*
X0112680Y0454760D02*
X0114520Y0454760D01*
X0114520Y0455210D02*
X0112680Y0455210D01*
X0112680Y0455660D02*
X0114520Y0455660D01*
X0114520Y0456110D02*
X0112680Y0456110D01*
X0112680Y0456560D02*
X0114520Y0456560D01*
X0114520Y0457010D02*
X0112680Y0457010D01*
X0111960Y0451160D02*
X0110120Y0451160D01*
X0110120Y0457400D01*
X0111960Y0457400D01*
X0111960Y0451160D01*
X0111960Y0451610D02*
X0110120Y0451610D01*
X0110120Y0452060D02*
X0111960Y0452060D01*
X0111960Y0452510D02*
X0110120Y0452510D01*
X0110120Y0452960D02*
X0111960Y0452960D01*
X0111960Y0453410D02*
X0110120Y0453410D01*
X0110120Y0453860D02*
X0111960Y0453860D01*
X0111960Y0454310D02*
X0110120Y0454310D01*
X0110120Y0454760D02*
X0111960Y0454760D01*
X0111960Y0455210D02*
X0110120Y0455210D01*
X0110120Y0455660D02*
X0111960Y0455660D01*
X0111960Y0456110D02*
X0110120Y0456110D01*
X0110120Y0456560D02*
X0111960Y0456560D01*
X0111960Y0457010D02*
X0110120Y0457010D01*
X0109400Y0451160D02*
X0107560Y0451160D01*
X0107560Y0457400D01*
X0109400Y0457400D01*
X0109400Y0451160D01*
X0109400Y0451610D02*
X0107560Y0451610D01*
X0107560Y0452060D02*
X0109400Y0452060D01*
X0109400Y0452510D02*
X0107560Y0452510D01*
X0107560Y0452960D02*
X0109400Y0452960D01*
X0109400Y0453410D02*
X0107560Y0453410D01*
X0107560Y0453860D02*
X0109400Y0453860D01*
X0109400Y0454310D02*
X0107560Y0454310D01*
X0107560Y0454760D02*
X0109400Y0454760D01*
X0109400Y0455210D02*
X0107560Y0455210D01*
X0107560Y0455660D02*
X0109400Y0455660D01*
X0109400Y0456110D02*
X0107560Y0456110D01*
X0107560Y0456560D02*
X0109400Y0456560D01*
X0109400Y0457010D02*
X0107560Y0457010D01*
X0106840Y0451160D02*
X0105000Y0451160D01*
X0105000Y0457400D01*
X0106840Y0457400D01*
X0106840Y0451160D01*
X0106840Y0451610D02*
X0105000Y0451610D01*
X0105000Y0452060D02*
X0106840Y0452060D01*
X0106840Y0452510D02*
X0105000Y0452510D01*
X0105000Y0452960D02*
X0106840Y0452960D01*
X0106840Y0453410D02*
X0105000Y0453410D01*
X0105000Y0453860D02*
X0106840Y0453860D01*
X0106840Y0454310D02*
X0105000Y0454310D01*
X0105000Y0454760D02*
X0106840Y0454760D01*
X0106840Y0455210D02*
X0105000Y0455210D01*
X0105000Y0455660D02*
X0106840Y0455660D01*
X0106840Y0456110D02*
X0105000Y0456110D01*
X0105000Y0456560D02*
X0106840Y0456560D01*
X0106840Y0457010D02*
X0105000Y0457010D01*
X0104280Y0451160D02*
X0102440Y0451160D01*
X0102440Y0457400D01*
X0104280Y0457400D01*
X0104280Y0451160D01*
X0104280Y0451610D02*
X0102440Y0451610D01*
X0102440Y0452060D02*
X0104280Y0452060D01*
X0104280Y0452510D02*
X0102440Y0452510D01*
X0102440Y0452960D02*
X0104280Y0452960D01*
X0104280Y0453410D02*
X0102440Y0453410D01*
X0102440Y0453860D02*
X0104280Y0453860D01*
X0104280Y0454310D02*
X0102440Y0454310D01*
X0102440Y0454760D02*
X0104280Y0454760D01*
X0104280Y0455210D02*
X0102440Y0455210D01*
X0102440Y0455660D02*
X0104280Y0455660D01*
X0104280Y0456110D02*
X0102440Y0456110D01*
X0102440Y0456560D02*
X0104280Y0456560D01*
X0104280Y0457010D02*
X0102440Y0457010D01*
D59*
X0090170Y0427500D03*
X0074820Y0427500D03*
D43*
X0097200Y0399100D03*
X0097200Y0390000D03*
X0097200Y0380900D03*
D149*
X0072800Y0390000D03*
X0072800Y0360000D03*
D39*
X0152500Y0352270D03*
X0157500Y0352270D03*
X0162500Y0352270D03*
X0167500Y0352270D03*
X0167500Y0372740D03*
X0162500Y0372740D03*
X0157500Y0372740D03*
X0152500Y0372740D03*
D43*
X0097200Y0369100D03*
X0097200Y0360000D03*
X0097200Y0350910D03*
D151*
X0148400Y0332210D03*
X0157500Y0332210D03*
X0166590Y0332210D03*
D14*
X0157500Y0307800D03*
D57*
X0255230Y0370180D03*
X0257200Y0370180D03*
X0259170Y0370180D03*
X0261140Y0370180D03*
X0263110Y0370180D03*
X0265070Y0370180D03*
X0267040Y0370180D03*
X0269010Y0370180D03*
X0270980Y0370180D03*
X0272950Y0370180D03*
X0274920Y0370180D03*
X0276890Y0370180D03*
X0278850Y0370180D03*
X0280820Y0370180D03*
X0282790Y0370180D03*
X0284760Y0370180D03*
X0284760Y0404830D03*
X0282790Y0404830D03*
X0280820Y0404830D03*
X0278850Y0404830D03*
X0276890Y0404830D03*
X0274920Y0404830D03*
X0272950Y0404830D03*
X0270980Y0404830D03*
X0269010Y0404830D03*
X0267040Y0404830D03*
X0265070Y0404830D03*
X0263110Y0404830D03*
X0261140Y0404830D03*
X0259170Y0404830D03*
X0257200Y0404830D03*
X0255230Y0404830D03*
D111*
X0252670Y0402270D03*
X0252670Y0400300D03*
X0252670Y0398330D03*
X0252670Y0396360D03*
X0252670Y0394390D03*
X0252670Y0392430D03*
X0252670Y0390460D03*
X0252670Y0388490D03*
X0252670Y0386520D03*
X0252670Y0384550D03*
X0252670Y0382580D03*
X0252670Y0380610D03*
X0252670Y0378650D03*
X0252670Y0376680D03*
X0252670Y0374710D03*
X0252670Y0372740D03*
X0287320Y0372740D03*
X0287320Y0374710D03*
X0287320Y0376680D03*
X0287320Y0378650D03*
X0287320Y0380610D03*
X0287320Y0382580D03*
X0287320Y0384550D03*
X0287320Y0386520D03*
X0287320Y0388490D03*
X0287320Y0390460D03*
X0287320Y0392430D03*
X0287320Y0394390D03*
X0287320Y0396360D03*
X0287320Y0398330D03*
X0287320Y0400300D03*
X0287320Y0402270D03*
D91*
X0270000Y0387500D03*
D88*
X0297440Y0363550D03*
X0300000Y0363550D03*
X0302560Y0363550D03*
X0302560Y0356460D03*
X0300000Y0356460D03*
X0297440Y0356460D03*
D50*
D158*
X0321800Y0353500D03*
D50*
D158*
X0321800Y0363500D03*
D50*
D158*
X0321800Y0373500D03*
D50*
D11*
X0240650Y0381600D03*
X0234350Y0381600D03*
X0234350Y0393410D03*
X0240650Y0393410D03*
D99*
X0089840Y0445180D03*
X0068190Y0444790D03*
X0068190Y0480220D03*
X0089840Y0480220D03*
D90*
X0089840Y0468800D03*
X0089840Y0465650D03*
X0089840Y0462500D03*
X0089840Y0459360D03*
X0089840Y0456210D03*
D79*
X0080000Y0453840D03*
X0080000Y0471170D03*
D137*
X0167770Y0456240D03*
X0167770Y0452500D03*
X0167770Y0448760D03*
X0177220Y0448760D03*
X0177220Y0452500D03*
X0177220Y0456240D03*
X0182770Y0438740D03*
X0182770Y0435000D03*
X0182770Y0431260D03*
X0192220Y0431260D03*
X0192220Y0435000D03*
X0192220Y0438740D03*
X0210270Y0438740D03*
X0210270Y0435000D03*
X0210270Y0431260D03*
X0219720Y0431260D03*
X0219720Y0435000D03*
X0219720Y0438740D03*
X0230270Y0448760D03*
X0230270Y0452500D03*
X0230270Y0456240D03*
X0239720Y0456240D03*
X0239720Y0452500D03*
X0239720Y0448760D03*
X0237770Y0438740D03*
X0237770Y0435000D03*
X0237770Y0431260D03*
X0247220Y0431260D03*
X0247220Y0435000D03*
X0247220Y0438740D03*
X0265270Y0438740D03*
X0265270Y0435000D03*
X0265270Y0431260D03*
X0274720Y0431260D03*
X0274720Y0435000D03*
X0274720Y0438740D03*
X0292770Y0438740D03*
X0292770Y0435000D03*
X0292770Y0431260D03*
X0302220Y0431260D03*
X0302220Y0435000D03*
X0302220Y0438740D03*
X0305270Y0448760D03*
X0305270Y0452500D03*
X0305270Y0456240D03*
X0314720Y0456240D03*
X0314720Y0452500D03*
X0314720Y0448760D03*
X0284720Y0346240D03*
X0284720Y0342500D03*
X0284720Y0338760D03*
X0275270Y0338760D03*
X0275270Y0342500D03*
X0275270Y0346240D03*
X0264720Y0346240D03*
X0264720Y0342500D03*
X0264720Y0338760D03*
X0255270Y0338760D03*
X0255270Y0342500D03*
X0255270Y0346240D03*
X0244720Y0346240D03*
X0244720Y0342500D03*
X0244720Y0338760D03*
X0235270Y0338760D03*
X0235270Y0342500D03*
X0235270Y0346240D03*
X0224720Y0346240D03*
X0224720Y0342500D03*
X0224720Y0338760D03*
X0215270Y0338760D03*
X0215270Y0342500D03*
X0215270Y0346240D03*
D58*
X0150110Y0396260D03*
X0150110Y0403740D03*
X0139920Y0403740D03*
X0139920Y0400000D03*
X0139920Y0396260D03*
D114*
X0177500Y0390810D03*
X0177500Y0404200D03*
D97*
X0202770Y0459360D03*
X0205920Y0459360D03*
X0209070Y0459360D03*
X0212220Y0459360D03*
X0212220Y0465650D03*
X0209070Y0465650D03*
X0205920Y0465650D03*
X0202770Y0465650D03*
X0220270Y0464360D03*
X0223420Y0464360D03*
X0226570Y0464360D03*
X0229720Y0464360D03*
X0229720Y0470650D03*
X0226570Y0470650D03*
X0223420Y0470650D03*
X0220270Y0470650D03*
X0250270Y0468150D03*
X0253420Y0468150D03*
X0256570Y0468150D03*
X0259720Y0468150D03*
X0259720Y0461860D03*
X0256570Y0461860D03*
X0253420Y0461860D03*
X0250270Y0461860D03*
X0277770Y0461860D03*
X0280920Y0461860D03*
X0284070Y0461860D03*
X0287220Y0461860D03*
X0287220Y0468150D03*
X0284070Y0468150D03*
X0280920Y0468150D03*
X0277770Y0468150D03*
X0267220Y0330650D03*
X0264070Y0330650D03*
X0260920Y0330650D03*
X0257770Y0330650D03*
X0257770Y0324360D03*
X0260920Y0324360D03*
X0264070Y0324360D03*
X0267220Y0324360D03*
X0249720Y0325650D03*
X0246570Y0325650D03*
X0243420Y0325650D03*
X0240270Y0325650D03*
X0240270Y0319360D03*
X0243420Y0319360D03*
X0246570Y0319360D03*
X0249720Y0319360D03*
X0350000Y0060000D02*
G75*
%LPD*%
D152*
X0410000Y0260000D03*
X0610000Y0200000D03*
X0610000Y0090000D03*
D33*
X0600000Y0070000D03*
X0590000Y0070000D03*
X0580000Y0070000D03*
X0570000Y0070000D03*
X0560000Y0070000D03*
X0530000Y0070000D03*
X0520000Y0070000D03*
X0510000Y0070000D03*
X0500000Y0070000D03*
X0490000Y0070000D03*
X0587500Y0110000D03*
X0600550Y0159810D03*
X0610550Y0159810D03*
X0610550Y0169810D03*
X0600550Y0169810D03*
X0600550Y0179810D03*
X0610550Y0179810D03*
X0590000Y0260000D03*
X0580000Y0260000D03*
X0570000Y0260000D03*
X0560000Y0260000D03*
X0550000Y0260000D03*
X0540000Y0260000D03*
X0530000Y0260000D03*
X0504000Y0260000D03*
X0494000Y0260000D03*
X0484000Y0260000D03*
X0474000Y0260000D03*
X0464000Y0260000D03*
X0454000Y0260000D03*
X0444000Y0260000D03*
X0474000Y0247500D03*
X0484000Y0247500D03*
D29*
X0425340Y0238000D03*
X0418650Y0238000D03*
X0410340Y0238000D03*
X0403650Y0238000D03*
X0406650Y0177500D03*
X0413340Y0177500D03*
X0393340Y0177500D03*
X0386650Y0177500D03*
X0439150Y0152500D03*
X0445840Y0152500D03*
X0475000Y0135850D03*
X0475000Y0129160D03*
X0465000Y0115850D03*
X0465000Y0109160D03*
X0511650Y0155000D03*
X0511650Y0160000D03*
X0518340Y0160000D03*
X0518340Y0155000D03*
X0518340Y0172500D03*
X0511650Y0172500D03*
X0574150Y0132500D03*
X0580840Y0132500D03*
X0580840Y0127500D03*
X0574150Y0127500D03*
X0584150Y0150000D03*
X0590840Y0150000D03*
X0590800Y0179860D03*
X0590800Y0186550D03*
D120*
X0600000Y0260000D03*
X0514000Y0260000D03*
X0464000Y0247500D03*
X0597500Y0110000D03*
X0550000Y0070000D03*
X0480000Y0070000D03*
D103*
X0415510Y0110000D03*
X0404480Y0110000D03*
X0404480Y0122500D03*
X0415510Y0122500D03*
X0415510Y0135000D03*
X0404480Y0135000D03*
D62*
X0406650Y0145000D03*
X0413340Y0145000D03*
X0413340Y0152500D03*
X0406650Y0152500D03*
X0406650Y0185000D03*
X0413340Y0185000D03*
X0439150Y0195000D03*
X0445840Y0195000D03*
X0445840Y0217500D03*
X0439150Y0217500D03*
X0439150Y0232500D03*
X0445840Y0232500D03*
X0522500Y0137850D03*
X0527500Y0137850D03*
X0532500Y0137850D03*
X0532500Y0131160D03*
X0527500Y0131160D03*
X0522500Y0131160D03*
X0465500Y0129160D03*
X0465500Y0135850D03*
X0590750Y0192400D03*
X0597440Y0192400D03*
D22*
X0585450Y0192500D03*
X0585450Y0187500D03*
X0579540Y0187500D03*
X0579540Y0192500D03*
X0472500Y0115460D03*
X0472500Y0109550D03*
X0445450Y0202500D03*
X0439540Y0202500D03*
X0439540Y0210000D03*
X0445450Y0210000D03*
X0445450Y0225000D03*
X0439540Y0225000D03*
D60*
X0415000Y0091170D03*
X0415000Y0073840D03*
D87*
X0384200Y0073000D03*
X0396000Y0092700D03*
X0372400Y0092700D03*
D115*
X0392440Y0192610D02*
X0394280Y0192610D01*
X0392440Y0192610D02*
X0392440Y0198850D01*
X0394280Y0198850D01*
X0394280Y0192610D01*
X0394280Y0193060D02*
X0392440Y0193060D01*
X0392440Y0193510D02*
X0394280Y0193510D01*
X0394280Y0193960D02*
X0392440Y0193960D01*
X0392440Y0194410D02*
X0394280Y0194410D01*
X0394280Y0194860D02*
X0392440Y0194860D01*
X0392440Y0195310D02*
X0394280Y0195310D01*
X0394280Y0195760D02*
X0392440Y0195760D01*
X0392440Y0196210D02*
X0394280Y0196210D01*
X0394280Y0196660D02*
X0392440Y0196660D01*
X0392440Y0197110D02*
X0394280Y0197110D01*
X0394280Y0197560D02*
X0392440Y0197560D01*
X0392440Y0198010D02*
X0394280Y0198010D01*
X0394280Y0198460D02*
X0392440Y0198460D01*
X0395000Y0192610D02*
X0396840Y0192610D01*
X0395000Y0192610D02*
X0395000Y0198850D01*
X0396840Y0198850D01*
X0396840Y0192610D01*
X0396840Y0193060D02*
X0395000Y0193060D01*
X0395000Y0193510D02*
X0396840Y0193510D01*
X0396840Y0193960D02*
X0395000Y0193960D01*
X0395000Y0194410D02*
X0396840Y0194410D01*
X0396840Y0194860D02*
X0395000Y0194860D01*
X0395000Y0195310D02*
X0396840Y0195310D01*
X0396840Y0195760D02*
X0395000Y0195760D01*
X0395000Y0196210D02*
X0396840Y0196210D01*
X0396840Y0196660D02*
X0395000Y0196660D01*
X0395000Y0197110D02*
X0396840Y0197110D01*
X0396840Y0197560D02*
X0395000Y0197560D01*
X0395000Y0198010D02*
X0396840Y0198010D01*
X0396840Y0198460D02*
X0395000Y0198460D01*
X0397560Y0192610D02*
X0399400Y0192610D01*
X0397560Y0192610D02*
X0397560Y0198850D01*
X0399400Y0198850D01*
X0399400Y0192610D01*
X0399400Y0193060D02*
X0397560Y0193060D01*
X0397560Y0193510D02*
X0399400Y0193510D01*
X0399400Y0193960D02*
X0397560Y0193960D01*
X0397560Y0194410D02*
X0399400Y0194410D01*
X0399400Y0194860D02*
X0397560Y0194860D01*
X0397560Y0195310D02*
X0399400Y0195310D01*
X0399400Y0195760D02*
X0397560Y0195760D01*
X0397560Y0196210D02*
X0399400Y0196210D01*
X0399400Y0196660D02*
X0397560Y0196660D01*
X0397560Y0197110D02*
X0399400Y0197110D01*
X0399400Y0197560D02*
X0397560Y0197560D01*
X0397560Y0198010D02*
X0399400Y0198010D01*
X0399400Y0198460D02*
X0397560Y0198460D01*
X0400120Y0192610D02*
X0401960Y0192610D01*
X0400120Y0192610D02*
X0400120Y0198850D01*
X0401960Y0198850D01*
X0401960Y0192610D01*
X0401960Y0193060D02*
X0400120Y0193060D01*
X0400120Y0193510D02*
X0401960Y0193510D01*
X0401960Y0193960D02*
X0400120Y0193960D01*
X0400120Y0194410D02*
X0401960Y0194410D01*
X0401960Y0194860D02*
X0400120Y0194860D01*
X0400120Y0195310D02*
X0401960Y0195310D01*
X0401960Y0195760D02*
X0400120Y0195760D01*
X0400120Y0196210D02*
X0401960Y0196210D01*
X0401960Y0196660D02*
X0400120Y0196660D01*
X0400120Y0197110D02*
X0401960Y0197110D01*
X0401960Y0197560D02*
X0400120Y0197560D01*
X0400120Y0198010D02*
X0401960Y0198010D01*
X0401960Y0198460D02*
X0400120Y0198460D01*
X0402680Y0192610D02*
X0404520Y0192610D01*
X0402680Y0192610D02*
X0402680Y0198850D01*
X0404520Y0198850D01*
X0404520Y0192610D01*
X0404520Y0193060D02*
X0402680Y0193060D01*
X0402680Y0193510D02*
X0404520Y0193510D01*
X0404520Y0193960D02*
X0402680Y0193960D01*
X0402680Y0194410D02*
X0404520Y0194410D01*
X0404520Y0194860D02*
X0402680Y0194860D01*
X0402680Y0195310D02*
X0404520Y0195310D01*
X0404520Y0195760D02*
X0402680Y0195760D01*
X0402680Y0196210D02*
X0404520Y0196210D01*
X0404520Y0196660D02*
X0402680Y0196660D01*
X0402680Y0197110D02*
X0404520Y0197110D01*
X0404520Y0197560D02*
X0402680Y0197560D01*
X0402680Y0198010D02*
X0404520Y0198010D01*
X0404520Y0198460D02*
X0402680Y0198460D01*
X0405240Y0192610D02*
X0407080Y0192610D01*
X0405240Y0192610D02*
X0405240Y0198850D01*
X0407080Y0198850D01*
X0407080Y0192610D01*
X0407080Y0193060D02*
X0405240Y0193060D01*
X0405240Y0193510D02*
X0407080Y0193510D01*
X0407080Y0193960D02*
X0405240Y0193960D01*
X0405240Y0194410D02*
X0407080Y0194410D01*
X0407080Y0194860D02*
X0405240Y0194860D01*
X0405240Y0195310D02*
X0407080Y0195310D01*
X0407080Y0195760D02*
X0405240Y0195760D01*
X0405240Y0196210D02*
X0407080Y0196210D01*
X0407080Y0196660D02*
X0405240Y0196660D01*
X0405240Y0197110D02*
X0407080Y0197110D01*
X0407080Y0197560D02*
X0405240Y0197560D01*
X0405240Y0198010D02*
X0407080Y0198010D01*
X0407080Y0198460D02*
X0405240Y0198460D01*
X0407800Y0192610D02*
X0409640Y0192610D01*
X0407800Y0192610D02*
X0407800Y0198850D01*
X0409640Y0198850D01*
X0409640Y0192610D01*
X0409640Y0193060D02*
X0407800Y0193060D01*
X0407800Y0193510D02*
X0409640Y0193510D01*
X0409640Y0193960D02*
X0407800Y0193960D01*
X0407800Y0194410D02*
X0409640Y0194410D01*
X0409640Y0194860D02*
X0407800Y0194860D01*
X0407800Y0195310D02*
X0409640Y0195310D01*
X0409640Y0195760D02*
X0407800Y0195760D01*
X0407800Y0196210D02*
X0409640Y0196210D01*
X0409640Y0196660D02*
X0407800Y0196660D01*
X0407800Y0197110D02*
X0409640Y0197110D01*
X0409640Y0197560D02*
X0407800Y0197560D01*
X0407800Y0198010D02*
X0409640Y0198010D01*
X0409640Y0198460D02*
X0407800Y0198460D01*
X0410360Y0192610D02*
X0412200Y0192610D01*
X0410360Y0192610D02*
X0410360Y0198850D01*
X0412200Y0198850D01*
X0412200Y0192610D01*
X0412200Y0193060D02*
X0410360Y0193060D01*
X0410360Y0193510D02*
X0412200Y0193510D01*
X0412200Y0193960D02*
X0410360Y0193960D01*
X0410360Y0194410D02*
X0412200Y0194410D01*
X0412200Y0194860D02*
X0410360Y0194860D01*
X0410360Y0195310D02*
X0412200Y0195310D01*
X0412200Y0195760D02*
X0410360Y0195760D01*
X0410360Y0196210D02*
X0412200Y0196210D01*
X0412200Y0196660D02*
X0410360Y0196660D01*
X0410360Y0197110D02*
X0412200Y0197110D01*
X0412200Y0197560D02*
X0410360Y0197560D01*
X0410360Y0198010D02*
X0412200Y0198010D01*
X0412200Y0198460D02*
X0410360Y0198460D01*
X0412910Y0192610D02*
X0414750Y0192610D01*
X0412910Y0192610D02*
X0412910Y0198850D01*
X0414750Y0198850D01*
X0414750Y0192610D01*
X0414750Y0193060D02*
X0412910Y0193060D01*
X0412910Y0193510D02*
X0414750Y0193510D01*
X0414750Y0193960D02*
X0412910Y0193960D01*
X0412910Y0194410D02*
X0414750Y0194410D01*
X0414750Y0194860D02*
X0412910Y0194860D01*
X0412910Y0195310D02*
X0414750Y0195310D01*
X0414750Y0195760D02*
X0412910Y0195760D01*
X0412910Y0196210D02*
X0414750Y0196210D01*
X0414750Y0196660D02*
X0412910Y0196660D01*
X0412910Y0197110D02*
X0414750Y0197110D01*
X0414750Y0197560D02*
X0412910Y0197560D01*
X0412910Y0198010D02*
X0414750Y0198010D01*
X0414750Y0198460D02*
X0412910Y0198460D01*
X0415470Y0192610D02*
X0417310Y0192610D01*
X0415470Y0192610D02*
X0415470Y0198850D01*
X0417310Y0198850D01*
X0417310Y0192610D01*
X0417310Y0193060D02*
X0415470Y0193060D01*
X0415470Y0193510D02*
X0417310Y0193510D01*
X0417310Y0193960D02*
X0415470Y0193960D01*
X0415470Y0194410D02*
X0417310Y0194410D01*
X0417310Y0194860D02*
X0415470Y0194860D01*
X0415470Y0195310D02*
X0417310Y0195310D01*
X0417310Y0195760D02*
X0415470Y0195760D01*
X0415470Y0196210D02*
X0417310Y0196210D01*
X0417310Y0196660D02*
X0415470Y0196660D01*
X0415470Y0197110D02*
X0417310Y0197110D01*
X0417310Y0197560D02*
X0415470Y0197560D01*
X0415470Y0198010D02*
X0417310Y0198010D01*
X0417310Y0198460D02*
X0415470Y0198460D01*
X0418030Y0192610D02*
X0419870Y0192610D01*
X0418030Y0192610D02*
X0418030Y0198850D01*
X0419870Y0198850D01*
X0419870Y0192610D01*
X0419870Y0193060D02*
X0418030Y0193060D01*
X0418030Y0193510D02*
X0419870Y0193510D01*
X0419870Y0193960D02*
X0418030Y0193960D01*
X0418030Y0194410D02*
X0419870Y0194410D01*
X0419870Y0194860D02*
X0418030Y0194860D01*
X0418030Y0195310D02*
X0419870Y0195310D01*
X0419870Y0195760D02*
X0418030Y0195760D01*
X0418030Y0196210D02*
X0419870Y0196210D01*
X0419870Y0196660D02*
X0418030Y0196660D01*
X0418030Y0197110D02*
X0419870Y0197110D01*
X0419870Y0197560D02*
X0418030Y0197560D01*
X0418030Y0198010D02*
X0419870Y0198010D01*
X0419870Y0198460D02*
X0418030Y0198460D01*
X0420590Y0192610D02*
X0422430Y0192610D01*
X0420590Y0192610D02*
X0420590Y0198850D01*
X0422430Y0198850D01*
X0422430Y0192610D01*
X0422430Y0193060D02*
X0420590Y0193060D01*
X0420590Y0193510D02*
X0422430Y0193510D01*
X0422430Y0193960D02*
X0420590Y0193960D01*
X0420590Y0194410D02*
X0422430Y0194410D01*
X0422430Y0194860D02*
X0420590Y0194860D01*
X0420590Y0195310D02*
X0422430Y0195310D01*
X0422430Y0195760D02*
X0420590Y0195760D01*
X0420590Y0196210D02*
X0422430Y0196210D01*
X0422430Y0196660D02*
X0420590Y0196660D01*
X0420590Y0197110D02*
X0422430Y0197110D01*
X0422430Y0197560D02*
X0420590Y0197560D01*
X0420590Y0198010D02*
X0422430Y0198010D01*
X0422430Y0198460D02*
X0420590Y0198460D01*
X0423150Y0192610D02*
X0424990Y0192610D01*
X0423150Y0192610D02*
X0423150Y0198850D01*
X0424990Y0198850D01*
X0424990Y0192610D01*
X0424990Y0193060D02*
X0423150Y0193060D01*
X0423150Y0193510D02*
X0424990Y0193510D01*
X0424990Y0193960D02*
X0423150Y0193960D01*
X0423150Y0194410D02*
X0424990Y0194410D01*
X0424990Y0194860D02*
X0423150Y0194860D01*
X0423150Y0195310D02*
X0424990Y0195310D01*
X0424990Y0195760D02*
X0423150Y0195760D01*
X0423150Y0196210D02*
X0424990Y0196210D01*
X0424990Y0196660D02*
X0423150Y0196660D01*
X0423150Y0197110D02*
X0424990Y0197110D01*
X0424990Y0197560D02*
X0423150Y0197560D01*
X0423150Y0198010D02*
X0424990Y0198010D01*
X0424990Y0198460D02*
X0423150Y0198460D01*
X0425710Y0192610D02*
X0427550Y0192610D01*
X0425710Y0192610D02*
X0425710Y0198850D01*
X0427550Y0198850D01*
X0427550Y0192610D01*
X0427550Y0193060D02*
X0425710Y0193060D01*
X0425710Y0193510D02*
X0427550Y0193510D01*
X0427550Y0193960D02*
X0425710Y0193960D01*
X0425710Y0194410D02*
X0427550Y0194410D01*
X0427550Y0194860D02*
X0425710Y0194860D01*
X0425710Y0195310D02*
X0427550Y0195310D01*
X0427550Y0195760D02*
X0425710Y0195760D01*
X0425710Y0196210D02*
X0427550Y0196210D01*
X0427550Y0196660D02*
X0425710Y0196660D01*
X0425710Y0197110D02*
X0427550Y0197110D01*
X0427550Y0197560D02*
X0425710Y0197560D01*
X0425710Y0198010D02*
X0427550Y0198010D01*
X0427550Y0198460D02*
X0425710Y0198460D01*
X0425710Y0221160D02*
X0427550Y0221160D01*
X0425710Y0221160D02*
X0425710Y0227400D01*
X0427550Y0227400D01*
X0427550Y0221160D01*
X0427550Y0221610D02*
X0425710Y0221610D01*
X0425710Y0222060D02*
X0427550Y0222060D01*
X0427550Y0222510D02*
X0425710Y0222510D01*
X0425710Y0222960D02*
X0427550Y0222960D01*
X0427550Y0223410D02*
X0425710Y0223410D01*
X0425710Y0223860D02*
X0427550Y0223860D01*
X0427550Y0224310D02*
X0425710Y0224310D01*
X0425710Y0224760D02*
X0427550Y0224760D01*
X0427550Y0225210D02*
X0425710Y0225210D01*
X0425710Y0225660D02*
X0427550Y0225660D01*
X0427550Y0226110D02*
X0425710Y0226110D01*
X0425710Y0226560D02*
X0427550Y0226560D01*
X0427550Y0227010D02*
X0425710Y0227010D01*
X0424990Y0221160D02*
X0423150Y0221160D01*
X0423150Y0227400D01*
X0424990Y0227400D01*
X0424990Y0221160D01*
X0424990Y0221610D02*
X0423150Y0221610D01*
X0423150Y0222060D02*
X0424990Y0222060D01*
X0424990Y0222510D02*
X0423150Y0222510D01*
X0423150Y0222960D02*
X0424990Y0222960D01*
X0424990Y0223410D02*
X0423150Y0223410D01*
X0423150Y0223860D02*
X0424990Y0223860D01*
X0424990Y0224310D02*
X0423150Y0224310D01*
X0423150Y0224760D02*
X0424990Y0224760D01*
X0424990Y0225210D02*
X0423150Y0225210D01*
X0423150Y0225660D02*
X0424990Y0225660D01*
X0424990Y0226110D02*
X0423150Y0226110D01*
X0423150Y0226560D02*
X0424990Y0226560D01*
X0424990Y0227010D02*
X0423150Y0227010D01*
X0422430Y0221160D02*
X0420590Y0221160D01*
X0420590Y0227400D01*
X0422430Y0227400D01*
X0422430Y0221160D01*
X0422430Y0221610D02*
X0420590Y0221610D01*
X0420590Y0222060D02*
X0422430Y0222060D01*
X0422430Y0222510D02*
X0420590Y0222510D01*
X0420590Y0222960D02*
X0422430Y0222960D01*
X0422430Y0223410D02*
X0420590Y0223410D01*
X0420590Y0223860D02*
X0422430Y0223860D01*
X0422430Y0224310D02*
X0420590Y0224310D01*
X0420590Y0224760D02*
X0422430Y0224760D01*
X0422430Y0225210D02*
X0420590Y0225210D01*
X0420590Y0225660D02*
X0422430Y0225660D01*
X0422430Y0226110D02*
X0420590Y0226110D01*
X0420590Y0226560D02*
X0422430Y0226560D01*
X0422430Y0227010D02*
X0420590Y0227010D01*
X0419870Y0221160D02*
X0418030Y0221160D01*
X0418030Y0227400D01*
X0419870Y0227400D01*
X0419870Y0221160D01*
X0419870Y0221610D02*
X0418030Y0221610D01*
X0418030Y0222060D02*
X0419870Y0222060D01*
X0419870Y0222510D02*
X0418030Y0222510D01*
X0418030Y0222960D02*
X0419870Y0222960D01*
X0419870Y0223410D02*
X0418030Y0223410D01*
X0418030Y0223860D02*
X0419870Y0223860D01*
X0419870Y0224310D02*
X0418030Y0224310D01*
X0418030Y0224760D02*
X0419870Y0224760D01*
X0419870Y0225210D02*
X0418030Y0225210D01*
X0418030Y0225660D02*
X0419870Y0225660D01*
X0419870Y0226110D02*
X0418030Y0226110D01*
X0418030Y0226560D02*
X0419870Y0226560D01*
X0419870Y0227010D02*
X0418030Y0227010D01*
X0417310Y0221160D02*
X0415470Y0221160D01*
X0415470Y0227400D01*
X0417310Y0227400D01*
X0417310Y0221160D01*
X0417310Y0221610D02*
X0415470Y0221610D01*
X0415470Y0222060D02*
X0417310Y0222060D01*
X0417310Y0222510D02*
X0415470Y0222510D01*
X0415470Y0222960D02*
X0417310Y0222960D01*
X0417310Y0223410D02*
X0415470Y0223410D01*
X0415470Y0223860D02*
X0417310Y0223860D01*
X0417310Y0224310D02*
X0415470Y0224310D01*
X0415470Y0224760D02*
X0417310Y0224760D01*
X0417310Y0225210D02*
X0415470Y0225210D01*
X0415470Y0225660D02*
X0417310Y0225660D01*
X0417310Y0226110D02*
X0415470Y0226110D01*
X0415470Y0226560D02*
X0417310Y0226560D01*
X0417310Y0227010D02*
X0415470Y0227010D01*
X0414750Y0221160D02*
X0412910Y0221160D01*
X0412910Y0227400D01*
X0414750Y0227400D01*
X0414750Y0221160D01*
X0414750Y0221610D02*
X0412910Y0221610D01*
X0412910Y0222060D02*
X0414750Y0222060D01*
X0414750Y0222510D02*
X0412910Y0222510D01*
X0412910Y0222960D02*
X0414750Y0222960D01*
X0414750Y0223410D02*
X0412910Y0223410D01*
X0412910Y0223860D02*
X0414750Y0223860D01*
X0414750Y0224310D02*
X0412910Y0224310D01*
X0412910Y0224760D02*
X0414750Y0224760D01*
X0414750Y0225210D02*
X0412910Y0225210D01*
X0412910Y0225660D02*
X0414750Y0225660D01*
X0414750Y0226110D02*
X0412910Y0226110D01*
X0412910Y0226560D02*
X0414750Y0226560D01*
X0414750Y0227010D02*
X0412910Y0227010D01*
X0412200Y0221160D02*
X0410360Y0221160D01*
X0410360Y0227400D01*
X0412200Y0227400D01*
X0412200Y0221160D01*
X0412200Y0221610D02*
X0410360Y0221610D01*
X0410360Y0222060D02*
X0412200Y0222060D01*
X0412200Y0222510D02*
X0410360Y0222510D01*
X0410360Y0222960D02*
X0412200Y0222960D01*
X0412200Y0223410D02*
X0410360Y0223410D01*
X0410360Y0223860D02*
X0412200Y0223860D01*
X0412200Y0224310D02*
X0410360Y0224310D01*
X0410360Y0224760D02*
X0412200Y0224760D01*
X0412200Y0225210D02*
X0410360Y0225210D01*
X0410360Y0225660D02*
X0412200Y0225660D01*
X0412200Y0226110D02*
X0410360Y0226110D01*
X0410360Y0226560D02*
X0412200Y0226560D01*
X0412200Y0227010D02*
X0410360Y0227010D01*
X0409640Y0221160D02*
X0407800Y0221160D01*
X0407800Y0227400D01*
X0409640Y0227400D01*
X0409640Y0221160D01*
X0409640Y0221610D02*
X0407800Y0221610D01*
X0407800Y0222060D02*
X0409640Y0222060D01*
X0409640Y0222510D02*
X0407800Y0222510D01*
X0407800Y0222960D02*
X0409640Y0222960D01*
X0409640Y0223410D02*
X0407800Y0223410D01*
X0407800Y0223860D02*
X0409640Y0223860D01*
X0409640Y0224310D02*
X0407800Y0224310D01*
X0407800Y0224760D02*
X0409640Y0224760D01*
X0409640Y0225210D02*
X0407800Y0225210D01*
X0407800Y0225660D02*
X0409640Y0225660D01*
X0409640Y0226110D02*
X0407800Y0226110D01*
X0407800Y0226560D02*
X0409640Y0226560D01*
X0409640Y0227010D02*
X0407800Y0227010D01*
X0407080Y0221160D02*
X0405240Y0221160D01*
X0405240Y0227400D01*
X0407080Y0227400D01*
X0407080Y0221160D01*
X0407080Y0221610D02*
X0405240Y0221610D01*
X0405240Y0222060D02*
X0407080Y0222060D01*
X0407080Y0222510D02*
X0405240Y0222510D01*
X0405240Y0222960D02*
X0407080Y0222960D01*
X0407080Y0223410D02*
X0405240Y0223410D01*
X0405240Y0223860D02*
X0407080Y0223860D01*
X0407080Y0224310D02*
X0405240Y0224310D01*
X0405240Y0224760D02*
X0407080Y0224760D01*
X0407080Y0225210D02*
X0405240Y0225210D01*
X0405240Y0225660D02*
X0407080Y0225660D01*
X0407080Y0226110D02*
X0405240Y0226110D01*
X0405240Y0226560D02*
X0407080Y0226560D01*
X0407080Y0227010D02*
X0405240Y0227010D01*
X0404520Y0221160D02*
X0402680Y0221160D01*
X0402680Y0227400D01*
X0404520Y0227400D01*
X0404520Y0221160D01*
X0404520Y0221610D02*
X0402680Y0221610D01*
X0402680Y0222060D02*
X0404520Y0222060D01*
X0404520Y0222510D02*
X0402680Y0222510D01*
X0402680Y0222960D02*
X0404520Y0222960D01*
X0404520Y0223410D02*
X0402680Y0223410D01*
X0402680Y0223860D02*
X0404520Y0223860D01*
X0404520Y0224310D02*
X0402680Y0224310D01*
X0402680Y0224760D02*
X0404520Y0224760D01*
X0404520Y0225210D02*
X0402680Y0225210D01*
X0402680Y0225660D02*
X0404520Y0225660D01*
X0404520Y0226110D02*
X0402680Y0226110D01*
X0402680Y0226560D02*
X0404520Y0226560D01*
X0404520Y0227010D02*
X0402680Y0227010D01*
X0401960Y0221160D02*
X0400120Y0221160D01*
X0400120Y0227400D01*
X0401960Y0227400D01*
X0401960Y0221160D01*
X0401960Y0221610D02*
X0400120Y0221610D01*
X0400120Y0222060D02*
X0401960Y0222060D01*
X0401960Y0222510D02*
X0400120Y0222510D01*
X0400120Y0222960D02*
X0401960Y0222960D01*
X0401960Y0223410D02*
X0400120Y0223410D01*
X0400120Y0223860D02*
X0401960Y0223860D01*
X0401960Y0224310D02*
X0400120Y0224310D01*
X0400120Y0224760D02*
X0401960Y0224760D01*
X0401960Y0225210D02*
X0400120Y0225210D01*
X0400120Y0225660D02*
X0401960Y0225660D01*
X0401960Y0226110D02*
X0400120Y0226110D01*
X0400120Y0226560D02*
X0401960Y0226560D01*
X0401960Y0227010D02*
X0400120Y0227010D01*
X0399400Y0221160D02*
X0397560Y0221160D01*
X0397560Y0227400D01*
X0399400Y0227400D01*
X0399400Y0221160D01*
X0399400Y0221610D02*
X0397560Y0221610D01*
X0397560Y0222060D02*
X0399400Y0222060D01*
X0399400Y0222510D02*
X0397560Y0222510D01*
X0397560Y0222960D02*
X0399400Y0222960D01*
X0399400Y0223410D02*
X0397560Y0223410D01*
X0397560Y0223860D02*
X0399400Y0223860D01*
X0399400Y0224310D02*
X0397560Y0224310D01*
X0397560Y0224760D02*
X0399400Y0224760D01*
X0399400Y0225210D02*
X0397560Y0225210D01*
X0397560Y0225660D02*
X0399400Y0225660D01*
X0399400Y0226110D02*
X0397560Y0226110D01*
X0397560Y0226560D02*
X0399400Y0226560D01*
X0399400Y0227010D02*
X0397560Y0227010D01*
X0396840Y0221160D02*
X0395000Y0221160D01*
X0395000Y0227400D01*
X0396840Y0227400D01*
X0396840Y0221160D01*
X0396840Y0221610D02*
X0395000Y0221610D01*
X0395000Y0222060D02*
X0396840Y0222060D01*
X0396840Y0222510D02*
X0395000Y0222510D01*
X0395000Y0222960D02*
X0396840Y0222960D01*
X0396840Y0223410D02*
X0395000Y0223410D01*
X0395000Y0223860D02*
X0396840Y0223860D01*
X0396840Y0224310D02*
X0395000Y0224310D01*
X0395000Y0224760D02*
X0396840Y0224760D01*
X0396840Y0225210D02*
X0395000Y0225210D01*
X0395000Y0225660D02*
X0396840Y0225660D01*
X0396840Y0226110D02*
X0395000Y0226110D01*
X0395000Y0226560D02*
X0396840Y0226560D01*
X0396840Y0227010D02*
X0395000Y0227010D01*
X0394280Y0221160D02*
X0392440Y0221160D01*
X0392440Y0227400D01*
X0394280Y0227400D01*
X0394280Y0221160D01*
X0394280Y0221610D02*
X0392440Y0221610D01*
X0392440Y0222060D02*
X0394280Y0222060D01*
X0394280Y0222510D02*
X0392440Y0222510D01*
X0392440Y0222960D02*
X0394280Y0222960D01*
X0394280Y0223410D02*
X0392440Y0223410D01*
X0392440Y0223860D02*
X0394280Y0223860D01*
X0394280Y0224310D02*
X0392440Y0224310D01*
X0392440Y0224760D02*
X0394280Y0224760D01*
X0394280Y0225210D02*
X0392440Y0225210D01*
X0392440Y0225660D02*
X0394280Y0225660D01*
X0394280Y0226110D02*
X0392440Y0226110D01*
X0392440Y0226560D02*
X0394280Y0226560D01*
X0394280Y0227010D02*
X0392440Y0227010D01*
D59*
X0380170Y0197500D03*
X0364820Y0197500D03*
D43*
X0387200Y0169100D03*
X0387200Y0160000D03*
X0387200Y0150900D03*
D149*
X0362800Y0160000D03*
X0362800Y0130000D03*
D39*
X0442500Y0122270D03*
X0447500Y0122270D03*
X0452500Y0122270D03*
X0457500Y0122270D03*
X0457500Y0142740D03*
X0452500Y0142740D03*
X0447500Y0142740D03*
X0442500Y0142740D03*
D43*
X0387200Y0139100D03*
X0387200Y0130000D03*
X0387200Y0120910D03*
D151*
X0438400Y0102210D03*
X0447500Y0102210D03*
X0456590Y0102210D03*
D14*
X0447500Y0077800D03*
D57*
X0545230Y0140180D03*
X0547200Y0140180D03*
X0549170Y0140180D03*
X0551140Y0140180D03*
X0553110Y0140180D03*
X0555070Y0140180D03*
X0557040Y0140180D03*
X0559010Y0140180D03*
X0560980Y0140180D03*
X0562950Y0140180D03*
X0564920Y0140180D03*
X0566890Y0140180D03*
X0568850Y0140180D03*
X0570820Y0140180D03*
X0572790Y0140180D03*
X0574760Y0140180D03*
X0574760Y0174830D03*
X0572790Y0174830D03*
X0570820Y0174830D03*
X0568850Y0174830D03*
X0566890Y0174830D03*
X0564920Y0174830D03*
X0562950Y0174830D03*
X0560980Y0174830D03*
X0559010Y0174830D03*
X0557040Y0174830D03*
X0555070Y0174830D03*
X0553110Y0174830D03*
X0551140Y0174830D03*
X0549170Y0174830D03*
X0547200Y0174830D03*
X0545230Y0174830D03*
D111*
X0542670Y0172270D03*
X0542670Y0170300D03*
X0542670Y0168330D03*
X0542670Y0166360D03*
X0542670Y0164390D03*
X0542670Y0162430D03*
X0542670Y0160460D03*
X0542670Y0158490D03*
X0542670Y0156520D03*
X0542670Y0154550D03*
X0542670Y0152580D03*
X0542670Y0150610D03*
X0542670Y0148650D03*
X0542670Y0146680D03*
X0542670Y0144710D03*
X0542670Y0142740D03*
X0577320Y0142740D03*
X0577320Y0144710D03*
X0577320Y0146680D03*
X0577320Y0148650D03*
X0577320Y0150610D03*
X0577320Y0152580D03*
X0577320Y0154550D03*
X0577320Y0156520D03*
X0577320Y0158490D03*
X0577320Y0160460D03*
X0577320Y0162430D03*
X0577320Y0164390D03*
X0577320Y0166360D03*
X0577320Y0168330D03*
X0577320Y0170300D03*
X0577320Y0172270D03*
D91*
X0560000Y0157500D03*
D88*
X0587440Y0133550D03*
X0590000Y0133550D03*
X0592560Y0133550D03*
X0592560Y0126460D03*
X0590000Y0126460D03*
X0587440Y0126460D03*
D50*
D158*
X0611800Y0123500D03*
D50*
D158*
X0611800Y0133500D03*
D50*
D158*
X0611800Y0143500D03*
D50*
D11*
X0530650Y0151600D03*
X0524350Y0151600D03*
X0524350Y0163410D03*
X0530650Y0163410D03*
D99*
X0379840Y0215180D03*
X0358190Y0214790D03*
X0358190Y0250220D03*
X0379840Y0250220D03*
D90*
X0379840Y0238800D03*
X0379840Y0235650D03*
X0379840Y0232500D03*
X0379840Y0229360D03*
X0379840Y0226210D03*
D79*
X0370000Y0223840D03*
X0370000Y0241170D03*
D137*
X0457770Y0226240D03*
X0457770Y0222500D03*
X0457770Y0218760D03*
X0467220Y0218760D03*
X0467220Y0222500D03*
X0467220Y0226240D03*
X0472770Y0208740D03*
X0472770Y0205000D03*
X0472770Y0201260D03*
X0482220Y0201260D03*
X0482220Y0205000D03*
X0482220Y0208740D03*
X0500270Y0208740D03*
X0500270Y0205000D03*
X0500270Y0201260D03*
X0509720Y0201260D03*
X0509720Y0205000D03*
X0509720Y0208740D03*
X0520270Y0218760D03*
X0520270Y0222500D03*
X0520270Y0226240D03*
X0529720Y0226240D03*
X0529720Y0222500D03*
X0529720Y0218760D03*
X0527770Y0208740D03*
X0527770Y0205000D03*
X0527770Y0201260D03*
X0537220Y0201260D03*
X0537220Y0205000D03*
X0537220Y0208740D03*
X0555270Y0208740D03*
X0555270Y0205000D03*
X0555270Y0201260D03*
X0564720Y0201260D03*
X0564720Y0205000D03*
X0564720Y0208740D03*
X0582770Y0208740D03*
X0582770Y0205000D03*
X0582770Y0201260D03*
X0592220Y0201260D03*
X0592220Y0205000D03*
X0592220Y0208740D03*
X0595270Y0218760D03*
X0595270Y0222500D03*
X0595270Y0226240D03*
X0604720Y0226240D03*
X0604720Y0222500D03*
X0604720Y0218760D03*
X0574720Y0116240D03*
X0574720Y0112500D03*
X0574720Y0108760D03*
X0565270Y0108760D03*
X0565270Y0112500D03*
X0565270Y0116240D03*
X0554720Y0116240D03*
X0554720Y0112500D03*
X0554720Y0108760D03*
X0545270Y0108760D03*
X0545270Y0112500D03*
X0545270Y0116240D03*
X0534720Y0116240D03*
X0534720Y0112500D03*
X0534720Y0108760D03*
X0525270Y0108760D03*
X0525270Y0112500D03*
X0525270Y0116240D03*
X0514720Y0116240D03*
X0514720Y0112500D03*
X0514720Y0108760D03*
X0505270Y0108760D03*
X0505270Y0112500D03*
X0505270Y0116240D03*
D58*
X0440110Y0166260D03*
X0440110Y0173740D03*
X0429920Y0173740D03*
X0429920Y0170000D03*
X0429920Y0166260D03*
D114*
X0467500Y0160810D03*
X0467500Y0174200D03*
D97*
X0492770Y0229360D03*
X0495920Y0229360D03*
X0499070Y0229360D03*
X0502220Y0229360D03*
X0502220Y0235650D03*
X0499070Y0235650D03*
X0495920Y0235650D03*
X0492770Y0235650D03*
X0510270Y0234360D03*
X0513420Y0234360D03*
X0516570Y0234360D03*
X0519720Y0234360D03*
X0519720Y0240650D03*
X0516570Y0240650D03*
X0513420Y0240650D03*
X0510270Y0240650D03*
X0540270Y0238150D03*
X0543420Y0238150D03*
X0546570Y0238150D03*
X0549720Y0238150D03*
X0549720Y0231860D03*
X0546570Y0231860D03*
X0543420Y0231860D03*
X0540270Y0231860D03*
X0567770Y0231860D03*
X0570920Y0231860D03*
X0574070Y0231860D03*
X0577220Y0231860D03*
X0577220Y0238150D03*
X0574070Y0238150D03*
X0570920Y0238150D03*
X0567770Y0238150D03*
X0557220Y0100650D03*
X0554070Y0100650D03*
X0550920Y0100650D03*
X0547770Y0100650D03*
X0547770Y0094360D03*
X0550920Y0094360D03*
X0554070Y0094360D03*
X0557220Y0094360D03*
X0539720Y0095650D03*
X0536570Y0095650D03*
X0533420Y0095650D03*
X0530270Y0095650D03*
X0530270Y0089360D03*
X0533420Y0089360D03*
X0536570Y0089360D03*
X0539720Y0089360D03*
X0350000Y0270000D02*
G75*
%LPD*%
X0350000Y0290000D02*
G75*
%LPD*%
D152*
X0410000Y0490000D03*
X0610000Y0430000D03*
X0610000Y0320000D03*
D33*
X0600000Y0300000D03*
X0590000Y0300000D03*
X0580000Y0300000D03*
X0570000Y0300000D03*
X0560000Y0300000D03*
X0530000Y0300000D03*
X0520000Y0300000D03*
X0510000Y0300000D03*
X0500000Y0300000D03*
X0490000Y0300000D03*
X0587500Y0340000D03*
X0600550Y0389810D03*
X0610550Y0389810D03*
X0610550Y0399810D03*
X0600550Y0399810D03*
X0600550Y0409810D03*
X0610550Y0409810D03*
X0590000Y0490000D03*
X0580000Y0490000D03*
X0570000Y0490000D03*
X0560000Y0490000D03*
X0550000Y0490000D03*
X0540000Y0490000D03*
X0530000Y0490000D03*
X0504000Y0490000D03*
X0494000Y0490000D03*
X0484000Y0490000D03*
X0474000Y0490000D03*
X0464000Y0490000D03*
X0454000Y0490000D03*
X0444000Y0490000D03*
X0474000Y0477500D03*
X0484000Y0477500D03*
D29*
X0425340Y0468000D03*
X0418650Y0468000D03*
X0410340Y0468000D03*
X0403650Y0468000D03*
X0406650Y0407500D03*
X0413340Y0407500D03*
X0393340Y0407500D03*
X0386650Y0407500D03*
X0439150Y0382500D03*
X0445840Y0382500D03*
X0475000Y0365850D03*
X0475000Y0359160D03*
X0465000Y0345850D03*
X0465000Y0339160D03*
X0511650Y0385000D03*
X0511650Y0390000D03*
X0518340Y0390000D03*
X0518340Y0385000D03*
X0518340Y0402500D03*
X0511650Y0402500D03*
X0574150Y0362500D03*
X0580840Y0362500D03*
X0580840Y0357500D03*
X0574150Y0357500D03*
X0584150Y0380000D03*
X0590840Y0380000D03*
X0590800Y0409860D03*
X0590800Y0416550D03*
D120*
X0600000Y0490000D03*
X0514000Y0490000D03*
X0464000Y0477500D03*
X0597500Y0340000D03*
X0550000Y0300000D03*
X0480000Y0300000D03*
D103*
X0415510Y0340000D03*
X0404480Y0340000D03*
X0404480Y0352500D03*
X0415510Y0352500D03*
X0415510Y0365000D03*
X0404480Y0365000D03*
D62*
X0406650Y0375000D03*
X0413340Y0375000D03*
X0413340Y0382500D03*
X0406650Y0382500D03*
X0406650Y0415000D03*
X0413340Y0415000D03*
X0439150Y0425000D03*
X0445840Y0425000D03*
X0445840Y0447500D03*
X0439150Y0447500D03*
X0439150Y0462500D03*
X0445840Y0462500D03*
X0522500Y0367850D03*
X0527500Y0367850D03*
X0532500Y0367850D03*
X0532500Y0361160D03*
X0527500Y0361160D03*
X0522500Y0361160D03*
X0465500Y0359160D03*
X0465500Y0365850D03*
X0590750Y0422400D03*
X0597440Y0422400D03*
D22*
X0585450Y0422500D03*
X0585450Y0417500D03*
X0579540Y0417500D03*
X0579540Y0422500D03*
X0472500Y0345460D03*
X0472500Y0339550D03*
X0445450Y0432500D03*
X0439540Y0432500D03*
X0439540Y0440000D03*
X0445450Y0440000D03*
X0445450Y0455000D03*
X0439540Y0455000D03*
D60*
X0415000Y0321170D03*
X0415000Y0303840D03*
D87*
X0384200Y0303000D03*
X0396000Y0322700D03*
X0372400Y0322700D03*
D115*
X0392440Y0422610D02*
X0394280Y0422610D01*
X0392440Y0422610D02*
X0392440Y0428850D01*
X0394280Y0428850D01*
X0394280Y0422610D01*
X0394280Y0423060D02*
X0392440Y0423060D01*
X0392440Y0423510D02*
X0394280Y0423510D01*
X0394280Y0423960D02*
X0392440Y0423960D01*
X0392440Y0424410D02*
X0394280Y0424410D01*
X0394280Y0424860D02*
X0392440Y0424860D01*
X0392440Y0425310D02*
X0394280Y0425310D01*
X0394280Y0425760D02*
X0392440Y0425760D01*
X0392440Y0426210D02*
X0394280Y0426210D01*
X0394280Y0426660D02*
X0392440Y0426660D01*
X0392440Y0427110D02*
X0394280Y0427110D01*
X0394280Y0427560D02*
X0392440Y0427560D01*
X0392440Y0428010D02*
X0394280Y0428010D01*
X0394280Y0428460D02*
X0392440Y0428460D01*
X0395000Y0422610D02*
X0396840Y0422610D01*
X0395000Y0422610D02*
X0395000Y0428850D01*
X0396840Y0428850D01*
X0396840Y0422610D01*
X0396840Y0423060D02*
X0395000Y0423060D01*
X0395000Y0423510D02*
X0396840Y0423510D01*
X0396840Y0423960D02*
X0395000Y0423960D01*
X0395000Y0424410D02*
X0396840Y0424410D01*
X0396840Y0424860D02*
X0395000Y0424860D01*
X0395000Y0425310D02*
X0396840Y0425310D01*
X0396840Y0425760D02*
X0395000Y0425760D01*
X0395000Y0426210D02*
X0396840Y0426210D01*
X0396840Y0426660D02*
X0395000Y0426660D01*
X0395000Y0427110D02*
X0396840Y0427110D01*
X0396840Y0427560D02*
X0395000Y0427560D01*
X0395000Y0428010D02*
X0396840Y0428010D01*
X0396840Y0428460D02*
X0395000Y0428460D01*
X0397560Y0422610D02*
X0399400Y0422610D01*
X0397560Y0422610D02*
X0397560Y0428850D01*
X0399400Y0428850D01*
X0399400Y0422610D01*
X0399400Y0423060D02*
X0397560Y0423060D01*
X0397560Y0423510D02*
X0399400Y0423510D01*
X0399400Y0423960D02*
X0397560Y0423960D01*
X0397560Y0424410D02*
X0399400Y0424410D01*
X0399400Y0424860D02*
X0397560Y0424860D01*
X0397560Y0425310D02*
X0399400Y0425310D01*
X0399400Y0425760D02*
X0397560Y0425760D01*
X0397560Y0426210D02*
X0399400Y0426210D01*
X0399400Y0426660D02*
X0397560Y0426660D01*
X0397560Y0427110D02*
X0399400Y0427110D01*
X0399400Y0427560D02*
X0397560Y0427560D01*
X0397560Y0428010D02*
X0399400Y0428010D01*
X0399400Y0428460D02*
X0397560Y0428460D01*
X0400120Y0422610D02*
X0401960Y0422610D01*
X0400120Y0422610D02*
X0400120Y0428850D01*
X0401960Y0428850D01*
X0401960Y0422610D01*
X0401960Y0423060D02*
X0400120Y0423060D01*
X0400120Y0423510D02*
X0401960Y0423510D01*
X0401960Y0423960D02*
X0400120Y0423960D01*
X0400120Y0424410D02*
X0401960Y0424410D01*
X0401960Y0424860D02*
X0400120Y0424860D01*
X0400120Y0425310D02*
X0401960Y0425310D01*
X0401960Y0425760D02*
X0400120Y0425760D01*
X0400120Y0426210D02*
X0401960Y0426210D01*
X0401960Y0426660D02*
X0400120Y0426660D01*
X0400120Y0427110D02*
X0401960Y0427110D01*
X0401960Y0427560D02*
X0400120Y0427560D01*
X0400120Y0428010D02*
X0401960Y0428010D01*
X0401960Y0428460D02*
X0400120Y0428460D01*
X0402680Y0422610D02*
X0404520Y0422610D01*
X0402680Y0422610D02*
X0402680Y0428850D01*
X0404520Y0428850D01*
X0404520Y0422610D01*
X0404520Y0423060D02*
X0402680Y0423060D01*
X0402680Y0423510D02*
X0404520Y0423510D01*
X0404520Y0423960D02*
X0402680Y0423960D01*
X0402680Y0424410D02*
X0404520Y0424410D01*
X0404520Y0424860D02*
X0402680Y0424860D01*
X0402680Y0425310D02*
X0404520Y0425310D01*
X0404520Y0425760D02*
X0402680Y0425760D01*
X0402680Y0426210D02*
X0404520Y0426210D01*
X0404520Y0426660D02*
X0402680Y0426660D01*
X0402680Y0427110D02*
X0404520Y0427110D01*
X0404520Y0427560D02*
X0402680Y0427560D01*
X0402680Y0428010D02*
X0404520Y0428010D01*
X0404520Y0428460D02*
X0402680Y0428460D01*
X0405240Y0422610D02*
X0407080Y0422610D01*
X0405240Y0422610D02*
X0405240Y0428850D01*
X0407080Y0428850D01*
X0407080Y0422610D01*
X0407080Y0423060D02*
X0405240Y0423060D01*
X0405240Y0423510D02*
X0407080Y0423510D01*
X0407080Y0423960D02*
X0405240Y0423960D01*
X0405240Y0424410D02*
X0407080Y0424410D01*
X0407080Y0424860D02*
X0405240Y0424860D01*
X0405240Y0425310D02*
X0407080Y0425310D01*
X0407080Y0425760D02*
X0405240Y0425760D01*
X0405240Y0426210D02*
X0407080Y0426210D01*
X0407080Y0426660D02*
X0405240Y0426660D01*
X0405240Y0427110D02*
X0407080Y0427110D01*
X0407080Y0427560D02*
X0405240Y0427560D01*
X0405240Y0428010D02*
X0407080Y0428010D01*
X0407080Y0428460D02*
X0405240Y0428460D01*
X0407800Y0422610D02*
X0409640Y0422610D01*
X0407800Y0422610D02*
X0407800Y0428850D01*
X0409640Y0428850D01*
X0409640Y0422610D01*
X0409640Y0423060D02*
X0407800Y0423060D01*
X0407800Y0423510D02*
X0409640Y0423510D01*
X0409640Y0423960D02*
X0407800Y0423960D01*
X0407800Y0424410D02*
X0409640Y0424410D01*
X0409640Y0424860D02*
X0407800Y0424860D01*
X0407800Y0425310D02*
X0409640Y0425310D01*
X0409640Y0425760D02*
X0407800Y0425760D01*
X0407800Y0426210D02*
X0409640Y0426210D01*
X0409640Y0426660D02*
X0407800Y0426660D01*
X0407800Y0427110D02*
X0409640Y0427110D01*
X0409640Y0427560D02*
X0407800Y0427560D01*
X0407800Y0428010D02*
X0409640Y0428010D01*
X0409640Y0428460D02*
X0407800Y0428460D01*
X0410360Y0422610D02*
X0412200Y0422610D01*
X0410360Y0422610D02*
X0410360Y0428850D01*
X0412200Y0428850D01*
X0412200Y0422610D01*
X0412200Y0423060D02*
X0410360Y0423060D01*
X0410360Y0423510D02*
X0412200Y0423510D01*
X0412200Y0423960D02*
X0410360Y0423960D01*
X0410360Y0424410D02*
X0412200Y0424410D01*
X0412200Y0424860D02*
X0410360Y0424860D01*
X0410360Y0425310D02*
X0412200Y0425310D01*
X0412200Y0425760D02*
X0410360Y0425760D01*
X0410360Y0426210D02*
X0412200Y0426210D01*
X0412200Y0426660D02*
X0410360Y0426660D01*
X0410360Y0427110D02*
X0412200Y0427110D01*
X0412200Y0427560D02*
X0410360Y0427560D01*
X0410360Y0428010D02*
X0412200Y0428010D01*
X0412200Y0428460D02*
X0410360Y0428460D01*
X0412910Y0422610D02*
X0414750Y0422610D01*
X0412910Y0422610D02*
X0412910Y0428850D01*
X0414750Y0428850D01*
X0414750Y0422610D01*
X0414750Y0423060D02*
X0412910Y0423060D01*
X0412910Y0423510D02*
X0414750Y0423510D01*
X0414750Y0423960D02*
X0412910Y0423960D01*
X0412910Y0424410D02*
X0414750Y0424410D01*
X0414750Y0424860D02*
X0412910Y0424860D01*
X0412910Y0425310D02*
X0414750Y0425310D01*
X0414750Y0425760D02*
X0412910Y0425760D01*
X0412910Y0426210D02*
X0414750Y0426210D01*
X0414750Y0426660D02*
X0412910Y0426660D01*
X0412910Y0427110D02*
X0414750Y0427110D01*
X0414750Y0427560D02*
X0412910Y0427560D01*
X0412910Y0428010D02*
X0414750Y0428010D01*
X0414750Y0428460D02*
X0412910Y0428460D01*
X0415470Y0422610D02*
X0417310Y0422610D01*
X0415470Y0422610D02*
X0415470Y0428850D01*
X0417310Y0428850D01*
X0417310Y0422610D01*
X0417310Y0423060D02*
X0415470Y0423060D01*
X0415470Y0423510D02*
X0417310Y0423510D01*
X0417310Y0423960D02*
X0415470Y0423960D01*
X0415470Y0424410D02*
X0417310Y0424410D01*
X0417310Y0424860D02*
X0415470Y0424860D01*
X0415470Y0425310D02*
X0417310Y0425310D01*
X0417310Y0425760D02*
X0415470Y0425760D01*
X0415470Y0426210D02*
X0417310Y0426210D01*
X0417310Y0426660D02*
X0415470Y0426660D01*
X0415470Y0427110D02*
X0417310Y0427110D01*
X0417310Y0427560D02*
X0415470Y0427560D01*
X0415470Y0428010D02*
X0417310Y0428010D01*
X0417310Y0428460D02*
X0415470Y0428460D01*
X0418030Y0422610D02*
X0419870Y0422610D01*
X0418030Y0422610D02*
X0418030Y0428850D01*
X0419870Y0428850D01*
X0419870Y0422610D01*
X0419870Y0423060D02*
X0418030Y0423060D01*
X0418030Y0423510D02*
X0419870Y0423510D01*
X0419870Y0423960D02*
X0418030Y0423960D01*
X0418030Y0424410D02*
X0419870Y0424410D01*
X0419870Y0424860D02*
X0418030Y0424860D01*
X0418030Y0425310D02*
X0419870Y0425310D01*
X0419870Y0425760D02*
X0418030Y0425760D01*
X0418030Y0426210D02*
X0419870Y0426210D01*
X0419870Y0426660D02*
X0418030Y0426660D01*
X0418030Y0427110D02*
X0419870Y0427110D01*
X0419870Y0427560D02*
X0418030Y0427560D01*
X0418030Y0428010D02*
X0419870Y0428010D01*
X0419870Y0428460D02*
X0418030Y0428460D01*
X0420590Y0422610D02*
X0422430Y0422610D01*
X0420590Y0422610D02*
X0420590Y0428850D01*
X0422430Y0428850D01*
X0422430Y0422610D01*
X0422430Y0423060D02*
X0420590Y0423060D01*
X0420590Y0423510D02*
X0422430Y0423510D01*
X0422430Y0423960D02*
X0420590Y0423960D01*
X0420590Y0424410D02*
X0422430Y0424410D01*
X0422430Y0424860D02*
X0420590Y0424860D01*
X0420590Y0425310D02*
X0422430Y0425310D01*
X0422430Y0425760D02*
X0420590Y0425760D01*
X0420590Y0426210D02*
X0422430Y0426210D01*
X0422430Y0426660D02*
X0420590Y0426660D01*
X0420590Y0427110D02*
X0422430Y0427110D01*
X0422430Y0427560D02*
X0420590Y0427560D01*
X0420590Y0428010D02*
X0422430Y0428010D01*
X0422430Y0428460D02*
X0420590Y0428460D01*
X0423150Y0422610D02*
X0424990Y0422610D01*
X0423150Y0422610D02*
X0423150Y0428850D01*
X0424990Y0428850D01*
X0424990Y0422610D01*
X0424990Y0423060D02*
X0423150Y0423060D01*
X0423150Y0423510D02*
X0424990Y0423510D01*
X0424990Y0423960D02*
X0423150Y0423960D01*
X0423150Y0424410D02*
X0424990Y0424410D01*
X0424990Y0424860D02*
X0423150Y0424860D01*
X0423150Y0425310D02*
X0424990Y0425310D01*
X0424990Y0425760D02*
X0423150Y0425760D01*
X0423150Y0426210D02*
X0424990Y0426210D01*
X0424990Y0426660D02*
X0423150Y0426660D01*
X0423150Y0427110D02*
X0424990Y0427110D01*
X0424990Y0427560D02*
X0423150Y0427560D01*
X0423150Y0428010D02*
X0424990Y0428010D01*
X0424990Y0428460D02*
X0423150Y0428460D01*
X0425710Y0422610D02*
X0427550Y0422610D01*
X0425710Y0422610D02*
X0425710Y0428850D01*
X0427550Y0428850D01*
X0427550Y0422610D01*
X0427550Y0423060D02*
X0425710Y0423060D01*
X0425710Y0423510D02*
X0427550Y0423510D01*
X0427550Y0423960D02*
X0425710Y0423960D01*
X0425710Y0424410D02*
X0427550Y0424410D01*
X0427550Y0424860D02*
X0425710Y0424860D01*
X0425710Y0425310D02*
X0427550Y0425310D01*
X0427550Y0425760D02*
X0425710Y0425760D01*
X0425710Y0426210D02*
X0427550Y0426210D01*
X0427550Y0426660D02*
X0425710Y0426660D01*
X0425710Y0427110D02*
X0427550Y0427110D01*
X0427550Y0427560D02*
X0425710Y0427560D01*
X0425710Y0428010D02*
X0427550Y0428010D01*
X0427550Y0428460D02*
X0425710Y0428460D01*
X0425710Y0451160D02*
X0427550Y0451160D01*
X0425710Y0451160D02*
X0425710Y0457400D01*
X0427550Y0457400D01*
X0427550Y0451160D01*
X0427550Y0451610D02*
X0425710Y0451610D01*
X0425710Y0452060D02*
X0427550Y0452060D01*
X0427550Y0452510D02*
X0425710Y0452510D01*
X0425710Y0452960D02*
X0427550Y0452960D01*
X0427550Y0453410D02*
X0425710Y0453410D01*
X0425710Y0453860D02*
X0427550Y0453860D01*
X0427550Y0454310D02*
X0425710Y0454310D01*
X0425710Y0454760D02*
X0427550Y0454760D01*
X0427550Y0455210D02*
X0425710Y0455210D01*
X0425710Y0455660D02*
X0427550Y0455660D01*
X0427550Y0456110D02*
X0425710Y0456110D01*
X0425710Y0456560D02*
X0427550Y0456560D01*
X0427550Y0457010D02*
X0425710Y0457010D01*
X0424990Y0451160D02*
X0423150Y0451160D01*
X0423150Y0457400D01*
X0424990Y0457400D01*
X0424990Y0451160D01*
X0424990Y0451610D02*
X0423150Y0451610D01*
X0423150Y0452060D02*
X0424990Y0452060D01*
X0424990Y0452510D02*
X0423150Y0452510D01*
X0423150Y0452960D02*
X0424990Y0452960D01*
X0424990Y0453410D02*
X0423150Y0453410D01*
X0423150Y0453860D02*
X0424990Y0453860D01*
X0424990Y0454310D02*
X0423150Y0454310D01*
X0423150Y0454760D02*
X0424990Y0454760D01*
X0424990Y0455210D02*
X0423150Y0455210D01*
X0423150Y0455660D02*
X0424990Y0455660D01*
X0424990Y0456110D02*
X0423150Y0456110D01*
X0423150Y0456560D02*
X0424990Y0456560D01*
X0424990Y0457010D02*
X0423150Y0457010D01*
X0422430Y0451160D02*
X0420590Y0451160D01*
X0420590Y0457400D01*
X0422430Y0457400D01*
X0422430Y0451160D01*
X0422430Y0451610D02*
X0420590Y0451610D01*
X0420590Y0452060D02*
X0422430Y0452060D01*
X0422430Y0452510D02*
X0420590Y0452510D01*
X0420590Y0452960D02*
X0422430Y0452960D01*
X0422430Y0453410D02*
X0420590Y0453410D01*
X0420590Y0453860D02*
X0422430Y0453860D01*
X0422430Y0454310D02*
X0420590Y0454310D01*
X0420590Y0454760D02*
X0422430Y0454760D01*
X0422430Y0455210D02*
X0420590Y0455210D01*
X0420590Y0455660D02*
X0422430Y0455660D01*
X0422430Y0456110D02*
X0420590Y0456110D01*
X0420590Y0456560D02*
X0422430Y0456560D01*
X0422430Y0457010D02*
X0420590Y0457010D01*
X0419870Y0451160D02*
X0418030Y0451160D01*
X0418030Y0457400D01*
X0419870Y0457400D01*
X0419870Y0451160D01*
X0419870Y0451610D02*
X0418030Y0451610D01*
X0418030Y0452060D02*
X0419870Y0452060D01*
X0419870Y0452510D02*
X0418030Y0452510D01*
X0418030Y0452960D02*
X0419870Y0452960D01*
X0419870Y0453410D02*
X0418030Y0453410D01*
X0418030Y0453860D02*
X0419870Y0453860D01*
X0419870Y0454310D02*
X0418030Y0454310D01*
X0418030Y0454760D02*
X0419870Y0454760D01*
X0419870Y0455210D02*
X0418030Y0455210D01*
X0418030Y0455660D02*
X0419870Y0455660D01*
X0419870Y0456110D02*
X0418030Y0456110D01*
X0418030Y0456560D02*
X0419870Y0456560D01*
X0419870Y0457010D02*
X0418030Y0457010D01*
X0417310Y0451160D02*
X0415470Y0451160D01*
X0415470Y0457400D01*
X0417310Y0457400D01*
X0417310Y0451160D01*
X0417310Y0451610D02*
X0415470Y0451610D01*
X0415470Y0452060D02*
X0417310Y0452060D01*
X0417310Y0452510D02*
X0415470Y0452510D01*
X0415470Y0452960D02*
X0417310Y0452960D01*
X0417310Y0453410D02*
X0415470Y0453410D01*
X0415470Y0453860D02*
X0417310Y0453860D01*
X0417310Y0454310D02*
X0415470Y0454310D01*
X0415470Y0454760D02*
X0417310Y0454760D01*
X0417310Y0455210D02*
X0415470Y0455210D01*
X0415470Y0455660D02*
X0417310Y0455660D01*
X0417310Y0456110D02*
X0415470Y0456110D01*
X0415470Y0456560D02*
X0417310Y0456560D01*
X0417310Y0457010D02*
X0415470Y0457010D01*
X0414750Y0451160D02*
X0412910Y0451160D01*
X0412910Y0457400D01*
X0414750Y0457400D01*
X0414750Y0451160D01*
X0414750Y0451610D02*
X0412910Y0451610D01*
X0412910Y0452060D02*
X0414750Y0452060D01*
X0414750Y0452510D02*
X0412910Y0452510D01*
X0412910Y0452960D02*
X0414750Y0452960D01*
X0414750Y0453410D02*
X0412910Y0453410D01*
X0412910Y0453860D02*
X0414750Y0453860D01*
X0414750Y0454310D02*
X0412910Y0454310D01*
X0412910Y0454760D02*
X0414750Y0454760D01*
X0414750Y0455210D02*
X0412910Y0455210D01*
X0412910Y0455660D02*
X0414750Y0455660D01*
X0414750Y0456110D02*
X0412910Y0456110D01*
X0412910Y0456560D02*
X0414750Y0456560D01*
X0414750Y0457010D02*
X0412910Y0457010D01*
X0412200Y0451160D02*
X0410360Y0451160D01*
X0410360Y0457400D01*
X0412200Y0457400D01*
X0412200Y0451160D01*
X0412200Y0451610D02*
X0410360Y0451610D01*
X0410360Y0452060D02*
X0412200Y0452060D01*
X0412200Y0452510D02*
X0410360Y0452510D01*
X0410360Y0452960D02*
X0412200Y0452960D01*
X0412200Y0453410D02*
X0410360Y0453410D01*
X0410360Y0453860D02*
X0412200Y0453860D01*
X0412200Y0454310D02*
X0410360Y0454310D01*
X0410360Y0454760D02*
X0412200Y0454760D01*
X0412200Y0455210D02*
X0410360Y0455210D01*
X0410360Y0455660D02*
X0412200Y0455660D01*
X0412200Y0456110D02*
X0410360Y0456110D01*
X0410360Y0456560D02*
X0412200Y0456560D01*
X0412200Y0457010D02*
X0410360Y0457010D01*
X0409640Y0451160D02*
X0407800Y0451160D01*
X0407800Y0457400D01*
X0409640Y0457400D01*
X0409640Y0451160D01*
X0409640Y0451610D02*
X0407800Y0451610D01*
X0407800Y0452060D02*
X0409640Y0452060D01*
X0409640Y0452510D02*
X0407800Y0452510D01*
X0407800Y0452960D02*
X0409640Y0452960D01*
X0409640Y0453410D02*
X0407800Y0453410D01*
X0407800Y0453860D02*
X0409640Y0453860D01*
X0409640Y0454310D02*
X0407800Y0454310D01*
X0407800Y0454760D02*
X0409640Y0454760D01*
X0409640Y0455210D02*
X0407800Y0455210D01*
X0407800Y0455660D02*
X0409640Y0455660D01*
X0409640Y0456110D02*
X0407800Y0456110D01*
X0407800Y0456560D02*
X0409640Y0456560D01*
X0409640Y0457010D02*
X0407800Y0457010D01*
X0407080Y0451160D02*
X0405240Y0451160D01*
X0405240Y0457400D01*
X0407080Y0457400D01*
X0407080Y0451160D01*
X0407080Y0451610D02*
X0405240Y0451610D01*
X0405240Y0452060D02*
X0407080Y0452060D01*
X0407080Y0452510D02*
X0405240Y0452510D01*
X0405240Y0452960D02*
X0407080Y0452960D01*
X0407080Y0453410D02*
X0405240Y0453410D01*
X0405240Y0453860D02*
X0407080Y0453860D01*
X0407080Y0454310D02*
X0405240Y0454310D01*
X0405240Y0454760D02*
X0407080Y0454760D01*
X0407080Y0455210D02*
X0405240Y0455210D01*
X0405240Y0455660D02*
X0407080Y0455660D01*
X0407080Y0456110D02*
X0405240Y0456110D01*
X0405240Y0456560D02*
X0407080Y0456560D01*
X0407080Y0457010D02*
X0405240Y0457010D01*
X0404520Y0451160D02*
X0402680Y0451160D01*
X0402680Y0457400D01*
X0404520Y0457400D01*
X0404520Y0451160D01*
X0404520Y0451610D02*
X0402680Y0451610D01*
X0402680Y0452060D02*
X0404520Y0452060D01*
X0404520Y0452510D02*
X0402680Y0452510D01*
X0402680Y0452960D02*
X0404520Y0452960D01*
X0404520Y0453410D02*
X0402680Y0453410D01*
X0402680Y0453860D02*
X0404520Y0453860D01*
X0404520Y0454310D02*
X0402680Y0454310D01*
X0402680Y0454760D02*
X0404520Y0454760D01*
X0404520Y0455210D02*
X0402680Y0455210D01*
X0402680Y0455660D02*
X0404520Y0455660D01*
X0404520Y0456110D02*
X0402680Y0456110D01*
X0402680Y0456560D02*
X0404520Y0456560D01*
X0404520Y0457010D02*
X0402680Y0457010D01*
X0401960Y0451160D02*
X0400120Y0451160D01*
X0400120Y0457400D01*
X0401960Y0457400D01*
X0401960Y0451160D01*
X0401960Y0451610D02*
X0400120Y0451610D01*
X0400120Y0452060D02*
X0401960Y0452060D01*
X0401960Y0452510D02*
X0400120Y0452510D01*
X0400120Y0452960D02*
X0401960Y0452960D01*
X0401960Y0453410D02*
X0400120Y0453410D01*
X0400120Y0453860D02*
X0401960Y0453860D01*
X0401960Y0454310D02*
X0400120Y0454310D01*
X0400120Y0454760D02*
X0401960Y0454760D01*
X0401960Y0455210D02*
X0400120Y0455210D01*
X0400120Y0455660D02*
X0401960Y0455660D01*
X0401960Y0456110D02*
X0400120Y0456110D01*
X0400120Y0456560D02*
X0401960Y0456560D01*
X0401960Y0457010D02*
X0400120Y0457010D01*
X0399400Y0451160D02*
X0397560Y0451160D01*
X0397560Y0457400D01*
X0399400Y0457400D01*
X0399400Y0451160D01*
X0399400Y0451610D02*
X0397560Y0451610D01*
X0397560Y0452060D02*
X0399400Y0452060D01*
X0399400Y0452510D02*
X0397560Y0452510D01*
X0397560Y0452960D02*
X0399400Y0452960D01*
X0399400Y0453410D02*
X0397560Y0453410D01*
X0397560Y0453860D02*
X0399400Y0453860D01*
X0399400Y0454310D02*
X0397560Y0454310D01*
X0397560Y0454760D02*
X0399400Y0454760D01*
X0399400Y0455210D02*
X0397560Y0455210D01*
X0397560Y0455660D02*
X0399400Y0455660D01*
X0399400Y0456110D02*
X0397560Y0456110D01*
X0397560Y0456560D02*
X0399400Y0456560D01*
X0399400Y0457010D02*
X0397560Y0457010D01*
X0396840Y0451160D02*
X0395000Y0451160D01*
X0395000Y0457400D01*
X0396840Y0457400D01*
X0396840Y0451160D01*
X0396840Y0451610D02*
X0395000Y0451610D01*
X0395000Y0452060D02*
X0396840Y0452060D01*
X0396840Y0452510D02*
X0395000Y0452510D01*
X0395000Y0452960D02*
X0396840Y0452960D01*
X0396840Y0453410D02*
X0395000Y0453410D01*
X0395000Y0453860D02*
X0396840Y0453860D01*
X0396840Y0454310D02*
X0395000Y0454310D01*
X0395000Y0454760D02*
X0396840Y0454760D01*
X0396840Y0455210D02*
X0395000Y0455210D01*
X0395000Y0455660D02*
X0396840Y0455660D01*
X0396840Y0456110D02*
X0395000Y0456110D01*
X0395000Y0456560D02*
X0396840Y0456560D01*
X0396840Y0457010D02*
X0395000Y0457010D01*
X0394280Y0451160D02*
X0392440Y0451160D01*
X0392440Y0457400D01*
X0394280Y0457400D01*
X0394280Y0451160D01*
X0394280Y0451610D02*
X0392440Y0451610D01*
X0392440Y0452060D02*
X0394280Y0452060D01*
X0394280Y0452510D02*
X0392440Y0452510D01*
X0392440Y0452960D02*
X0394280Y0452960D01*
X0394280Y0453410D02*
X0392440Y0453410D01*
X0392440Y0453860D02*
X0394280Y0453860D01*
X0394280Y0454310D02*
X0392440Y0454310D01*
X0392440Y0454760D02*
X0394280Y0454760D01*
X0394280Y0455210D02*
X0392440Y0455210D01*
X0392440Y0455660D02*
X0394280Y0455660D01*
X0394280Y0456110D02*
X0392440Y0456110D01*
X0392440Y0456560D02*
X0394280Y0456560D01*
X0394280Y0457010D02*
X0392440Y0457010D01*
D59*
X0380170Y0427500D03*
X0364820Y0427500D03*
D43*
X0387200Y0399100D03*
X0387200Y0390000D03*
X0387200Y0380900D03*
D149*
X0362800Y0390000D03*
X0362800Y0360000D03*
D39*
X0442500Y0352270D03*
X0447500Y0352270D03*
X0452500Y0352270D03*
X0457500Y0352270D03*
X0457500Y0372740D03*
X0452500Y0372740D03*
X0447500Y0372740D03*
X0442500Y0372740D03*
D43*
X0387200Y0369100D03*
X0387200Y0360000D03*
X0387200Y0350910D03*
D151*
X0438400Y0332210D03*
X0447500Y0332210D03*
X0456590Y0332210D03*
D14*
X0447500Y0307800D03*
D57*
X0545230Y0370180D03*
X0547200Y0370180D03*
X0549170Y0370180D03*
X0551140Y0370180D03*
X0553110Y0370180D03*
X0555070Y0370180D03*
X0557040Y0370180D03*
X0559010Y0370180D03*
X0560980Y0370180D03*
X0562950Y0370180D03*
X0564920Y0370180D03*
X0566890Y0370180D03*
X0568850Y0370180D03*
X0570820Y0370180D03*
X0572790Y0370180D03*
X0574760Y0370180D03*
X0574760Y0404830D03*
X0572790Y0404830D03*
X0570820Y0404830D03*
X0568850Y0404830D03*
X0566890Y0404830D03*
X0564920Y0404830D03*
X0562950Y0404830D03*
X0560980Y0404830D03*
X0559010Y0404830D03*
X0557040Y0404830D03*
X0555070Y0404830D03*
X0553110Y0404830D03*
X0551140Y0404830D03*
X0549170Y0404830D03*
X0547200Y0404830D03*
X0545230Y0404830D03*
D111*
X0542670Y0402270D03*
X0542670Y0400300D03*
X0542670Y0398330D03*
X0542670Y0396360D03*
X0542670Y0394390D03*
X0542670Y0392430D03*
X0542670Y0390460D03*
X0542670Y0388490D03*
X0542670Y0386520D03*
X0542670Y0384550D03*
X0542670Y0382580D03*
X0542670Y0380610D03*
X0542670Y0378650D03*
X0542670Y0376680D03*
X0542670Y0374710D03*
X0542670Y0372740D03*
X0577320Y0372740D03*
X0577320Y0374710D03*
X0577320Y0376680D03*
X0577320Y0378650D03*
X0577320Y0380610D03*
X0577320Y0382580D03*
X0577320Y0384550D03*
X0577320Y0386520D03*
X0577320Y0388490D03*
X0577320Y0390460D03*
X0577320Y0392430D03*
X0577320Y0394390D03*
X0577320Y0396360D03*
X0577320Y0398330D03*
X0577320Y0400300D03*
X0577320Y0402270D03*
D91*
X0560000Y0387500D03*
D88*
X0587440Y0363550D03*
X0590000Y0363550D03*
X0592560Y0363550D03*
X0592560Y0356460D03*
X0590000Y0356460D03*
X0587440Y0356460D03*
D50*
D158*
X0611800Y0353500D03*
D50*
D158*
X0611800Y0363500D03*
D50*
D158*
X0611800Y0373500D03*
D50*
D11*
X0530650Y0381600D03*
X0524350Y0381600D03*
X0524350Y0393410D03*
X0530650Y0393410D03*
D99*
X0379840Y0445180D03*
X0358190Y0444790D03*
X0358190Y0480220D03*
X0379840Y0480220D03*
D90*
X0379840Y0468800D03*
X0379840Y0465650D03*
X0379840Y0462500D03*
X0379840Y0459360D03*
X0379840Y0456210D03*
D79*
X0370000Y0453840D03*
X0370000Y0471170D03*
D137*
X0457770Y0456240D03*
X0457770Y0452500D03*
X0457770Y0448760D03*
X0467220Y0448760D03*
X0467220Y0452500D03*
X0467220Y0456240D03*
X0472770Y0438740D03*
X0472770Y0435000D03*
X0472770Y0431260D03*
X0482220Y0431260D03*
X0482220Y0435000D03*
X0482220Y0438740D03*
X0500270Y0438740D03*
X0500270Y0435000D03*
X0500270Y0431260D03*
X0509720Y0431260D03*
X0509720Y0435000D03*
X0509720Y0438740D03*
X0520270Y0448760D03*
X0520270Y0452500D03*
X0520270Y0456240D03*
X0529720Y0456240D03*
X0529720Y0452500D03*
X0529720Y0448760D03*
X0527770Y0438740D03*
X0527770Y0435000D03*
X0527770Y0431260D03*
X0537220Y0431260D03*
X0537220Y0435000D03*
X0537220Y0438740D03*
X0555270Y0438740D03*
X0555270Y0435000D03*
X0555270Y0431260D03*
X0564720Y0431260D03*
X0564720Y0435000D03*
X0564720Y0438740D03*
X0582770Y0438740D03*
X0582770Y0435000D03*
X0582770Y0431260D03*
X0592220Y0431260D03*
X0592220Y0435000D03*
X0592220Y0438740D03*
X0595270Y0448760D03*
X0595270Y0452500D03*
X0595270Y0456240D03*
X0604720Y0456240D03*
X0604720Y0452500D03*
X0604720Y0448760D03*
X0574720Y0346240D03*
X0574720Y0342500D03*
X0574720Y0338760D03*
X0565270Y0338760D03*
X0565270Y0342500D03*
X0565270Y0346240D03*
X0554720Y0346240D03*
X0554720Y0342500D03*
X0554720Y0338760D03*
X0545270Y0338760D03*
X0545270Y0342500D03*
X0545270Y0346240D03*
X0534720Y0346240D03*
X0534720Y0342500D03*
X0534720Y0338760D03*
X0525270Y0338760D03*
X0525270Y0342500D03*
X0525270Y0346240D03*
X0514720Y0346240D03*
X0514720Y0342500D03*
X0514720Y0338760D03*
X0505270Y0338760D03*
X0505270Y0342500D03*
X0505270Y0346240D03*
D58*
X0440110Y0396260D03*
X0440110Y0403740D03*
X0429920Y0403740D03*
X0429920Y0400000D03*
X0429920Y0396260D03*
D114*
X0467500Y0390810D03*
X0467500Y0404200D03*
D97*
X0492770Y0459360D03*
X0495920Y0459360D03*
X0499070Y0459360D03*
X0502220Y0459360D03*
X0502220Y0465650D03*
X0499070Y0465650D03*
X0495920Y0465650D03*
X0492770Y0465650D03*
X0510270Y0464360D03*
X0513420Y0464360D03*
X0516570Y0464360D03*
X0519720Y0464360D03*
X0519720Y0470650D03*
X0516570Y0470650D03*
X0513420Y0470650D03*
X0510270Y0470650D03*
X0540270Y0468150D03*
X0543420Y0468150D03*
X0546570Y0468150D03*
X0549720Y0468150D03*
X0549720Y0461860D03*
X0546570Y0461860D03*
X0543420Y0461860D03*
X0540270Y0461860D03*
X0567770Y0461860D03*
X0570920Y0461860D03*
X0574070Y0461860D03*
X0577220Y0461860D03*
X0577220Y0468150D03*
X0574070Y0468150D03*
X0570920Y0468150D03*
X0567770Y0468150D03*
X0557220Y0330650D03*
X0554070Y0330650D03*
X0550920Y0330650D03*
X0547770Y0330650D03*
X0547770Y0324360D03*
X0550920Y0324360D03*
X0554070Y0324360D03*
X0557220Y0324360D03*
X0539720Y0325650D03*
X0536570Y0325650D03*
X0533420Y0325650D03*
X0530270Y0325650D03*
X0530270Y0319360D03*
X0533420Y0319360D03*
X0536570Y0319360D03*
X0539720Y0319360D03*
X0640000Y0060000D02*
G75*
%LPD*%
D152*
X0700000Y0260000D03*
X0900000Y0200000D03*
X0900000Y0090000D03*
D33*
X0890000Y0070000D03*
X0880000Y0070000D03*
X0870000Y0070000D03*
X0860000Y0070000D03*
X0850000Y0070000D03*
X0820000Y0070000D03*
X0810000Y0070000D03*
X0800000Y0070000D03*
X0790000Y0070000D03*
X0780000Y0070000D03*
X0877500Y0110000D03*
X0890550Y0159810D03*
X0900550Y0159810D03*
X0900550Y0169810D03*
X0890550Y0169810D03*
X0890550Y0179810D03*
X0900550Y0179810D03*
X0880000Y0260000D03*
X0870000Y0260000D03*
X0860000Y0260000D03*
X0850000Y0260000D03*
X0840000Y0260000D03*
X0830000Y0260000D03*
X0820000Y0260000D03*
X0794000Y0260000D03*
X0784000Y0260000D03*
X0774000Y0260000D03*
X0764000Y0260000D03*
X0754000Y0260000D03*
X0744000Y0260000D03*
X0734000Y0260000D03*
X0764000Y0247500D03*
X0774000Y0247500D03*
D29*
X0715340Y0238000D03*
X0708650Y0238000D03*
X0700340Y0238000D03*
X0693650Y0238000D03*
X0696650Y0177500D03*
X0703340Y0177500D03*
X0683340Y0177500D03*
X0676650Y0177500D03*
X0729150Y0152500D03*
X0735840Y0152500D03*
X0765000Y0135850D03*
X0765000Y0129160D03*
X0755000Y0115850D03*
X0755000Y0109160D03*
X0801650Y0155000D03*
X0801650Y0160000D03*
X0808340Y0160000D03*
X0808340Y0155000D03*
X0808340Y0172500D03*
X0801650Y0172500D03*
X0864150Y0132500D03*
X0870840Y0132500D03*
X0870840Y0127500D03*
X0864150Y0127500D03*
X0874150Y0150000D03*
X0880840Y0150000D03*
X0880800Y0179860D03*
X0880800Y0186550D03*
D120*
X0890000Y0260000D03*
X0804000Y0260000D03*
X0754000Y0247500D03*
X0887500Y0110000D03*
X0840000Y0070000D03*
X0770000Y0070000D03*
D103*
X0705510Y0110000D03*
X0694480Y0110000D03*
X0694480Y0122500D03*
X0705510Y0122500D03*
X0705510Y0135000D03*
X0694480Y0135000D03*
D62*
X0696650Y0145000D03*
X0703340Y0145000D03*
X0703340Y0152500D03*
X0696650Y0152500D03*
X0696650Y0185000D03*
X0703340Y0185000D03*
X0729150Y0195000D03*
X0735840Y0195000D03*
X0735840Y0217500D03*
X0729150Y0217500D03*
X0729150Y0232500D03*
X0735840Y0232500D03*
X0812500Y0137850D03*
X0817500Y0137850D03*
X0822500Y0137850D03*
X0822500Y0131160D03*
X0817500Y0131160D03*
X0812500Y0131160D03*
X0755500Y0129160D03*
X0755500Y0135850D03*
X0880750Y0192400D03*
X0887440Y0192400D03*
D22*
X0875450Y0192500D03*
X0875450Y0187500D03*
X0869540Y0187500D03*
X0869540Y0192500D03*
X0762500Y0115460D03*
X0762500Y0109550D03*
X0735450Y0202500D03*
X0729540Y0202500D03*
X0729540Y0210000D03*
X0735450Y0210000D03*
X0735450Y0225000D03*
X0729540Y0225000D03*
D60*
X0705000Y0091170D03*
X0705000Y0073840D03*
D87*
X0674200Y0073000D03*
X0686000Y0092700D03*
X0662400Y0092700D03*
D115*
X0682440Y0192610D02*
X0684280Y0192610D01*
X0682440Y0192610D02*
X0682440Y0198850D01*
X0684280Y0198850D01*
X0684280Y0192610D01*
X0684280Y0193060D02*
X0682440Y0193060D01*
X0682440Y0193510D02*
X0684280Y0193510D01*
X0684280Y0193960D02*
X0682440Y0193960D01*
X0682440Y0194410D02*
X0684280Y0194410D01*
X0684280Y0194860D02*
X0682440Y0194860D01*
X0682440Y0195310D02*
X0684280Y0195310D01*
X0684280Y0195760D02*
X0682440Y0195760D01*
X0682440Y0196210D02*
X0684280Y0196210D01*
X0684280Y0196660D02*
X0682440Y0196660D01*
X0682440Y0197110D02*
X0684280Y0197110D01*
X0684280Y0197560D02*
X0682440Y0197560D01*
X0682440Y0198010D02*
X0684280Y0198010D01*
X0684280Y0198460D02*
X0682440Y0198460D01*
X0685000Y0192610D02*
X0686840Y0192610D01*
X0685000Y0192610D02*
X0685000Y0198850D01*
X0686840Y0198850D01*
X0686840Y0192610D01*
X0686840Y0193060D02*
X0685000Y0193060D01*
X0685000Y0193510D02*
X0686840Y0193510D01*
X0686840Y0193960D02*
X0685000Y0193960D01*
X0685000Y0194410D02*
X0686840Y0194410D01*
X0686840Y0194860D02*
X0685000Y0194860D01*
X0685000Y0195310D02*
X0686840Y0195310D01*
X0686840Y0195760D02*
X0685000Y0195760D01*
X0685000Y0196210D02*
X0686840Y0196210D01*
X0686840Y0196660D02*
X0685000Y0196660D01*
X0685000Y0197110D02*
X0686840Y0197110D01*
X0686840Y0197560D02*
X0685000Y0197560D01*
X0685000Y0198010D02*
X0686840Y0198010D01*
X0686840Y0198460D02*
X0685000Y0198460D01*
X0687560Y0192610D02*
X0689400Y0192610D01*
X0687560Y0192610D02*
X0687560Y0198850D01*
X0689400Y0198850D01*
X0689400Y0192610D01*
X0689400Y0193060D02*
X0687560Y0193060D01*
X0687560Y0193510D02*
X0689400Y0193510D01*
X0689400Y0193960D02*
X0687560Y0193960D01*
X0687560Y0194410D02*
X0689400Y0194410D01*
X0689400Y0194860D02*
X0687560Y0194860D01*
X0687560Y0195310D02*
X0689400Y0195310D01*
X0689400Y0195760D02*
X0687560Y0195760D01*
X0687560Y0196210D02*
X0689400Y0196210D01*
X0689400Y0196660D02*
X0687560Y0196660D01*
X0687560Y0197110D02*
X0689400Y0197110D01*
X0689400Y0197560D02*
X0687560Y0197560D01*
X0687560Y0198010D02*
X0689400Y0198010D01*
X0689400Y0198460D02*
X0687560Y0198460D01*
X0690120Y0192610D02*
X0691960Y0192610D01*
X0690120Y0192610D02*
X0690120Y0198850D01*
X0691960Y0198850D01*
X0691960Y0192610D01*
X0691960Y0193060D02*
X0690120Y0193060D01*
X0690120Y0193510D02*
X0691960Y0193510D01*
X0691960Y0193960D02*
X0690120Y0193960D01*
X0690120Y0194410D02*
X0691960Y0194410D01*
X0691960Y0194860D02*
X0690120Y0194860D01*
X0690120Y0195310D02*
X0691960Y0195310D01*
X0691960Y0195760D02*
X0690120Y0195760D01*
X0690120Y0196210D02*
X0691960Y0196210D01*
X0691960Y0196660D02*
X0690120Y0196660D01*
X0690120Y0197110D02*
X0691960Y0197110D01*
X0691960Y0197560D02*
X0690120Y0197560D01*
X0690120Y0198010D02*
X0691960Y0198010D01*
X0691960Y0198460D02*
X0690120Y0198460D01*
X0692680Y0192610D02*
X0694520Y0192610D01*
X0692680Y0192610D02*
X0692680Y0198850D01*
X0694520Y0198850D01*
X0694520Y0192610D01*
X0694520Y0193060D02*
X0692680Y0193060D01*
X0692680Y0193510D02*
X0694520Y0193510D01*
X0694520Y0193960D02*
X0692680Y0193960D01*
X0692680Y0194410D02*
X0694520Y0194410D01*
X0694520Y0194860D02*
X0692680Y0194860D01*
X0692680Y0195310D02*
X0694520Y0195310D01*
X0694520Y0195760D02*
X0692680Y0195760D01*
X0692680Y0196210D02*
X0694520Y0196210D01*
X0694520Y0196660D02*
X0692680Y0196660D01*
X0692680Y0197110D02*
X0694520Y0197110D01*
X0694520Y0197560D02*
X0692680Y0197560D01*
X0692680Y0198010D02*
X0694520Y0198010D01*
X0694520Y0198460D02*
X0692680Y0198460D01*
X0695240Y0192610D02*
X0697080Y0192610D01*
X0695240Y0192610D02*
X0695240Y0198850D01*
X0697080Y0198850D01*
X0697080Y0192610D01*
X0697080Y0193060D02*
X0695240Y0193060D01*
X0695240Y0193510D02*
X0697080Y0193510D01*
X0697080Y0193960D02*
X0695240Y0193960D01*
X0695240Y0194410D02*
X0697080Y0194410D01*
X0697080Y0194860D02*
X0695240Y0194860D01*
X0695240Y0195310D02*
X0697080Y0195310D01*
X0697080Y0195760D02*
X0695240Y0195760D01*
X0695240Y0196210D02*
X0697080Y0196210D01*
X0697080Y0196660D02*
X0695240Y0196660D01*
X0695240Y0197110D02*
X0697080Y0197110D01*
X0697080Y0197560D02*
X0695240Y0197560D01*
X0695240Y0198010D02*
X0697080Y0198010D01*
X0697080Y0198460D02*
X0695240Y0198460D01*
X0697800Y0192610D02*
X0699640Y0192610D01*
X0697800Y0192610D02*
X0697800Y0198850D01*
X0699640Y0198850D01*
X0699640Y0192610D01*
X0699640Y0193060D02*
X0697800Y0193060D01*
X0697800Y0193510D02*
X0699640Y0193510D01*
X0699640Y0193960D02*
X0697800Y0193960D01*
X0697800Y0194410D02*
X0699640Y0194410D01*
X0699640Y0194860D02*
X0697800Y0194860D01*
X0697800Y0195310D02*
X0699640Y0195310D01*
X0699640Y0195760D02*
X0697800Y0195760D01*
X0697800Y0196210D02*
X0699640Y0196210D01*
X0699640Y0196660D02*
X0697800Y0196660D01*
X0697800Y0197110D02*
X0699640Y0197110D01*
X0699640Y0197560D02*
X0697800Y0197560D01*
X0697800Y0198010D02*
X0699640Y0198010D01*
X0699640Y0198460D02*
X0697800Y0198460D01*
X0700360Y0192610D02*
X0702200Y0192610D01*
X0700360Y0192610D02*
X0700360Y0198850D01*
X0702200Y0198850D01*
X0702200Y0192610D01*
X0702200Y0193060D02*
X0700360Y0193060D01*
X0700360Y0193510D02*
X0702200Y0193510D01*
X0702200Y0193960D02*
X0700360Y0193960D01*
X0700360Y0194410D02*
X0702200Y0194410D01*
X0702200Y0194860D02*
X0700360Y0194860D01*
X0700360Y0195310D02*
X0702200Y0195310D01*
X0702200Y0195760D02*
X0700360Y0195760D01*
X0700360Y0196210D02*
X0702200Y0196210D01*
X0702200Y0196660D02*
X0700360Y0196660D01*
X0700360Y0197110D02*
X0702200Y0197110D01*
X0702200Y0197560D02*
X0700360Y0197560D01*
X0700360Y0198010D02*
X0702200Y0198010D01*
X0702200Y0198460D02*
X0700360Y0198460D01*
X0702910Y0192610D02*
X0704750Y0192610D01*
X0702910Y0192610D02*
X0702910Y0198850D01*
X0704750Y0198850D01*
X0704750Y0192610D01*
X0704750Y0193060D02*
X0702910Y0193060D01*
X0702910Y0193510D02*
X0704750Y0193510D01*
X0704750Y0193960D02*
X0702910Y0193960D01*
X0702910Y0194410D02*
X0704750Y0194410D01*
X0704750Y0194860D02*
X0702910Y0194860D01*
X0702910Y0195310D02*
X0704750Y0195310D01*
X0704750Y0195760D02*
X0702910Y0195760D01*
X0702910Y0196210D02*
X0704750Y0196210D01*
X0704750Y0196660D02*
X0702910Y0196660D01*
X0702910Y0197110D02*
X0704750Y0197110D01*
X0704750Y0197560D02*
X0702910Y0197560D01*
X0702910Y0198010D02*
X0704750Y0198010D01*
X0704750Y0198460D02*
X0702910Y0198460D01*
X0705470Y0192610D02*
X0707310Y0192610D01*
X0705470Y0192610D02*
X0705470Y0198850D01*
X0707310Y0198850D01*
X0707310Y0192610D01*
X0707310Y0193060D02*
X0705470Y0193060D01*
X0705470Y0193510D02*
X0707310Y0193510D01*
X0707310Y0193960D02*
X0705470Y0193960D01*
X0705470Y0194410D02*
X0707310Y0194410D01*
X0707310Y0194860D02*
X0705470Y0194860D01*
X0705470Y0195310D02*
X0707310Y0195310D01*
X0707310Y0195760D02*
X0705470Y0195760D01*
X0705470Y0196210D02*
X0707310Y0196210D01*
X0707310Y0196660D02*
X0705470Y0196660D01*
X0705470Y0197110D02*
X0707310Y0197110D01*
X0707310Y0197560D02*
X0705470Y0197560D01*
X0705470Y0198010D02*
X0707310Y0198010D01*
X0707310Y0198460D02*
X0705470Y0198460D01*
X0708030Y0192610D02*
X0709870Y0192610D01*
X0708030Y0192610D02*
X0708030Y0198850D01*
X0709870Y0198850D01*
X0709870Y0192610D01*
X0709870Y0193060D02*
X0708030Y0193060D01*
X0708030Y0193510D02*
X0709870Y0193510D01*
X0709870Y0193960D02*
X0708030Y0193960D01*
X0708030Y0194410D02*
X0709870Y0194410D01*
X0709870Y0194860D02*
X0708030Y0194860D01*
X0708030Y0195310D02*
X0709870Y0195310D01*
X0709870Y0195760D02*
X0708030Y0195760D01*
X0708030Y0196210D02*
X0709870Y0196210D01*
X0709870Y0196660D02*
X0708030Y0196660D01*
X0708030Y0197110D02*
X0709870Y0197110D01*
X0709870Y0197560D02*
X0708030Y0197560D01*
X0708030Y0198010D02*
X0709870Y0198010D01*
X0709870Y0198460D02*
X0708030Y0198460D01*
X0710590Y0192610D02*
X0712430Y0192610D01*
X0710590Y0192610D02*
X0710590Y0198850D01*
X0712430Y0198850D01*
X0712430Y0192610D01*
X0712430Y0193060D02*
X0710590Y0193060D01*
X0710590Y0193510D02*
X0712430Y0193510D01*
X0712430Y0193960D02*
X0710590Y0193960D01*
X0710590Y0194410D02*
X0712430Y0194410D01*
X0712430Y0194860D02*
X0710590Y0194860D01*
X0710590Y0195310D02*
X0712430Y0195310D01*
X0712430Y0195760D02*
X0710590Y0195760D01*
X0710590Y0196210D02*
X0712430Y0196210D01*
X0712430Y0196660D02*
X0710590Y0196660D01*
X0710590Y0197110D02*
X0712430Y0197110D01*
X0712430Y0197560D02*
X0710590Y0197560D01*
X0710590Y0198010D02*
X0712430Y0198010D01*
X0712430Y0198460D02*
X0710590Y0198460D01*
X0713150Y0192610D02*
X0714990Y0192610D01*
X0713150Y0192610D02*
X0713150Y0198850D01*
X0714990Y0198850D01*
X0714990Y0192610D01*
X0714990Y0193060D02*
X0713150Y0193060D01*
X0713150Y0193510D02*
X0714990Y0193510D01*
X0714990Y0193960D02*
X0713150Y0193960D01*
X0713150Y0194410D02*
X0714990Y0194410D01*
X0714990Y0194860D02*
X0713150Y0194860D01*
X0713150Y0195310D02*
X0714990Y0195310D01*
X0714990Y0195760D02*
X0713150Y0195760D01*
X0713150Y0196210D02*
X0714990Y0196210D01*
X0714990Y0196660D02*
X0713150Y0196660D01*
X0713150Y0197110D02*
X0714990Y0197110D01*
X0714990Y0197560D02*
X0713150Y0197560D01*
X0713150Y0198010D02*
X0714990Y0198010D01*
X0714990Y0198460D02*
X0713150Y0198460D01*
X0715710Y0192610D02*
X0717550Y0192610D01*
X0715710Y0192610D02*
X0715710Y0198850D01*
X0717550Y0198850D01*
X0717550Y0192610D01*
X0717550Y0193060D02*
X0715710Y0193060D01*
X0715710Y0193510D02*
X0717550Y0193510D01*
X0717550Y0193960D02*
X0715710Y0193960D01*
X0715710Y0194410D02*
X0717550Y0194410D01*
X0717550Y0194860D02*
X0715710Y0194860D01*
X0715710Y0195310D02*
X0717550Y0195310D01*
X0717550Y0195760D02*
X0715710Y0195760D01*
X0715710Y0196210D02*
X0717550Y0196210D01*
X0717550Y0196660D02*
X0715710Y0196660D01*
X0715710Y0197110D02*
X0717550Y0197110D01*
X0717550Y0197560D02*
X0715710Y0197560D01*
X0715710Y0198010D02*
X0717550Y0198010D01*
X0717550Y0198460D02*
X0715710Y0198460D01*
X0715710Y0221160D02*
X0717550Y0221160D01*
X0715710Y0221160D02*
X0715710Y0227400D01*
X0717550Y0227400D01*
X0717550Y0221160D01*
X0717550Y0221610D02*
X0715710Y0221610D01*
X0715710Y0222060D02*
X0717550Y0222060D01*
X0717550Y0222510D02*
X0715710Y0222510D01*
X0715710Y0222960D02*
X0717550Y0222960D01*
X0717550Y0223410D02*
X0715710Y0223410D01*
X0715710Y0223860D02*
X0717550Y0223860D01*
X0717550Y0224310D02*
X0715710Y0224310D01*
X0715710Y0224760D02*
X0717550Y0224760D01*
X0717550Y0225210D02*
X0715710Y0225210D01*
X0715710Y0225660D02*
X0717550Y0225660D01*
X0717550Y0226110D02*
X0715710Y0226110D01*
X0715710Y0226560D02*
X0717550Y0226560D01*
X0717550Y0227010D02*
X0715710Y0227010D01*
X0714990Y0221160D02*
X0713150Y0221160D01*
X0713150Y0227400D01*
X0714990Y0227400D01*
X0714990Y0221160D01*
X0714990Y0221610D02*
X0713150Y0221610D01*
X0713150Y0222060D02*
X0714990Y0222060D01*
X0714990Y0222510D02*
X0713150Y0222510D01*
X0713150Y0222960D02*
X0714990Y0222960D01*
X0714990Y0223410D02*
X0713150Y0223410D01*
X0713150Y0223860D02*
X0714990Y0223860D01*
X0714990Y0224310D02*
X0713150Y0224310D01*
X0713150Y0224760D02*
X0714990Y0224760D01*
X0714990Y0225210D02*
X0713150Y0225210D01*
X0713150Y0225660D02*
X0714990Y0225660D01*
X0714990Y0226110D02*
X0713150Y0226110D01*
X0713150Y0226560D02*
X0714990Y0226560D01*
X0714990Y0227010D02*
X0713150Y0227010D01*
X0712430Y0221160D02*
X0710590Y0221160D01*
X0710590Y0227400D01*
X0712430Y0227400D01*
X0712430Y0221160D01*
X0712430Y0221610D02*
X0710590Y0221610D01*
X0710590Y0222060D02*
X0712430Y0222060D01*
X0712430Y0222510D02*
X0710590Y0222510D01*
X0710590Y0222960D02*
X0712430Y0222960D01*
X0712430Y0223410D02*
X0710590Y0223410D01*
X0710590Y0223860D02*
X0712430Y0223860D01*
X0712430Y0224310D02*
X0710590Y0224310D01*
X0710590Y0224760D02*
X0712430Y0224760D01*
X0712430Y0225210D02*
X0710590Y0225210D01*
X0710590Y0225660D02*
X0712430Y0225660D01*
X0712430Y0226110D02*
X0710590Y0226110D01*
X0710590Y0226560D02*
X0712430Y0226560D01*
X0712430Y0227010D02*
X0710590Y0227010D01*
X0709870Y0221160D02*
X0708030Y0221160D01*
X0708030Y0227400D01*
X0709870Y0227400D01*
X0709870Y0221160D01*
X0709870Y0221610D02*
X0708030Y0221610D01*
X0708030Y0222060D02*
X0709870Y0222060D01*
X0709870Y0222510D02*
X0708030Y0222510D01*
X0708030Y0222960D02*
X0709870Y0222960D01*
X0709870Y0223410D02*
X0708030Y0223410D01*
X0708030Y0223860D02*
X0709870Y0223860D01*
X0709870Y0224310D02*
X0708030Y0224310D01*
X0708030Y0224760D02*
X0709870Y0224760D01*
X0709870Y0225210D02*
X0708030Y0225210D01*
X0708030Y0225660D02*
X0709870Y0225660D01*
X0709870Y0226110D02*
X0708030Y0226110D01*
X0708030Y0226560D02*
X0709870Y0226560D01*
X0709870Y0227010D02*
X0708030Y0227010D01*
X0707310Y0221160D02*
X0705470Y0221160D01*
X0705470Y0227400D01*
X0707310Y0227400D01*
X0707310Y0221160D01*
X0707310Y0221610D02*
X0705470Y0221610D01*
X0705470Y0222060D02*
X0707310Y0222060D01*
X0707310Y0222510D02*
X0705470Y0222510D01*
X0705470Y0222960D02*
X0707310Y0222960D01*
X0707310Y0223410D02*
X0705470Y0223410D01*
X0705470Y0223860D02*
X0707310Y0223860D01*
X0707310Y0224310D02*
X0705470Y0224310D01*
X0705470Y0224760D02*
X0707310Y0224760D01*
X0707310Y0225210D02*
X0705470Y0225210D01*
X0705470Y0225660D02*
X0707310Y0225660D01*
X0707310Y0226110D02*
X0705470Y0226110D01*
X0705470Y0226560D02*
X0707310Y0226560D01*
X0707310Y0227010D02*
X0705470Y0227010D01*
X0704750Y0221160D02*
X0702910Y0221160D01*
X0702910Y0227400D01*
X0704750Y0227400D01*
X0704750Y0221160D01*
X0704750Y0221610D02*
X0702910Y0221610D01*
X0702910Y0222060D02*
X0704750Y0222060D01*
X0704750Y0222510D02*
X0702910Y0222510D01*
X0702910Y0222960D02*
X0704750Y0222960D01*
X0704750Y0223410D02*
X0702910Y0223410D01*
X0702910Y0223860D02*
X0704750Y0223860D01*
X0704750Y0224310D02*
X0702910Y0224310D01*
X0702910Y0224760D02*
X0704750Y0224760D01*
X0704750Y0225210D02*
X0702910Y0225210D01*
X0702910Y0225660D02*
X0704750Y0225660D01*
X0704750Y0226110D02*
X0702910Y0226110D01*
X0702910Y0226560D02*
X0704750Y0226560D01*
X0704750Y0227010D02*
X0702910Y0227010D01*
X0702200Y0221160D02*
X0700360Y0221160D01*
X0700360Y0227400D01*
X0702200Y0227400D01*
X0702200Y0221160D01*
X0702200Y0221610D02*
X0700360Y0221610D01*
X0700360Y0222060D02*
X0702200Y0222060D01*
X0702200Y0222510D02*
X0700360Y0222510D01*
X0700360Y0222960D02*
X0702200Y0222960D01*
X0702200Y0223410D02*
X0700360Y0223410D01*
X0700360Y0223860D02*
X0702200Y0223860D01*
X0702200Y0224310D02*
X0700360Y0224310D01*
X0700360Y0224760D02*
X0702200Y0224760D01*
X0702200Y0225210D02*
X0700360Y0225210D01*
X0700360Y0225660D02*
X0702200Y0225660D01*
X0702200Y0226110D02*
X0700360Y0226110D01*
X0700360Y0226560D02*
X0702200Y0226560D01*
X0702200Y0227010D02*
X0700360Y0227010D01*
X0699640Y0221160D02*
X0697800Y0221160D01*
X0697800Y0227400D01*
X0699640Y0227400D01*
X0699640Y0221160D01*
X0699640Y0221610D02*
X0697800Y0221610D01*
X0697800Y0222060D02*
X0699640Y0222060D01*
X0699640Y0222510D02*
X0697800Y0222510D01*
X0697800Y0222960D02*
X0699640Y0222960D01*
X0699640Y0223410D02*
X0697800Y0223410D01*
X0697800Y0223860D02*
X0699640Y0223860D01*
X0699640Y0224310D02*
X0697800Y0224310D01*
X0697800Y0224760D02*
X0699640Y0224760D01*
X0699640Y0225210D02*
X0697800Y0225210D01*
X0697800Y0225660D02*
X0699640Y0225660D01*
X0699640Y0226110D02*
X0697800Y0226110D01*
X0697800Y0226560D02*
X0699640Y0226560D01*
X0699640Y0227010D02*
X0697800Y0227010D01*
X0697080Y0221160D02*
X0695240Y0221160D01*
X0695240Y0227400D01*
X0697080Y0227400D01*
X0697080Y0221160D01*
X0697080Y0221610D02*
X0695240Y0221610D01*
X0695240Y0222060D02*
X0697080Y0222060D01*
X0697080Y0222510D02*
X0695240Y0222510D01*
X0695240Y0222960D02*
X0697080Y0222960D01*
X0697080Y0223410D02*
X0695240Y0223410D01*
X0695240Y0223860D02*
X0697080Y0223860D01*
X0697080Y0224310D02*
X0695240Y0224310D01*
X0695240Y0224760D02*
X0697080Y0224760D01*
X0697080Y0225210D02*
X0695240Y0225210D01*
X0695240Y0225660D02*
X0697080Y0225660D01*
X0697080Y0226110D02*
X0695240Y0226110D01*
X0695240Y0226560D02*
X0697080Y0226560D01*
X0697080Y0227010D02*
X0695240Y0227010D01*
X0694520Y0221160D02*
X0692680Y0221160D01*
X0692680Y0227400D01*
X0694520Y0227400D01*
X0694520Y0221160D01*
X0694520Y0221610D02*
X0692680Y0221610D01*
X0692680Y0222060D02*
X0694520Y0222060D01*
X0694520Y0222510D02*
X0692680Y0222510D01*
X0692680Y0222960D02*
X0694520Y0222960D01*
X0694520Y0223410D02*
X0692680Y0223410D01*
X0692680Y0223860D02*
X0694520Y0223860D01*
X0694520Y0224310D02*
X0692680Y0224310D01*
X0692680Y0224760D02*
X0694520Y0224760D01*
X0694520Y0225210D02*
X0692680Y0225210D01*
X0692680Y0225660D02*
X0694520Y0225660D01*
X0694520Y0226110D02*
X0692680Y0226110D01*
X0692680Y0226560D02*
X0694520Y0226560D01*
X0694520Y0227010D02*
X0692680Y0227010D01*
X0691960Y0221160D02*
X0690120Y0221160D01*
X0690120Y0227400D01*
X0691960Y0227400D01*
X0691960Y0221160D01*
X0691960Y0221610D02*
X0690120Y0221610D01*
X0690120Y0222060D02*
X0691960Y0222060D01*
X0691960Y0222510D02*
X0690120Y0222510D01*
X0690120Y0222960D02*
X0691960Y0222960D01*
X0691960Y0223410D02*
X0690120Y0223410D01*
X0690120Y0223860D02*
X0691960Y0223860D01*
X0691960Y0224310D02*
X0690120Y0224310D01*
X0690120Y0224760D02*
X0691960Y0224760D01*
X0691960Y0225210D02*
X0690120Y0225210D01*
X0690120Y0225660D02*
X0691960Y0225660D01*
X0691960Y0226110D02*
X0690120Y0226110D01*
X0690120Y0226560D02*
X0691960Y0226560D01*
X0691960Y0227010D02*
X0690120Y0227010D01*
X0689400Y0221160D02*
X0687560Y0221160D01*
X0687560Y0227400D01*
X0689400Y0227400D01*
X0689400Y0221160D01*
X0689400Y0221610D02*
X0687560Y0221610D01*
X0687560Y0222060D02*
X0689400Y0222060D01*
X0689400Y0222510D02*
X0687560Y0222510D01*
X0687560Y0222960D02*
X0689400Y0222960D01*
X0689400Y0223410D02*
X0687560Y0223410D01*
X0687560Y0223860D02*
X0689400Y0223860D01*
X0689400Y0224310D02*
X0687560Y0224310D01*
X0687560Y0224760D02*
X0689400Y0224760D01*
X0689400Y0225210D02*
X0687560Y0225210D01*
X0687560Y0225660D02*
X0689400Y0225660D01*
X0689400Y0226110D02*
X0687560Y0226110D01*
X0687560Y0226560D02*
X0689400Y0226560D01*
X0689400Y0227010D02*
X0687560Y0227010D01*
X0686840Y0221160D02*
X0685000Y0221160D01*
X0685000Y0227400D01*
X0686840Y0227400D01*
X0686840Y0221160D01*
X0686840Y0221610D02*
X0685000Y0221610D01*
X0685000Y0222060D02*
X0686840Y0222060D01*
X0686840Y0222510D02*
X0685000Y0222510D01*
X0685000Y0222960D02*
X0686840Y0222960D01*
X0686840Y0223410D02*
X0685000Y0223410D01*
X0685000Y0223860D02*
X0686840Y0223860D01*
X0686840Y0224310D02*
X0685000Y0224310D01*
X0685000Y0224760D02*
X0686840Y0224760D01*
X0686840Y0225210D02*
X0685000Y0225210D01*
X0685000Y0225660D02*
X0686840Y0225660D01*
X0686840Y0226110D02*
X0685000Y0226110D01*
X0685000Y0226560D02*
X0686840Y0226560D01*
X0686840Y0227010D02*
X0685000Y0227010D01*
X0684280Y0221160D02*
X0682440Y0221160D01*
X0682440Y0227400D01*
X0684280Y0227400D01*
X0684280Y0221160D01*
X0684280Y0221610D02*
X0682440Y0221610D01*
X0682440Y0222060D02*
X0684280Y0222060D01*
X0684280Y0222510D02*
X0682440Y0222510D01*
X0682440Y0222960D02*
X0684280Y0222960D01*
X0684280Y0223410D02*
X0682440Y0223410D01*
X0682440Y0223860D02*
X0684280Y0223860D01*
X0684280Y0224310D02*
X0682440Y0224310D01*
X0682440Y0224760D02*
X0684280Y0224760D01*
X0684280Y0225210D02*
X0682440Y0225210D01*
X0682440Y0225660D02*
X0684280Y0225660D01*
X0684280Y0226110D02*
X0682440Y0226110D01*
X0682440Y0226560D02*
X0684280Y0226560D01*
X0684280Y0227010D02*
X0682440Y0227010D01*
D59*
X0670170Y0197500D03*
X0654820Y0197500D03*
D43*
X0677200Y0169100D03*
X0677200Y0160000D03*
X0677200Y0150900D03*
D149*
X0652800Y0160000D03*
X0652800Y0130000D03*
D39*
X0732500Y0122270D03*
X0737500Y0122270D03*
X0742500Y0122270D03*
X0747500Y0122270D03*
X0747500Y0142740D03*
X0742500Y0142740D03*
X0737500Y0142740D03*
X0732500Y0142740D03*
D43*
X0677200Y0139100D03*
X0677200Y0130000D03*
X0677200Y0120910D03*
D151*
X0728400Y0102210D03*
X0737500Y0102210D03*
X0746590Y0102210D03*
D14*
X0737500Y0077800D03*
D57*
X0835230Y0140180D03*
X0837200Y0140180D03*
X0839170Y0140180D03*
X0841140Y0140180D03*
X0843110Y0140180D03*
X0845070Y0140180D03*
X0847040Y0140180D03*
X0849010Y0140180D03*
X0850980Y0140180D03*
X0852950Y0140180D03*
X0854920Y0140180D03*
X0856890Y0140180D03*
X0858850Y0140180D03*
X0860820Y0140180D03*
X0862790Y0140180D03*
X0864760Y0140180D03*
X0864760Y0174830D03*
X0862790Y0174830D03*
X0860820Y0174830D03*
X0858850Y0174830D03*
X0856890Y0174830D03*
X0854920Y0174830D03*
X0852950Y0174830D03*
X0850980Y0174830D03*
X0849010Y0174830D03*
X0847040Y0174830D03*
X0845070Y0174830D03*
X0843110Y0174830D03*
X0841140Y0174830D03*
X0839170Y0174830D03*
X0837200Y0174830D03*
X0835230Y0174830D03*
D111*
X0832670Y0172270D03*
X0832670Y0170300D03*
X0832670Y0168330D03*
X0832670Y0166360D03*
X0832670Y0164390D03*
X0832670Y0162430D03*
X0832670Y0160460D03*
X0832670Y0158490D03*
X0832670Y0156520D03*
X0832670Y0154550D03*
X0832670Y0152580D03*
X0832670Y0150610D03*
X0832670Y0148650D03*
X0832670Y0146680D03*
X0832670Y0144710D03*
X0832670Y0142740D03*
X0867320Y0142740D03*
X0867320Y0144710D03*
X0867320Y0146680D03*
X0867320Y0148650D03*
X0867320Y0150610D03*
X0867320Y0152580D03*
X0867320Y0154550D03*
X0867320Y0156520D03*
X0867320Y0158490D03*
X0867320Y0160460D03*
X0867320Y0162430D03*
X0867320Y0164390D03*
X0867320Y0166360D03*
X0867320Y0168330D03*
X0867320Y0170300D03*
X0867320Y0172270D03*
D91*
X0850000Y0157500D03*
D88*
X0877440Y0133550D03*
X0880000Y0133550D03*
X0882560Y0133550D03*
X0882560Y0126460D03*
X0880000Y0126460D03*
X0877440Y0126460D03*
D50*
D158*
X0901800Y0123500D03*
D50*
D158*
X0901800Y0133500D03*
D50*
D158*
X0901800Y0143500D03*
D50*
D11*
X0820650Y0151600D03*
X0814350Y0151600D03*
X0814350Y0163410D03*
X0820650Y0163410D03*
D99*
X0669840Y0215180D03*
X0648190Y0214790D03*
X0648190Y0250220D03*
X0669840Y0250220D03*
D90*
X0669840Y0238800D03*
X0669840Y0235650D03*
X0669840Y0232500D03*
X0669840Y0229360D03*
X0669840Y0226210D03*
D79*
X0660000Y0223840D03*
X0660000Y0241170D03*
D137*
X0747770Y0226240D03*
X0747770Y0222500D03*
X0747770Y0218760D03*
X0757220Y0218760D03*
X0757220Y0222500D03*
X0757220Y0226240D03*
X0762770Y0208740D03*
X0762770Y0205000D03*
X0762770Y0201260D03*
X0772220Y0201260D03*
X0772220Y0205000D03*
X0772220Y0208740D03*
X0790270Y0208740D03*
X0790270Y0205000D03*
X0790270Y0201260D03*
X0799720Y0201260D03*
X0799720Y0205000D03*
X0799720Y0208740D03*
X0810270Y0218760D03*
X0810270Y0222500D03*
X0810270Y0226240D03*
X0819720Y0226240D03*
X0819720Y0222500D03*
X0819720Y0218760D03*
X0817770Y0208740D03*
X0817770Y0205000D03*
X0817770Y0201260D03*
X0827220Y0201260D03*
X0827220Y0205000D03*
X0827220Y0208740D03*
X0845270Y0208740D03*
X0845270Y0205000D03*
X0845270Y0201260D03*
X0854720Y0201260D03*
X0854720Y0205000D03*
X0854720Y0208740D03*
X0872770Y0208740D03*
X0872770Y0205000D03*
X0872770Y0201260D03*
X0882220Y0201260D03*
X0882220Y0205000D03*
X0882220Y0208740D03*
X0885270Y0218760D03*
X0885270Y0222500D03*
X0885270Y0226240D03*
X0894720Y0226240D03*
X0894720Y0222500D03*
X0894720Y0218760D03*
X0864720Y0116240D03*
X0864720Y0112500D03*
X0864720Y0108760D03*
X0855270Y0108760D03*
X0855270Y0112500D03*
X0855270Y0116240D03*
X0844720Y0116240D03*
X0844720Y0112500D03*
X0844720Y0108760D03*
X0835270Y0108760D03*
X0835270Y0112500D03*
X0835270Y0116240D03*
X0824720Y0116240D03*
X0824720Y0112500D03*
X0824720Y0108760D03*
X0815270Y0108760D03*
X0815270Y0112500D03*
X0815270Y0116240D03*
X0804720Y0116240D03*
X0804720Y0112500D03*
X0804720Y0108760D03*
X0795270Y0108760D03*
X0795270Y0112500D03*
X0795270Y0116240D03*
D58*
X0730110Y0166260D03*
X0730110Y0173740D03*
X0719920Y0173740D03*
X0719920Y0170000D03*
X0719920Y0166260D03*
D114*
X0757500Y0160810D03*
X0757500Y0174200D03*
D97*
X0782770Y0229360D03*
X0785920Y0229360D03*
X0789070Y0229360D03*
X0792220Y0229360D03*
X0792220Y0235650D03*
X0789070Y0235650D03*
X0785920Y0235650D03*
X0782770Y0235650D03*
X0800270Y0234360D03*
X0803420Y0234360D03*
X0806570Y0234360D03*
X0809720Y0234360D03*
X0809720Y0240650D03*
X0806570Y0240650D03*
X0803420Y0240650D03*
X0800270Y0240650D03*
X0830270Y0238150D03*
X0833420Y0238150D03*
X0836570Y0238150D03*
X0839720Y0238150D03*
X0839720Y0231860D03*
X0836570Y0231860D03*
X0833420Y0231860D03*
X0830270Y0231860D03*
X0857770Y0231860D03*
X0860920Y0231860D03*
X0864070Y0231860D03*
X0867220Y0231860D03*
X0867220Y0238150D03*
X0864070Y0238150D03*
X0860920Y0238150D03*
X0857770Y0238150D03*
X0847220Y0100650D03*
X0844070Y0100650D03*
X0840920Y0100650D03*
X0837770Y0100650D03*
X0837770Y0094360D03*
X0840920Y0094360D03*
X0844070Y0094360D03*
X0847220Y0094360D03*
X0829720Y0095650D03*
X0826570Y0095650D03*
X0823420Y0095650D03*
X0820270Y0095650D03*
X0820270Y0089360D03*
X0823420Y0089360D03*
X0826570Y0089360D03*
X0829720Y0089360D03*
X0640000Y0270000D02*
G75*
%LPD*%
X0640000Y0290000D02*
G75*
%LPD*%
D152*
X0700000Y0490000D03*
X0900000Y0430000D03*
X0900000Y0320000D03*
D33*
X0890000Y0300000D03*
X0880000Y0300000D03*
X0870000Y0300000D03*
X0860000Y0300000D03*
X0850000Y0300000D03*
X0820000Y0300000D03*
X0810000Y0300000D03*
X0800000Y0300000D03*
X0790000Y0300000D03*
X0780000Y0300000D03*
X0877500Y0340000D03*
X0890550Y0389810D03*
X0900550Y0389810D03*
X0900550Y0399810D03*
X0890550Y0399810D03*
X0890550Y0409810D03*
X0900550Y0409810D03*
X0880000Y0490000D03*
X0870000Y0490000D03*
X0860000Y0490000D03*
X0850000Y0490000D03*
X0840000Y0490000D03*
X0830000Y0490000D03*
X0820000Y0490000D03*
X0794000Y0490000D03*
X0784000Y0490000D03*
X0774000Y0490000D03*
X0764000Y0490000D03*
X0754000Y0490000D03*
X0744000Y0490000D03*
X0734000Y0490000D03*
X0764000Y0477500D03*
X0774000Y0477500D03*
D29*
X0715340Y0468000D03*
X0708650Y0468000D03*
X0700340Y0468000D03*
X0693650Y0468000D03*
X0696650Y0407500D03*
X0703340Y0407500D03*
X0683340Y0407500D03*
X0676650Y0407500D03*
X0729150Y0382500D03*
X0735840Y0382500D03*
X0765000Y0365850D03*
X0765000Y0359160D03*
X0755000Y0345850D03*
X0755000Y0339160D03*
X0801650Y0385000D03*
X0801650Y0390000D03*
X0808340Y0390000D03*
X0808340Y0385000D03*
X0808340Y0402500D03*
X0801650Y0402500D03*
X0864150Y0362500D03*
X0870840Y0362500D03*
X0870840Y0357500D03*
X0864150Y0357500D03*
X0874150Y0380000D03*
X0880840Y0380000D03*
X0880800Y0409860D03*
X0880800Y0416550D03*
D120*
X0890000Y0490000D03*
X0804000Y0490000D03*
X0754000Y0477500D03*
X0887500Y0340000D03*
X0840000Y0300000D03*
X0770000Y0300000D03*
D103*
X0705510Y0340000D03*
X0694480Y0340000D03*
X0694480Y0352500D03*
X0705510Y0352500D03*
X0705510Y0365000D03*
X0694480Y0365000D03*
D62*
X0696650Y0375000D03*
X0703340Y0375000D03*
X0703340Y0382500D03*
X0696650Y0382500D03*
X0696650Y0415000D03*
X0703340Y0415000D03*
X0729150Y0425000D03*
X0735840Y0425000D03*
X0735840Y0447500D03*
X0729150Y0447500D03*
X0729150Y0462500D03*
X0735840Y0462500D03*
X0812500Y0367850D03*
X0817500Y0367850D03*
X0822500Y0367850D03*
X0822500Y0361160D03*
X0817500Y0361160D03*
X0812500Y0361160D03*
X0755500Y0359160D03*
X0755500Y0365850D03*
X0880750Y0422400D03*
X0887440Y0422400D03*
D22*
X0875450Y0422500D03*
X0875450Y0417500D03*
X0869540Y0417500D03*
X0869540Y0422500D03*
X0762500Y0345460D03*
X0762500Y0339550D03*
X0735450Y0432500D03*
X0729540Y0432500D03*
X0729540Y0440000D03*
X0735450Y0440000D03*
X0735450Y0455000D03*
X0729540Y0455000D03*
D60*
X0705000Y0321170D03*
X0705000Y0303840D03*
D87*
X0674200Y0303000D03*
X0686000Y0322700D03*
X0662400Y0322700D03*
D115*
X0682440Y0422610D02*
X0684280Y0422610D01*
X0682440Y0422610D02*
X0682440Y0428850D01*
X0684280Y0428850D01*
X0684280Y0422610D01*
X0684280Y0423060D02*
X0682440Y0423060D01*
X0682440Y0423510D02*
X0684280Y0423510D01*
X0684280Y0423960D02*
X0682440Y0423960D01*
X0682440Y0424410D02*
X0684280Y0424410D01*
X0684280Y0424860D02*
X0682440Y0424860D01*
X0682440Y0425310D02*
X0684280Y0425310D01*
X0684280Y0425760D02*
X0682440Y0425760D01*
X0682440Y0426210D02*
X0684280Y0426210D01*
X0684280Y0426660D02*
X0682440Y0426660D01*
X0682440Y0427110D02*
X0684280Y0427110D01*
X0684280Y0427560D02*
X0682440Y0427560D01*
X0682440Y0428010D02*
X0684280Y0428010D01*
X0684280Y0428460D02*
X0682440Y0428460D01*
X0685000Y0422610D02*
X0686840Y0422610D01*
X0685000Y0422610D02*
X0685000Y0428850D01*
X0686840Y0428850D01*
X0686840Y0422610D01*
X0686840Y0423060D02*
X0685000Y0423060D01*
X0685000Y0423510D02*
X0686840Y0423510D01*
X0686840Y0423960D02*
X0685000Y0423960D01*
X0685000Y0424410D02*
X0686840Y0424410D01*
X0686840Y0424860D02*
X0685000Y0424860D01*
X0685000Y0425310D02*
X0686840Y0425310D01*
X0686840Y0425760D02*
X0685000Y0425760D01*
X0685000Y0426210D02*
X0686840Y0426210D01*
X0686840Y0426660D02*
X0685000Y0426660D01*
X0685000Y0427110D02*
X0686840Y0427110D01*
X0686840Y0427560D02*
X0685000Y0427560D01*
X0685000Y0428010D02*
X0686840Y0428010D01*
X0686840Y0428460D02*
X0685000Y0428460D01*
X0687560Y0422610D02*
X0689400Y0422610D01*
X0687560Y0422610D02*
X0687560Y0428850D01*
X0689400Y0428850D01*
X0689400Y0422610D01*
X0689400Y0423060D02*
X0687560Y0423060D01*
X0687560Y0423510D02*
X0689400Y0423510D01*
X0689400Y0423960D02*
X0687560Y0423960D01*
X0687560Y0424410D02*
X0689400Y0424410D01*
X0689400Y0424860D02*
X0687560Y0424860D01*
X0687560Y0425310D02*
X0689400Y0425310D01*
X0689400Y0425760D02*
X0687560Y0425760D01*
X0687560Y0426210D02*
X0689400Y0426210D01*
X0689400Y0426660D02*
X0687560Y0426660D01*
X0687560Y0427110D02*
X0689400Y0427110D01*
X0689400Y0427560D02*
X0687560Y0427560D01*
X0687560Y0428010D02*
X0689400Y0428010D01*
X0689400Y0428460D02*
X0687560Y0428460D01*
X0690120Y0422610D02*
X0691960Y0422610D01*
X0690120Y0422610D02*
X0690120Y0428850D01*
X0691960Y0428850D01*
X0691960Y0422610D01*
X0691960Y0423060D02*
X0690120Y0423060D01*
X0690120Y0423510D02*
X0691960Y0423510D01*
X0691960Y0423960D02*
X0690120Y0423960D01*
X0690120Y0424410D02*
X0691960Y0424410D01*
X0691960Y0424860D02*
X0690120Y0424860D01*
X0690120Y0425310D02*
X0691960Y0425310D01*
X0691960Y0425760D02*
X0690120Y0425760D01*
X0690120Y0426210D02*
X0691960Y0426210D01*
X0691960Y0426660D02*
X0690120Y0426660D01*
X0690120Y0427110D02*
X0691960Y0427110D01*
X0691960Y0427560D02*
X0690120Y0427560D01*
X0690120Y0428010D02*
X0691960Y0428010D01*
X0691960Y0428460D02*
X0690120Y0428460D01*
X0692680Y0422610D02*
X0694520Y0422610D01*
X0692680Y0422610D02*
X0692680Y0428850D01*
X0694520Y0428850D01*
X0694520Y0422610D01*
X0694520Y0423060D02*
X0692680Y0423060D01*
X0692680Y0423510D02*
X0694520Y0423510D01*
X0694520Y0423960D02*
X0692680Y0423960D01*
X0692680Y0424410D02*
X0694520Y0424410D01*
X0694520Y0424860D02*
X0692680Y0424860D01*
X0692680Y0425310D02*
X0694520Y0425310D01*
X0694520Y0425760D02*
X0692680Y0425760D01*
X0692680Y0426210D02*
X0694520Y0426210D01*
X0694520Y0426660D02*
X0692680Y0426660D01*
X0692680Y0427110D02*
X0694520Y0427110D01*
X0694520Y0427560D02*
X0692680Y0427560D01*
X0692680Y0428010D02*
X0694520Y0428010D01*
X0694520Y0428460D02*
X0692680Y0428460D01*
X0695240Y0422610D02*
X0697080Y0422610D01*
X0695240Y0422610D02*
X0695240Y0428850D01*
X0697080Y0428850D01*
X0697080Y0422610D01*
X0697080Y0423060D02*
X0695240Y0423060D01*
X0695240Y0423510D02*
X0697080Y0423510D01*
X0697080Y0423960D02*
X0695240Y0423960D01*
X0695240Y0424410D02*
X0697080Y0424410D01*
X0697080Y0424860D02*
X0695240Y0424860D01*
X0695240Y0425310D02*
X0697080Y0425310D01*
X0697080Y0425760D02*
X0695240Y0425760D01*
X0695240Y0426210D02*
X0697080Y0426210D01*
X0697080Y0426660D02*
X0695240Y0426660D01*
X0695240Y0427110D02*
X0697080Y0427110D01*
X0697080Y0427560D02*
X0695240Y0427560D01*
X0695240Y0428010D02*
X0697080Y0428010D01*
X0697080Y0428460D02*
X0695240Y0428460D01*
X0697800Y0422610D02*
X0699640Y0422610D01*
X0697800Y0422610D02*
X0697800Y0428850D01*
X0699640Y0428850D01*
X0699640Y0422610D01*
X0699640Y0423060D02*
X0697800Y0423060D01*
X0697800Y0423510D02*
X0699640Y0423510D01*
X0699640Y0423960D02*
X0697800Y0423960D01*
X0697800Y0424410D02*
X0699640Y0424410D01*
X0699640Y0424860D02*
X0697800Y0424860D01*
X0697800Y0425310D02*
X0699640Y0425310D01*
X0699640Y0425760D02*
X0697800Y0425760D01*
X0697800Y0426210D02*
X0699640Y0426210D01*
X0699640Y0426660D02*
X0697800Y0426660D01*
X0697800Y0427110D02*
X0699640Y0427110D01*
X0699640Y0427560D02*
X0697800Y0427560D01*
X0697800Y0428010D02*
X0699640Y0428010D01*
X0699640Y0428460D02*
X0697800Y0428460D01*
X0700360Y0422610D02*
X0702200Y0422610D01*
X0700360Y0422610D02*
X0700360Y0428850D01*
X0702200Y0428850D01*
X0702200Y0422610D01*
X0702200Y0423060D02*
X0700360Y0423060D01*
X0700360Y0423510D02*
X0702200Y0423510D01*
X0702200Y0423960D02*
X0700360Y0423960D01*
X0700360Y0424410D02*
X0702200Y0424410D01*
X0702200Y0424860D02*
X0700360Y0424860D01*
X0700360Y0425310D02*
X0702200Y0425310D01*
X0702200Y0425760D02*
X0700360Y0425760D01*
X0700360Y0426210D02*
X0702200Y0426210D01*
X0702200Y0426660D02*
X0700360Y0426660D01*
X0700360Y0427110D02*
X0702200Y0427110D01*
X0702200Y0427560D02*
X0700360Y0427560D01*
X0700360Y0428010D02*
X0702200Y0428010D01*
X0702200Y0428460D02*
X0700360Y0428460D01*
X0702910Y0422610D02*
X0704750Y0422610D01*
X0702910Y0422610D02*
X0702910Y0428850D01*
X0704750Y0428850D01*
X0704750Y0422610D01*
X0704750Y0423060D02*
X0702910Y0423060D01*
X0702910Y0423510D02*
X0704750Y0423510D01*
X0704750Y0423960D02*
X0702910Y0423960D01*
X0702910Y0424410D02*
X0704750Y0424410D01*
X0704750Y0424860D02*
X0702910Y0424860D01*
X0702910Y0425310D02*
X0704750Y0425310D01*
X0704750Y0425760D02*
X0702910Y0425760D01*
X0702910Y0426210D02*
X0704750Y0426210D01*
X0704750Y0426660D02*
X0702910Y0426660D01*
X0702910Y0427110D02*
X0704750Y0427110D01*
X0704750Y0427560D02*
X0702910Y0427560D01*
X0702910Y0428010D02*
X0704750Y0428010D01*
X0704750Y0428460D02*
X0702910Y0428460D01*
X0705470Y0422610D02*
X0707310Y0422610D01*
X0705470Y0422610D02*
X0705470Y0428850D01*
X0707310Y0428850D01*
X0707310Y0422610D01*
X0707310Y0423060D02*
X0705470Y0423060D01*
X0705470Y0423510D02*
X0707310Y0423510D01*
X0707310Y0423960D02*
X0705470Y0423960D01*
X0705470Y0424410D02*
X0707310Y0424410D01*
X0707310Y0424860D02*
X0705470Y0424860D01*
X0705470Y0425310D02*
X0707310Y0425310D01*
X0707310Y0425760D02*
X0705470Y0425760D01*
X0705470Y0426210D02*
X0707310Y0426210D01*
X0707310Y0426660D02*
X0705470Y0426660D01*
X0705470Y0427110D02*
X0707310Y0427110D01*
X0707310Y0427560D02*
X0705470Y0427560D01*
X0705470Y0428010D02*
X0707310Y0428010D01*
X0707310Y0428460D02*
X0705470Y0428460D01*
X0708030Y0422610D02*
X0709870Y0422610D01*
X0708030Y0422610D02*
X0708030Y0428850D01*
X0709870Y0428850D01*
X0709870Y0422610D01*
X0709870Y0423060D02*
X0708030Y0423060D01*
X0708030Y0423510D02*
X0709870Y0423510D01*
X0709870Y0423960D02*
X0708030Y0423960D01*
X0708030Y0424410D02*
X0709870Y0424410D01*
X0709870Y0424860D02*
X0708030Y0424860D01*
X0708030Y0425310D02*
X0709870Y0425310D01*
X0709870Y0425760D02*
X0708030Y0425760D01*
X0708030Y0426210D02*
X0709870Y0426210D01*
X0709870Y0426660D02*
X0708030Y0426660D01*
X0708030Y0427110D02*
X0709870Y0427110D01*
X0709870Y0427560D02*
X0708030Y0427560D01*
X0708030Y0428010D02*
X0709870Y0428010D01*
X0709870Y0428460D02*
X0708030Y0428460D01*
X0710590Y0422610D02*
X0712430Y0422610D01*
X0710590Y0422610D02*
X0710590Y0428850D01*
X0712430Y0428850D01*
X0712430Y0422610D01*
X0712430Y0423060D02*
X0710590Y0423060D01*
X0710590Y0423510D02*
X0712430Y0423510D01*
X0712430Y0423960D02*
X0710590Y0423960D01*
X0710590Y0424410D02*
X0712430Y0424410D01*
X0712430Y0424860D02*
X0710590Y0424860D01*
X0710590Y0425310D02*
X0712430Y0425310D01*
X0712430Y0425760D02*
X0710590Y0425760D01*
X0710590Y0426210D02*
X0712430Y0426210D01*
X0712430Y0426660D02*
X0710590Y0426660D01*
X0710590Y0427110D02*
X0712430Y0427110D01*
X0712430Y0427560D02*
X0710590Y0427560D01*
X0710590Y0428010D02*
X0712430Y0428010D01*
X0712430Y0428460D02*
X0710590Y0428460D01*
X0713150Y0422610D02*
X0714990Y0422610D01*
X0713150Y0422610D02*
X0713150Y0428850D01*
X0714990Y0428850D01*
X0714990Y0422610D01*
X0714990Y0423060D02*
X0713150Y0423060D01*
X0713150Y0423510D02*
X0714990Y0423510D01*
X0714990Y0423960D02*
X0713150Y0423960D01*
X0713150Y0424410D02*
X0714990Y0424410D01*
X0714990Y0424860D02*
X0713150Y0424860D01*
X0713150Y0425310D02*
X0714990Y0425310D01*
X0714990Y0425760D02*
X0713150Y0425760D01*
X0713150Y0426210D02*
X0714990Y0426210D01*
X0714990Y0426660D02*
X0713150Y0426660D01*
X0713150Y0427110D02*
X0714990Y0427110D01*
X0714990Y0427560D02*
X0713150Y0427560D01*
X0713150Y0428010D02*
X0714990Y0428010D01*
X0714990Y0428460D02*
X0713150Y0428460D01*
X0715710Y0422610D02*
X0717550Y0422610D01*
X0715710Y0422610D02*
X0715710Y0428850D01*
X0717550Y0428850D01*
X0717550Y0422610D01*
X0717550Y0423060D02*
X0715710Y0423060D01*
X0715710Y0423510D02*
X0717550Y0423510D01*
X0717550Y0423960D02*
X0715710Y0423960D01*
X0715710Y0424410D02*
X0717550Y0424410D01*
X0717550Y0424860D02*
X0715710Y0424860D01*
X0715710Y0425310D02*
X0717550Y0425310D01*
X0717550Y0425760D02*
X0715710Y0425760D01*
X0715710Y0426210D02*
X0717550Y0426210D01*
X0717550Y0426660D02*
X0715710Y0426660D01*
X0715710Y0427110D02*
X0717550Y0427110D01*
X0717550Y0427560D02*
X0715710Y0427560D01*
X0715710Y0428010D02*
X0717550Y0428010D01*
X0717550Y0428460D02*
X0715710Y0428460D01*
X0715710Y0451160D02*
X0717550Y0451160D01*
X0715710Y0451160D02*
X0715710Y0457400D01*
X0717550Y0457400D01*
X0717550Y0451160D01*
X0717550Y0451610D02*
X0715710Y0451610D01*
X0715710Y0452060D02*
X0717550Y0452060D01*
X0717550Y0452510D02*
X0715710Y0452510D01*
X0715710Y0452960D02*
X0717550Y0452960D01*
X0717550Y0453410D02*
X0715710Y0453410D01*
X0715710Y0453860D02*
X0717550Y0453860D01*
X0717550Y0454310D02*
X0715710Y0454310D01*
X0715710Y0454760D02*
X0717550Y0454760D01*
X0717550Y0455210D02*
X0715710Y0455210D01*
X0715710Y0455660D02*
X0717550Y0455660D01*
X0717550Y0456110D02*
X0715710Y0456110D01*
X0715710Y0456560D02*
X0717550Y0456560D01*
X0717550Y0457010D02*
X0715710Y0457010D01*
X0714990Y0451160D02*
X0713150Y0451160D01*
X0713150Y0457400D01*
X0714990Y0457400D01*
X0714990Y0451160D01*
X0714990Y0451610D02*
X0713150Y0451610D01*
X0713150Y0452060D02*
X0714990Y0452060D01*
X0714990Y0452510D02*
X0713150Y0452510D01*
X0713150Y0452960D02*
X0714990Y0452960D01*
X0714990Y0453410D02*
X0713150Y0453410D01*
X0713150Y0453860D02*
X0714990Y0453860D01*
X0714990Y0454310D02*
X0713150Y0454310D01*
X0713150Y0454760D02*
X0714990Y0454760D01*
X0714990Y0455210D02*
X0713150Y0455210D01*
X0713150Y0455660D02*
X0714990Y0455660D01*
X0714990Y0456110D02*
X0713150Y0456110D01*
X0713150Y0456560D02*
X0714990Y0456560D01*
X0714990Y0457010D02*
X0713150Y0457010D01*
X0712430Y0451160D02*
X0710590Y0451160D01*
X0710590Y0457400D01*
X0712430Y0457400D01*
X0712430Y0451160D01*
X0712430Y0451610D02*
X0710590Y0451610D01*
X0710590Y0452060D02*
X0712430Y0452060D01*
X0712430Y0452510D02*
X0710590Y0452510D01*
X0710590Y0452960D02*
X0712430Y0452960D01*
X0712430Y0453410D02*
X0710590Y0453410D01*
X0710590Y0453860D02*
X0712430Y0453860D01*
X0712430Y0454310D02*
X0710590Y0454310D01*
X0710590Y0454760D02*
X0712430Y0454760D01*
X0712430Y0455210D02*
X0710590Y0455210D01*
X0710590Y0455660D02*
X0712430Y0455660D01*
X0712430Y0456110D02*
X0710590Y0456110D01*
X0710590Y0456560D02*
X0712430Y0456560D01*
X0712430Y0457010D02*
X0710590Y0457010D01*
X0709870Y0451160D02*
X0708030Y0451160D01*
X0708030Y0457400D01*
X0709870Y0457400D01*
X0709870Y0451160D01*
X0709870Y0451610D02*
X0708030Y0451610D01*
X0708030Y0452060D02*
X0709870Y0452060D01*
X0709870Y0452510D02*
X0708030Y0452510D01*
X0708030Y0452960D02*
X0709870Y0452960D01*
X0709870Y0453410D02*
X0708030Y0453410D01*
X0708030Y0453860D02*
X0709870Y0453860D01*
X0709870Y0454310D02*
X0708030Y0454310D01*
X0708030Y0454760D02*
X0709870Y0454760D01*
X0709870Y0455210D02*
X0708030Y0455210D01*
X0708030Y0455660D02*
X0709870Y0455660D01*
X0709870Y0456110D02*
X0708030Y0456110D01*
X0708030Y0456560D02*
X0709870Y0456560D01*
X0709870Y0457010D02*
X0708030Y0457010D01*
X0707310Y0451160D02*
X0705470Y0451160D01*
X0705470Y0457400D01*
X0707310Y0457400D01*
X0707310Y0451160D01*
X0707310Y0451610D02*
X0705470Y0451610D01*
X0705470Y0452060D02*
X0707310Y0452060D01*
X0707310Y0452510D02*
X0705470Y0452510D01*
X0705470Y0452960D02*
X0707310Y0452960D01*
X0707310Y0453410D02*
X0705470Y0453410D01*
X0705470Y0453860D02*
X0707310Y0453860D01*
X0707310Y0454310D02*
X0705470Y0454310D01*
X0705470Y0454760D02*
X0707310Y0454760D01*
X0707310Y0455210D02*
X0705470Y0455210D01*
X0705470Y0455660D02*
X0707310Y0455660D01*
X0707310Y0456110D02*
X0705470Y0456110D01*
X0705470Y0456560D02*
X0707310Y0456560D01*
X0707310Y0457010D02*
X0705470Y0457010D01*
X0704750Y0451160D02*
X0702910Y0451160D01*
X0702910Y0457400D01*
X0704750Y0457400D01*
X0704750Y0451160D01*
X0704750Y0451610D02*
X0702910Y0451610D01*
X0702910Y0452060D02*
X0704750Y0452060D01*
X0704750Y0452510D02*
X0702910Y0452510D01*
X0702910Y0452960D02*
X0704750Y0452960D01*
X0704750Y0453410D02*
X0702910Y0453410D01*
X0702910Y0453860D02*
X0704750Y0453860D01*
X0704750Y0454310D02*
X0702910Y0454310D01*
X0702910Y0454760D02*
X0704750Y0454760D01*
X0704750Y0455210D02*
X0702910Y0455210D01*
X0702910Y0455660D02*
X0704750Y0455660D01*
X0704750Y0456110D02*
X0702910Y0456110D01*
X0702910Y0456560D02*
X0704750Y0456560D01*
X0704750Y0457010D02*
X0702910Y0457010D01*
X0702200Y0451160D02*
X0700360Y0451160D01*
X0700360Y0457400D01*
X0702200Y0457400D01*
X0702200Y0451160D01*
X0702200Y0451610D02*
X0700360Y0451610D01*
X0700360Y0452060D02*
X0702200Y0452060D01*
X0702200Y0452510D02*
X0700360Y0452510D01*
X0700360Y0452960D02*
X0702200Y0452960D01*
X0702200Y0453410D02*
X0700360Y0453410D01*
X0700360Y0453860D02*
X0702200Y0453860D01*
X0702200Y0454310D02*
X0700360Y0454310D01*
X0700360Y0454760D02*
X0702200Y0454760D01*
X0702200Y0455210D02*
X0700360Y0455210D01*
X0700360Y0455660D02*
X0702200Y0455660D01*
X0702200Y0456110D02*
X0700360Y0456110D01*
X0700360Y0456560D02*
X0702200Y0456560D01*
X0702200Y0457010D02*
X0700360Y0457010D01*
X0699640Y0451160D02*
X0697800Y0451160D01*
X0697800Y0457400D01*
X0699640Y0457400D01*
X0699640Y0451160D01*
X0699640Y0451610D02*
X0697800Y0451610D01*
X0697800Y0452060D02*
X0699640Y0452060D01*
X0699640Y0452510D02*
X0697800Y0452510D01*
X0697800Y0452960D02*
X0699640Y0452960D01*
X0699640Y0453410D02*
X0697800Y0453410D01*
X0697800Y0453860D02*
X0699640Y0453860D01*
X0699640Y0454310D02*
X0697800Y0454310D01*
X0697800Y0454760D02*
X0699640Y0454760D01*
X0699640Y0455210D02*
X0697800Y0455210D01*
X0697800Y0455660D02*
X0699640Y0455660D01*
X0699640Y0456110D02*
X0697800Y0456110D01*
X0697800Y0456560D02*
X0699640Y0456560D01*
X0699640Y0457010D02*
X0697800Y0457010D01*
X0697080Y0451160D02*
X0695240Y0451160D01*
X0695240Y0457400D01*
X0697080Y0457400D01*
X0697080Y0451160D01*
X0697080Y0451610D02*
X0695240Y0451610D01*
X0695240Y0452060D02*
X0697080Y0452060D01*
X0697080Y0452510D02*
X0695240Y0452510D01*
X0695240Y0452960D02*
X0697080Y0452960D01*
X0697080Y0453410D02*
X0695240Y0453410D01*
X0695240Y0453860D02*
X0697080Y0453860D01*
X0697080Y0454310D02*
X0695240Y0454310D01*
X0695240Y0454760D02*
X0697080Y0454760D01*
X0697080Y0455210D02*
X0695240Y0455210D01*
X0695240Y0455660D02*
X0697080Y0455660D01*
X0697080Y0456110D02*
X0695240Y0456110D01*
X0695240Y0456560D02*
X0697080Y0456560D01*
X0697080Y0457010D02*
X0695240Y0457010D01*
X0694520Y0451160D02*
X0692680Y0451160D01*
X0692680Y0457400D01*
X0694520Y0457400D01*
X0694520Y0451160D01*
X0694520Y0451610D02*
X0692680Y0451610D01*
X0692680Y0452060D02*
X0694520Y0452060D01*
X0694520Y0452510D02*
X0692680Y0452510D01*
X0692680Y0452960D02*
X0694520Y0452960D01*
X0694520Y0453410D02*
X0692680Y0453410D01*
X0692680Y0453860D02*
X0694520Y0453860D01*
X0694520Y0454310D02*
X0692680Y0454310D01*
X0692680Y0454760D02*
X0694520Y0454760D01*
X0694520Y0455210D02*
X0692680Y0455210D01*
X0692680Y0455660D02*
X0694520Y0455660D01*
X0694520Y0456110D02*
X0692680Y0456110D01*
X0692680Y0456560D02*
X0694520Y0456560D01*
X0694520Y0457010D02*
X0692680Y0457010D01*
X0691960Y0451160D02*
X0690120Y0451160D01*
X0690120Y0457400D01*
X0691960Y0457400D01*
X0691960Y0451160D01*
X0691960Y0451610D02*
X0690120Y0451610D01*
X0690120Y0452060D02*
X0691960Y0452060D01*
X0691960Y0452510D02*
X0690120Y0452510D01*
X0690120Y0452960D02*
X0691960Y0452960D01*
X0691960Y0453410D02*
X0690120Y0453410D01*
X0690120Y0453860D02*
X0691960Y0453860D01*
X0691960Y0454310D02*
X0690120Y0454310D01*
X0690120Y0454760D02*
X0691960Y0454760D01*
X0691960Y0455210D02*
X0690120Y0455210D01*
X0690120Y0455660D02*
X0691960Y0455660D01*
X0691960Y0456110D02*
X0690120Y0456110D01*
X0690120Y0456560D02*
X0691960Y0456560D01*
X0691960Y0457010D02*
X0690120Y0457010D01*
X0689400Y0451160D02*
X0687560Y0451160D01*
X0687560Y0457400D01*
X0689400Y0457400D01*
X0689400Y0451160D01*
X0689400Y0451610D02*
X0687560Y0451610D01*
X0687560Y0452060D02*
X0689400Y0452060D01*
X0689400Y0452510D02*
X0687560Y0452510D01*
X0687560Y0452960D02*
X0689400Y0452960D01*
X0689400Y0453410D02*
X0687560Y0453410D01*
X0687560Y0453860D02*
X0689400Y0453860D01*
X0689400Y0454310D02*
X0687560Y0454310D01*
X0687560Y0454760D02*
X0689400Y0454760D01*
X0689400Y0455210D02*
X0687560Y0455210D01*
X0687560Y0455660D02*
X0689400Y0455660D01*
X0689400Y0456110D02*
X0687560Y0456110D01*
X0687560Y0456560D02*
X0689400Y0456560D01*
X0689400Y0457010D02*
X0687560Y0457010D01*
X0686840Y0451160D02*
X0685000Y0451160D01*
X0685000Y0457400D01*
X0686840Y0457400D01*
X0686840Y0451160D01*
X0686840Y0451610D02*
X0685000Y0451610D01*
X0685000Y0452060D02*
X0686840Y0452060D01*
X0686840Y0452510D02*
X0685000Y0452510D01*
X0685000Y0452960D02*
X0686840Y0452960D01*
X0686840Y0453410D02*
X0685000Y0453410D01*
X0685000Y0453860D02*
X0686840Y0453860D01*
X0686840Y0454310D02*
X0685000Y0454310D01*
X0685000Y0454760D02*
X0686840Y0454760D01*
X0686840Y0455210D02*
X0685000Y0455210D01*
X0685000Y0455660D02*
X0686840Y0455660D01*
X0686840Y0456110D02*
X0685000Y0456110D01*
X0685000Y0456560D02*
X0686840Y0456560D01*
X0686840Y0457010D02*
X0685000Y0457010D01*
X0684280Y0451160D02*
X0682440Y0451160D01*
X0682440Y0457400D01*
X0684280Y0457400D01*
X0684280Y0451160D01*
X0684280Y0451610D02*
X0682440Y0451610D01*
X0682440Y0452060D02*
X0684280Y0452060D01*
X0684280Y0452510D02*
X0682440Y0452510D01*
X0682440Y0452960D02*
X0684280Y0452960D01*
X0684280Y0453410D02*
X0682440Y0453410D01*
X0682440Y0453860D02*
X0684280Y0453860D01*
X0684280Y0454310D02*
X0682440Y0454310D01*
X0682440Y0454760D02*
X0684280Y0454760D01*
X0684280Y0455210D02*
X0682440Y0455210D01*
X0682440Y0455660D02*
X0684280Y0455660D01*
X0684280Y0456110D02*
X0682440Y0456110D01*
X0682440Y0456560D02*
X0684280Y0456560D01*
X0684280Y0457010D02*
X0682440Y0457010D01*
D59*
X0670170Y0427500D03*
X0654820Y0427500D03*
D43*
X0677200Y0399100D03*
X0677200Y0390000D03*
X0677200Y0380900D03*
D149*
X0652800Y0390000D03*
X0652800Y0360000D03*
D39*
X0732500Y0352270D03*
X0737500Y0352270D03*
X0742500Y0352270D03*
X0747500Y0352270D03*
X0747500Y0372740D03*
X0742500Y0372740D03*
X0737500Y0372740D03*
X0732500Y0372740D03*
D43*
X0677200Y0369100D03*
X0677200Y0360000D03*
X0677200Y0350910D03*
D151*
X0728400Y0332210D03*
X0737500Y0332210D03*
X0746590Y0332210D03*
D14*
X0737500Y0307800D03*
D57*
X0835230Y0370180D03*
X0837200Y0370180D03*
X0839170Y0370180D03*
X0841140Y0370180D03*
X0843110Y0370180D03*
X0845070Y0370180D03*
X0847040Y0370180D03*
X0849010Y0370180D03*
X0850980Y0370180D03*
X0852950Y0370180D03*
X0854920Y0370180D03*
X0856890Y0370180D03*
X0858850Y0370180D03*
X0860820Y0370180D03*
X0862790Y0370180D03*
X0864760Y0370180D03*
X0864760Y0404830D03*
X0862790Y0404830D03*
X0860820Y0404830D03*
X0858850Y0404830D03*
X0856890Y0404830D03*
X0854920Y0404830D03*
X0852950Y0404830D03*
X0850980Y0404830D03*
X0849010Y0404830D03*
X0847040Y0404830D03*
X0845070Y0404830D03*
X0843110Y0404830D03*
X0841140Y0404830D03*
X0839170Y0404830D03*
X0837200Y0404830D03*
X0835230Y0404830D03*
D111*
X0832670Y0402270D03*
X0832670Y0400300D03*
X0832670Y0398330D03*
X0832670Y0396360D03*
X0832670Y0394390D03*
X0832670Y0392430D03*
X0832670Y0390460D03*
X0832670Y0388490D03*
X0832670Y0386520D03*
X0832670Y0384550D03*
X0832670Y0382580D03*
X0832670Y0380610D03*
X0832670Y0378650D03*
X0832670Y0376680D03*
X0832670Y0374710D03*
X0832670Y0372740D03*
X0867320Y0372740D03*
X0867320Y0374710D03*
X0867320Y0376680D03*
X0867320Y0378650D03*
X0867320Y0380610D03*
X0867320Y0382580D03*
X0867320Y0384550D03*
X0867320Y0386520D03*
X0867320Y0388490D03*
X0867320Y0390460D03*
X0867320Y0392430D03*
X0867320Y0394390D03*
X0867320Y0396360D03*
X0867320Y0398330D03*
X0867320Y0400300D03*
X0867320Y0402270D03*
D91*
X0850000Y0387500D03*
D88*
X0877440Y0363550D03*
X0880000Y0363550D03*
X0882560Y0363550D03*
X0882560Y0356460D03*
X0880000Y0356460D03*
X0877440Y0356460D03*
D50*
D158*
X0901800Y0353500D03*
D50*
D158*
X0901800Y0363500D03*
D50*
D158*
X0901800Y0373500D03*
D50*
D11*
X0820650Y0381600D03*
X0814350Y0381600D03*
X0814350Y0393410D03*
X0820650Y0393410D03*
D99*
X0669840Y0445180D03*
X0648190Y0444790D03*
X0648190Y0480220D03*
X0669840Y0480220D03*
D90*
X0669840Y0468800D03*
X0669840Y0465650D03*
X0669840Y0462500D03*
X0669840Y0459360D03*
X0669840Y0456210D03*
D79*
X0660000Y0453840D03*
X0660000Y0471170D03*
D137*
X0747770Y0456240D03*
X0747770Y0452500D03*
X0747770Y0448760D03*
X0757220Y0448760D03*
X0757220Y0452500D03*
X0757220Y0456240D03*
X0762770Y0438740D03*
X0762770Y0435000D03*
X0762770Y0431260D03*
X0772220Y0431260D03*
X0772220Y0435000D03*
X0772220Y0438740D03*
X0790270Y0438740D03*
X0790270Y0435000D03*
X0790270Y0431260D03*
X0799720Y0431260D03*
X0799720Y0435000D03*
X0799720Y0438740D03*
X0810270Y0448760D03*
X0810270Y0452500D03*
X0810270Y0456240D03*
X0819720Y0456240D03*
X0819720Y0452500D03*
X0819720Y0448760D03*
X0817770Y0438740D03*
X0817770Y0435000D03*
X0817770Y0431260D03*
X0827220Y0431260D03*
X0827220Y0435000D03*
X0827220Y0438740D03*
X0845270Y0438740D03*
X0845270Y0435000D03*
X0845270Y0431260D03*
X0854720Y0431260D03*
X0854720Y0435000D03*
X0854720Y0438740D03*
X0872770Y0438740D03*
X0872770Y0435000D03*
X0872770Y0431260D03*
X0882220Y0431260D03*
X0882220Y0435000D03*
X0882220Y0438740D03*
X0885270Y0448760D03*
X0885270Y0452500D03*
X0885270Y0456240D03*
X0894720Y0456240D03*
X0894720Y0452500D03*
X0894720Y0448760D03*
X0864720Y0346240D03*
X0864720Y0342500D03*
X0864720Y0338760D03*
X0855270Y0338760D03*
X0855270Y0342500D03*
X0855270Y0346240D03*
X0844720Y0346240D03*
X0844720Y0342500D03*
X0844720Y0338760D03*
X0835270Y0338760D03*
X0835270Y0342500D03*
X0835270Y0346240D03*
X0824720Y0346240D03*
X0824720Y0342500D03*
X0824720Y0338760D03*
X0815270Y0338760D03*
X0815270Y0342500D03*
X0815270Y0346240D03*
X0804720Y0346240D03*
X0804720Y0342500D03*
X0804720Y0338760D03*
X0795270Y0338760D03*
X0795270Y0342500D03*
X0795270Y0346240D03*
D58*
X0730110Y0396260D03*
X0730110Y0403740D03*
X0719920Y0403740D03*
X0719920Y0400000D03*
X0719920Y0396260D03*
D114*
X0757500Y0390810D03*
X0757500Y0404200D03*
D97*
X0782770Y0459360D03*
X0785920Y0459360D03*
X0789070Y0459360D03*
X0792220Y0459360D03*
X0792220Y0465650D03*
X0789070Y0465650D03*
X0785920Y0465650D03*
X0782770Y0465650D03*
X0800270Y0464360D03*
X0803420Y0464360D03*
X0806570Y0464360D03*
X0809720Y0464360D03*
X0809720Y0470650D03*
X0806570Y0470650D03*
X0803420Y0470650D03*
X0800270Y0470650D03*
X0830270Y0468150D03*
X0833420Y0468150D03*
X0836570Y0468150D03*
X0839720Y0468150D03*
X0839720Y0461860D03*
X0836570Y0461860D03*
X0833420Y0461860D03*
X0830270Y0461860D03*
X0857770Y0461860D03*
X0860920Y0461860D03*
X0864070Y0461860D03*
X0867220Y0461860D03*
X0867220Y0468150D03*
X0864070Y0468150D03*
X0860920Y0468150D03*
X0857770Y0468150D03*
X0847220Y0330650D03*
X0844070Y0330650D03*
X0840920Y0330650D03*
X0837770Y0330650D03*
X0837770Y0324360D03*
X0840920Y0324360D03*
X0844070Y0324360D03*
X0847220Y0324360D03*
X0829720Y0325650D03*
X0826570Y0325650D03*
X0823420Y0325650D03*
X0820270Y0325650D03*
X0820270Y0319360D03*
X0823420Y0319360D03*
X0826570Y0319360D03*
X0829720Y0319360D03*
X0010000Y0500000D02*
G75*
%LPD*%
D132*
X0035000Y0525000D03*
X0925000Y0525000D03*
D17*
X0899000Y0525000D02*
X0899020Y0525200D01*
X0899080Y0525380D01*
X0899170Y0525560D01*
X0899290Y0525710D01*
X0899440Y0525830D01*
X0899620Y0525920D01*
X0899800Y0525980D01*
X0900000Y0526000D01*
X0900200Y0525980D01*
X0900380Y0525920D01*
X0900560Y0525830D01*
X0900710Y0525710D01*
X0900830Y0525560D01*
X0900920Y0525380D01*
X0900980Y0525200D01*
X0901000Y0525000D01*
X0900980Y0524800D01*
X0900920Y0524620D01*
X0900830Y0524440D01*
X0900710Y0524290D01*
X0900560Y0524170D01*
X0900380Y0524080D01*
X0900200Y0524020D01*
X0900000Y0524000D01*
X0899800Y0524020D01*
X0899620Y0524080D01*
X0899440Y0524170D01*
X0899290Y0524290D01*
X0899170Y0524440D01*
X0899080Y0524620D01*
X0899020Y0524800D01*
X0899000Y0525000D01*
X0059000Y0525000D02*
X0059020Y0525200D01*
X0059080Y0525380D01*
X0059170Y0525560D01*
X0059290Y0525710D01*
X0059440Y0525830D01*
X0059620Y0525920D01*
X0059800Y0525980D01*
X0060000Y0526000D01*
X0060200Y0525980D01*
X0060380Y0525920D01*
X0060560Y0525830D01*
X0060710Y0525710D01*
X0060830Y0525560D01*
X0060920Y0525380D01*
X0060980Y0525200D01*
X0061000Y0525000D01*
X0060980Y0524800D01*
X0060920Y0524620D01*
X0060830Y0524440D01*
X0060710Y0524290D01*
X0060560Y0524170D01*
X0060380Y0524080D01*
X0060200Y0524020D01*
X0060000Y0524000D01*
X0059800Y0524020D01*
X0059620Y0524080D01*
X0059440Y0524170D01*
X0059290Y0524290D01*
X0059170Y0524440D01*
X0059080Y0524620D01*
X0059020Y0524800D01*
X0059000Y0525000D01*
M02*
